<?xml version="1.0" encoding="utf-8" standalone="no"?>
<!DOCTYPE svg PUBLIC "-//W3C//DTD SVG 1.1//EN"
  "http://www.w3.org/Graphics/SVG/1.1/DTD/svg11.dtd">
<svg xmlns:xlink="http://www.w3.org/1999/xlink" width="576pt" height="288pt" viewBox="0 0 576 288" xmlns="http://www.w3.org/2000/svg" version="1.1">
 <metadata>
  <rdf:RDF xmlns:dc="http://purl.org/dc/elements/1.1/" xmlns:cc="http://creativecommons.org/ns#" xmlns:rdf="http://www.w3.org/1999/02/22-rdf-syntax-ns#">
   <cc:Work>
    <dc:type rdf:resource="http://purl.org/dc/dcmitype/StillImage"/>
    <dc:date>2025-04-28T00:10:38.361731</dc:date>
    <dc:format>image/svg+xml</dc:format>
    <dc:creator>
     <cc:Agent>
      <dc:title>Matplotlib v3.10.1, https://matplotlib.org/</dc:title>
     </cc:Agent>
    </dc:creator>
   </cc:Work>
  </rdf:RDF>
 </metadata>
 <defs>
  <style type="text/css">*{stroke-linejoin: round; stroke-linecap: butt}</style>
 </defs>
 <g id="figure_1">
  <g id="patch_1">
   <path d="M 0 288 
L 576 288 
L 576 0 
L 0 0 
z
" style="fill: #ffffff"/>
  </g>
  <g id="axes_1">
   <g id="patch_2">
    <path d="M 63.56 246.04 
L 565.2 246.04 
L 565.2 26.88 
L 63.56 26.88 
z
" style="fill: #ffffff"/>
   </g>
   <g id="matplotlib.axis_1">
    <g id="xtick_1">
     <g id="line2d_1">
      <defs>
       <path id="m3f2dc0bf5b" d="M 0 0 
L 0 3.5 
" style="stroke: #000000; stroke-width: 0.8"/>
      </defs>
      <g>
       <use xlink:href="#m3f2dc0bf5b" x="81.711775" y="246.04" style="stroke: #000000; stroke-width: 0.8"/>
      </g>
     </g>
     <g id="text_1">
      <!-- 2021-07 -->
      <g transform="translate(60.820369 260.638438) scale(0.1 -0.1)">
       <defs>
        <path id="DejaVuSans-32" d="M 1228 531 
L 3431 531 
L 3431 0 
L 469 0 
L 469 531 
Q 828 903 1448 1529 
Q 2069 2156 2228 2338 
Q 2531 2678 2651 2914 
Q 2772 3150 2772 3378 
Q 2772 3750 2511 3984 
Q 2250 4219 1831 4219 
Q 1534 4219 1204 4116 
Q 875 4013 500 3803 
L 500 4441 
Q 881 4594 1212 4672 
Q 1544 4750 1819 4750 
Q 2544 4750 2975 4387 
Q 3406 4025 3406 3419 
Q 3406 3131 3298 2873 
Q 3191 2616 2906 2266 
Q 2828 2175 2409 1742 
Q 1991 1309 1228 531 
z
" transform="scale(0.015625)"/>
        <path id="DejaVuSans-30" d="M 2034 4250 
Q 1547 4250 1301 3770 
Q 1056 3291 1056 2328 
Q 1056 1369 1301 889 
Q 1547 409 2034 409 
Q 2525 409 2770 889 
Q 3016 1369 3016 2328 
Q 3016 3291 2770 3770 
Q 2525 4250 2034 4250 
z
M 2034 4750 
Q 2819 4750 3233 4129 
Q 3647 3509 3647 2328 
Q 3647 1150 3233 529 
Q 2819 -91 2034 -91 
Q 1250 -91 836 529 
Q 422 1150 422 2328 
Q 422 3509 836 4129 
Q 1250 4750 2034 4750 
z
" transform="scale(0.015625)"/>
        <path id="DejaVuSans-31" d="M 794 531 
L 1825 531 
L 1825 4091 
L 703 3866 
L 703 4441 
L 1819 4666 
L 2450 4666 
L 2450 531 
L 3481 531 
L 3481 0 
L 794 0 
L 794 531 
z
" transform="scale(0.015625)"/>
        <path id="DejaVuSans-2d" d="M 313 2009 
L 1997 2009 
L 1997 1497 
L 313 1497 
L 313 2009 
z
" transform="scale(0.015625)"/>
        <path id="DejaVuSans-37" d="M 525 4666 
L 3525 4666 
L 3525 4397 
L 1831 0 
L 1172 0 
L 2766 4134 
L 525 4134 
L 525 4666 
z
" transform="scale(0.015625)"/>
       </defs>
       <use xlink:href="#DejaVuSans-32"/>
       <use xlink:href="#DejaVuSans-30" transform="translate(63.623047 0)"/>
       <use xlink:href="#DejaVuSans-32" transform="translate(127.246094 0)"/>
       <use xlink:href="#DejaVuSans-31" transform="translate(190.869141 0)"/>
       <use xlink:href="#DejaVuSans-2d" transform="translate(254.492188 0)"/>
       <use xlink:href="#DejaVuSans-30" transform="translate(290.576172 0)"/>
       <use xlink:href="#DejaVuSans-37" transform="translate(354.199219 0)"/>
      </g>
     </g>
    </g>
    <g id="xtick_2">
     <g id="line2d_2">
      <g>
       <use xlink:href="#m3f2dc0bf5b" x="142.826626" y="246.04" style="stroke: #000000; stroke-width: 0.8"/>
      </g>
     </g>
     <g id="text_2">
      <!-- 2022-01 -->
      <g transform="translate(121.93522 260.638438) scale(0.1 -0.1)">
       <use xlink:href="#DejaVuSans-32"/>
       <use xlink:href="#DejaVuSans-30" transform="translate(63.623047 0)"/>
       <use xlink:href="#DejaVuSans-32" transform="translate(127.246094 0)"/>
       <use xlink:href="#DejaVuSans-32" transform="translate(190.869141 0)"/>
       <use xlink:href="#DejaVuSans-2d" transform="translate(254.492188 0)"/>
       <use xlink:href="#DejaVuSans-30" transform="translate(290.576172 0)"/>
       <use xlink:href="#DejaVuSans-31" transform="translate(354.199219 0)"/>
      </g>
     </g>
    </g>
    <g id="xtick_3">
     <g id="line2d_3">
      <g>
       <use xlink:href="#m3f2dc0bf5b" x="202.94504" y="246.04" style="stroke: #000000; stroke-width: 0.8"/>
      </g>
     </g>
     <g id="text_3">
      <!-- 2022-07 -->
      <g transform="translate(182.053634 260.638438) scale(0.1 -0.1)">
       <use xlink:href="#DejaVuSans-32"/>
       <use xlink:href="#DejaVuSans-30" transform="translate(63.623047 0)"/>
       <use xlink:href="#DejaVuSans-32" transform="translate(127.246094 0)"/>
       <use xlink:href="#DejaVuSans-32" transform="translate(190.869141 0)"/>
       <use xlink:href="#DejaVuSans-2d" transform="translate(254.492188 0)"/>
       <use xlink:href="#DejaVuSans-30" transform="translate(290.576172 0)"/>
       <use xlink:href="#DejaVuSans-37" transform="translate(354.199219 0)"/>
      </g>
     </g>
    </g>
    <g id="xtick_4">
     <g id="line2d_4">
      <g>
       <use xlink:href="#m3f2dc0bf5b" x="264.059891" y="246.04" style="stroke: #000000; stroke-width: 0.8"/>
      </g>
     </g>
     <g id="text_4">
      <!-- 2023-01 -->
      <g transform="translate(243.168485 260.638438) scale(0.1 -0.1)">
       <defs>
        <path id="DejaVuSans-33" d="M 2597 2516 
Q 3050 2419 3304 2112 
Q 3559 1806 3559 1356 
Q 3559 666 3084 287 
Q 2609 -91 1734 -91 
Q 1441 -91 1130 -33 
Q 819 25 488 141 
L 488 750 
Q 750 597 1062 519 
Q 1375 441 1716 441 
Q 2309 441 2620 675 
Q 2931 909 2931 1356 
Q 2931 1769 2642 2001 
Q 2353 2234 1838 2234 
L 1294 2234 
L 1294 2753 
L 1863 2753 
Q 2328 2753 2575 2939 
Q 2822 3125 2822 3475 
Q 2822 3834 2567 4026 
Q 2313 4219 1838 4219 
Q 1578 4219 1281 4162 
Q 984 4106 628 3988 
L 628 4550 
Q 988 4650 1302 4700 
Q 1616 4750 1894 4750 
Q 2613 4750 3031 4423 
Q 3450 4097 3450 3541 
Q 3450 3153 3228 2886 
Q 3006 2619 2597 2516 
z
" transform="scale(0.015625)"/>
       </defs>
       <use xlink:href="#DejaVuSans-32"/>
       <use xlink:href="#DejaVuSans-30" transform="translate(63.623047 0)"/>
       <use xlink:href="#DejaVuSans-32" transform="translate(127.246094 0)"/>
       <use xlink:href="#DejaVuSans-33" transform="translate(190.869141 0)"/>
       <use xlink:href="#DejaVuSans-2d" transform="translate(254.492188 0)"/>
       <use xlink:href="#DejaVuSans-30" transform="translate(290.576172 0)"/>
       <use xlink:href="#DejaVuSans-31" transform="translate(354.199219 0)"/>
      </g>
     </g>
    </g>
    <g id="xtick_5">
     <g id="line2d_5">
      <g>
       <use xlink:href="#m3f2dc0bf5b" x="324.178305" y="246.04" style="stroke: #000000; stroke-width: 0.8"/>
      </g>
     </g>
     <g id="text_5">
      <!-- 2023-07 -->
      <g transform="translate(303.286899 260.638438) scale(0.1 -0.1)">
       <use xlink:href="#DejaVuSans-32"/>
       <use xlink:href="#DejaVuSans-30" transform="translate(63.623047 0)"/>
       <use xlink:href="#DejaVuSans-32" transform="translate(127.246094 0)"/>
       <use xlink:href="#DejaVuSans-33" transform="translate(190.869141 0)"/>
       <use xlink:href="#DejaVuSans-2d" transform="translate(254.492188 0)"/>
       <use xlink:href="#DejaVuSans-30" transform="translate(290.576172 0)"/>
       <use xlink:href="#DejaVuSans-37" transform="translate(354.199219 0)"/>
      </g>
     </g>
    </g>
    <g id="xtick_6">
     <g id="line2d_6">
      <g>
       <use xlink:href="#m3f2dc0bf5b" x="385.293156" y="246.04" style="stroke: #000000; stroke-width: 0.8"/>
      </g>
     </g>
     <g id="text_6">
      <!-- 2024-01 -->
      <g transform="translate(364.40175 260.638438) scale(0.1 -0.1)">
       <defs>
        <path id="DejaVuSans-34" d="M 2419 4116 
L 825 1625 
L 2419 1625 
L 2419 4116 
z
M 2253 4666 
L 3047 4666 
L 3047 1625 
L 3713 1625 
L 3713 1100 
L 3047 1100 
L 3047 0 
L 2419 0 
L 2419 1100 
L 313 1100 
L 313 1709 
L 2253 4666 
z
" transform="scale(0.015625)"/>
       </defs>
       <use xlink:href="#DejaVuSans-32"/>
       <use xlink:href="#DejaVuSans-30" transform="translate(63.623047 0)"/>
       <use xlink:href="#DejaVuSans-32" transform="translate(127.246094 0)"/>
       <use xlink:href="#DejaVuSans-34" transform="translate(190.869141 0)"/>
       <use xlink:href="#DejaVuSans-2d" transform="translate(254.492188 0)"/>
       <use xlink:href="#DejaVuSans-30" transform="translate(290.576172 0)"/>
       <use xlink:href="#DejaVuSans-31" transform="translate(354.199219 0)"/>
      </g>
     </g>
    </g>
    <g id="xtick_7">
     <g id="line2d_7">
      <g>
       <use xlink:href="#m3f2dc0bf5b" x="445.743716" y="246.04" style="stroke: #000000; stroke-width: 0.8"/>
      </g>
     </g>
     <g id="text_7">
      <!-- 2024-07 -->
      <g transform="translate(424.85231 260.638438) scale(0.1 -0.1)">
       <use xlink:href="#DejaVuSans-32"/>
       <use xlink:href="#DejaVuSans-30" transform="translate(63.623047 0)"/>
       <use xlink:href="#DejaVuSans-32" transform="translate(127.246094 0)"/>
       <use xlink:href="#DejaVuSans-34" transform="translate(190.869141 0)"/>
       <use xlink:href="#DejaVuSans-2d" transform="translate(254.492188 0)"/>
       <use xlink:href="#DejaVuSans-30" transform="translate(290.576172 0)"/>
       <use xlink:href="#DejaVuSans-37" transform="translate(354.199219 0)"/>
      </g>
     </g>
    </g>
    <g id="xtick_8">
     <g id="line2d_8">
      <g>
       <use xlink:href="#m3f2dc0bf5b" x="506.858567" y="246.04" style="stroke: #000000; stroke-width: 0.8"/>
      </g>
     </g>
     <g id="text_8">
      <!-- 2025-01 -->
      <g transform="translate(485.967161 260.638438) scale(0.1 -0.1)">
       <defs>
        <path id="DejaVuSans-35" d="M 691 4666 
L 3169 4666 
L 3169 4134 
L 1269 4134 
L 1269 2991 
Q 1406 3038 1543 3061 
Q 1681 3084 1819 3084 
Q 2600 3084 3056 2656 
Q 3513 2228 3513 1497 
Q 3513 744 3044 326 
Q 2575 -91 1722 -91 
Q 1428 -91 1123 -41 
Q 819 9 494 109 
L 494 744 
Q 775 591 1075 516 
Q 1375 441 1709 441 
Q 2250 441 2565 725 
Q 2881 1009 2881 1497 
Q 2881 1984 2565 2268 
Q 2250 2553 1709 2553 
Q 1456 2553 1204 2497 
Q 953 2441 691 2322 
L 691 4666 
z
" transform="scale(0.015625)"/>
       </defs>
       <use xlink:href="#DejaVuSans-32"/>
       <use xlink:href="#DejaVuSans-30" transform="translate(63.623047 0)"/>
       <use xlink:href="#DejaVuSans-32" transform="translate(127.246094 0)"/>
       <use xlink:href="#DejaVuSans-35" transform="translate(190.869141 0)"/>
       <use xlink:href="#DejaVuSans-2d" transform="translate(254.492188 0)"/>
       <use xlink:href="#DejaVuSans-30" transform="translate(290.576172 0)"/>
       <use xlink:href="#DejaVuSans-31" transform="translate(354.199219 0)"/>
      </g>
     </g>
    </g>
    <g id="text_9">
     <!-- Date -->
     <g transform="translate(302.429219 274.316562) scale(0.1 -0.1)">
      <defs>
       <path id="DejaVuSans-44" d="M 1259 4147 
L 1259 519 
L 2022 519 
Q 2988 519 3436 956 
Q 3884 1394 3884 2338 
Q 3884 3275 3436 3711 
Q 2988 4147 2022 4147 
L 1259 4147 
z
M 628 4666 
L 1925 4666 
Q 3281 4666 3915 4102 
Q 4550 3538 4550 2338 
Q 4550 1131 3912 565 
Q 3275 0 1925 0 
L 628 0 
L 628 4666 
z
" transform="scale(0.015625)"/>
       <path id="DejaVuSans-61" d="M 2194 1759 
Q 1497 1759 1228 1600 
Q 959 1441 959 1056 
Q 959 750 1161 570 
Q 1363 391 1709 391 
Q 2188 391 2477 730 
Q 2766 1069 2766 1631 
L 2766 1759 
L 2194 1759 
z
M 3341 1997 
L 3341 0 
L 2766 0 
L 2766 531 
Q 2569 213 2275 61 
Q 1981 -91 1556 -91 
Q 1019 -91 701 211 
Q 384 513 384 1019 
Q 384 1609 779 1909 
Q 1175 2209 1959 2209 
L 2766 2209 
L 2766 2266 
Q 2766 2663 2505 2880 
Q 2244 3097 1772 3097 
Q 1472 3097 1187 3025 
Q 903 2953 641 2809 
L 641 3341 
Q 956 3463 1253 3523 
Q 1550 3584 1831 3584 
Q 2591 3584 2966 3190 
Q 3341 2797 3341 1997 
z
" transform="scale(0.015625)"/>
       <path id="DejaVuSans-74" d="M 1172 4494 
L 1172 3500 
L 2356 3500 
L 2356 3053 
L 1172 3053 
L 1172 1153 
Q 1172 725 1289 603 
Q 1406 481 1766 481 
L 2356 481 
L 2356 0 
L 1766 0 
Q 1100 0 847 248 
Q 594 497 594 1153 
L 594 3053 
L 172 3053 
L 172 3500 
L 594 3500 
L 594 4494 
L 1172 4494 
z
" transform="scale(0.015625)"/>
       <path id="DejaVuSans-65" d="M 3597 1894 
L 3597 1613 
L 953 1613 
Q 991 1019 1311 708 
Q 1631 397 2203 397 
Q 2534 397 2845 478 
Q 3156 559 3463 722 
L 3463 178 
Q 3153 47 2828 -22 
Q 2503 -91 2169 -91 
Q 1331 -91 842 396 
Q 353 884 353 1716 
Q 353 2575 817 3079 
Q 1281 3584 2069 3584 
Q 2775 3584 3186 3129 
Q 3597 2675 3597 1894 
z
M 3022 2063 
Q 3016 2534 2758 2815 
Q 2500 3097 2075 3097 
Q 1594 3097 1305 2825 
Q 1016 2553 972 2059 
L 3022 2063 
z
" transform="scale(0.015625)"/>
      </defs>
      <use xlink:href="#DejaVuSans-44"/>
      <use xlink:href="#DejaVuSans-61" transform="translate(77.001953 0)"/>
      <use xlink:href="#DejaVuSans-74" transform="translate(138.28125 0)"/>
      <use xlink:href="#DejaVuSans-65" transform="translate(177.490234 0)"/>
     </g>
    </g>
   </g>
   <g id="matplotlib.axis_2">
    <g id="ytick_1">
     <g id="line2d_9">
      <defs>
       <path id="me7bd5f8479" d="M 0 0 
L -3.5 0 
" style="stroke: #000000; stroke-width: 0.8"/>
      </defs>
      <g>
       <use xlink:href="#me7bd5f8479" x="63.56" y="235.114692" style="stroke: #000000; stroke-width: 0.8"/>
      </g>
     </g>
     <g id="text_10">
      <!-- 8000 -->
      <g transform="translate(31.11 238.91391) scale(0.1 -0.1)">
       <defs>
        <path id="DejaVuSans-38" d="M 2034 2216 
Q 1584 2216 1326 1975 
Q 1069 1734 1069 1313 
Q 1069 891 1326 650 
Q 1584 409 2034 409 
Q 2484 409 2743 651 
Q 3003 894 3003 1313 
Q 3003 1734 2745 1975 
Q 2488 2216 2034 2216 
z
M 1403 2484 
Q 997 2584 770 2862 
Q 544 3141 544 3541 
Q 544 4100 942 4425 
Q 1341 4750 2034 4750 
Q 2731 4750 3128 4425 
Q 3525 4100 3525 3541 
Q 3525 3141 3298 2862 
Q 3072 2584 2669 2484 
Q 3125 2378 3379 2068 
Q 3634 1759 3634 1313 
Q 3634 634 3220 271 
Q 2806 -91 2034 -91 
Q 1263 -91 848 271 
Q 434 634 434 1313 
Q 434 1759 690 2068 
Q 947 2378 1403 2484 
z
M 1172 3481 
Q 1172 3119 1398 2916 
Q 1625 2713 2034 2713 
Q 2441 2713 2670 2916 
Q 2900 3119 2900 3481 
Q 2900 3844 2670 4047 
Q 2441 4250 2034 4250 
Q 1625 4250 1398 4047 
Q 1172 3844 1172 3481 
z
" transform="scale(0.015625)"/>
       </defs>
       <use xlink:href="#DejaVuSans-38"/>
       <use xlink:href="#DejaVuSans-30" transform="translate(63.623047 0)"/>
       <use xlink:href="#DejaVuSans-30" transform="translate(127.246094 0)"/>
       <use xlink:href="#DejaVuSans-30" transform="translate(190.869141 0)"/>
      </g>
     </g>
    </g>
    <g id="ytick_2">
     <g id="line2d_10">
      <g>
       <use xlink:href="#me7bd5f8479" x="63.56" y="207.812614" style="stroke: #000000; stroke-width: 0.8"/>
      </g>
     </g>
     <g id="text_11">
      <!-- 9000 -->
      <g transform="translate(31.11 211.611833) scale(0.1 -0.1)">
       <defs>
        <path id="DejaVuSans-39" d="M 703 97 
L 703 672 
Q 941 559 1184 500 
Q 1428 441 1663 441 
Q 2288 441 2617 861 
Q 2947 1281 2994 2138 
Q 2813 1869 2534 1725 
Q 2256 1581 1919 1581 
Q 1219 1581 811 2004 
Q 403 2428 403 3163 
Q 403 3881 828 4315 
Q 1253 4750 1959 4750 
Q 2769 4750 3195 4129 
Q 3622 3509 3622 2328 
Q 3622 1225 3098 567 
Q 2575 -91 1691 -91 
Q 1453 -91 1209 -44 
Q 966 3 703 97 
z
M 1959 2075 
Q 2384 2075 2632 2365 
Q 2881 2656 2881 3163 
Q 2881 3666 2632 3958 
Q 2384 4250 1959 4250 
Q 1534 4250 1286 3958 
Q 1038 3666 1038 3163 
Q 1038 2656 1286 2365 
Q 1534 2075 1959 2075 
z
" transform="scale(0.015625)"/>
       </defs>
       <use xlink:href="#DejaVuSans-39"/>
       <use xlink:href="#DejaVuSans-30" transform="translate(63.623047 0)"/>
       <use xlink:href="#DejaVuSans-30" transform="translate(127.246094 0)"/>
       <use xlink:href="#DejaVuSans-30" transform="translate(190.869141 0)"/>
      </g>
     </g>
    </g>
    <g id="ytick_3">
     <g id="line2d_11">
      <g>
       <use xlink:href="#me7bd5f8479" x="63.56" y="180.510537" style="stroke: #000000; stroke-width: 0.8"/>
      </g>
     </g>
     <g id="text_12">
      <!-- 10000 -->
      <g transform="translate(24.7475 184.309755) scale(0.1 -0.1)">
       <use xlink:href="#DejaVuSans-31"/>
       <use xlink:href="#DejaVuSans-30" transform="translate(63.623047 0)"/>
       <use xlink:href="#DejaVuSans-30" transform="translate(127.246094 0)"/>
       <use xlink:href="#DejaVuSans-30" transform="translate(190.869141 0)"/>
       <use xlink:href="#DejaVuSans-30" transform="translate(254.492188 0)"/>
      </g>
     </g>
    </g>
    <g id="ytick_4">
     <g id="line2d_12">
      <g>
       <use xlink:href="#me7bd5f8479" x="63.56" y="153.208459" style="stroke: #000000; stroke-width: 0.8"/>
      </g>
     </g>
     <g id="text_13">
      <!-- 11000 -->
      <g transform="translate(24.7475 157.007678) scale(0.1 -0.1)">
       <use xlink:href="#DejaVuSans-31"/>
       <use xlink:href="#DejaVuSans-31" transform="translate(63.623047 0)"/>
       <use xlink:href="#DejaVuSans-30" transform="translate(127.246094 0)"/>
       <use xlink:href="#DejaVuSans-30" transform="translate(190.869141 0)"/>
       <use xlink:href="#DejaVuSans-30" transform="translate(254.492188 0)"/>
      </g>
     </g>
    </g>
    <g id="ytick_5">
     <g id="line2d_13">
      <g>
       <use xlink:href="#me7bd5f8479" x="63.56" y="125.906382" style="stroke: #000000; stroke-width: 0.8"/>
      </g>
     </g>
     <g id="text_14">
      <!-- 12000 -->
      <g transform="translate(24.7475 129.705601) scale(0.1 -0.1)">
       <use xlink:href="#DejaVuSans-31"/>
       <use xlink:href="#DejaVuSans-32" transform="translate(63.623047 0)"/>
       <use xlink:href="#DejaVuSans-30" transform="translate(127.246094 0)"/>
       <use xlink:href="#DejaVuSans-30" transform="translate(190.869141 0)"/>
       <use xlink:href="#DejaVuSans-30" transform="translate(254.492188 0)"/>
      </g>
     </g>
    </g>
    <g id="ytick_6">
     <g id="line2d_14">
      <g>
       <use xlink:href="#me7bd5f8479" x="63.56" y="98.604305" style="stroke: #000000; stroke-width: 0.8"/>
      </g>
     </g>
     <g id="text_15">
      <!-- 13000 -->
      <g transform="translate(24.7475 102.403523) scale(0.1 -0.1)">
       <use xlink:href="#DejaVuSans-31"/>
       <use xlink:href="#DejaVuSans-33" transform="translate(63.623047 0)"/>
       <use xlink:href="#DejaVuSans-30" transform="translate(127.246094 0)"/>
       <use xlink:href="#DejaVuSans-30" transform="translate(190.869141 0)"/>
       <use xlink:href="#DejaVuSans-30" transform="translate(254.492188 0)"/>
      </g>
     </g>
    </g>
    <g id="ytick_7">
     <g id="line2d_15">
      <g>
       <use xlink:href="#me7bd5f8479" x="63.56" y="71.302227" style="stroke: #000000; stroke-width: 0.8"/>
      </g>
     </g>
     <g id="text_16">
      <!-- 14000 -->
      <g transform="translate(24.7475 75.101446) scale(0.1 -0.1)">
       <use xlink:href="#DejaVuSans-31"/>
       <use xlink:href="#DejaVuSans-34" transform="translate(63.623047 0)"/>
       <use xlink:href="#DejaVuSans-30" transform="translate(127.246094 0)"/>
       <use xlink:href="#DejaVuSans-30" transform="translate(190.869141 0)"/>
       <use xlink:href="#DejaVuSans-30" transform="translate(254.492188 0)"/>
      </g>
     </g>
    </g>
    <g id="ytick_8">
     <g id="line2d_16">
      <g>
       <use xlink:href="#me7bd5f8479" x="63.56" y="44.00015" style="stroke: #000000; stroke-width: 0.8"/>
      </g>
     </g>
     <g id="text_17">
      <!-- 15000 -->
      <g transform="translate(24.7475 47.799369) scale(0.1 -0.1)">
       <use xlink:href="#DejaVuSans-31"/>
       <use xlink:href="#DejaVuSans-35" transform="translate(63.623047 0)"/>
       <use xlink:href="#DejaVuSans-30" transform="translate(127.246094 0)"/>
       <use xlink:href="#DejaVuSans-30" transform="translate(190.869141 0)"/>
       <use xlink:href="#DejaVuSans-30" transform="translate(254.492188 0)"/>
      </g>
     </g>
    </g>
    <g id="text_18">
     <!-- Stock Price -->
     <g transform="translate(18.667813 164.085) rotate(-90) scale(0.1 -0.1)">
      <defs>
       <path id="DejaVuSans-53" d="M 3425 4513 
L 3425 3897 
Q 3066 4069 2747 4153 
Q 2428 4238 2131 4238 
Q 1616 4238 1336 4038 
Q 1056 3838 1056 3469 
Q 1056 3159 1242 3001 
Q 1428 2844 1947 2747 
L 2328 2669 
Q 3034 2534 3370 2195 
Q 3706 1856 3706 1288 
Q 3706 609 3251 259 
Q 2797 -91 1919 -91 
Q 1588 -91 1214 -16 
Q 841 59 441 206 
L 441 856 
Q 825 641 1194 531 
Q 1563 422 1919 422 
Q 2459 422 2753 634 
Q 3047 847 3047 1241 
Q 3047 1584 2836 1778 
Q 2625 1972 2144 2069 
L 1759 2144 
Q 1053 2284 737 2584 
Q 422 2884 422 3419 
Q 422 4038 858 4394 
Q 1294 4750 2059 4750 
Q 2388 4750 2728 4690 
Q 3069 4631 3425 4513 
z
" transform="scale(0.015625)"/>
       <path id="DejaVuSans-6f" d="M 1959 3097 
Q 1497 3097 1228 2736 
Q 959 2375 959 1747 
Q 959 1119 1226 758 
Q 1494 397 1959 397 
Q 2419 397 2687 759 
Q 2956 1122 2956 1747 
Q 2956 2369 2687 2733 
Q 2419 3097 1959 3097 
z
M 1959 3584 
Q 2709 3584 3137 3096 
Q 3566 2609 3566 1747 
Q 3566 888 3137 398 
Q 2709 -91 1959 -91 
Q 1206 -91 779 398 
Q 353 888 353 1747 
Q 353 2609 779 3096 
Q 1206 3584 1959 3584 
z
" transform="scale(0.015625)"/>
       <path id="DejaVuSans-63" d="M 3122 3366 
L 3122 2828 
Q 2878 2963 2633 3030 
Q 2388 3097 2138 3097 
Q 1578 3097 1268 2742 
Q 959 2388 959 1747 
Q 959 1106 1268 751 
Q 1578 397 2138 397 
Q 2388 397 2633 464 
Q 2878 531 3122 666 
L 3122 134 
Q 2881 22 2623 -34 
Q 2366 -91 2075 -91 
Q 1284 -91 818 406 
Q 353 903 353 1747 
Q 353 2603 823 3093 
Q 1294 3584 2113 3584 
Q 2378 3584 2631 3529 
Q 2884 3475 3122 3366 
z
" transform="scale(0.015625)"/>
       <path id="DejaVuSans-6b" d="M 581 4863 
L 1159 4863 
L 1159 1991 
L 2875 3500 
L 3609 3500 
L 1753 1863 
L 3688 0 
L 2938 0 
L 1159 1709 
L 1159 0 
L 581 0 
L 581 4863 
z
" transform="scale(0.015625)"/>
       <path id="DejaVuSans-20" transform="scale(0.015625)"/>
       <path id="DejaVuSans-50" d="M 1259 4147 
L 1259 2394 
L 2053 2394 
Q 2494 2394 2734 2622 
Q 2975 2850 2975 3272 
Q 2975 3691 2734 3919 
Q 2494 4147 2053 4147 
L 1259 4147 
z
M 628 4666 
L 2053 4666 
Q 2838 4666 3239 4311 
Q 3641 3956 3641 3272 
Q 3641 2581 3239 2228 
Q 2838 1875 2053 1875 
L 1259 1875 
L 1259 0 
L 628 0 
L 628 4666 
z
" transform="scale(0.015625)"/>
       <path id="DejaVuSans-72" d="M 2631 2963 
Q 2534 3019 2420 3045 
Q 2306 3072 2169 3072 
Q 1681 3072 1420 2755 
Q 1159 2438 1159 1844 
L 1159 0 
L 581 0 
L 581 3500 
L 1159 3500 
L 1159 2956 
Q 1341 3275 1631 3429 
Q 1922 3584 2338 3584 
Q 2397 3584 2469 3576 
Q 2541 3569 2628 3553 
L 2631 2963 
z
" transform="scale(0.015625)"/>
       <path id="DejaVuSans-69" d="M 603 3500 
L 1178 3500 
L 1178 0 
L 603 0 
L 603 3500 
z
M 603 4863 
L 1178 4863 
L 1178 4134 
L 603 4134 
L 603 4863 
z
" transform="scale(0.015625)"/>
      </defs>
      <use xlink:href="#DejaVuSans-53"/>
      <use xlink:href="#DejaVuSans-74" transform="translate(63.476562 0)"/>
      <use xlink:href="#DejaVuSans-6f" transform="translate(102.685547 0)"/>
      <use xlink:href="#DejaVuSans-63" transform="translate(163.867188 0)"/>
      <use xlink:href="#DejaVuSans-6b" transform="translate(218.847656 0)"/>
      <use xlink:href="#DejaVuSans-20" transform="translate(276.757812 0)"/>
      <use xlink:href="#DejaVuSans-50" transform="translate(308.544922 0)"/>
      <use xlink:href="#DejaVuSans-72" transform="translate(367.097656 0)"/>
      <use xlink:href="#DejaVuSans-69" transform="translate(408.210938 0)"/>
      <use xlink:href="#DejaVuSans-63" transform="translate(435.994141 0)"/>
      <use xlink:href="#DejaVuSans-65" transform="translate(490.974609 0)"/>
     </g>
    </g>
   </g>
   <g id="line2d_17">
    <path d="M 86.361818 39.377089 
L 86.693964 44.758875 
L 87.690402 44.193995 
L 88.022548 43.690271 
L 88.354694 38.195728 
L 88.68684 36.841818 
L 89.018986 43.220129 
L 90.015423 54.078712 
L 90.347569 68.745661 
L 90.679715 68.942782 
L 91.011861 57.232921 
L 91.344007 58.382611 
L 92.340445 49.510801 
L 92.672591 51.18278 
L 93.004737 44.270167 
L 93.336883 47.488536 
L 93.669029 48.712215 
L 94.665466 45.59896 
L 94.997612 42.427823 
L 95.329758 43.422165 
L 95.99405 49.487048 
L 96.990488 52.361684 
L 97.322634 61.728754 
L 97.65478 58.904081 
L 97.986926 57.996287 
L 98.319072 64.380332 
L 99.31551 56.67159 
L 99.647655 53.185934 
L 99.979801 52.259028 
L 100.311947 59.959306 
L 100.644093 59.37395 
L 101.640531 59.743347 
L 101.972677 62.336771 
L 102.304823 62.726918 
L 102.636969 63.730269 
L 102.969115 66.391676 
L 104.297698 52.111597 
L 104.629844 52.516214 
L 104.96199 52.230907 
L 105.294136 50.228573 
L 106.290574 52.031602 
L 106.954866 56.65985 
L 107.287012 64.254742 
L 107.619158 61.490953 
L 109.279887 63.737368 
L 109.612033 60.726495 
L 109.944179 61.532179 
L 110.940617 61.902395 
L 111.272763 62.734289 
L 111.604909 69.144817 
L 111.937055 62.865612 
L 114.594222 59.994799 
L 115.59066 61.265984 
L 115.922806 67.606072 
L 116.254952 61.66241 
L 116.587098 61.981844 
L 116.919244 59.944836 
L 117.915682 61.745954 
L 118.247828 57.657468 
L 118.579974 58.954863 
L 118.912119 59.156625 
L 119.244265 57.847217 
L 120.240703 55.010532 
L 120.572849 56.209093 
L 121.237141 64.618133 
L 121.569287 58.978616 
L 122.565725 58.291968 
L 122.897871 61.001972 
L 123.230017 61.261069 
L 123.562162 56.142203 
L 123.894308 58.67174 
L 124.890746 57.409292 
L 125.222892 55.68735 
L 125.555038 57.217632 
L 125.887184 52.197872 
L 126.21933 52.044161 
L 127.547914 54.539571 
L 127.88006 51.885536 
L 128.212206 55.489683 
L 128.544351 50.757687 
L 129.540789 45.074214 
L 129.872935 46.590298 
L 130.205081 47.068903 
L 130.869373 50.083872 
L 131.865811 49.182084 
L 132.197957 49.577145 
L 132.530103 49.617552 
L 132.862249 50.400849 
L 133.194394 46.947409 
L 134.522978 52.268038 
L 135.18727 39.962992 
L 135.519416 40.95433 
L 136.515854 38.198731 
L 136.848 40.265772 
L 137.180146 43.284562 
L 137.512292 40.920203 
L 137.844438 47.61631 
L 138.840875 55.762431 
L 139.505167 49.697274 
L 139.837313 47.715144 
L 140.169459 51.908743 
L 141.165897 51.763496 
L 141.498043 48.426636 
L 141.830189 53.451583 
L 142.162335 49.563494 
L 142.494481 47.894791 
L 143.823064 49.69782 
L 144.15521 56.947887 
L 144.819502 61.919868 
L 145.81594 60.191101 
L 146.148086 65.204308 
L 146.480232 59.802592 
L 146.812378 67.525258 
L 147.144524 67.191353 
L 148.140961 61.376011 
L 148.473107 60.616467 
L 148.805253 65.64551 
L 149.137399 65.888225 
L 149.469545 70.495451 
L 150.465983 69.068917 
L 150.798129 79.932687 
L 151.130275 77.300494 
L 151.462421 87.715144 
L 151.794567 89.647585 
L 155.116026 86.136811 
L 155.448172 89.719936 
L 155.780318 84.098438 
L 156.112464 86.807896 
L 156.44461 92.478264 
L 157.441047 95.240416 
L 157.773193 89.167888 
L 158.105339 88.328895 
L 158.769631 86.054086 
L 159.766069 85.740658 
L 160.098215 90.492584 
L 160.430361 83.588435 
L 160.762507 91.717629 
L 161.094653 87.330731 
L 162.091091 86.161929 
L 162.423236 85.263418 
L 163.419674 98.045704 
L 164.416112 110.250552 
L 164.748258 119.231024 
L 165.080404 122.980418 
L 165.41255 115.778676 
L 165.744696 113.692252 
L 166.741134 124.169151 
L 167.073279 138.540691 
L 167.405425 125.880172 
L 167.737571 117.989599 
L 168.069717 116.933554 
L 169.066155 115.541421 
L 169.398301 117.203026 
L 169.730447 114.749388 
L 170.062593 117.565597 
L 170.394739 123.920702 
L 171.723323 128.770916 
L 172.055468 118.704094 
L 172.387614 122.677911 
L 172.71976 119.683419 
L 174.38049 121.18558 
L 174.712636 126.670294 
L 175.044782 127.018396 
L 176.04122 139.005646 
L 176.373366 132.557714 
L 176.705511 137.696238 
L 177.037657 133.697849 
L 177.369803 135.501151 
L 178.366241 134.329892 
L 178.698387 135.917508 
L 179.362679 150.90744 
L 179.694825 151.796942 
L 181.023409 174.868835 
L 181.355555 162.68501 
L 181.6877 163.339714 
L 182.019846 152.623103 
L 184.012722 151.942189 
L 184.344868 158.39913 
L 185.341306 159.607247 
L 185.673452 155.590839 
L 186.005598 150.219428 
L 186.337743 150.618311 
L 186.669889 148.84586 
L 187.666327 150.659264 
L 187.998473 146.924613 
L 188.330619 147.527443 
L 188.662765 146.381302 
L 188.994911 140.798846 
L 189.991349 140.978494 
L 190.323495 151.408706 
L 190.987787 147.561844 
L 191.319932 147.92305 
L 192.31637 144.737171 
L 192.648516 138.803337 
L 192.980662 138.157643 
L 194.641392 127.595835 
L 194.973538 127.665455 
L 195.305684 124.998315 
L 195.63783 131.077941 
L 195.969976 124.946714 
L 196.966413 125.92522 
L 197.298559 125.256866 
L 197.630705 122.145248 
L 197.962851 121.78486 
L 198.294997 116.865572 
L 199.291435 112.606721 
L 199.623581 114.334123 
L 199.955727 119.175055 
L 200.287873 111.853184 
L 200.620019 107.176338 
L 201.616456 103.366606 
L 201.948602 99.076904 
L 202.280748 106.890485 
L 202.612894 101.43826 
L 202.94504 102.416767 
L 203.941478 97.887625 
L 204.273624 99.338457 
L 204.60577 103.755388 
L 204.937916 100.355733 
L 206.266499 109.054721 
L 206.598645 113.913398 
L 206.930791 112.012628 
L 207.262937 109.449236 
L 207.595083 114.684955 
L 208.591521 111.36393 
L 208.923667 112.398133 
L 209.255813 110.259015 
L 209.587959 113.478749 
L 209.920105 115.148817 
L 210.916542 117.945369 
L 211.248688 114.751845 
L 211.580834 114.994015 
L 211.91298 114.201435 
L 212.245126 118.618911 
L 213.241564 114.606871 
L 213.57371 122.629587 
L 213.905856 126.390721 
L 214.238002 124.125741 
L 214.570148 118.55639 
L 215.566585 117.657059 
L 215.898731 116.866937 
L 216.230877 119.804095 
L 216.563023 112.964378 
L 216.895169 114.456164 
L 218.223753 113.071402 
L 218.555899 109.649087 
L 218.888045 111.782471 
L 219.220191 116.117222 
L 220.216628 112.100267 
L 220.548774 113.479841 
L 220.88092 123.274735 
L 221.213066 123.066147 
L 221.545212 124.276175 
L 222.54165 125.410576 
L 222.873796 126.703876 
L 223.538088 133.758732 
L 223.870234 134.031753 
L 224.866672 134.678812 
L 225.198817 131.371985 
L 225.530963 130.026812 
L 225.863109 132.815992 
L 226.195255 129.242969 
L 227.523839 127.99581 
L 227.855985 132.055356 
L 228.520277 146.068966 
L 229.516715 147.555837 
L 229.84886 145.456854 
L 230.513152 150.084283 
L 230.845298 153.033453 
L 231.841736 154.230649 
L 232.173882 148.42732 
L 232.506028 155.946858 
L 232.838174 155.407915 
L 233.17032 159.252866 
L 236.491779 166.255576 
L 236.823925 164.735123 
L 237.156071 157.618291 
L 237.488217 158.186447 
L 237.820363 149.885251 
L 238.816801 148.778424 
L 239.148947 148.083859 
L 239.481092 152.464751 
L 240.145384 155.420747 
L 241.473968 163.042122 
L 241.806114 158.168428 
L 242.13826 160.030156 
L 242.470406 169.53947 
L 243.466844 169.67052 
L 243.79899 160.463986 
L 244.131136 156.552691 
L 244.463281 157.575154 
L 244.795427 148.091231 
L 245.791865 147.536999 
L 246.124011 149.306173 
L 246.456157 151.698928 
L 246.788303 155.705234 
L 247.120449 149.392448 
L 248.116887 150.110766 
L 248.449033 143.616421 
L 248.781179 146.777182 
L 249.113325 147.162414 
L 249.44547 148.282346 
L 250.441908 149.537149 
L 250.774054 153.128464 
L 251.1062 153.950803 
L 251.438346 154.391185 
L 251.770492 155.822087 
L 252.76693 157.87493 
L 253.099076 150.778301 
L 253.431222 150.246184 
L 253.763368 145.996343 
L 254.095513 147.207736 
L 255.091951 144.380333 
L 255.424097 142.319845 
L 255.756243 141.775441 
L 256.088389 142.566383 
L 256.420535 139.514283 
L 257.416973 142.311381 
L 257.749119 144.370777 
L 258.081265 144.422378 
L 258.413411 143.431312 
L 259.741994 149.80389 
L 260.07414 154.597589 
L 261.070578 157.3136 
L 262.067016 153.782076 
L 262.399162 150.300788 
L 262.731308 152.920968 
L 263.063454 153.306474 
L 263.3956 152.771899 
L 264.724183 150.010567 
L 265.056329 150.60466 
L 265.388475 144.143897 
L 265.720621 143.168666 
L 266.717059 140.918429 
L 267.049205 139.37204 
L 267.381351 141.210834 
L 267.713497 140.493063 
L 268.045643 136.764418 
L 269.04208 131.755306 
L 269.706372 131.075757 
L 270.038518 128.274564 
L 270.370664 126.435496 
L 273.692123 123.237331 
L 274.024269 125.871981 
L 274.356415 121.587466 
L 274.688561 122.324349 
L 275.020707 124.423879 
L 276.017145 128.293676 
L 276.349291 127.90271 
L 276.681437 129.907228 
L 277.013583 124.588511 
L 277.345729 126.538425 
L 278.342166 122.804593 
L 278.674312 123.314323 
L 279.006458 124.148674 
L 279.67075 133.666451 
L 280.667188 127.158728 
L 280.999334 126.763667 
L 281.33148 128.633313 
L 281.663626 129.065232 
L 281.995772 131.709439 
L 282.992209 134.043766 
L 283.324355 131.809091 
L 283.656501 128.245624 
L 283.988647 130.015072 
L 284.320793 129.949274 
L 285.317231 130.196084 
L 285.649377 136.592961 
L 285.981523 136.873899 
L 286.313669 137.373528 
L 286.645815 141.126198 
L 287.642253 139.420364 
L 287.974398 141.835233 
L 288.306544 141.920962 
L 288.63869 146.718756 
L 288.970836 145.617117 
L 289.967274 146.461297 
L 290.29942 141.543647 
L 290.631566 139.641238 
L 290.963712 136.682785 
L 291.295858 135.892936 
L 292.292296 135.518351 
L 292.624442 137.797802 
L 292.956587 137.375712 
L 293.620879 133.37623 
L 294.617317 128.925446 
L 294.949463 129.74287 
L 295.613755 129.556397 
L 295.945901 126.787147 
L 296.942339 129.402959 
L 297.60663 129.086801 
L 297.938776 133.00929 
L 298.270922 131.36434 
L 299.26736 129.852078 
L 299.599506 129.717752 
L 299.931652 132.451509 
L 300.263798 133.625771 
L 300.595944 140.910785 
L 301.592382 144.553428 
L 301.924528 149.140177 
L 302.588819 147.283909 
L 302.920965 143.962065 
L 304.913841 145.731239 
L 305.245987 148.270333 
L 306.242425 147.044469 
L 306.574571 149.795154 
L 306.906717 149.380981 
L 307.238862 149.317094 
L 307.571008 153.054476 
L 308.567446 148.331762 
L 308.899592 150.498455 
L 309.563884 151.071253 
L 310.892468 149.740003 
L 311.55676 155.383616 
L 311.888906 156.03204 
L 312.221051 155.675202 
L 313.217489 158.065772 
L 313.549635 156.770015 
L 313.881781 158.836783 
L 314.213927 157.68873 
L 314.546073 153.261152 
L 315.542511 154.680587 
L 315.874657 159.393745 
L 316.206803 161.158278 
L 316.538949 160.774684 
L 316.871094 158.834598 
L 317.867532 156.65562 
L 318.199678 154.410843 
L 318.531824 153.630003 
L 318.86397 148.213817 
L 319.196116 144.839554 
L 320.192554 145.726325 
L 320.5247 144.87177 
L 320.856846 151.607739 
L 322.517575 156.694935 
L 322.849721 153.806921 
L 323.181867 155.220076 
L 323.514013 155.515485 
L 323.846159 152.482497 
L 324.842597 150.708681 
L 325.174743 149.650999 
L 325.506889 152.408509 
L 326.171181 156.251276 
L 327.167618 154.769319 
L 327.499764 152.425436 
L 327.83191 155.412829 
L 328.164056 150.602749 
L 328.496202 151.015557 
L 329.49264 152.92561 
L 330.156932 155.047254 
L 330.489078 158.22467 
L 330.821224 158.39094 
L 331.817661 160.094316 
L 332.149807 152.627198 
L 332.814099 155.289697 
L 333.146245 150.467331 
L 334.142683 148.187334 
L 334.806975 150.364675 
L 335.471267 146.708927 
L 336.467704 149.248839 
L 337.131996 152.131392 
L 337.464142 151.837349 
L 337.796288 158.426705 
L 338.792726 159.893646 
L 339.457018 164.687345 
L 339.789164 162.913802 
L 340.12131 167.992261 
L 341.117747 171.763224 
L 341.449893 170.279629 
L 341.782039 176.34424 
L 342.114185 173.516018 
L 342.446331 176.948435 
L 343.442769 174.145057 
L 343.774915 168.088638 
L 344.107061 167.337284 
L 344.439207 169.092535 
L 345.767791 163.808764 
L 346.099936 165.74803 
L 346.432082 166.444233 
L 346.764228 171.734557 
L 347.096374 172.814627 
L 348.092812 170.070768 
L 348.424958 170.299833 
L 348.757104 173.524754 
L 349.421396 176.562929 
L 350.417834 175.049029 
L 351.414271 181.010984 
L 351.746417 175.630563 
L 352.742855 177.21736 
L 353.075001 178.868317 
L 353.407147 177.662384 
L 353.739293 177.52014 
L 357.392898 177.590307 
L 357.725044 179.144341 
L 358.05719 178.192863 
L 358.389336 175.91041 
L 358.721482 178.646351 
L 359.71792 182.560377 
L 360.050066 182.142655 
L 361.046503 192.240601 
L 362.042941 196.182475 
L 362.707233 193.388654 
L 363.039379 192.356908 
L 363.371525 186.767081 
L 364.367963 182.476559 
L 364.700109 184.22908 
L 365.032255 185.241168 
L 365.3644 187.751867 
L 365.696546 184.499643 
L 366.692984 178.5568 
L 367.02513 178.968242 
L 367.357276 179.088372 
L 367.689422 179.634413 
L 368.021568 181.096439 
L 369.018006 180.815501 
L 369.350152 180.358737 
L 369.682298 178.382067 
L 370.014443 181.755511 
L 370.346589 181.065042 
L 371.343027 179.89078 
L 371.675173 180.589986 
L 372.007319 184.451319 
L 372.339465 182.33923 
L 372.671611 184.891974 
L 373.668049 186.364921 
L 374.000195 185.057425 
L 374.332341 187.489221 
L 374.664487 187.966188 
L 374.996632 188.139556 
L 375.99307 189.78123 
L 376.325216 194.970809 
L 376.657362 193.253781 
L 376.989508 193.617991 
L 377.321654 192.689447 
L 378.318092 190.541047 
L 378.650238 190.741717 
L 378.982384 194.799898 
L 379.31453 196.401165 
L 380.643113 200.184687 
L 380.975259 199.913031 
L 381.307405 203.486873 
L 381.639551 200.793523 
L 381.971697 201.770391 
L 382.968135 200.815638 
L 383.300281 203.519362 
L 383.632427 202.577714 
L 383.964573 195.771033 
L 384.296719 193.487487 
L 385.625302 196.854925 
L 385.957448 198.779449 
L 386.62174 204.63356 
L 387.618178 209.239967 
L 387.950324 208.584717 
L 388.28247 209.920608 
L 388.614616 206.341578 
L 388.946762 207.914724 
L 389.943199 208.7974 
L 390.275345 208.02912 
L 390.607491 214.371665 
L 390.939637 211.989832 
L 391.271783 213.627411 
L 392.268221 222.02198 
L 393.264659 211.738107 
L 393.596805 214.301499 
L 394.593242 219.231435 
L 395.257534 229.303717 
L 395.58968 228.549088 
L 395.921826 233.592055 
L 396.918264 236.078182 
L 397.25041 222.545361 
L 397.582556 215.778268 
L 397.914702 212.710607 
L 401.900453 210.380101 
L 402.564745 206.618148 
L 402.896891 205.917304 
L 403.893328 206.00822 
L 404.225474 200.452793 
L 404.55762 206.526686 
L 404.889766 198.790916 
L 405.221912 195.943036 
L 406.21835 195.847752 
L 406.882642 197.010547 
L 407.214788 200.519683 
L 407.546934 197.736782 
L 408.875517 190.597289 
L 409.207663 191.29513 
L 409.539809 192.648494 
L 409.871955 191.083266 
L 410.868393 187.258791 
L 411.200539 188.79153 
L 411.532685 188.226923 
L 411.864831 189.178673 
L 412.196977 192.371651 
L 413.193415 196.274483 
L 413.52556 195.542241 
L 413.857706 201.738721 
L 414.189852 198.450186 
L 414.521998 196.868576 
L 415.518436 190.146259 
L 416.182728 192.939261 
L 417.843458 197.038941 
L 418.175604 195.554527 
L 418.507749 199.677687 
L 418.839895 199.600968 
L 419.172041 201.581461 
L 420.168479 197.719036 
L 420.500625 203.578881 
L 420.832771 197.3895 
L 421.164917 197.524918 
L 421.497063 200.182776 
L 422.493501 201.283595 
L 422.825647 202.812512 
L 423.157792 200.956243 
L 423.489938 200.591761 
L 423.822084 195.146907 
L 424.818522 189.417566 
L 425.150668 191.783018 
L 427.143544 186.538562 
L 427.47569 186.764351 
L 427.807836 190.371501 
L 428.139981 186.296666 
L 428.472127 187.848243 
L 429.468565 189.429579 
L 429.800711 189.554896 
L 430.132857 191.88076 
L 430.465003 191.31861 
L 430.797149 188.443974 
L 431.793587 187.313668 
L 432.125733 189.20188 
L 432.457879 188.890909 
L 433.12217 196.220698 
L 434.118608 193.949984 
L 434.450754 197.136137 
L 434.7829 196.482798 
L 435.447192 197.864283 
L 436.44363 197.697194 
L 436.775776 194.999203 
L 437.772213 200.832019 
L 439.100797 200.649914 
L 439.432943 200.442691 
L 439.765089 202.181834 
L 440.097235 200.925665 
L 441.093673 200.133905 
L 441.425819 199.117722 
L 441.757965 201.831548 
L 442.090111 205.932866 
L 442.422257 206.042347 
L 443.418694 209.882931 
L 443.75084 211.900008 
L 444.082986 208.159351 
L 444.415132 211.916116 
L 444.747278 211.943418 
L 445.743716 210.565483 
L 446.075862 212.927112 
L 446.408008 214.353373 
L 446.740154 216.717733 
L 447.0723 216.124732 
L 448.068737 219.772289 
L 448.400883 215.841063 
L 448.733029 216.079137 
L 449.065175 211.352055 
L 450.393759 213.2288 
L 450.725905 211.170224 
L 451.058051 212.313635 
L 451.390197 211.107156 
L 451.722343 210.454636 
L 452.71878 211.366799 
L 453.050926 218.553797 
L 453.383072 221.652037 
L 453.715218 222.154395 
L 454.047364 218.81071 
L 455.043802 221.063677 
L 455.375948 222.321484 
L 455.708094 214.526468 
L 456.04024 216.724558 
L 456.372386 220.001627 
L 457.368823 224.329006 
L 457.700969 222.45035 
L 458.033115 222.840224 
L 458.365261 222.932232 
L 458.697407 224.365864 
L 459.693845 224.918185 
L 460.025991 223.942135 
L 460.358137 226.623745 
L 460.690283 225.009647 
L 461.022429 225.562514 
L 462.018866 225.37058 
L 462.351012 228.210815 
L 462.683158 228.842039 
L 463.015304 230.686841 
L 463.34745 230.147898 
L 464.343888 229.800342 
L 464.676034 232.281828 
L 465.00818 232.962742 
L 465.340326 230.898159 
L 465.672472 225.600464 
L 466.668909 230.413001 
L 467.001055 227.79637 
L 467.333201 228.93787 
L 467.665347 228.298455 
L 467.997493 231.544399 
L 468.993931 233.387289 
L 469.326077 233.098979 
L 469.658223 232.237599 
L 469.990369 233.633827 
L 470.322515 235.563811 
L 471.983244 235.326283 
L 472.31539 232.72303 
L 472.647536 233.063213 
L 473.643974 232.838244 
L 473.97612 223.219176 
L 474.308266 220.433545 
L 474.640412 210.088242 
L 474.972558 193.755867 
L 475.968996 166.046988 
L 478.626163 139.691201 
L 478.958309 165.281165 
L 479.290455 167.649074 
L 479.622601 178.852209 
L 480.619039 171.571837 
L 480.951185 178.694403 
L 481.615476 183.465714 
L 481.947622 170.74513 
L 482.94406 167.653715 
L 483.276206 165.234751 
L 483.608352 164.773346 
L 483.940498 168.449844 
L 484.272644 163.587344 
L 485.269082 161.784315 
L 485.601228 165.676499 
L 485.933374 166.017229 
L 486.265519 164.369003 
L 486.597665 168.074441 
L 487.594103 162.406529 
L 487.926249 153.018983 
L 488.258395 154.078304 
L 488.590541 146.767353 
L 488.922687 148.793713 
L 489.919125 142.599691 
L 490.251271 144.623048 
L 490.583417 143.399096 
L 491.247708 160.0621 
L 492.244146 165.657661 
L 492.576292 160.20216 
L 492.908438 157.926531 
L 493.240584 158.12611 
L 493.57273 168.532569 
L 494.569168 169.029467 
L 494.901314 171.412666 
L 495.23346 165.054831 
L 495.565606 168.701296 
L 495.897751 163.80931 
L 496.894189 159.85515 
L 497.226335 161.02832 
L 497.558481 164.019809 
L 497.890627 163.187642 
L 498.222773 158.905311 
L 499.219211 160.534699 
L 499.551357 158.325415 
L 499.883503 157.346908 
L 500.215649 154.378899 
L 500.547794 161.042244 
L 501.876378 165.837581 
L 502.208524 164.558752 
L 502.54067 162.790669 
L 502.872816 162.856467 
L 503.869254 165.8384 
L 504.2014 162.179103 
L 504.533546 164.044654 
L 504.865692 162.109756 
L 505.197838 162.491712 
L 506.194275 162.186474 
L 506.526421 169.190822 
L 507.522859 183.319374 
L 508.519297 183.632529 
L 508.851443 180.544391 
L 509.183589 182.02198 
L 509.515735 181.165787 
L 509.847881 186.081799 
L 510.844318 186.075246 
L 511.176464 176.001053 
L 511.50861 178.868863 
L 511.840756 177.750297 
L 512.172902 176.106166 
L 513.16934 173.510284 
L 513.501486 172.164565 
L 513.833632 174.343817 
L 514.165778 175.70073 
L 514.497924 172.5184 
L 515.494361 176.249502 
L 518.483675 176.02699 
L 519.147967 164.78454 
L 520.144404 163.2761 
L 520.47655 165.286352 
L 520.808696 161.15664 
L 521.140842 163.402509 
L 521.472988 160.048722 
L 522.469426 158.912955 
L 522.801572 163.658056 
L 523.133718 159.415587 
L 523.465864 158.817671 
L 523.79801 153.444076 
L 524.794447 153.671503 
L 525.126593 157.180912 
L 525.458739 154.419307 
L 525.790885 155.187587 
L 526.123031 163.822415 
L 527.119469 162.77538 
L 527.783761 161.140805 
L 528.115907 155.972795 
L 528.448053 157.474955 
L 529.44449 157.967211 
L 529.776636 156.99908 
L 530.108782 157.488606 
L 530.440928 160.41102 
L 530.773074 153.800914 
L 531.769512 154.360061 
L 532.101658 152.805754 
L 532.433804 153.780438 
L 532.76595 156.498633 
L 533.098096 161.738993 
L 534.094534 161.522215 
L 534.426679 162.789304 
L 534.758825 162.932913 
L 535.090971 162.270019 
L 535.423117 163.929166 
L 536.419555 166.74128 
L 536.751701 166.759572 
L 537.083847 166.501295 
L 537.415993 170.525348 
L 538.744577 197.861007 
L 539.076723 196.217968 
L 539.408868 193.072496 
L 539.741014 187.209374 
L 540.07316 185.030669 
L 541.069598 183.669387 
L 541.401744 184.384702 
L 541.73389 186.660876 
L 542.066036 187.088972 
L 542.398182 186.471945 
L 542.398182 186.471945 
" clip-path="url(#pcdb27d730f)" style="fill: none; stroke: #0000ff; stroke-width: 1.5; stroke-linecap: square"/>
   </g>
   <g id="line2d_18">
    <path d="M 86.361818 48.081437 
L 86.693964 47.298155 
L 87.690402 49.889133 
L 88.354694 48.66206 
L 88.68684 45.388103 
L 89.018986 43.457414 
L 90.015423 45.354322 
L 90.347569 50.96106 
L 90.679715 59.303764 
L 91.011861 62.516877 
L 91.344007 58.007555 
L 92.340445 57.559471 
L 92.672591 53.531134 
L 93.004737 53.941625 
L 93.336883 51.587088 
L 93.669029 53.6974 
L 94.665466 55.508615 
L 94.997612 56.37583 
L 95.329758 55.802166 
L 95.661904 55.982269 
L 95.99405 57.257335 
L 96.990488 58.481796 
L 97.322634 59.888652 
L 97.65478 64.354782 
L 98.319072 62.545779 
L 99.31551 65.00166 
L 99.979801 58.286335 
L 100.311947 56.540335 
L 100.644093 59.266064 
L 101.640531 59.724307 
L 101.972677 60.003193 
L 102.969115 62.949071 
L 103.965553 64.721547 
L 104.297698 61.354753 
L 104.629844 59.338532 
L 104.96199 59.08748 
L 105.294136 59.192929 
L 106.290574 58.55557 
L 106.954866 60.641139 
L 107.287012 62.507092 
L 107.619158 66.530256 
L 109.279887 65.445372 
L 109.612033 66.045458 
L 109.944179 63.78877 
L 110.940617 63.063052 
L 111.272763 62.370289 
L 111.604909 62.877457 
L 111.937055 66.451789 
L 114.594222 64.018198 
L 115.59066 62.701646 
L 115.922806 63.15693 
L 116.254952 66.78648 
L 116.587098 65.186109 
L 116.919244 65.368451 
L 117.915682 64.673448 
L 118.247828 65.649791 
L 118.579974 64.188356 
L 118.912119 64.316468 
L 119.244265 64.040568 
L 120.240703 62.947418 
L 120.904995 59.52346 
L 121.237141 60.160847 
L 121.569287 61.626307 
L 122.897871 58.11631 
L 123.230017 59.215752 
L 123.562162 59.84298 
L 123.894308 57.660787 
L 124.890746 57.705873 
L 125.222892 57.191346 
L 125.555038 56.172904 
L 125.887184 59.891772 
L 126.21933 58.816193 
L 127.215768 58.917536 
L 127.547914 59.616538 
L 127.88006 59.701404 
L 128.212206 57.190653 
L 128.544351 56.867934 
L 129.540789 53.699693 
L 129.872935 49.53082 
L 130.205081 48.514618 
L 130.537227 47.997798 
L 130.869373 48.764976 
L 131.865811 49.571427 
L 132.197957 49.126968 
L 132.530103 49.162295 
L 133.194394 53.648555 
L 134.190832 53.734167 
L 134.855124 58.315424 
L 135.18727 56.227481 
L 135.519416 52.797258 
L 136.515854 52.343894 
L 136.848 50.596481 
L 137.180146 51.082159 
L 137.512292 52.382687 
L 137.844438 52.089537 
L 138.840875 53.086862 
L 139.173021 56.174823 
L 139.505167 55.115988 
L 140.169459 51.362379 
L 141.165897 52.961923 
L 141.498043 53.799249 
L 141.830189 53.109365 
L 142.162335 55.486352 
L 142.494481 54.235443 
L 143.823064 53.162636 
L 144.15521 53.822792 
L 144.819502 60.585469 
L 146.148086 63.507537 
L 146.480232 66.272646 
L 146.812378 61.462548 
L 147.144524 63.538706 
L 148.140961 64.555708 
L 148.473107 63.0173 
L 148.805253 62.932754 
L 149.137399 66.084224 
L 149.469545 66.471972 
L 150.465983 68.957395 
L 150.798129 69.239401 
L 151.130275 74.494251 
L 151.462421 74.881412 
L 151.794567 80.179188 
L 155.116026 83.189402 
L 155.448172 82.774086 
L 155.780318 85.609529 
L 156.112464 83.911441 
L 156.44461 85.469472 
L 157.441047 89.019116 
L 157.773193 92.381217 
L 158.105339 91.090154 
L 158.437485 91.119696 
L 158.769631 90.738693 
L 159.766069 91.325315 
L 160.098215 92.083614 
L 160.430361 95.271052 
L 160.762507 93.103363 
L 161.094653 96.065345 
L 162.755382 94.014329 
L 163.419674 98.126945 
L 164.416112 101.1695 
L 165.080404 114.090208 
L 165.41255 117.665101 
L 165.744696 114.608361 
L 166.741134 113.162284 
L 167.073279 118.257534 
L 167.405425 127.076265 
L 167.737571 122.66858 
L 168.069717 116.313035 
L 169.066155 114.458226 
L 169.398301 113.14618 
L 169.730447 114.126922 
L 170.062593 113.567789 
L 170.394739 115.508983 
L 171.391177 119.679855 
L 171.723323 123.233818 
L 172.055468 125.309869 
L 172.387614 121.004299 
L 172.71976 121.425589 
L 174.38049 120.890718 
L 174.712636 122.013223 
L 175.044782 125.269396 
L 176.04122 126.576776 
L 176.373366 131.926357 
L 176.705511 130.248665 
L 177.037657 132.652475 
L 177.369803 131.346961 
L 178.366241 132.267126 
L 178.698387 132.794397 
L 179.030533 135.005093 
L 179.694825 146.227126 
L 180.691263 149.192201 
L 181.023409 159.816895 
L 181.355555 165.695347 
L 181.6877 161.795763 
L 182.019846 161.658772 
L 184.012722 156.036464 
L 184.344868 154.751 
L 185.341306 158.281473 
L 185.673452 160.112552 
L 186.005598 158.812104 
L 186.337743 155.370416 
L 186.669889 154.526691 
L 187.666327 153.259971 
L 187.998473 153.486013 
L 188.330619 151.728575 
L 188.662765 151.536954 
L 188.994911 151.20301 
L 190.323495 145.824687 
L 190.655641 149.760186 
L 190.987787 150.019262 
L 191.319932 149.343856 
L 192.31637 149.162846 
L 192.648516 147.404688 
L 192.980662 144.142197 
L 193.312808 143.159349 
L 194.641392 142.213854 
L 194.973538 137.645609 
L 195.63783 134.235622 
L 195.969976 136.76813 
L 197.630705 130.413598 
L 197.962851 127.788999 
L 198.294997 126.902001 
L 199.291435 124.69048 
L 199.623581 120.994781 
L 199.955727 120.160708 
L 200.287873 121.89407 
L 200.620019 118.647575 
L 201.616456 115.16992 
L 202.280748 108.812135 
L 202.612894 111.453851 
L 202.94504 109.379427 
L 203.941478 109.125069 
L 204.273624 106.743576 
L 204.60577 106.358468 
L 204.937916 108.204744 
L 205.270062 106.91864 
L 206.266499 107.508568 
L 206.930791 114.446015 
L 207.262937 114.827684 
L 207.595083 113.609516 
L 208.591521 115.607447 
L 208.923667 114.943398 
L 209.255813 115.624164 
L 209.587959 114.804062 
L 209.920105 115.999994 
L 210.916542 117.313 
L 211.248688 119.309118 
L 211.580834 118.673304 
L 211.91298 118.790591 
L 212.245126 118.010083 
L 213.241564 120.265144 
L 213.57371 118.929821 
L 214.238002 124.859891 
L 214.570148 124.785904 
L 215.566585 122.196606 
L 216.230877 119.977219 
L 216.563023 120.710189 
L 216.895169 117.181449 
L 217.891607 116.495537 
L 218.223753 115.543431 
L 218.555899 115.030157 
L 218.888045 113.552432 
L 220.216628 116.89771 
L 220.548774 115.871056 
L 220.88092 116.410032 
L 221.213066 121.159287 
L 221.545212 122.439045 
L 222.54165 123.294474 
L 223.205942 125.065163 
L 223.870234 128.017334 
L 224.866672 128.522129 
L 225.198817 128.862845 
L 225.863109 125.598194 
L 226.195255 126.635006 
L 227.523839 122.922777 
L 227.855985 121.561032 
L 228.188131 124.158036 
L 228.520277 129.186497 
L 229.516715 135.394494 
L 229.84886 138.876922 
L 230.181006 139.552781 
L 230.845298 144.058024 
L 231.841736 146.95711 
L 232.173882 148.974798 
L 232.506028 146.916477 
L 232.838174 150.771082 
L 233.17032 151.845115 
L 236.491779 154.443932 
L 236.823925 158.591155 
L 237.156071 158.465442 
L 237.488217 154.378503 
L 237.820363 152.973486 
L 239.148947 144.788435 
L 239.481092 144.04152 
L 240.145384 148.974771 
L 241.141822 150.811689 
L 241.473968 154.739695 
L 241.806114 157.016966 
L 242.13826 155.530069 
L 242.470406 156.28077 
L 243.79899 163.51446 
L 244.463281 154.458889 
L 244.795427 153.331239 
L 246.124011 145.568597 
L 246.456157 146.177401 
L 246.788303 146.333348 
L 247.120449 148.941203 
L 248.116887 145.443498 
L 248.449033 144.937716 
L 248.781179 141.158645 
L 249.113325 141.697381 
L 249.44547 143.475162 
L 250.441908 145.116753 
L 250.774054 147.233677 
L 251.1062 150.198059 
L 251.438346 152.147251 
L 251.770492 153.303697 
L 252.76693 154.969817 
L 253.099076 157.147717 
L 253.763368 151.717617 
L 254.095513 146.625326 
L 255.091951 144.952007 
L 255.756243 140.022809 
L 256.088389 139.1244 
L 256.420535 139.426296 
L 257.416973 137.700746 
L 258.413411 141.857621 
L 258.745557 142.142826 
L 259.741994 143.296632 
L 260.738432 154.789847 
L 261.070578 156.433517 
L 262.067016 157.521148 
L 262.399162 156.048089 
L 262.731308 153.806439 
L 263.3956 154.945901 
L 264.724183 154.737562 
L 265.056329 152.262938 
L 265.388475 150.932975 
L 265.720621 146.275171 
L 266.717059 143.712536 
L 267.381351 139.762453 
L 267.713497 139.437494 
L 268.045643 138.232203 
L 269.04208 135.311841 
L 269.374226 130.899036 
L 269.706372 128.659786 
L 270.370664 125.826822 
L 273.692123 124.319315 
L 274.024269 121.197334 
L 274.356415 123.192038 
L 274.688561 120.448579 
L 275.020707 119.740778 
L 276.017145 121.043439 
L 276.349291 123.731601 
L 276.681437 124.613666 
L 277.013583 126.200386 
L 277.345729 124.119082 
L 278.342166 126.338923 
L 278.674312 125.585716 
L 279.006458 126.17607 
L 279.338604 127.308493 
L 279.67075 129.534385 
L 280.667188 134.084714 
L 280.999334 132.899153 
L 281.33148 132.769522 
L 281.663626 133.677902 
L 281.995772 133.981078 
L 282.992209 135.436593 
L 283.324355 136.929382 
L 283.988647 134.184377 
L 284.320793 134.655365 
L 285.317231 134.898151 
L 285.649377 135.483066 
L 285.981523 138.770246 
L 286.313669 139.888512 
L 286.645815 138.351117 
L 287.642253 139.639993 
L 287.974398 139.242354 
L 288.306544 140.876986 
L 288.63869 141.653895 
L 288.970836 144.667202 
L 289.967274 145.321172 
L 290.29942 146.267573 
L 291.295858 141.489736 
L 292.292296 140.734609 
L 292.624442 141.316538 
L 292.956587 143.227684 
L 293.288733 143.982703 
L 293.620879 143.633829 
L 294.617317 142.268618 
L 294.949463 138.525354 
L 296.942339 134.034296 
L 297.274485 134.344964 
L 297.938776 133.410587 
L 298.270922 134.732792 
L 299.26736 134.176725 
L 299.599506 133.442475 
L 299.931652 133.357823 
L 300.263798 134.822537 
L 300.595944 136.874752 
L 301.592382 141.699594 
L 302.256674 149.432481 
L 302.588819 150.2689 
L 302.920965 150.31076 
L 304.913841 148.634108 
L 305.245987 147.981765 
L 306.242425 148.834661 
L 306.574571 148.138725 
L 306.906717 149.10219 
L 307.238862 149.308768 
L 307.571008 149.168818 
L 308.567446 151.112678 
L 308.899592 149.353401 
L 309.563884 151.115025 
L 309.89603 151.710791 
L 310.892468 152.022019 
L 311.224614 152.868756 
L 311.888906 158.328985 
L 312.221051 159.998251 
L 313.217489 160.801183 
L 313.549635 162.379558 
L 313.881781 162.50239 
L 314.213927 161.856766 
L 314.546073 159.772423 
L 315.542511 155.859534 
L 315.874657 155.0281 
L 316.538949 158.439553 
L 316.871094 158.976476 
L 317.867532 157.576392 
L 318.86397 153.534911 
L 319.196116 150.405757 
L 320.192554 147.831123 
L 320.856846 148.924539 
L 322.517575 153.263863 
L 322.849721 157.825443 
L 323.181867 158.221137 
L 323.514013 159.502841 
L 323.846159 160.255781 
L 324.842597 159.359639 
L 325.506889 155.658714 
L 326.171181 157.025791 
L 327.167618 158.212232 
L 327.499764 157.060772 
L 327.83191 155.236412 
L 328.164056 155.988845 
L 328.496202 153.586902 
L 329.49264 152.981244 
L 330.156932 154.489951 
L 330.489078 156.097814 
L 330.821224 158.667808 
L 331.817661 159.913492 
L 332.149807 161.544605 
L 332.481953 158.003867 
L 332.814099 157.801367 
L 333.146245 158.403213 
L 334.142683 156.181586 
L 334.474829 154.153394 
L 334.806975 153.16748 
L 335.139121 152.991536 
L 335.471267 151.959896 
L 336.467704 150.252983 
L 336.79985 151.089376 
L 337.131996 152.246994 
L 337.464142 154.883431 
L 338.792726 160.706906 
L 339.789164 168.231694 
L 340.12131 168.804371 
L 341.117747 171.944883 
L 341.449893 174.806562 
L 341.782039 174.494641 
L 342.114185 177.352214 
L 342.446331 176.330679 
L 343.442769 177.745268 
L 343.774915 175.173354 
L 344.107061 171.041675 
L 344.439207 169.472072 
L 344.771353 170.697226 
L 345.767791 170.699519 
L 346.099936 168.647411 
L 346.432082 169.060915 
L 346.764228 169.750745 
L 347.096374 173.01289 
L 348.092812 174.932061 
L 348.424958 174.00443 
L 348.757104 173.792919 
L 349.421396 176.678488 
L 350.417834 177.776036 
L 350.749979 177.150462 
L 351.414271 180.170701 
L 351.746417 182.427495 
L 352.742855 180.633236 
L 353.075001 181.280327 
L 353.407147 182.717499 
L 353.739293 182.747147 
L 357.392898 182.852676 
L 357.725044 182.648097 
L 358.05719 183.057922 
L 358.389336 182.264749 
L 358.721482 180.430284 
L 359.71792 182.362332 
L 360.050066 185.372973 
L 360.382211 186.451245 
L 360.714357 188.824126 
L 361.046503 192.032893 
L 362.042941 194.474749 
L 362.375087 197.405244 
L 362.707233 197.397591 
L 363.371525 196.001879 
L 364.367963 192.78802 
L 364.700109 189.481615 
L 365.032255 189.528621 
L 365.3644 190.36712 
L 365.696546 192.112773 
L 366.692984 191.08244 
L 367.02513 187.388714 
L 367.357276 186.346596 
L 367.689422 185.892459 
L 368.021568 185.729553 
L 369.018006 186.867335 
L 369.350152 187.070047 
L 369.682298 186.914874 
L 370.014443 185.734859 
L 370.346589 187.19208 
L 371.343027 187.432173 
L 371.675173 186.837926 
L 372.007319 186.764312 
L 372.339465 188.870785 
L 372.671611 188.737394 
L 373.668049 190.176059 
L 374.000195 191.663435 
L 374.332341 191.467042 
L 374.664487 192.611276 
L 374.996632 193.051042 
L 375.99307 193.134681 
L 376.325216 193.905245 
L 376.657362 196.759885 
L 376.989508 196.525125 
L 377.321654 196.459562 
L 378.318092 196.052804 
L 378.650238 195.10619 
L 378.982384 195.110723 
L 379.646675 199.128874 
L 380.643113 200.270389 
L 380.975259 202.279491 
L 381.307405 202.836197 
L 381.639551 204.988769 
L 381.971697 204.463017 
L 382.968135 204.837141 
L 383.300281 204.658851 
L 383.632427 206.234773 
L 383.964573 206.565784 
L 384.296719 203.104819 
L 385.625302 200.7193 
L 385.957448 201.619229 
L 386.289594 203.151024 
L 386.62174 205.514574 
L 387.618178 207.651095 
L 387.950324 211.173249 
L 388.614616 213.649793 
L 388.946762 212.251361 
L 389.943199 212.944605 
L 390.275345 213.8853 
L 390.607491 214.032395 
L 390.939637 217.467605 
L 391.271783 217.346638 
L 392.268221 218.058758 
L 392.600367 222.33596 
L 392.932513 221.748858 
L 393.264659 219.814543 
L 393.596805 216.070639 
L 394.593242 215.798178 
L 394.925388 218.280455 
L 395.58968 226.133854 
L 395.921826 226.728235 
L 396.918264 229.49185 
L 397.25041 231.370508 
L 397.914702 215.86734 
L 401.568307 211.522577 
L 401.900453 209.253865 
L 402.232599 209.388109 
L 402.564745 208.974872 
L 402.896891 208.341112 
L 403.893328 208.037563 
L 404.225474 208.208094 
L 404.55762 205.816576 
L 404.889766 205.906028 
L 405.221912 202.387019 
L 406.21835 200.321447 
L 406.550496 200.117961 
L 407.214788 201.200099 
L 407.546934 202.919997 
L 408.543372 201.951119 
L 408.875517 198.429845 
L 409.207663 196.173637 
L 409.539809 195.466609 
L 409.871955 196.406238 
L 410.868393 196.19406 
L 411.200539 193.834057 
L 411.532685 193.644036 
L 411.864831 193.261647 
L 412.196977 193.598843 
L 413.193415 195.507056 
L 413.52556 198.437363 
L 413.857706 199.304284 
L 414.189852 202.95599 
L 414.521998 202.28477 
L 415.518436 201.140402 
L 415.850582 197.042131 
L 416.182728 196.398719 
L 417.843458 196.676753 
L 418.175604 198.721209 
L 418.507749 198.347858 
L 418.839895 199.910156 
L 419.172041 198.518816 
L 420.168479 199.034596 
L 420.500625 196.797079 
L 420.832771 199.15135 
L 421.164917 196.723385 
L 421.497063 196.47172 
L 422.493501 198.304212 
L 423.157792 201.791919 
L 423.489938 201.756939 
L 423.822084 201.841724 
L 424.818522 198.7748 
L 425.150668 194.87103 
L 427.143544 195.216998 
L 427.47569 192.119865 
L 427.807836 191.424942 
L 428.139981 193.393465 
L 428.472127 192.180388 
L 429.468565 192.890109 
L 429.800711 194.210954 
L 430.132857 194.797575 
L 430.465003 196.349928 
L 430.797149 196.512327 
L 431.793587 195.030763 
L 432.125733 193.689175 
L 432.457879 194.580118 
L 432.790024 195.149303 
L 433.12217 198.14024 
L 434.118608 201.180262 
L 434.450754 201.198846 
L 434.7829 203.038883 
L 435.115046 203.367068 
L 435.447192 203.894393 
L 436.44363 203.774893 
L 436.775776 203.044856 
L 437.107922 201.224442 
L 437.440068 201.585048 
L 437.772213 202.258721 
L 439.100797 203.840668 
L 439.432943 204.412039 
L 440.097235 208.49098 
L 441.093673 208.461332 
L 441.425819 208.039989 
L 441.757965 207.130222 
L 442.090111 208.105312 
L 442.422257 210.553273 
L 443.418694 211.38764 
L 444.082986 214.746355 
L 444.415132 212.8158 
L 444.747278 213.92284 
L 445.743716 213.681948 
L 446.075862 212.89552 
L 446.740154 215.337749 
L 447.0723 217.201169 
L 448.068737 217.713163 
L 448.400883 219.983048 
L 448.733029 218.542624 
L 449.065175 218.506657 
L 449.397321 215.903414 
L 450.393759 215.645671 
L 450.725905 216.874611 
L 451.058051 216.566583 
L 451.390197 217.168428 
L 451.722343 209.994167 
L 452.71878 201.401665 
L 453.050926 194.275956 
L 454.047364 188.717237 
L 455.375948 182.509907 
L 455.708094 181.892491 
L 456.04024 175.355457 
L 456.372386 173.990086 
L 457.368823 175.558756 
L 457.700969 178.914005 
L 458.033115 179.14306 
L 459.693845 183.323904 
L 460.025991 185.263791 
L 460.358137 185.924933 
L 460.690283 188.293628 
L 461.022429 188.068333 
L 462.018866 188.271632 
L 462.351012 188.150852 
L 463.015304 190.740684 
L 463.34745 192.234539 
L 464.343888 192.367664 
L 464.676034 192.096456 
L 465.340326 194.417212 
L 465.672472 193.572661 
L 466.668909 189.25576 
L 467.001055 191.457017 
L 467.333201 191.483599 
L 467.665347 193.071065 
L 467.997493 193.612814 
L 468.993931 195.91736 
L 469.326077 197.856528 
L 469.658223 198.762135 
L 469.990369 198.923282 
L 470.322515 200.10087 
L 471.983244 201.911206 
L 472.31539 202.683183 
L 472.647536 201.141709 
L 473.643974 200.349735 
L 473.97612 199.687473 
L 474.972558 177.320806 
L 475.968996 161.538739 
L 478.626163 134.454172 
L 478.958309 105.333573 
L 479.290455 115.265691 
L 479.622601 121.719486 
L 480.619039 130.489238 
L 480.951185 126.419309 
L 481.28333 132.322823 
L 481.947622 146.783673 
L 482.94406 140.535523 
L 483.276206 136.703314 
L 483.608352 134.360481 
L 483.940498 133.788604 
L 484.272644 136.677158 
L 485.269082 134.853145 
L 485.601228 133.805561 
L 485.933374 136.244564 
L 486.265519 137.831897 
L 486.597665 137.247676 
L 487.594103 139.449545 
L 487.926249 136.998384 
L 488.258395 130.886052 
L 488.590541 129.14869 
L 488.922687 123.984812 
L 489.919125 123.115598 
L 490.251271 118.993757 
L 490.583417 119.173994 
L 490.915562 118.917557 
L 491.247708 124.575086 
L 492.244146 131.178349 
L 492.576292 136.471939 
L 493.240584 131.903027 
L 493.57273 130.960306 
L 494.901314 138.356849 
L 495.23346 142.675803 
L 495.565606 140.782788 
L 495.897751 142.068412 
L 496.894189 138.912516 
L 497.226335 134.964246 
L 497.558481 133.814199 
L 497.890627 134.725859 
L 498.222773 134.418311 
L 499.219211 131.330404 
L 499.551357 129.801941 
L 499.883503 127.702373 
L 500.215649 127.302441 
L 500.547794 126.118933 
L 501.544232 130.436927 
L 501.876378 134.641927 
L 502.208524 136.839051 
L 502.54067 136.607677 
L 502.872816 135.462776 
L 503.869254 135.019943 
L 504.2014 136.670333 
L 504.533546 137.699146 
L 504.865692 141.816561 
L 505.197838 143.914155 
L 506.194275 145.765444 
L 506.526421 148.003388 
L 507.190713 153.449512 
L 507.522859 160.218268 
L 508.519297 166.268451 
L 508.851443 169.877551 
L 509.183589 169.606823 
L 509.515735 170.067679 
L 511.176464 175.085662 
L 511.50861 169.00791 
L 511.840756 168.902835 
L 512.172902 167.533411 
L 513.16934 167.018298 
L 513.833632 163.689418 
L 514.165778 164.174963 
L 514.497924 164.362078 
L 515.494361 162.294079 
L 518.483675 162.765626 
L 518.815821 162.304317 
L 519.147967 157.884047 
L 520.144404 151.554444 
L 520.47655 146.642016 
L 520.808696 143.889146 
L 521.140842 138.780591 
L 521.472988 137.247809 
L 522.469426 133.738212 
L 522.801572 131.261269 
L 523.133718 133.063952 
L 523.465864 131.41239 
L 523.79801 130.780229 
L 524.794447 127.578928 
L 525.126593 127.20795 
L 525.458739 129.617545 
L 525.790885 128.89556 
L 526.123031 129.206201 
L 527.119469 134.453265 
L 527.451615 135.338876 
L 528.115907 139.916294 
L 528.448053 136.500734 
L 529.44449 135.620349 
L 529.776636 137.248689 
L 530.108782 140.208565 
L 530.440928 140.873973 
L 530.773074 142.232304 
L 531.769512 138.192877 
L 532.101658 139.097018 
L 532.433804 140.867494 
L 533.098096 147.194777 
L 534.094534 149.577496 
L 534.426679 148.805706 
L 535.090971 150.90266 
L 535.423117 151.185519 
L 536.419555 152.289547 
L 536.751701 154.616143 
L 537.083847 155.838871 
L 537.415993 156.326149 
L 538.744577 158.615337 
L 539.076723 172.520866 
L 539.408868 173.834459 
L 539.741014 170.215281 
L 540.07316 161.985971 
L 541.401744 156.638709 
L 541.73389 157.258125 
L 542.398182 161.146672 
L 542.398182 161.146672 
" clip-path="url(#pcdb27d730f)" style="fill: none; stroke-dasharray: 5.55,2.4; stroke-dashoffset: 0; stroke: #ff0000; stroke-width: 1.5"/>
   </g>
   <g id="patch_3">
    <path d="M 63.56 246.04 
L 63.56 26.88 
" style="fill: none; stroke: #000000; stroke-width: 0.8; stroke-linejoin: miter; stroke-linecap: square"/>
   </g>
   <g id="patch_4">
    <path d="M 565.2 246.04 
L 565.2 26.88 
" style="fill: none; stroke: #000000; stroke-width: 0.8; stroke-linejoin: miter; stroke-linecap: square"/>
   </g>
   <g id="patch_5">
    <path d="M 63.56 246.04 
L 565.2 246.04 
" style="fill: none; stroke: #000000; stroke-width: 0.8; stroke-linejoin: miter; stroke-linecap: square"/>
   </g>
   <g id="patch_6">
    <path d="M 63.56 26.88 
L 565.2 26.88 
" style="fill: none; stroke: #000000; stroke-width: 0.8; stroke-linejoin: miter; stroke-linecap: square"/>
   </g>
   <g id="text_19">
    <!-- Real vs Predicted Stock Prices -->
    <g transform="translate(224.607812 20.88) scale(0.12 -0.12)">
     <defs>
      <path id="DejaVuSans-52" d="M 2841 2188 
Q 3044 2119 3236 1894 
Q 3428 1669 3622 1275 
L 4263 0 
L 3584 0 
L 2988 1197 
Q 2756 1666 2539 1819 
Q 2322 1972 1947 1972 
L 1259 1972 
L 1259 0 
L 628 0 
L 628 4666 
L 2053 4666 
Q 2853 4666 3247 4331 
Q 3641 3997 3641 3322 
Q 3641 2881 3436 2590 
Q 3231 2300 2841 2188 
z
M 1259 4147 
L 1259 2491 
L 2053 2491 
Q 2509 2491 2742 2702 
Q 2975 2913 2975 3322 
Q 2975 3731 2742 3939 
Q 2509 4147 2053 4147 
L 1259 4147 
z
" transform="scale(0.015625)"/>
      <path id="DejaVuSans-6c" d="M 603 4863 
L 1178 4863 
L 1178 0 
L 603 0 
L 603 4863 
z
" transform="scale(0.015625)"/>
      <path id="DejaVuSans-76" d="M 191 3500 
L 800 3500 
L 1894 563 
L 2988 3500 
L 3597 3500 
L 2284 0 
L 1503 0 
L 191 3500 
z
" transform="scale(0.015625)"/>
      <path id="DejaVuSans-73" d="M 2834 3397 
L 2834 2853 
Q 2591 2978 2328 3040 
Q 2066 3103 1784 3103 
Q 1356 3103 1142 2972 
Q 928 2841 928 2578 
Q 928 2378 1081 2264 
Q 1234 2150 1697 2047 
L 1894 2003 
Q 2506 1872 2764 1633 
Q 3022 1394 3022 966 
Q 3022 478 2636 193 
Q 2250 -91 1575 -91 
Q 1294 -91 989 -36 
Q 684 19 347 128 
L 347 722 
Q 666 556 975 473 
Q 1284 391 1588 391 
Q 1994 391 2212 530 
Q 2431 669 2431 922 
Q 2431 1156 2273 1281 
Q 2116 1406 1581 1522 
L 1381 1569 
Q 847 1681 609 1914 
Q 372 2147 372 2553 
Q 372 3047 722 3315 
Q 1072 3584 1716 3584 
Q 2034 3584 2315 3537 
Q 2597 3491 2834 3397 
z
" transform="scale(0.015625)"/>
      <path id="DejaVuSans-64" d="M 2906 2969 
L 2906 4863 
L 3481 4863 
L 3481 0 
L 2906 0 
L 2906 525 
Q 2725 213 2448 61 
Q 2172 -91 1784 -91 
Q 1150 -91 751 415 
Q 353 922 353 1747 
Q 353 2572 751 3078 
Q 1150 3584 1784 3584 
Q 2172 3584 2448 3432 
Q 2725 3281 2906 2969 
z
M 947 1747 
Q 947 1113 1208 752 
Q 1469 391 1925 391 
Q 2381 391 2643 752 
Q 2906 1113 2906 1747 
Q 2906 2381 2643 2742 
Q 2381 3103 1925 3103 
Q 1469 3103 1208 2742 
Q 947 2381 947 1747 
z
" transform="scale(0.015625)"/>
     </defs>
     <use xlink:href="#DejaVuSans-52"/>
     <use xlink:href="#DejaVuSans-65" transform="translate(64.982422 0)"/>
     <use xlink:href="#DejaVuSans-61" transform="translate(126.505859 0)"/>
     <use xlink:href="#DejaVuSans-6c" transform="translate(187.785156 0)"/>
     <use xlink:href="#DejaVuSans-20" transform="translate(215.568359 0)"/>
     <use xlink:href="#DejaVuSans-76" transform="translate(247.355469 0)"/>
     <use xlink:href="#DejaVuSans-73" transform="translate(306.535156 0)"/>
     <use xlink:href="#DejaVuSans-20" transform="translate(358.634766 0)"/>
     <use xlink:href="#DejaVuSans-50" transform="translate(390.421875 0)"/>
     <use xlink:href="#DejaVuSans-72" transform="translate(448.974609 0)"/>
     <use xlink:href="#DejaVuSans-65" transform="translate(487.837891 0)"/>
     <use xlink:href="#DejaVuSans-64" transform="translate(549.361328 0)"/>
     <use xlink:href="#DejaVuSans-69" transform="translate(612.837891 0)"/>
     <use xlink:href="#DejaVuSans-63" transform="translate(640.621094 0)"/>
     <use xlink:href="#DejaVuSans-74" transform="translate(695.601562 0)"/>
     <use xlink:href="#DejaVuSans-65" transform="translate(734.810547 0)"/>
     <use xlink:href="#DejaVuSans-64" transform="translate(796.333984 0)"/>
     <use xlink:href="#DejaVuSans-20" transform="translate(859.810547 0)"/>
     <use xlink:href="#DejaVuSans-53" transform="translate(891.597656 0)"/>
     <use xlink:href="#DejaVuSans-74" transform="translate(955.074219 0)"/>
     <use xlink:href="#DejaVuSans-6f" transform="translate(994.283203 0)"/>
     <use xlink:href="#DejaVuSans-63" transform="translate(1055.464844 0)"/>
     <use xlink:href="#DejaVuSans-6b" transform="translate(1110.445312 0)"/>
     <use xlink:href="#DejaVuSans-20" transform="translate(1168.355469 0)"/>
     <use xlink:href="#DejaVuSans-50" transform="translate(1200.142578 0)"/>
     <use xlink:href="#DejaVuSans-72" transform="translate(1258.695312 0)"/>
     <use xlink:href="#DejaVuSans-69" transform="translate(1299.808594 0)"/>
     <use xlink:href="#DejaVuSans-63" transform="translate(1327.591797 0)"/>
     <use xlink:href="#DejaVuSans-65" transform="translate(1382.572266 0)"/>
     <use xlink:href="#DejaVuSans-73" transform="translate(1444.095703 0)"/>
    </g>
   </g>
   <g id="legend_1">
    <g id="patch_7">
     <path d="M 446.476562 64.23625 
L 558.2 64.23625 
Q 560.2 64.23625 560.2 62.23625 
L 560.2 33.88 
Q 560.2 31.88 558.2 31.88 
L 446.476562 31.88 
Q 444.476562 31.88 444.476562 33.88 
L 444.476562 62.23625 
Q 444.476562 64.23625 446.476562 64.23625 
z
" style="fill: #ffffff; opacity: 0.8; stroke: #cccccc; stroke-linejoin: miter"/>
    </g>
    <g id="line2d_19">
     <path d="M 448.476562 39.978438 
L 458.476562 39.978438 
L 468.476562 39.978438 
" style="fill: none; stroke: #0000ff; stroke-width: 1.5; stroke-linecap: square"/>
    </g>
    <g id="text_20">
     <!-- Real Prices -->
     <g transform="translate(476.476562 43.478438) scale(0.1 -0.1)">
      <use xlink:href="#DejaVuSans-52"/>
      <use xlink:href="#DejaVuSans-65" transform="translate(64.982422 0)"/>
      <use xlink:href="#DejaVuSans-61" transform="translate(126.505859 0)"/>
      <use xlink:href="#DejaVuSans-6c" transform="translate(187.785156 0)"/>
      <use xlink:href="#DejaVuSans-20" transform="translate(215.568359 0)"/>
      <use xlink:href="#DejaVuSans-50" transform="translate(247.355469 0)"/>
      <use xlink:href="#DejaVuSans-72" transform="translate(305.908203 0)"/>
      <use xlink:href="#DejaVuSans-69" transform="translate(347.021484 0)"/>
      <use xlink:href="#DejaVuSans-63" transform="translate(374.804688 0)"/>
      <use xlink:href="#DejaVuSans-65" transform="translate(429.785156 0)"/>
      <use xlink:href="#DejaVuSans-73" transform="translate(491.308594 0)"/>
     </g>
    </g>
    <g id="line2d_20">
     <path d="M 448.476562 54.656563 
L 458.476562 54.656563 
L 468.476562 54.656563 
" style="fill: none; stroke-dasharray: 5.55,2.4; stroke-dashoffset: 0; stroke: #ff0000; stroke-width: 1.5"/>
    </g>
    <g id="text_21">
     <!-- Predicted Prices -->
     <g transform="translate(476.476562 58.156563) scale(0.1 -0.1)">
      <use xlink:href="#DejaVuSans-50"/>
      <use xlink:href="#DejaVuSans-72" transform="translate(58.552734 0)"/>
      <use xlink:href="#DejaVuSans-65" transform="translate(97.416016 0)"/>
      <use xlink:href="#DejaVuSans-64" transform="translate(158.939453 0)"/>
      <use xlink:href="#DejaVuSans-69" transform="translate(222.416016 0)"/>
      <use xlink:href="#DejaVuSans-63" transform="translate(250.199219 0)"/>
      <use xlink:href="#DejaVuSans-74" transform="translate(305.179688 0)"/>
      <use xlink:href="#DejaVuSans-65" transform="translate(344.388672 0)"/>
      <use xlink:href="#DejaVuSans-64" transform="translate(405.912109 0)"/>
      <use xlink:href="#DejaVuSans-20" transform="translate(469.388672 0)"/>
      <use xlink:href="#DejaVuSans-50" transform="translate(501.175781 0)"/>
      <use xlink:href="#DejaVuSans-72" transform="translate(559.728516 0)"/>
      <use xlink:href="#DejaVuSans-69" transform="translate(600.841797 0)"/>
      <use xlink:href="#DejaVuSans-63" transform="translate(628.625 0)"/>
      <use xlink:href="#DejaVuSans-65" transform="translate(683.605469 0)"/>
      <use xlink:href="#DejaVuSans-73" transform="translate(745.128906 0)"/>
     </g>
    </g>
   </g>
  </g>
 </g>
 <defs>
  <clipPath id="pcdb27d730f">
   <rect x="63.56" y="26.88" width="501.64" height="219.16"/>
  </clipPath>
 </defs>
</svg>
