<?xml version="1.0" encoding="utf-8" standalone="no"?>
<!DOCTYPE svg PUBLIC "-//W3C//DTD SVG 1.1//EN"
  "http://www.w3.org/Graphics/SVG/1.1/DTD/svg11.dtd">
<svg xmlns:xlink="http://www.w3.org/1999/xlink" width="568.71125pt" height="351.034375pt" viewBox="0 0 568.71125 351.034375" xmlns="http://www.w3.org/2000/svg" version="1.1">
 <metadata>
  <rdf:RDF xmlns:dc="http://purl.org/dc/elements/1.1/" xmlns:cc="http://creativecommons.org/ns#" xmlns:rdf="http://www.w3.org/1999/02/22-rdf-syntax-ns#">
   <cc:Work>
    <dc:type rdf:resource="http://purl.org/dc/dcmitype/StillImage"/>
    <dc:date>2025-05-07T01:07:21.844674</dc:date>
    <dc:format>image/svg+xml</dc:format>
    <dc:creator>
     <cc:Agent>
      <dc:title>Matplotlib v3.10.1, https://matplotlib.org/</dc:title>
     </cc:Agent>
    </dc:creator>
   </cc:Work>
  </rdf:RDF>
 </metadata>
 <defs>
  <style type="text/css">*{stroke-linejoin: round; stroke-linecap: butt}</style>
 </defs>
 <g id="figure_1">
  <g id="patch_1">
   <path d="M 0 351.034375 
L 568.71125 351.034375 
L 568.71125 0 
L 0 0 
z
" style="fill: #ffffff"/>
  </g>
  <g id="axes_1">
   <g id="patch_2">
    <path d="M 69.23125 313.478125 
L 561.51125 313.478125 
L 561.51125 22.318125 
L 69.23125 22.318125 
z
" style="fill: #ffffff"/>
   </g>
   <g id="FillBetweenPolyCollection_1">
    <defs>
     <path id="m831585b445" d="M 91.607614 -37.84066 
L 91.607614 -37.55625 
L 93.856494 -37.55625 
L 96.105375 -37.55625 
L 98.354256 -37.55625 
L 100.603137 -37.55625 
L 102.852017 -37.55625 
L 105.100898 -37.55625 
L 107.349779 -37.55625 
L 109.59866 -37.55625 
L 111.847541 -37.55625 
L 114.096421 -37.55625 
L 116.345302 -37.55625 
L 118.594183 -37.55625 
L 120.843064 -37.55625 
L 123.091944 -37.55625 
L 125.340825 -37.55625 
L 127.589706 -37.55625 
L 129.838587 -37.55625 
L 132.087467 -37.55625 
L 134.336348 -37.55625 
L 136.585229 -37.55625 
L 138.83411 -37.55625 
L 141.082991 -37.55625 
L 143.331871 -37.55625 
L 145.580752 -37.55625 
L 147.829633 -37.55625 
L 150.078514 -37.55625 
L 152.327394 -37.55625 
L 154.576275 -37.55625 
L 156.825156 -37.55625 
L 159.074037 -37.55625 
L 161.322917 -37.55625 
L 163.571798 -37.55625 
L 165.820679 -37.55625 
L 168.06956 -37.55625 
L 170.31844 -37.55625 
L 172.567321 -37.55625 
L 174.816202 -37.55625 
L 177.065083 -37.55625 
L 179.313964 -37.55625 
L 181.562844 -37.55625 
L 183.811725 -37.55625 
L 186.060606 -37.55625 
L 188.309487 -37.55625 
L 190.558367 -37.55625 
L 192.807248 -37.55625 
L 195.056129 -37.55625 
L 197.30501 -37.55625 
L 199.55389 -37.55625 
L 201.802771 -37.55625 
L 204.051652 -37.55625 
L 206.300533 -37.55625 
L 208.549414 -37.55625 
L 210.798294 -37.55625 
L 213.047175 -37.55625 
L 215.296056 -37.55625 
L 217.544937 -37.55625 
L 219.793817 -37.55625 
L 222.042698 -37.55625 
L 224.291579 -37.55625 
L 226.54046 -37.55625 
L 228.78934 -37.55625 
L 231.038221 -37.55625 
L 233.287102 -37.55625 
L 235.535983 -37.55625 
L 237.784864 -37.55625 
L 240.033744 -37.55625 
L 242.282625 -37.55625 
L 244.531506 -37.55625 
L 246.780387 -37.55625 
L 249.029267 -37.55625 
L 251.278148 -37.55625 
L 253.527029 -37.55625 
L 255.77591 -37.55625 
L 258.02479 -37.55625 
L 260.273671 -37.55625 
L 262.522552 -37.55625 
L 264.771433 -37.55625 
L 267.020313 -37.55625 
L 269.269194 -37.55625 
L 271.518075 -37.55625 
L 273.766956 -37.55625 
L 276.015837 -37.55625 
L 278.264717 -37.55625 
L 280.513598 -37.55625 
L 282.762479 -37.55625 
L 285.01136 -37.55625 
L 287.26024 -37.55625 
L 289.509121 -37.55625 
L 291.758002 -37.55625 
L 294.006883 -37.55625 
L 296.255763 -37.55625 
L 298.504644 -37.55625 
L 300.753525 -37.55625 
L 303.002406 -37.55625 
L 305.251287 -37.55625 
L 307.500167 -37.55625 
L 309.749048 -37.55625 
L 311.997929 -37.55625 
L 314.24681 -37.55625 
L 316.49569 -37.55625 
L 318.744571 -37.55625 
L 320.993452 -37.55625 
L 323.242333 -37.55625 
L 325.491213 -37.55625 
L 327.740094 -37.55625 
L 329.988975 -37.55625 
L 332.237856 -37.55625 
L 334.486737 -37.55625 
L 336.735617 -37.55625 
L 338.984498 -37.55625 
L 341.233379 -37.55625 
L 343.48226 -37.55625 
L 345.73114 -37.55625 
L 347.980021 -37.55625 
L 350.228902 -37.55625 
L 352.477783 -37.55625 
L 354.726663 -37.55625 
L 356.975544 -37.55625 
L 359.224425 -37.55625 
L 361.473306 -37.55625 
L 363.722187 -37.55625 
L 365.971067 -37.55625 
L 368.219948 -37.55625 
L 370.468829 -37.55625 
L 372.71771 -37.55625 
L 374.96659 -37.55625 
L 377.215471 -37.55625 
L 379.464352 -37.55625 
L 381.713233 -37.55625 
L 383.962113 -37.55625 
L 386.210994 -37.55625 
L 388.459875 -37.55625 
L 390.708756 -37.55625 
L 392.957636 -37.55625 
L 395.206517 -37.55625 
L 397.455398 -37.55625 
L 399.704279 -37.55625 
L 401.95316 -37.55625 
L 404.20204 -37.55625 
L 406.450921 -37.55625 
L 408.699802 -37.55625 
L 410.948683 -37.55625 
L 413.197563 -37.55625 
L 415.446444 -37.55625 
L 417.695325 -37.55625 
L 419.944206 -37.55625 
L 422.193086 -37.55625 
L 424.441967 -37.55625 
L 426.690848 -37.55625 
L 428.939729 -37.55625 
L 431.18861 -37.55625 
L 433.43749 -37.55625 
L 435.686371 -37.55625 
L 437.935252 -37.55625 
L 440.184133 -37.55625 
L 442.433013 -37.55625 
L 444.681894 -37.55625 
L 446.930775 -37.55625 
L 449.179656 -37.55625 
L 451.428536 -37.55625 
L 453.677417 -37.55625 
L 455.926298 -37.55625 
L 458.175179 -37.55625 
L 460.42406 -37.55625 
L 462.67294 -37.55625 
L 464.921821 -37.55625 
L 467.170702 -37.55625 
L 469.419583 -37.55625 
L 471.668463 -37.55625 
L 473.917344 -37.55625 
L 476.166225 -37.55625 
L 478.415106 -37.55625 
L 480.663986 -37.55625 
L 482.912867 -37.55625 
L 485.161748 -37.55625 
L 487.410629 -37.55625 
L 489.659509 -37.55625 
L 491.90839 -37.55625 
L 494.157271 -37.55625 
L 496.406152 -37.55625 
L 498.655033 -37.55625 
L 500.903913 -37.55625 
L 503.152794 -37.55625 
L 505.401675 -37.55625 
L 507.650556 -37.55625 
L 509.899436 -37.55625 
L 512.148317 -37.55625 
L 514.397198 -37.55625 
L 516.646079 -37.55625 
L 518.894959 -37.55625 
L 521.14384 -37.55625 
L 523.392721 -37.55625 
L 525.641602 -37.55625 
L 527.890483 -37.55625 
L 530.139363 -37.55625 
L 532.388244 -37.55625 
L 534.637125 -37.55625 
L 536.886006 -37.55625 
L 539.134886 -37.55625 
L 539.134886 -37.564865 
L 539.134886 -37.564865 
L 536.886006 -37.570713 
L 534.637125 -37.579981 
L 532.388244 -37.594314 
L 530.139363 -37.615939 
L 527.890483 -37.647774 
L 525.641602 -37.693503 
L 523.392721 -37.757601 
L 521.14384 -37.845279 
L 518.894959 -37.962334 
L 516.646079 -38.114885 
L 514.397198 -38.309009 
L 512.148317 -38.550286 
L 509.899436 -38.843319 
L 507.650556 -39.191274 
L 505.401675 -39.595517 
L 503.152794 -40.055414 
L 500.903913 -40.568327 
L 498.655033 -41.129816 
L 496.406152 -41.734022 
L 494.157271 -42.374135 
L 491.90839 -43.042883 
L 489.659509 -43.732919 
L 487.410629 -44.437049 
L 485.161748 -45.14828 
L 482.912867 -45.859696 
L 480.663986 -46.564269 
L 478.415106 -47.254683 
L 476.166225 -47.92331 
L 473.917344 -48.562382 
L 471.668463 -49.164407 
L 469.419583 -49.722752 
L 467.170702 -50.232312 
L 464.921821 -50.690112 
L 462.67294 -51.095726 
L 460.42406 -51.451416 
L 458.175179 -51.76196 
L 455.926298 -52.034242 
L 453.677417 -52.276678 
L 451.428536 -52.498655 
L 449.179656 -52.710101 
L 446.930775 -52.92131 
L 444.681894 -53.143082 
L 442.433013 -53.387168 
L 440.184133 -53.666962 
L 437.935252 -53.998327 
L 435.686371 -54.400418 
L 433.43749 -54.896328 
L 431.18861 -55.51341 
L 428.939729 -56.283092 
L 426.690848 -57.240056 
L 424.441967 -58.420677 
L 422.193086 -59.860713 
L 419.944206 -61.592334 
L 417.695325 -63.640727 
L 415.446444 -66.020668 
L 413.197563 -68.733532 
L 410.948683 -71.765305 
L 408.699802 -75.086057 
L 406.450921 -78.651189 
L 404.20204 -82.404499 
L 401.95316 -86.282779 
L 399.704279 -90.221363 
L 397.455398 -94.159838 
L 395.206517 -98.04706 
L 392.957636 -101.844757 
L 390.708756 -105.529262 
L 388.459875 -109.091308 
L 386.210994 -112.534198 
L 383.962113 -115.870936 
L 381.713233 -119.121055 
L 379.464352 -122.307774 
L 377.215471 -125.45592 
L 374.96659 -128.590703 
L 372.71771 -131.737151 
L 370.468829 -134.919831 
L 368.219948 -138.162443 
L 365.971067 -141.487059 
L 363.722187 -144.91305 
L 361.473306 -148.456023 
L 359.224425 -152.127311 
L 356.975544 -155.93456 
L 354.726663 -159.883794 
L 352.477783 -163.982939 
L 350.228902 -168.246366 
L 347.980021 -172.699568 
L 345.73114 -177.382809 
L 343.48226 -182.352586 
L 341.233379 -187.679936 
L 338.984498 -193.445143 
L 336.735617 -199.728981 
L 334.486737 -206.601287 
L 332.237856 -214.108198 
L 329.988975 -222.259711 
L 327.740094 -231.019331 
L 325.491213 -240.297356 
L 323.242333 -249.948959 
L 320.993452 -259.777629 
L 318.744571 -269.543907 
L 316.49569 -278.978708 
L 314.24681 -287.79999 
L 311.997929 -295.73118 
L 309.749048 -302.519536 
L 307.500167 -307.952735 
L 305.251287 -311.872136 
L 303.002406 -314.181631 
L 300.753525 -314.851488 
L 298.504644 -313.917165 
L 296.255763 -311.473603 
L 294.006883 -307.665941 
L 291.758002 -302.677841 
L 289.509121 -296.71869 
L 287.26024 -290.010813 
L 285.01136 -282.777576 
L 282.762479 -275.232891 
L 280.513598 -267.572357 
L 278.264717 -259.965987 
L 276.015837 -252.552412 
L 273.766956 -245.434497 
L 271.518075 -238.676425 
L 269.269194 -232.302503 
L 267.020313 -226.298016 
L 264.771433 -220.612443 
L 262.522552 -215.165144 
L 260.273671 -209.85332 
L 258.02479 -204.561687 
L 255.77591 -199.172985 
L 253.527029 -193.578285 
L 251.278148 -187.686088 
L 249.029267 -181.429402 
L 246.780387 -174.77036 
L 244.531506 -167.702292 
L 242.282625 -160.249492 
L 240.033744 -152.465105 
L 237.784864 -144.427637 
L 235.535983 -136.236515 
L 233.287102 -128.007076 
L 231.038221 -119.865268 
L 228.78934 -111.942362 
L 226.54046 -104.370009 
L 224.291579 -97.276017 
L 222.042698 -90.781234 
L 219.793817 -84.997779 
L 217.544937 -80.028651 
L 215.296056 -75.968384 
L 213.047175 -72.904116 
L 210.798294 -70.916163 
L 208.549414 -70.077148 
L 206.300533 -70.448945 
L 204.051652 -72.077189 
L 201.802771 -74.983756 
L 199.55389 -79.158378 
L 197.30501 -84.55119 
L 195.056129 -91.068318 
L 192.807248 -98.572508 
L 190.558367 -106.89014 
L 188.309487 -115.824851 
L 186.060606 -125.176558 
L 183.811725 -134.763242 
L 181.562844 -144.441669 
L 179.313964 -154.122715 
L 177.065083 -163.777269 
L 174.816202 -173.42991 
L 172.567321 -183.139571 
L 170.31844 -192.968899 
L 168.06956 -202.946535 
L 165.820679 -213.028565 
L 163.571798 -223.066426 
L 161.322917 -232.788338 
L 159.074037 -241.799635 
L 156.825156 -249.604556 
L 154.576275 -255.648432 
L 152.327394 -259.375491 
L 150.078514 -260.294436 
L 147.829633 -258.042134 
L 145.580752 -252.435626 
L 143.331871 -243.504317 
L 141.082991 -231.497306 
L 138.83411 -216.864794 
L 136.585229 -200.216598 
L 134.336348 -182.264191 
L 132.087467 -163.754817 
L 129.838587 -145.406759 
L 127.589706 -127.853805 
L 125.340825 -111.604765 
L 123.091944 -97.020972 
L 120.843064 -84.311782 
L 118.594183 -73.545586 
L 116.345302 -64.672206 
L 114.096421 -57.551821 
L 111.847541 -51.985748 
L 109.59866 -47.745211 
L 107.349779 -44.595459 
L 105.100898 -42.31385 
L 102.852017 -40.70166 
L 100.603137 -39.590233 
L 98.354256 -38.842583 
L 96.105375 -38.35177 
L 93.856494 -38.037307 
L 91.607614 -37.84066 
z
" style="stroke: #0000ff"/>
    </defs>
    <g clip-path="url(#p51666e14f6)">
     <use xlink:href="#m831585b445" x="0" y="351.034375" style="fill: #0000ff; fill-opacity: 0.25; stroke: #0000ff"/>
    </g>
   </g>
   <g id="matplotlib.axis_1">
    <g id="xtick_1">
     <g id="line2d_1">
      <defs>
       <path id="mac834a951f" d="M 0 0 
L 0 3.5 
" style="stroke: #000000; stroke-width: 0.8"/>
      </defs>
      <g>
       <use xlink:href="#mac834a951f" x="78.081271" y="313.478125" style="stroke: #000000; stroke-width: 0.8"/>
      </g>
     </g>
     <g id="text_1">
      <!-- 0 -->
      <g transform="translate(74.900021 328.076563) scale(0.1 -0.1)">
       <defs>
        <path id="DejaVuSans-30" d="M 2034 4250 
Q 1547 4250 1301 3770 
Q 1056 3291 1056 2328 
Q 1056 1369 1301 889 
Q 1547 409 2034 409 
Q 2525 409 2770 889 
Q 3016 1369 3016 2328 
Q 3016 3291 2770 3770 
Q 2525 4250 2034 4250 
z
M 2034 4750 
Q 2819 4750 3233 4129 
Q 3647 3509 3647 2328 
Q 3647 1150 3233 529 
Q 2819 -91 2034 -91 
Q 1250 -91 836 529 
Q 422 1150 422 2328 
Q 422 3509 836 4129 
Q 1250 4750 2034 4750 
z
" transform="scale(0.015625)"/>
       </defs>
       <use xlink:href="#DejaVuSans-30"/>
      </g>
     </g>
    </g>
    <g id="xtick_2">
     <g id="line2d_2">
      <g>
       <use xlink:href="#mac834a951f" x="185.194552" y="313.478125" style="stroke: #000000; stroke-width: 0.8"/>
      </g>
     </g>
     <g id="text_2">
      <!-- 5000 -->
      <g transform="translate(172.469552 328.076563) scale(0.1 -0.1)">
       <defs>
        <path id="DejaVuSans-35" d="M 691 4666 
L 3169 4666 
L 3169 4134 
L 1269 4134 
L 1269 2991 
Q 1406 3038 1543 3061 
Q 1681 3084 1819 3084 
Q 2600 3084 3056 2656 
Q 3513 2228 3513 1497 
Q 3513 744 3044 326 
Q 2575 -91 1722 -91 
Q 1428 -91 1123 -41 
Q 819 9 494 109 
L 494 744 
Q 775 591 1075 516 
Q 1375 441 1709 441 
Q 2250 441 2565 725 
Q 2881 1009 2881 1497 
Q 2881 1984 2565 2268 
Q 2250 2553 1709 2553 
Q 1456 2553 1204 2497 
Q 953 2441 691 2322 
L 691 4666 
z
" transform="scale(0.015625)"/>
       </defs>
       <use xlink:href="#DejaVuSans-35"/>
       <use xlink:href="#DejaVuSans-30" transform="translate(63.623047 0)"/>
       <use xlink:href="#DejaVuSans-30" transform="translate(127.246094 0)"/>
       <use xlink:href="#DejaVuSans-30" transform="translate(190.869141 0)"/>
      </g>
     </g>
    </g>
    <g id="xtick_3">
     <g id="line2d_3">
      <g>
       <use xlink:href="#mac834a951f" x="292.307833" y="313.478125" style="stroke: #000000; stroke-width: 0.8"/>
      </g>
     </g>
     <g id="text_3">
      <!-- 10000 -->
      <g transform="translate(276.401583 328.076563) scale(0.1 -0.1)">
       <defs>
        <path id="DejaVuSans-31" d="M 794 531 
L 1825 531 
L 1825 4091 
L 703 3866 
L 703 4441 
L 1819 4666 
L 2450 4666 
L 2450 531 
L 3481 531 
L 3481 0 
L 794 0 
L 794 531 
z
" transform="scale(0.015625)"/>
       </defs>
       <use xlink:href="#DejaVuSans-31"/>
       <use xlink:href="#DejaVuSans-30" transform="translate(63.623047 0)"/>
       <use xlink:href="#DejaVuSans-30" transform="translate(127.246094 0)"/>
       <use xlink:href="#DejaVuSans-30" transform="translate(190.869141 0)"/>
       <use xlink:href="#DejaVuSans-30" transform="translate(254.492188 0)"/>
      </g>
     </g>
    </g>
    <g id="xtick_4">
     <g id="line2d_4">
      <g>
       <use xlink:href="#mac834a951f" x="399.421113" y="313.478125" style="stroke: #000000; stroke-width: 0.8"/>
      </g>
     </g>
     <g id="text_4">
      <!-- 15000 -->
      <g transform="translate(383.514863 328.076563) scale(0.1 -0.1)">
       <use xlink:href="#DejaVuSans-31"/>
       <use xlink:href="#DejaVuSans-35" transform="translate(63.623047 0)"/>
       <use xlink:href="#DejaVuSans-30" transform="translate(127.246094 0)"/>
       <use xlink:href="#DejaVuSans-30" transform="translate(190.869141 0)"/>
       <use xlink:href="#DejaVuSans-30" transform="translate(254.492188 0)"/>
      </g>
     </g>
    </g>
    <g id="xtick_5">
     <g id="line2d_5">
      <g>
       <use xlink:href="#mac834a951f" x="506.534394" y="313.478125" style="stroke: #000000; stroke-width: 0.8"/>
      </g>
     </g>
     <g id="text_5">
      <!-- 20000 -->
      <g transform="translate(490.628144 328.076563) scale(0.1 -0.1)">
       <defs>
        <path id="DejaVuSans-32" d="M 1228 531 
L 3431 531 
L 3431 0 
L 469 0 
L 469 531 
Q 828 903 1448 1529 
Q 2069 2156 2228 2338 
Q 2531 2678 2651 2914 
Q 2772 3150 2772 3378 
Q 2772 3750 2511 3984 
Q 2250 4219 1831 4219 
Q 1534 4219 1204 4116 
Q 875 4013 500 3803 
L 500 4441 
Q 881 4594 1212 4672 
Q 1544 4750 1819 4750 
Q 2544 4750 2975 4387 
Q 3406 4025 3406 3419 
Q 3406 3131 3298 2873 
Q 3191 2616 2906 2266 
Q 2828 2175 2409 1742 
Q 1991 1309 1228 531 
z
" transform="scale(0.015625)"/>
       </defs>
       <use xlink:href="#DejaVuSans-32"/>
       <use xlink:href="#DejaVuSans-30" transform="translate(63.623047 0)"/>
       <use xlink:href="#DejaVuSans-30" transform="translate(127.246094 0)"/>
       <use xlink:href="#DejaVuSans-30" transform="translate(190.869141 0)"/>
       <use xlink:href="#DejaVuSans-30" transform="translate(254.492188 0)"/>
      </g>
     </g>
    </g>
    <g id="text_6">
     <!-- Price -->
     <g transform="translate(303.173594 341.754687) scale(0.1 -0.1)">
      <defs>
       <path id="DejaVuSans-50" d="M 1259 4147 
L 1259 2394 
L 2053 2394 
Q 2494 2394 2734 2622 
Q 2975 2850 2975 3272 
Q 2975 3691 2734 3919 
Q 2494 4147 2053 4147 
L 1259 4147 
z
M 628 4666 
L 2053 4666 
Q 2838 4666 3239 4311 
Q 3641 3956 3641 3272 
Q 3641 2581 3239 2228 
Q 2838 1875 2053 1875 
L 1259 1875 
L 1259 0 
L 628 0 
L 628 4666 
z
" transform="scale(0.015625)"/>
       <path id="DejaVuSans-72" d="M 2631 2963 
Q 2534 3019 2420 3045 
Q 2306 3072 2169 3072 
Q 1681 3072 1420 2755 
Q 1159 2438 1159 1844 
L 1159 0 
L 581 0 
L 581 3500 
L 1159 3500 
L 1159 2956 
Q 1341 3275 1631 3429 
Q 1922 3584 2338 3584 
Q 2397 3584 2469 3576 
Q 2541 3569 2628 3553 
L 2631 2963 
z
" transform="scale(0.015625)"/>
       <path id="DejaVuSans-69" d="M 603 3500 
L 1178 3500 
L 1178 0 
L 603 0 
L 603 3500 
z
M 603 4863 
L 1178 4863 
L 1178 4134 
L 603 4134 
L 603 4863 
z
" transform="scale(0.015625)"/>
       <path id="DejaVuSans-63" d="M 3122 3366 
L 3122 2828 
Q 2878 2963 2633 3030 
Q 2388 3097 2138 3097 
Q 1578 3097 1268 2742 
Q 959 2388 959 1747 
Q 959 1106 1268 751 
Q 1578 397 2138 397 
Q 2388 397 2633 464 
Q 2878 531 3122 666 
L 3122 134 
Q 2881 22 2623 -34 
Q 2366 -91 2075 -91 
Q 1284 -91 818 406 
Q 353 903 353 1747 
Q 353 2603 823 3093 
Q 1294 3584 2113 3584 
Q 2378 3584 2631 3529 
Q 2884 3475 3122 3366 
z
" transform="scale(0.015625)"/>
       <path id="DejaVuSans-65" d="M 3597 1894 
L 3597 1613 
L 953 1613 
Q 991 1019 1311 708 
Q 1631 397 2203 397 
Q 2534 397 2845 478 
Q 3156 559 3463 722 
L 3463 178 
Q 3153 47 2828 -22 
Q 2503 -91 2169 -91 
Q 1331 -91 842 396 
Q 353 884 353 1716 
Q 353 2575 817 3079 
Q 1281 3584 2069 3584 
Q 2775 3584 3186 3129 
Q 3597 2675 3597 1894 
z
M 3022 2063 
Q 3016 2534 2758 2815 
Q 2500 3097 2075 3097 
Q 1594 3097 1305 2825 
Q 1016 2553 972 2059 
L 3022 2063 
z
" transform="scale(0.015625)"/>
      </defs>
      <use xlink:href="#DejaVuSans-50"/>
      <use xlink:href="#DejaVuSans-72" transform="translate(58.552734 0)"/>
      <use xlink:href="#DejaVuSans-69" transform="translate(99.666016 0)"/>
      <use xlink:href="#DejaVuSans-63" transform="translate(127.449219 0)"/>
      <use xlink:href="#DejaVuSans-65" transform="translate(182.429688 0)"/>
     </g>
    </g>
   </g>
   <g id="matplotlib.axis_2">
    <g id="ytick_1">
     <g id="line2d_6">
      <defs>
       <path id="maccb12a6d1" d="M 0 0 
L -3.5 0 
" style="stroke: #000000; stroke-width: 0.8"/>
      </defs>
      <g>
       <use xlink:href="#maccb12a6d1" x="69.23125" y="313.478125" style="stroke: #000000; stroke-width: 0.8"/>
      </g>
     </g>
     <g id="text_7">
      <!-- 0.00000 -->
      <g transform="translate(20.878125 317.277344) scale(0.1 -0.1)">
       <defs>
        <path id="DejaVuSans-2e" d="M 684 794 
L 1344 794 
L 1344 0 
L 684 0 
L 684 794 
z
" transform="scale(0.015625)"/>
       </defs>
       <use xlink:href="#DejaVuSans-30"/>
       <use xlink:href="#DejaVuSans-2e" transform="translate(63.623047 0)"/>
       <use xlink:href="#DejaVuSans-30" transform="translate(95.410156 0)"/>
       <use xlink:href="#DejaVuSans-30" transform="translate(159.033203 0)"/>
       <use xlink:href="#DejaVuSans-30" transform="translate(222.65625 0)"/>
       <use xlink:href="#DejaVuSans-30" transform="translate(286.279297 0)"/>
       <use xlink:href="#DejaVuSans-30" transform="translate(349.902344 0)"/>
      </g>
     </g>
    </g>
    <g id="ytick_2">
     <g id="line2d_7">
      <g>
       <use xlink:href="#maccb12a6d1" x="69.23125" y="273.850082" style="stroke: #000000; stroke-width: 0.8"/>
      </g>
     </g>
     <g id="text_8">
      <!-- 0.00002 -->
      <g transform="translate(20.878125 277.649301) scale(0.1 -0.1)">
       <use xlink:href="#DejaVuSans-30"/>
       <use xlink:href="#DejaVuSans-2e" transform="translate(63.623047 0)"/>
       <use xlink:href="#DejaVuSans-30" transform="translate(95.410156 0)"/>
       <use xlink:href="#DejaVuSans-30" transform="translate(159.033203 0)"/>
       <use xlink:href="#DejaVuSans-30" transform="translate(222.65625 0)"/>
       <use xlink:href="#DejaVuSans-30" transform="translate(286.279297 0)"/>
       <use xlink:href="#DejaVuSans-32" transform="translate(349.902344 0)"/>
      </g>
     </g>
    </g>
    <g id="ytick_3">
     <g id="line2d_8">
      <g>
       <use xlink:href="#maccb12a6d1" x="69.23125" y="234.22204" style="stroke: #000000; stroke-width: 0.8"/>
      </g>
     </g>
     <g id="text_9">
      <!-- 0.00004 -->
      <g transform="translate(20.878125 238.021258) scale(0.1 -0.1)">
       <defs>
        <path id="DejaVuSans-34" d="M 2419 4116 
L 825 1625 
L 2419 1625 
L 2419 4116 
z
M 2253 4666 
L 3047 4666 
L 3047 1625 
L 3713 1625 
L 3713 1100 
L 3047 1100 
L 3047 0 
L 2419 0 
L 2419 1100 
L 313 1100 
L 313 1709 
L 2253 4666 
z
" transform="scale(0.015625)"/>
       </defs>
       <use xlink:href="#DejaVuSans-30"/>
       <use xlink:href="#DejaVuSans-2e" transform="translate(63.623047 0)"/>
       <use xlink:href="#DejaVuSans-30" transform="translate(95.410156 0)"/>
       <use xlink:href="#DejaVuSans-30" transform="translate(159.033203 0)"/>
       <use xlink:href="#DejaVuSans-30" transform="translate(222.65625 0)"/>
       <use xlink:href="#DejaVuSans-30" transform="translate(286.279297 0)"/>
       <use xlink:href="#DejaVuSans-34" transform="translate(349.902344 0)"/>
      </g>
     </g>
    </g>
    <g id="ytick_4">
     <g id="line2d_9">
      <g>
       <use xlink:href="#maccb12a6d1" x="69.23125" y="194.593997" style="stroke: #000000; stroke-width: 0.8"/>
      </g>
     </g>
     <g id="text_10">
      <!-- 0.00006 -->
      <g transform="translate(20.878125 198.393216) scale(0.1 -0.1)">
       <defs>
        <path id="DejaVuSans-36" d="M 2113 2584 
Q 1688 2584 1439 2293 
Q 1191 2003 1191 1497 
Q 1191 994 1439 701 
Q 1688 409 2113 409 
Q 2538 409 2786 701 
Q 3034 994 3034 1497 
Q 3034 2003 2786 2293 
Q 2538 2584 2113 2584 
z
M 3366 4563 
L 3366 3988 
Q 3128 4100 2886 4159 
Q 2644 4219 2406 4219 
Q 1781 4219 1451 3797 
Q 1122 3375 1075 2522 
Q 1259 2794 1537 2939 
Q 1816 3084 2150 3084 
Q 2853 3084 3261 2657 
Q 3669 2231 3669 1497 
Q 3669 778 3244 343 
Q 2819 -91 2113 -91 
Q 1303 -91 875 529 
Q 447 1150 447 2328 
Q 447 3434 972 4092 
Q 1497 4750 2381 4750 
Q 2619 4750 2861 4703 
Q 3103 4656 3366 4563 
z
" transform="scale(0.015625)"/>
       </defs>
       <use xlink:href="#DejaVuSans-30"/>
       <use xlink:href="#DejaVuSans-2e" transform="translate(63.623047 0)"/>
       <use xlink:href="#DejaVuSans-30" transform="translate(95.410156 0)"/>
       <use xlink:href="#DejaVuSans-30" transform="translate(159.033203 0)"/>
       <use xlink:href="#DejaVuSans-30" transform="translate(222.65625 0)"/>
       <use xlink:href="#DejaVuSans-30" transform="translate(286.279297 0)"/>
       <use xlink:href="#DejaVuSans-36" transform="translate(349.902344 0)"/>
      </g>
     </g>
    </g>
    <g id="ytick_5">
     <g id="line2d_10">
      <g>
       <use xlink:href="#maccb12a6d1" x="69.23125" y="154.965954" style="stroke: #000000; stroke-width: 0.8"/>
      </g>
     </g>
     <g id="text_11">
      <!-- 0.00008 -->
      <g transform="translate(20.878125 158.765173) scale(0.1 -0.1)">
       <defs>
        <path id="DejaVuSans-38" d="M 2034 2216 
Q 1584 2216 1326 1975 
Q 1069 1734 1069 1313 
Q 1069 891 1326 650 
Q 1584 409 2034 409 
Q 2484 409 2743 651 
Q 3003 894 3003 1313 
Q 3003 1734 2745 1975 
Q 2488 2216 2034 2216 
z
M 1403 2484 
Q 997 2584 770 2862 
Q 544 3141 544 3541 
Q 544 4100 942 4425 
Q 1341 4750 2034 4750 
Q 2731 4750 3128 4425 
Q 3525 4100 3525 3541 
Q 3525 3141 3298 2862 
Q 3072 2584 2669 2484 
Q 3125 2378 3379 2068 
Q 3634 1759 3634 1313 
Q 3634 634 3220 271 
Q 2806 -91 2034 -91 
Q 1263 -91 848 271 
Q 434 634 434 1313 
Q 434 1759 690 2068 
Q 947 2378 1403 2484 
z
M 1172 3481 
Q 1172 3119 1398 2916 
Q 1625 2713 2034 2713 
Q 2441 2713 2670 2916 
Q 2900 3119 2900 3481 
Q 2900 3844 2670 4047 
Q 2441 4250 2034 4250 
Q 1625 4250 1398 4047 
Q 1172 3844 1172 3481 
z
" transform="scale(0.015625)"/>
       </defs>
       <use xlink:href="#DejaVuSans-30"/>
       <use xlink:href="#DejaVuSans-2e" transform="translate(63.623047 0)"/>
       <use xlink:href="#DejaVuSans-30" transform="translate(95.410156 0)"/>
       <use xlink:href="#DejaVuSans-30" transform="translate(159.033203 0)"/>
       <use xlink:href="#DejaVuSans-30" transform="translate(222.65625 0)"/>
       <use xlink:href="#DejaVuSans-30" transform="translate(286.279297 0)"/>
       <use xlink:href="#DejaVuSans-38" transform="translate(349.902344 0)"/>
      </g>
     </g>
    </g>
    <g id="ytick_6">
     <g id="line2d_11">
      <g>
       <use xlink:href="#maccb12a6d1" x="69.23125" y="115.337912" style="stroke: #000000; stroke-width: 0.8"/>
      </g>
     </g>
     <g id="text_12">
      <!-- 0.00010 -->
      <g transform="translate(20.878125 119.13713) scale(0.1 -0.1)">
       <use xlink:href="#DejaVuSans-30"/>
       <use xlink:href="#DejaVuSans-2e" transform="translate(63.623047 0)"/>
       <use xlink:href="#DejaVuSans-30" transform="translate(95.410156 0)"/>
       <use xlink:href="#DejaVuSans-30" transform="translate(159.033203 0)"/>
       <use xlink:href="#DejaVuSans-30" transform="translate(222.65625 0)"/>
       <use xlink:href="#DejaVuSans-31" transform="translate(286.279297 0)"/>
       <use xlink:href="#DejaVuSans-30" transform="translate(349.902344 0)"/>
      </g>
     </g>
    </g>
    <g id="ytick_7">
     <g id="line2d_12">
      <g>
       <use xlink:href="#maccb12a6d1" x="69.23125" y="75.709869" style="stroke: #000000; stroke-width: 0.8"/>
      </g>
     </g>
     <g id="text_13">
      <!-- 0.00012 -->
      <g transform="translate(20.878125 79.509088) scale(0.1 -0.1)">
       <use xlink:href="#DejaVuSans-30"/>
       <use xlink:href="#DejaVuSans-2e" transform="translate(63.623047 0)"/>
       <use xlink:href="#DejaVuSans-30" transform="translate(95.410156 0)"/>
       <use xlink:href="#DejaVuSans-30" transform="translate(159.033203 0)"/>
       <use xlink:href="#DejaVuSans-30" transform="translate(222.65625 0)"/>
       <use xlink:href="#DejaVuSans-31" transform="translate(286.279297 0)"/>
       <use xlink:href="#DejaVuSans-32" transform="translate(349.902344 0)"/>
      </g>
     </g>
    </g>
    <g id="ytick_8">
     <g id="line2d_13">
      <g>
       <use xlink:href="#maccb12a6d1" x="69.23125" y="36.081826" style="stroke: #000000; stroke-width: 0.8"/>
      </g>
     </g>
     <g id="text_14">
      <!-- 0.00014 -->
      <g transform="translate(20.878125 39.881045) scale(0.1 -0.1)">
       <use xlink:href="#DejaVuSans-30"/>
       <use xlink:href="#DejaVuSans-2e" transform="translate(63.623047 0)"/>
       <use xlink:href="#DejaVuSans-30" transform="translate(95.410156 0)"/>
       <use xlink:href="#DejaVuSans-30" transform="translate(159.033203 0)"/>
       <use xlink:href="#DejaVuSans-30" transform="translate(222.65625 0)"/>
       <use xlink:href="#DejaVuSans-31" transform="translate(286.279297 0)"/>
       <use xlink:href="#DejaVuSans-34" transform="translate(349.902344 0)"/>
      </g>
     </g>
    </g>
    <g id="text_15">
     <!-- Probability Density -->
     <g transform="translate(14.798438 214.924688) rotate(-90) scale(0.1 -0.1)">
      <defs>
       <path id="DejaVuSans-6f" d="M 1959 3097 
Q 1497 3097 1228 2736 
Q 959 2375 959 1747 
Q 959 1119 1226 758 
Q 1494 397 1959 397 
Q 2419 397 2687 759 
Q 2956 1122 2956 1747 
Q 2956 2369 2687 2733 
Q 2419 3097 1959 3097 
z
M 1959 3584 
Q 2709 3584 3137 3096 
Q 3566 2609 3566 1747 
Q 3566 888 3137 398 
Q 2709 -91 1959 -91 
Q 1206 -91 779 398 
Q 353 888 353 1747 
Q 353 2609 779 3096 
Q 1206 3584 1959 3584 
z
" transform="scale(0.015625)"/>
       <path id="DejaVuSans-62" d="M 3116 1747 
Q 3116 2381 2855 2742 
Q 2594 3103 2138 3103 
Q 1681 3103 1420 2742 
Q 1159 2381 1159 1747 
Q 1159 1113 1420 752 
Q 1681 391 2138 391 
Q 2594 391 2855 752 
Q 3116 1113 3116 1747 
z
M 1159 2969 
Q 1341 3281 1617 3432 
Q 1894 3584 2278 3584 
Q 2916 3584 3314 3078 
Q 3713 2572 3713 1747 
Q 3713 922 3314 415 
Q 2916 -91 2278 -91 
Q 1894 -91 1617 61 
Q 1341 213 1159 525 
L 1159 0 
L 581 0 
L 581 4863 
L 1159 4863 
L 1159 2969 
z
" transform="scale(0.015625)"/>
       <path id="DejaVuSans-61" d="M 2194 1759 
Q 1497 1759 1228 1600 
Q 959 1441 959 1056 
Q 959 750 1161 570 
Q 1363 391 1709 391 
Q 2188 391 2477 730 
Q 2766 1069 2766 1631 
L 2766 1759 
L 2194 1759 
z
M 3341 1997 
L 3341 0 
L 2766 0 
L 2766 531 
Q 2569 213 2275 61 
Q 1981 -91 1556 -91 
Q 1019 -91 701 211 
Q 384 513 384 1019 
Q 384 1609 779 1909 
Q 1175 2209 1959 2209 
L 2766 2209 
L 2766 2266 
Q 2766 2663 2505 2880 
Q 2244 3097 1772 3097 
Q 1472 3097 1187 3025 
Q 903 2953 641 2809 
L 641 3341 
Q 956 3463 1253 3523 
Q 1550 3584 1831 3584 
Q 2591 3584 2966 3190 
Q 3341 2797 3341 1997 
z
" transform="scale(0.015625)"/>
       <path id="DejaVuSans-6c" d="M 603 4863 
L 1178 4863 
L 1178 0 
L 603 0 
L 603 4863 
z
" transform="scale(0.015625)"/>
       <path id="DejaVuSans-74" d="M 1172 4494 
L 1172 3500 
L 2356 3500 
L 2356 3053 
L 1172 3053 
L 1172 1153 
Q 1172 725 1289 603 
Q 1406 481 1766 481 
L 2356 481 
L 2356 0 
L 1766 0 
Q 1100 0 847 248 
Q 594 497 594 1153 
L 594 3053 
L 172 3053 
L 172 3500 
L 594 3500 
L 594 4494 
L 1172 4494 
z
" transform="scale(0.015625)"/>
       <path id="DejaVuSans-79" d="M 2059 -325 
Q 1816 -950 1584 -1140 
Q 1353 -1331 966 -1331 
L 506 -1331 
L 506 -850 
L 844 -850 
Q 1081 -850 1212 -737 
Q 1344 -625 1503 -206 
L 1606 56 
L 191 3500 
L 800 3500 
L 1894 763 
L 2988 3500 
L 3597 3500 
L 2059 -325 
z
" transform="scale(0.015625)"/>
       <path id="DejaVuSans-20" transform="scale(0.015625)"/>
       <path id="DejaVuSans-44" d="M 1259 4147 
L 1259 519 
L 2022 519 
Q 2988 519 3436 956 
Q 3884 1394 3884 2338 
Q 3884 3275 3436 3711 
Q 2988 4147 2022 4147 
L 1259 4147 
z
M 628 4666 
L 1925 4666 
Q 3281 4666 3915 4102 
Q 4550 3538 4550 2338 
Q 4550 1131 3912 565 
Q 3275 0 1925 0 
L 628 0 
L 628 4666 
z
" transform="scale(0.015625)"/>
       <path id="DejaVuSans-6e" d="M 3513 2113 
L 3513 0 
L 2938 0 
L 2938 2094 
Q 2938 2591 2744 2837 
Q 2550 3084 2163 3084 
Q 1697 3084 1428 2787 
Q 1159 2491 1159 1978 
L 1159 0 
L 581 0 
L 581 3500 
L 1159 3500 
L 1159 2956 
Q 1366 3272 1645 3428 
Q 1925 3584 2291 3584 
Q 2894 3584 3203 3211 
Q 3513 2838 3513 2113 
z
" transform="scale(0.015625)"/>
       <path id="DejaVuSans-73" d="M 2834 3397 
L 2834 2853 
Q 2591 2978 2328 3040 
Q 2066 3103 1784 3103 
Q 1356 3103 1142 2972 
Q 928 2841 928 2578 
Q 928 2378 1081 2264 
Q 1234 2150 1697 2047 
L 1894 2003 
Q 2506 1872 2764 1633 
Q 3022 1394 3022 966 
Q 3022 478 2636 193 
Q 2250 -91 1575 -91 
Q 1294 -91 989 -36 
Q 684 19 347 128 
L 347 722 
Q 666 556 975 473 
Q 1284 391 1588 391 
Q 1994 391 2212 530 
Q 2431 669 2431 922 
Q 2431 1156 2273 1281 
Q 2116 1406 1581 1522 
L 1381 1569 
Q 847 1681 609 1914 
Q 372 2147 372 2553 
Q 372 3047 722 3315 
Q 1072 3584 1716 3584 
Q 2034 3584 2315 3537 
Q 2597 3491 2834 3397 
z
" transform="scale(0.015625)"/>
      </defs>
      <use xlink:href="#DejaVuSans-50"/>
      <use xlink:href="#DejaVuSans-72" transform="translate(58.552734 0)"/>
      <use xlink:href="#DejaVuSans-6f" transform="translate(97.416016 0)"/>
      <use xlink:href="#DejaVuSans-62" transform="translate(158.597656 0)"/>
      <use xlink:href="#DejaVuSans-61" transform="translate(222.074219 0)"/>
      <use xlink:href="#DejaVuSans-62" transform="translate(283.353516 0)"/>
      <use xlink:href="#DejaVuSans-69" transform="translate(346.830078 0)"/>
      <use xlink:href="#DejaVuSans-6c" transform="translate(374.613281 0)"/>
      <use xlink:href="#DejaVuSans-69" transform="translate(402.396484 0)"/>
      <use xlink:href="#DejaVuSans-74" transform="translate(430.179688 0)"/>
      <use xlink:href="#DejaVuSans-79" transform="translate(469.388672 0)"/>
      <use xlink:href="#DejaVuSans-20" transform="translate(528.568359 0)"/>
      <use xlink:href="#DejaVuSans-44" transform="translate(560.355469 0)"/>
      <use xlink:href="#DejaVuSans-65" transform="translate(637.357422 0)"/>
      <use xlink:href="#DejaVuSans-6e" transform="translate(698.880859 0)"/>
      <use xlink:href="#DejaVuSans-73" transform="translate(762.259766 0)"/>
      <use xlink:href="#DejaVuSans-69" transform="translate(814.359375 0)"/>
      <use xlink:href="#DejaVuSans-74" transform="translate(842.142578 0)"/>
      <use xlink:href="#DejaVuSans-79" transform="translate(881.351562 0)"/>
     </g>
    </g>
   </g>
   <g id="patch_3">
    <path d="M 69.23125 313.478125 
L 69.23125 22.318125 
" style="fill: none; stroke: #000000; stroke-width: 0.8; stroke-linejoin: miter; stroke-linecap: square"/>
   </g>
   <g id="patch_4">
    <path d="M 561.51125 313.478125 
L 561.51125 22.318125 
" style="fill: none; stroke: #000000; stroke-width: 0.8; stroke-linejoin: miter; stroke-linecap: square"/>
   </g>
   <g id="patch_5">
    <path d="M 69.23125 313.478125 
L 561.51125 313.478125 
" style="fill: none; stroke: #000000; stroke-width: 0.8; stroke-linejoin: miter; stroke-linecap: square"/>
   </g>
   <g id="patch_6">
    <path d="M 69.23125 22.318125 
L 561.51125 22.318125 
" style="fill: none; stroke: #000000; stroke-width: 0.8; stroke-linejoin: miter; stroke-linecap: square"/>
   </g>
   <g id="text_16">
    <!-- 399001 - close_price Price Distribution -->
    <g transform="translate(199.64625 16.318125) scale(0.12 -0.12)">
     <defs>
      <path id="DejaVuSans-33" d="M 2597 2516 
Q 3050 2419 3304 2112 
Q 3559 1806 3559 1356 
Q 3559 666 3084 287 
Q 2609 -91 1734 -91 
Q 1441 -91 1130 -33 
Q 819 25 488 141 
L 488 750 
Q 750 597 1062 519 
Q 1375 441 1716 441 
Q 2309 441 2620 675 
Q 2931 909 2931 1356 
Q 2931 1769 2642 2001 
Q 2353 2234 1838 2234 
L 1294 2234 
L 1294 2753 
L 1863 2753 
Q 2328 2753 2575 2939 
Q 2822 3125 2822 3475 
Q 2822 3834 2567 4026 
Q 2313 4219 1838 4219 
Q 1578 4219 1281 4162 
Q 984 4106 628 3988 
L 628 4550 
Q 988 4650 1302 4700 
Q 1616 4750 1894 4750 
Q 2613 4750 3031 4423 
Q 3450 4097 3450 3541 
Q 3450 3153 3228 2886 
Q 3006 2619 2597 2516 
z
" transform="scale(0.015625)"/>
      <path id="DejaVuSans-39" d="M 703 97 
L 703 672 
Q 941 559 1184 500 
Q 1428 441 1663 441 
Q 2288 441 2617 861 
Q 2947 1281 2994 2138 
Q 2813 1869 2534 1725 
Q 2256 1581 1919 1581 
Q 1219 1581 811 2004 
Q 403 2428 403 3163 
Q 403 3881 828 4315 
Q 1253 4750 1959 4750 
Q 2769 4750 3195 4129 
Q 3622 3509 3622 2328 
Q 3622 1225 3098 567 
Q 2575 -91 1691 -91 
Q 1453 -91 1209 -44 
Q 966 3 703 97 
z
M 1959 2075 
Q 2384 2075 2632 2365 
Q 2881 2656 2881 3163 
Q 2881 3666 2632 3958 
Q 2384 4250 1959 4250 
Q 1534 4250 1286 3958 
Q 1038 3666 1038 3163 
Q 1038 2656 1286 2365 
Q 1534 2075 1959 2075 
z
" transform="scale(0.015625)"/>
      <path id="DejaVuSans-2d" d="M 313 2009 
L 1997 2009 
L 1997 1497 
L 313 1497 
L 313 2009 
z
" transform="scale(0.015625)"/>
      <path id="DejaVuSans-5f" d="M 3263 -1063 
L 3263 -1509 
L -63 -1509 
L -63 -1063 
L 3263 -1063 
z
" transform="scale(0.015625)"/>
      <path id="DejaVuSans-70" d="M 1159 525 
L 1159 -1331 
L 581 -1331 
L 581 3500 
L 1159 3500 
L 1159 2969 
Q 1341 3281 1617 3432 
Q 1894 3584 2278 3584 
Q 2916 3584 3314 3078 
Q 3713 2572 3713 1747 
Q 3713 922 3314 415 
Q 2916 -91 2278 -91 
Q 1894 -91 1617 61 
Q 1341 213 1159 525 
z
M 3116 1747 
Q 3116 2381 2855 2742 
Q 2594 3103 2138 3103 
Q 1681 3103 1420 2742 
Q 1159 2381 1159 1747 
Q 1159 1113 1420 752 
Q 1681 391 2138 391 
Q 2594 391 2855 752 
Q 3116 1113 3116 1747 
z
" transform="scale(0.015625)"/>
      <path id="DejaVuSans-75" d="M 544 1381 
L 544 3500 
L 1119 3500 
L 1119 1403 
Q 1119 906 1312 657 
Q 1506 409 1894 409 
Q 2359 409 2629 706 
Q 2900 1003 2900 1516 
L 2900 3500 
L 3475 3500 
L 3475 0 
L 2900 0 
L 2900 538 
Q 2691 219 2414 64 
Q 2138 -91 1772 -91 
Q 1169 -91 856 284 
Q 544 659 544 1381 
z
M 1991 3584 
L 1991 3584 
z
" transform="scale(0.015625)"/>
     </defs>
     <use xlink:href="#DejaVuSans-33"/>
     <use xlink:href="#DejaVuSans-39" transform="translate(63.623047 0)"/>
     <use xlink:href="#DejaVuSans-39" transform="translate(127.246094 0)"/>
     <use xlink:href="#DejaVuSans-30" transform="translate(190.869141 0)"/>
     <use xlink:href="#DejaVuSans-30" transform="translate(254.492188 0)"/>
     <use xlink:href="#DejaVuSans-31" transform="translate(318.115234 0)"/>
     <use xlink:href="#DejaVuSans-20" transform="translate(381.738281 0)"/>
     <use xlink:href="#DejaVuSans-2d" transform="translate(413.525391 0)"/>
     <use xlink:href="#DejaVuSans-20" transform="translate(449.609375 0)"/>
     <use xlink:href="#DejaVuSans-63" transform="translate(481.396484 0)"/>
     <use xlink:href="#DejaVuSans-6c" transform="translate(536.376953 0)"/>
     <use xlink:href="#DejaVuSans-6f" transform="translate(564.160156 0)"/>
     <use xlink:href="#DejaVuSans-73" transform="translate(625.341797 0)"/>
     <use xlink:href="#DejaVuSans-65" transform="translate(677.441406 0)"/>
     <use xlink:href="#DejaVuSans-5f" transform="translate(738.964844 0)"/>
     <use xlink:href="#DejaVuSans-70" transform="translate(788.964844 0)"/>
     <use xlink:href="#DejaVuSans-72" transform="translate(852.441406 0)"/>
     <use xlink:href="#DejaVuSans-69" transform="translate(893.554688 0)"/>
     <use xlink:href="#DejaVuSans-63" transform="translate(921.337891 0)"/>
     <use xlink:href="#DejaVuSans-65" transform="translate(976.318359 0)"/>
     <use xlink:href="#DejaVuSans-20" transform="translate(1037.841797 0)"/>
     <use xlink:href="#DejaVuSans-50" transform="translate(1069.628906 0)"/>
     <use xlink:href="#DejaVuSans-72" transform="translate(1128.181641 0)"/>
     <use xlink:href="#DejaVuSans-69" transform="translate(1169.294922 0)"/>
     <use xlink:href="#DejaVuSans-63" transform="translate(1197.078125 0)"/>
     <use xlink:href="#DejaVuSans-65" transform="translate(1252.058594 0)"/>
     <use xlink:href="#DejaVuSans-20" transform="translate(1313.582031 0)"/>
     <use xlink:href="#DejaVuSans-44" transform="translate(1345.369141 0)"/>
     <use xlink:href="#DejaVuSans-69" transform="translate(1422.371094 0)"/>
     <use xlink:href="#DejaVuSans-73" transform="translate(1450.154297 0)"/>
     <use xlink:href="#DejaVuSans-74" transform="translate(1502.253906 0)"/>
     <use xlink:href="#DejaVuSans-72" transform="translate(1541.462891 0)"/>
     <use xlink:href="#DejaVuSans-69" transform="translate(1582.576172 0)"/>
     <use xlink:href="#DejaVuSans-62" transform="translate(1610.359375 0)"/>
     <use xlink:href="#DejaVuSans-75" transform="translate(1673.835938 0)"/>
     <use xlink:href="#DejaVuSans-74" transform="translate(1737.214844 0)"/>
     <use xlink:href="#DejaVuSans-69" transform="translate(1776.423828 0)"/>
     <use xlink:href="#DejaVuSans-6f" transform="translate(1804.207031 0)"/>
     <use xlink:href="#DejaVuSans-6e" transform="translate(1865.388672 0)"/>
    </g>
   </g>
  </g>
 </g>
 <defs>
  <clipPath id="p51666e14f6">
   <rect x="69.23125" y="22.318125" width="492.28" height="291.16"/>
  </clipPath>
 </defs>
</svg>
