<?xml version="1.0" encoding="utf-8" standalone="no"?>
<!DOCTYPE svg PUBLIC "-//W3C//DTD SVG 1.1//EN"
  "http://www.w3.org/Graphics/SVG/1.1/DTD/svg11.dtd">
<svg xmlns:xlink="http://www.w3.org/1999/xlink" width="568.77375pt" height="351.034375pt" viewBox="0 0 568.77375 351.034375" xmlns="http://www.w3.org/2000/svg" version="1.1">
 <metadata>
  <rdf:RDF xmlns:dc="http://purl.org/dc/elements/1.1/" xmlns:cc="http://creativecommons.org/ns#" xmlns:rdf="http://www.w3.org/1999/02/22-rdf-syntax-ns#">
   <cc:Work>
    <dc:type rdf:resource="http://purl.org/dc/dcmitype/StillImage"/>
    <dc:date>2025-05-10T16:58:49.931657</dc:date>
    <dc:format>image/svg+xml</dc:format>
    <dc:creator>
     <cc:Agent>
      <dc:title>Matplotlib v3.10.1, https://matplotlib.org/</dc:title>
     </cc:Agent>
    </dc:creator>
   </cc:Work>
  </rdf:RDF>
 </metadata>
 <defs>
  <style type="text/css">*{stroke-linejoin: round; stroke-linecap: butt}</style>
 </defs>
 <g id="figure_1">
  <g id="patch_1">
   <path d="M 0 351.034375 
L 568.77375 351.034375 
L 568.77375 0 
L 0 0 
z
" style="fill: #ffffff"/>
  </g>
  <g id="axes_1">
   <g id="patch_2">
    <path d="M 75.59375 313.478125 
L 561.57375 313.478125 
L 561.57375 22.318125 
L 75.59375 22.318125 
z
" style="fill: #ffffff"/>
   </g>
   <g id="FillBetweenPolyCollection_1">
    <defs>
     <path id="m2e9ac9bffd" d="M 97.68375 -37.721176 
L 97.68375 -37.55625 
L 99.903851 -37.55625 
L 102.123951 -37.55625 
L 104.344052 -37.55625 
L 106.564152 -37.55625 
L 108.784253 -37.55625 
L 111.004353 -37.55625 
L 113.224454 -37.55625 
L 115.444554 -37.55625 
L 117.664655 -37.55625 
L 119.884755 -37.55625 
L 122.104856 -37.55625 
L 124.324956 -37.55625 
L 126.545057 -37.55625 
L 128.765157 -37.55625 
L 130.985258 -37.55625 
L 133.205358 -37.55625 
L 135.425459 -37.55625 
L 137.645559 -37.55625 
L 139.86566 -37.55625 
L 142.08576 -37.55625 
L 144.305861 -37.55625 
L 146.525961 -37.55625 
L 148.746062 -37.55625 
L 150.966162 -37.55625 
L 153.186263 -37.55625 
L 155.406363 -37.55625 
L 157.626464 -37.55625 
L 159.846564 -37.55625 
L 162.066665 -37.55625 
L 164.286765 -37.55625 
L 166.506866 -37.55625 
L 168.726966 -37.55625 
L 170.947067 -37.55625 
L 173.167167 -37.55625 
L 175.387268 -37.55625 
L 177.607368 -37.55625 
L 179.827469 -37.55625 
L 182.047569 -37.55625 
L 184.26767 -37.55625 
L 186.48777 -37.55625 
L 188.707871 -37.55625 
L 190.927971 -37.55625 
L 193.148072 -37.55625 
L 195.368172 -37.55625 
L 197.588273 -37.55625 
L 199.808373 -37.55625 
L 202.028474 -37.55625 
L 204.248574 -37.55625 
L 206.468675 -37.55625 
L 208.688775 -37.55625 
L 210.908876 -37.55625 
L 213.128976 -37.55625 
L 215.349077 -37.55625 
L 217.569177 -37.55625 
L 219.789278 -37.55625 
L 222.009378 -37.55625 
L 224.229479 -37.55625 
L 226.449579 -37.55625 
L 228.66968 -37.55625 
L 230.88978 -37.55625 
L 233.109881 -37.55625 
L 235.329981 -37.55625 
L 237.550082 -37.55625 
L 239.770182 -37.55625 
L 241.990283 -37.55625 
L 244.210383 -37.55625 
L 246.430484 -37.55625 
L 248.650584 -37.55625 
L 250.870685 -37.55625 
L 253.090785 -37.55625 
L 255.310886 -37.55625 
L 257.530986 -37.55625 
L 259.751087 -37.55625 
L 261.971187 -37.55625 
L 264.191288 -37.55625 
L 266.411388 -37.55625 
L 268.631489 -37.55625 
L 270.851589 -37.55625 
L 273.07169 -37.55625 
L 275.29179 -37.55625 
L 277.511891 -37.55625 
L 279.731991 -37.55625 
L 281.952092 -37.55625 
L 284.172192 -37.55625 
L 286.392293 -37.55625 
L 288.612393 -37.55625 
L 290.832494 -37.55625 
L 293.052594 -37.55625 
L 295.272695 -37.55625 
L 297.492795 -37.55625 
L 299.712896 -37.55625 
L 301.932996 -37.55625 
L 304.153097 -37.55625 
L 306.373197 -37.55625 
L 308.593298 -37.55625 
L 310.813398 -37.55625 
L 313.033499 -37.55625 
L 315.253599 -37.55625 
L 317.4737 -37.55625 
L 319.6938 -37.55625 
L 321.913901 -37.55625 
L 324.134001 -37.55625 
L 326.354102 -37.55625 
L 328.574202 -37.55625 
L 330.794303 -37.55625 
L 333.014403 -37.55625 
L 335.234504 -37.55625 
L 337.454604 -37.55625 
L 339.674705 -37.55625 
L 341.894805 -37.55625 
L 344.114906 -37.55625 
L 346.335006 -37.55625 
L 348.555107 -37.55625 
L 350.775207 -37.55625 
L 352.995308 -37.55625 
L 355.215408 -37.55625 
L 357.435509 -37.55625 
L 359.655609 -37.55625 
L 361.87571 -37.55625 
L 364.09581 -37.55625 
L 366.315911 -37.55625 
L 368.536011 -37.55625 
L 370.756112 -37.55625 
L 372.976212 -37.55625 
L 375.196313 -37.55625 
L 377.416413 -37.55625 
L 379.636514 -37.55625 
L 381.856614 -37.55625 
L 384.076715 -37.55625 
L 386.296815 -37.55625 
L 388.516916 -37.55625 
L 390.737016 -37.55625 
L 392.957117 -37.55625 
L 395.177217 -37.55625 
L 397.397318 -37.55625 
L 399.617418 -37.55625 
L 401.837519 -37.55625 
L 404.057619 -37.55625 
L 406.27772 -37.55625 
L 408.49782 -37.55625 
L 410.717921 -37.55625 
L 412.938021 -37.55625 
L 415.158122 -37.55625 
L 417.378222 -37.55625 
L 419.598323 -37.55625 
L 421.818423 -37.55625 
L 424.038524 -37.55625 
L 426.258624 -37.55625 
L 428.478725 -37.55625 
L 430.698825 -37.55625 
L 432.918926 -37.55625 
L 435.139026 -37.55625 
L 437.359127 -37.55625 
L 439.579227 -37.55625 
L 441.799328 -37.55625 
L 444.019428 -37.55625 
L 446.239529 -37.55625 
L 448.459629 -37.55625 
L 450.67973 -37.55625 
L 452.89983 -37.55625 
L 455.119931 -37.55625 
L 457.340031 -37.55625 
L 459.560132 -37.55625 
L 461.780232 -37.55625 
L 464.000333 -37.55625 
L 466.220433 -37.55625 
L 468.440534 -37.55625 
L 470.660634 -37.55625 
L 472.880735 -37.55625 
L 475.100835 -37.55625 
L 477.320936 -37.55625 
L 479.541036 -37.55625 
L 481.761137 -37.55625 
L 483.981237 -37.55625 
L 486.201338 -37.55625 
L 488.421438 -37.55625 
L 490.641539 -37.55625 
L 492.861639 -37.55625 
L 495.08174 -37.55625 
L 497.30184 -37.55625 
L 499.521941 -37.55625 
L 501.742041 -37.55625 
L 503.962142 -37.55625 
L 506.182242 -37.55625 
L 508.402343 -37.55625 
L 510.622443 -37.55625 
L 512.842544 -37.55625 
L 515.062644 -37.55625 
L 517.282745 -37.55625 
L 519.502845 -37.55625 
L 521.722946 -37.55625 
L 523.943046 -37.55625 
L 526.163147 -37.55625 
L 528.383247 -37.55625 
L 530.603348 -37.55625 
L 532.823448 -37.55625 
L 535.043549 -37.55625 
L 537.263649 -37.55625 
L 539.48375 -37.55625 
L 539.48375 -37.564276 
L 539.48375 -37.564276 
L 537.263649 -37.570654 
L 535.043549 -37.581361 
L 532.823448 -37.598778 
L 530.603348 -37.626239 
L 528.383247 -37.668198 
L 526.163147 -37.730323 
L 523.943046 -37.819462 
L 521.722946 -37.943404 
L 519.502845 -38.110421 
L 517.282745 -38.328564 
L 515.062644 -38.604797 
L 512.842544 -38.944062 
L 510.622443 -39.348446 
L 508.402343 -39.816658 
L 506.182242 -40.343948 
L 503.962142 -40.922584 
L 501.742041 -41.542824 
L 499.521941 -42.194221 
L 497.30184 -42.866979 
L 495.08174 -43.553022 
L 492.861639 -44.246486 
L 490.641539 -44.943504 
L 488.421438 -45.641309 
L 486.201338 -46.336918 
L 483.981237 -47.025797 
L 481.761137 -47.700932 
L 479.541036 -48.352649 
L 477.320936 -48.969335 
L 475.100835 -49.538931 
L 472.880735 -50.050867 
L 470.660634 -50.497961 
L 468.440534 -50.877795 
L 466.220433 -51.193226 
L 464.000333 -51.451924 
L 461.780232 -51.665061 
L 459.560132 -51.84552 
L 457.340031 -52.006069 
L 455.119931 -52.15794 
L 452.89983 -52.31011 
L 450.67973 -52.469404 
L 448.459629 -52.641317 
L 446.239529 -52.831329 
L 444.019428 -53.046441 
L 441.799328 -53.296668 
L 439.579227 -53.596352 
L 437.359127 -53.965231 
L 435.139026 -54.429234 
L 432.918926 -55.020953 
L 430.698825 -55.779609 
L 428.478725 -56.750222 
L 426.258624 -57.98159 
L 424.038524 -59.522799 
L 421.818423 -61.418172 
L 419.598323 -63.701034 
L 417.378222 -66.387095 
L 415.158122 -69.468713 
L 412.938021 -72.911429 
L 410.717921 -76.654025 
L 408.49782 -80.612799 
L 406.27772 -84.689885 
L 404.057619 -88.784488 
L 401.837519 -92.805104 
L 399.617418 -96.680354 
L 397.397318 -100.36625 
L 395.177217 -103.848404 
L 392.957117 -107.138886 
L 390.737016 -110.268727 
L 388.516916 -113.278117 
L 386.296815 -116.206905 
L 384.076715 -119.087769 
L 381.856614 -121.943576 
L 379.636514 -124.789099 
L 377.416413 -127.63592 
L 375.196313 -130.498335 
L 372.976212 -133.397831 
L 370.756112 -136.364192 
L 368.536011 -139.432485 
L 366.315911 -142.636621 
L 364.09581 -146.001477 
L 361.87571 -149.536268 
L 359.655609 -153.231733 
L 357.435509 -157.062816 
L 355.215408 -160.997014 
L 352.995308 -165.007018 
L 350.775207 -169.084929 
L 348.555107 -173.254722 
L 346.335006 -177.57975 
L 344.114906 -182.163001 
L 341.894805 -187.139236 
L 339.674705 -192.659679 
L 337.454604 -198.871328 
L 335.234504 -205.8939 
L 333.014403 -213.797735 
L 330.794303 -222.58579 
L 328.574202 -232.182158 
L 326.354102 -242.428614 
L 324.134001 -253.089622 
L 321.913901 -263.865318 
L 319.6938 -274.411085 
L 317.4737 -284.361777 
L 315.253599 -293.35818 
L 313.033499 -301.073174 
L 310.813398 -307.235043 
L 308.593298 -311.645754 
L 306.373197 -314.192483 
L 304.153097 -314.851488 
L 301.932996 -313.684265 
L 299.712896 -310.82689 
L 297.492795 -306.474257 
L 295.272695 -300.861511 
L 293.052594 -294.24519 
L 290.832494 -286.886324 
L 288.612393 -279.037106 
L 286.392293 -270.93177 
L 284.172192 -262.781264 
L 281.952092 -254.770457 
L 279.731991 -247.056188 
L 277.511891 -239.764621 
L 275.29179 -232.987079 
L 273.07169 -226.774608 
L 270.851589 -221.132607 
L 268.631489 -216.017575 
L 266.411388 -211.338076 
L 264.191288 -206.961325 
L 261.971187 -202.725483 
L 259.751087 -198.456245 
L 257.530986 -193.985115 
L 255.310886 -189.166184 
L 253.090785 -183.888697 
L 250.870685 -178.083768 
L 248.650584 -171.725234 
L 246.430484 -164.825992 
L 244.210383 -157.431996 
L 241.990283 -149.616029 
L 239.770182 -141.472618 
L 237.550082 -133.114275 
L 235.329981 -124.668278 
L 233.109881 -116.272661 
L 230.88978 -108.07033 
L 228.66968 -100.200991 
L 226.449579 -92.791586 
L 224.229479 -85.946774 
L 222.009378 -79.741309 
L 219.789278 -74.215915 
L 217.569177 -69.377508 
L 215.349077 -65.203673 
L 213.128976 -61.650452 
L 210.908876 -58.66198 
L 208.688775 -56.180337 
L 206.468675 -54.154204 
L 204.248574 -52.545298 
L 202.028474 -51.332004 
L 199.808373 -50.510001 
L 197.588273 -50.090023 
L 195.368172 -50.093062 
L 193.148072 -50.543611 
L 190.927971 -51.461709 
L 188.707871 -52.854897 
L 186.48777 -54.711341 
L 184.26767 -56.995581 
L 182.047569 -59.648098 
L 179.827469 -62.589477 
L 177.607368 -65.728999 
L 175.387268 -68.976443 
L 173.167167 -72.254801 
L 170.947067 -75.510862 
L 168.726966 -78.720613 
L 166.506866 -81.887138 
L 164.286765 -85.030301 
L 162.066665 -88.169529 
L 159.846564 -91.303046 
L 157.626464 -94.388337 
L 155.406363 -97.328992 
L 153.186263 -99.972146 
L 150.966162 -102.118717 
L 148.746062 -103.545795 
L 146.525961 -104.037796 
L 144.305861 -103.420775 
L 142.08576 -101.593345 
L 139.86566 -98.548126 
L 137.645559 -94.379487 
L 135.425459 -89.276047 
L 133.205358 -83.499459 
L 130.985258 -77.353489 
L 128.765157 -71.149076 
L 126.545057 -65.171275 
L 124.324956 -59.653134 
L 122.104856 -54.759664 
L 119.884755 -50.582856 
L 117.664655 -47.146611 
L 115.444554 -44.418953 
L 113.224454 -42.328184 
L 111.004353 -40.779738 
L 108.784253 -39.671165 
L 106.564152 -38.903679 
L 104.344052 -38.389708 
L 102.123951 -38.05669 
L 99.903851 -37.847886 
L 97.68375 -37.721176 
z
" style="stroke: #0000ff"/>
    </defs>
    <g clip-path="url(#pf3732c6df1)">
     <use xlink:href="#m2e9ac9bffd" x="0" y="351.034375" style="fill: #0000ff; fill-opacity: 0.25; stroke: #0000ff"/>
    </g>
   </g>
   <g id="matplotlib.axis_1">
    <g id="xtick_1">
     <g id="line2d_1">
      <defs>
       <path id="m0b4d130dff" d="M 0 0 
L 0 3.5 
" style="stroke: #000000; stroke-width: 0.8"/>
      </defs>
      <g>
       <use xlink:href="#m0b4d130dff" x="77.922016" y="313.478125" style="stroke: #000000; stroke-width: 0.8"/>
      </g>
     </g>
     <g id="text_1">
      <!-- 0 -->
      <g transform="translate(74.740766 328.076563) scale(0.1 -0.1)">
       <defs>
        <path id="DejaVuSans-30" d="M 2034 4250 
Q 1547 4250 1301 3770 
Q 1056 3291 1056 2328 
Q 1056 1369 1301 889 
Q 1547 409 2034 409 
Q 2525 409 2770 889 
Q 3016 1369 3016 2328 
Q 3016 3291 2770 3770 
Q 2525 4250 2034 4250 
z
M 2034 4750 
Q 2819 4750 3233 4129 
Q 3647 3509 3647 2328 
Q 3647 1150 3233 529 
Q 2819 -91 2034 -91 
Q 1250 -91 836 529 
Q 422 1150 422 2328 
Q 422 3509 836 4129 
Q 1250 4750 2034 4750 
z
" transform="scale(0.015625)"/>
       </defs>
       <use xlink:href="#DejaVuSans-30"/>
      </g>
     </g>
    </g>
    <g id="xtick_2">
     <g id="line2d_2">
      <g>
       <use xlink:href="#m0b4d130dff" x="132.239665" y="313.478125" style="stroke: #000000; stroke-width: 0.8"/>
      </g>
     </g>
     <g id="text_2">
      <!-- 2500 -->
      <g transform="translate(119.514665 328.076563) scale(0.1 -0.1)">
       <defs>
        <path id="DejaVuSans-32" d="M 1228 531 
L 3431 531 
L 3431 0 
L 469 0 
L 469 531 
Q 828 903 1448 1529 
Q 2069 2156 2228 2338 
Q 2531 2678 2651 2914 
Q 2772 3150 2772 3378 
Q 2772 3750 2511 3984 
Q 2250 4219 1831 4219 
Q 1534 4219 1204 4116 
Q 875 4013 500 3803 
L 500 4441 
Q 881 4594 1212 4672 
Q 1544 4750 1819 4750 
Q 2544 4750 2975 4387 
Q 3406 4025 3406 3419 
Q 3406 3131 3298 2873 
Q 3191 2616 2906 2266 
Q 2828 2175 2409 1742 
Q 1991 1309 1228 531 
z
" transform="scale(0.015625)"/>
        <path id="DejaVuSans-35" d="M 691 4666 
L 3169 4666 
L 3169 4134 
L 1269 4134 
L 1269 2991 
Q 1406 3038 1543 3061 
Q 1681 3084 1819 3084 
Q 2600 3084 3056 2656 
Q 3513 2228 3513 1497 
Q 3513 744 3044 326 
Q 2575 -91 1722 -91 
Q 1428 -91 1123 -41 
Q 819 9 494 109 
L 494 744 
Q 775 591 1075 516 
Q 1375 441 1709 441 
Q 2250 441 2565 725 
Q 2881 1009 2881 1497 
Q 2881 1984 2565 2268 
Q 2250 2553 1709 2553 
Q 1456 2553 1204 2497 
Q 953 2441 691 2322 
L 691 4666 
z
" transform="scale(0.015625)"/>
       </defs>
       <use xlink:href="#DejaVuSans-32"/>
       <use xlink:href="#DejaVuSans-35" transform="translate(63.623047 0)"/>
       <use xlink:href="#DejaVuSans-30" transform="translate(127.246094 0)"/>
       <use xlink:href="#DejaVuSans-30" transform="translate(190.869141 0)"/>
      </g>
     </g>
    </g>
    <g id="xtick_3">
     <g id="line2d_3">
      <g>
       <use xlink:href="#m0b4d130dff" x="186.557315" y="313.478125" style="stroke: #000000; stroke-width: 0.8"/>
      </g>
     </g>
     <g id="text_3">
      <!-- 5000 -->
      <g transform="translate(173.832315 328.076563) scale(0.1 -0.1)">
       <use xlink:href="#DejaVuSans-35"/>
       <use xlink:href="#DejaVuSans-30" transform="translate(63.623047 0)"/>
       <use xlink:href="#DejaVuSans-30" transform="translate(127.246094 0)"/>
       <use xlink:href="#DejaVuSans-30" transform="translate(190.869141 0)"/>
      </g>
     </g>
    </g>
    <g id="xtick_4">
     <g id="line2d_4">
      <g>
       <use xlink:href="#m0b4d130dff" x="240.874965" y="313.478125" style="stroke: #000000; stroke-width: 0.8"/>
      </g>
     </g>
     <g id="text_4">
      <!-- 7500 -->
      <g transform="translate(228.149965 328.076563) scale(0.1 -0.1)">
       <defs>
        <path id="DejaVuSans-37" d="M 525 4666 
L 3525 4666 
L 3525 4397 
L 1831 0 
L 1172 0 
L 2766 4134 
L 525 4134 
L 525 4666 
z
" transform="scale(0.015625)"/>
       </defs>
       <use xlink:href="#DejaVuSans-37"/>
       <use xlink:href="#DejaVuSans-35" transform="translate(63.623047 0)"/>
       <use xlink:href="#DejaVuSans-30" transform="translate(127.246094 0)"/>
       <use xlink:href="#DejaVuSans-30" transform="translate(190.869141 0)"/>
      </g>
     </g>
    </g>
    <g id="xtick_5">
     <g id="line2d_5">
      <g>
       <use xlink:href="#m0b4d130dff" x="295.192615" y="313.478125" style="stroke: #000000; stroke-width: 0.8"/>
      </g>
     </g>
     <g id="text_5">
      <!-- 10000 -->
      <g transform="translate(279.286365 328.076563) scale(0.1 -0.1)">
       <defs>
        <path id="DejaVuSans-31" d="M 794 531 
L 1825 531 
L 1825 4091 
L 703 3866 
L 703 4441 
L 1819 4666 
L 2450 4666 
L 2450 531 
L 3481 531 
L 3481 0 
L 794 0 
L 794 531 
z
" transform="scale(0.015625)"/>
       </defs>
       <use xlink:href="#DejaVuSans-31"/>
       <use xlink:href="#DejaVuSans-30" transform="translate(63.623047 0)"/>
       <use xlink:href="#DejaVuSans-30" transform="translate(127.246094 0)"/>
       <use xlink:href="#DejaVuSans-30" transform="translate(190.869141 0)"/>
       <use xlink:href="#DejaVuSans-30" transform="translate(254.492188 0)"/>
      </g>
     </g>
    </g>
    <g id="xtick_6">
     <g id="line2d_6">
      <g>
       <use xlink:href="#m0b4d130dff" x="349.510264" y="313.478125" style="stroke: #000000; stroke-width: 0.8"/>
      </g>
     </g>
     <g id="text_6">
      <!-- 12500 -->
      <g transform="translate(333.604014 328.076563) scale(0.1 -0.1)">
       <use xlink:href="#DejaVuSans-31"/>
       <use xlink:href="#DejaVuSans-32" transform="translate(63.623047 0)"/>
       <use xlink:href="#DejaVuSans-35" transform="translate(127.246094 0)"/>
       <use xlink:href="#DejaVuSans-30" transform="translate(190.869141 0)"/>
       <use xlink:href="#DejaVuSans-30" transform="translate(254.492188 0)"/>
      </g>
     </g>
    </g>
    <g id="xtick_7">
     <g id="line2d_7">
      <g>
       <use xlink:href="#m0b4d130dff" x="403.827914" y="313.478125" style="stroke: #000000; stroke-width: 0.8"/>
      </g>
     </g>
     <g id="text_7">
      <!-- 15000 -->
      <g transform="translate(387.921664 328.076563) scale(0.1 -0.1)">
       <use xlink:href="#DejaVuSans-31"/>
       <use xlink:href="#DejaVuSans-35" transform="translate(63.623047 0)"/>
       <use xlink:href="#DejaVuSans-30" transform="translate(127.246094 0)"/>
       <use xlink:href="#DejaVuSans-30" transform="translate(190.869141 0)"/>
       <use xlink:href="#DejaVuSans-30" transform="translate(254.492188 0)"/>
      </g>
     </g>
    </g>
    <g id="xtick_8">
     <g id="line2d_8">
      <g>
       <use xlink:href="#m0b4d130dff" x="458.145564" y="313.478125" style="stroke: #000000; stroke-width: 0.8"/>
      </g>
     </g>
     <g id="text_8">
      <!-- 17500 -->
      <g transform="translate(442.239314 328.076563) scale(0.1 -0.1)">
       <use xlink:href="#DejaVuSans-31"/>
       <use xlink:href="#DejaVuSans-37" transform="translate(63.623047 0)"/>
       <use xlink:href="#DejaVuSans-35" transform="translate(127.246094 0)"/>
       <use xlink:href="#DejaVuSans-30" transform="translate(190.869141 0)"/>
       <use xlink:href="#DejaVuSans-30" transform="translate(254.492188 0)"/>
      </g>
     </g>
    </g>
    <g id="xtick_9">
     <g id="line2d_9">
      <g>
       <use xlink:href="#m0b4d130dff" x="512.463214" y="313.478125" style="stroke: #000000; stroke-width: 0.8"/>
      </g>
     </g>
     <g id="text_9">
      <!-- 20000 -->
      <g transform="translate(496.556964 328.076563) scale(0.1 -0.1)">
       <use xlink:href="#DejaVuSans-32"/>
       <use xlink:href="#DejaVuSans-30" transform="translate(63.623047 0)"/>
       <use xlink:href="#DejaVuSans-30" transform="translate(127.246094 0)"/>
       <use xlink:href="#DejaVuSans-30" transform="translate(190.869141 0)"/>
       <use xlink:href="#DejaVuSans-30" transform="translate(254.492188 0)"/>
      </g>
     </g>
    </g>
    <g id="text_10">
     <!-- Price -->
     <g transform="translate(306.386094 341.754687) scale(0.1 -0.1)">
      <defs>
       <path id="DejaVuSans-50" d="M 1259 4147 
L 1259 2394 
L 2053 2394 
Q 2494 2394 2734 2622 
Q 2975 2850 2975 3272 
Q 2975 3691 2734 3919 
Q 2494 4147 2053 4147 
L 1259 4147 
z
M 628 4666 
L 2053 4666 
Q 2838 4666 3239 4311 
Q 3641 3956 3641 3272 
Q 3641 2581 3239 2228 
Q 2838 1875 2053 1875 
L 1259 1875 
L 1259 0 
L 628 0 
L 628 4666 
z
" transform="scale(0.015625)"/>
       <path id="DejaVuSans-72" d="M 2631 2963 
Q 2534 3019 2420 3045 
Q 2306 3072 2169 3072 
Q 1681 3072 1420 2755 
Q 1159 2438 1159 1844 
L 1159 0 
L 581 0 
L 581 3500 
L 1159 3500 
L 1159 2956 
Q 1341 3275 1631 3429 
Q 1922 3584 2338 3584 
Q 2397 3584 2469 3576 
Q 2541 3569 2628 3553 
L 2631 2963 
z
" transform="scale(0.015625)"/>
       <path id="DejaVuSans-69" d="M 603 3500 
L 1178 3500 
L 1178 0 
L 603 0 
L 603 3500 
z
M 603 4863 
L 1178 4863 
L 1178 4134 
L 603 4134 
L 603 4863 
z
" transform="scale(0.015625)"/>
       <path id="DejaVuSans-63" d="M 3122 3366 
L 3122 2828 
Q 2878 2963 2633 3030 
Q 2388 3097 2138 3097 
Q 1578 3097 1268 2742 
Q 959 2388 959 1747 
Q 959 1106 1268 751 
Q 1578 397 2138 397 
Q 2388 397 2633 464 
Q 2878 531 3122 666 
L 3122 134 
Q 2881 22 2623 -34 
Q 2366 -91 2075 -91 
Q 1284 -91 818 406 
Q 353 903 353 1747 
Q 353 2603 823 3093 
Q 1294 3584 2113 3584 
Q 2378 3584 2631 3529 
Q 2884 3475 3122 3366 
z
" transform="scale(0.015625)"/>
       <path id="DejaVuSans-65" d="M 3597 1894 
L 3597 1613 
L 953 1613 
Q 991 1019 1311 708 
Q 1631 397 2203 397 
Q 2534 397 2845 478 
Q 3156 559 3463 722 
L 3463 178 
Q 3153 47 2828 -22 
Q 2503 -91 2169 -91 
Q 1331 -91 842 396 
Q 353 884 353 1716 
Q 353 2575 817 3079 
Q 1281 3584 2069 3584 
Q 2775 3584 3186 3129 
Q 3597 2675 3597 1894 
z
M 3022 2063 
Q 3016 2534 2758 2815 
Q 2500 3097 2075 3097 
Q 1594 3097 1305 2825 
Q 1016 2553 972 2059 
L 3022 2063 
z
" transform="scale(0.015625)"/>
      </defs>
      <use xlink:href="#DejaVuSans-50"/>
      <use xlink:href="#DejaVuSans-72" transform="translate(58.552734 0)"/>
      <use xlink:href="#DejaVuSans-69" transform="translate(99.666016 0)"/>
      <use xlink:href="#DejaVuSans-63" transform="translate(127.449219 0)"/>
      <use xlink:href="#DejaVuSans-65" transform="translate(182.429688 0)"/>
     </g>
    </g>
   </g>
   <g id="matplotlib.axis_2">
    <g id="ytick_1">
     <g id="line2d_10">
      <defs>
       <path id="mbec678afca" d="M 0 0 
L -3.5 0 
" style="stroke: #000000; stroke-width: 0.8"/>
      </defs>
      <g>
       <use xlink:href="#mbec678afca" x="75.59375" y="313.478125" style="stroke: #000000; stroke-width: 0.8"/>
      </g>
     </g>
     <g id="text_11">
      <!-- 0.000000 -->
      <g transform="translate(20.878125 317.277344) scale(0.1 -0.1)">
       <defs>
        <path id="DejaVuSans-2e" d="M 684 794 
L 1344 794 
L 1344 0 
L 684 0 
L 684 794 
z
" transform="scale(0.015625)"/>
       </defs>
       <use xlink:href="#DejaVuSans-30"/>
       <use xlink:href="#DejaVuSans-2e" transform="translate(63.623047 0)"/>
       <use xlink:href="#DejaVuSans-30" transform="translate(95.410156 0)"/>
       <use xlink:href="#DejaVuSans-30" transform="translate(159.033203 0)"/>
       <use xlink:href="#DejaVuSans-30" transform="translate(222.65625 0)"/>
       <use xlink:href="#DejaVuSans-30" transform="translate(286.279297 0)"/>
       <use xlink:href="#DejaVuSans-30" transform="translate(349.902344 0)"/>
       <use xlink:href="#DejaVuSans-30" transform="translate(413.525391 0)"/>
      </g>
     </g>
    </g>
    <g id="ytick_2">
     <g id="line2d_11">
      <g>
       <use xlink:href="#mbec678afca" x="75.59375" y="274.928945" style="stroke: #000000; stroke-width: 0.8"/>
      </g>
     </g>
     <g id="text_12">
      <!-- 0.000025 -->
      <g transform="translate(20.878125 278.728164) scale(0.1 -0.1)">
       <use xlink:href="#DejaVuSans-30"/>
       <use xlink:href="#DejaVuSans-2e" transform="translate(63.623047 0)"/>
       <use xlink:href="#DejaVuSans-30" transform="translate(95.410156 0)"/>
       <use xlink:href="#DejaVuSans-30" transform="translate(159.033203 0)"/>
       <use xlink:href="#DejaVuSans-30" transform="translate(222.65625 0)"/>
       <use xlink:href="#DejaVuSans-30" transform="translate(286.279297 0)"/>
       <use xlink:href="#DejaVuSans-32" transform="translate(349.902344 0)"/>
       <use xlink:href="#DejaVuSans-35" transform="translate(413.525391 0)"/>
      </g>
     </g>
    </g>
    <g id="ytick_3">
     <g id="line2d_12">
      <g>
       <use xlink:href="#mbec678afca" x="75.59375" y="236.379766" style="stroke: #000000; stroke-width: 0.8"/>
      </g>
     </g>
     <g id="text_13">
      <!-- 0.000050 -->
      <g transform="translate(20.878125 240.178985) scale(0.1 -0.1)">
       <use xlink:href="#DejaVuSans-30"/>
       <use xlink:href="#DejaVuSans-2e" transform="translate(63.623047 0)"/>
       <use xlink:href="#DejaVuSans-30" transform="translate(95.410156 0)"/>
       <use xlink:href="#DejaVuSans-30" transform="translate(159.033203 0)"/>
       <use xlink:href="#DejaVuSans-30" transform="translate(222.65625 0)"/>
       <use xlink:href="#DejaVuSans-30" transform="translate(286.279297 0)"/>
       <use xlink:href="#DejaVuSans-35" transform="translate(349.902344 0)"/>
       <use xlink:href="#DejaVuSans-30" transform="translate(413.525391 0)"/>
      </g>
     </g>
    </g>
    <g id="ytick_4">
     <g id="line2d_13">
      <g>
       <use xlink:href="#mbec678afca" x="75.59375" y="197.830586" style="stroke: #000000; stroke-width: 0.8"/>
      </g>
     </g>
     <g id="text_14">
      <!-- 0.000075 -->
      <g transform="translate(20.878125 201.629805) scale(0.1 -0.1)">
       <use xlink:href="#DejaVuSans-30"/>
       <use xlink:href="#DejaVuSans-2e" transform="translate(63.623047 0)"/>
       <use xlink:href="#DejaVuSans-30" transform="translate(95.410156 0)"/>
       <use xlink:href="#DejaVuSans-30" transform="translate(159.033203 0)"/>
       <use xlink:href="#DejaVuSans-30" transform="translate(222.65625 0)"/>
       <use xlink:href="#DejaVuSans-30" transform="translate(286.279297 0)"/>
       <use xlink:href="#DejaVuSans-37" transform="translate(349.902344 0)"/>
       <use xlink:href="#DejaVuSans-35" transform="translate(413.525391 0)"/>
      </g>
     </g>
    </g>
    <g id="ytick_5">
     <g id="line2d_14">
      <g>
       <use xlink:href="#mbec678afca" x="75.59375" y="159.281407" style="stroke: #000000; stroke-width: 0.8"/>
      </g>
     </g>
     <g id="text_15">
      <!-- 0.000100 -->
      <g transform="translate(20.878125 163.080626) scale(0.1 -0.1)">
       <use xlink:href="#DejaVuSans-30"/>
       <use xlink:href="#DejaVuSans-2e" transform="translate(63.623047 0)"/>
       <use xlink:href="#DejaVuSans-30" transform="translate(95.410156 0)"/>
       <use xlink:href="#DejaVuSans-30" transform="translate(159.033203 0)"/>
       <use xlink:href="#DejaVuSans-30" transform="translate(222.65625 0)"/>
       <use xlink:href="#DejaVuSans-31" transform="translate(286.279297 0)"/>
       <use xlink:href="#DejaVuSans-30" transform="translate(349.902344 0)"/>
       <use xlink:href="#DejaVuSans-30" transform="translate(413.525391 0)"/>
      </g>
     </g>
    </g>
    <g id="ytick_6">
     <g id="line2d_15">
      <g>
       <use xlink:href="#mbec678afca" x="75.59375" y="120.732227" style="stroke: #000000; stroke-width: 0.8"/>
      </g>
     </g>
     <g id="text_16">
      <!-- 0.000125 -->
      <g transform="translate(20.878125 124.531446) scale(0.1 -0.1)">
       <use xlink:href="#DejaVuSans-30"/>
       <use xlink:href="#DejaVuSans-2e" transform="translate(63.623047 0)"/>
       <use xlink:href="#DejaVuSans-30" transform="translate(95.410156 0)"/>
       <use xlink:href="#DejaVuSans-30" transform="translate(159.033203 0)"/>
       <use xlink:href="#DejaVuSans-30" transform="translate(222.65625 0)"/>
       <use xlink:href="#DejaVuSans-31" transform="translate(286.279297 0)"/>
       <use xlink:href="#DejaVuSans-32" transform="translate(349.902344 0)"/>
       <use xlink:href="#DejaVuSans-35" transform="translate(413.525391 0)"/>
      </g>
     </g>
    </g>
    <g id="ytick_7">
     <g id="line2d_16">
      <g>
       <use xlink:href="#mbec678afca" x="75.59375" y="82.183048" style="stroke: #000000; stroke-width: 0.8"/>
      </g>
     </g>
     <g id="text_17">
      <!-- 0.000150 -->
      <g transform="translate(20.878125 85.982267) scale(0.1 -0.1)">
       <use xlink:href="#DejaVuSans-30"/>
       <use xlink:href="#DejaVuSans-2e" transform="translate(63.623047 0)"/>
       <use xlink:href="#DejaVuSans-30" transform="translate(95.410156 0)"/>
       <use xlink:href="#DejaVuSans-30" transform="translate(159.033203 0)"/>
       <use xlink:href="#DejaVuSans-30" transform="translate(222.65625 0)"/>
       <use xlink:href="#DejaVuSans-31" transform="translate(286.279297 0)"/>
       <use xlink:href="#DejaVuSans-35" transform="translate(349.902344 0)"/>
       <use xlink:href="#DejaVuSans-30" transform="translate(413.525391 0)"/>
      </g>
     </g>
    </g>
    <g id="ytick_8">
     <g id="line2d_17">
      <g>
       <use xlink:href="#mbec678afca" x="75.59375" y="43.633868" style="stroke: #000000; stroke-width: 0.8"/>
      </g>
     </g>
     <g id="text_18">
      <!-- 0.000175 -->
      <g transform="translate(20.878125 47.433087) scale(0.1 -0.1)">
       <use xlink:href="#DejaVuSans-30"/>
       <use xlink:href="#DejaVuSans-2e" transform="translate(63.623047 0)"/>
       <use xlink:href="#DejaVuSans-30" transform="translate(95.410156 0)"/>
       <use xlink:href="#DejaVuSans-30" transform="translate(159.033203 0)"/>
       <use xlink:href="#DejaVuSans-30" transform="translate(222.65625 0)"/>
       <use xlink:href="#DejaVuSans-31" transform="translate(286.279297 0)"/>
       <use xlink:href="#DejaVuSans-37" transform="translate(349.902344 0)"/>
       <use xlink:href="#DejaVuSans-35" transform="translate(413.525391 0)"/>
      </g>
     </g>
    </g>
    <g id="text_19">
     <!-- Probability Density -->
     <g transform="translate(14.798438 214.924688) rotate(-90) scale(0.1 -0.1)">
      <defs>
       <path id="DejaVuSans-6f" d="M 1959 3097 
Q 1497 3097 1228 2736 
Q 959 2375 959 1747 
Q 959 1119 1226 758 
Q 1494 397 1959 397 
Q 2419 397 2687 759 
Q 2956 1122 2956 1747 
Q 2956 2369 2687 2733 
Q 2419 3097 1959 3097 
z
M 1959 3584 
Q 2709 3584 3137 3096 
Q 3566 2609 3566 1747 
Q 3566 888 3137 398 
Q 2709 -91 1959 -91 
Q 1206 -91 779 398 
Q 353 888 353 1747 
Q 353 2609 779 3096 
Q 1206 3584 1959 3584 
z
" transform="scale(0.015625)"/>
       <path id="DejaVuSans-62" d="M 3116 1747 
Q 3116 2381 2855 2742 
Q 2594 3103 2138 3103 
Q 1681 3103 1420 2742 
Q 1159 2381 1159 1747 
Q 1159 1113 1420 752 
Q 1681 391 2138 391 
Q 2594 391 2855 752 
Q 3116 1113 3116 1747 
z
M 1159 2969 
Q 1341 3281 1617 3432 
Q 1894 3584 2278 3584 
Q 2916 3584 3314 3078 
Q 3713 2572 3713 1747 
Q 3713 922 3314 415 
Q 2916 -91 2278 -91 
Q 1894 -91 1617 61 
Q 1341 213 1159 525 
L 1159 0 
L 581 0 
L 581 4863 
L 1159 4863 
L 1159 2969 
z
" transform="scale(0.015625)"/>
       <path id="DejaVuSans-61" d="M 2194 1759 
Q 1497 1759 1228 1600 
Q 959 1441 959 1056 
Q 959 750 1161 570 
Q 1363 391 1709 391 
Q 2188 391 2477 730 
Q 2766 1069 2766 1631 
L 2766 1759 
L 2194 1759 
z
M 3341 1997 
L 3341 0 
L 2766 0 
L 2766 531 
Q 2569 213 2275 61 
Q 1981 -91 1556 -91 
Q 1019 -91 701 211 
Q 384 513 384 1019 
Q 384 1609 779 1909 
Q 1175 2209 1959 2209 
L 2766 2209 
L 2766 2266 
Q 2766 2663 2505 2880 
Q 2244 3097 1772 3097 
Q 1472 3097 1187 3025 
Q 903 2953 641 2809 
L 641 3341 
Q 956 3463 1253 3523 
Q 1550 3584 1831 3584 
Q 2591 3584 2966 3190 
Q 3341 2797 3341 1997 
z
" transform="scale(0.015625)"/>
       <path id="DejaVuSans-6c" d="M 603 4863 
L 1178 4863 
L 1178 0 
L 603 0 
L 603 4863 
z
" transform="scale(0.015625)"/>
       <path id="DejaVuSans-74" d="M 1172 4494 
L 1172 3500 
L 2356 3500 
L 2356 3053 
L 1172 3053 
L 1172 1153 
Q 1172 725 1289 603 
Q 1406 481 1766 481 
L 2356 481 
L 2356 0 
L 1766 0 
Q 1100 0 847 248 
Q 594 497 594 1153 
L 594 3053 
L 172 3053 
L 172 3500 
L 594 3500 
L 594 4494 
L 1172 4494 
z
" transform="scale(0.015625)"/>
       <path id="DejaVuSans-79" d="M 2059 -325 
Q 1816 -950 1584 -1140 
Q 1353 -1331 966 -1331 
L 506 -1331 
L 506 -850 
L 844 -850 
Q 1081 -850 1212 -737 
Q 1344 -625 1503 -206 
L 1606 56 
L 191 3500 
L 800 3500 
L 1894 763 
L 2988 3500 
L 3597 3500 
L 2059 -325 
z
" transform="scale(0.015625)"/>
       <path id="DejaVuSans-20" transform="scale(0.015625)"/>
       <path id="DejaVuSans-44" d="M 1259 4147 
L 1259 519 
L 2022 519 
Q 2988 519 3436 956 
Q 3884 1394 3884 2338 
Q 3884 3275 3436 3711 
Q 2988 4147 2022 4147 
L 1259 4147 
z
M 628 4666 
L 1925 4666 
Q 3281 4666 3915 4102 
Q 4550 3538 4550 2338 
Q 4550 1131 3912 565 
Q 3275 0 1925 0 
L 628 0 
L 628 4666 
z
" transform="scale(0.015625)"/>
       <path id="DejaVuSans-6e" d="M 3513 2113 
L 3513 0 
L 2938 0 
L 2938 2094 
Q 2938 2591 2744 2837 
Q 2550 3084 2163 3084 
Q 1697 3084 1428 2787 
Q 1159 2491 1159 1978 
L 1159 0 
L 581 0 
L 581 3500 
L 1159 3500 
L 1159 2956 
Q 1366 3272 1645 3428 
Q 1925 3584 2291 3584 
Q 2894 3584 3203 3211 
Q 3513 2838 3513 2113 
z
" transform="scale(0.015625)"/>
       <path id="DejaVuSans-73" d="M 2834 3397 
L 2834 2853 
Q 2591 2978 2328 3040 
Q 2066 3103 1784 3103 
Q 1356 3103 1142 2972 
Q 928 2841 928 2578 
Q 928 2378 1081 2264 
Q 1234 2150 1697 2047 
L 1894 2003 
Q 2506 1872 2764 1633 
Q 3022 1394 3022 966 
Q 3022 478 2636 193 
Q 2250 -91 1575 -91 
Q 1294 -91 989 -36 
Q 684 19 347 128 
L 347 722 
Q 666 556 975 473 
Q 1284 391 1588 391 
Q 1994 391 2212 530 
Q 2431 669 2431 922 
Q 2431 1156 2273 1281 
Q 2116 1406 1581 1522 
L 1381 1569 
Q 847 1681 609 1914 
Q 372 2147 372 2553 
Q 372 3047 722 3315 
Q 1072 3584 1716 3584 
Q 2034 3584 2315 3537 
Q 2597 3491 2834 3397 
z
" transform="scale(0.015625)"/>
      </defs>
      <use xlink:href="#DejaVuSans-50"/>
      <use xlink:href="#DejaVuSans-72" transform="translate(58.552734 0)"/>
      <use xlink:href="#DejaVuSans-6f" transform="translate(97.416016 0)"/>
      <use xlink:href="#DejaVuSans-62" transform="translate(158.597656 0)"/>
      <use xlink:href="#DejaVuSans-61" transform="translate(222.074219 0)"/>
      <use xlink:href="#DejaVuSans-62" transform="translate(283.353516 0)"/>
      <use xlink:href="#DejaVuSans-69" transform="translate(346.830078 0)"/>
      <use xlink:href="#DejaVuSans-6c" transform="translate(374.613281 0)"/>
      <use xlink:href="#DejaVuSans-69" transform="translate(402.396484 0)"/>
      <use xlink:href="#DejaVuSans-74" transform="translate(430.179688 0)"/>
      <use xlink:href="#DejaVuSans-79" transform="translate(469.388672 0)"/>
      <use xlink:href="#DejaVuSans-20" transform="translate(528.568359 0)"/>
      <use xlink:href="#DejaVuSans-44" transform="translate(560.355469 0)"/>
      <use xlink:href="#DejaVuSans-65" transform="translate(637.357422 0)"/>
      <use xlink:href="#DejaVuSans-6e" transform="translate(698.880859 0)"/>
      <use xlink:href="#DejaVuSans-73" transform="translate(762.259766 0)"/>
      <use xlink:href="#DejaVuSans-69" transform="translate(814.359375 0)"/>
      <use xlink:href="#DejaVuSans-74" transform="translate(842.142578 0)"/>
      <use xlink:href="#DejaVuSans-79" transform="translate(881.351562 0)"/>
     </g>
    </g>
   </g>
   <g id="patch_3">
    <path d="M 75.59375 313.478125 
L 75.59375 22.318125 
" style="fill: none; stroke: #000000; stroke-width: 0.8; stroke-linejoin: miter; stroke-linecap: square"/>
   </g>
   <g id="patch_4">
    <path d="M 561.57375 313.478125 
L 561.57375 22.318125 
" style="fill: none; stroke: #000000; stroke-width: 0.8; stroke-linejoin: miter; stroke-linecap: square"/>
   </g>
   <g id="patch_5">
    <path d="M 75.59375 313.478125 
L 561.57375 313.478125 
" style="fill: none; stroke: #000000; stroke-width: 0.8; stroke-linejoin: miter; stroke-linecap: square"/>
   </g>
   <g id="patch_6">
    <path d="M 75.59375 22.318125 
L 561.57375 22.318125 
" style="fill: none; stroke: #000000; stroke-width: 0.8; stroke-linejoin: miter; stroke-linecap: square"/>
   </g>
   <g id="text_20">
    <!-- 399001 - close_price Price Distribution -->
    <g transform="translate(202.85875 16.318125) scale(0.12 -0.12)">
     <defs>
      <path id="DejaVuSans-33" d="M 2597 2516 
Q 3050 2419 3304 2112 
Q 3559 1806 3559 1356 
Q 3559 666 3084 287 
Q 2609 -91 1734 -91 
Q 1441 -91 1130 -33 
Q 819 25 488 141 
L 488 750 
Q 750 597 1062 519 
Q 1375 441 1716 441 
Q 2309 441 2620 675 
Q 2931 909 2931 1356 
Q 2931 1769 2642 2001 
Q 2353 2234 1838 2234 
L 1294 2234 
L 1294 2753 
L 1863 2753 
Q 2328 2753 2575 2939 
Q 2822 3125 2822 3475 
Q 2822 3834 2567 4026 
Q 2313 4219 1838 4219 
Q 1578 4219 1281 4162 
Q 984 4106 628 3988 
L 628 4550 
Q 988 4650 1302 4700 
Q 1616 4750 1894 4750 
Q 2613 4750 3031 4423 
Q 3450 4097 3450 3541 
Q 3450 3153 3228 2886 
Q 3006 2619 2597 2516 
z
" transform="scale(0.015625)"/>
      <path id="DejaVuSans-39" d="M 703 97 
L 703 672 
Q 941 559 1184 500 
Q 1428 441 1663 441 
Q 2288 441 2617 861 
Q 2947 1281 2994 2138 
Q 2813 1869 2534 1725 
Q 2256 1581 1919 1581 
Q 1219 1581 811 2004 
Q 403 2428 403 3163 
Q 403 3881 828 4315 
Q 1253 4750 1959 4750 
Q 2769 4750 3195 4129 
Q 3622 3509 3622 2328 
Q 3622 1225 3098 567 
Q 2575 -91 1691 -91 
Q 1453 -91 1209 -44 
Q 966 3 703 97 
z
M 1959 2075 
Q 2384 2075 2632 2365 
Q 2881 2656 2881 3163 
Q 2881 3666 2632 3958 
Q 2384 4250 1959 4250 
Q 1534 4250 1286 3958 
Q 1038 3666 1038 3163 
Q 1038 2656 1286 2365 
Q 1534 2075 1959 2075 
z
" transform="scale(0.015625)"/>
      <path id="DejaVuSans-2d" d="M 313 2009 
L 1997 2009 
L 1997 1497 
L 313 1497 
L 313 2009 
z
" transform="scale(0.015625)"/>
      <path id="DejaVuSans-5f" d="M 3263 -1063 
L 3263 -1509 
L -63 -1509 
L -63 -1063 
L 3263 -1063 
z
" transform="scale(0.015625)"/>
      <path id="DejaVuSans-70" d="M 1159 525 
L 1159 -1331 
L 581 -1331 
L 581 3500 
L 1159 3500 
L 1159 2969 
Q 1341 3281 1617 3432 
Q 1894 3584 2278 3584 
Q 2916 3584 3314 3078 
Q 3713 2572 3713 1747 
Q 3713 922 3314 415 
Q 2916 -91 2278 -91 
Q 1894 -91 1617 61 
Q 1341 213 1159 525 
z
M 3116 1747 
Q 3116 2381 2855 2742 
Q 2594 3103 2138 3103 
Q 1681 3103 1420 2742 
Q 1159 2381 1159 1747 
Q 1159 1113 1420 752 
Q 1681 391 2138 391 
Q 2594 391 2855 752 
Q 3116 1113 3116 1747 
z
" transform="scale(0.015625)"/>
      <path id="DejaVuSans-75" d="M 544 1381 
L 544 3500 
L 1119 3500 
L 1119 1403 
Q 1119 906 1312 657 
Q 1506 409 1894 409 
Q 2359 409 2629 706 
Q 2900 1003 2900 1516 
L 2900 3500 
L 3475 3500 
L 3475 0 
L 2900 0 
L 2900 538 
Q 2691 219 2414 64 
Q 2138 -91 1772 -91 
Q 1169 -91 856 284 
Q 544 659 544 1381 
z
M 1991 3584 
L 1991 3584 
z
" transform="scale(0.015625)"/>
     </defs>
     <use xlink:href="#DejaVuSans-33"/>
     <use xlink:href="#DejaVuSans-39" transform="translate(63.623047 0)"/>
     <use xlink:href="#DejaVuSans-39" transform="translate(127.246094 0)"/>
     <use xlink:href="#DejaVuSans-30" transform="translate(190.869141 0)"/>
     <use xlink:href="#DejaVuSans-30" transform="translate(254.492188 0)"/>
     <use xlink:href="#DejaVuSans-31" transform="translate(318.115234 0)"/>
     <use xlink:href="#DejaVuSans-20" transform="translate(381.738281 0)"/>
     <use xlink:href="#DejaVuSans-2d" transform="translate(413.525391 0)"/>
     <use xlink:href="#DejaVuSans-20" transform="translate(449.609375 0)"/>
     <use xlink:href="#DejaVuSans-63" transform="translate(481.396484 0)"/>
     <use xlink:href="#DejaVuSans-6c" transform="translate(536.376953 0)"/>
     <use xlink:href="#DejaVuSans-6f" transform="translate(564.160156 0)"/>
     <use xlink:href="#DejaVuSans-73" transform="translate(625.341797 0)"/>
     <use xlink:href="#DejaVuSans-65" transform="translate(677.441406 0)"/>
     <use xlink:href="#DejaVuSans-5f" transform="translate(738.964844 0)"/>
     <use xlink:href="#DejaVuSans-70" transform="translate(788.964844 0)"/>
     <use xlink:href="#DejaVuSans-72" transform="translate(852.441406 0)"/>
     <use xlink:href="#DejaVuSans-69" transform="translate(893.554688 0)"/>
     <use xlink:href="#DejaVuSans-63" transform="translate(921.337891 0)"/>
     <use xlink:href="#DejaVuSans-65" transform="translate(976.318359 0)"/>
     <use xlink:href="#DejaVuSans-20" transform="translate(1037.841797 0)"/>
     <use xlink:href="#DejaVuSans-50" transform="translate(1069.628906 0)"/>
     <use xlink:href="#DejaVuSans-72" transform="translate(1128.181641 0)"/>
     <use xlink:href="#DejaVuSans-69" transform="translate(1169.294922 0)"/>
     <use xlink:href="#DejaVuSans-63" transform="translate(1197.078125 0)"/>
     <use xlink:href="#DejaVuSans-65" transform="translate(1252.058594 0)"/>
     <use xlink:href="#DejaVuSans-20" transform="translate(1313.582031 0)"/>
     <use xlink:href="#DejaVuSans-44" transform="translate(1345.369141 0)"/>
     <use xlink:href="#DejaVuSans-69" transform="translate(1422.371094 0)"/>
     <use xlink:href="#DejaVuSans-73" transform="translate(1450.154297 0)"/>
     <use xlink:href="#DejaVuSans-74" transform="translate(1502.253906 0)"/>
     <use xlink:href="#DejaVuSans-72" transform="translate(1541.462891 0)"/>
     <use xlink:href="#DejaVuSans-69" transform="translate(1582.576172 0)"/>
     <use xlink:href="#DejaVuSans-62" transform="translate(1610.359375 0)"/>
     <use xlink:href="#DejaVuSans-75" transform="translate(1673.835938 0)"/>
     <use xlink:href="#DejaVuSans-74" transform="translate(1737.214844 0)"/>
     <use xlink:href="#DejaVuSans-69" transform="translate(1776.423828 0)"/>
     <use xlink:href="#DejaVuSans-6f" transform="translate(1804.207031 0)"/>
     <use xlink:href="#DejaVuSans-6e" transform="translate(1865.388672 0)"/>
    </g>
   </g>
  </g>
 </g>
 <defs>
  <clipPath id="pf3732c6df1">
   <rect x="75.59375" y="22.318125" width="485.98" height="291.16"/>
  </clipPath>
 </defs>
</svg>
