<?xml version="1.0" encoding="utf-8" standalone="no"?>
<!DOCTYPE svg PUBLIC "-//W3C//DTD SVG 1.1//EN"
  "http://www.w3.org/Graphics/SVG/1.1/DTD/svg11.dtd">
<svg xmlns:xlink="http://www.w3.org/1999/xlink" width="1144.620625pt" height="725.114375pt" viewBox="0 0 1144.620625 725.114375" xmlns="http://www.w3.org/2000/svg" version="1.1">
 <metadata>
  <rdf:RDF xmlns:dc="http://purl.org/dc/elements/1.1/" xmlns:cc="http://creativecommons.org/ns#" xmlns:rdf="http://www.w3.org/1999/02/22-rdf-syntax-ns#">
   <cc:Work>
    <dc:type rdf:resource="http://purl.org/dc/dcmitype/StillImage"/>
    <dc:date>2025-05-07T01:07:23.502065</dc:date>
    <dc:format>image/svg+xml</dc:format>
    <dc:creator>
     <cc:Agent>
      <dc:title>Matplotlib v3.10.1, https://matplotlib.org/</dc:title>
     </cc:Agent>
    </dc:creator>
   </cc:Work>
  </rdf:RDF>
 </metadata>
 <defs>
  <style type="text/css">*{stroke-linejoin: round; stroke-linecap: butt}</style>
 </defs>
 <g id="figure_1">
  <g id="patch_1">
   <path d="M 0 725.114375 
L 1144.620625 725.114375 
L 1144.620625 0 
L 0 0 
z
" style="fill: #ffffff"/>
  </g>
  <g id="axes_1">
   <g id="patch_2">
    <path d="M 59.690625 155.658125 
L 1137.420625 155.658125 
L 1137.420625 22.318125 
L 59.690625 22.318125 
z
" style="fill: #ffffff"/>
   </g>
   <g id="matplotlib.axis_1">
    <g id="xtick_1">
     <g id="line2d_1">
      <path d="M 102.282392 155.658125 
L 102.282392 22.318125 
" clip-path="url(#pb7b0b55401)" style="fill: none; stroke: #b0b0b0; stroke-width: 0.8; stroke-linecap: square"/>
     </g>
     <g id="line2d_2">
      <defs>
       <path id="m1e8bb0bb1b" d="M 0 0 
L 0 3.5 
" style="stroke: #000000; stroke-width: 0.8"/>
      </defs>
      <g>
       <use xlink:href="#m1e8bb0bb1b" x="102.282392" y="155.658125" style="stroke: #000000; stroke-width: 0.8"/>
      </g>
     </g>
     <g id="text_1">
      <!-- 2000 -->
      <g transform="translate(89.557392 170.256562) scale(0.1 -0.1)">
       <defs>
        <path id="DejaVuSans-32" d="M 1228 531 
L 3431 531 
L 3431 0 
L 469 0 
L 469 531 
Q 828 903 1448 1529 
Q 2069 2156 2228 2338 
Q 2531 2678 2651 2914 
Q 2772 3150 2772 3378 
Q 2772 3750 2511 3984 
Q 2250 4219 1831 4219 
Q 1534 4219 1204 4116 
Q 875 4013 500 3803 
L 500 4441 
Q 881 4594 1212 4672 
Q 1544 4750 1819 4750 
Q 2544 4750 2975 4387 
Q 3406 4025 3406 3419 
Q 3406 3131 3298 2873 
Q 3191 2616 2906 2266 
Q 2828 2175 2409 1742 
Q 1991 1309 1228 531 
z
" transform="scale(0.015625)"/>
        <path id="DejaVuSans-30" d="M 2034 4250 
Q 1547 4250 1301 3770 
Q 1056 3291 1056 2328 
Q 1056 1369 1301 889 
Q 1547 409 2034 409 
Q 2525 409 2770 889 
Q 3016 1369 3016 2328 
Q 3016 3291 2770 3770 
Q 2525 4250 2034 4250 
z
M 2034 4750 
Q 2819 4750 3233 4129 
Q 3647 3509 3647 2328 
Q 3647 1150 3233 529 
Q 2819 -91 2034 -91 
Q 1250 -91 836 529 
Q 422 1150 422 2328 
Q 422 3509 836 4129 
Q 1250 4750 2034 4750 
z
" transform="scale(0.015625)"/>
       </defs>
       <use xlink:href="#DejaVuSans-32"/>
       <use xlink:href="#DejaVuSans-30" transform="translate(63.623047 0)"/>
       <use xlink:href="#DejaVuSans-30" transform="translate(127.246094 0)"/>
       <use xlink:href="#DejaVuSans-30" transform="translate(190.869141 0)"/>
      </g>
     </g>
    </g>
    <g id="xtick_2">
     <g id="line2d_3">
      <path d="M 297.039388 155.658125 
L 297.039388 22.318125 
" clip-path="url(#pb7b0b55401)" style="fill: none; stroke: #b0b0b0; stroke-width: 0.8; stroke-linecap: square"/>
     </g>
     <g id="line2d_4">
      <g>
       <use xlink:href="#m1e8bb0bb1b" x="297.039388" y="155.658125" style="stroke: #000000; stroke-width: 0.8"/>
      </g>
     </g>
     <g id="text_2">
      <!-- 2005 -->
      <g transform="translate(284.314388 170.256562) scale(0.1 -0.1)">
       <defs>
        <path id="DejaVuSans-35" d="M 691 4666 
L 3169 4666 
L 3169 4134 
L 1269 4134 
L 1269 2991 
Q 1406 3038 1543 3061 
Q 1681 3084 1819 3084 
Q 2600 3084 3056 2656 
Q 3513 2228 3513 1497 
Q 3513 744 3044 326 
Q 2575 -91 1722 -91 
Q 1428 -91 1123 -41 
Q 819 9 494 109 
L 494 744 
Q 775 591 1075 516 
Q 1375 441 1709 441 
Q 2250 441 2565 725 
Q 2881 1009 2881 1497 
Q 2881 1984 2565 2268 
Q 2250 2553 1709 2553 
Q 1456 2553 1204 2497 
Q 953 2441 691 2322 
L 691 4666 
z
" transform="scale(0.015625)"/>
       </defs>
       <use xlink:href="#DejaVuSans-32"/>
       <use xlink:href="#DejaVuSans-30" transform="translate(63.623047 0)"/>
       <use xlink:href="#DejaVuSans-30" transform="translate(127.246094 0)"/>
       <use xlink:href="#DejaVuSans-35" transform="translate(190.869141 0)"/>
      </g>
     </g>
    </g>
    <g id="xtick_3">
     <g id="line2d_5">
      <path d="M 491.689785 155.658125 
L 491.689785 22.318125 
" clip-path="url(#pb7b0b55401)" style="fill: none; stroke: #b0b0b0; stroke-width: 0.8; stroke-linecap: square"/>
     </g>
     <g id="line2d_6">
      <g>
       <use xlink:href="#m1e8bb0bb1b" x="491.689785" y="155.658125" style="stroke: #000000; stroke-width: 0.8"/>
      </g>
     </g>
     <g id="text_3">
      <!-- 2010 -->
      <g transform="translate(478.964785 170.256562) scale(0.1 -0.1)">
       <defs>
        <path id="DejaVuSans-31" d="M 794 531 
L 1825 531 
L 1825 4091 
L 703 3866 
L 703 4441 
L 1819 4666 
L 2450 4666 
L 2450 531 
L 3481 531 
L 3481 0 
L 794 0 
L 794 531 
z
" transform="scale(0.015625)"/>
       </defs>
       <use xlink:href="#DejaVuSans-32"/>
       <use xlink:href="#DejaVuSans-30" transform="translate(63.623047 0)"/>
       <use xlink:href="#DejaVuSans-31" transform="translate(127.246094 0)"/>
       <use xlink:href="#DejaVuSans-30" transform="translate(190.869141 0)"/>
      </g>
     </g>
    </g>
    <g id="xtick_4">
     <g id="line2d_7">
      <path d="M 686.340183 155.658125 
L 686.340183 22.318125 
" clip-path="url(#pb7b0b55401)" style="fill: none; stroke: #b0b0b0; stroke-width: 0.8; stroke-linecap: square"/>
     </g>
     <g id="line2d_8">
      <g>
       <use xlink:href="#m1e8bb0bb1b" x="686.340183" y="155.658125" style="stroke: #000000; stroke-width: 0.8"/>
      </g>
     </g>
     <g id="text_4">
      <!-- 2015 -->
      <g transform="translate(673.615183 170.256562) scale(0.1 -0.1)">
       <use xlink:href="#DejaVuSans-32"/>
       <use xlink:href="#DejaVuSans-30" transform="translate(63.623047 0)"/>
       <use xlink:href="#DejaVuSans-31" transform="translate(127.246094 0)"/>
       <use xlink:href="#DejaVuSans-35" transform="translate(190.869141 0)"/>
      </g>
     </g>
    </g>
    <g id="xtick_5">
     <g id="line2d_9">
      <path d="M 880.99058 155.658125 
L 880.99058 22.318125 
" clip-path="url(#pb7b0b55401)" style="fill: none; stroke: #b0b0b0; stroke-width: 0.8; stroke-linecap: square"/>
     </g>
     <g id="line2d_10">
      <g>
       <use xlink:href="#m1e8bb0bb1b" x="880.99058" y="155.658125" style="stroke: #000000; stroke-width: 0.8"/>
      </g>
     </g>
     <g id="text_5">
      <!-- 2020 -->
      <g transform="translate(868.26558 170.256562) scale(0.1 -0.1)">
       <use xlink:href="#DejaVuSans-32"/>
       <use xlink:href="#DejaVuSans-30" transform="translate(63.623047 0)"/>
       <use xlink:href="#DejaVuSans-32" transform="translate(127.246094 0)"/>
       <use xlink:href="#DejaVuSans-30" transform="translate(190.869141 0)"/>
      </g>
     </g>
    </g>
    <g id="xtick_6">
     <g id="line2d_11">
      <path d="M 1075.747576 155.658125 
L 1075.747576 22.318125 
" clip-path="url(#pb7b0b55401)" style="fill: none; stroke: #b0b0b0; stroke-width: 0.8; stroke-linecap: square"/>
     </g>
     <g id="line2d_12">
      <g>
       <use xlink:href="#m1e8bb0bb1b" x="1075.747576" y="155.658125" style="stroke: #000000; stroke-width: 0.8"/>
      </g>
     </g>
     <g id="text_6">
      <!-- 2025 -->
      <g transform="translate(1063.022576 170.256562) scale(0.1 -0.1)">
       <use xlink:href="#DejaVuSans-32"/>
       <use xlink:href="#DejaVuSans-30" transform="translate(63.623047 0)"/>
       <use xlink:href="#DejaVuSans-32" transform="translate(127.246094 0)"/>
       <use xlink:href="#DejaVuSans-35" transform="translate(190.869141 0)"/>
      </g>
     </g>
    </g>
    <g id="text_7">
     <!-- Date -->
     <g transform="translate(586.604844 183.934687) scale(0.1 -0.1)">
      <defs>
       <path id="DejaVuSans-44" d="M 1259 4147 
L 1259 519 
L 2022 519 
Q 2988 519 3436 956 
Q 3884 1394 3884 2338 
Q 3884 3275 3436 3711 
Q 2988 4147 2022 4147 
L 1259 4147 
z
M 628 4666 
L 1925 4666 
Q 3281 4666 3915 4102 
Q 4550 3538 4550 2338 
Q 4550 1131 3912 565 
Q 3275 0 1925 0 
L 628 0 
L 628 4666 
z
" transform="scale(0.015625)"/>
       <path id="DejaVuSans-61" d="M 2194 1759 
Q 1497 1759 1228 1600 
Q 959 1441 959 1056 
Q 959 750 1161 570 
Q 1363 391 1709 391 
Q 2188 391 2477 730 
Q 2766 1069 2766 1631 
L 2766 1759 
L 2194 1759 
z
M 3341 1997 
L 3341 0 
L 2766 0 
L 2766 531 
Q 2569 213 2275 61 
Q 1981 -91 1556 -91 
Q 1019 -91 701 211 
Q 384 513 384 1019 
Q 384 1609 779 1909 
Q 1175 2209 1959 2209 
L 2766 2209 
L 2766 2266 
Q 2766 2663 2505 2880 
Q 2244 3097 1772 3097 
Q 1472 3097 1187 3025 
Q 903 2953 641 2809 
L 641 3341 
Q 956 3463 1253 3523 
Q 1550 3584 1831 3584 
Q 2591 3584 2966 3190 
Q 3341 2797 3341 1997 
z
" transform="scale(0.015625)"/>
       <path id="DejaVuSans-74" d="M 1172 4494 
L 1172 3500 
L 2356 3500 
L 2356 3053 
L 1172 3053 
L 1172 1153 
Q 1172 725 1289 603 
Q 1406 481 1766 481 
L 2356 481 
L 2356 0 
L 1766 0 
Q 1100 0 847 248 
Q 594 497 594 1153 
L 594 3053 
L 172 3053 
L 172 3500 
L 594 3500 
L 594 4494 
L 1172 4494 
z
" transform="scale(0.015625)"/>
       <path id="DejaVuSans-65" d="M 3597 1894 
L 3597 1613 
L 953 1613 
Q 991 1019 1311 708 
Q 1631 397 2203 397 
Q 2534 397 2845 478 
Q 3156 559 3463 722 
L 3463 178 
Q 3153 47 2828 -22 
Q 2503 -91 2169 -91 
Q 1331 -91 842 396 
Q 353 884 353 1716 
Q 353 2575 817 3079 
Q 1281 3584 2069 3584 
Q 2775 3584 3186 3129 
Q 3597 2675 3597 1894 
z
M 3022 2063 
Q 3016 2534 2758 2815 
Q 2500 3097 2075 3097 
Q 1594 3097 1305 2825 
Q 1016 2553 972 2059 
L 3022 2063 
z
" transform="scale(0.015625)"/>
      </defs>
      <use xlink:href="#DejaVuSans-44"/>
      <use xlink:href="#DejaVuSans-61" transform="translate(77.001953 0)"/>
      <use xlink:href="#DejaVuSans-74" transform="translate(138.28125 0)"/>
      <use xlink:href="#DejaVuSans-65" transform="translate(177.490234 0)"/>
     </g>
    </g>
   </g>
   <g id="matplotlib.axis_2">
    <g id="ytick_1">
     <g id="line2d_13">
      <path d="M 59.690625 132.400394 
L 1137.420625 132.400394 
" clip-path="url(#pb7b0b55401)" style="fill: none; stroke: #b0b0b0; stroke-width: 0.8; stroke-linecap: square"/>
     </g>
     <g id="line2d_14">
      <defs>
       <path id="md894134fae" d="M 0 0 
L -3.5 0 
" style="stroke: #000000; stroke-width: 0.8"/>
      </defs>
      <g>
       <use xlink:href="#md894134fae" x="59.690625" y="132.400394" style="stroke: #000000; stroke-width: 0.8"/>
      </g>
     </g>
     <g id="text_8">
      <!-- 5000 -->
      <g transform="translate(27.240625 136.199613) scale(0.1 -0.1)">
       <use xlink:href="#DejaVuSans-35"/>
       <use xlink:href="#DejaVuSans-30" transform="translate(63.623047 0)"/>
       <use xlink:href="#DejaVuSans-30" transform="translate(127.246094 0)"/>
       <use xlink:href="#DejaVuSans-30" transform="translate(190.869141 0)"/>
      </g>
     </g>
    </g>
    <g id="ytick_2">
     <g id="line2d_15">
      <path d="M 59.690625 95.629749 
L 1137.420625 95.629749 
" clip-path="url(#pb7b0b55401)" style="fill: none; stroke: #b0b0b0; stroke-width: 0.8; stroke-linecap: square"/>
     </g>
     <g id="line2d_16">
      <g>
       <use xlink:href="#md894134fae" x="59.690625" y="95.629749" style="stroke: #000000; stroke-width: 0.8"/>
      </g>
     </g>
     <g id="text_9">
      <!-- 10000 -->
      <g transform="translate(20.878125 99.428968) scale(0.1 -0.1)">
       <use xlink:href="#DejaVuSans-31"/>
       <use xlink:href="#DejaVuSans-30" transform="translate(63.623047 0)"/>
       <use xlink:href="#DejaVuSans-30" transform="translate(127.246094 0)"/>
       <use xlink:href="#DejaVuSans-30" transform="translate(190.869141 0)"/>
       <use xlink:href="#DejaVuSans-30" transform="translate(254.492188 0)"/>
      </g>
     </g>
    </g>
    <g id="ytick_3">
     <g id="line2d_17">
      <path d="M 59.690625 58.859104 
L 1137.420625 58.859104 
" clip-path="url(#pb7b0b55401)" style="fill: none; stroke: #b0b0b0; stroke-width: 0.8; stroke-linecap: square"/>
     </g>
     <g id="line2d_18">
      <g>
       <use xlink:href="#md894134fae" x="59.690625" y="58.859104" style="stroke: #000000; stroke-width: 0.8"/>
      </g>
     </g>
     <g id="text_10">
      <!-- 15000 -->
      <g transform="translate(20.878125 62.658323) scale(0.1 -0.1)">
       <use xlink:href="#DejaVuSans-31"/>
       <use xlink:href="#DejaVuSans-35" transform="translate(63.623047 0)"/>
       <use xlink:href="#DejaVuSans-30" transform="translate(127.246094 0)"/>
       <use xlink:href="#DejaVuSans-30" transform="translate(190.869141 0)"/>
       <use xlink:href="#DejaVuSans-30" transform="translate(254.492188 0)"/>
      </g>
     </g>
    </g>
    <g id="text_11">
     <!-- Closing Price -->
     <g transform="translate(14.798438 121.051406) rotate(-90) scale(0.1 -0.1)">
      <defs>
       <path id="DejaVuSans-43" d="M 4122 4306 
L 4122 3641 
Q 3803 3938 3442 4084 
Q 3081 4231 2675 4231 
Q 1875 4231 1450 3742 
Q 1025 3253 1025 2328 
Q 1025 1406 1450 917 
Q 1875 428 2675 428 
Q 3081 428 3442 575 
Q 3803 722 4122 1019 
L 4122 359 
Q 3791 134 3420 21 
Q 3050 -91 2638 -91 
Q 1578 -91 968 557 
Q 359 1206 359 2328 
Q 359 3453 968 4101 
Q 1578 4750 2638 4750 
Q 3056 4750 3426 4639 
Q 3797 4528 4122 4306 
z
" transform="scale(0.015625)"/>
       <path id="DejaVuSans-6c" d="M 603 4863 
L 1178 4863 
L 1178 0 
L 603 0 
L 603 4863 
z
" transform="scale(0.015625)"/>
       <path id="DejaVuSans-6f" d="M 1959 3097 
Q 1497 3097 1228 2736 
Q 959 2375 959 1747 
Q 959 1119 1226 758 
Q 1494 397 1959 397 
Q 2419 397 2687 759 
Q 2956 1122 2956 1747 
Q 2956 2369 2687 2733 
Q 2419 3097 1959 3097 
z
M 1959 3584 
Q 2709 3584 3137 3096 
Q 3566 2609 3566 1747 
Q 3566 888 3137 398 
Q 2709 -91 1959 -91 
Q 1206 -91 779 398 
Q 353 888 353 1747 
Q 353 2609 779 3096 
Q 1206 3584 1959 3584 
z
" transform="scale(0.015625)"/>
       <path id="DejaVuSans-73" d="M 2834 3397 
L 2834 2853 
Q 2591 2978 2328 3040 
Q 2066 3103 1784 3103 
Q 1356 3103 1142 2972 
Q 928 2841 928 2578 
Q 928 2378 1081 2264 
Q 1234 2150 1697 2047 
L 1894 2003 
Q 2506 1872 2764 1633 
Q 3022 1394 3022 966 
Q 3022 478 2636 193 
Q 2250 -91 1575 -91 
Q 1294 -91 989 -36 
Q 684 19 347 128 
L 347 722 
Q 666 556 975 473 
Q 1284 391 1588 391 
Q 1994 391 2212 530 
Q 2431 669 2431 922 
Q 2431 1156 2273 1281 
Q 2116 1406 1581 1522 
L 1381 1569 
Q 847 1681 609 1914 
Q 372 2147 372 2553 
Q 372 3047 722 3315 
Q 1072 3584 1716 3584 
Q 2034 3584 2315 3537 
Q 2597 3491 2834 3397 
z
" transform="scale(0.015625)"/>
       <path id="DejaVuSans-69" d="M 603 3500 
L 1178 3500 
L 1178 0 
L 603 0 
L 603 3500 
z
M 603 4863 
L 1178 4863 
L 1178 4134 
L 603 4134 
L 603 4863 
z
" transform="scale(0.015625)"/>
       <path id="DejaVuSans-6e" d="M 3513 2113 
L 3513 0 
L 2938 0 
L 2938 2094 
Q 2938 2591 2744 2837 
Q 2550 3084 2163 3084 
Q 1697 3084 1428 2787 
Q 1159 2491 1159 1978 
L 1159 0 
L 581 0 
L 581 3500 
L 1159 3500 
L 1159 2956 
Q 1366 3272 1645 3428 
Q 1925 3584 2291 3584 
Q 2894 3584 3203 3211 
Q 3513 2838 3513 2113 
z
" transform="scale(0.015625)"/>
       <path id="DejaVuSans-67" d="M 2906 1791 
Q 2906 2416 2648 2759 
Q 2391 3103 1925 3103 
Q 1463 3103 1205 2759 
Q 947 2416 947 1791 
Q 947 1169 1205 825 
Q 1463 481 1925 481 
Q 2391 481 2648 825 
Q 2906 1169 2906 1791 
z
M 3481 434 
Q 3481 -459 3084 -895 
Q 2688 -1331 1869 -1331 
Q 1566 -1331 1297 -1286 
Q 1028 -1241 775 -1147 
L 775 -588 
Q 1028 -725 1275 -790 
Q 1522 -856 1778 -856 
Q 2344 -856 2625 -561 
Q 2906 -266 2906 331 
L 2906 616 
Q 2728 306 2450 153 
Q 2172 0 1784 0 
Q 1141 0 747 490 
Q 353 981 353 1791 
Q 353 2603 747 3093 
Q 1141 3584 1784 3584 
Q 2172 3584 2450 3431 
Q 2728 3278 2906 2969 
L 2906 3500 
L 3481 3500 
L 3481 434 
z
" transform="scale(0.015625)"/>
       <path id="DejaVuSans-20" transform="scale(0.015625)"/>
       <path id="DejaVuSans-50" d="M 1259 4147 
L 1259 2394 
L 2053 2394 
Q 2494 2394 2734 2622 
Q 2975 2850 2975 3272 
Q 2975 3691 2734 3919 
Q 2494 4147 2053 4147 
L 1259 4147 
z
M 628 4666 
L 2053 4666 
Q 2838 4666 3239 4311 
Q 3641 3956 3641 3272 
Q 3641 2581 3239 2228 
Q 2838 1875 2053 1875 
L 1259 1875 
L 1259 0 
L 628 0 
L 628 4666 
z
" transform="scale(0.015625)"/>
       <path id="DejaVuSans-72" d="M 2631 2963 
Q 2534 3019 2420 3045 
Q 2306 3072 2169 3072 
Q 1681 3072 1420 2755 
Q 1159 2438 1159 1844 
L 1159 0 
L 581 0 
L 581 3500 
L 1159 3500 
L 1159 2956 
Q 1341 3275 1631 3429 
Q 1922 3584 2338 3584 
Q 2397 3584 2469 3576 
Q 2541 3569 2628 3553 
L 2631 2963 
z
" transform="scale(0.015625)"/>
       <path id="DejaVuSans-63" d="M 3122 3366 
L 3122 2828 
Q 2878 2963 2633 3030 
Q 2388 3097 2138 3097 
Q 1578 3097 1268 2742 
Q 959 2388 959 1747 
Q 959 1106 1268 751 
Q 1578 397 2138 397 
Q 2388 397 2633 464 
Q 2878 531 3122 666 
L 3122 134 
Q 2881 22 2623 -34 
Q 2366 -91 2075 -91 
Q 1284 -91 818 406 
Q 353 903 353 1747 
Q 353 2603 823 3093 
Q 1294 3584 2113 3584 
Q 2378 3584 2631 3529 
Q 2884 3475 3122 3366 
z
" transform="scale(0.015625)"/>
      </defs>
      <use xlink:href="#DejaVuSans-43"/>
      <use xlink:href="#DejaVuSans-6c" transform="translate(69.824219 0)"/>
      <use xlink:href="#DejaVuSans-6f" transform="translate(97.607422 0)"/>
      <use xlink:href="#DejaVuSans-73" transform="translate(158.789062 0)"/>
      <use xlink:href="#DejaVuSans-69" transform="translate(210.888672 0)"/>
      <use xlink:href="#DejaVuSans-6e" transform="translate(238.671875 0)"/>
      <use xlink:href="#DejaVuSans-67" transform="translate(302.050781 0)"/>
      <use xlink:href="#DejaVuSans-20" transform="translate(365.527344 0)"/>
      <use xlink:href="#DejaVuSans-50" transform="translate(397.314453 0)"/>
      <use xlink:href="#DejaVuSans-72" transform="translate(455.867188 0)"/>
      <use xlink:href="#DejaVuSans-69" transform="translate(496.980469 0)"/>
      <use xlink:href="#DejaVuSans-63" transform="translate(524.763672 0)"/>
      <use xlink:href="#DejaVuSans-65" transform="translate(579.744141 0)"/>
     </g>
    </g>
   </g>
   <g id="line2d_19">
    <path d="M 108.678352 136.612839 
L 118.485492 134.639947 
L 124.988051 133.098816 
L 128.292631 133.996755 
L 134.795191 135.309614 
L 137.993171 133.50344 
L 147.587112 136.110552 
L 157.394251 133.495865 
L 163.896811 138.479244 
L 173.70395 143.621545 
L 183.51109 147.34597 
L 186.495871 147.172927 
L 189.800451 145.791381 
L 199.500991 143.289653 
L 202.805571 144.044334 
L 212.61271 146.736827 
L 228.709211 146.278224 
L 238.409751 145.444119 
L 241.71433 144.704882 
L 245.01891 145.276077 
L 254.71945 144.580817 
L 264.41999 139.992062 
L 267.724569 139.072869 
L 274.227129 142.45746 
L 277.425109 144.278121 
L 284.034269 146.174237 
L 293.734809 145.560976 
L 300.343968 146.621588 
L 303.328749 144.546106 
L 306.633329 145.013093 
L 313.135889 149.191415 
L 316.333869 149.10368 
L 319.638449 147.911576 
L 322.943028 147.080192 
L 329.445588 149.597216 
L 332.643568 149.428439 
L 342.237509 144.327468 
L 352.044648 137.103654 
L 358.547208 140.346089 
L 361.851788 138.807679 
L 368.354348 135.024568 
L 371.552328 126.899064 
L 378.161487 112.539539 
L 381.146269 111.776843 
L 390.953408 77.739433 
L 397.455968 60.36523 
L 407.263107 28.379034 
L 417.070247 53.145902 
L 423.466207 77.534032 
L 433.166747 102.270748 
L 436.471327 98.88829 
L 439.775906 112.652793 
L 449.476446 119.427931 
L 462.374967 101.874728 
L 468.877526 92.53116 
L 472.075507 82.033803 
L 478.684666 91.112255 
L 488.385206 68.550596 
L 494.994365 81.001578 
L 497.979147 76.595351 
L 501.283726 75.876117 
L 507.786286 94.905735 
L 510.984266 101.484298 
L 517.593425 85.931565 
L 524.095985 68.097582 
L 527.293965 78.638917 
L 532.623932 84.107741 
L 533.903125 80.983928 
L 535.395515 75.68844 
L 536.887906 73.944482 
L 537.953899 74.685043 
L 540.192486 75.777866 
L 541.684876 73.819241 
L 544.456459 79.431398 
L 546.695045 83.12898 
L 548.080837 82.892104 
L 549.893026 79.611868 
L 553.197605 80.903694 
L 554.0504 85.958481 
L 556.502185 85.680642 
L 557.35498 89.066998 
L 561.085957 92.406729 
L 563.004745 92.38143 
L 563.857539 91.026947 
L 566.202725 96.233817 
L 567.05552 99.451911 
L 570.679897 101.506213 
L 572.811884 101.561663 
L 573.664679 98.860197 
L 575.903265 95.181442 
L 576.75606 93.170676 
L 580.060639 97.755754 
L 583.471818 94.075013 
L 585.710404 94.557517 
L 589.761179 99.331229 
L 592.212964 101.763313 
L 593.065759 100.501566 
L 600.207915 105.76396 
L 602.020104 105.461117 
L 602.872898 107.71501 
L 609.588657 102.85349 
L 611.827243 96.95136 
L 612.573438 95.709983 
L 614.812025 98.202665 
L 618.116604 103.441599 
L 618.969399 103.034548 
L 622.167379 102.615583 
L 627.817144 112.408342 
L 628.669939 113.276202 
L 631.121724 110.839632 
L 631.974518 109.264525 
L 635.279098 106.626084 
L 639.010075 104.748134 
L 640.928863 107.016 
L 644.979638 106.516213 
L 648.284218 112.200514 
L 652.121794 111.192925 
L 657.025364 115.624817 
L 658.091357 113.376513 
L 661.076139 116.497531 
L 664.487318 115.179524 
L 666.725904 115.504283 
L 667.578698 116.274922 
L 670.030483 111.213296 
L 673.335063 110.770724 
L 674.401056 109.470808 
L 678.025434 108.881007 
L 680.797017 107.321196 
L 683.035603 102.279647 
L 683.994997 91.617998 
L 687.192977 85.887293 
L 690.604156 87.270899 
L 693.588938 84.181944 
L 695.934123 70.66454 
L 696.893517 66.115203 
L 703.289478 41.216549 
L 705.634663 68.781148 
L 706.487458 84.522514 
L 712.243822 94.434556 
L 713.203217 92.506818 
L 716.827594 89.000149 
L 719.705776 77.240529 
L 721.944363 80.324557 
L 722.797157 79.598998 
L 728.553522 100.615775 
L 730.36571 94.773729 
L 731.644903 100.615849 
L 732.604297 100.113194 
L 734.949482 92.837754 
L 736.015476 91.146672 
L 739.106856 97.15051 
L 741.452042 94.091707 
L 744.650022 92.258396 
L 747.954602 94.265705 
L 748.807396 91.476284 
L 751.259181 90.706086 
L 752.111976 90.020093 
L 755.842953 90.042964 
L 757.761741 89.774833 
L 758.614536 90.503112 
L 760.959721 87.62728 
L 761.812516 89.822782 
L 765.223695 93.376885 
L 768.954672 93.681493 
L 770.553662 92.551164 
L 773.751642 92.476887 
L 775.030834 91.310596 
L 778.015616 97.4182 
L 780.254202 96.62366 
L 781.213596 94.324759 
L 783.452182 91.734929 
L 784.518176 91.911502 
L 786.756762 91.91562 
L 787.716156 91.624764 
L 790.061342 89.624073 
L 794.964911 86.28118 
L 796.563901 85.572095 
L 797.523295 84.207022 
L 799.761882 88.686716 
L 804.132455 85.061278 
L 806.371041 87.101313 
L 807.330435 95.620704 
L 810.315216 86.842227 
L 813.832995 89.684892 
L 816.924376 90.262926 
L 819.162962 93.454913 
L 823.426935 101.473119 
L 825.665522 101.669107 
L 826.624916 104.806231 
L 828.970101 106.914881 
L 830.036095 109.172451 
L 833.873671 115.493399 
L 835.472661 114.141342 
L 836.432055 112.922616 
L 838.670641 112.678459 
L 843.041214 114.540083 
L 845.2798 114.167891 
L 846.87879 109.414108 
L 848.264582 102.749061 
L 852.741754 94.464855 
L 854.767142 98.023298 
L 855.726536 103.886156 
L 859.350913 103.316873 
L 864.574281 100.581946 
L 865.533675 104.490151 
L 868.944854 95.887659 
L 871.076841 99.702172 
L 872.675831 98.043889 
L 874.38142 98.311579 
L 878.645394 96.248452 
L 880.88398 92.461811 
L 881.843374 89.024491 
L 885.254553 90.27256 
L 888.345934 85.30845 
L 890.58452 95.907 
L 891.650514 93.435204 
L 893.782501 90.321686 
L 895.061693 88.16119 
L 898.153074 85.805662 
L 900.28506 80.97775 
L 901.244454 68.016907 
L 903.58964 68.87631 
L 904.655633 68.73342 
L 906.89422 67.991241 
L 907.853614 74.584071 
L 910.0922 74.247987 
L 911.69119 68.971841 
L 914.462773 66.262212 
L 916.59476 68.639287 
L 917.554154 68.297908 
L 919.899339 62.751792 
L 921.071932 58.010585 
L 924.269912 51.782594 
L 927.254694 69.424487 
L 929.49328 67.840923 
L 930.452674 67.586176 
L 932.69126 62.987933 
L 933.863853 66.457464 
L 935.99584 58.885726 
L 936.955234 60.930027 
L 939.19382 57.669942 
L 940.153214 60.003701 
L 943.457794 59.289762 
L 945.802979 63.798284 
L 946.762373 61.076153 
L 949.000959 63.940734 
L 950.49335 63.702681 
L 953.371532 62.419385 
L 955.503519 60.361332 
L 956.462913 57.771649 
L 958.808099 59.908171 
L 960.087291 63.115674 
L 963.818268 70.799562 
L 965.204059 69.973841 
L 966.056854 80.133349 
L 968.402039 80.051865 
L 969.574632 84.449929 
L 972.772612 87.47049 
L 974.904599 84.395435 
L 975.970593 80.662994 
L 978.10258 74.330721 
L 982.473153 79.27777 
L 984.711739 82.276195 
L 985.671133 81.820239 
L 987.909719 89.903751 
L 989.40211 87.380476 
L 991.214299 92.709866 
L 992.173693 87.86901 
L 994.412279 87.477697 
L 995.371673 84.586936 
L 998.99605 84.850582 
L 1001.021438 80.912225 
L 1002.087431 81.091739 
L 1004.112819 81.551593 
L 1004.965614 84.010299 
L 1007.310799 82.933581 
L 1008.483392 81.824946 
L 1011.681372 87.227436 
L 1013.813359 89.791674 
L 1014.772753 89.791086 
L 1017.011339 88.080074 
L 1018.077333 88.696056 
L 1020.315919 86.923122 
L 1021.275313 87.9855 
L 1023.620498 92.554179 
L 1028.20427 95.127609 
L 1030.123058 96.631382 
L 1031.082452 95.393755 
L 1033.321038 97.638015 
L 1037.90481 103.011383 
L 1039.930197 108.772754 
L 1040.782992 104.303209 
L 1043.128178 99.786671 
L 1047.498751 100.771977 
L 1049.524138 98.666122 
L 1054.10791 100.998705 
L 1057.092691 105.210561 
L 1059.331278 104.792332 
L 1060.290672 107.442687 
L 1063.595251 109.872711 
L 1065.833837 91.733826 
L 1069.138417 91.281841 
L 1073.295791 90.249027 
L 1075.640977 92.580654 
L 1076.600371 95.806248 
L 1078.519159 94.48199 
L 1085.234917 91.920841 
L 1086.300911 97.434158 
L 1088.432898 96.366486 
L 1088.432898 96.366486 
" clip-path="url(#pb7b0b55401)" style="fill: none; stroke: #0000ff; stroke-width: 1.5; stroke-linecap: square"/>
   </g>
   <g id="patch_3">
    <path d="M 59.690625 155.658125 
L 59.690625 22.318125 
" style="fill: none; stroke: #000000; stroke-width: 0.8; stroke-linejoin: miter; stroke-linecap: square"/>
   </g>
   <g id="patch_4">
    <path d="M 1137.420625 155.658125 
L 1137.420625 22.318125 
" style="fill: none; stroke: #000000; stroke-width: 0.8; stroke-linejoin: miter; stroke-linecap: square"/>
   </g>
   <g id="patch_5">
    <path d="M 59.690625 155.658125 
L 1137.420625 155.658125 
" style="fill: none; stroke: #000000; stroke-width: 0.8; stroke-linejoin: miter; stroke-linecap: square"/>
   </g>
   <g id="patch_6">
    <path d="M 59.690625 22.318125 
L 1137.420625 22.318125 
" style="fill: none; stroke: #000000; stroke-width: 0.8; stroke-linejoin: miter; stroke-linecap: square"/>
   </g>
   <g id="text_12">
    <!-- 399001 Closing Price -->
    <g transform="translate(535.267812 16.318125) scale(0.12 -0.12)">
     <defs>
      <path id="DejaVuSans-33" d="M 2597 2516 
Q 3050 2419 3304 2112 
Q 3559 1806 3559 1356 
Q 3559 666 3084 287 
Q 2609 -91 1734 -91 
Q 1441 -91 1130 -33 
Q 819 25 488 141 
L 488 750 
Q 750 597 1062 519 
Q 1375 441 1716 441 
Q 2309 441 2620 675 
Q 2931 909 2931 1356 
Q 2931 1769 2642 2001 
Q 2353 2234 1838 2234 
L 1294 2234 
L 1294 2753 
L 1863 2753 
Q 2328 2753 2575 2939 
Q 2822 3125 2822 3475 
Q 2822 3834 2567 4026 
Q 2313 4219 1838 4219 
Q 1578 4219 1281 4162 
Q 984 4106 628 3988 
L 628 4550 
Q 988 4650 1302 4700 
Q 1616 4750 1894 4750 
Q 2613 4750 3031 4423 
Q 3450 4097 3450 3541 
Q 3450 3153 3228 2886 
Q 3006 2619 2597 2516 
z
" transform="scale(0.015625)"/>
      <path id="DejaVuSans-39" d="M 703 97 
L 703 672 
Q 941 559 1184 500 
Q 1428 441 1663 441 
Q 2288 441 2617 861 
Q 2947 1281 2994 2138 
Q 2813 1869 2534 1725 
Q 2256 1581 1919 1581 
Q 1219 1581 811 2004 
Q 403 2428 403 3163 
Q 403 3881 828 4315 
Q 1253 4750 1959 4750 
Q 2769 4750 3195 4129 
Q 3622 3509 3622 2328 
Q 3622 1225 3098 567 
Q 2575 -91 1691 -91 
Q 1453 -91 1209 -44 
Q 966 3 703 97 
z
M 1959 2075 
Q 2384 2075 2632 2365 
Q 2881 2656 2881 3163 
Q 2881 3666 2632 3958 
Q 2384 4250 1959 4250 
Q 1534 4250 1286 3958 
Q 1038 3666 1038 3163 
Q 1038 2656 1286 2365 
Q 1534 2075 1959 2075 
z
" transform="scale(0.015625)"/>
     </defs>
     <use xlink:href="#DejaVuSans-33"/>
     <use xlink:href="#DejaVuSans-39" transform="translate(63.623047 0)"/>
     <use xlink:href="#DejaVuSans-39" transform="translate(127.246094 0)"/>
     <use xlink:href="#DejaVuSans-30" transform="translate(190.869141 0)"/>
     <use xlink:href="#DejaVuSans-30" transform="translate(254.492188 0)"/>
     <use xlink:href="#DejaVuSans-31" transform="translate(318.115234 0)"/>
     <use xlink:href="#DejaVuSans-20" transform="translate(381.738281 0)"/>
     <use xlink:href="#DejaVuSans-43" transform="translate(413.525391 0)"/>
     <use xlink:href="#DejaVuSans-6c" transform="translate(483.349609 0)"/>
     <use xlink:href="#DejaVuSans-6f" transform="translate(511.132812 0)"/>
     <use xlink:href="#DejaVuSans-73" transform="translate(572.314453 0)"/>
     <use xlink:href="#DejaVuSans-69" transform="translate(624.414062 0)"/>
     <use xlink:href="#DejaVuSans-6e" transform="translate(652.197266 0)"/>
     <use xlink:href="#DejaVuSans-67" transform="translate(715.576172 0)"/>
     <use xlink:href="#DejaVuSans-20" transform="translate(779.052734 0)"/>
     <use xlink:href="#DejaVuSans-50" transform="translate(810.839844 0)"/>
     <use xlink:href="#DejaVuSans-72" transform="translate(869.392578 0)"/>
     <use xlink:href="#DejaVuSans-69" transform="translate(910.505859 0)"/>
     <use xlink:href="#DejaVuSans-63" transform="translate(938.289062 0)"/>
     <use xlink:href="#DejaVuSans-65" transform="translate(993.269531 0)"/>
    </g>
   </g>
   <g id="legend_1">
    <g id="patch_7">
     <path d="M 1034.294063 44.99625 
L 1130.420625 44.99625 
Q 1132.420625 44.99625 1132.420625 42.99625 
L 1132.420625 29.318125 
Q 1132.420625 27.318125 1130.420625 27.318125 
L 1034.294063 27.318125 
Q 1032.294063 27.318125 1032.294063 29.318125 
L 1032.294063 42.99625 
Q 1032.294063 44.99625 1034.294063 44.99625 
z
" style="fill: #ffffff; opacity: 0.8; stroke: #cccccc; stroke-linejoin: miter"/>
    </g>
    <g id="line2d_20">
     <path d="M 1036.294063 35.416562 
L 1046.294063 35.416562 
L 1056.294063 35.416562 
" style="fill: none; stroke: #0000ff; stroke-width: 1.5; stroke-linecap: square"/>
    </g>
    <g id="text_13">
     <!-- Closing Price -->
     <g transform="translate(1064.294063 38.916562) scale(0.1 -0.1)">
      <use xlink:href="#DejaVuSans-43"/>
      <use xlink:href="#DejaVuSans-6c" transform="translate(69.824219 0)"/>
      <use xlink:href="#DejaVuSans-6f" transform="translate(97.607422 0)"/>
      <use xlink:href="#DejaVuSans-73" transform="translate(158.789062 0)"/>
      <use xlink:href="#DejaVuSans-69" transform="translate(210.888672 0)"/>
      <use xlink:href="#DejaVuSans-6e" transform="translate(238.671875 0)"/>
      <use xlink:href="#DejaVuSans-67" transform="translate(302.050781 0)"/>
      <use xlink:href="#DejaVuSans-20" transform="translate(365.527344 0)"/>
      <use xlink:href="#DejaVuSans-50" transform="translate(397.314453 0)"/>
      <use xlink:href="#DejaVuSans-72" transform="translate(455.867188 0)"/>
      <use xlink:href="#DejaVuSans-69" transform="translate(496.980469 0)"/>
      <use xlink:href="#DejaVuSans-63" transform="translate(524.763672 0)"/>
      <use xlink:href="#DejaVuSans-65" transform="translate(579.744141 0)"/>
     </g>
    </g>
   </g>
  </g>
  <g id="axes_2">
   <g id="patch_8">
    <path d="M 59.690625 332.958125 
L 1137.420625 332.958125 
L 1137.420625 199.618125 
L 59.690625 199.618125 
z
" style="fill: #ffffff"/>
   </g>
   <g id="matplotlib.axis_3">
    <g id="xtick_7">
     <g id="line2d_21">
      <path d="M 102.282392 332.958125 
L 102.282392 199.618125 
" clip-path="url(#pe3b1b85a0c)" style="fill: none; stroke: #b0b0b0; stroke-width: 0.8; stroke-linecap: square"/>
     </g>
     <g id="line2d_22">
      <g>
       <use xlink:href="#m1e8bb0bb1b" x="102.282392" y="332.958125" style="stroke: #000000; stroke-width: 0.8"/>
      </g>
     </g>
     <g id="text_14">
      <!-- 2000 -->
      <g transform="translate(89.557392 347.556562) scale(0.1 -0.1)">
       <use xlink:href="#DejaVuSans-32"/>
       <use xlink:href="#DejaVuSans-30" transform="translate(63.623047 0)"/>
       <use xlink:href="#DejaVuSans-30" transform="translate(127.246094 0)"/>
       <use xlink:href="#DejaVuSans-30" transform="translate(190.869141 0)"/>
      </g>
     </g>
    </g>
    <g id="xtick_8">
     <g id="line2d_23">
      <path d="M 297.039388 332.958125 
L 297.039388 199.618125 
" clip-path="url(#pe3b1b85a0c)" style="fill: none; stroke: #b0b0b0; stroke-width: 0.8; stroke-linecap: square"/>
     </g>
     <g id="line2d_24">
      <g>
       <use xlink:href="#m1e8bb0bb1b" x="297.039388" y="332.958125" style="stroke: #000000; stroke-width: 0.8"/>
      </g>
     </g>
     <g id="text_15">
      <!-- 2005 -->
      <g transform="translate(284.314388 347.556562) scale(0.1 -0.1)">
       <use xlink:href="#DejaVuSans-32"/>
       <use xlink:href="#DejaVuSans-30" transform="translate(63.623047 0)"/>
       <use xlink:href="#DejaVuSans-30" transform="translate(127.246094 0)"/>
       <use xlink:href="#DejaVuSans-35" transform="translate(190.869141 0)"/>
      </g>
     </g>
    </g>
    <g id="xtick_9">
     <g id="line2d_25">
      <path d="M 491.689785 332.958125 
L 491.689785 199.618125 
" clip-path="url(#pe3b1b85a0c)" style="fill: none; stroke: #b0b0b0; stroke-width: 0.8; stroke-linecap: square"/>
     </g>
     <g id="line2d_26">
      <g>
       <use xlink:href="#m1e8bb0bb1b" x="491.689785" y="332.958125" style="stroke: #000000; stroke-width: 0.8"/>
      </g>
     </g>
     <g id="text_16">
      <!-- 2010 -->
      <g transform="translate(478.964785 347.556562) scale(0.1 -0.1)">
       <use xlink:href="#DejaVuSans-32"/>
       <use xlink:href="#DejaVuSans-30" transform="translate(63.623047 0)"/>
       <use xlink:href="#DejaVuSans-31" transform="translate(127.246094 0)"/>
       <use xlink:href="#DejaVuSans-30" transform="translate(190.869141 0)"/>
      </g>
     </g>
    </g>
    <g id="xtick_10">
     <g id="line2d_27">
      <path d="M 686.340183 332.958125 
L 686.340183 199.618125 
" clip-path="url(#pe3b1b85a0c)" style="fill: none; stroke: #b0b0b0; stroke-width: 0.8; stroke-linecap: square"/>
     </g>
     <g id="line2d_28">
      <g>
       <use xlink:href="#m1e8bb0bb1b" x="686.340183" y="332.958125" style="stroke: #000000; stroke-width: 0.8"/>
      </g>
     </g>
     <g id="text_17">
      <!-- 2015 -->
      <g transform="translate(673.615183 347.556562) scale(0.1 -0.1)">
       <use xlink:href="#DejaVuSans-32"/>
       <use xlink:href="#DejaVuSans-30" transform="translate(63.623047 0)"/>
       <use xlink:href="#DejaVuSans-31" transform="translate(127.246094 0)"/>
       <use xlink:href="#DejaVuSans-35" transform="translate(190.869141 0)"/>
      </g>
     </g>
    </g>
    <g id="xtick_11">
     <g id="line2d_29">
      <path d="M 880.99058 332.958125 
L 880.99058 199.618125 
" clip-path="url(#pe3b1b85a0c)" style="fill: none; stroke: #b0b0b0; stroke-width: 0.8; stroke-linecap: square"/>
     </g>
     <g id="line2d_30">
      <g>
       <use xlink:href="#m1e8bb0bb1b" x="880.99058" y="332.958125" style="stroke: #000000; stroke-width: 0.8"/>
      </g>
     </g>
     <g id="text_18">
      <!-- 2020 -->
      <g transform="translate(868.26558 347.556562) scale(0.1 -0.1)">
       <use xlink:href="#DejaVuSans-32"/>
       <use xlink:href="#DejaVuSans-30" transform="translate(63.623047 0)"/>
       <use xlink:href="#DejaVuSans-32" transform="translate(127.246094 0)"/>
       <use xlink:href="#DejaVuSans-30" transform="translate(190.869141 0)"/>
      </g>
     </g>
    </g>
    <g id="xtick_12">
     <g id="line2d_31">
      <path d="M 1075.747576 332.958125 
L 1075.747576 199.618125 
" clip-path="url(#pe3b1b85a0c)" style="fill: none; stroke: #b0b0b0; stroke-width: 0.8; stroke-linecap: square"/>
     </g>
     <g id="line2d_32">
      <g>
       <use xlink:href="#m1e8bb0bb1b" x="1075.747576" y="332.958125" style="stroke: #000000; stroke-width: 0.8"/>
      </g>
     </g>
     <g id="text_19">
      <!-- 2025 -->
      <g transform="translate(1063.022576 347.556562) scale(0.1 -0.1)">
       <use xlink:href="#DejaVuSans-32"/>
       <use xlink:href="#DejaVuSans-30" transform="translate(63.623047 0)"/>
       <use xlink:href="#DejaVuSans-32" transform="translate(127.246094 0)"/>
       <use xlink:href="#DejaVuSans-35" transform="translate(190.869141 0)"/>
      </g>
     </g>
    </g>
    <g id="text_20">
     <!-- Date -->
     <g transform="translate(586.604844 361.234687) scale(0.1 -0.1)">
      <use xlink:href="#DejaVuSans-44"/>
      <use xlink:href="#DejaVuSans-61" transform="translate(77.001953 0)"/>
      <use xlink:href="#DejaVuSans-74" transform="translate(138.28125 0)"/>
      <use xlink:href="#DejaVuSans-65" transform="translate(177.490234 0)"/>
     </g>
    </g>
   </g>
   <g id="matplotlib.axis_4">
    <g id="ytick_4">
     <g id="line2d_33">
      <path d="M 59.690625 315.533011 
L 1137.420625 315.533011 
" clip-path="url(#pe3b1b85a0c)" style="fill: none; stroke: #b0b0b0; stroke-width: 0.8; stroke-linecap: square"/>
     </g>
     <g id="line2d_34">
      <g>
       <use xlink:href="#md894134fae" x="59.690625" y="315.533011" style="stroke: #000000; stroke-width: 0.8"/>
      </g>
     </g>
     <g id="text_21">
      <!-- −1 -->
      <g transform="translate(37.948438 319.33223) scale(0.1 -0.1)">
       <defs>
        <path id="DejaVuSans-2212" d="M 678 2272 
L 4684 2272 
L 4684 1741 
L 678 1741 
L 678 2272 
z
" transform="scale(0.015625)"/>
       </defs>
       <use xlink:href="#DejaVuSans-2212"/>
       <use xlink:href="#DejaVuSans-31" transform="translate(83.789062 0)"/>
      </g>
     </g>
    </g>
    <g id="ytick_5">
     <g id="line2d_35">
      <path d="M 59.690625 277.65233 
L 1137.420625 277.65233 
" clip-path="url(#pe3b1b85a0c)" style="fill: none; stroke: #b0b0b0; stroke-width: 0.8; stroke-linecap: square"/>
     </g>
     <g id="line2d_36">
      <g>
       <use xlink:href="#md894134fae" x="59.690625" y="277.65233" style="stroke: #000000; stroke-width: 0.8"/>
      </g>
     </g>
     <g id="text_22">
      <!-- 0 -->
      <g transform="translate(46.328125 281.451548) scale(0.1 -0.1)">
       <use xlink:href="#DejaVuSans-30"/>
      </g>
     </g>
    </g>
    <g id="ytick_6">
     <g id="line2d_37">
      <path d="M 59.690625 239.771648 
L 1137.420625 239.771648 
" clip-path="url(#pe3b1b85a0c)" style="fill: none; stroke: #b0b0b0; stroke-width: 0.8; stroke-linecap: square"/>
     </g>
     <g id="line2d_38">
      <g>
       <use xlink:href="#md894134fae" x="59.690625" y="239.771648" style="stroke: #000000; stroke-width: 0.8"/>
      </g>
     </g>
     <g id="text_23">
      <!-- 1 -->
      <g transform="translate(46.328125 243.570866) scale(0.1 -0.1)">
       <use xlink:href="#DejaVuSans-31"/>
      </g>
     </g>
    </g>
    <g id="ytick_7">
     <g id="line2d_39">
      <path d="M 59.690625 201.890966 
L 1137.420625 201.890966 
" clip-path="url(#pe3b1b85a0c)" style="fill: none; stroke: #b0b0b0; stroke-width: 0.8; stroke-linecap: square"/>
     </g>
     <g id="line2d_40">
      <g>
       <use xlink:href="#md894134fae" x="59.690625" y="201.890966" style="stroke: #000000; stroke-width: 0.8"/>
      </g>
     </g>
     <g id="text_24">
      <!-- 2 -->
      <g transform="translate(46.328125 205.690185) scale(0.1 -0.1)">
       <use xlink:href="#DejaVuSans-32"/>
      </g>
     </g>
    </g>
    <g id="text_25">
     <!-- Inflation Rate -->
     <g transform="translate(31.86875 299.774062) rotate(-90) scale(0.1 -0.1)">
      <defs>
       <path id="DejaVuSans-49" d="M 628 4666 
L 1259 4666 
L 1259 0 
L 628 0 
L 628 4666 
z
" transform="scale(0.015625)"/>
       <path id="DejaVuSans-66" d="M 2375 4863 
L 2375 4384 
L 1825 4384 
Q 1516 4384 1395 4259 
Q 1275 4134 1275 3809 
L 1275 3500 
L 2222 3500 
L 2222 3053 
L 1275 3053 
L 1275 0 
L 697 0 
L 697 3053 
L 147 3053 
L 147 3500 
L 697 3500 
L 697 3744 
Q 697 4328 969 4595 
Q 1241 4863 1831 4863 
L 2375 4863 
z
" transform="scale(0.015625)"/>
       <path id="DejaVuSans-52" d="M 2841 2188 
Q 3044 2119 3236 1894 
Q 3428 1669 3622 1275 
L 4263 0 
L 3584 0 
L 2988 1197 
Q 2756 1666 2539 1819 
Q 2322 1972 1947 1972 
L 1259 1972 
L 1259 0 
L 628 0 
L 628 4666 
L 2053 4666 
Q 2853 4666 3247 4331 
Q 3641 3997 3641 3322 
Q 3641 2881 3436 2590 
Q 3231 2300 2841 2188 
z
M 1259 4147 
L 1259 2491 
L 2053 2491 
Q 2509 2491 2742 2702 
Q 2975 2913 2975 3322 
Q 2975 3731 2742 3939 
Q 2509 4147 2053 4147 
L 1259 4147 
z
" transform="scale(0.015625)"/>
      </defs>
      <use xlink:href="#DejaVuSans-49"/>
      <use xlink:href="#DejaVuSans-6e" transform="translate(29.492188 0)"/>
      <use xlink:href="#DejaVuSans-66" transform="translate(92.871094 0)"/>
      <use xlink:href="#DejaVuSans-6c" transform="translate(128.076172 0)"/>
      <use xlink:href="#DejaVuSans-61" transform="translate(155.859375 0)"/>
      <use xlink:href="#DejaVuSans-74" transform="translate(217.138672 0)"/>
      <use xlink:href="#DejaVuSans-69" transform="translate(256.347656 0)"/>
      <use xlink:href="#DejaVuSans-6f" transform="translate(284.130859 0)"/>
      <use xlink:href="#DejaVuSans-6e" transform="translate(345.3125 0)"/>
      <use xlink:href="#DejaVuSans-20" transform="translate(408.691406 0)"/>
      <use xlink:href="#DejaVuSans-52" transform="translate(440.478516 0)"/>
      <use xlink:href="#DejaVuSans-61" transform="translate(507.710938 0)"/>
      <use xlink:href="#DejaVuSans-74" transform="translate(568.990234 0)"/>
      <use xlink:href="#DejaVuSans-65" transform="translate(608.199219 0)"/>
     </g>
    </g>
   </g>
   <g id="line2d_41">
    <path d="M 108.678352 205.679034 
L 118.485492 315.533011 
L 124.988051 307.956875 
L 128.292631 239.771648 
L 134.795191 281.440398 
L 137.993171 251.135852 
L 147.587112 273.864261 
L 157.394251 296.59267 
L 163.896811 296.59267 
L 173.70395 266.288125 
L 183.51109 266.288125 
L 186.495871 235.98358 
L 189.800451 326.897216 
L 199.500991 311.744943 
L 202.805571 304.168807 
L 212.61271 270.076193 
L 228.709211 300.380739 
L 238.409751 323.109148 
L 241.71433 296.59267 
L 245.01891 251.135852 
L 254.71945 239.771648 
L 264.41999 285.228466 
L 267.724569 266.288125 
L 274.227129 281.440398 
L 277.425109 304.168807 
L 284.034269 251.135852 
L 290.536828 277.65233 
L 293.734809 289.016534 
L 300.343968 254.92392 
L 303.328749 209.467102 
L 306.633329 311.744943 
L 313.135889 285.228466 
L 316.333869 307.956875 
L 319.638449 277.65233 
L 322.943028 270.076193 
L 329.445588 262.500057 
L 332.643568 289.016534 
L 342.237509 258.711989 
L 352.044648 281.440398 
L 358.547208 289.016534 
L 361.851788 266.288125 
L 368.354348 273.864261 
L 371.552328 266.288125 
L 378.161487 251.135852 
L 381.146269 239.771648 
L 390.953408 266.288125 
L 397.455968 243.559716 
L 407.263107 266.288125 
L 417.070247 232.195511 
L 423.466207 304.168807 
L 433.166747 285.228466 
L 436.471327 273.864261 
L 439.775906 281.440398 
L 449.476446 307.956875 
L 462.374967 289.016534 
L 468.877526 289.016534 
L 472.075507 296.59267 
L 478.684666 258.711989 
L 488.385206 266.288125 
L 494.994365 254.92392 
L 497.979147 232.195511 
L 501.283726 304.168807 
L 507.786286 281.440398 
L 510.984266 300.380739 
L 517.593425 254.92392 
L 524.095985 251.135852 
L 527.293965 235.98358 
L 532.623932 249.241818 
L 533.903125 239.771648 
L 536.887906 232.195511 
L 537.953899 258.711989 
L 540.192486 285.228466 
L 541.684876 279.546364 
L 544.456459 273.864261 
L 546.695045 273.864261 
L 548.080837 270.076193 
L 549.893026 266.288125 
L 553.197605 258.711989 
L 554.0504 262.500057 
L 556.502185 266.288125 
L 557.35498 262.500057 
L 561.085957 266.288125 
L 563.004745 273.864261 
L 563.857539 279.546364 
L 566.202725 285.228466 
L 567.05552 275.758295 
L 570.679897 243.559716 
L 572.811884 220.831307 
L 573.664679 251.135852 
L 575.903265 281.440398 
L 576.75606 275.758295 
L 580.060639 275.758295 
L 585.710404 285.228466 
L 589.761179 300.380739 
L 592.212964 287.1225 
L 593.065759 273.864261 
L 600.207915 266.288125 
L 602.020104 273.864261 
L 602.872898 281.440398 
L 609.588657 247.347784 
L 611.827243 243.559716 
L 612.573438 239.771648 
L 614.812025 237.877614 
L 618.116604 273.864261 
L 618.969399 311.744943 
L 622.167379 270.076193 
L 627.817144 289.016534 
L 628.669939 277.65233 
L 631.121724 275.758295 
L 631.974518 273.864261 
L 635.279098 258.711989 
L 639.010075 247.347784 
L 640.928863 260.606023 
L 644.979638 281.440398 
L 648.284218 266.288125 
L 652.121794 239.771648 
L 657.025364 277.65233 
L 658.091357 296.59267 
L 661.076139 289.016534 
L 664.487318 273.864261 
L 666.725904 277.65233 
L 667.578698 281.440398 
L 670.030483 277.65233 
L 674.401056 270.076193 
L 678.025434 258.711989 
L 680.797017 277.65233 
L 683.035603 281.440398 
L 683.994997 285.228466 
L 687.192977 266.288125 
L 690.604156 266.288125 
L 693.588938 232.195511 
L 695.934123 264.394091 
L 696.893517 296.59267 
L 702.436683 285.228466 
L 703.289478 285.228466 
L 705.634663 281.440398 
L 706.487458 277.65233 
L 712.243822 262.500057 
L 713.203217 258.711989 
L 716.827594 273.864261 
L 719.705776 289.016534 
L 721.944363 283.334432 
L 722.797157 277.65233 
L 728.553522 258.711989 
L 730.36571 258.711989 
L 731.644903 237.877614 
L 732.604297 217.043239 
L 734.949482 254.92392 
L 736.015476 292.804602 
L 739.106856 285.228466 
L 741.452042 290.910568 
L 744.650022 289.016534 
L 747.954602 275.758295 
L 748.807396 270.076193 
L 751.259181 271.970227 
L 752.111976 273.864261 
L 755.842953 251.135852 
L 757.761741 266.288125 
L 758.614536 281.440398 
L 760.959721 277.65233 
L 761.812516 273.864261 
L 765.223695 270.076193 
L 768.954672 239.771648 
L 770.553662 262.500057 
L 771.406457 285.228466 
L 773.751642 287.1225 
L 775.030834 289.016534 
L 778.015616 273.864261 
L 780.254202 277.65233 
L 781.213596 281.440398 
L 783.452182 283.334432 
L 784.518176 285.228466 
L 786.756762 279.546364 
L 787.716156 273.864261 
L 790.061342 268.182159 
L 794.964911 258.711989 
L 796.563901 266.288125 
L 797.523295 273.864261 
L 799.761882 275.758295 
L 804.132455 266.288125 
L 806.371041 260.606023 
L 809.355822 243.559716 
L 810.315216 232.195511 
L 813.832995 319.32108 
L 816.924376 285.228466 
L 819.162962 285.228466 
L 823.426935 281.440398 
L 825.665522 273.864261 
L 826.624916 266.288125 
L 828.970101 258.711989 
L 830.036095 251.135852 
L 833.873671 251.135852 
L 835.472661 260.606023 
L 836.432055 270.076193 
L 838.670641 279.546364 
L 843.041214 277.65233 
L 845.2798 268.182159 
L 846.87879 258.711989 
L 848.264582 249.241818 
L 852.741754 292.804602 
L 854.767142 283.334432 
L 855.726536 273.864261 
L 858.071721 275.758295 
L 859.350913 277.65233 
L 862.335695 281.440398 
L 864.574281 271.970227 
L 865.533675 262.500057 
L 868.944854 251.135852 
L 871.076841 247.347784 
L 872.675831 243.559716 
L 874.38142 243.559716 
L 878.645394 262.500057 
L 880.88398 270.076193 
L 881.843374 277.65233 
L 885.254553 224.619375 
L 888.345934 247.347784 
L 890.58452 285.228466 
L 891.650514 323.109148 
L 893.782501 317.427045 
L 895.061693 311.744943 
L 898.153074 307.956875 
L 900.28506 294.698636 
L 901.244454 281.440398 
L 903.58964 268.182159 
L 904.655633 254.92392 
L 906.89422 258.711989 
L 907.853614 262.500057 
L 910.0922 266.288125 
L 911.69119 270.076193 
L 914.462773 289.016534 
L 916.59476 294.698636 
L 917.554154 300.380739 
L 919.899339 275.758295 
L 921.071932 251.135852 
L 924.269912 239.771648 
L 927.254694 254.92392 
L 929.49328 275.758295 
L 930.452674 296.59267 
L 932.69126 292.804602 
L 933.863853 289.016534 
L 935.99584 287.1225 
L 936.955234 285.228466 
L 939.19382 289.016534 
L 940.153214 292.804602 
L 943.457794 266.288125 
L 945.802979 270.076193 
L 946.762373 273.864261 
L 949.000959 275.758295 
L 950.49335 277.65233 
L 953.371532 251.135852 
L 955.503519 256.817955 
L 958.808099 275.758295 
L 960.087291 289.016534 
L 963.818268 262.500057 
L 965.204059 258.711989 
L 966.056854 254.92392 
L 968.402039 266.288125 
L 969.574632 277.65233 
L 972.772612 262.500057 
L 974.904599 273.864261 
L 975.970593 285.228466 
L 978.10258 281.440398 
L 982.473153 258.711989 
L 984.711739 270.076193 
L 985.671133 281.440398 
L 987.909719 276.38964 
L 989.40211 266.288125 
L 991.214299 270.076193 
L 992.173693 273.864261 
L 994.412279 279.546364 
L 995.371673 285.228466 
L 998.99605 277.65233 
L 1001.021438 262.500057 
L 1002.087431 247.347784 
L 1004.112819 271.970227 
L 1004.965614 296.59267 
L 1007.310799 292.804602 
L 1008.483392 289.016534 
L 1011.681372 281.440398 
L 1013.813359 283.334432 
L 1014.772753 285.228466 
L 1018.077333 285.228466 
L 1020.315919 277.65233 
L 1021.275313 270.076193 
L 1023.620498 268.182159 
L 1028.20427 270.076193 
L 1030.123058 275.758295 
L 1031.082452 281.440398 
L 1033.321038 289.016534 
L 1037.90481 273.864261 
L 1039.930197 270.076193 
L 1040.782992 266.288125 
L 1043.128178 253.029886 
L 1047.498751 315.533011 
L 1049.524138 294.698636 
L 1052.828718 277.65233 
L 1054.10791 281.440398 
L 1057.092691 285.228466 
L 1059.331278 271.970227 
L 1060.290672 258.711989 
L 1063.595251 262.500057 
L 1065.833837 270.076193 
L 1073.295791 300.380739 
L 1075.640977 289.016534 
L 1076.600371 277.65233 
L 1078.519159 264.394091 
L 1086.300911 292.804602 
L 1088.432898 292.804602 
L 1088.432898 292.804602 
" clip-path="url(#pe3b1b85a0c)" style="fill: none; stroke: #ff0000; stroke-width: 1.5; stroke-linecap: square"/>
   </g>
   <g id="patch_9">
    <path d="M 59.690625 332.958125 
L 59.690625 199.618125 
" style="fill: none; stroke: #000000; stroke-width: 0.8; stroke-linejoin: miter; stroke-linecap: square"/>
   </g>
   <g id="patch_10">
    <path d="M 1137.420625 332.958125 
L 1137.420625 199.618125 
" style="fill: none; stroke: #000000; stroke-width: 0.8; stroke-linejoin: miter; stroke-linecap: square"/>
   </g>
   <g id="patch_11">
    <path d="M 59.690625 332.958125 
L 1137.420625 332.958125 
" style="fill: none; stroke: #000000; stroke-width: 0.8; stroke-linejoin: miter; stroke-linecap: square"/>
   </g>
   <g id="patch_12">
    <path d="M 59.690625 199.618125 
L 1137.420625 199.618125 
" style="fill: none; stroke: #000000; stroke-width: 0.8; stroke-linejoin: miter; stroke-linecap: square"/>
   </g>
   <g id="text_26">
    <!-- CPI Inflation Rate (MOM) -->
    <g transform="translate(525.2225 193.618125) scale(0.12 -0.12)">
     <defs>
      <path id="DejaVuSans-28" d="M 1984 4856 
Q 1566 4138 1362 3434 
Q 1159 2731 1159 2009 
Q 1159 1288 1364 580 
Q 1569 -128 1984 -844 
L 1484 -844 
Q 1016 -109 783 600 
Q 550 1309 550 2009 
Q 550 2706 781 3412 
Q 1013 4119 1484 4856 
L 1984 4856 
z
" transform="scale(0.015625)"/>
      <path id="DejaVuSans-4d" d="M 628 4666 
L 1569 4666 
L 2759 1491 
L 3956 4666 
L 4897 4666 
L 4897 0 
L 4281 0 
L 4281 4097 
L 3078 897 
L 2444 897 
L 1241 4097 
L 1241 0 
L 628 0 
L 628 4666 
z
" transform="scale(0.015625)"/>
      <path id="DejaVuSans-4f" d="M 2522 4238 
Q 1834 4238 1429 3725 
Q 1025 3213 1025 2328 
Q 1025 1447 1429 934 
Q 1834 422 2522 422 
Q 3209 422 3611 934 
Q 4013 1447 4013 2328 
Q 4013 3213 3611 3725 
Q 3209 4238 2522 4238 
z
M 2522 4750 
Q 3503 4750 4090 4092 
Q 4678 3434 4678 2328 
Q 4678 1225 4090 567 
Q 3503 -91 2522 -91 
Q 1538 -91 948 565 
Q 359 1222 359 2328 
Q 359 3434 948 4092 
Q 1538 4750 2522 4750 
z
" transform="scale(0.015625)"/>
      <path id="DejaVuSans-29" d="M 513 4856 
L 1013 4856 
Q 1481 4119 1714 3412 
Q 1947 2706 1947 2009 
Q 1947 1309 1714 600 
Q 1481 -109 1013 -844 
L 513 -844 
Q 928 -128 1133 580 
Q 1338 1288 1338 2009 
Q 1338 2731 1133 3434 
Q 928 4138 513 4856 
z
" transform="scale(0.015625)"/>
     </defs>
     <use xlink:href="#DejaVuSans-43"/>
     <use xlink:href="#DejaVuSans-50" transform="translate(69.824219 0)"/>
     <use xlink:href="#DejaVuSans-49" transform="translate(130.126953 0)"/>
     <use xlink:href="#DejaVuSans-20" transform="translate(159.619141 0)"/>
     <use xlink:href="#DejaVuSans-49" transform="translate(191.40625 0)"/>
     <use xlink:href="#DejaVuSans-6e" transform="translate(220.898438 0)"/>
     <use xlink:href="#DejaVuSans-66" transform="translate(284.277344 0)"/>
     <use xlink:href="#DejaVuSans-6c" transform="translate(319.482422 0)"/>
     <use xlink:href="#DejaVuSans-61" transform="translate(347.265625 0)"/>
     <use xlink:href="#DejaVuSans-74" transform="translate(408.544922 0)"/>
     <use xlink:href="#DejaVuSans-69" transform="translate(447.753906 0)"/>
     <use xlink:href="#DejaVuSans-6f" transform="translate(475.537109 0)"/>
     <use xlink:href="#DejaVuSans-6e" transform="translate(536.71875 0)"/>
     <use xlink:href="#DejaVuSans-20" transform="translate(600.097656 0)"/>
     <use xlink:href="#DejaVuSans-52" transform="translate(631.884766 0)"/>
     <use xlink:href="#DejaVuSans-61" transform="translate(699.117188 0)"/>
     <use xlink:href="#DejaVuSans-74" transform="translate(760.396484 0)"/>
     <use xlink:href="#DejaVuSans-65" transform="translate(799.605469 0)"/>
     <use xlink:href="#DejaVuSans-20" transform="translate(861.128906 0)"/>
     <use xlink:href="#DejaVuSans-28" transform="translate(892.916016 0)"/>
     <use xlink:href="#DejaVuSans-4d" transform="translate(931.929688 0)"/>
     <use xlink:href="#DejaVuSans-4f" transform="translate(1018.208984 0)"/>
     <use xlink:href="#DejaVuSans-4d" transform="translate(1096.919922 0)"/>
     <use xlink:href="#DejaVuSans-29" transform="translate(1183.199219 0)"/>
    </g>
   </g>
   <g id="legend_2">
    <g id="patch_13">
     <path d="M 1012.308125 222.29625 
L 1130.420625 222.29625 
Q 1132.420625 222.29625 1132.420625 220.29625 
L 1132.420625 206.618125 
Q 1132.420625 204.618125 1130.420625 204.618125 
L 1012.308125 204.618125 
Q 1010.308125 204.618125 1010.308125 206.618125 
L 1010.308125 220.29625 
Q 1010.308125 222.29625 1012.308125 222.29625 
z
" style="fill: #ffffff; opacity: 0.8; stroke: #cccccc; stroke-linejoin: miter"/>
    </g>
    <g id="line2d_42">
     <path d="M 1014.308125 212.716562 
L 1024.308125 212.716562 
L 1034.308125 212.716562 
" style="fill: none; stroke: #ff0000; stroke-width: 1.5; stroke-linecap: square"/>
    </g>
    <g id="text_27">
     <!-- CPI Inflation Rate -->
     <g transform="translate(1042.308125 216.216562) scale(0.1 -0.1)">
      <use xlink:href="#DejaVuSans-43"/>
      <use xlink:href="#DejaVuSans-50" transform="translate(69.824219 0)"/>
      <use xlink:href="#DejaVuSans-49" transform="translate(130.126953 0)"/>
      <use xlink:href="#DejaVuSans-20" transform="translate(159.619141 0)"/>
      <use xlink:href="#DejaVuSans-49" transform="translate(191.40625 0)"/>
      <use xlink:href="#DejaVuSans-6e" transform="translate(220.898438 0)"/>
      <use xlink:href="#DejaVuSans-66" transform="translate(284.277344 0)"/>
      <use xlink:href="#DejaVuSans-6c" transform="translate(319.482422 0)"/>
      <use xlink:href="#DejaVuSans-61" transform="translate(347.265625 0)"/>
      <use xlink:href="#DejaVuSans-74" transform="translate(408.544922 0)"/>
      <use xlink:href="#DejaVuSans-69" transform="translate(447.753906 0)"/>
      <use xlink:href="#DejaVuSans-6f" transform="translate(475.537109 0)"/>
      <use xlink:href="#DejaVuSans-6e" transform="translate(536.71875 0)"/>
      <use xlink:href="#DejaVuSans-20" transform="translate(600.097656 0)"/>
      <use xlink:href="#DejaVuSans-52" transform="translate(631.884766 0)"/>
      <use xlink:href="#DejaVuSans-61" transform="translate(699.117188 0)"/>
      <use xlink:href="#DejaVuSans-74" transform="translate(760.396484 0)"/>
      <use xlink:href="#DejaVuSans-65" transform="translate(799.605469 0)"/>
     </g>
    </g>
   </g>
  </g>
  <g id="axes_3">
   <g id="patch_14">
    <path d="M 59.690625 510.258125 
L 1137.420625 510.258125 
L 1137.420625 376.918125 
L 59.690625 376.918125 
z
" style="fill: #ffffff"/>
   </g>
   <g id="matplotlib.axis_5">
    <g id="xtick_13">
     <g id="line2d_43">
      <path d="M 102.282392 510.258125 
L 102.282392 376.918125 
" clip-path="url(#p4d522706be)" style="fill: none; stroke: #b0b0b0; stroke-width: 0.8; stroke-linecap: square"/>
     </g>
     <g id="line2d_44">
      <g>
       <use xlink:href="#m1e8bb0bb1b" x="102.282392" y="510.258125" style="stroke: #000000; stroke-width: 0.8"/>
      </g>
     </g>
     <g id="text_28">
      <!-- 2000 -->
      <g transform="translate(89.557392 524.856562) scale(0.1 -0.1)">
       <use xlink:href="#DejaVuSans-32"/>
       <use xlink:href="#DejaVuSans-30" transform="translate(63.623047 0)"/>
       <use xlink:href="#DejaVuSans-30" transform="translate(127.246094 0)"/>
       <use xlink:href="#DejaVuSans-30" transform="translate(190.869141 0)"/>
      </g>
     </g>
    </g>
    <g id="xtick_14">
     <g id="line2d_45">
      <path d="M 297.039388 510.258125 
L 297.039388 376.918125 
" clip-path="url(#p4d522706be)" style="fill: none; stroke: #b0b0b0; stroke-width: 0.8; stroke-linecap: square"/>
     </g>
     <g id="line2d_46">
      <g>
       <use xlink:href="#m1e8bb0bb1b" x="297.039388" y="510.258125" style="stroke: #000000; stroke-width: 0.8"/>
      </g>
     </g>
     <g id="text_29">
      <!-- 2005 -->
      <g transform="translate(284.314388 524.856562) scale(0.1 -0.1)">
       <use xlink:href="#DejaVuSans-32"/>
       <use xlink:href="#DejaVuSans-30" transform="translate(63.623047 0)"/>
       <use xlink:href="#DejaVuSans-30" transform="translate(127.246094 0)"/>
       <use xlink:href="#DejaVuSans-35" transform="translate(190.869141 0)"/>
      </g>
     </g>
    </g>
    <g id="xtick_15">
     <g id="line2d_47">
      <path d="M 491.689785 510.258125 
L 491.689785 376.918125 
" clip-path="url(#p4d522706be)" style="fill: none; stroke: #b0b0b0; stroke-width: 0.8; stroke-linecap: square"/>
     </g>
     <g id="line2d_48">
      <g>
       <use xlink:href="#m1e8bb0bb1b" x="491.689785" y="510.258125" style="stroke: #000000; stroke-width: 0.8"/>
      </g>
     </g>
     <g id="text_30">
      <!-- 2010 -->
      <g transform="translate(478.964785 524.856562) scale(0.1 -0.1)">
       <use xlink:href="#DejaVuSans-32"/>
       <use xlink:href="#DejaVuSans-30" transform="translate(63.623047 0)"/>
       <use xlink:href="#DejaVuSans-31" transform="translate(127.246094 0)"/>
       <use xlink:href="#DejaVuSans-30" transform="translate(190.869141 0)"/>
      </g>
     </g>
    </g>
    <g id="xtick_16">
     <g id="line2d_49">
      <path d="M 686.340183 510.258125 
L 686.340183 376.918125 
" clip-path="url(#p4d522706be)" style="fill: none; stroke: #b0b0b0; stroke-width: 0.8; stroke-linecap: square"/>
     </g>
     <g id="line2d_50">
      <g>
       <use xlink:href="#m1e8bb0bb1b" x="686.340183" y="510.258125" style="stroke: #000000; stroke-width: 0.8"/>
      </g>
     </g>
     <g id="text_31">
      <!-- 2015 -->
      <g transform="translate(673.615183 524.856562) scale(0.1 -0.1)">
       <use xlink:href="#DejaVuSans-32"/>
       <use xlink:href="#DejaVuSans-30" transform="translate(63.623047 0)"/>
       <use xlink:href="#DejaVuSans-31" transform="translate(127.246094 0)"/>
       <use xlink:href="#DejaVuSans-35" transform="translate(190.869141 0)"/>
      </g>
     </g>
    </g>
    <g id="xtick_17">
     <g id="line2d_51">
      <path d="M 880.99058 510.258125 
L 880.99058 376.918125 
" clip-path="url(#p4d522706be)" style="fill: none; stroke: #b0b0b0; stroke-width: 0.8; stroke-linecap: square"/>
     </g>
     <g id="line2d_52">
      <g>
       <use xlink:href="#m1e8bb0bb1b" x="880.99058" y="510.258125" style="stroke: #000000; stroke-width: 0.8"/>
      </g>
     </g>
     <g id="text_32">
      <!-- 2020 -->
      <g transform="translate(868.26558 524.856562) scale(0.1 -0.1)">
       <use xlink:href="#DejaVuSans-32"/>
       <use xlink:href="#DejaVuSans-30" transform="translate(63.623047 0)"/>
       <use xlink:href="#DejaVuSans-32" transform="translate(127.246094 0)"/>
       <use xlink:href="#DejaVuSans-30" transform="translate(190.869141 0)"/>
      </g>
     </g>
    </g>
    <g id="xtick_18">
     <g id="line2d_53">
      <path d="M 1075.747576 510.258125 
L 1075.747576 376.918125 
" clip-path="url(#p4d522706be)" style="fill: none; stroke: #b0b0b0; stroke-width: 0.8; stroke-linecap: square"/>
     </g>
     <g id="line2d_54">
      <g>
       <use xlink:href="#m1e8bb0bb1b" x="1075.747576" y="510.258125" style="stroke: #000000; stroke-width: 0.8"/>
      </g>
     </g>
     <g id="text_33">
      <!-- 2025 -->
      <g transform="translate(1063.022576 524.856562) scale(0.1 -0.1)">
       <use xlink:href="#DejaVuSans-32"/>
       <use xlink:href="#DejaVuSans-30" transform="translate(63.623047 0)"/>
       <use xlink:href="#DejaVuSans-32" transform="translate(127.246094 0)"/>
       <use xlink:href="#DejaVuSans-35" transform="translate(190.869141 0)"/>
      </g>
     </g>
    </g>
    <g id="text_34">
     <!-- Date -->
     <g transform="translate(586.604844 538.534687) scale(0.1 -0.1)">
      <use xlink:href="#DejaVuSans-44"/>
      <use xlink:href="#DejaVuSans-61" transform="translate(77.001953 0)"/>
      <use xlink:href="#DejaVuSans-74" transform="translate(138.28125 0)"/>
      <use xlink:href="#DejaVuSans-65" transform="translate(177.490234 0)"/>
     </g>
    </g>
   </g>
   <g id="matplotlib.axis_6">
    <g id="ytick_8">
     <g id="line2d_55">
      <path d="M 59.690625 487.770453 
L 1137.420625 487.770453 
" clip-path="url(#p4d522706be)" style="fill: none; stroke: #b0b0b0; stroke-width: 0.8; stroke-linecap: square"/>
     </g>
     <g id="line2d_56">
      <g>
       <use xlink:href="#md894134fae" x="59.690625" y="487.770453" style="stroke: #000000; stroke-width: 0.8"/>
      </g>
     </g>
     <g id="text_35">
      <!-- −5 -->
      <g transform="translate(37.948438 491.569672) scale(0.1 -0.1)">
       <use xlink:href="#DejaVuSans-2212"/>
       <use xlink:href="#DejaVuSans-35" transform="translate(83.789062 0)"/>
      </g>
     </g>
    </g>
    <g id="ytick_9">
     <g id="line2d_57">
      <path d="M 59.690625 459.448448 
L 1137.420625 459.448448 
" clip-path="url(#p4d522706be)" style="fill: none; stroke: #b0b0b0; stroke-width: 0.8; stroke-linecap: square"/>
     </g>
     <g id="line2d_58">
      <g>
       <use xlink:href="#md894134fae" x="59.690625" y="459.448448" style="stroke: #000000; stroke-width: 0.8"/>
      </g>
     </g>
     <g id="text_36">
      <!-- 0 -->
      <g transform="translate(46.328125 463.247667) scale(0.1 -0.1)">
       <use xlink:href="#DejaVuSans-30"/>
      </g>
     </g>
    </g>
    <g id="ytick_10">
     <g id="line2d_59">
      <path d="M 59.690625 431.126443 
L 1137.420625 431.126443 
" clip-path="url(#p4d522706be)" style="fill: none; stroke: #b0b0b0; stroke-width: 0.8; stroke-linecap: square"/>
     </g>
     <g id="line2d_60">
      <g>
       <use xlink:href="#md894134fae" x="59.690625" y="431.126443" style="stroke: #000000; stroke-width: 0.8"/>
      </g>
     </g>
     <g id="text_37">
      <!-- 5 -->
      <g transform="translate(46.328125 434.925662) scale(0.1 -0.1)">
       <use xlink:href="#DejaVuSans-35"/>
      </g>
     </g>
    </g>
    <g id="ytick_11">
     <g id="line2d_61">
      <path d="M 59.690625 402.804438 
L 1137.420625 402.804438 
" clip-path="url(#p4d522706be)" style="fill: none; stroke: #b0b0b0; stroke-width: 0.8; stroke-linecap: square"/>
     </g>
     <g id="line2d_62">
      <g>
       <use xlink:href="#md894134fae" x="59.690625" y="402.804438" style="stroke: #000000; stroke-width: 0.8"/>
      </g>
     </g>
     <g id="text_38">
      <!-- 10 -->
      <g transform="translate(39.965625 406.603656) scale(0.1 -0.1)">
       <use xlink:href="#DejaVuSans-31"/>
       <use xlink:href="#DejaVuSans-30" transform="translate(63.623047 0)"/>
      </g>
     </g>
    </g>
    <g id="text_39">
     <!-- Inflation Rate -->
     <g transform="translate(31.86875 477.074062) rotate(-90) scale(0.1 -0.1)">
      <use xlink:href="#DejaVuSans-49"/>
      <use xlink:href="#DejaVuSans-6e" transform="translate(29.492188 0)"/>
      <use xlink:href="#DejaVuSans-66" transform="translate(92.871094 0)"/>
      <use xlink:href="#DejaVuSans-6c" transform="translate(128.076172 0)"/>
      <use xlink:href="#DejaVuSans-61" transform="translate(155.859375 0)"/>
      <use xlink:href="#DejaVuSans-74" transform="translate(217.138672 0)"/>
      <use xlink:href="#DejaVuSans-69" transform="translate(256.347656 0)"/>
      <use xlink:href="#DejaVuSans-6f" transform="translate(284.130859 0)"/>
      <use xlink:href="#DejaVuSans-6e" transform="translate(345.3125 0)"/>
      <use xlink:href="#DejaVuSans-20" transform="translate(408.691406 0)"/>
      <use xlink:href="#DejaVuSans-52" transform="translate(440.478516 0)"/>
      <use xlink:href="#DejaVuSans-61" transform="translate(507.710938 0)"/>
      <use xlink:href="#DejaVuSans-74" transform="translate(568.990234 0)"/>
      <use xlink:href="#DejaVuSans-65" transform="translate(608.199219 0)"/>
     </g>
    </g>
   </g>
   <g id="line2d_63">
    <path d="M 108.678352 453.784047 
L 118.485492 445.287445 
L 124.988051 433.958643 
L 128.292631 437.357284 
L 134.795191 439.056604 
L 137.993171 439.623044 
L 147.587112 454.350487 
L 157.394251 460.581328 
L 163.896811 466.812169 
L 173.70395 477.008091 
L 183.51109 483.238932 
L 186.495871 483.238932 
L 189.800451 482.106052 
L 199.500991 473.60945 
L 202.805571 472.47657 
L 212.61271 465.112849 
L 228.709211 433.392203 
L 238.409751 452.084727 
L 241.71433 451.518286 
L 245.01891 451.518286 
L 254.71945 448.686086 
L 264.41999 439.623044 
L 267.724569 437.357284 
L 274.227129 427.161362 
L 277.425109 423.196281 
L 284.034269 420.930521 
L 290.536828 411.867479 
L 293.734809 413.5668 
L 300.343968 426.594922 
L 303.328749 428.860682 
L 306.633329 427.727802 
L 313.135889 426.028482 
L 316.333869 429.993563 
L 319.638449 429.993563 
L 322.943028 429.427122 
L 329.445588 436.790844 
L 332.643568 441.322365 
L 342.237509 442.455245 
L 352.044648 445.853885 
L 358.547208 439.056604 
L 361.851788 440.189484 
L 368.354348 443.021685 
L 371.552328 443.588125 
L 378.161487 440.755924 
L 381.146269 444.721005 
L 390.953408 443.588125 
L 397.455968 445.853885 
L 407.263107 441.322365 
L 423.466207 414.13324 
L 433.166747 409.601719 
L 436.471327 402.804438 
L 439.775906 402.237998 
L 449.476446 448.119646 
L 462.374967 493.434854 
L 472.075507 503.630776 
L 478.684666 504.197216 
L 488.385206 471.34369 
L 494.994365 435.091523 
L 497.979147 428.860682 
L 501.283726 426.028482 
L 507.786286 419.231201 
L 510.984266 423.196281 
L 517.593425 435.091523 
L 524.095985 431.126443 
L 527.293965 428.011022 
L 532.623932 426.028482 
L 533.903125 424.045941 
L 535.395515 422.063401 
L 536.887906 420.364081 
L 537.953899 418.664761 
L 541.684876 418.09832 
L 544.456459 420.930521 
L 548.080837 420.930521 
L 549.893026 420.080861 
L 553.197605 418.09832 
L 554.0504 416.96544 
L 556.502185 417.53188 
L 557.35498 418.09832 
L 561.085957 422.629841 
L 563.004745 426.878142 
L 563.857539 431.126443 
L 566.202725 437.640504 
L 567.05552 444.154565 
L 570.679897 449.818966 
L 572.811884 452.651167 
L 573.664679 455.483367 
L 575.903265 457.465907 
L 576.75606 459.448448 
L 580.060639 461.147768 
L 583.471818 463.413529 
L 585.710404 465.396069 
L 589.761179 471.34369 
L 592.212964 473.60945 
L 593.065759 475.875211 
L 600.207915 479.840292 
L 602.020104 477.574531 
L 602.872898 475.308771 
L 609.588657 470.21081 
L 611.827243 469.36115 
L 612.573438 468.511489 
L 614.812025 468.511489 
L 618.116604 469.36115 
L 618.969399 470.21081 
L 622.167379 474.175891 
L 627.817144 475.308771 
L 628.669939 474.742331 
L 631.121724 473.60945 
L 631.974518 472.47657 
L 635.279098 468.511489 
L 639.010075 466.812169 
L 640.928863 467.378609 
L 648.284218 467.378609 
L 652.121794 468.511489 
L 657.025364 471.62691 
L 658.091357 472.47657 
L 661.076139 470.77725 
L 664.487318 467.378609 
L 666.725904 466.528949 
L 667.578698 465.679289 
L 670.030483 465.112849 
L 673.335063 465.396069 
L 674.401056 466.245729 
L 678.025434 469.64437 
L 680.797017 471.91013 
L 683.035603 473.32623 
L 683.994997 474.742331 
L 687.192977 478.140971 
L 690.604156 483.805372 
L 693.588938 486.637573 
L 695.934123 486.071133 
L 696.893517 485.504693 
L 703.289478 485.504693 
L 705.634663 486.071133 
L 706.487458 486.637573 
L 712.243822 491.452314 
L 713.203217 492.868414 
L 722.797157 492.868414 
L 728.553522 491.169094 
L 731.644903 488.336893 
L 732.604297 487.204013 
L 734.949482 485.504693 
L 739.106856 478.707411 
L 744.650022 474.742331 
L 747.954602 471.62691 
L 748.807396 469.07793 
L 751.259181 466.528949 
L 752.111976 463.979969 
L 755.842953 458.882008 
L 757.761741 455.766587 
L 758.614536 452.651167 
L 760.959721 446.703546 
L 761.812516 440.755924 
L 765.223695 428.294242 
L 768.954672 420.364081 
L 770.553662 417.8151 
L 771.406457 415.26612 
L 773.751642 415.83256 
L 775.030834 416.399 
L 778.015616 423.196281 
L 780.254202 425.745262 
L 781.213596 428.294242 
L 787.716156 428.294242 
L 790.061342 426.028482 
L 794.964911 420.364081 
L 797.523295 420.364081 
L 799.761882 423.479501 
L 804.132455 431.692883 
L 806.371041 433.392203 
L 807.330435 435.091523 
L 809.355822 436.790844 
L 810.315216 438.490164 
L 813.832995 441.888805 
L 816.924376 440.189484 
L 819.162962 438.206944 
L 823.426935 432.825763 
L 825.665522 433.108983 
L 826.624916 433.392203 
L 828.970101 434.808303 
L 830.036095 436.224404 
L 833.873671 439.056604 
L 835.472661 439.906264 
L 836.432055 440.755924 
L 838.670641 442.455245 
L 843.041214 454.350487 
L 845.2798 456.616247 
L 846.87879 458.882008 
L 848.264582 458.882008 
L 852.741754 457.182687 
L 854.767142 455.766587 
L 855.726536 454.350487 
L 858.071721 455.200147 
L 859.350913 456.049807 
L 862.335695 459.448448 
L 864.574281 460.298108 
L 865.533675 461.147768 
L 868.944854 463.979969 
L 871.076841 465.112849 
L 874.38142 467.378609 
L 878.645394 467.378609 
L 880.88398 464.829629 
L 881.843374 462.280648 
L 885.254553 458.882008 
L 888.345934 461.714208 
L 890.58452 464.829629 
L 891.650514 467.945049 
L 893.782501 472.47657 
L 895.061693 477.008091 
L 898.153074 480.406732 
L 900.28506 478.424191 
L 901.244454 476.441651 
L 903.58964 474.742331 
L 904.655633 473.04301 
L 906.89422 471.91013 
L 907.853614 470.77725 
L 911.69119 471.34369 
L 914.462773 471.34369 
L 916.59476 469.64437 
L 917.554154 467.945049 
L 919.899339 464.829629 
L 921.071932 461.714208 
L 924.269912 457.749128 
L 927.254694 449.818966 
L 929.49328 442.172025 
L 930.452674 434.525083 
L 932.69126 427.727802 
L 933.863853 420.930521 
L 935.99584 414.69968 
L 936.955234 408.468839 
L 939.19382 409.035279 
L 940.153214 409.601719 
L 943.457794 408.468839 
L 945.802979 407.052738 
L 949.000959 402.237998 
L 950.49335 398.839357 
L 953.371532 382.979034 
L 955.503519 384.678354 
L 956.462913 386.377675 
L 958.808099 393.741396 
L 960.087291 401.105117 
L 963.818268 407.902399 
L 965.204059 408.752059 
L 966.056854 409.601719 
L 968.402039 411.017819 
L 969.574632 412.433919 
L 972.772612 414.13324 
L 974.904599 418.664761 
L 975.970593 423.196281 
L 978.10258 424.045941 
L 982.473153 435.657964 
L 984.711739 441.039145 
L 985.671133 446.420326 
L 987.909719 449.063713 
L 991.214299 460.581328 
L 992.173693 466.812169 
L 995.371673 466.812169 
L 998.99605 463.413529 
L 1001.021438 463.696749 
L 1002.087431 463.979969 
L 1004.112819 465.679289 
L 1004.965614 467.378609 
L 1007.310799 470.49403 
L 1008.483392 473.60945 
L 1011.681372 479.840292 
L 1013.813359 482.672492 
L 1014.772753 485.504693 
L 1017.011339 487.770453 
L 1018.077333 490.036213 
L 1020.315919 487.204013 
L 1021.275313 484.371812 
L 1023.620498 480.406732 
L 1028.20427 473.60945 
L 1030.123058 473.89267 
L 1031.082452 474.175891 
L 1033.321038 475.308771 
L 1037.90481 474.742331 
L 1039.930197 474.175891 
L 1040.782992 473.60945 
L 1047.498751 475.308771 
L 1049.524138 474.459111 
L 1052.828718 470.49403 
L 1054.10791 467.378609 
L 1057.092691 463.979969 
L 1060.290672 463.979969 
L 1063.595251 469.64437 
L 1065.833837 472.47657 
L 1069.138417 475.591991 
L 1073.295791 473.60945 
L 1075.640977 473.04301 
L 1076.600371 472.47657 
L 1078.519159 472.47657 
L 1085.234917 472.75979 
L 1086.300911 473.60945 
L 1088.432898 473.60945 
L 1088.432898 473.60945 
" clip-path="url(#p4d522706be)" style="fill: none; stroke: #008000; stroke-width: 1.5; stroke-linecap: square"/>
   </g>
   <g id="patch_15">
    <path d="M 59.690625 510.258125 
L 59.690625 376.918125 
" style="fill: none; stroke: #000000; stroke-width: 0.8; stroke-linejoin: miter; stroke-linecap: square"/>
   </g>
   <g id="patch_16">
    <path d="M 1137.420625 510.258125 
L 1137.420625 376.918125 
" style="fill: none; stroke: #000000; stroke-width: 0.8; stroke-linejoin: miter; stroke-linecap: square"/>
   </g>
   <g id="patch_17">
    <path d="M 59.690625 510.258125 
L 1137.420625 510.258125 
" style="fill: none; stroke: #000000; stroke-width: 0.8; stroke-linejoin: miter; stroke-linecap: square"/>
   </g>
   <g id="patch_18">
    <path d="M 59.690625 376.918125 
L 1137.420625 376.918125 
" style="fill: none; stroke: #000000; stroke-width: 0.8; stroke-linejoin: miter; stroke-linecap: square"/>
   </g>
   <g id="text_40">
    <!-- PPI Inflation Rate (YOY) -->
    <g transform="translate(529.47875 370.918125) scale(0.12 -0.12)">
     <defs>
      <path id="DejaVuSans-59" d="M -13 4666 
L 666 4666 
L 1959 2747 
L 3244 4666 
L 3922 4666 
L 2272 2222 
L 2272 0 
L 1638 0 
L 1638 2222 
L -13 4666 
z
" transform="scale(0.015625)"/>
     </defs>
     <use xlink:href="#DejaVuSans-50"/>
     <use xlink:href="#DejaVuSans-50" transform="translate(60.302734 0)"/>
     <use xlink:href="#DejaVuSans-49" transform="translate(120.605469 0)"/>
     <use xlink:href="#DejaVuSans-20" transform="translate(150.097656 0)"/>
     <use xlink:href="#DejaVuSans-49" transform="translate(181.884766 0)"/>
     <use xlink:href="#DejaVuSans-6e" transform="translate(211.376953 0)"/>
     <use xlink:href="#DejaVuSans-66" transform="translate(274.755859 0)"/>
     <use xlink:href="#DejaVuSans-6c" transform="translate(309.960938 0)"/>
     <use xlink:href="#DejaVuSans-61" transform="translate(337.744141 0)"/>
     <use xlink:href="#DejaVuSans-74" transform="translate(399.023438 0)"/>
     <use xlink:href="#DejaVuSans-69" transform="translate(438.232422 0)"/>
     <use xlink:href="#DejaVuSans-6f" transform="translate(466.015625 0)"/>
     <use xlink:href="#DejaVuSans-6e" transform="translate(527.197266 0)"/>
     <use xlink:href="#DejaVuSans-20" transform="translate(590.576172 0)"/>
     <use xlink:href="#DejaVuSans-52" transform="translate(622.363281 0)"/>
     <use xlink:href="#DejaVuSans-61" transform="translate(689.595703 0)"/>
     <use xlink:href="#DejaVuSans-74" transform="translate(750.875 0)"/>
     <use xlink:href="#DejaVuSans-65" transform="translate(790.083984 0)"/>
     <use xlink:href="#DejaVuSans-20" transform="translate(851.607422 0)"/>
     <use xlink:href="#DejaVuSans-28" transform="translate(883.394531 0)"/>
     <use xlink:href="#DejaVuSans-59" transform="translate(922.408203 0)"/>
     <use xlink:href="#DejaVuSans-4f" transform="translate(977.992188 0)"/>
     <use xlink:href="#DejaVuSans-59" transform="translate(1051.203125 0)"/>
     <use xlink:href="#DejaVuSans-29" transform="translate(1112.287109 0)"/>
    </g>
   </g>
   <g id="legend_3">
    <g id="patch_19">
     <path d="M 1013.26125 399.59625 
L 1130.420625 399.59625 
Q 1132.420625 399.59625 1132.420625 397.59625 
L 1132.420625 383.918125 
Q 1132.420625 381.918125 1130.420625 381.918125 
L 1013.26125 381.918125 
Q 1011.26125 381.918125 1011.26125 383.918125 
L 1011.26125 397.59625 
Q 1011.26125 399.59625 1013.26125 399.59625 
z
" style="fill: #ffffff; opacity: 0.8; stroke: #cccccc; stroke-linejoin: miter"/>
    </g>
    <g id="line2d_64">
     <path d="M 1015.26125 390.016562 
L 1025.26125 390.016562 
L 1035.26125 390.016562 
" style="fill: none; stroke: #008000; stroke-width: 1.5; stroke-linecap: square"/>
    </g>
    <g id="text_41">
     <!-- PPI Inflation Rate -->
     <g transform="translate(1043.26125 393.516562) scale(0.1 -0.1)">
      <use xlink:href="#DejaVuSans-50"/>
      <use xlink:href="#DejaVuSans-50" transform="translate(60.302734 0)"/>
      <use xlink:href="#DejaVuSans-49" transform="translate(120.605469 0)"/>
      <use xlink:href="#DejaVuSans-20" transform="translate(150.097656 0)"/>
      <use xlink:href="#DejaVuSans-49" transform="translate(181.884766 0)"/>
      <use xlink:href="#DejaVuSans-6e" transform="translate(211.376953 0)"/>
      <use xlink:href="#DejaVuSans-66" transform="translate(274.755859 0)"/>
      <use xlink:href="#DejaVuSans-6c" transform="translate(309.960938 0)"/>
      <use xlink:href="#DejaVuSans-61" transform="translate(337.744141 0)"/>
      <use xlink:href="#DejaVuSans-74" transform="translate(399.023438 0)"/>
      <use xlink:href="#DejaVuSans-69" transform="translate(438.232422 0)"/>
      <use xlink:href="#DejaVuSans-6f" transform="translate(466.015625 0)"/>
      <use xlink:href="#DejaVuSans-6e" transform="translate(527.197266 0)"/>
      <use xlink:href="#DejaVuSans-20" transform="translate(590.576172 0)"/>
      <use xlink:href="#DejaVuSans-52" transform="translate(622.363281 0)"/>
      <use xlink:href="#DejaVuSans-61" transform="translate(689.595703 0)"/>
      <use xlink:href="#DejaVuSans-74" transform="translate(750.875 0)"/>
      <use xlink:href="#DejaVuSans-65" transform="translate(790.083984 0)"/>
     </g>
    </g>
   </g>
  </g>
  <g id="axes_4">
   <g id="patch_20">
    <path d="M 59.690625 687.558125 
L 1137.420625 687.558125 
L 1137.420625 554.218125 
L 59.690625 554.218125 
z
" style="fill: #ffffff"/>
   </g>
   <g id="matplotlib.axis_7">
    <g id="xtick_19">
     <g id="line2d_65">
      <g>
       <use xlink:href="#m1e8bb0bb1b" x="100.829674" y="687.558125" style="stroke: #000000; stroke-width: 0.8"/>
      </g>
     </g>
     <g id="text_42">
      <!-- 2005 -->
      <g transform="translate(88.104674 702.156562) scale(0.1 -0.1)">
       <use xlink:href="#DejaVuSans-32"/>
       <use xlink:href="#DejaVuSans-30" transform="translate(63.623047 0)"/>
       <use xlink:href="#DejaVuSans-30" transform="translate(127.246094 0)"/>
       <use xlink:href="#DejaVuSans-35" transform="translate(190.869141 0)"/>
      </g>
     </g>
    </g>
    <g id="xtick_20">
     <g id="line2d_66">
      <g>
       <use xlink:href="#m1e8bb0bb1b" x="343.739626" y="687.558125" style="stroke: #000000; stroke-width: 0.8"/>
      </g>
     </g>
     <g id="text_43">
      <!-- 2010 -->
      <g transform="translate(331.014626 702.156562) scale(0.1 -0.1)">
       <use xlink:href="#DejaVuSans-32"/>
       <use xlink:href="#DejaVuSans-30" transform="translate(63.623047 0)"/>
       <use xlink:href="#DejaVuSans-31" transform="translate(127.246094 0)"/>
       <use xlink:href="#DejaVuSans-30" transform="translate(190.869141 0)"/>
      </g>
     </g>
    </g>
    <g id="xtick_21">
     <g id="line2d_67">
      <g>
       <use xlink:href="#m1e8bb0bb1b" x="586.649579" y="687.558125" style="stroke: #000000; stroke-width: 0.8"/>
      </g>
     </g>
     <g id="text_44">
      <!-- 2015 -->
      <g transform="translate(573.924579 702.156562) scale(0.1 -0.1)">
       <use xlink:href="#DejaVuSans-32"/>
       <use xlink:href="#DejaVuSans-30" transform="translate(63.623047 0)"/>
       <use xlink:href="#DejaVuSans-31" transform="translate(127.246094 0)"/>
       <use xlink:href="#DejaVuSans-35" transform="translate(190.869141 0)"/>
      </g>
     </g>
    </g>
    <g id="xtick_22">
     <g id="line2d_68">
      <g>
       <use xlink:href="#m1e8bb0bb1b" x="829.559531" y="687.558125" style="stroke: #000000; stroke-width: 0.8"/>
      </g>
     </g>
     <g id="text_45">
      <!-- 2020 -->
      <g transform="translate(816.834531 702.156562) scale(0.1 -0.1)">
       <use xlink:href="#DejaVuSans-32"/>
       <use xlink:href="#DejaVuSans-30" transform="translate(63.623047 0)"/>
       <use xlink:href="#DejaVuSans-32" transform="translate(127.246094 0)"/>
       <use xlink:href="#DejaVuSans-30" transform="translate(190.869141 0)"/>
      </g>
     </g>
    </g>
    <g id="xtick_23">
     <g id="line2d_69">
      <g>
       <use xlink:href="#m1e8bb0bb1b" x="1072.602512" y="687.558125" style="stroke: #000000; stroke-width: 0.8"/>
      </g>
     </g>
     <g id="text_46">
      <!-- 2025 -->
      <g transform="translate(1059.877512 702.156562) scale(0.1 -0.1)">
       <use xlink:href="#DejaVuSans-32"/>
       <use xlink:href="#DejaVuSans-30" transform="translate(63.623047 0)"/>
       <use xlink:href="#DejaVuSans-32" transform="translate(127.246094 0)"/>
       <use xlink:href="#DejaVuSans-35" transform="translate(190.869141 0)"/>
      </g>
     </g>
    </g>
    <g id="text_47">
     <!-- Date -->
     <g transform="translate(586.604844 715.834687) scale(0.1 -0.1)">
      <use xlink:href="#DejaVuSans-44"/>
      <use xlink:href="#DejaVuSans-61" transform="translate(77.001953 0)"/>
      <use xlink:href="#DejaVuSans-74" transform="translate(138.28125 0)"/>
      <use xlink:href="#DejaVuSans-65" transform="translate(177.490234 0)"/>
     </g>
    </g>
   </g>
   <g id="matplotlib.axis_8">
    <g id="ytick_12">
     <g id="line2d_70">
      <g>
       <use xlink:href="#md894134fae" x="59.690625" y="652.281108" style="stroke: #000000; stroke-width: 0.8"/>
      </g>
     </g>
     <g id="text_48">
      <!-- 0.0 -->
      <g transform="translate(36.7875 656.080326) scale(0.1 -0.1)">
       <defs>
        <path id="DejaVuSans-2e" d="M 684 794 
L 1344 794 
L 1344 0 
L 684 0 
L 684 794 
z
" transform="scale(0.015625)"/>
       </defs>
       <use xlink:href="#DejaVuSans-30"/>
       <use xlink:href="#DejaVuSans-2e" transform="translate(63.623047 0)"/>
       <use xlink:href="#DejaVuSans-30" transform="translate(95.410156 0)"/>
      </g>
     </g>
    </g>
    <g id="ytick_13">
     <g id="line2d_71">
      <g>
       <use xlink:href="#md894134fae" x="59.690625" y="611.980813" style="stroke: #000000; stroke-width: 0.8"/>
      </g>
     </g>
     <g id="text_49">
      <!-- 0.2 -->
      <g transform="translate(36.7875 615.780032) scale(0.1 -0.1)">
       <use xlink:href="#DejaVuSans-30"/>
       <use xlink:href="#DejaVuSans-2e" transform="translate(63.623047 0)"/>
       <use xlink:href="#DejaVuSans-32" transform="translate(95.410156 0)"/>
      </g>
     </g>
    </g>
    <g id="ytick_14">
     <g id="line2d_72">
      <g>
       <use xlink:href="#md894134fae" x="59.690625" y="571.680518" style="stroke: #000000; stroke-width: 0.8"/>
      </g>
     </g>
     <g id="text_50">
      <!-- 0.4 -->
      <g transform="translate(36.7875 575.479737) scale(0.1 -0.1)">
       <defs>
        <path id="DejaVuSans-34" d="M 2419 4116 
L 825 1625 
L 2419 1625 
L 2419 4116 
z
M 2253 4666 
L 3047 4666 
L 3047 1625 
L 3713 1625 
L 3713 1100 
L 3047 1100 
L 3047 0 
L 2419 0 
L 2419 1100 
L 313 1100 
L 313 1709 
L 2253 4666 
z
" transform="scale(0.015625)"/>
       </defs>
       <use xlink:href="#DejaVuSans-30"/>
       <use xlink:href="#DejaVuSans-2e" transform="translate(63.623047 0)"/>
       <use xlink:href="#DejaVuSans-34" transform="translate(95.410156 0)"/>
      </g>
     </g>
    </g>
    <g id="text_51">
     <!-- Value -->
     <g transform="translate(30.707813 634.619375) rotate(-90) scale(0.1 -0.1)">
      <defs>
       <path id="DejaVuSans-56" d="M 1831 0 
L 50 4666 
L 709 4666 
L 2188 738 
L 3669 4666 
L 4325 4666 
L 2547 0 
L 1831 0 
z
" transform="scale(0.015625)"/>
       <path id="DejaVuSans-75" d="M 544 1381 
L 544 3500 
L 1119 3500 
L 1119 1403 
Q 1119 906 1312 657 
Q 1506 409 1894 409 
Q 2359 409 2629 706 
Q 2900 1003 2900 1516 
L 2900 3500 
L 3475 3500 
L 3475 0 
L 2900 0 
L 2900 538 
Q 2691 219 2414 64 
Q 2138 -91 1772 -91 
Q 1169 -91 856 284 
Q 544 659 544 1381 
z
M 1991 3584 
L 1991 3584 
z
" transform="scale(0.015625)"/>
      </defs>
      <use xlink:href="#DejaVuSans-56"/>
      <use xlink:href="#DejaVuSans-61" transform="translate(60.658203 0)"/>
      <use xlink:href="#DejaVuSans-6c" transform="translate(121.9375 0)"/>
      <use xlink:href="#DejaVuSans-75" transform="translate(149.720703 0)"/>
      <use xlink:href="#DejaVuSans-65" transform="translate(213.099609 0)"/>
     </g>
    </g>
   </g>
   <g id="line2d_73">
    <path d="M 108.678352 653.017859 
L 112.802234 639.710374 
L 120.91697 665.785616 
L 124.907823 656.85203 
L 129.031705 654.619616 
L 133.155587 646.366192 
L 141.270323 655.938122 
L 145.261176 652.281108 
L 157.233737 652.281108 
L 169.472355 663.726114 
L 177.58709 658.612947 
L 181.710972 649.589294 
L 189.825708 660.411869 
L 193.816561 650.070854 
L 202.064325 651.177997 
L 205.789122 659.595136 
L 218.027739 662.253024 
L 226.142475 656.717837 
L 238.381093 662.697405 
L 250.61971 660.66182 
L 258.601417 633.413929 
L 270.707006 657.195778 
L 274.830888 666.23121 
L 278.95477 652.281108 
L 291.060359 678.485335 
L 307.156802 638.299373 
L 315.271537 653.787661 
L 319.262391 651.901632 
L 327.510155 649.634747 
L 339.615744 652.281108 
L 347.863508 655.129185 
L 351.588305 666.00343 
L 355.712187 640.26852 
L 363.826922 658.792825 
L 367.817776 659.010285 
L 376.06554 650.31332 
L 384.180275 648.910265 
L 388.171129 650.43923 
L 394.822551 656.523077 
L 400.14369 654.947479 
L 401.473974 651.298184 
L 404.267572 647.64889 
L 406.12997 650.908358 
L 409.58871 654.938562 
L 414.111677 656.126469 
L 416.373161 656.543639 
L 421.56127 652.279546 
L 425.685152 651.289853 
L 430.341148 653.261522 
L 432.73566 655.429568 
L 433.799888 656.65397 
L 436.726514 657.878371 
L 437.790741 652.406761 
L 442.313709 649.20753 
L 444.974278 651.479909 
L 446.038505 650.882976 
L 448.832103 650.286044 
L 449.89633 647.135016 
L 454.020212 647.753073 
L 458.277123 657.38338 
L 461.07072 663.244603 
L 466.125802 652.881611 
L 469.185456 652.682505 
L 470.249684 654.2917 
L 479.16259 650.243197 
L 481.424073 650.662622 
L 482.488301 650.66907 
L 490.869093 652.679332 
L 494.59389 653.279039 
L 497.387488 653.480521 
L 501.51137 649.063519 
L 502.575597 651.266129 
L 506.566451 652.476699 
L 513.616959 655.057703 
L 514.681186 653.267207 
L 517.740841 651.476711 
L 518.805068 650.476811 
L 522.92895 650.68146 
L 527.584946 651.492066 
L 529.979458 651.098125 
L 535.034539 653.06516 
L 539.158421 654.052912 
L 543.947446 653.867379 
L 550.066754 651.87971 
L 551.397039 651.880109 
L 555.121836 651.281199 
L 559.378746 651.084842 
L 562.172344 651.487795 
L 563.236571 650.501598 
L 566.296226 649.515401 
L 570.420108 654.619616 
L 571.750392 653.450362 
L 576.273359 652.872599 
L 579.732099 653.86424 
L 582.525697 654.26439 
L 583.722953 653.673348 
L 587.713806 653.285005 
L 591.970717 652.682095 
L 595.695513 651.674986 
L 598.622139 651.473487 
L 599.819395 651.877297 
L 606.736875 651.878909 
L 607.801102 652.080008 
L 610.727728 652.281108 
L 611.791956 652.682505 
L 618.975492 653.490117 
L 620.172748 652.682894 
L 624.695716 652.07839 
L 631.081081 653.090351 
L 632.145309 652.482603 
L 641.590329 653.705057 
L 643.18667 653.912699 
L 644.383927 650.629538 
L 647.310552 647.346378 
L 648.640837 650.014441 
L 652.498662 652.481806 
L 655.425288 652.281108 
L 659.416142 652.683306 
L 663.540024 652.684111 
L 664.604251 651.473083 
L 667.663906 650.262055 
L 668.728133 651.271581 
L 673.384129 650.68189 
L 675.778641 649.082672 
L 676.842869 649.697996 
L 679.769495 650.31332 
L 680.833722 651.881841 
L 685.090633 653.061748 
L 689.746629 651.887935 
L 691.742055 651.102737 
L 692.806283 651.301415 
L 695.732909 651.500094 
L 697.32925 653.057598 
L 701.054047 653.448105 
L 703.847644 652.281108 
L 705.0449 651.297214 
L 707.838498 650.31332 
L 709.168782 651.881841 
L 711.96238 653.450362 
L 713.159636 652.277696 
L 716.086262 651.105029 
L 722.205571 652.455157 
L 724.200997 655.357466 
L 725.398254 653.42878 
L 728.191851 651.500094 
L 733.646018 653.255867 
L 736.439615 653.452628 
L 737.636871 654.83082 
L 740.164412 656.209012 
L 741.361668 651.841464 
L 745.751607 650.073144 
L 749.609432 651.496675 
L 752.403029 650.320977 
L 757.724167 653.644504 
L 760.517765 653.454903 
L 761.715021 652.671226 
L 764.641647 651.88755 
L 765.971931 653.066305 
L 770.760955 654.453053 
L 772.756382 654.661046 
L 773.953638 653.872474 
L 776.747236 653.083902 
L 782.201402 653.286168 
L 784.995 651.87321 
L 788.719796 653.502329 
L 794.306991 650.41702 
L 796.834532 653.877159 
L 798.031788 654.486828 
L 800.958414 655.096498 
L 802.554755 653.688803 
L 806.279552 651.669261 
L 809.07315 651.057415 
L 810.270406 652.074697 
L 814.527316 652.075933 
L 817.187885 651.059887 
L 821.311767 654.304215 
L 826.632905 650.441845 
L 829.426503 652.281108 
L 830.623759 652.682505 
L 834.880669 681.497216 
L 838.738494 635.094782 
L 841.532092 560.279034 
L 842.862376 608.605088 
L 845.522945 656.931142 
L 847.119287 655.002781 
L 850.977112 652.080428 
L 853.637681 651.086435 
L 854.834937 651.287894 
L 857.761563 651.489353 
L 859.091847 652.082394 
L 861.885445 652.675435 
L 863.082701 651.490519 
L 865.876298 650.305603 
L 867.871725 651.488988 
L 871.330465 651.104648 
L 873.991034 649.536924 
L 875.18829 651.295775 
L 879.578229 653.832615 
L 883.569082 654.820623 
L 887.293879 651.067416 
L 890.087477 647.104192 
L 891.284733 651.245648 
L 894.07833 655.387103 
L 895.541643 654.031269 
L 898.202212 652.675435 
L 902.193066 652.676209 
L 903.390322 653.468351 
L 907.514204 653.870507 
L 910.44083 653.480521 
L 911.638086 653.886311 
L 914.431683 654.2921 
L 916.294081 654.09911 
L 919.88585 651.250612 
L 922.546419 648.595105 
L 923.743675 650.035908 
L 928.266642 652.279509 
L 932.922638 652.080008 
L 934.652008 651.878909 
L 935.716235 653.484899 
L 938.642861 655.090889 
L 940.106174 657.960272 
L 944.097028 651.879187 
L 946.757597 642.928719 
L 948.087881 646.386154 
L 950.74845 649.84359 
L 956.202617 653.867037 
L 958.996214 650.636198 
L 960.19347 650.031011 
L 962.987068 649.425824 
L 964.849466 654.091001 
L 967.11095 655.900895 
L 968.308206 656.548336 
L 971.101803 657.195778 
L 972.29906 656.837416 
L 976.822027 647.73482 
L 979.349567 638.990585 
L 980.679852 640.608364 
L 983.207393 642.226144 
L 984.27162 648.594415 
L 987.198246 654.962686 
L 988.661559 658.863265 
L 992.652413 658.341587 
L 995.312982 653.919331 
L 996.510238 652.687307 
L 999.303835 651.455282 
L 1000.63412 651.251354 
L 1003.427717 651.047425 
L 1004.624973 650.846816 
L 1007.551599 650.646207 
L 1013.271823 652.67241 
L 1015.666335 655.090889 
L 1016.863591 653.889535 
L 1019.657188 652.688181 
L 1025.377412 652.685676 
L 1027.904952 651.458653 
L 1028.96918 652.074658 
L 1031.895806 652.690664 
L 1037.349972 649.586106 
L 1039.877513 653.867734 
L 1044.001395 655.879348 
L 1045.597736 654.080228 
L 1049.322533 652.484645 
L 1052.11613 652.688181 
L 1053.313387 653.096491 
L 1057.437269 651.456589 
L 1060.230866 649.408378 
L 1064.354748 651.067243 
L 1069.542858 652.279509 
L 1072.469484 653.082306 
L 1076.061252 656.303093 
L 1084.442044 651.076916 
L 1085.772329 651.679012 
L 1088.432898 652.281108 
L 1088.432898 652.281108 
" clip-path="url(#pe726f2da23)" style="fill: none; stroke: #800080; stroke-width: 1.5; stroke-linecap: square"/>
   </g>
   <g id="patch_21">
    <path d="M 59.690625 687.558125 
L 59.690625 554.218125 
" style="fill: none; stroke: #000000; stroke-width: 0.8; stroke-linejoin: miter; stroke-linecap: square"/>
   </g>
   <g id="patch_22">
    <path d="M 1137.420625 687.558125 
L 1137.420625 554.218125 
" style="fill: none; stroke: #000000; stroke-width: 0.8; stroke-linejoin: miter; stroke-linecap: square"/>
   </g>
   <g id="patch_23">
    <path d="M 59.690625 687.558125 
L 1137.420625 687.558125 
" style="fill: none; stroke: #000000; stroke-width: 0.8; stroke-linejoin: miter; stroke-linecap: square"/>
   </g>
   <g id="patch_24">
    <path d="M 59.690625 554.218125 
L 1137.420625 554.218125 
" style="fill: none; stroke: #000000; stroke-width: 0.8; stroke-linejoin: miter; stroke-linecap: square"/>
   </g>
   <g id="text_52">
    <!-- PMI Change(MOM) -->
    <g transform="translate(543.352812 548.218125) scale(0.12 -0.12)">
     <defs>
      <path id="DejaVuSans-68" d="M 3513 2113 
L 3513 0 
L 2938 0 
L 2938 2094 
Q 2938 2591 2744 2837 
Q 2550 3084 2163 3084 
Q 1697 3084 1428 2787 
Q 1159 2491 1159 1978 
L 1159 0 
L 581 0 
L 581 4863 
L 1159 4863 
L 1159 2956 
Q 1366 3272 1645 3428 
Q 1925 3584 2291 3584 
Q 2894 3584 3203 3211 
Q 3513 2838 3513 2113 
z
" transform="scale(0.015625)"/>
     </defs>
     <use xlink:href="#DejaVuSans-50"/>
     <use xlink:href="#DejaVuSans-4d" transform="translate(60.302734 0)"/>
     <use xlink:href="#DejaVuSans-49" transform="translate(146.582031 0)"/>
     <use xlink:href="#DejaVuSans-20" transform="translate(176.074219 0)"/>
     <use xlink:href="#DejaVuSans-43" transform="translate(207.861328 0)"/>
     <use xlink:href="#DejaVuSans-68" transform="translate(277.685547 0)"/>
     <use xlink:href="#DejaVuSans-61" transform="translate(341.064453 0)"/>
     <use xlink:href="#DejaVuSans-6e" transform="translate(402.34375 0)"/>
     <use xlink:href="#DejaVuSans-67" transform="translate(465.722656 0)"/>
     <use xlink:href="#DejaVuSans-65" transform="translate(529.199219 0)"/>
     <use xlink:href="#DejaVuSans-28" transform="translate(590.722656 0)"/>
     <use xlink:href="#DejaVuSans-4d" transform="translate(629.736328 0)"/>
     <use xlink:href="#DejaVuSans-4f" transform="translate(716.015625 0)"/>
     <use xlink:href="#DejaVuSans-4d" transform="translate(794.726562 0)"/>
     <use xlink:href="#DejaVuSans-29" transform="translate(881.005859 0)"/>
    </g>
   </g>
   <g id="legend_4">
    <g id="patch_25">
     <path d="M 1080.812813 576.89625 
L 1130.420625 576.89625 
Q 1132.420625 576.89625 1132.420625 574.89625 
L 1132.420625 561.218125 
Q 1132.420625 559.218125 1130.420625 559.218125 
L 1080.812813 559.218125 
Q 1078.812813 559.218125 1078.812813 561.218125 
L 1078.812813 574.89625 
Q 1078.812813 576.89625 1080.812813 576.89625 
z
" style="fill: #ffffff; opacity: 0.8; stroke: #cccccc; stroke-linejoin: miter"/>
    </g>
    <g id="line2d_74">
     <path d="M 1082.812813 567.316562 
L 1092.812813 567.316562 
L 1102.812813 567.316562 
" style="fill: none; stroke: #800080; stroke-width: 1.5; stroke-linecap: square"/>
    </g>
    <g id="text_53">
     <!-- PMI -->
     <g transform="translate(1110.812813 570.816562) scale(0.1 -0.1)">
      <use xlink:href="#DejaVuSans-50"/>
      <use xlink:href="#DejaVuSans-4d" transform="translate(60.302734 0)"/>
      <use xlink:href="#DejaVuSans-49" transform="translate(146.582031 0)"/>
     </g>
    </g>
   </g>
  </g>
 </g>
 <defs>
  <clipPath id="pb7b0b55401">
   <rect x="59.690625" y="22.318125" width="1077.73" height="133.34"/>
  </clipPath>
  <clipPath id="pe3b1b85a0c">
   <rect x="59.690625" y="199.618125" width="1077.73" height="133.34"/>
  </clipPath>
  <clipPath id="p4d522706be">
   <rect x="59.690625" y="376.918125" width="1077.73" height="133.34"/>
  </clipPath>
  <clipPath id="pe726f2da23">
   <rect x="59.690625" y="554.218125" width="1077.73" height="133.34"/>
  </clipPath>
 </defs>
</svg>
