<?xml version="1.0" encoding="utf-8" standalone="no"?>
<!DOCTYPE svg PUBLIC "-//W3C//DTD SVG 1.1//EN"
  "http://www.w3.org/Graphics/SVG/1.1/DTD/svg11.dtd">
<svg xmlns:xlink="http://www.w3.org/1999/xlink" width="1144.620625pt" height="855.034375pt" viewBox="0 0 1144.620625 855.034375" xmlns="http://www.w3.org/2000/svg" version="1.1">
 <metadata>
  <rdf:RDF xmlns:dc="http://purl.org/dc/elements/1.1/" xmlns:cc="http://creativecommons.org/ns#" xmlns:rdf="http://www.w3.org/1999/02/22-rdf-syntax-ns#">
   <cc:Work>
    <dc:type rdf:resource="http://purl.org/dc/dcmitype/StillImage"/>
    <dc:date>2025-05-10T16:58:51.505516</dc:date>
    <dc:format>image/svg+xml</dc:format>
    <dc:creator>
     <cc:Agent>
      <dc:title>Matplotlib v3.10.1, https://matplotlib.org/</dc:title>
     </cc:Agent>
    </dc:creator>
   </cc:Work>
  </rdf:RDF>
 </metadata>
 <defs>
  <style type="text/css">*{stroke-linejoin: round; stroke-linecap: butt}</style>
 </defs>
 <g id="figure_1">
  <g id="patch_1">
   <path d="M 0 855.034375 
L 1144.620625 855.034375 
L 1144.620625 0 
L 0 0 
z
" style="fill: #ffffff"/>
  </g>
  <g id="axes_1">
   <g id="patch_2">
    <path d="M 59.690625 177.578125 
L 1137.420625 177.578125 
L 1137.420625 22.318125 
L 59.690625 22.318125 
z
" style="fill: #ffffff"/>
   </g>
   <g id="matplotlib.axis_1">
    <g id="xtick_1">
     <g id="line2d_1">
      <path d="M 104.55391 177.578125 
L 104.55391 22.318125 
" clip-path="url(#pee3e5f5eed)" style="fill: none; stroke: #b0b0b0; stroke-width: 0.8; stroke-linecap: square"/>
     </g>
     <g id="line2d_2">
      <defs>
       <path id="m5d72a4e3c0" d="M 0 0 
L 0 3.5 
" style="stroke: #000000; stroke-width: 0.8"/>
      </defs>
      <g>
       <use xlink:href="#m5d72a4e3c0" x="104.55391" y="177.578125" style="stroke: #000000; stroke-width: 0.8"/>
      </g>
     </g>
     <g id="text_1">
      <!-- 2005 -->
      <g transform="translate(91.82891 192.176562) scale(0.1 -0.1)">
       <defs>
        <path id="DejaVuSans-32" d="M 1228 531 
L 3431 531 
L 3431 0 
L 469 0 
L 469 531 
Q 828 903 1448 1529 
Q 2069 2156 2228 2338 
Q 2531 2678 2651 2914 
Q 2772 3150 2772 3378 
Q 2772 3750 2511 3984 
Q 2250 4219 1831 4219 
Q 1534 4219 1204 4116 
Q 875 4013 500 3803 
L 500 4441 
Q 881 4594 1212 4672 
Q 1544 4750 1819 4750 
Q 2544 4750 2975 4387 
Q 3406 4025 3406 3419 
Q 3406 3131 3298 2873 
Q 3191 2616 2906 2266 
Q 2828 2175 2409 1742 
Q 1991 1309 1228 531 
z
" transform="scale(0.015625)"/>
        <path id="DejaVuSans-30" d="M 2034 4250 
Q 1547 4250 1301 3770 
Q 1056 3291 1056 2328 
Q 1056 1369 1301 889 
Q 1547 409 2034 409 
Q 2525 409 2770 889 
Q 3016 1369 3016 2328 
Q 3016 3291 2770 3770 
Q 2525 4250 2034 4250 
z
M 2034 4750 
Q 2819 4750 3233 4129 
Q 3647 3509 3647 2328 
Q 3647 1150 3233 529 
Q 2819 -91 2034 -91 
Q 1250 -91 836 529 
Q 422 1150 422 2328 
Q 422 3509 836 4129 
Q 1250 4750 2034 4750 
z
" transform="scale(0.015625)"/>
        <path id="DejaVuSans-35" d="M 691 4666 
L 3169 4666 
L 3169 4134 
L 1269 4134 
L 1269 2991 
Q 1406 3038 1543 3061 
Q 1681 3084 1819 3084 
Q 2600 3084 3056 2656 
Q 3513 2228 3513 1497 
Q 3513 744 3044 326 
Q 2575 -91 1722 -91 
Q 1428 -91 1123 -41 
Q 819 9 494 109 
L 494 744 
Q 775 591 1075 516 
Q 1375 441 1709 441 
Q 2250 441 2565 725 
Q 2881 1009 2881 1497 
Q 2881 1984 2565 2268 
Q 2250 2553 1709 2553 
Q 1456 2553 1204 2497 
Q 953 2441 691 2322 
L 691 4666 
z
" transform="scale(0.015625)"/>
       </defs>
       <use xlink:href="#DejaVuSans-32"/>
       <use xlink:href="#DejaVuSans-30" transform="translate(63.623047 0)"/>
       <use xlink:href="#DejaVuSans-30" transform="translate(127.246094 0)"/>
       <use xlink:href="#DejaVuSans-35" transform="translate(190.869141 0)"/>
      </g>
     </g>
    </g>
    <g id="xtick_2">
     <g id="line2d_3">
      <path d="M 347.496849 177.578125 
L 347.496849 22.318125 
" clip-path="url(#pee3e5f5eed)" style="fill: none; stroke: #b0b0b0; stroke-width: 0.8; stroke-linecap: square"/>
     </g>
     <g id="line2d_4">
      <g>
       <use xlink:href="#m5d72a4e3c0" x="347.496849" y="177.578125" style="stroke: #000000; stroke-width: 0.8"/>
      </g>
     </g>
     <g id="text_2">
      <!-- 2010 -->
      <g transform="translate(334.771849 192.176562) scale(0.1 -0.1)">
       <defs>
        <path id="DejaVuSans-31" d="M 794 531 
L 1825 531 
L 1825 4091 
L 703 3866 
L 703 4441 
L 1819 4666 
L 2450 4666 
L 2450 531 
L 3481 531 
L 3481 0 
L 794 0 
L 794 531 
z
" transform="scale(0.015625)"/>
       </defs>
       <use xlink:href="#DejaVuSans-32"/>
       <use xlink:href="#DejaVuSans-30" transform="translate(63.623047 0)"/>
       <use xlink:href="#DejaVuSans-31" transform="translate(127.246094 0)"/>
       <use xlink:href="#DejaVuSans-30" transform="translate(190.869141 0)"/>
      </g>
     </g>
    </g>
    <g id="xtick_3">
     <g id="line2d_5">
      <path d="M 590.439788 177.578125 
L 590.439788 22.318125 
" clip-path="url(#pee3e5f5eed)" style="fill: none; stroke: #b0b0b0; stroke-width: 0.8; stroke-linecap: square"/>
     </g>
     <g id="line2d_6">
      <g>
       <use xlink:href="#m5d72a4e3c0" x="590.439788" y="177.578125" style="stroke: #000000; stroke-width: 0.8"/>
      </g>
     </g>
     <g id="text_3">
      <!-- 2015 -->
      <g transform="translate(577.714788 192.176562) scale(0.1 -0.1)">
       <use xlink:href="#DejaVuSans-32"/>
       <use xlink:href="#DejaVuSans-30" transform="translate(63.623047 0)"/>
       <use xlink:href="#DejaVuSans-31" transform="translate(127.246094 0)"/>
       <use xlink:href="#DejaVuSans-35" transform="translate(190.869141 0)"/>
      </g>
     </g>
    </g>
    <g id="xtick_4">
     <g id="line2d_7">
      <path d="M 833.382726 177.578125 
L 833.382726 22.318125 
" clip-path="url(#pee3e5f5eed)" style="fill: none; stroke: #b0b0b0; stroke-width: 0.8; stroke-linecap: square"/>
     </g>
     <g id="line2d_8">
      <g>
       <use xlink:href="#m5d72a4e3c0" x="833.382726" y="177.578125" style="stroke: #000000; stroke-width: 0.8"/>
      </g>
     </g>
     <g id="text_4">
      <!-- 2020 -->
      <g transform="translate(820.657726 192.176562) scale(0.1 -0.1)">
       <use xlink:href="#DejaVuSans-32"/>
       <use xlink:href="#DejaVuSans-30" transform="translate(63.623047 0)"/>
       <use xlink:href="#DejaVuSans-32" transform="translate(127.246094 0)"/>
       <use xlink:href="#DejaVuSans-30" transform="translate(190.869141 0)"/>
      </g>
     </g>
    </g>
    <g id="xtick_5">
     <g id="line2d_9">
      <path d="M 1076.458711 177.578125 
L 1076.458711 22.318125 
" clip-path="url(#pee3e5f5eed)" style="fill: none; stroke: #b0b0b0; stroke-width: 0.8; stroke-linecap: square"/>
     </g>
     <g id="line2d_10">
      <g>
       <use xlink:href="#m5d72a4e3c0" x="1076.458711" y="177.578125" style="stroke: #000000; stroke-width: 0.8"/>
      </g>
     </g>
     <g id="text_5">
      <!-- 2025 -->
      <g transform="translate(1063.733711 192.176562) scale(0.1 -0.1)">
       <use xlink:href="#DejaVuSans-32"/>
       <use xlink:href="#DejaVuSans-30" transform="translate(63.623047 0)"/>
       <use xlink:href="#DejaVuSans-32" transform="translate(127.246094 0)"/>
       <use xlink:href="#DejaVuSans-35" transform="translate(190.869141 0)"/>
      </g>
     </g>
    </g>
    <g id="text_6">
     <!-- Date -->
     <g transform="translate(586.604844 205.854687) scale(0.1 -0.1)">
      <defs>
       <path id="DejaVuSans-44" d="M 1259 4147 
L 1259 519 
L 2022 519 
Q 2988 519 3436 956 
Q 3884 1394 3884 2338 
Q 3884 3275 3436 3711 
Q 2988 4147 2022 4147 
L 1259 4147 
z
M 628 4666 
L 1925 4666 
Q 3281 4666 3915 4102 
Q 4550 3538 4550 2338 
Q 4550 1131 3912 565 
Q 3275 0 1925 0 
L 628 0 
L 628 4666 
z
" transform="scale(0.015625)"/>
       <path id="DejaVuSans-61" d="M 2194 1759 
Q 1497 1759 1228 1600 
Q 959 1441 959 1056 
Q 959 750 1161 570 
Q 1363 391 1709 391 
Q 2188 391 2477 730 
Q 2766 1069 2766 1631 
L 2766 1759 
L 2194 1759 
z
M 3341 1997 
L 3341 0 
L 2766 0 
L 2766 531 
Q 2569 213 2275 61 
Q 1981 -91 1556 -91 
Q 1019 -91 701 211 
Q 384 513 384 1019 
Q 384 1609 779 1909 
Q 1175 2209 1959 2209 
L 2766 2209 
L 2766 2266 
Q 2766 2663 2505 2880 
Q 2244 3097 1772 3097 
Q 1472 3097 1187 3025 
Q 903 2953 641 2809 
L 641 3341 
Q 956 3463 1253 3523 
Q 1550 3584 1831 3584 
Q 2591 3584 2966 3190 
Q 3341 2797 3341 1997 
z
" transform="scale(0.015625)"/>
       <path id="DejaVuSans-74" d="M 1172 4494 
L 1172 3500 
L 2356 3500 
L 2356 3053 
L 1172 3053 
L 1172 1153 
Q 1172 725 1289 603 
Q 1406 481 1766 481 
L 2356 481 
L 2356 0 
L 1766 0 
Q 1100 0 847 248 
Q 594 497 594 1153 
L 594 3053 
L 172 3053 
L 172 3500 
L 594 3500 
L 594 4494 
L 1172 4494 
z
" transform="scale(0.015625)"/>
       <path id="DejaVuSans-65" d="M 3597 1894 
L 3597 1613 
L 953 1613 
Q 991 1019 1311 708 
Q 1631 397 2203 397 
Q 2534 397 2845 478 
Q 3156 559 3463 722 
L 3463 178 
Q 3153 47 2828 -22 
Q 2503 -91 2169 -91 
Q 1331 -91 842 396 
Q 353 884 353 1716 
Q 353 2575 817 3079 
Q 1281 3584 2069 3584 
Q 2775 3584 3186 3129 
Q 3597 2675 3597 1894 
z
M 3022 2063 
Q 3016 2534 2758 2815 
Q 2500 3097 2075 3097 
Q 1594 3097 1305 2825 
Q 1016 2553 972 2059 
L 3022 2063 
z
" transform="scale(0.015625)"/>
      </defs>
      <use xlink:href="#DejaVuSans-44"/>
      <use xlink:href="#DejaVuSans-61" transform="translate(77.001953 0)"/>
      <use xlink:href="#DejaVuSans-74" transform="translate(138.28125 0)"/>
      <use xlink:href="#DejaVuSans-65" transform="translate(177.490234 0)"/>
     </g>
    </g>
   </g>
   <g id="matplotlib.axis_2">
    <g id="ytick_1">
     <g id="line2d_11">
      <path d="M 59.690625 150.360009 
L 1137.420625 150.360009 
" clip-path="url(#pee3e5f5eed)" style="fill: none; stroke: #b0b0b0; stroke-width: 0.8; stroke-linecap: square"/>
     </g>
     <g id="line2d_12">
      <defs>
       <path id="m6dd7000ff2" d="M 0 0 
L -3.5 0 
" style="stroke: #000000; stroke-width: 0.8"/>
      </defs>
      <g>
       <use xlink:href="#m6dd7000ff2" x="59.690625" y="150.360009" style="stroke: #000000; stroke-width: 0.8"/>
      </g>
     </g>
     <g id="text_7">
      <!-- 5000 -->
      <g transform="translate(27.240625 154.159227) scale(0.1 -0.1)">
       <use xlink:href="#DejaVuSans-35"/>
       <use xlink:href="#DejaVuSans-30" transform="translate(63.623047 0)"/>
       <use xlink:href="#DejaVuSans-30" transform="translate(127.246094 0)"/>
       <use xlink:href="#DejaVuSans-30" transform="translate(190.869141 0)"/>
      </g>
     </g>
    </g>
    <g id="ytick_2">
     <g id="line2d_13">
      <path d="M 59.690625 106.759508 
L 1137.420625 106.759508 
" clip-path="url(#pee3e5f5eed)" style="fill: none; stroke: #b0b0b0; stroke-width: 0.8; stroke-linecap: square"/>
     </g>
     <g id="line2d_14">
      <g>
       <use xlink:href="#m6dd7000ff2" x="59.690625" y="106.759508" style="stroke: #000000; stroke-width: 0.8"/>
      </g>
     </g>
     <g id="text_8">
      <!-- 10000 -->
      <g transform="translate(20.878125 110.558727) scale(0.1 -0.1)">
       <use xlink:href="#DejaVuSans-31"/>
       <use xlink:href="#DejaVuSans-30" transform="translate(63.623047 0)"/>
       <use xlink:href="#DejaVuSans-30" transform="translate(127.246094 0)"/>
       <use xlink:href="#DejaVuSans-30" transform="translate(190.869141 0)"/>
       <use xlink:href="#DejaVuSans-30" transform="translate(254.492188 0)"/>
      </g>
     </g>
    </g>
    <g id="ytick_3">
     <g id="line2d_15">
      <path d="M 59.690625 63.159007 
L 1137.420625 63.159007 
" clip-path="url(#pee3e5f5eed)" style="fill: none; stroke: #b0b0b0; stroke-width: 0.8; stroke-linecap: square"/>
     </g>
     <g id="line2d_16">
      <g>
       <use xlink:href="#m6dd7000ff2" x="59.690625" y="63.159007" style="stroke: #000000; stroke-width: 0.8"/>
      </g>
     </g>
     <g id="text_9">
      <!-- 15000 -->
      <g transform="translate(20.878125 66.958226) scale(0.1 -0.1)">
       <use xlink:href="#DejaVuSans-31"/>
       <use xlink:href="#DejaVuSans-35" transform="translate(63.623047 0)"/>
       <use xlink:href="#DejaVuSans-30" transform="translate(127.246094 0)"/>
       <use xlink:href="#DejaVuSans-30" transform="translate(190.869141 0)"/>
       <use xlink:href="#DejaVuSans-30" transform="translate(254.492188 0)"/>
      </g>
     </g>
    </g>
    <g id="text_10">
     <!-- Closing Price -->
     <g transform="translate(14.798438 132.011406) rotate(-90) scale(0.1 -0.1)">
      <defs>
       <path id="DejaVuSans-43" d="M 4122 4306 
L 4122 3641 
Q 3803 3938 3442 4084 
Q 3081 4231 2675 4231 
Q 1875 4231 1450 3742 
Q 1025 3253 1025 2328 
Q 1025 1406 1450 917 
Q 1875 428 2675 428 
Q 3081 428 3442 575 
Q 3803 722 4122 1019 
L 4122 359 
Q 3791 134 3420 21 
Q 3050 -91 2638 -91 
Q 1578 -91 968 557 
Q 359 1206 359 2328 
Q 359 3453 968 4101 
Q 1578 4750 2638 4750 
Q 3056 4750 3426 4639 
Q 3797 4528 4122 4306 
z
" transform="scale(0.015625)"/>
       <path id="DejaVuSans-6c" d="M 603 4863 
L 1178 4863 
L 1178 0 
L 603 0 
L 603 4863 
z
" transform="scale(0.015625)"/>
       <path id="DejaVuSans-6f" d="M 1959 3097 
Q 1497 3097 1228 2736 
Q 959 2375 959 1747 
Q 959 1119 1226 758 
Q 1494 397 1959 397 
Q 2419 397 2687 759 
Q 2956 1122 2956 1747 
Q 2956 2369 2687 2733 
Q 2419 3097 1959 3097 
z
M 1959 3584 
Q 2709 3584 3137 3096 
Q 3566 2609 3566 1747 
Q 3566 888 3137 398 
Q 2709 -91 1959 -91 
Q 1206 -91 779 398 
Q 353 888 353 1747 
Q 353 2609 779 3096 
Q 1206 3584 1959 3584 
z
" transform="scale(0.015625)"/>
       <path id="DejaVuSans-73" d="M 2834 3397 
L 2834 2853 
Q 2591 2978 2328 3040 
Q 2066 3103 1784 3103 
Q 1356 3103 1142 2972 
Q 928 2841 928 2578 
Q 928 2378 1081 2264 
Q 1234 2150 1697 2047 
L 1894 2003 
Q 2506 1872 2764 1633 
Q 3022 1394 3022 966 
Q 3022 478 2636 193 
Q 2250 -91 1575 -91 
Q 1294 -91 989 -36 
Q 684 19 347 128 
L 347 722 
Q 666 556 975 473 
Q 1284 391 1588 391 
Q 1994 391 2212 530 
Q 2431 669 2431 922 
Q 2431 1156 2273 1281 
Q 2116 1406 1581 1522 
L 1381 1569 
Q 847 1681 609 1914 
Q 372 2147 372 2553 
Q 372 3047 722 3315 
Q 1072 3584 1716 3584 
Q 2034 3584 2315 3537 
Q 2597 3491 2834 3397 
z
" transform="scale(0.015625)"/>
       <path id="DejaVuSans-69" d="M 603 3500 
L 1178 3500 
L 1178 0 
L 603 0 
L 603 3500 
z
M 603 4863 
L 1178 4863 
L 1178 4134 
L 603 4134 
L 603 4863 
z
" transform="scale(0.015625)"/>
       <path id="DejaVuSans-6e" d="M 3513 2113 
L 3513 0 
L 2938 0 
L 2938 2094 
Q 2938 2591 2744 2837 
Q 2550 3084 2163 3084 
Q 1697 3084 1428 2787 
Q 1159 2491 1159 1978 
L 1159 0 
L 581 0 
L 581 3500 
L 1159 3500 
L 1159 2956 
Q 1366 3272 1645 3428 
Q 1925 3584 2291 3584 
Q 2894 3584 3203 3211 
Q 3513 2838 3513 2113 
z
" transform="scale(0.015625)"/>
       <path id="DejaVuSans-67" d="M 2906 1791 
Q 2906 2416 2648 2759 
Q 2391 3103 1925 3103 
Q 1463 3103 1205 2759 
Q 947 2416 947 1791 
Q 947 1169 1205 825 
Q 1463 481 1925 481 
Q 2391 481 2648 825 
Q 2906 1169 2906 1791 
z
M 3481 434 
Q 3481 -459 3084 -895 
Q 2688 -1331 1869 -1331 
Q 1566 -1331 1297 -1286 
Q 1028 -1241 775 -1147 
L 775 -588 
Q 1028 -725 1275 -790 
Q 1522 -856 1778 -856 
Q 2344 -856 2625 -561 
Q 2906 -266 2906 331 
L 2906 616 
Q 2728 306 2450 153 
Q 2172 0 1784 0 
Q 1141 0 747 490 
Q 353 981 353 1791 
Q 353 2603 747 3093 
Q 1141 3584 1784 3584 
Q 2172 3584 2450 3431 
Q 2728 3278 2906 2969 
L 2906 3500 
L 3481 3500 
L 3481 434 
z
" transform="scale(0.015625)"/>
       <path id="DejaVuSans-20" transform="scale(0.015625)"/>
       <path id="DejaVuSans-50" d="M 1259 4147 
L 1259 2394 
L 2053 2394 
Q 2494 2394 2734 2622 
Q 2975 2850 2975 3272 
Q 2975 3691 2734 3919 
Q 2494 4147 2053 4147 
L 1259 4147 
z
M 628 4666 
L 2053 4666 
Q 2838 4666 3239 4311 
Q 3641 3956 3641 3272 
Q 3641 2581 3239 2228 
Q 2838 1875 2053 1875 
L 1259 1875 
L 1259 0 
L 628 0 
L 628 4666 
z
" transform="scale(0.015625)"/>
       <path id="DejaVuSans-72" d="M 2631 2963 
Q 2534 3019 2420 3045 
Q 2306 3072 2169 3072 
Q 1681 3072 1420 2755 
Q 1159 2438 1159 1844 
L 1159 0 
L 581 0 
L 581 3500 
L 1159 3500 
L 1159 2956 
Q 1341 3275 1631 3429 
Q 1922 3584 2338 3584 
Q 2397 3584 2469 3576 
Q 2541 3569 2628 3553 
L 2631 2963 
z
" transform="scale(0.015625)"/>
       <path id="DejaVuSans-63" d="M 3122 3366 
L 3122 2828 
Q 2878 2963 2633 3030 
Q 2388 3097 2138 3097 
Q 1578 3097 1268 2742 
Q 959 2388 959 1747 
Q 959 1106 1268 751 
Q 1578 397 2138 397 
Q 2388 397 2633 464 
Q 2878 531 3122 666 
L 3122 134 
Q 2881 22 2623 -34 
Q 2366 -91 2075 -91 
Q 1284 -91 818 406 
Q 353 903 353 1747 
Q 353 2603 823 3093 
Q 1294 3584 2113 3584 
Q 2378 3584 2631 3529 
Q 2884 3475 3122 3366 
z
" transform="scale(0.015625)"/>
      </defs>
      <use xlink:href="#DejaVuSans-43"/>
      <use xlink:href="#DejaVuSans-6c" transform="translate(69.824219 0)"/>
      <use xlink:href="#DejaVuSans-6f" transform="translate(97.607422 0)"/>
      <use xlink:href="#DejaVuSans-73" transform="translate(158.789062 0)"/>
      <use xlink:href="#DejaVuSans-69" transform="translate(210.888672 0)"/>
      <use xlink:href="#DejaVuSans-6e" transform="translate(238.671875 0)"/>
      <use xlink:href="#DejaVuSans-67" transform="translate(302.050781 0)"/>
      <use xlink:href="#DejaVuSans-20" transform="translate(365.527344 0)"/>
      <use xlink:href="#DejaVuSans-50" transform="translate(397.314453 0)"/>
      <use xlink:href="#DejaVuSans-72" transform="translate(455.867188 0)"/>
      <use xlink:href="#DejaVuSans-69" transform="translate(496.980469 0)"/>
      <use xlink:href="#DejaVuSans-63" transform="translate(524.763672 0)"/>
      <use xlink:href="#DejaVuSans-65" transform="translate(579.744141 0)"/>
     </g>
    </g>
   </g>
   <g id="line2d_17">
    <path d="M 108.678352 164.91014 
L 112.403655 165.495902 
L 116.528097 165.764892 
L 120.519492 169.02576 
L 124.643934 169.214792 
L 128.63533 169.779392 
L 132.759772 167.784004 
L 136.884214 168.21977 
L 140.875609 170.125552 
L 145.000051 170.520852 
L 148.991447 169.500397 
L 153.115889 166.744616 
L 157.240331 164.830495 
L 160.965633 164.401009 
L 165.090075 160.865242 
L 169.081471 156.830976 
L 173.205913 157.865837 
L 177.197308 157.574414 
L 181.32175 159.076304 
L 185.446192 157.092401 
L 189.437588 154.857853 
L 193.56203 148.784961 
L 197.553425 139.140332 
L 201.677867 124.547459 
L 205.802309 123.542547 
L 209.527612 120.7905 
L 213.652054 103.925986 
L 217.643449 84.918432 
L 221.767891 76.876486 
L 225.759287 74.012759 
L 229.883729 44.884576 
L 234.008171 35.291493 
L 237.999566 29.375398 
L 242.124008 50.65407 
L 246.115404 46.381368 
L 250.239846 43.823283 
L 254.364288 53.060365 
L 258.222637 75.06649 
L 262.347079 85.238977 
L 266.338474 84.717245 
L 270.462916 108.148434 
L 274.454311 108.759963 
L 278.578753 122.928908 
L 286.694591 140.389252 
L 290.819033 137.427713 
L 294.810428 132.999691 
L 298.93487 133.881365 
L 303.059312 122.472113 
L 306.784615 118.943299 
L 314.900452 105.180086 
L 319.024894 96.803846 
L 323.01629 78.463113 
L 327.140732 89.975246 
L 331.265174 92.05592 
L 335.256569 85.504947 
L 339.381011 76.871832 
L 343.372407 76.743119 
L 347.496849 83.105297 
L 351.621291 87.341882 
L 355.346593 86.498331 
L 359.471035 91.336693 
L 363.462431 104.347819 
L 367.586873 106.468621 
L 371.578268 104.130607 
L 375.70271 97.202302 
L 379.827152 94.73372 
L 383.818548 78.720656 
L 387.94299 84.002119 
L 391.934385 84.88251 
L 396.058827 90.36552 
L 400.183269 83.720984 
L 403.908572 82.471199 
L 408.033014 83.763174 
L 412.024409 90.622836 
L 416.148851 91.503474 
L 420.140247 87.136363 
L 424.264689 94.0973 
L 428.389131 101.468933 
L 432.380526 104.638375 
L 436.504968 105.585278 
L 440.496364 115.479327 
L 444.620806 113.844729 
L 448.745248 108.402879 
L 452.603597 107.317319 
L 456.728039 106.288803 
L 460.719434 105.73811 
L 464.843876 109.680741 
L 468.835272 112.648561 
L 472.959714 118.233277 
L 477.084156 120.314586 
L 481.075551 119.074934 
L 485.199993 123.437316 
L 489.191389 118.219239 
L 493.315831 111.170831 
L 497.440273 110.814959 
L 501.165575 114.00525 
L 505.290017 116.531792 
L 509.281413 113.364898 
L 513.405855 123.958176 
L 517.39725 125.449286 
L 521.521692 122.10519 
L 525.646134 119.344261 
L 529.63753 119.655665 
L 533.761972 120.715933 
L 537.753367 122.815724 
L 541.877809 126.827262 
L 546.002251 127.78366 
L 549.727554 131.014994 
L 553.851996 129.429327 
L 557.843391 130.596562 
L 561.967833 130.462593 
L 565.959229 128.540245 
L 570.083671 124.82019 
L 574.208113 123.701298 
L 578.199508 123.564731 
L 582.32395 119.853672 
L 586.315346 101.611883 
L 590.439788 95.013194 
L 594.56423 94.154824 
L 598.289532 85.131597 
L 602.413974 68.338555 
L 606.405369 57.047692 
L 610.529811 53.107812 
L 614.521207 83.289031 
L 618.645649 91.817741 
L 622.770091 106.459506 
L 626.761486 94.299572 
L 630.885928 85.25546 
L 634.877324 83.003727 
L 639.001766 107.08554 
L 643.126208 107.923237 
L 651.108999 103.945383 
L 655.100394 107.958877 
L 659.224836 104.356624 
L 663.216232 101.040775 
L 667.340674 100.611559 
L 671.465116 101.878789 
L 675.456511 100.023572 
L 679.580953 98.525053 
L 683.572349 104.093853 
L 687.696791 106.899163 
L 691.821233 103.939684 
L 695.546535 102.187607 
L 699.670977 103.829159 
L 703.662373 107.712929 
L 707.786815 103.824671 
L 711.77821 103.450796 
L 715.902652 101.132594 
L 720.027094 97.594807 
L 724.01849 95.047412 
L 728.142932 95.414582 
L 732.134327 97.867822 
L 736.258769 94.529948 
L 740.383211 101.621238 
L 744.108514 99.017906 
L 748.232956 102.359709 
L 752.224351 102.105812 
L 756.348793 110.394938 
L 760.340189 113.23838 
L 764.464631 119.116688 
L 768.589073 121.813676 
L 772.580468 128.750926 
L 776.70491 126.027301 
L 780.696306 128.961246 
L 784.820748 128.420392 
L 788.94519 118.239556 
L 792.670492 109.424621 
L 796.794934 106.006432 
L 800.78633 115.524656 
L 804.910772 115.127409 
L 808.902167 113.038933 
L 813.026609 113.41107 
L 817.151051 109.147992 
L 821.142447 109.800805 
L 825.266889 109.340939 
L 829.258284 105.197187 
L 833.382726 98.659521 
L 837.507168 95.665995 
L 841.365517 104.175334 
L 845.489959 102.430799 
L 849.481355 99.685218 
L 853.605797 93.237754 
L 857.597192 77.011798 
L 861.721634 75.404073 
L 865.846076 80.54661 
L 869.837472 77.177472 
L 873.961914 73.892355 
L 877.953309 72.068097 
L 882.077751 60.928383 
L 886.202193 61.278221 
L 889.927496 74.056085 
L 894.051938 70.688239 
L 898.043333 66.699617 
L 902.167775 64.693689 
L 906.159171 65.081059 
L 910.283613 66.925466 
L 914.408055 68.425005 
L 918.39945 68.140387 
L 922.523892 65.435817 
L 926.515287 64.543726 
L 930.639729 72.083037 
L 934.764171 77.198444 
L 938.489474 87.492569 
L 942.613916 97.156953 
L 946.605311 95.971493 
L 950.729753 85.279919 
L 954.721149 85.169604 
L 958.845591 87.300795 
L 962.970033 96.152167 
L 966.961428 100.136429 
L 971.08587 97.500331 
L 975.077266 97.170708 
L 979.201708 91.321839 
L 983.32615 90.211065 
L 987.051452 93.336559 
L 991.175894 93.384969 
L 995.16729 98.19566 
L 999.291732 97.946643 
L 1003.283127 98.254027 
L 1007.407569 102.374619 
L 1011.532011 105.300067 
L 1015.523407 109.032318 
L 1019.647849 107.622888 
L 1023.639244 112.420165 
L 1027.763686 117.970202 
L 1031.888128 115.5512 
L 1035.746477 111.072499 
L 1039.870919 112.251788 
L 1043.862315 110.778819 
L 1047.986757 114.840252 
L 1051.978152 118.202116 
L 1056.102594 121.930834 
L 1060.227036 118.955353 
L 1064.218432 102.717629 
L 1068.342874 100.515502 
L 1072.334269 101.164393 
L 1076.458711 105.597053 
L 1080.583153 99.850638 
L 1084.308456 100.216166 
L 1088.432898 108.080051 
L 1088.432898 108.080051 
" clip-path="url(#pee3e5f5eed)" style="fill: none; stroke: #0000ff; stroke-width: 1.5; stroke-linecap: square"/>
   </g>
   <g id="patch_3">
    <path d="M 59.690625 177.578125 
L 59.690625 22.318125 
" style="fill: none; stroke: #000000; stroke-width: 0.8; stroke-linejoin: miter; stroke-linecap: square"/>
   </g>
   <g id="patch_4">
    <path d="M 1137.420625 177.578125 
L 1137.420625 22.318125 
" style="fill: none; stroke: #000000; stroke-width: 0.8; stroke-linejoin: miter; stroke-linecap: square"/>
   </g>
   <g id="patch_5">
    <path d="M 59.690625 177.578125 
L 1137.420625 177.578125 
" style="fill: none; stroke: #000000; stroke-width: 0.8; stroke-linejoin: miter; stroke-linecap: square"/>
   </g>
   <g id="patch_6">
    <path d="M 59.690625 22.318125 
L 1137.420625 22.318125 
" style="fill: none; stroke: #000000; stroke-width: 0.8; stroke-linejoin: miter; stroke-linecap: square"/>
   </g>
   <g id="text_11">
    <!-- 399001 Closing Price -->
    <g transform="translate(535.267812 16.318125) scale(0.12 -0.12)">
     <defs>
      <path id="DejaVuSans-33" d="M 2597 2516 
Q 3050 2419 3304 2112 
Q 3559 1806 3559 1356 
Q 3559 666 3084 287 
Q 2609 -91 1734 -91 
Q 1441 -91 1130 -33 
Q 819 25 488 141 
L 488 750 
Q 750 597 1062 519 
Q 1375 441 1716 441 
Q 2309 441 2620 675 
Q 2931 909 2931 1356 
Q 2931 1769 2642 2001 
Q 2353 2234 1838 2234 
L 1294 2234 
L 1294 2753 
L 1863 2753 
Q 2328 2753 2575 2939 
Q 2822 3125 2822 3475 
Q 2822 3834 2567 4026 
Q 2313 4219 1838 4219 
Q 1578 4219 1281 4162 
Q 984 4106 628 3988 
L 628 4550 
Q 988 4650 1302 4700 
Q 1616 4750 1894 4750 
Q 2613 4750 3031 4423 
Q 3450 4097 3450 3541 
Q 3450 3153 3228 2886 
Q 3006 2619 2597 2516 
z
" transform="scale(0.015625)"/>
      <path id="DejaVuSans-39" d="M 703 97 
L 703 672 
Q 941 559 1184 500 
Q 1428 441 1663 441 
Q 2288 441 2617 861 
Q 2947 1281 2994 2138 
Q 2813 1869 2534 1725 
Q 2256 1581 1919 1581 
Q 1219 1581 811 2004 
Q 403 2428 403 3163 
Q 403 3881 828 4315 
Q 1253 4750 1959 4750 
Q 2769 4750 3195 4129 
Q 3622 3509 3622 2328 
Q 3622 1225 3098 567 
Q 2575 -91 1691 -91 
Q 1453 -91 1209 -44 
Q 966 3 703 97 
z
M 1959 2075 
Q 2384 2075 2632 2365 
Q 2881 2656 2881 3163 
Q 2881 3666 2632 3958 
Q 2384 4250 1959 4250 
Q 1534 4250 1286 3958 
Q 1038 3666 1038 3163 
Q 1038 2656 1286 2365 
Q 1534 2075 1959 2075 
z
" transform="scale(0.015625)"/>
     </defs>
     <use xlink:href="#DejaVuSans-33"/>
     <use xlink:href="#DejaVuSans-39" transform="translate(63.623047 0)"/>
     <use xlink:href="#DejaVuSans-39" transform="translate(127.246094 0)"/>
     <use xlink:href="#DejaVuSans-30" transform="translate(190.869141 0)"/>
     <use xlink:href="#DejaVuSans-30" transform="translate(254.492188 0)"/>
     <use xlink:href="#DejaVuSans-31" transform="translate(318.115234 0)"/>
     <use xlink:href="#DejaVuSans-20" transform="translate(381.738281 0)"/>
     <use xlink:href="#DejaVuSans-43" transform="translate(413.525391 0)"/>
     <use xlink:href="#DejaVuSans-6c" transform="translate(483.349609 0)"/>
     <use xlink:href="#DejaVuSans-6f" transform="translate(511.132812 0)"/>
     <use xlink:href="#DejaVuSans-73" transform="translate(572.314453 0)"/>
     <use xlink:href="#DejaVuSans-69" transform="translate(624.414062 0)"/>
     <use xlink:href="#DejaVuSans-6e" transform="translate(652.197266 0)"/>
     <use xlink:href="#DejaVuSans-67" transform="translate(715.576172 0)"/>
     <use xlink:href="#DejaVuSans-20" transform="translate(779.052734 0)"/>
     <use xlink:href="#DejaVuSans-50" transform="translate(810.839844 0)"/>
     <use xlink:href="#DejaVuSans-72" transform="translate(869.392578 0)"/>
     <use xlink:href="#DejaVuSans-69" transform="translate(910.505859 0)"/>
     <use xlink:href="#DejaVuSans-63" transform="translate(938.289062 0)"/>
     <use xlink:href="#DejaVuSans-65" transform="translate(993.269531 0)"/>
    </g>
   </g>
   <g id="legend_1">
    <g id="patch_7">
     <path d="M 1034.294062 44.99625 
L 1130.420625 44.99625 
Q 1132.420625 44.99625 1132.420625 42.99625 
L 1132.420625 29.318125 
Q 1132.420625 27.318125 1130.420625 27.318125 
L 1034.294062 27.318125 
Q 1032.294062 27.318125 1032.294062 29.318125 
L 1032.294062 42.99625 
Q 1032.294062 44.99625 1034.294062 44.99625 
z
" style="fill: #ffffff; opacity: 0.8; stroke: #cccccc; stroke-linejoin: miter"/>
    </g>
    <g id="line2d_18">
     <path d="M 1036.294062 35.416562 
L 1046.294062 35.416562 
L 1056.294062 35.416562 
" style="fill: none; stroke: #0000ff; stroke-width: 1.5; stroke-linecap: square"/>
    </g>
    <g id="text_12">
     <!-- Closing Price -->
     <g transform="translate(1064.294062 38.916562) scale(0.1 -0.1)">
      <use xlink:href="#DejaVuSans-43"/>
      <use xlink:href="#DejaVuSans-6c" transform="translate(69.824219 0)"/>
      <use xlink:href="#DejaVuSans-6f" transform="translate(97.607422 0)"/>
      <use xlink:href="#DejaVuSans-73" transform="translate(158.789062 0)"/>
      <use xlink:href="#DejaVuSans-69" transform="translate(210.888672 0)"/>
      <use xlink:href="#DejaVuSans-6e" transform="translate(238.671875 0)"/>
      <use xlink:href="#DejaVuSans-67" transform="translate(302.050781 0)"/>
      <use xlink:href="#DejaVuSans-20" transform="translate(365.527344 0)"/>
      <use xlink:href="#DejaVuSans-50" transform="translate(397.314453 0)"/>
      <use xlink:href="#DejaVuSans-72" transform="translate(455.867188 0)"/>
      <use xlink:href="#DejaVuSans-69" transform="translate(496.980469 0)"/>
      <use xlink:href="#DejaVuSans-63" transform="translate(524.763672 0)"/>
      <use xlink:href="#DejaVuSans-65" transform="translate(579.744141 0)"/>
     </g>
    </g>
   </g>
  </g>
  <g id="axes_2">
   <g id="patch_8">
    <path d="M 59.690625 390.878125 
L 1137.420625 390.878125 
L 1137.420625 235.618125 
L 59.690625 235.618125 
z
" style="fill: #ffffff"/>
   </g>
   <g id="matplotlib.axis_3">
    <g id="xtick_6">
     <g id="line2d_19">
      <path d="M 104.55391 390.878125 
L 104.55391 235.618125 
" clip-path="url(#p80f5f2be4a)" style="fill: none; stroke: #b0b0b0; stroke-width: 0.8; stroke-linecap: square"/>
     </g>
     <g id="line2d_20">
      <g>
       <use xlink:href="#m5d72a4e3c0" x="104.55391" y="390.878125" style="stroke: #000000; stroke-width: 0.8"/>
      </g>
     </g>
     <g id="text_13">
      <!-- 2005 -->
      <g transform="translate(91.82891 405.476562) scale(0.1 -0.1)">
       <use xlink:href="#DejaVuSans-32"/>
       <use xlink:href="#DejaVuSans-30" transform="translate(63.623047 0)"/>
       <use xlink:href="#DejaVuSans-30" transform="translate(127.246094 0)"/>
       <use xlink:href="#DejaVuSans-35" transform="translate(190.869141 0)"/>
      </g>
     </g>
    </g>
    <g id="xtick_7">
     <g id="line2d_21">
      <path d="M 347.496849 390.878125 
L 347.496849 235.618125 
" clip-path="url(#p80f5f2be4a)" style="fill: none; stroke: #b0b0b0; stroke-width: 0.8; stroke-linecap: square"/>
     </g>
     <g id="line2d_22">
      <g>
       <use xlink:href="#m5d72a4e3c0" x="347.496849" y="390.878125" style="stroke: #000000; stroke-width: 0.8"/>
      </g>
     </g>
     <g id="text_14">
      <!-- 2010 -->
      <g transform="translate(334.771849 405.476562) scale(0.1 -0.1)">
       <use xlink:href="#DejaVuSans-32"/>
       <use xlink:href="#DejaVuSans-30" transform="translate(63.623047 0)"/>
       <use xlink:href="#DejaVuSans-31" transform="translate(127.246094 0)"/>
       <use xlink:href="#DejaVuSans-30" transform="translate(190.869141 0)"/>
      </g>
     </g>
    </g>
    <g id="xtick_8">
     <g id="line2d_23">
      <path d="M 590.439788 390.878125 
L 590.439788 235.618125 
" clip-path="url(#p80f5f2be4a)" style="fill: none; stroke: #b0b0b0; stroke-width: 0.8; stroke-linecap: square"/>
     </g>
     <g id="line2d_24">
      <g>
       <use xlink:href="#m5d72a4e3c0" x="590.439788" y="390.878125" style="stroke: #000000; stroke-width: 0.8"/>
      </g>
     </g>
     <g id="text_15">
      <!-- 2015 -->
      <g transform="translate(577.714788 405.476562) scale(0.1 -0.1)">
       <use xlink:href="#DejaVuSans-32"/>
       <use xlink:href="#DejaVuSans-30" transform="translate(63.623047 0)"/>
       <use xlink:href="#DejaVuSans-31" transform="translate(127.246094 0)"/>
       <use xlink:href="#DejaVuSans-35" transform="translate(190.869141 0)"/>
      </g>
     </g>
    </g>
    <g id="xtick_9">
     <g id="line2d_25">
      <path d="M 833.382726 390.878125 
L 833.382726 235.618125 
" clip-path="url(#p80f5f2be4a)" style="fill: none; stroke: #b0b0b0; stroke-width: 0.8; stroke-linecap: square"/>
     </g>
     <g id="line2d_26">
      <g>
       <use xlink:href="#m5d72a4e3c0" x="833.382726" y="390.878125" style="stroke: #000000; stroke-width: 0.8"/>
      </g>
     </g>
     <g id="text_16">
      <!-- 2020 -->
      <g transform="translate(820.657726 405.476562) scale(0.1 -0.1)">
       <use xlink:href="#DejaVuSans-32"/>
       <use xlink:href="#DejaVuSans-30" transform="translate(63.623047 0)"/>
       <use xlink:href="#DejaVuSans-32" transform="translate(127.246094 0)"/>
       <use xlink:href="#DejaVuSans-30" transform="translate(190.869141 0)"/>
      </g>
     </g>
    </g>
    <g id="xtick_10">
     <g id="line2d_27">
      <path d="M 1076.458711 390.878125 
L 1076.458711 235.618125 
" clip-path="url(#p80f5f2be4a)" style="fill: none; stroke: #b0b0b0; stroke-width: 0.8; stroke-linecap: square"/>
     </g>
     <g id="line2d_28">
      <g>
       <use xlink:href="#m5d72a4e3c0" x="1076.458711" y="390.878125" style="stroke: #000000; stroke-width: 0.8"/>
      </g>
     </g>
     <g id="text_17">
      <!-- 2025 -->
      <g transform="translate(1063.733711 405.476562) scale(0.1 -0.1)">
       <use xlink:href="#DejaVuSans-32"/>
       <use xlink:href="#DejaVuSans-30" transform="translate(63.623047 0)"/>
       <use xlink:href="#DejaVuSans-32" transform="translate(127.246094 0)"/>
       <use xlink:href="#DejaVuSans-35" transform="translate(190.869141 0)"/>
      </g>
     </g>
    </g>
    <g id="text_18">
     <!-- Date -->
     <g transform="translate(586.604844 419.154687) scale(0.1 -0.1)">
      <use xlink:href="#DejaVuSans-44"/>
      <use xlink:href="#DejaVuSans-61" transform="translate(77.001953 0)"/>
      <use xlink:href="#DejaVuSans-74" transform="translate(138.28125 0)"/>
      <use xlink:href="#DejaVuSans-65" transform="translate(177.490234 0)"/>
     </g>
    </g>
   </g>
   <g id="matplotlib.axis_4">
    <g id="ytick_4">
     <g id="line2d_29">
      <path d="M 59.690625 389.592357 
L 1137.420625 389.592357 
" clip-path="url(#p80f5f2be4a)" style="fill: none; stroke: #b0b0b0; stroke-width: 0.8; stroke-linecap: square"/>
     </g>
     <g id="line2d_30">
      <g>
       <use xlink:href="#m6dd7000ff2" x="59.690625" y="389.592357" style="stroke: #000000; stroke-width: 0.8"/>
      </g>
     </g>
     <g id="text_19">
      <!-- −0.5 -->
      <g transform="translate(28.407813 393.391575) scale(0.1 -0.1)">
       <defs>
        <path id="DejaVuSans-2212" d="M 678 2272 
L 4684 2272 
L 4684 1741 
L 678 1741 
L 678 2272 
z
" transform="scale(0.015625)"/>
        <path id="DejaVuSans-2e" d="M 684 794 
L 1344 794 
L 1344 0 
L 684 0 
L 684 794 
z
" transform="scale(0.015625)"/>
       </defs>
       <use xlink:href="#DejaVuSans-2212"/>
       <use xlink:href="#DejaVuSans-30" transform="translate(83.789062 0)"/>
       <use xlink:href="#DejaVuSans-2e" transform="translate(147.412109 0)"/>
       <use xlink:href="#DejaVuSans-35" transform="translate(179.199219 0)"/>
      </g>
     </g>
    </g>
    <g id="ytick_5">
     <g id="line2d_31">
      <path d="M 59.690625 351.884181 
L 1137.420625 351.884181 
" clip-path="url(#p80f5f2be4a)" style="fill: none; stroke: #b0b0b0; stroke-width: 0.8; stroke-linecap: square"/>
     </g>
     <g id="line2d_32">
      <g>
       <use xlink:href="#m6dd7000ff2" x="59.690625" y="351.884181" style="stroke: #000000; stroke-width: 0.8"/>
      </g>
     </g>
     <g id="text_20">
      <!-- 0.0 -->
      <g transform="translate(36.7875 355.6834) scale(0.1 -0.1)">
       <use xlink:href="#DejaVuSans-30"/>
       <use xlink:href="#DejaVuSans-2e" transform="translate(63.623047 0)"/>
       <use xlink:href="#DejaVuSans-30" transform="translate(95.410156 0)"/>
      </g>
     </g>
    </g>
    <g id="ytick_6">
     <g id="line2d_33">
      <path d="M 59.690625 314.176005 
L 1137.420625 314.176005 
" clip-path="url(#p80f5f2be4a)" style="fill: none; stroke: #b0b0b0; stroke-width: 0.8; stroke-linecap: square"/>
     </g>
     <g id="line2d_34">
      <g>
       <use xlink:href="#m6dd7000ff2" x="59.690625" y="314.176005" style="stroke: #000000; stroke-width: 0.8"/>
      </g>
     </g>
     <g id="text_21">
      <!-- 0.5 -->
      <g transform="translate(36.7875 317.975224) scale(0.1 -0.1)">
       <use xlink:href="#DejaVuSans-30"/>
       <use xlink:href="#DejaVuSans-2e" transform="translate(63.623047 0)"/>
       <use xlink:href="#DejaVuSans-35" transform="translate(95.410156 0)"/>
      </g>
     </g>
    </g>
    <g id="ytick_7">
     <g id="line2d_35">
      <path d="M 59.690625 276.467829 
L 1137.420625 276.467829 
" clip-path="url(#p80f5f2be4a)" style="fill: none; stroke: #b0b0b0; stroke-width: 0.8; stroke-linecap: square"/>
     </g>
     <g id="line2d_36">
      <g>
       <use xlink:href="#m6dd7000ff2" x="59.690625" y="276.467829" style="stroke: #000000; stroke-width: 0.8"/>
      </g>
     </g>
     <g id="text_22">
      <!-- 1.0 -->
      <g transform="translate(36.7875 280.267048) scale(0.1 -0.1)">
       <use xlink:href="#DejaVuSans-31"/>
       <use xlink:href="#DejaVuSans-2e" transform="translate(63.623047 0)"/>
       <use xlink:href="#DejaVuSans-30" transform="translate(95.410156 0)"/>
      </g>
     </g>
    </g>
    <g id="ytick_8">
     <g id="line2d_37">
      <path d="M 59.690625 238.759654 
L 1137.420625 238.759654 
" clip-path="url(#p80f5f2be4a)" style="fill: none; stroke: #b0b0b0; stroke-width: 0.8; stroke-linecap: square"/>
     </g>
     <g id="line2d_38">
      <g>
       <use xlink:href="#m6dd7000ff2" x="59.690625" y="238.759654" style="stroke: #000000; stroke-width: 0.8"/>
      </g>
     </g>
     <g id="text_23">
      <!-- 1.5 -->
      <g transform="translate(36.7875 242.558872) scale(0.1 -0.1)">
       <use xlink:href="#DejaVuSans-31"/>
       <use xlink:href="#DejaVuSans-2e" transform="translate(63.623047 0)"/>
       <use xlink:href="#DejaVuSans-35" transform="translate(95.410156 0)"/>
      </g>
     </g>
    </g>
    <g id="text_24">
     <!-- Rate -->
     <g transform="translate(22.328125 324.710625) rotate(-90) scale(0.1 -0.1)">
      <defs>
       <path id="DejaVuSans-52" d="M 2841 2188 
Q 3044 2119 3236 1894 
Q 3428 1669 3622 1275 
L 4263 0 
L 3584 0 
L 2988 1197 
Q 2756 1666 2539 1819 
Q 2322 1972 1947 1972 
L 1259 1972 
L 1259 0 
L 628 0 
L 628 4666 
L 2053 4666 
Q 2853 4666 3247 4331 
Q 3641 3997 3641 3322 
Q 3641 2881 3436 2590 
Q 3231 2300 2841 2188 
z
M 1259 4147 
L 1259 2491 
L 2053 2491 
Q 2509 2491 2742 2702 
Q 2975 2913 2975 3322 
Q 2975 3731 2742 3939 
Q 2509 4147 2053 4147 
L 1259 4147 
z
" transform="scale(0.015625)"/>
      </defs>
      <use xlink:href="#DejaVuSans-52"/>
      <use xlink:href="#DejaVuSans-61" transform="translate(67.232422 0)"/>
      <use xlink:href="#DejaVuSans-74" transform="translate(128.511719 0)"/>
      <use xlink:href="#DejaVuSans-65" transform="translate(167.720703 0)"/>
     </g>
    </g>
   </g>
   <g id="line2d_39">
    <path d="M 108.678352 306.63437 
L 112.403655 276.467829 
L 116.528097 324.231519 
L 120.519492 340.990708 
L 124.643934 349.649622 
L 128.63533 370.505502 
L 132.759772 364.298395 
L 136.884214 355.132567 
L 140.875609 336.452623 
L 145.000051 331.540962 
L 148.991447 345.86367 
L 153.115889 337.814994 
L 157.240331 309.824304 
L 160.965633 311.274871 
L 165.090075 347.436213 
L 169.081471 343.891112 
L 173.205913 349.069347 
L 177.197308 362.577017 
L 181.32175 366.554373 
L 185.446192 354.122674 
L 189.437588 340.807118 
L 193.56203 341.985594 
L 197.553425 337.743488 
L 201.677867 307.262755 
L 205.802309 304.539415 
L 209.527612 295.18222 
L 213.652054 321.624509 
L 217.643449 334.224944 
L 221.767891 332.569721 
L 225.759287 328.952361 
L 229.883729 313.971396 
L 234.008171 296.44245 
L 237.999566 307.381392 
L 242.124008 314.67402 
L 246.115404 309.480258 
L 250.239846 298.476115 
L 254.364288 286.112263 
L 258.222637 242.675398 
L 262.347079 296.675474 
L 266.338474 312.564498 
L 270.462916 335.726572 
L 274.454311 346.140199 
L 278.578753 345.540981 
L 282.703195 350.169259 
L 286.694591 350.7409 
L 290.819033 358.663629 
L 294.810428 376.51484 
L 298.93487 373.332377 
L 303.059312 343.558073 
L 306.784615 346.333442 
L 310.909057 355.725324 
L 314.900452 359.472699 
L 319.024894 364.484828 
L 323.01629 372.854004 
L 327.140732 365.864063 
L 331.265174 348.634711 
L 335.256569 339.662354 
L 339.381011 346.250175 
L 343.372407 340.586541 
L 347.496849 319.213637 
L 351.621291 315.020548 
L 355.346593 297.141885 
L 359.471035 332.986466 
L 363.462431 334.257947 
L 367.586873 342.647237 
L 371.578268 360.809489 
L 375.70271 347.778872 
L 379.827152 334.064038 
L 383.818548 324.920816 
L 387.94299 316.311455 
L 391.934385 300.516368 
L 396.058827 305.069581 
L 400.183269 295.535663 
L 403.908572 284.151962 
L 408.033014 311.757125 
L 412.024409 322.618932 
L 416.148851 329.860137 
L 420.140247 329.659849 
L 424.264689 324.498568 
L 428.389131 326.08547 
L 432.380526 322.115649 
L 436.504968 329.524614 
L 440.496364 342.00556 
L 444.620806 337.756798 
L 448.745248 304.75775 
L 452.603597 322.980439 
L 456.728039 327.587263 
L 460.719434 338.200114 
L 464.843876 350.303105 
L 468.835272 365.9134 
L 472.959714 358.723115 
L 477.084156 341.3602 
L 481.075551 337.326559 
L 485.199993 344.692978 
L 489.191389 344.576167 
L 493.315831 326.901145 
L 497.440273 310.09004 
L 501.165575 296.368758 
L 505.290017 337.498804 
L 509.281413 337.266173 
L 513.405855 357.222113 
L 517.39725 355.442802 
L 521.521692 351.742717 
L 525.646134 339.220479 
L 529.63753 323.330686 
L 533.761972 330.334639 
L 537.753367 340.031698 
L 541.877809 336.440891 
L 546.002251 316.44987 
L 549.727554 315.691915 
L 553.851996 340.325396 
L 557.843391 351.719959 
L 561.967833 349.260821 
L 565.959229 352.649153 
L 570.083671 349.880284 
L 574.208113 345.520493 
L 578.199508 335.07233 
L 582.32395 340.67628 
L 586.315346 349.440004 
L 590.439788 342.713094 
L 594.56423 338.228488 
L 598.289532 312.613845 
L 602.413974 338.273349 
L 606.405369 347.83805 
L 610.529811 354.214517 
L 614.521207 353.437738 
L 618.645649 345.378251 
L 622.770091 334.977502 
L 626.761486 338.099183 
L 630.885928 350.235818 
L 634.877324 350.785272 
L 639.001766 338.582183 
L 643.126208 330.44679 
L 646.984557 297.370533 
L 651.108999 325.597263 
L 655.100394 339.387325 
L 659.224836 356.122336 
L 663.216232 357.223496 
L 667.340674 350.415967 
L 671.465116 348.391494 
L 675.456511 331.958574 
L 679.580953 341.114321 
L 683.572349 342.190396 
L 687.696791 340.393901 
L 691.821233 319.08521 
L 695.546535 335.045957 
L 699.670977 348.200334 
L 703.662373 346.914404 
L 707.786815 351.084875 
L 711.77821 356.379067 
L 715.902652 352.366893 
L 720.027094 342.150476 
L 724.01849 332.825652 
L 728.142932 336.664617 
L 732.134327 341.737805 
L 736.258769 337.578295 
L 740.383211 327.263653 
L 744.108514 305.303955 
L 748.232956 348.483359 
L 752.224351 354.644723 
L 756.348793 358.752299 
L 760.340189 358.976805 
L 764.464631 349.070962 
L 768.589073 332.411553 
L 772.580468 321.30528 
L 776.70491 326.47049 
L 780.696306 342.483356 
L 784.820748 345.616964 
L 788.94519 335.136644 
L 792.670492 315.580373 
L 796.794934 337.737156 
L 800.78633 339.938952 
L 804.910772 343.920695 
L 808.902167 349.089069 
L 813.026609 339.965259 
L 817.151051 326.341084 
L 821.142447 312.230544 
L 825.266889 302.823518 
L 829.258284 309.121559 
L 833.382726 323.375766 
L 837.507168 297.684274 
L 841.365517 295.639882 
L 845.489959 344.554522 
L 849.481355 369.622647 
L 853.605797 383.820852 
L 857.597192 375.689174 
L 861.721634 352.670906 
L 865.846076 342.353151 
L 869.837472 340.502404 
L 873.961914 351.837965 
L 877.953309 366.93664 
L 886.202193 321.703947 
L 889.927496 316.680754 
L 894.051938 340.984622 
L 898.043333 352.159443 
L 902.167775 357.095446 
L 906.159171 365.413871 
L 910.283613 353.362339 
L 914.408055 350.355741 
L 918.39945 350.865221 
L 922.523892 333.607726 
L 926.515287 329.644364 
L 930.639729 344.599271 
L 934.764171 336.972061 
L 938.489474 326.859497 
L 942.613916 335.201059 
L 946.605311 330.706586 
L 950.729753 342.793541 
L 954.721149 345.823754 
L 958.845591 335.274505 
L 962.970033 343.324942 
L 966.961428 338.636386 
L 971.08587 340.538439 
L 975.077266 349.34811 
L 979.201708 350.193467 
L 983.32615 330.646011 
L 987.051452 350.294793 
L 991.175894 358.366224 
L 995.16729 358.719421 
L 999.291732 361.468765 
L 1003.283127 363.30166 
L 1007.407569 354.468077 
L 1011.532011 346.065143 
L 1015.523407 342.977066 
L 1019.647849 348.459982 
L 1023.639244 362.170774 
L 1027.763686 356.228031 
L 1031.888128 347.238446 
L 1035.746477 323.64824 
L 1039.870919 358.199004 
L 1043.862315 353.580185 
L 1047.986757 355.528729 
L 1051.978152 359.341636 
L 1056.102594 344.286426 
L 1060.227036 336.763497 
L 1064.218432 341.803725 
L 1068.342874 352.705512 
L 1072.334269 367.515005 
L 1076.458711 362.304731 
L 1080.583153 341.234065 
L 1084.308456 349.811861 
L 1088.432898 360.558148 
L 1088.432898 360.558148 
" clip-path="url(#p80f5f2be4a)" style="fill: none; stroke: #ff0000; stroke-width: 1.5; stroke-linecap: square"/>
   </g>
   <g id="patch_9">
    <path d="M 59.690625 390.878125 
L 59.690625 235.618125 
" style="fill: none; stroke: #000000; stroke-width: 0.8; stroke-linejoin: miter; stroke-linecap: square"/>
   </g>
   <g id="patch_10">
    <path d="M 1137.420625 390.878125 
L 1137.420625 235.618125 
" style="fill: none; stroke: #000000; stroke-width: 0.8; stroke-linejoin: miter; stroke-linecap: square"/>
   </g>
   <g id="patch_11">
    <path d="M 59.690625 390.878125 
L 1137.420625 390.878125 
" style="fill: none; stroke: #000000; stroke-width: 0.8; stroke-linejoin: miter; stroke-linecap: square"/>
   </g>
   <g id="patch_12">
    <path d="M 59.690625 235.618125 
L 1137.420625 235.618125 
" style="fill: none; stroke: #000000; stroke-width: 0.8; stroke-linejoin: miter; stroke-linecap: square"/>
   </g>
   <g id="text_25">
    <!-- CPI  (MOM) -->
    <g transform="translate(565.405625 229.618125) scale(0.12 -0.12)">
     <defs>
      <path id="DejaVuSans-49" d="M 628 4666 
L 1259 4666 
L 1259 0 
L 628 0 
L 628 4666 
z
" transform="scale(0.015625)"/>
      <path id="DejaVuSans-28" d="M 1984 4856 
Q 1566 4138 1362 3434 
Q 1159 2731 1159 2009 
Q 1159 1288 1364 580 
Q 1569 -128 1984 -844 
L 1484 -844 
Q 1016 -109 783 600 
Q 550 1309 550 2009 
Q 550 2706 781 3412 
Q 1013 4119 1484 4856 
L 1984 4856 
z
" transform="scale(0.015625)"/>
      <path id="DejaVuSans-4d" d="M 628 4666 
L 1569 4666 
L 2759 1491 
L 3956 4666 
L 4897 4666 
L 4897 0 
L 4281 0 
L 4281 4097 
L 3078 897 
L 2444 897 
L 1241 4097 
L 1241 0 
L 628 0 
L 628 4666 
z
" transform="scale(0.015625)"/>
      <path id="DejaVuSans-4f" d="M 2522 4238 
Q 1834 4238 1429 3725 
Q 1025 3213 1025 2328 
Q 1025 1447 1429 934 
Q 1834 422 2522 422 
Q 3209 422 3611 934 
Q 4013 1447 4013 2328 
Q 4013 3213 3611 3725 
Q 3209 4238 2522 4238 
z
M 2522 4750 
Q 3503 4750 4090 4092 
Q 4678 3434 4678 2328 
Q 4678 1225 4090 567 
Q 3503 -91 2522 -91 
Q 1538 -91 948 565 
Q 359 1222 359 2328 
Q 359 3434 948 4092 
Q 1538 4750 2522 4750 
z
" transform="scale(0.015625)"/>
      <path id="DejaVuSans-29" d="M 513 4856 
L 1013 4856 
Q 1481 4119 1714 3412 
Q 1947 2706 1947 2009 
Q 1947 1309 1714 600 
Q 1481 -109 1013 -844 
L 513 -844 
Q 928 -128 1133 580 
Q 1338 1288 1338 2009 
Q 1338 2731 1133 3434 
Q 928 4138 513 4856 
z
" transform="scale(0.015625)"/>
     </defs>
     <use xlink:href="#DejaVuSans-43"/>
     <use xlink:href="#DejaVuSans-50" transform="translate(69.824219 0)"/>
     <use xlink:href="#DejaVuSans-49" transform="translate(130.126953 0)"/>
     <use xlink:href="#DejaVuSans-20" transform="translate(159.619141 0)"/>
     <use xlink:href="#DejaVuSans-20" transform="translate(191.40625 0)"/>
     <use xlink:href="#DejaVuSans-28" transform="translate(223.193359 0)"/>
     <use xlink:href="#DejaVuSans-4d" transform="translate(262.207031 0)"/>
     <use xlink:href="#DejaVuSans-4f" transform="translate(348.486328 0)"/>
     <use xlink:href="#DejaVuSans-4d" transform="translate(427.197266 0)"/>
     <use xlink:href="#DejaVuSans-29" transform="translate(513.476562 0)"/>
    </g>
   </g>
   <g id="legend_2">
    <g id="patch_13">
     <path d="M 1054.151875 258.29625 
L 1130.420625 258.29625 
Q 1132.420625 258.29625 1132.420625 256.29625 
L 1132.420625 242.618125 
Q 1132.420625 240.618125 1130.420625 240.618125 
L 1054.151875 240.618125 
Q 1052.151875 240.618125 1052.151875 242.618125 
L 1052.151875 256.29625 
Q 1052.151875 258.29625 1054.151875 258.29625 
z
" style="fill: #ffffff; opacity: 0.8; stroke: #cccccc; stroke-linejoin: miter"/>
    </g>
    <g id="line2d_40">
     <path d="M 1056.151875 248.716563 
L 1066.151875 248.716563 
L 1076.151875 248.716563 
" style="fill: none; stroke: #ff0000; stroke-width: 1.5; stroke-linecap: square"/>
    </g>
    <g id="text_26">
     <!-- CPI MOM -->
     <g transform="translate(1084.151875 252.216563) scale(0.1 -0.1)">
      <use xlink:href="#DejaVuSans-43"/>
      <use xlink:href="#DejaVuSans-50" transform="translate(69.824219 0)"/>
      <use xlink:href="#DejaVuSans-49" transform="translate(130.126953 0)"/>
      <use xlink:href="#DejaVuSans-20" transform="translate(159.619141 0)"/>
      <use xlink:href="#DejaVuSans-4d" transform="translate(191.40625 0)"/>
      <use xlink:href="#DejaVuSans-4f" transform="translate(277.685547 0)"/>
      <use xlink:href="#DejaVuSans-4d" transform="translate(356.396484 0)"/>
     </g>
    </g>
   </g>
  </g>
  <g id="axes_3">
   <g id="patch_14">
    <path d="M 59.690625 604.178125 
L 1137.420625 604.178125 
L 1137.420625 448.918125 
L 59.690625 448.918125 
z
" style="fill: #ffffff"/>
   </g>
   <g id="matplotlib.axis_5">
    <g id="xtick_11">
     <g id="line2d_41">
      <path d="M 104.55391 604.178125 
L 104.55391 448.918125 
" clip-path="url(#p1eba43c3f4)" style="fill: none; stroke: #b0b0b0; stroke-width: 0.8; stroke-linecap: square"/>
     </g>
     <g id="line2d_42">
      <g>
       <use xlink:href="#m5d72a4e3c0" x="104.55391" y="604.178125" style="stroke: #000000; stroke-width: 0.8"/>
      </g>
     </g>
     <g id="text_27">
      <!-- 2005 -->
      <g transform="translate(91.82891 618.776562) scale(0.1 -0.1)">
       <use xlink:href="#DejaVuSans-32"/>
       <use xlink:href="#DejaVuSans-30" transform="translate(63.623047 0)"/>
       <use xlink:href="#DejaVuSans-30" transform="translate(127.246094 0)"/>
       <use xlink:href="#DejaVuSans-35" transform="translate(190.869141 0)"/>
      </g>
     </g>
    </g>
    <g id="xtick_12">
     <g id="line2d_43">
      <path d="M 347.496849 604.178125 
L 347.496849 448.918125 
" clip-path="url(#p1eba43c3f4)" style="fill: none; stroke: #b0b0b0; stroke-width: 0.8; stroke-linecap: square"/>
     </g>
     <g id="line2d_44">
      <g>
       <use xlink:href="#m5d72a4e3c0" x="347.496849" y="604.178125" style="stroke: #000000; stroke-width: 0.8"/>
      </g>
     </g>
     <g id="text_28">
      <!-- 2010 -->
      <g transform="translate(334.771849 618.776562) scale(0.1 -0.1)">
       <use xlink:href="#DejaVuSans-32"/>
       <use xlink:href="#DejaVuSans-30" transform="translate(63.623047 0)"/>
       <use xlink:href="#DejaVuSans-31" transform="translate(127.246094 0)"/>
       <use xlink:href="#DejaVuSans-30" transform="translate(190.869141 0)"/>
      </g>
     </g>
    </g>
    <g id="xtick_13">
     <g id="line2d_45">
      <path d="M 590.439788 604.178125 
L 590.439788 448.918125 
" clip-path="url(#p1eba43c3f4)" style="fill: none; stroke: #b0b0b0; stroke-width: 0.8; stroke-linecap: square"/>
     </g>
     <g id="line2d_46">
      <g>
       <use xlink:href="#m5d72a4e3c0" x="590.439788" y="604.178125" style="stroke: #000000; stroke-width: 0.8"/>
      </g>
     </g>
     <g id="text_29">
      <!-- 2015 -->
      <g transform="translate(577.714788 618.776562) scale(0.1 -0.1)">
       <use xlink:href="#DejaVuSans-32"/>
       <use xlink:href="#DejaVuSans-30" transform="translate(63.623047 0)"/>
       <use xlink:href="#DejaVuSans-31" transform="translate(127.246094 0)"/>
       <use xlink:href="#DejaVuSans-35" transform="translate(190.869141 0)"/>
      </g>
     </g>
    </g>
    <g id="xtick_14">
     <g id="line2d_47">
      <path d="M 833.382726 604.178125 
L 833.382726 448.918125 
" clip-path="url(#p1eba43c3f4)" style="fill: none; stroke: #b0b0b0; stroke-width: 0.8; stroke-linecap: square"/>
     </g>
     <g id="line2d_48">
      <g>
       <use xlink:href="#m5d72a4e3c0" x="833.382726" y="604.178125" style="stroke: #000000; stroke-width: 0.8"/>
      </g>
     </g>
     <g id="text_30">
      <!-- 2020 -->
      <g transform="translate(820.657726 618.776562) scale(0.1 -0.1)">
       <use xlink:href="#DejaVuSans-32"/>
       <use xlink:href="#DejaVuSans-30" transform="translate(63.623047 0)"/>
       <use xlink:href="#DejaVuSans-32" transform="translate(127.246094 0)"/>
       <use xlink:href="#DejaVuSans-30" transform="translate(190.869141 0)"/>
      </g>
     </g>
    </g>
    <g id="xtick_15">
     <g id="line2d_49">
      <path d="M 1076.458711 604.178125 
L 1076.458711 448.918125 
" clip-path="url(#p1eba43c3f4)" style="fill: none; stroke: #b0b0b0; stroke-width: 0.8; stroke-linecap: square"/>
     </g>
     <g id="line2d_50">
      <g>
       <use xlink:href="#m5d72a4e3c0" x="1076.458711" y="604.178125" style="stroke: #000000; stroke-width: 0.8"/>
      </g>
     </g>
     <g id="text_31">
      <!-- 2025 -->
      <g transform="translate(1063.733711 618.776562) scale(0.1 -0.1)">
       <use xlink:href="#DejaVuSans-32"/>
       <use xlink:href="#DejaVuSans-30" transform="translate(63.623047 0)"/>
       <use xlink:href="#DejaVuSans-32" transform="translate(127.246094 0)"/>
       <use xlink:href="#DejaVuSans-35" transform="translate(190.869141 0)"/>
      </g>
     </g>
    </g>
    <g id="text_32">
     <!-- Date -->
     <g transform="translate(586.604844 632.454687) scale(0.1 -0.1)">
      <use xlink:href="#DejaVuSans-44"/>
      <use xlink:href="#DejaVuSans-61" transform="translate(77.001953 0)"/>
      <use xlink:href="#DejaVuSans-74" transform="translate(138.28125 0)"/>
      <use xlink:href="#DejaVuSans-65" transform="translate(177.490234 0)"/>
     </g>
    </g>
   </g>
   <g id="matplotlib.axis_6">
    <g id="ytick_9">
     <g id="line2d_51">
      <path d="M 59.690625 576.306776 
L 1137.420625 576.306776 
" clip-path="url(#p1eba43c3f4)" style="fill: none; stroke: #b0b0b0; stroke-width: 0.8; stroke-linecap: square"/>
     </g>
     <g id="line2d_52">
      <g>
       <use xlink:href="#m6dd7000ff2" x="59.690625" y="576.306776" style="stroke: #000000; stroke-width: 0.8"/>
      </g>
     </g>
     <g id="text_33">
      <!-- −5 -->
      <g transform="translate(37.948438 580.105995) scale(0.1 -0.1)">
       <use xlink:href="#DejaVuSans-2212"/>
       <use xlink:href="#DejaVuSans-35" transform="translate(83.789062 0)"/>
      </g>
     </g>
    </g>
    <g id="ytick_10">
     <g id="line2d_53">
      <path d="M 59.690625 543.784782 
L 1137.420625 543.784782 
" clip-path="url(#p1eba43c3f4)" style="fill: none; stroke: #b0b0b0; stroke-width: 0.8; stroke-linecap: square"/>
     </g>
     <g id="line2d_54">
      <g>
       <use xlink:href="#m6dd7000ff2" x="59.690625" y="543.784782" style="stroke: #000000; stroke-width: 0.8"/>
      </g>
     </g>
     <g id="text_34">
      <!-- 0 -->
      <g transform="translate(46.328125 547.584001) scale(0.1 -0.1)">
       <use xlink:href="#DejaVuSans-30"/>
      </g>
     </g>
    </g>
    <g id="ytick_11">
     <g id="line2d_55">
      <path d="M 59.690625 511.262788 
L 1137.420625 511.262788 
" clip-path="url(#p1eba43c3f4)" style="fill: none; stroke: #b0b0b0; stroke-width: 0.8; stroke-linecap: square"/>
     </g>
     <g id="line2d_56">
      <g>
       <use xlink:href="#m6dd7000ff2" x="59.690625" y="511.262788" style="stroke: #000000; stroke-width: 0.8"/>
      </g>
     </g>
     <g id="text_35">
      <!-- 5 -->
      <g transform="translate(46.328125 515.062007) scale(0.1 -0.1)">
       <use xlink:href="#DejaVuSans-35"/>
      </g>
     </g>
    </g>
    <g id="ytick_12">
     <g id="line2d_57">
      <path d="M 59.690625 478.740794 
L 1137.420625 478.740794 
" clip-path="url(#p1eba43c3f4)" style="fill: none; stroke: #b0b0b0; stroke-width: 0.8; stroke-linecap: square"/>
     </g>
     <g id="line2d_58">
      <g>
       <use xlink:href="#m6dd7000ff2" x="59.690625" y="478.740794" style="stroke: #000000; stroke-width: 0.8"/>
      </g>
     </g>
     <g id="text_36">
      <!-- 10 -->
      <g transform="translate(39.965625 482.540012) scale(0.1 -0.1)">
       <use xlink:href="#DejaVuSans-31"/>
       <use xlink:href="#DejaVuSans-30" transform="translate(63.623047 0)"/>
      </g>
     </g>
    </g>
    <g id="text_37">
     <!-- Rate -->
     <g transform="translate(31.86875 538.010625) rotate(-90) scale(0.1 -0.1)">
      <use xlink:href="#DejaVuSans-52"/>
      <use xlink:href="#DejaVuSans-61" transform="translate(67.232422 0)"/>
      <use xlink:href="#DejaVuSans-74" transform="translate(128.511719 0)"/>
      <use xlink:href="#DejaVuSans-65" transform="translate(167.720703 0)"/>
     </g>
    </g>
   </g>
   <g id="line2d_59">
    <path d="M 108.678352 506.059269 
L 112.403655 508.661028 
L 120.519492 506.059269 
L 124.643934 505.408829 
L 128.63533 509.961908 
L 132.759772 509.961908 
L 136.884214 509.311468 
L 140.875609 514.514987 
L 145.000051 517.767187 
L 148.991447 522.970706 
L 153.115889 522.970706 
L 157.240331 524.271585 
L 160.965633 524.271585 
L 165.090075 527.523785 
L 169.081471 531.426424 
L 173.205913 528.174225 
L 177.197308 521.019386 
L 181.32175 520.368946 
L 185.446192 521.669826 
L 189.437588 521.669826 
L 193.56203 524.922025 
L 197.553425 525.572465 
L 201.677867 524.271585 
L 205.802309 522.320266 
L 209.527612 526.873345 
L 213.652054 526.873345 
L 217.643449 524.922025 
L 221.767891 525.572465 
L 225.759287 527.523785 
L 229.883729 528.174225 
L 234.008171 526.873345 
L 237.999566 526.222905 
L 242.124008 522.970706 
L 246.115404 513.864547 
L 250.239846 508.661028 
L 254.364288 504.107949 
L 258.222637 500.85575 
L 262.347079 491.749591 
L 270.462916 490.448712 
L 274.454311 486.546072 
L 278.578753 478.740794 
L 282.703195 478.090354 
L 286.694591 484.594753 
L 290.819033 500.85575 
L 294.810428 530.775984 
L 298.93487 550.939621 
L 303.059312 565.899738 
L 306.784615 573.054577 
L 310.909057 582.811175 
L 323.01629 594.519093 
L 327.140732 597.120852 
L 331.265174 595.169533 
L 335.256569 589.315574 
L 339.381011 581.510295 
L 347.496849 532.727304 
L 351.621291 515.815867 
L 355.346593 508.661028 
L 359.471035 505.408829 
L 363.462431 499.55487 
L 367.586873 497.60355 
L 371.578268 502.156629 
L 375.70271 512.563668 
L 379.827152 515.815867 
L 383.818548 515.815867 
L 387.94299 511.262788 
L 391.934385 504.107949 
L 396.058827 505.408829 
L 400.183269 500.85575 
L 403.908572 496.95311 
L 408.033014 496.30267 
L 412.024409 499.55487 
L 416.148851 499.55487 
L 420.140247 497.60355 
L 424.264689 495.001791 
L 428.389131 496.30267 
L 432.380526 501.50619 
L 436.504968 511.262788 
L 440.496364 526.222905 
L 448.745248 539.231703 
L 452.603597 543.784782 
L 456.728039 545.736102 
L 460.719434 548.337861 
L 468.835272 557.444019 
L 472.959714 562.647538 
L 477.084156 566.550178 
L 481.075551 567.200618 
L 485.199993 561.997099 
L 489.191389 558.094459 
L 497.440273 554.19182 
L 501.165575 554.19182 
L 505.290017 556.14314 
L 509.281413 560.696219 
L 513.405855 562.647538 
L 517.39725 561.346659 
L 521.521692 558.744899 
L 525.646134 554.19182 
L 529.63753 552.2405 
L 533.761972 553.54138 
L 537.753367 552.89094 
L 541.877809 552.89094 
L 546.002251 554.19182 
L 549.727554 556.79358 
L 553.851996 558.744899 
L 557.843391 556.79358 
L 561.967833 552.89094 
L 565.959229 550.939621 
L 570.083671 549.638741 
L 574.208113 551.59006 
L 578.199508 555.4927 
L 582.32395 558.094459 
L 586.315346 561.346659 
L 590.439788 565.249298 
L 594.56423 571.753697 
L 598.289532 575.005896 
L 602.413974 573.705016 
L 610.529811 573.705016 
L 614.521207 575.005896 
L 618.645649 578.908536 
L 622.770091 582.160735 
L 639.001766 582.160735 
L 643.126208 578.258096 
L 646.984557 575.656336 
L 651.108999 571.753697 
L 655.100394 565.899738 
L 659.224836 561.997099 
L 663.216232 560.696219 
L 675.456511 543.134342 
L 679.580953 535.979503 
L 687.696791 508.010588 
L 691.821233 498.90443 
L 695.546535 493.050471 
L 699.670977 494.351351 
L 703.662373 502.156629 
L 707.786815 508.010588 
L 715.902652 508.010588 
L 720.027094 502.807069 
L 724.01849 498.90443 
L 728.142932 498.90443 
L 732.134327 506.059269 
L 736.258769 511.913228 
L 740.383211 515.815867 
L 744.108514 519.718506 
L 748.232956 523.621146 
L 752.224351 521.669826 
L 756.348793 517.116747 
L 760.340189 513.214107 
L 764.464631 513.864547 
L 772.580468 520.368946 
L 776.70491 522.320266 
L 780.696306 526.222905 
L 784.820748 537.930823 
L 788.94519 543.134342 
L 792.670492 543.134342 
L 796.794934 541.183022 
L 800.78633 537.930823 
L 804.910772 539.882143 
L 808.902167 543.784782 
L 813.026609 545.736102 
L 817.151051 548.988301 
L 825.266889 554.19182 
L 829.258284 552.89094 
L 833.382726 547.036981 
L 837.507168 543.134342 
L 841.365517 546.386541 
L 845.489959 553.54138 
L 849.481355 563.948418 
L 853.605797 567.851058 
L 857.597192 563.297978 
L 861.721634 559.395339 
L 865.846076 556.79358 
L 869.837472 557.444019 
L 873.961914 557.444019 
L 877.953309 553.54138 
L 882.077751 546.386541 
L 886.202193 541.833462 
L 889.927496 532.727304 
L 894.051938 515.165427 
L 898.043333 499.55487 
L 902.167775 485.245192 
L 906.159171 486.546072 
L 910.283613 485.245192 
L 914.408055 481.992993 
L 918.39945 474.187714 
L 922.523892 455.975398 
L 926.515287 459.878037 
L 930.639729 476.789474 
L 934.764171 484.594753 
L 938.489474 486.546072 
L 942.613916 489.798272 
L 946.605311 491.749591 
L 950.729753 502.156629 
L 954.721149 504.107949 
L 962.970033 528.824665 
L 966.961428 537.930823 
L 971.08587 552.2405 
L 975.077266 552.2405 
L 979.201708 548.337861 
L 983.32615 548.988301 
L 987.051452 552.89094 
L 991.175894 560.045779 
L 995.16729 567.200618 
L 999.291732 573.705016 
L 1003.283127 578.908536 
L 1007.407569 572.404137 
L 1011.532011 563.297978 
L 1015.523407 560.045779 
L 1019.647849 560.696219 
L 1023.639244 563.297978 
L 1027.763686 561.346659 
L 1031.888128 560.045779 
L 1035.746477 561.346659 
L 1039.870919 561.997099 
L 1043.862315 560.045779 
L 1047.986757 552.89094 
L 1051.978152 548.988301 
L 1056.102594 548.988301 
L 1060.227036 555.4927 
L 1064.218432 561.997099 
L 1068.342874 562.647538 
L 1072.334269 560.045779 
L 1076.458711 558.744899 
L 1080.583153 558.744899 
L 1084.308456 558.094459 
L 1088.432898 560.045779 
L 1088.432898 560.045779 
" clip-path="url(#p1eba43c3f4)" style="fill: none; stroke: #008000; stroke-width: 1.5; stroke-linecap: square"/>
   </g>
   <g id="patch_15">
    <path d="M 59.690625 604.178125 
L 59.690625 448.918125 
" style="fill: none; stroke: #000000; stroke-width: 0.8; stroke-linejoin: miter; stroke-linecap: square"/>
   </g>
   <g id="patch_16">
    <path d="M 1137.420625 604.178125 
L 1137.420625 448.918125 
" style="fill: none; stroke: #000000; stroke-width: 0.8; stroke-linejoin: miter; stroke-linecap: square"/>
   </g>
   <g id="patch_17">
    <path d="M 59.690625 604.178125 
L 1137.420625 604.178125 
" style="fill: none; stroke: #000000; stroke-width: 0.8; stroke-linejoin: miter; stroke-linecap: square"/>
   </g>
   <g id="patch_18">
    <path d="M 59.690625 448.918125 
L 1137.420625 448.918125 
" style="fill: none; stroke: #000000; stroke-width: 0.8; stroke-linejoin: miter; stroke-linecap: square"/>
   </g>
   <g id="text_38">
    <!-- PPI (MOM) -->
    <g transform="translate(567.884375 442.918125) scale(0.12 -0.12)">
     <use xlink:href="#DejaVuSans-50"/>
     <use xlink:href="#DejaVuSans-50" transform="translate(60.302734 0)"/>
     <use xlink:href="#DejaVuSans-49" transform="translate(120.605469 0)"/>
     <use xlink:href="#DejaVuSans-20" transform="translate(150.097656 0)"/>
     <use xlink:href="#DejaVuSans-28" transform="translate(181.884766 0)"/>
     <use xlink:href="#DejaVuSans-4d" transform="translate(220.898438 0)"/>
     <use xlink:href="#DejaVuSans-4f" transform="translate(307.177734 0)"/>
     <use xlink:href="#DejaVuSans-4d" transform="translate(385.888672 0)"/>
     <use xlink:href="#DejaVuSans-29" transform="translate(472.167969 0)"/>
    </g>
   </g>
   <g id="legend_3">
    <g id="patch_19">
     <path d="M 1055.105 471.59625 
L 1130.420625 471.59625 
Q 1132.420625 471.59625 1132.420625 469.59625 
L 1132.420625 455.918125 
Q 1132.420625 453.918125 1130.420625 453.918125 
L 1055.105 453.918125 
Q 1053.105 453.918125 1053.105 455.918125 
L 1053.105 469.59625 
Q 1053.105 471.59625 1055.105 471.59625 
z
" style="fill: #ffffff; opacity: 0.8; stroke: #cccccc; stroke-linejoin: miter"/>
    </g>
    <g id="line2d_60">
     <path d="M 1057.105 462.016562 
L 1067.105 462.016562 
L 1077.105 462.016562 
" style="fill: none; stroke: #008000; stroke-width: 1.5; stroke-linecap: square"/>
    </g>
    <g id="text_39">
     <!-- PPI MOM -->
     <g transform="translate(1085.105 465.516562) scale(0.1 -0.1)">
      <use xlink:href="#DejaVuSans-50"/>
      <use xlink:href="#DejaVuSans-50" transform="translate(60.302734 0)"/>
      <use xlink:href="#DejaVuSans-49" transform="translate(120.605469 0)"/>
      <use xlink:href="#DejaVuSans-20" transform="translate(150.097656 0)"/>
      <use xlink:href="#DejaVuSans-4d" transform="translate(181.884766 0)"/>
      <use xlink:href="#DejaVuSans-4f" transform="translate(268.164062 0)"/>
      <use xlink:href="#DejaVuSans-4d" transform="translate(346.875 0)"/>
     </g>
    </g>
   </g>
  </g>
  <g id="axes_4">
   <g id="patch_20">
    <path d="M 59.690625 817.478125 
L 1137.420625 817.478125 
L 1137.420625 662.218125 
L 59.690625 662.218125 
z
" style="fill: #ffffff"/>
   </g>
   <g id="matplotlib.axis_7">
    <g id="xtick_16">
     <g id="line2d_61">
      <path d="M 104.55391 817.478125 
L 104.55391 662.218125 
" clip-path="url(#p996ddd0c45)" style="fill: none; stroke: #b0b0b0; stroke-width: 0.8; stroke-linecap: square"/>
     </g>
     <g id="line2d_62">
      <g>
       <use xlink:href="#m5d72a4e3c0" x="104.55391" y="817.478125" style="stroke: #000000; stroke-width: 0.8"/>
      </g>
     </g>
     <g id="text_40">
      <!-- 2005 -->
      <g transform="translate(91.82891 832.076562) scale(0.1 -0.1)">
       <use xlink:href="#DejaVuSans-32"/>
       <use xlink:href="#DejaVuSans-30" transform="translate(63.623047 0)"/>
       <use xlink:href="#DejaVuSans-30" transform="translate(127.246094 0)"/>
       <use xlink:href="#DejaVuSans-35" transform="translate(190.869141 0)"/>
      </g>
     </g>
    </g>
    <g id="xtick_17">
     <g id="line2d_63">
      <path d="M 347.496849 817.478125 
L 347.496849 662.218125 
" clip-path="url(#p996ddd0c45)" style="fill: none; stroke: #b0b0b0; stroke-width: 0.8; stroke-linecap: square"/>
     </g>
     <g id="line2d_64">
      <g>
       <use xlink:href="#m5d72a4e3c0" x="347.496849" y="817.478125" style="stroke: #000000; stroke-width: 0.8"/>
      </g>
     </g>
     <g id="text_41">
      <!-- 2010 -->
      <g transform="translate(334.771849 832.076562) scale(0.1 -0.1)">
       <use xlink:href="#DejaVuSans-32"/>
       <use xlink:href="#DejaVuSans-30" transform="translate(63.623047 0)"/>
       <use xlink:href="#DejaVuSans-31" transform="translate(127.246094 0)"/>
       <use xlink:href="#DejaVuSans-30" transform="translate(190.869141 0)"/>
      </g>
     </g>
    </g>
    <g id="xtick_18">
     <g id="line2d_65">
      <path d="M 590.439788 817.478125 
L 590.439788 662.218125 
" clip-path="url(#p996ddd0c45)" style="fill: none; stroke: #b0b0b0; stroke-width: 0.8; stroke-linecap: square"/>
     </g>
     <g id="line2d_66">
      <g>
       <use xlink:href="#m5d72a4e3c0" x="590.439788" y="817.478125" style="stroke: #000000; stroke-width: 0.8"/>
      </g>
     </g>
     <g id="text_42">
      <!-- 2015 -->
      <g transform="translate(577.714788 832.076562) scale(0.1 -0.1)">
       <use xlink:href="#DejaVuSans-32"/>
       <use xlink:href="#DejaVuSans-30" transform="translate(63.623047 0)"/>
       <use xlink:href="#DejaVuSans-31" transform="translate(127.246094 0)"/>
       <use xlink:href="#DejaVuSans-35" transform="translate(190.869141 0)"/>
      </g>
     </g>
    </g>
    <g id="xtick_19">
     <g id="line2d_67">
      <path d="M 833.382726 817.478125 
L 833.382726 662.218125 
" clip-path="url(#p996ddd0c45)" style="fill: none; stroke: #b0b0b0; stroke-width: 0.8; stroke-linecap: square"/>
     </g>
     <g id="line2d_68">
      <g>
       <use xlink:href="#m5d72a4e3c0" x="833.382726" y="817.478125" style="stroke: #000000; stroke-width: 0.8"/>
      </g>
     </g>
     <g id="text_43">
      <!-- 2020 -->
      <g transform="translate(820.657726 832.076562) scale(0.1 -0.1)">
       <use xlink:href="#DejaVuSans-32"/>
       <use xlink:href="#DejaVuSans-30" transform="translate(63.623047 0)"/>
       <use xlink:href="#DejaVuSans-32" transform="translate(127.246094 0)"/>
       <use xlink:href="#DejaVuSans-30" transform="translate(190.869141 0)"/>
      </g>
     </g>
    </g>
    <g id="xtick_20">
     <g id="line2d_69">
      <path d="M 1076.458711 817.478125 
L 1076.458711 662.218125 
" clip-path="url(#p996ddd0c45)" style="fill: none; stroke: #b0b0b0; stroke-width: 0.8; stroke-linecap: square"/>
     </g>
     <g id="line2d_70">
      <g>
       <use xlink:href="#m5d72a4e3c0" x="1076.458711" y="817.478125" style="stroke: #000000; stroke-width: 0.8"/>
      </g>
     </g>
     <g id="text_44">
      <!-- 2025 -->
      <g transform="translate(1063.733711 832.076562) scale(0.1 -0.1)">
       <use xlink:href="#DejaVuSans-32"/>
       <use xlink:href="#DejaVuSans-30" transform="translate(63.623047 0)"/>
       <use xlink:href="#DejaVuSans-32" transform="translate(127.246094 0)"/>
       <use xlink:href="#DejaVuSans-35" transform="translate(190.869141 0)"/>
      </g>
     </g>
    </g>
    <g id="text_45">
     <!-- Date -->
     <g transform="translate(586.604844 845.754687) scale(0.1 -0.1)">
      <use xlink:href="#DejaVuSans-44"/>
      <use xlink:href="#DejaVuSans-61" transform="translate(77.001953 0)"/>
      <use xlink:href="#DejaVuSans-74" transform="translate(138.28125 0)"/>
      <use xlink:href="#DejaVuSans-65" transform="translate(177.490234 0)"/>
     </g>
    </g>
   </g>
   <g id="matplotlib.axis_8">
    <g id="ytick_13">
     <g id="line2d_71">
      <path d="M 59.690625 814.625185 
L 1137.420625 814.625185 
" clip-path="url(#p996ddd0c45)" style="fill: none; stroke: #b0b0b0; stroke-width: 0.8; stroke-linecap: square"/>
     </g>
     <g id="line2d_72">
      <g>
       <use xlink:href="#m6dd7000ff2" x="59.690625" y="814.625185" style="stroke: #000000; stroke-width: 0.8"/>
      </g>
     </g>
     <g id="text_46">
      <!-- 35 -->
      <g transform="translate(39.965625 818.424404) scale(0.1 -0.1)">
       <use xlink:href="#DejaVuSans-33"/>
       <use xlink:href="#DejaVuSans-35" transform="translate(63.623047 0)"/>
      </g>
     </g>
    </g>
    <g id="ytick_14">
     <g id="line2d_73">
      <path d="M 59.690625 784.594237 
L 1137.420625 784.594237 
" clip-path="url(#p996ddd0c45)" style="fill: none; stroke: #b0b0b0; stroke-width: 0.8; stroke-linecap: square"/>
     </g>
     <g id="line2d_74">
      <g>
       <use xlink:href="#m6dd7000ff2" x="59.690625" y="784.594237" style="stroke: #000000; stroke-width: 0.8"/>
      </g>
     </g>
     <g id="text_47">
      <!-- 40 -->
      <g transform="translate(39.965625 788.393456) scale(0.1 -0.1)">
       <defs>
        <path id="DejaVuSans-34" d="M 2419 4116 
L 825 1625 
L 2419 1625 
L 2419 4116 
z
M 2253 4666 
L 3047 4666 
L 3047 1625 
L 3713 1625 
L 3713 1100 
L 3047 1100 
L 3047 0 
L 2419 0 
L 2419 1100 
L 313 1100 
L 313 1709 
L 2253 4666 
z
" transform="scale(0.015625)"/>
       </defs>
       <use xlink:href="#DejaVuSans-34"/>
       <use xlink:href="#DejaVuSans-30" transform="translate(63.623047 0)"/>
      </g>
     </g>
    </g>
    <g id="ytick_15">
     <g id="line2d_75">
      <path d="M 59.690625 754.563289 
L 1137.420625 754.563289 
" clip-path="url(#p996ddd0c45)" style="fill: none; stroke: #b0b0b0; stroke-width: 0.8; stroke-linecap: square"/>
     </g>
     <g id="line2d_76">
      <g>
       <use xlink:href="#m6dd7000ff2" x="59.690625" y="754.563289" style="stroke: #000000; stroke-width: 0.8"/>
      </g>
     </g>
     <g id="text_48">
      <!-- 45 -->
      <g transform="translate(39.965625 758.362508) scale(0.1 -0.1)">
       <use xlink:href="#DejaVuSans-34"/>
       <use xlink:href="#DejaVuSans-35" transform="translate(63.623047 0)"/>
      </g>
     </g>
    </g>
    <g id="ytick_16">
     <g id="line2d_77">
      <path d="M 59.690625 724.532342 
L 1137.420625 724.532342 
" clip-path="url(#p996ddd0c45)" style="fill: none; stroke: #b0b0b0; stroke-width: 0.8; stroke-linecap: square"/>
     </g>
     <g id="line2d_78">
      <g>
       <use xlink:href="#m6dd7000ff2" x="59.690625" y="724.532342" style="stroke: #000000; stroke-width: 0.8"/>
      </g>
     </g>
     <g id="text_49">
      <!-- 50 -->
      <g transform="translate(39.965625 728.33156) scale(0.1 -0.1)">
       <use xlink:href="#DejaVuSans-35"/>
       <use xlink:href="#DejaVuSans-30" transform="translate(63.623047 0)"/>
      </g>
     </g>
    </g>
    <g id="ytick_17">
     <g id="line2d_79">
      <path d="M 59.690625 694.501394 
L 1137.420625 694.501394 
" clip-path="url(#p996ddd0c45)" style="fill: none; stroke: #b0b0b0; stroke-width: 0.8; stroke-linecap: square"/>
     </g>
     <g id="line2d_80">
      <g>
       <use xlink:href="#m6dd7000ff2" x="59.690625" y="694.501394" style="stroke: #000000; stroke-width: 0.8"/>
      </g>
     </g>
     <g id="text_50">
      <!-- 55 -->
      <g transform="translate(39.965625 698.300613) scale(0.1 -0.1)">
       <use xlink:href="#DejaVuSans-35"/>
       <use xlink:href="#DejaVuSans-35" transform="translate(63.623047 0)"/>
      </g>
     </g>
    </g>
    <g id="ytick_18">
     <g id="line2d_81">
      <path d="M 59.690625 664.470446 
L 1137.420625 664.470446 
" clip-path="url(#p996ddd0c45)" style="fill: none; stroke: #b0b0b0; stroke-width: 0.8; stroke-linecap: square"/>
     </g>
     <g id="line2d_82">
      <g>
       <use xlink:href="#m6dd7000ff2" x="59.690625" y="664.470446" style="stroke: #000000; stroke-width: 0.8"/>
      </g>
     </g>
     <g id="text_51">
      <!-- 60 -->
      <g transform="translate(39.965625 668.269665) scale(0.1 -0.1)">
       <defs>
        <path id="DejaVuSans-36" d="M 2113 2584 
Q 1688 2584 1439 2293 
Q 1191 2003 1191 1497 
Q 1191 994 1439 701 
Q 1688 409 2113 409 
Q 2538 409 2786 701 
Q 3034 994 3034 1497 
Q 3034 2003 2786 2293 
Q 2538 2584 2113 2584 
z
M 3366 4563 
L 3366 3988 
Q 3128 4100 2886 4159 
Q 2644 4219 2406 4219 
Q 1781 4219 1451 3797 
Q 1122 3375 1075 2522 
Q 1259 2794 1537 2939 
Q 1816 3084 2150 3084 
Q 2853 3084 3261 2657 
Q 3669 2231 3669 1497 
Q 3669 778 3244 343 
Q 2819 -91 2113 -91 
Q 1303 -91 875 529 
Q 447 1150 447 2328 
Q 447 3434 972 4092 
Q 1497 4750 2381 4750 
Q 2619 4750 2861 4703 
Q 3103 4656 3366 4563 
z
" transform="scale(0.015625)"/>
       </defs>
       <use xlink:href="#DejaVuSans-36"/>
       <use xlink:href="#DejaVuSans-30" transform="translate(63.623047 0)"/>
      </g>
     </g>
    </g>
    <g id="text_52">
     <!-- Value -->
     <g transform="translate(33.885938 753.579375) rotate(-90) scale(0.1 -0.1)">
      <defs>
       <path id="DejaVuSans-56" d="M 1831 0 
L 50 4666 
L 709 4666 
L 2188 738 
L 3669 4666 
L 4325 4666 
L 2547 0 
L 1831 0 
z
" transform="scale(0.015625)"/>
       <path id="DejaVuSans-75" d="M 544 1381 
L 544 3500 
L 1119 3500 
L 1119 1403 
Q 1119 906 1312 657 
Q 1506 409 1894 409 
Q 2359 409 2629 706 
Q 2900 1003 2900 1516 
L 2900 3500 
L 3475 3500 
L 3475 0 
L 2900 0 
L 2900 538 
Q 2691 219 2414 64 
Q 2138 -91 1772 -91 
Q 1169 -91 856 284 
Q 544 659 544 1381 
z
M 1991 3584 
L 1991 3584 
z
" transform="scale(0.015625)"/>
      </defs>
      <use xlink:href="#DejaVuSans-56"/>
      <use xlink:href="#DejaVuSans-61" transform="translate(60.658203 0)"/>
      <use xlink:href="#DejaVuSans-6c" transform="translate(121.9375 0)"/>
      <use xlink:href="#DejaVuSans-75" transform="translate(149.720703 0)"/>
      <use xlink:href="#DejaVuSans-65" transform="translate(213.099609 0)"/>
     </g>
    </g>
   </g>
   <g id="line2d_83">
    <path d="M 108.678352 696.303251 
L 112.403655 697.504489 
L 116.528097 677.083444 
L 120.519492 684.290872 
L 124.643934 707.114392 
L 128.63533 714.321819 
L 132.759772 717.925533 
L 136.884214 708.916249 
L 140.875609 693.900775 
L 145.000051 699.906964 
L 148.991447 699.906964 
L 153.115889 698.705727 
L 157.240331 711.919344 
L 160.965633 711.919344 
L 165.090075 692.699537 
L 169.081471 675.882206 
L 173.205913 695.702632 
L 177.197308 699.906964 
L 181.32175 710.117487 
L 185.446192 705.913154 
L 189.437588 682.489015 
L 193.56203 696.303251 
L 197.553425 692.699537 
L 201.677867 695.702632 
L 205.802309 693.900775 
L 209.527612 705.913154 
L 213.652054 687.894585 
L 217.643449 672.879111 
L 221.767891 690.297061 
L 225.759287 697.504489 
L 229.883729 704.711916 
L 234.008171 700.507583 
L 237.999566 687.894585 
L 242.124008 705.312535 
L 246.115404 692.098918 
L 250.239846 692.699537 
L 254.364288 706.513773 
L 258.222637 704.111297 
L 262.347079 674.080349 
L 266.338474 669.275398 
L 270.462916 704.711916 
L 274.454311 712.519963 
L 278.578753 734.142245 
L 282.703195 734.142245 
L 286.694591 717.324914 
L 290.819033 756.965765 
L 294.810428 791.801665 
L 298.93487 777.38681 
L 306.784615 730.538531 
L 310.909057 710.117487 
L 314.900452 703.510678 
L 319.024894 705.913154 
L 327.140732 704.711916 
L 331.265174 700.507583 
L 335.256569 698.705727 
L 339.381011 693.300156 
L 343.372407 693.300156 
L 347.496849 684.891491 
L 351.621291 689.696442 
L 355.346593 712.519963 
L 359.471035 693.900775 
L 363.462431 690.297061 
L 367.586873 701.108202 
L 371.578268 711.919344 
L 375.70271 717.324914 
L 379.827152 714.321819 
L 383.818548 701.708821 
L 387.94299 696.303251 
L 391.934385 693.300156 
L 396.058827 701.108202 
L 400.183269 707.114392 
L 403.908572 711.318725 
L 408.033014 704.111297 
L 412.024409 707.114392 
L 416.148851 712.519963 
L 420.140247 719.126771 
L 424.264689 720.328009 
L 428.389131 719.126771 
L 432.380526 717.324914 
L 436.504968 722.129866 
L 440.496364 730.538531 
L 444.620806 722.730485 
L 448.745248 721.529247 
L 452.603597 718.526152 
L 456.728039 705.913154 
L 460.719434 704.711916 
L 464.843876 722.129866 
L 468.835272 723.331104 
L 472.959714 723.931723 
L 477.084156 729.337293 
L 481.075551 725.73358 
L 489.191389 720.928628 
L 493.315831 720.928628 
L 497.440273 722.129866 
L 501.165575 723.931723 
L 505.290017 719.126771 
L 509.281413 720.928628 
L 513.405855 719.72739 
L 517.39725 723.931723 
L 521.521692 722.730485 
L 525.646134 718.526152 
L 529.63753 717.925533 
L 533.761972 716.123676 
L 537.753367 716.123676 
L 541.877809 718.526152 
L 546.002251 721.529247 
L 549.727554 723.331104 
L 557.843391 722.129866 
L 561.967833 719.72739 
L 565.959229 718.526152 
L 570.083671 714.321819 
L 574.208113 717.925533 
L 578.199508 717.925533 
L 582.32395 719.72739 
L 586.315346 722.730485 
L 590.439788 723.931723 
L 594.56423 725.73358 
L 598.289532 725.132961 
L 602.413974 723.931723 
L 606.405369 723.931723 
L 610.529811 723.331104 
L 614.521207 723.331104 
L 618.645649 724.532342 
L 622.770091 726.334199 
L 626.761486 725.73358 
L 630.885928 725.73358 
L 634.877324 726.934817 
L 639.001766 726.334199 
L 643.126208 728.136055 
L 646.984557 730.538531 
L 651.108999 723.331104 
L 655.100394 723.931723 
L 659.224836 723.931723 
L 667.340674 725.132961 
L 671.465116 722.129866 
L 675.456511 722.129866 
L 679.580953 717.324914 
L 683.572349 714.321819 
L 687.696791 716.123676 
L 691.821233 716.724295 
L 695.546535 714.922438 
L 699.670977 717.324914 
L 703.662373 717.324914 
L 707.786815 714.321819 
L 711.77821 716.123676 
L 715.902652 714.321819 
L 720.027094 710.117487 
L 724.01849 714.922438 
L 728.142932 713.7212 
L 732.134327 714.922438 
L 736.258769 716.724295 
L 740.383211 722.730485 
L 744.108514 715.523057 
L 748.232956 716.123676 
L 752.224351 713.120581 
L 756.348793 715.523057 
L 760.340189 717.324914 
L 764.464631 716.724295 
L 768.589073 719.72739 
L 772.580468 723.331104 
L 776.70491 724.532342 
L 780.696306 728.136055 
L 784.820748 727.535436 
L 788.94519 729.337293 
L 792.670492 721.529247 
L 796.794934 723.931723 
L 800.78633 728.136055 
L 804.910772 728.136055 
L 808.902167 726.334199 
L 813.026609 727.535436 
L 817.151051 725.73358 
L 821.142447 728.736674 
L 825.266889 723.331104 
L 829.258284 723.331104 
L 833.382726 724.532342 
L 837.507168 810.420852 
L 841.365517 712.519963 
L 845.489959 719.72739 
L 849.481355 720.928628 
L 853.605797 719.126771 
L 857.597192 717.925533 
L 861.721634 718.526152 
L 865.846076 715.523057 
L 869.837472 716.123676 
L 873.961914 711.919344 
L 877.953309 713.120581 
L 882.077751 716.724295 
L 886.202193 720.928628 
L 889.927496 713.120581 
L 894.051938 717.925533 
L 902.167775 719.126771 
L 906.159171 722.129866 
L 910.283613 723.931723 
L 914.408055 726.934817 
L 918.39945 729.337293 
L 922.523892 723.931723 
L 926.515287 722.730485 
L 930.639729 723.931723 
L 938.489474 723.331104 
L 942.613916 740.148434 
L 946.605311 726.934817 
L 950.729753 723.331104 
L 954.721149 730.538531 
L 958.845591 728.136055 
L 962.970033 723.931723 
L 966.961428 723.931723 
L 971.08587 736.544721 
L 975.077266 742.55091 
L 979.201708 723.931723 
L 983.32615 716.423986 
L 987.051452 708.916249 
L 991.175894 729.337293 
L 995.16729 731.739769 
L 999.291732 730.538531 
L 1003.283127 728.736674 
L 1007.407569 726.334199 
L 1011.532011 723.331104 
L 1015.523407 727.535436 
L 1019.647849 728.136055 
L 1023.639244 730.538531 
L 1027.763686 729.337293 
L 1035.746477 729.937912 
L 1039.870919 722.129866 
L 1043.862315 727.535436 
L 1047.986757 727.535436 
L 1051.978152 728.136055 
L 1056.102594 729.937912 
L 1060.227036 725.73358 
L 1064.218432 723.931723 
L 1068.342874 722.730485 
L 1072.334269 723.931723 
L 1076.458711 729.937912 
L 1080.583153 726.634508 
L 1084.308456 723.331104 
L 1088.432898 721.529247 
L 1088.432898 721.529247 
" clip-path="url(#p996ddd0c45)" style="fill: none; stroke: #800080; stroke-width: 1.5; stroke-linecap: square"/>
   </g>
   <g id="patch_21">
    <path d="M 59.690625 817.478125 
L 59.690625 662.218125 
" style="fill: none; stroke: #000000; stroke-width: 0.8; stroke-linejoin: miter; stroke-linecap: square"/>
   </g>
   <g id="patch_22">
    <path d="M 1137.420625 817.478125 
L 1137.420625 662.218125 
" style="fill: none; stroke: #000000; stroke-width: 0.8; stroke-linejoin: miter; stroke-linecap: square"/>
   </g>
   <g id="patch_23">
    <path d="M 59.690625 817.478125 
L 1137.420625 817.478125 
" style="fill: none; stroke: #000000; stroke-width: 0.8; stroke-linejoin: miter; stroke-linecap: square"/>
   </g>
   <g id="patch_24">
    <path d="M 59.690625 662.218125 
L 1137.420625 662.218125 
" style="fill: none; stroke: #000000; stroke-width: 0.8; stroke-linejoin: miter; stroke-linecap: square"/>
   </g>
   <g id="text_53">
    <!-- PMI (MOM) -->
    <g transform="translate(566.325312 656.218125) scale(0.12 -0.12)">
     <use xlink:href="#DejaVuSans-50"/>
     <use xlink:href="#DejaVuSans-4d" transform="translate(60.302734 0)"/>
     <use xlink:href="#DejaVuSans-49" transform="translate(146.582031 0)"/>
     <use xlink:href="#DejaVuSans-20" transform="translate(176.074219 0)"/>
     <use xlink:href="#DejaVuSans-28" transform="translate(207.861328 0)"/>
     <use xlink:href="#DejaVuSans-4d" transform="translate(246.875 0)"/>
     <use xlink:href="#DejaVuSans-4f" transform="translate(333.154297 0)"/>
     <use xlink:href="#DejaVuSans-4d" transform="translate(411.865234 0)"/>
     <use xlink:href="#DejaVuSans-29" transform="translate(498.144531 0)"/>
    </g>
   </g>
   <g id="legend_4">
    <g id="patch_25">
     <path d="M 1080.812812 684.89625 
L 1130.420625 684.89625 
Q 1132.420625 684.89625 1132.420625 682.89625 
L 1132.420625 669.218125 
Q 1132.420625 667.218125 1130.420625 667.218125 
L 1080.812812 667.218125 
Q 1078.812812 667.218125 1078.812812 669.218125 
L 1078.812812 682.89625 
Q 1078.812812 684.89625 1080.812812 684.89625 
z
" style="fill: #ffffff; opacity: 0.8; stroke: #cccccc; stroke-linejoin: miter"/>
    </g>
    <g id="line2d_84">
     <path d="M 1082.812812 675.316562 
L 1092.812812 675.316562 
L 1102.812812 675.316562 
" style="fill: none; stroke: #800080; stroke-width: 1.5; stroke-linecap: square"/>
    </g>
    <g id="text_54">
     <!-- PMI -->
     <g transform="translate(1110.812812 678.816562) scale(0.1 -0.1)">
      <use xlink:href="#DejaVuSans-50"/>
      <use xlink:href="#DejaVuSans-4d" transform="translate(60.302734 0)"/>
      <use xlink:href="#DejaVuSans-49" transform="translate(146.582031 0)"/>
     </g>
    </g>
   </g>
  </g>
 </g>
 <defs>
  <clipPath id="pee3e5f5eed">
   <rect x="59.690625" y="22.318125" width="1077.73" height="155.26"/>
  </clipPath>
  <clipPath id="p80f5f2be4a">
   <rect x="59.690625" y="235.618125" width="1077.73" height="155.26"/>
  </clipPath>
  <clipPath id="p1eba43c3f4">
   <rect x="59.690625" y="448.918125" width="1077.73" height="155.26"/>
  </clipPath>
  <clipPath id="p996ddd0c45">
   <rect x="59.690625" y="662.218125" width="1077.73" height="155.26"/>
  </clipPath>
 </defs>
</svg>
