<?xml version="1.0" encoding="utf-8" standalone="no"?>
<!DOCTYPE svg PUBLIC "-//W3C//DTD SVG 1.1//EN"
  "http://www.w3.org/Graphics/SVG/1.1/DTD/svg11.dtd">
<svg xmlns:xlink="http://www.w3.org/1999/xlink" width="576pt" height="288pt" viewBox="0 0 576 288" xmlns="http://www.w3.org/2000/svg" version="1.1">
 <metadata>
  <rdf:RDF xmlns:dc="http://purl.org/dc/elements/1.1/" xmlns:cc="http://creativecommons.org/ns#" xmlns:rdf="http://www.w3.org/1999/02/22-rdf-syntax-ns#">
   <cc:Work>
    <dc:type rdf:resource="http://purl.org/dc/dcmitype/StillImage"/>
    <dc:date>2025-04-30T10:50:34.175285</dc:date>
    <dc:format>image/svg+xml</dc:format>
    <dc:creator>
     <cc:Agent>
      <dc:title>Matplotlib v3.10.1, https://matplotlib.org/</dc:title>
     </cc:Agent>
    </dc:creator>
   </cc:Work>
  </rdf:RDF>
 </metadata>
 <defs>
  <style type="text/css">*{stroke-linejoin: round; stroke-linecap: butt}</style>
 </defs>
 <g id="figure_1">
  <g id="patch_1">
   <path d="M 0 288 
L 576 288 
L 576 0 
L 0 0 
z
" style="fill: #ffffff"/>
  </g>
  <g id="axes_1">
   <g id="patch_2">
    <path d="M 63.56 246.04 
L 565.2 246.04 
L 565.2 26.88 
L 63.56 26.88 
z
" style="fill: #ffffff"/>
   </g>
   <g id="matplotlib.axis_1">
    <g id="xtick_1">
     <g id="line2d_1">
      <defs>
       <path id="m61e8d78979" d="M 0 0 
L 0 3.5 
" style="stroke: #000000; stroke-width: 0.8"/>
      </defs>
      <g>
       <use xlink:href="#m61e8d78979" x="81.711775" y="246.04" style="stroke: #000000; stroke-width: 0.8"/>
      </g>
     </g>
     <g id="text_1">
      <!-- 2021-07 -->
      <g transform="translate(60.820369 260.638438) scale(0.1 -0.1)">
       <defs>
        <path id="DejaVuSans-32" d="M 1228 531 
L 3431 531 
L 3431 0 
L 469 0 
L 469 531 
Q 828 903 1448 1529 
Q 2069 2156 2228 2338 
Q 2531 2678 2651 2914 
Q 2772 3150 2772 3378 
Q 2772 3750 2511 3984 
Q 2250 4219 1831 4219 
Q 1534 4219 1204 4116 
Q 875 4013 500 3803 
L 500 4441 
Q 881 4594 1212 4672 
Q 1544 4750 1819 4750 
Q 2544 4750 2975 4387 
Q 3406 4025 3406 3419 
Q 3406 3131 3298 2873 
Q 3191 2616 2906 2266 
Q 2828 2175 2409 1742 
Q 1991 1309 1228 531 
z
" transform="scale(0.015625)"/>
        <path id="DejaVuSans-30" d="M 2034 4250 
Q 1547 4250 1301 3770 
Q 1056 3291 1056 2328 
Q 1056 1369 1301 889 
Q 1547 409 2034 409 
Q 2525 409 2770 889 
Q 3016 1369 3016 2328 
Q 3016 3291 2770 3770 
Q 2525 4250 2034 4250 
z
M 2034 4750 
Q 2819 4750 3233 4129 
Q 3647 3509 3647 2328 
Q 3647 1150 3233 529 
Q 2819 -91 2034 -91 
Q 1250 -91 836 529 
Q 422 1150 422 2328 
Q 422 3509 836 4129 
Q 1250 4750 2034 4750 
z
" transform="scale(0.015625)"/>
        <path id="DejaVuSans-31" d="M 794 531 
L 1825 531 
L 1825 4091 
L 703 3866 
L 703 4441 
L 1819 4666 
L 2450 4666 
L 2450 531 
L 3481 531 
L 3481 0 
L 794 0 
L 794 531 
z
" transform="scale(0.015625)"/>
        <path id="DejaVuSans-2d" d="M 313 2009 
L 1997 2009 
L 1997 1497 
L 313 1497 
L 313 2009 
z
" transform="scale(0.015625)"/>
        <path id="DejaVuSans-37" d="M 525 4666 
L 3525 4666 
L 3525 4397 
L 1831 0 
L 1172 0 
L 2766 4134 
L 525 4134 
L 525 4666 
z
" transform="scale(0.015625)"/>
       </defs>
       <use xlink:href="#DejaVuSans-32"/>
       <use xlink:href="#DejaVuSans-30" transform="translate(63.623047 0)"/>
       <use xlink:href="#DejaVuSans-32" transform="translate(127.246094 0)"/>
       <use xlink:href="#DejaVuSans-31" transform="translate(190.869141 0)"/>
       <use xlink:href="#DejaVuSans-2d" transform="translate(254.492188 0)"/>
       <use xlink:href="#DejaVuSans-30" transform="translate(290.576172 0)"/>
       <use xlink:href="#DejaVuSans-37" transform="translate(354.199219 0)"/>
      </g>
     </g>
    </g>
    <g id="xtick_2">
     <g id="line2d_2">
      <g>
       <use xlink:href="#m61e8d78979" x="142.826626" y="246.04" style="stroke: #000000; stroke-width: 0.8"/>
      </g>
     </g>
     <g id="text_2">
      <!-- 2022-01 -->
      <g transform="translate(121.93522 260.638438) scale(0.1 -0.1)">
       <use xlink:href="#DejaVuSans-32"/>
       <use xlink:href="#DejaVuSans-30" transform="translate(63.623047 0)"/>
       <use xlink:href="#DejaVuSans-32" transform="translate(127.246094 0)"/>
       <use xlink:href="#DejaVuSans-32" transform="translate(190.869141 0)"/>
       <use xlink:href="#DejaVuSans-2d" transform="translate(254.492188 0)"/>
       <use xlink:href="#DejaVuSans-30" transform="translate(290.576172 0)"/>
       <use xlink:href="#DejaVuSans-31" transform="translate(354.199219 0)"/>
      </g>
     </g>
    </g>
    <g id="xtick_3">
     <g id="line2d_3">
      <g>
       <use xlink:href="#m61e8d78979" x="202.94504" y="246.04" style="stroke: #000000; stroke-width: 0.8"/>
      </g>
     </g>
     <g id="text_3">
      <!-- 2022-07 -->
      <g transform="translate(182.053634 260.638438) scale(0.1 -0.1)">
       <use xlink:href="#DejaVuSans-32"/>
       <use xlink:href="#DejaVuSans-30" transform="translate(63.623047 0)"/>
       <use xlink:href="#DejaVuSans-32" transform="translate(127.246094 0)"/>
       <use xlink:href="#DejaVuSans-32" transform="translate(190.869141 0)"/>
       <use xlink:href="#DejaVuSans-2d" transform="translate(254.492188 0)"/>
       <use xlink:href="#DejaVuSans-30" transform="translate(290.576172 0)"/>
       <use xlink:href="#DejaVuSans-37" transform="translate(354.199219 0)"/>
      </g>
     </g>
    </g>
    <g id="xtick_4">
     <g id="line2d_4">
      <g>
       <use xlink:href="#m61e8d78979" x="264.059891" y="246.04" style="stroke: #000000; stroke-width: 0.8"/>
      </g>
     </g>
     <g id="text_4">
      <!-- 2023-01 -->
      <g transform="translate(243.168485 260.638438) scale(0.1 -0.1)">
       <defs>
        <path id="DejaVuSans-33" d="M 2597 2516 
Q 3050 2419 3304 2112 
Q 3559 1806 3559 1356 
Q 3559 666 3084 287 
Q 2609 -91 1734 -91 
Q 1441 -91 1130 -33 
Q 819 25 488 141 
L 488 750 
Q 750 597 1062 519 
Q 1375 441 1716 441 
Q 2309 441 2620 675 
Q 2931 909 2931 1356 
Q 2931 1769 2642 2001 
Q 2353 2234 1838 2234 
L 1294 2234 
L 1294 2753 
L 1863 2753 
Q 2328 2753 2575 2939 
Q 2822 3125 2822 3475 
Q 2822 3834 2567 4026 
Q 2313 4219 1838 4219 
Q 1578 4219 1281 4162 
Q 984 4106 628 3988 
L 628 4550 
Q 988 4650 1302 4700 
Q 1616 4750 1894 4750 
Q 2613 4750 3031 4423 
Q 3450 4097 3450 3541 
Q 3450 3153 3228 2886 
Q 3006 2619 2597 2516 
z
" transform="scale(0.015625)"/>
       </defs>
       <use xlink:href="#DejaVuSans-32"/>
       <use xlink:href="#DejaVuSans-30" transform="translate(63.623047 0)"/>
       <use xlink:href="#DejaVuSans-32" transform="translate(127.246094 0)"/>
       <use xlink:href="#DejaVuSans-33" transform="translate(190.869141 0)"/>
       <use xlink:href="#DejaVuSans-2d" transform="translate(254.492188 0)"/>
       <use xlink:href="#DejaVuSans-30" transform="translate(290.576172 0)"/>
       <use xlink:href="#DejaVuSans-31" transform="translate(354.199219 0)"/>
      </g>
     </g>
    </g>
    <g id="xtick_5">
     <g id="line2d_5">
      <g>
       <use xlink:href="#m61e8d78979" x="324.178305" y="246.04" style="stroke: #000000; stroke-width: 0.8"/>
      </g>
     </g>
     <g id="text_5">
      <!-- 2023-07 -->
      <g transform="translate(303.286899 260.638438) scale(0.1 -0.1)">
       <use xlink:href="#DejaVuSans-32"/>
       <use xlink:href="#DejaVuSans-30" transform="translate(63.623047 0)"/>
       <use xlink:href="#DejaVuSans-32" transform="translate(127.246094 0)"/>
       <use xlink:href="#DejaVuSans-33" transform="translate(190.869141 0)"/>
       <use xlink:href="#DejaVuSans-2d" transform="translate(254.492188 0)"/>
       <use xlink:href="#DejaVuSans-30" transform="translate(290.576172 0)"/>
       <use xlink:href="#DejaVuSans-37" transform="translate(354.199219 0)"/>
      </g>
     </g>
    </g>
    <g id="xtick_6">
     <g id="line2d_6">
      <g>
       <use xlink:href="#m61e8d78979" x="385.293156" y="246.04" style="stroke: #000000; stroke-width: 0.8"/>
      </g>
     </g>
     <g id="text_6">
      <!-- 2024-01 -->
      <g transform="translate(364.40175 260.638438) scale(0.1 -0.1)">
       <defs>
        <path id="DejaVuSans-34" d="M 2419 4116 
L 825 1625 
L 2419 1625 
L 2419 4116 
z
M 2253 4666 
L 3047 4666 
L 3047 1625 
L 3713 1625 
L 3713 1100 
L 3047 1100 
L 3047 0 
L 2419 0 
L 2419 1100 
L 313 1100 
L 313 1709 
L 2253 4666 
z
" transform="scale(0.015625)"/>
       </defs>
       <use xlink:href="#DejaVuSans-32"/>
       <use xlink:href="#DejaVuSans-30" transform="translate(63.623047 0)"/>
       <use xlink:href="#DejaVuSans-32" transform="translate(127.246094 0)"/>
       <use xlink:href="#DejaVuSans-34" transform="translate(190.869141 0)"/>
       <use xlink:href="#DejaVuSans-2d" transform="translate(254.492188 0)"/>
       <use xlink:href="#DejaVuSans-30" transform="translate(290.576172 0)"/>
       <use xlink:href="#DejaVuSans-31" transform="translate(354.199219 0)"/>
      </g>
     </g>
    </g>
    <g id="xtick_7">
     <g id="line2d_7">
      <g>
       <use xlink:href="#m61e8d78979" x="445.743716" y="246.04" style="stroke: #000000; stroke-width: 0.8"/>
      </g>
     </g>
     <g id="text_7">
      <!-- 2024-07 -->
      <g transform="translate(424.85231 260.638438) scale(0.1 -0.1)">
       <use xlink:href="#DejaVuSans-32"/>
       <use xlink:href="#DejaVuSans-30" transform="translate(63.623047 0)"/>
       <use xlink:href="#DejaVuSans-32" transform="translate(127.246094 0)"/>
       <use xlink:href="#DejaVuSans-34" transform="translate(190.869141 0)"/>
       <use xlink:href="#DejaVuSans-2d" transform="translate(254.492188 0)"/>
       <use xlink:href="#DejaVuSans-30" transform="translate(290.576172 0)"/>
       <use xlink:href="#DejaVuSans-37" transform="translate(354.199219 0)"/>
      </g>
     </g>
    </g>
    <g id="xtick_8">
     <g id="line2d_8">
      <g>
       <use xlink:href="#m61e8d78979" x="506.858567" y="246.04" style="stroke: #000000; stroke-width: 0.8"/>
      </g>
     </g>
     <g id="text_8">
      <!-- 2025-01 -->
      <g transform="translate(485.967161 260.638438) scale(0.1 -0.1)">
       <defs>
        <path id="DejaVuSans-35" d="M 691 4666 
L 3169 4666 
L 3169 4134 
L 1269 4134 
L 1269 2991 
Q 1406 3038 1543 3061 
Q 1681 3084 1819 3084 
Q 2600 3084 3056 2656 
Q 3513 2228 3513 1497 
Q 3513 744 3044 326 
Q 2575 -91 1722 -91 
Q 1428 -91 1123 -41 
Q 819 9 494 109 
L 494 744 
Q 775 591 1075 516 
Q 1375 441 1709 441 
Q 2250 441 2565 725 
Q 2881 1009 2881 1497 
Q 2881 1984 2565 2268 
Q 2250 2553 1709 2553 
Q 1456 2553 1204 2497 
Q 953 2441 691 2322 
L 691 4666 
z
" transform="scale(0.015625)"/>
       </defs>
       <use xlink:href="#DejaVuSans-32"/>
       <use xlink:href="#DejaVuSans-30" transform="translate(63.623047 0)"/>
       <use xlink:href="#DejaVuSans-32" transform="translate(127.246094 0)"/>
       <use xlink:href="#DejaVuSans-35" transform="translate(190.869141 0)"/>
       <use xlink:href="#DejaVuSans-2d" transform="translate(254.492188 0)"/>
       <use xlink:href="#DejaVuSans-30" transform="translate(290.576172 0)"/>
       <use xlink:href="#DejaVuSans-31" transform="translate(354.199219 0)"/>
      </g>
     </g>
    </g>
    <g id="text_9">
     <!-- Date -->
     <g transform="translate(302.429219 274.316562) scale(0.1 -0.1)">
      <defs>
       <path id="DejaVuSans-44" d="M 1259 4147 
L 1259 519 
L 2022 519 
Q 2988 519 3436 956 
Q 3884 1394 3884 2338 
Q 3884 3275 3436 3711 
Q 2988 4147 2022 4147 
L 1259 4147 
z
M 628 4666 
L 1925 4666 
Q 3281 4666 3915 4102 
Q 4550 3538 4550 2338 
Q 4550 1131 3912 565 
Q 3275 0 1925 0 
L 628 0 
L 628 4666 
z
" transform="scale(0.015625)"/>
       <path id="DejaVuSans-61" d="M 2194 1759 
Q 1497 1759 1228 1600 
Q 959 1441 959 1056 
Q 959 750 1161 570 
Q 1363 391 1709 391 
Q 2188 391 2477 730 
Q 2766 1069 2766 1631 
L 2766 1759 
L 2194 1759 
z
M 3341 1997 
L 3341 0 
L 2766 0 
L 2766 531 
Q 2569 213 2275 61 
Q 1981 -91 1556 -91 
Q 1019 -91 701 211 
Q 384 513 384 1019 
Q 384 1609 779 1909 
Q 1175 2209 1959 2209 
L 2766 2209 
L 2766 2266 
Q 2766 2663 2505 2880 
Q 2244 3097 1772 3097 
Q 1472 3097 1187 3025 
Q 903 2953 641 2809 
L 641 3341 
Q 956 3463 1253 3523 
Q 1550 3584 1831 3584 
Q 2591 3584 2966 3190 
Q 3341 2797 3341 1997 
z
" transform="scale(0.015625)"/>
       <path id="DejaVuSans-74" d="M 1172 4494 
L 1172 3500 
L 2356 3500 
L 2356 3053 
L 1172 3053 
L 1172 1153 
Q 1172 725 1289 603 
Q 1406 481 1766 481 
L 2356 481 
L 2356 0 
L 1766 0 
Q 1100 0 847 248 
Q 594 497 594 1153 
L 594 3053 
L 172 3053 
L 172 3500 
L 594 3500 
L 594 4494 
L 1172 4494 
z
" transform="scale(0.015625)"/>
       <path id="DejaVuSans-65" d="M 3597 1894 
L 3597 1613 
L 953 1613 
Q 991 1019 1311 708 
Q 1631 397 2203 397 
Q 2534 397 2845 478 
Q 3156 559 3463 722 
L 3463 178 
Q 3153 47 2828 -22 
Q 2503 -91 2169 -91 
Q 1331 -91 842 396 
Q 353 884 353 1716 
Q 353 2575 817 3079 
Q 1281 3584 2069 3584 
Q 2775 3584 3186 3129 
Q 3597 2675 3597 1894 
z
M 3022 2063 
Q 3016 2534 2758 2815 
Q 2500 3097 2075 3097 
Q 1594 3097 1305 2825 
Q 1016 2553 972 2059 
L 3022 2063 
z
" transform="scale(0.015625)"/>
      </defs>
      <use xlink:href="#DejaVuSans-44"/>
      <use xlink:href="#DejaVuSans-61" transform="translate(77.001953 0)"/>
      <use xlink:href="#DejaVuSans-74" transform="translate(138.28125 0)"/>
      <use xlink:href="#DejaVuSans-65" transform="translate(177.490234 0)"/>
     </g>
    </g>
   </g>
   <g id="matplotlib.axis_2">
    <g id="ytick_1">
     <g id="line2d_9">
      <defs>
       <path id="mdbf7eed172" d="M 0 0 
L -3.5 0 
" style="stroke: #000000; stroke-width: 0.8"/>
      </defs>
      <g>
       <use xlink:href="#mdbf7eed172" x="63.56" y="235.12965" style="stroke: #000000; stroke-width: 0.8"/>
      </g>
     </g>
     <g id="text_10">
      <!-- 8000 -->
      <g transform="translate(31.11 238.928869) scale(0.1 -0.1)">
       <defs>
        <path id="DejaVuSans-38" d="M 2034 2216 
Q 1584 2216 1326 1975 
Q 1069 1734 1069 1313 
Q 1069 891 1326 650 
Q 1584 409 2034 409 
Q 2484 409 2743 651 
Q 3003 894 3003 1313 
Q 3003 1734 2745 1975 
Q 2488 2216 2034 2216 
z
M 1403 2484 
Q 997 2584 770 2862 
Q 544 3141 544 3541 
Q 544 4100 942 4425 
Q 1341 4750 2034 4750 
Q 2731 4750 3128 4425 
Q 3525 4100 3525 3541 
Q 3525 3141 3298 2862 
Q 3072 2584 2669 2484 
Q 3125 2378 3379 2068 
Q 3634 1759 3634 1313 
Q 3634 634 3220 271 
Q 2806 -91 2034 -91 
Q 1263 -91 848 271 
Q 434 634 434 1313 
Q 434 1759 690 2068 
Q 947 2378 1403 2484 
z
M 1172 3481 
Q 1172 3119 1398 2916 
Q 1625 2713 2034 2713 
Q 2441 2713 2670 2916 
Q 2900 3119 2900 3481 
Q 2900 3844 2670 4047 
Q 2441 4250 2034 4250 
Q 1625 4250 1398 4047 
Q 1172 3844 1172 3481 
z
" transform="scale(0.015625)"/>
       </defs>
       <use xlink:href="#DejaVuSans-38"/>
       <use xlink:href="#DejaVuSans-30" transform="translate(63.623047 0)"/>
       <use xlink:href="#DejaVuSans-30" transform="translate(127.246094 0)"/>
       <use xlink:href="#DejaVuSans-30" transform="translate(190.869141 0)"/>
      </g>
     </g>
    </g>
    <g id="ytick_2">
     <g id="line2d_10">
      <g>
       <use xlink:href="#mdbf7eed172" x="63.56" y="208.251457" style="stroke: #000000; stroke-width: 0.8"/>
      </g>
     </g>
     <g id="text_11">
      <!-- 9000 -->
      <g transform="translate(31.11 212.050676) scale(0.1 -0.1)">
       <defs>
        <path id="DejaVuSans-39" d="M 703 97 
L 703 672 
Q 941 559 1184 500 
Q 1428 441 1663 441 
Q 2288 441 2617 861 
Q 2947 1281 2994 2138 
Q 2813 1869 2534 1725 
Q 2256 1581 1919 1581 
Q 1219 1581 811 2004 
Q 403 2428 403 3163 
Q 403 3881 828 4315 
Q 1253 4750 1959 4750 
Q 2769 4750 3195 4129 
Q 3622 3509 3622 2328 
Q 3622 1225 3098 567 
Q 2575 -91 1691 -91 
Q 1453 -91 1209 -44 
Q 966 3 703 97 
z
M 1959 2075 
Q 2384 2075 2632 2365 
Q 2881 2656 2881 3163 
Q 2881 3666 2632 3958 
Q 2384 4250 1959 4250 
Q 1534 4250 1286 3958 
Q 1038 3666 1038 3163 
Q 1038 2656 1286 2365 
Q 1534 2075 1959 2075 
z
" transform="scale(0.015625)"/>
       </defs>
       <use xlink:href="#DejaVuSans-39"/>
       <use xlink:href="#DejaVuSans-30" transform="translate(63.623047 0)"/>
       <use xlink:href="#DejaVuSans-30" transform="translate(127.246094 0)"/>
       <use xlink:href="#DejaVuSans-30" transform="translate(190.869141 0)"/>
      </g>
     </g>
    </g>
    <g id="ytick_3">
     <g id="line2d_11">
      <g>
       <use xlink:href="#mdbf7eed172" x="63.56" y="181.373264" style="stroke: #000000; stroke-width: 0.8"/>
      </g>
     </g>
     <g id="text_12">
      <!-- 10000 -->
      <g transform="translate(24.7475 185.172483) scale(0.1 -0.1)">
       <use xlink:href="#DejaVuSans-31"/>
       <use xlink:href="#DejaVuSans-30" transform="translate(63.623047 0)"/>
       <use xlink:href="#DejaVuSans-30" transform="translate(127.246094 0)"/>
       <use xlink:href="#DejaVuSans-30" transform="translate(190.869141 0)"/>
       <use xlink:href="#DejaVuSans-30" transform="translate(254.492188 0)"/>
      </g>
     </g>
    </g>
    <g id="ytick_4">
     <g id="line2d_12">
      <g>
       <use xlink:href="#mdbf7eed172" x="63.56" y="154.495071" style="stroke: #000000; stroke-width: 0.8"/>
      </g>
     </g>
     <g id="text_13">
      <!-- 11000 -->
      <g transform="translate(24.7475 158.29429) scale(0.1 -0.1)">
       <use xlink:href="#DejaVuSans-31"/>
       <use xlink:href="#DejaVuSans-31" transform="translate(63.623047 0)"/>
       <use xlink:href="#DejaVuSans-30" transform="translate(127.246094 0)"/>
       <use xlink:href="#DejaVuSans-30" transform="translate(190.869141 0)"/>
       <use xlink:href="#DejaVuSans-30" transform="translate(254.492188 0)"/>
      </g>
     </g>
    </g>
    <g id="ytick_5">
     <g id="line2d_13">
      <g>
       <use xlink:href="#mdbf7eed172" x="63.56" y="127.616878" style="stroke: #000000; stroke-width: 0.8"/>
      </g>
     </g>
     <g id="text_14">
      <!-- 12000 -->
      <g transform="translate(24.7475 131.416097) scale(0.1 -0.1)">
       <use xlink:href="#DejaVuSans-31"/>
       <use xlink:href="#DejaVuSans-32" transform="translate(63.623047 0)"/>
       <use xlink:href="#DejaVuSans-30" transform="translate(127.246094 0)"/>
       <use xlink:href="#DejaVuSans-30" transform="translate(190.869141 0)"/>
       <use xlink:href="#DejaVuSans-30" transform="translate(254.492188 0)"/>
      </g>
     </g>
    </g>
    <g id="ytick_6">
     <g id="line2d_14">
      <g>
       <use xlink:href="#mdbf7eed172" x="63.56" y="100.738685" style="stroke: #000000; stroke-width: 0.8"/>
      </g>
     </g>
     <g id="text_15">
      <!-- 13000 -->
      <g transform="translate(24.7475 104.537904) scale(0.1 -0.1)">
       <use xlink:href="#DejaVuSans-31"/>
       <use xlink:href="#DejaVuSans-33" transform="translate(63.623047 0)"/>
       <use xlink:href="#DejaVuSans-30" transform="translate(127.246094 0)"/>
       <use xlink:href="#DejaVuSans-30" transform="translate(190.869141 0)"/>
       <use xlink:href="#DejaVuSans-30" transform="translate(254.492188 0)"/>
      </g>
     </g>
    </g>
    <g id="ytick_7">
     <g id="line2d_15">
      <g>
       <use xlink:href="#mdbf7eed172" x="63.56" y="73.860492" style="stroke: #000000; stroke-width: 0.8"/>
      </g>
     </g>
     <g id="text_16">
      <!-- 14000 -->
      <g transform="translate(24.7475 77.659711) scale(0.1 -0.1)">
       <use xlink:href="#DejaVuSans-31"/>
       <use xlink:href="#DejaVuSans-34" transform="translate(63.623047 0)"/>
       <use xlink:href="#DejaVuSans-30" transform="translate(127.246094 0)"/>
       <use xlink:href="#DejaVuSans-30" transform="translate(190.869141 0)"/>
       <use xlink:href="#DejaVuSans-30" transform="translate(254.492188 0)"/>
      </g>
     </g>
    </g>
    <g id="ytick_8">
     <g id="line2d_16">
      <g>
       <use xlink:href="#mdbf7eed172" x="63.56" y="46.982299" style="stroke: #000000; stroke-width: 0.8"/>
      </g>
     </g>
     <g id="text_17">
      <!-- 15000 -->
      <g transform="translate(24.7475 50.781518) scale(0.1 -0.1)">
       <use xlink:href="#DejaVuSans-31"/>
       <use xlink:href="#DejaVuSans-35" transform="translate(63.623047 0)"/>
       <use xlink:href="#DejaVuSans-30" transform="translate(127.246094 0)"/>
       <use xlink:href="#DejaVuSans-30" transform="translate(190.869141 0)"/>
       <use xlink:href="#DejaVuSans-30" transform="translate(254.492188 0)"/>
      </g>
     </g>
    </g>
    <g id="text_18">
     <!-- Stock Price -->
     <g transform="translate(18.667813 164.085) rotate(-90) scale(0.1 -0.1)">
      <defs>
       <path id="DejaVuSans-53" d="M 3425 4513 
L 3425 3897 
Q 3066 4069 2747 4153 
Q 2428 4238 2131 4238 
Q 1616 4238 1336 4038 
Q 1056 3838 1056 3469 
Q 1056 3159 1242 3001 
Q 1428 2844 1947 2747 
L 2328 2669 
Q 3034 2534 3370 2195 
Q 3706 1856 3706 1288 
Q 3706 609 3251 259 
Q 2797 -91 1919 -91 
Q 1588 -91 1214 -16 
Q 841 59 441 206 
L 441 856 
Q 825 641 1194 531 
Q 1563 422 1919 422 
Q 2459 422 2753 634 
Q 3047 847 3047 1241 
Q 3047 1584 2836 1778 
Q 2625 1972 2144 2069 
L 1759 2144 
Q 1053 2284 737 2584 
Q 422 2884 422 3419 
Q 422 4038 858 4394 
Q 1294 4750 2059 4750 
Q 2388 4750 2728 4690 
Q 3069 4631 3425 4513 
z
" transform="scale(0.015625)"/>
       <path id="DejaVuSans-6f" d="M 1959 3097 
Q 1497 3097 1228 2736 
Q 959 2375 959 1747 
Q 959 1119 1226 758 
Q 1494 397 1959 397 
Q 2419 397 2687 759 
Q 2956 1122 2956 1747 
Q 2956 2369 2687 2733 
Q 2419 3097 1959 3097 
z
M 1959 3584 
Q 2709 3584 3137 3096 
Q 3566 2609 3566 1747 
Q 3566 888 3137 398 
Q 2709 -91 1959 -91 
Q 1206 -91 779 398 
Q 353 888 353 1747 
Q 353 2609 779 3096 
Q 1206 3584 1959 3584 
z
" transform="scale(0.015625)"/>
       <path id="DejaVuSans-63" d="M 3122 3366 
L 3122 2828 
Q 2878 2963 2633 3030 
Q 2388 3097 2138 3097 
Q 1578 3097 1268 2742 
Q 959 2388 959 1747 
Q 959 1106 1268 751 
Q 1578 397 2138 397 
Q 2388 397 2633 464 
Q 2878 531 3122 666 
L 3122 134 
Q 2881 22 2623 -34 
Q 2366 -91 2075 -91 
Q 1284 -91 818 406 
Q 353 903 353 1747 
Q 353 2603 823 3093 
Q 1294 3584 2113 3584 
Q 2378 3584 2631 3529 
Q 2884 3475 3122 3366 
z
" transform="scale(0.015625)"/>
       <path id="DejaVuSans-6b" d="M 581 4863 
L 1159 4863 
L 1159 1991 
L 2875 3500 
L 3609 3500 
L 1753 1863 
L 3688 0 
L 2938 0 
L 1159 1709 
L 1159 0 
L 581 0 
L 581 4863 
z
" transform="scale(0.015625)"/>
       <path id="DejaVuSans-20" transform="scale(0.015625)"/>
       <path id="DejaVuSans-50" d="M 1259 4147 
L 1259 2394 
L 2053 2394 
Q 2494 2394 2734 2622 
Q 2975 2850 2975 3272 
Q 2975 3691 2734 3919 
Q 2494 4147 2053 4147 
L 1259 4147 
z
M 628 4666 
L 2053 4666 
Q 2838 4666 3239 4311 
Q 3641 3956 3641 3272 
Q 3641 2581 3239 2228 
Q 2838 1875 2053 1875 
L 1259 1875 
L 1259 0 
L 628 0 
L 628 4666 
z
" transform="scale(0.015625)"/>
       <path id="DejaVuSans-72" d="M 2631 2963 
Q 2534 3019 2420 3045 
Q 2306 3072 2169 3072 
Q 1681 3072 1420 2755 
Q 1159 2438 1159 1844 
L 1159 0 
L 581 0 
L 581 3500 
L 1159 3500 
L 1159 2956 
Q 1341 3275 1631 3429 
Q 1922 3584 2338 3584 
Q 2397 3584 2469 3576 
Q 2541 3569 2628 3553 
L 2631 2963 
z
" transform="scale(0.015625)"/>
       <path id="DejaVuSans-69" d="M 603 3500 
L 1178 3500 
L 1178 0 
L 603 0 
L 603 3500 
z
M 603 4863 
L 1178 4863 
L 1178 4134 
L 603 4134 
L 603 4863 
z
" transform="scale(0.015625)"/>
      </defs>
      <use xlink:href="#DejaVuSans-53"/>
      <use xlink:href="#DejaVuSans-74" transform="translate(63.476562 0)"/>
      <use xlink:href="#DejaVuSans-6f" transform="translate(102.685547 0)"/>
      <use xlink:href="#DejaVuSans-63" transform="translate(163.867188 0)"/>
      <use xlink:href="#DejaVuSans-6b" transform="translate(218.847656 0)"/>
      <use xlink:href="#DejaVuSans-20" transform="translate(276.757812 0)"/>
      <use xlink:href="#DejaVuSans-50" transform="translate(308.544922 0)"/>
      <use xlink:href="#DejaVuSans-72" transform="translate(367.097656 0)"/>
      <use xlink:href="#DejaVuSans-69" transform="translate(408.210938 0)"/>
      <use xlink:href="#DejaVuSans-63" transform="translate(435.994141 0)"/>
      <use xlink:href="#DejaVuSans-65" transform="translate(490.974609 0)"/>
     </g>
    </g>
   </g>
   <g id="line2d_17">
    <path d="M 86.361818 42.431015 
L 86.693964 47.729244 
L 87.690402 47.173134 
L 88.022548 46.677231 
L 88.354694 41.267995 
L 88.68684 39.935106 
L 89.018986 46.214389 
L 90.015423 56.904384 
L 90.347569 71.343618 
L 90.679715 71.537679 
L 91.011861 60.009622 
L 91.344007 61.141462 
L 92.340445 52.407393 
L 92.672591 54.053414 
L 93.004737 47.248124 
L 93.336883 50.416526 
L 93.669029 51.621206 
L 94.665466 48.556286 
L 94.997612 45.434384 
L 95.329758 46.413288 
L 95.99405 52.384009 
L 96.990488 55.214014 
L 97.322634 64.435654 
L 97.65478 61.654836 
L 97.986926 60.761136 
L 98.319072 67.046064 
L 99.31551 59.457006 
L 99.647655 56.025467 
L 99.979801 55.112952 
L 100.311947 62.693678 
L 100.644093 62.117409 
L 101.640531 62.481071 
L 101.972677 65.034231 
L 102.304823 65.41832 
L 102.636969 66.406094 
L 102.969115 69.02618 
L 104.297698 54.96781 
L 104.629844 55.366145 
L 104.96199 55.085268 
L 105.294136 53.114021 
L 106.290574 54.889057 
L 106.954866 59.445448 
L 107.287012 66.922424 
L 107.619158 64.201545 
L 109.279887 66.413082 
L 109.612033 63.448955 
L 109.944179 64.242131 
L 110.940617 64.606599 
L 111.272763 65.425577 
L 111.604909 71.736577 
L 111.937055 65.554862 
L 114.594222 62.72862 
L 115.59066 63.980068 
L 115.922806 70.221722 
L 116.254952 64.37034 
L 116.587098 64.684814 
L 116.919244 62.679432 
L 117.915682 64.452587 
L 118.247828 60.427577 
L 118.579974 61.704829 
L 118.912119 61.903459 
L 119.244265 60.614381 
L 120.240703 57.821737 
L 120.572849 59.001689 
L 121.237141 67.280173 
L 121.569287 61.728213 
L 122.565725 61.052227 
L 122.897871 63.720156 
L 123.230017 63.97523 
L 123.562162 58.935838 
L 123.894308 61.426102 
L 124.890746 60.183255 
L 125.222892 58.488047 
L 125.555038 59.99457 
L 125.887184 55.052745 
L 126.21933 54.901421 
L 127.547914 57.358088 
L 127.88006 54.745259 
L 128.212206 58.293449 
L 128.544351 53.634921 
L 129.540789 48.039687 
L 129.872935 49.532233 
L 130.205081 50.003408 
L 130.869373 52.971567 
L 131.865811 52.08378 
L 132.197957 52.472707 
L 132.530103 52.512487 
L 132.862249 53.283623 
L 133.194394 49.8838 
L 134.522978 55.121822 
L 135.18727 43.007821 
L 135.519416 43.983768 
L 136.515854 41.270952 
L 136.848 43.3059 
L 137.180146 46.277822 
L 137.512292 43.95017 
L 137.844438 50.542316 
L 138.840875 58.561962 
L 139.505167 52.590972 
L 139.837313 50.639615 
L 140.169459 54.768105 
L 141.165897 54.625113 
L 141.498043 51.34006 
L 141.830189 56.286992 
L 142.162335 52.459268 
L 142.494481 50.816473 
L 143.823064 52.591509 
L 144.15521 59.729013 
L 144.819502 64.623801 
L 145.81594 62.921874 
L 146.148086 67.857248 
L 146.480232 62.539397 
L 146.812378 70.142163 
L 147.144524 69.813442 
L 148.140961 64.088387 
L 148.473107 63.340636 
L 148.805253 68.291599 
L 149.137399 68.530546 
L 149.469545 73.066241 
L 150.465983 71.661856 
L 150.798129 82.356958 
L 151.130275 79.765631 
L 151.462421 90.018587 
L 151.794567 91.921025 
L 155.116026 88.464758 
L 155.448172 91.992252 
L 155.780318 86.458032 
L 156.112464 89.125424 
L 156.44461 94.707756 
L 157.441047 97.427023 
L 157.773193 91.448775 
L 158.105339 90.622808 
L 158.769631 88.383317 
L 159.766069 88.074756 
L 160.098215 92.752905 
L 160.430361 85.955948 
L 160.762507 93.95893 
L 161.094653 89.640142 
L 162.091091 88.489486 
L 162.423236 87.604925 
L 163.419674 100.188757 
L 164.416112 112.204116 
L 164.748258 121.04516 
L 165.080404 124.736342 
L 165.41255 117.646412 
L 165.744696 115.592381 
L 166.741134 125.906619 
L 167.073279 140.055031 
L 167.405425 127.591075 
L 167.737571 119.823009 
L 168.069717 118.78336 
L 169.066155 117.412841 
L 169.398301 119.048648 
L 169.730447 116.633105 
L 170.062593 119.40559 
L 170.394739 125.662027 
L 171.723323 130.436938 
L 172.055468 120.526411 
L 172.387614 124.438532 
L 172.71976 121.490532 
L 174.38049 122.96937 
L 174.712636 128.36893 
L 175.044782 128.711627 
L 176.04122 140.512766 
L 176.373366 134.164944 
L 176.705511 139.223688 
L 177.037657 135.287377 
L 177.369803 137.062682 
L 178.366241 135.909607 
L 178.698387 137.472574 
L 179.362679 152.229777 
L 179.694825 153.105469 
L 181.023409 175.819154 
L 181.355555 163.824492 
L 181.6877 164.469031 
L 182.019846 153.918803 
L 184.012722 153.248461 
L 184.344868 159.605153 
L 185.341306 160.794513 
L 185.673452 156.840462 
L 186.005598 151.552447 
L 186.337743 151.945137 
L 186.669889 150.200205 
L 187.666327 151.985454 
L 187.998473 148.308786 
L 188.330619 148.902257 
L 188.662765 147.77391 
L 188.994911 142.278126 
L 189.991349 142.454985 
L 190.323495 152.723261 
L 190.987787 148.936123 
L 191.319932 149.291722 
L 192.31637 146.155305 
L 192.648516 140.313599 
L 192.980662 139.67793 
L 194.641392 129.280101 
L 194.973538 129.34864 
L 195.305684 126.722909 
L 195.63783 132.708145 
L 195.969976 126.67211 
L 196.966413 127.635424 
L 197.298559 126.977446 
L 197.630705 123.914138 
L 197.962851 123.559346 
L 198.294997 118.716433 
L 199.291435 114.523704 
L 199.623581 116.224287 
L 199.955727 120.99006 
L 200.287873 113.781866 
L 200.620019 109.177631 
L 201.616456 105.427048 
L 201.948602 101.203947 
L 202.280748 108.896217 
L 202.612894 103.528642 
L 202.94504 104.491956 
L 203.941478 100.033133 
L 204.273624 101.46144 
L 204.60577 105.809794 
L 204.937916 102.462921 
L 206.266499 111.026851 
L 206.598645 115.810094 
L 206.930791 113.938834 
L 207.262937 111.415241 
L 207.595083 116.569672 
L 208.591521 113.300209 
L 208.923667 114.318355 
L 209.255813 112.212448 
L 209.587959 115.382193 
L 209.920105 117.026333 
L 210.916542 119.779466 
L 211.248688 116.635524 
L 211.580834 116.873933 
L 211.91298 116.093659 
L 212.245126 120.442551 
L 213.241564 116.4928 
L 213.57371 124.390957 
L 213.905856 128.093697 
L 214.238002 125.863882 
L 214.570148 120.381 
L 215.566585 119.495632 
L 215.898731 118.717777 
L 216.230877 121.609333 
L 216.563023 114.875808 
L 216.895169 116.344433 
L 218.223753 114.981171 
L 218.555899 111.611989 
L 218.888045 113.712251 
L 219.220191 117.979702 
L 220.216628 114.025113 
L 220.548774 115.383269 
L 220.88092 125.026089 
L 221.213066 124.82074 
L 221.545212 126.011981 
L 222.54165 127.12877 
L 222.873796 128.40199 
L 223.538088 135.347315 
L 223.870234 135.616097 
L 224.866672 136.25311 
L 225.198817 132.997624 
L 225.530963 131.673335 
L 225.863109 134.419211 
L 226.195255 130.901662 
L 227.523839 129.673866 
L 227.855985 133.670385 
L 228.520277 147.466424 
L 229.516715 148.93021 
L 229.84886 146.863815 
L 230.513152 151.4194 
L 230.845298 154.322782 
L 231.841736 155.501391 
L 232.173882 149.788162 
L 232.506028 157.190954 
L 232.838174 156.660378 
L 233.17032 160.445634 
L 236.491779 167.339622 
L 236.823925 165.842776 
L 237.156071 158.836437 
L 237.488217 159.395772 
L 237.820363 151.223458 
L 238.816801 150.133816 
L 239.148947 149.450034 
L 239.481092 153.762909 
L 240.145384 156.673011 
L 241.473968 164.176059 
L 241.806114 159.378033 
L 242.13826 161.210857 
L 242.470406 170.572531 
L 243.466844 170.701546 
L 243.79899 161.637951 
L 244.131136 157.787381 
L 244.463281 158.793969 
L 244.795427 149.457291 
L 245.791865 148.911664 
L 246.124011 150.653371 
L 246.456157 153.008976 
L 246.788303 156.953082 
L 247.120449 150.738306 
L 248.116887 151.445471 
L 248.449033 145.051956 
L 248.781179 148.163644 
L 249.113325 148.542895 
L 249.44547 149.645439 
L 250.441908 150.880761 
L 250.774054 154.416318 
L 251.1062 155.225889 
L 251.438346 155.659435 
L 251.770492 157.068121 
L 252.76693 159.089092 
L 253.099076 152.102643 
L 253.431222 151.578787 
L 253.763368 147.394928 
L 254.095513 148.587513 
L 255.091951 145.804007 
L 255.424097 143.77551 
L 255.756243 143.239559 
L 256.088389 144.01822 
L 256.420535 141.013507 
L 257.416973 143.767178 
L 257.749119 145.7946 
L 258.081265 145.8454 
L 258.413411 144.869721 
L 259.741994 151.143361 
L 260.07414 155.862634 
L 261.070578 158.536476 
L 262.067016 155.059782 
L 262.399162 151.632544 
L 262.731308 154.212044 
L 263.063454 154.591564 
L 263.3956 154.065289 
L 264.724183 151.346828 
L 265.056329 151.931698 
L 265.388475 145.571242 
L 265.720621 144.611153 
L 266.717059 142.395853 
L 267.049205 140.873472 
L 267.381351 142.683718 
L 267.713497 141.97709 
L 268.045643 138.306336 
L 269.04208 133.374993 
L 269.706372 132.705995 
L 270.038518 129.948293 
L 270.370664 128.137778 
L 273.692123 124.989266 
L 274.024269 127.583012 
L 274.356415 123.365017 
L 274.688561 124.090459 
L 275.020707 126.157392 
L 276.017145 129.967107 
L 276.349291 129.582212 
L 276.681437 131.555609 
L 277.013583 126.319468 
L 277.345729 128.239108 
L 278.342166 124.563247 
L 278.674312 125.065062 
L 279.006458 125.88646 
L 279.67075 135.256467 
L 280.667188 128.849781 
L 280.999334 128.460853 
L 281.33148 130.301472 
L 281.663626 130.726685 
L 281.995772 133.329838 
L 282.992209 135.627924 
L 283.324355 133.427943 
L 283.656501 129.919802 
L 283.988647 131.661777 
L 284.320793 131.597001 
L 285.317231 131.83998 
L 285.649377 138.13754 
L 285.981523 138.414117 
L 286.313669 138.905988 
L 286.645815 142.600396 
L 287.642253 140.921046 
L 287.974398 143.298422 
L 288.306544 143.38282 
L 288.63869 148.106125 
L 288.970836 147.02159 
L 289.967274 147.852663 
L 290.29942 143.011363 
L 290.631566 141.138491 
L 290.963712 138.22597 
L 291.295858 137.448384 
L 292.292296 137.079615 
L 292.624442 139.323675 
L 292.956587 138.908138 
L 293.620879 134.970752 
L 294.617317 130.589069 
L 294.949463 131.393802 
L 295.613755 131.210224 
L 295.945901 128.483969 
L 296.942339 131.059168 
L 297.60663 130.747919 
L 297.938776 134.609509 
L 298.270922 132.990098 
L 299.26736 131.501315 
L 299.599506 131.369074 
L 299.931652 134.060387 
L 300.263798 135.216418 
L 300.595944 142.388327 
L 301.592382 145.974415 
L 301.924528 150.489952 
L 302.588819 148.662503 
L 302.920965 145.392234 
L 304.913841 147.13394 
L 305.245987 149.633612 
L 306.242425 148.426782 
L 306.574571 151.13476 
L 306.906717 150.727017 
L 307.238862 150.664122 
L 307.571008 154.343478 
L 308.567446 149.694088 
L 308.899592 151.827142 
L 309.563884 152.391046 
L 310.892468 151.080466 
L 311.55676 156.636457 
L 311.888906 157.274814 
L 312.221051 156.923516 
L 313.217489 159.276971 
L 313.549635 158.001331 
L 313.881781 160.036011 
L 314.213927 158.905783 
L 314.546073 154.546946 
L 315.542511 155.944343 
L 315.874657 160.584326 
L 316.206803 162.321463 
L 316.538949 161.943825 
L 316.871094 160.03386 
L 317.867532 157.888712 
L 318.199678 155.678787 
L 318.531824 154.910071 
L 318.86397 149.577975 
L 319.196116 146.256099 
L 320.192554 147.129102 
L 320.5247 146.287815 
L 320.856846 152.919203 
L 322.517575 157.927416 
L 322.849721 155.084241 
L 323.181867 156.475456 
L 323.514013 156.766279 
L 323.846159 153.78038 
L 324.842597 152.034104 
L 325.174743 150.992843 
L 325.506889 153.70754 
L 326.171181 157.490646 
L 327.167618 156.031698 
L 327.499764 153.724205 
L 327.83191 156.665217 
L 328.164056 151.929816 
L 328.496202 152.336215 
L 329.49264 154.216613 
L 330.156932 156.305318 
L 330.489078 159.433402 
L 330.821224 159.59709 
L 331.817661 161.27402 
L 332.149807 153.922834 
L 332.814099 156.543996 
L 333.146245 151.796501 
L 334.142683 149.551903 
L 334.806975 151.695439 
L 335.471267 148.096449 
L 336.467704 150.596927 
L 337.131996 153.434726 
L 337.464142 153.145248 
L 337.796288 159.6323 
L 338.792726 161.076466 
L 339.457018 165.795739 
L 339.789164 164.049731 
L 340.12131 169.049344 
L 341.117747 172.76176 
L 341.449893 171.301199 
L 341.782039 177.271652 
L 342.114185 174.48734 
L 342.446331 177.866466 
L 343.442769 175.106614 
L 343.774915 169.144224 
L 344.107061 168.404536 
L 344.439207 170.132535 
L 345.767791 164.930798 
L 346.099936 166.839956 
L 346.432082 167.52535 
L 346.764228 172.733538 
L 347.096374 173.796839 
L 348.092812 171.095581 
L 348.424958 171.321089 
L 348.757104 174.495941 
L 349.421396 177.486946 
L 350.417834 175.996551 
L 351.414271 181.865942 
L 351.746417 176.569056 
L 352.742855 178.131217 
L 353.075001 179.756541 
L 353.407147 178.569331 
L 353.739293 178.429296 
L 357.392898 178.498373 
L 357.725044 180.028279 
L 358.05719 179.091574 
L 358.389336 176.844558 
L 358.721482 179.538021 
L 359.71792 183.391279 
L 360.050066 182.980043 
L 361.046503 192.921211 
L 362.042941 196.801885 
L 362.707233 194.051439 
L 363.039379 193.035712 
L 363.371525 187.532671 
L 364.367963 183.308763 
L 364.700109 185.034074 
L 365.032255 186.030449 
L 365.3644 188.502167 
L 365.696546 185.300437 
L 366.692984 179.449861 
L 367.02513 179.854915 
L 367.357276 179.973179 
L 367.689422 180.510743 
L 368.021568 181.95007 
L 369.018006 181.673494 
L 369.350152 181.223822 
L 369.682298 179.27784 
L 370.014443 182.59891 
L 370.346589 181.91916 
L 371.343027 180.763129 
L 371.675173 181.45148 
L 372.007319 185.252863 
L 372.339465 183.173566 
L 372.671611 185.686677 
L 373.668049 187.136755 
L 374.000195 185.849559 
L 374.332341 188.243599 
L 374.664487 188.713161 
L 374.996632 188.883838 
L 375.99307 190.500024 
L 376.325216 195.60903 
L 376.657362 193.918661 
L 376.989508 194.277216 
L 377.321654 193.363089 
L 378.318092 191.248044 
L 378.650238 191.445598 
L 378.982384 195.440773 
L 379.31453 197.017179 
L 380.643113 200.741959 
L 380.975259 200.474521 
L 381.307405 203.992876 
L 381.639551 201.341343 
L 381.971697 202.303044 
L 382.968135 201.363114 
L 383.300281 204.024861 
L 383.632427 203.097833 
L 383.964573 196.39683 
L 384.296719 194.148738 
L 385.625302 197.463895 
L 385.957448 199.358538 
L 386.62174 205.121761 
L 387.618178 209.656649 
L 387.950324 209.011573 
L 388.28247 210.326723 
L 388.614616 206.80326 
L 388.946762 208.351982 
L 389.943199 209.220954 
L 390.275345 208.464601 
L 390.607491 214.708674 
L 390.939637 212.363821 
L 391.271783 213.975975 
L 392.268221 222.240213 
L 393.264659 212.116004 
L 393.596805 214.639597 
L 394.593242 219.492993 
L 395.257534 229.408896 
L 395.58968 228.665983 
L 395.921826 233.630654 
L 396.918264 236.078182 
L 397.25041 222.755468 
L 397.582556 216.093439 
L 397.914702 213.073405 
L 401.900453 210.779083 
L 402.564745 207.075536 
L 402.896891 206.385573 
L 403.893328 206.475078 
L 404.225474 201.005903 
L 404.55762 206.985494 
L 404.889766 199.369827 
L 405.221912 196.566163 
L 406.21835 196.472358 
L 406.882642 197.6171 
L 407.214788 201.071754 
L 407.546934 198.33206 
L 408.875517 191.303413 
L 409.207663 191.990419 
L 409.539809 193.322771 
L 409.871955 191.781845 
L 410.868393 188.016747 
L 411.200539 189.525689 
L 411.532685 188.969848 
L 411.864831 189.906822 
L 412.196977 193.050226 
L 413.193415 196.892464 
L 413.52556 196.171591 
L 413.857706 202.271866 
L 414.189852 199.034387 
L 414.521998 197.477334 
L 415.518436 190.859385 
L 416.182728 193.609024 
L 417.843458 197.645054 
L 418.175604 196.183686 
L 418.507749 200.242831 
L 418.839895 200.167303 
L 419.172041 202.117047 
L 420.168479 198.314589 
L 420.500625 204.083456 
L 420.832771 197.99017 
L 421.164917 198.123485 
L 421.497063 200.740077 
L 422.493501 201.823806 
L 422.825647 203.328985 
L 423.157792 201.501537 
L 423.489938 201.142713 
L 423.822084 195.782395 
L 424.818522 190.142006 
L 425.150668 192.470733 
L 427.143544 187.307701 
L 427.47569 187.529983 
L 427.807836 191.08113 
L 428.139981 187.06956 
L 428.472127 188.597047 
L 429.468565 190.153832 
L 429.800711 190.277203 
L 430.132857 192.566957 
L 430.465003 192.013535 
L 430.797149 189.18353 
L 431.793587 188.070772 
L 432.125733 189.929668 
L 432.457879 189.623526 
L 433.12217 196.839514 
L 434.118608 194.604055 
L 434.450754 197.74074 
L 434.7829 197.097545 
L 435.447192 198.457581 
L 436.44363 198.293087 
L 436.775776 195.636984 
L 437.772213 201.379241 
L 439.100797 201.199963 
L 439.432943 200.995958 
L 439.765089 202.708099 
L 440.097235 201.471433 
L 441.093673 200.691966 
L 441.425819 199.691559 
L 441.757965 202.363252 
L 442.090111 206.400894 
L 442.422257 206.508675 
L 443.418694 210.289631 
L 443.75084 212.275392 
L 444.082986 208.59281 
L 444.415132 212.29125 
L 444.747278 212.318128 
L 445.743716 210.961586 
L 446.075862 213.286549 
L 446.408008 214.690666 
L 446.740154 217.018318 
L 447.0723 216.434523 
L 448.068737 220.02545 
L 448.400883 216.155259 
L 448.733029 216.389637 
L 449.065175 211.735946 
L 450.393759 213.583553 
L 450.725905 211.556938 
L 451.058051 212.682596 
L 451.390197 211.494849 
L 451.722343 210.85246 
L 452.71878 211.75046 
L 453.050926 218.825876 
L 453.383072 221.876013 
L 453.715218 222.370572 
L 454.047364 219.0788 
L 455.043802 221.296788 
L 455.375948 222.535067 
L 455.708094 214.861074 
L 456.04024 217.025037 
L 456.372386 220.251227 
L 457.368823 224.51142 
L 457.700969 222.661932 
L 458.033115 223.045752 
L 458.365261 223.136332 
L 458.697407 224.547706 
L 459.693845 225.091452 
L 460.025991 224.130556 
L 460.358137 226.770532 
L 460.690283 225.181494 
L 461.022429 225.725777 
L 462.018866 225.536823 
L 462.351012 228.332962 
L 462.683158 228.954386 
L 463.015304 230.770545 
L 463.34745 230.23997 
L 464.343888 229.89781 
L 464.676034 232.340769 
L 465.00818 233.011111 
L 465.340326 230.978582 
L 465.672472 225.763138 
L 466.668909 230.500957 
L 467.001055 227.924951 
L 467.333201 229.048728 
L 467.665347 228.419241 
L 467.997493 231.614789 
L 468.993931 233.429067 
L 469.326077 233.145233 
L 469.658223 232.297226 
L 469.990369 233.671777 
L 470.322515 235.571797 
L 471.983244 235.337956 
L 472.31539 232.775121 
L 472.647536 233.110023 
L 473.643974 232.888547 
L 473.97612 223.418822 
L 474.308266 220.67644 
L 474.640412 210.491755 
L 474.972558 194.412951 
L 475.968996 167.134273 
L 478.626163 141.187678 
L 478.958309 166.380339 
L 479.290455 168.711485 
L 479.622601 179.740683 
L 480.619039 172.573344 
L 480.951185 179.585327 
L 481.615476 184.28256 
L 481.947622 171.759472 
L 482.94406 168.716054 
L 483.276206 166.334646 
L 483.608352 165.880405 
L 483.940498 169.499822 
L 484.272644 164.712816 
L 485.269082 162.93778 
L 485.601228 166.769536 
L 485.933374 167.104975 
L 486.265519 165.482339 
L 486.597665 169.130247 
L 487.594103 163.550334 
L 487.926249 154.308537 
L 488.258395 155.35141 
L 488.590541 148.153968 
L 488.922687 150.148867 
L 489.919125 144.051012 
L 490.251271 146.042955 
L 490.583417 144.838005 
L 491.247708 161.242304 
L 492.244146 166.75099 
L 492.576292 161.380189 
L 492.908438 159.139892 
L 493.240584 159.336371 
L 493.57273 169.581263 
L 494.569168 170.070447 
L 494.901314 172.416644 
L 495.23346 166.157519 
L 495.565606 169.747371 
L 495.897751 164.931336 
L 496.894189 161.038567 
L 497.226335 162.193523 
L 497.558481 165.138567 
L 497.890627 164.31932 
L 498.222773 160.103475 
L 499.219211 161.707566 
L 499.551357 159.532582 
L 499.883503 158.569268 
L 500.215649 155.647339 
L 500.547794 162.207231 
L 501.876378 166.928117 
L 502.208524 165.669142 
L 502.54067 163.928511 
L 502.872816 163.993287 
L 503.869254 166.928923 
L 504.2014 163.326439 
L 504.533546 165.163026 
L 504.865692 163.258168 
L 505.197838 163.634194 
L 506.194275 163.333696 
L 506.526421 170.229297 
L 507.522859 184.138493 
L 508.519297 184.446786 
L 508.851443 181.406593 
L 509.183589 182.861241 
L 509.515735 182.018341 
L 509.847881 186.858028 
L 510.844318 186.851578 
L 511.176464 176.933793 
L 511.50861 179.757079 
L 511.840756 178.655879 
L 512.172902 177.037274 
L 513.16934 174.481696 
L 513.501486 173.156869 
L 513.833632 175.302287 
L 514.165778 176.638133 
L 514.497924 173.505211 
L 515.494361 177.178385 
L 518.483675 176.959327 
L 519.147967 165.891425 
L 520.144404 164.406405 
L 520.47655 166.385446 
L 520.808696 162.319851 
L 521.140842 164.530851 
L 521.472988 161.229134 
L 522.469426 160.111001 
L 522.801572 164.782431 
L 523.133718 160.605828 
L 523.465864 160.017196 
L 523.79801 154.72703 
L 524.794447 154.950925 
L 525.126593 158.405848 
L 525.458739 155.687119 
L 525.790885 156.443471 
L 526.123031 164.944238 
L 527.119469 163.913459 
L 527.783761 162.304261 
L 528.115907 157.216488 
L 528.448053 158.695326 
L 529.44449 159.17994 
L 529.776636 158.22684 
L 530.108782 158.708766 
L 530.440928 161.585807 
L 530.773074 155.078328 
L 531.769512 155.628793 
L 532.101658 154.098618 
L 532.433804 155.058169 
L 532.76595 157.734162 
L 533.098096 162.893163 
L 534.094534 162.67975 
L 534.426679 163.927167 
L 534.758825 164.068546 
L 535.090971 163.415943 
L 535.423117 165.049331 
L 536.419555 167.817785 
L 536.751701 167.835794 
L 537.083847 167.581526 
L 537.415993 171.543103 
L 538.744577 198.454356 
L 539.076723 196.836826 
L 539.408868 193.74019 
L 539.741014 187.968098 
L 540.07316 185.823218 
L 541.069598 184.483071 
L 541.401744 185.18728 
L 541.73389 187.428115 
L 542.066036 187.849565 
L 542.398182 187.242118 
L 542.398182 187.242118 
" clip-path="url(#pcdc8c253ab)" style="fill: none; stroke: #0000ff; stroke-width: 1.5; stroke-linecap: square"/>
   </g>
   <g id="line2d_18">
    <path d="M 86.361818 41.086342 
L 86.693964 40.179885 
L 87.690402 42.065033 
L 88.354694 41.224302 
L 89.018986 36.841818 
L 90.015423 38.281166 
L 90.347569 43.007502 
L 90.679715 50.022212 
L 91.011861 52.739561 
L 91.344007 48.765945 
L 92.340445 48.066089 
L 92.672591 44.834143 
L 93.004737 44.956644 
L 93.336883 42.881353 
L 93.669029 43.86624 
L 94.665466 44.990793 
L 94.997612 46.358405 
L 95.329758 45.808163 
L 95.661904 46.03206 
L 95.99405 47.433952 
L 96.990488 49.128302 
L 97.322634 51.170179 
L 97.65478 55.808478 
L 97.986926 56.002164 
L 98.319072 55.851551 
L 99.31551 58.5894 
L 99.979801 54.327946 
L 100.311947 53.260011 
L 100.644093 55.53778 
L 101.640531 55.765379 
L 101.972677 55.684061 
L 102.304823 56.146713 
L 102.636969 56.403814 
L 102.969115 57.129972 
L 103.965553 58.329254 
L 104.629844 52.693548 
L 104.96199 51.8572 
L 105.294136 51.447491 
L 106.290574 50.670832 
L 106.62272 51.053085 
L 106.954866 51.74911 
L 107.287012 52.939546 
L 107.619158 55.955573 
L 109.279887 55.137363 
L 109.612033 55.742385 
L 109.944179 54.111661 
L 110.940617 53.528583 
L 111.272763 53.063936 
L 111.604909 53.258383 
L 111.937055 56.089255 
L 114.594222 54.283902 
L 115.59066 53.232371 
L 115.922806 53.66069 
L 116.254952 56.534977 
L 116.587098 55.5708 
L 116.919244 56.779059 
L 117.915682 56.790556 
L 118.247828 57.848648 
L 118.579974 56.844837 
L 118.912119 56.93017 
L 119.244265 56.839929 
L 120.240703 56.058781 
L 120.904995 53.456636 
L 121.237141 53.903486 
L 121.569287 55.0556 
L 122.897871 52.11501 
L 123.230017 52.574617 
L 123.562162 52.805103 
L 123.894308 51.073165 
L 124.890746 50.944024 
L 125.222892 50.43948 
L 125.555038 49.724951 
L 125.887184 54.293692 
L 126.21933 54.208281 
L 127.215768 54.566937 
L 127.547914 55.370421 
L 127.88006 55.786981 
L 128.212206 54.341595 
L 128.544351 54.232639 
L 129.540789 52.009099 
L 129.872935 48.7755 
L 130.537227 47.022144 
L 130.869373 47.186904 
L 131.865811 47.245464 
L 132.530103 45.957725 
L 133.194394 47.793737 
L 134.190832 47.005844 
L 134.855124 49.536069 
L 135.18727 47.440856 
L 135.519416 43.709249 
L 136.515854 43.031572 
L 136.848 41.593982 
L 137.180146 42.104983 
L 137.512292 43.294212 
L 137.844438 43.059579 
L 138.840875 44.346766 
L 139.173021 47.203703 
L 139.505167 46.485026 
L 140.169459 43.412854 
L 141.165897 44.710357 
L 141.498043 45.399399 
L 141.830189 44.719307 
L 142.162335 46.758087 
L 142.494481 45.740127 
L 143.823064 44.781909 
L 144.15521 45.588019 
L 144.819502 51.505395 
L 146.148086 54.459083 
L 146.480232 57.448704 
L 146.812378 52.443612 
L 147.144524 54.492707 
L 148.140961 56.062036 
L 148.473107 55.157916 
L 148.805253 55.412943 
L 149.137399 58.343821 
L 150.798129 62.169082 
L 151.130275 67.099104 
L 151.462421 67.578528 
L 151.794567 72.323317 
L 155.116026 74.709176 
L 155.448172 74.404697 
L 155.780318 76.88799 
L 156.112464 75.571588 
L 156.44461 76.940696 
L 157.441047 80.169334 
L 157.773193 83.017005 
L 158.105339 82.222104 
L 158.437485 82.502724 
L 158.769631 82.011593 
L 159.766069 82.412692 
L 160.098215 83.046429 
L 160.430361 85.66078 
L 160.762507 83.73038 
L 161.094653 86.142251 
L 162.091091 85.007488 
L 162.423236 84.918769 
L 162.755382 85.262306 
L 163.419674 90.096942 
L 164.416112 93.256783 
L 165.080404 105.27984 
L 165.41255 109.000947 
L 165.744696 106.815572 
L 166.741134 106.104323 
L 167.073279 110.808427 
L 167.405425 118.693476 
L 167.737571 115.580592 
L 168.069717 110.500745 
L 169.398301 108.5368 
L 169.730447 109.738339 
L 170.062593 109.446275 
L 170.394739 110.947753 
L 171.391177 114.368711 
L 171.723323 117.25544 
L 172.055468 119.111111 
L 172.387614 115.618311 
L 172.71976 116.276354 
L 174.38049 115.931321 
L 174.712636 116.765306 
L 175.044782 119.303065 
L 176.04122 120.431817 
L 176.373366 124.151507 
L 176.705511 122.923457 
L 177.037657 124.773276 
L 177.369803 123.907661 
L 178.698387 124.96116 
L 179.030533 126.772236 
L 179.694825 136.485028 
L 180.691263 139.42672 
L 181.023409 149.274087 
L 181.355555 154.675213 
L 181.6877 151.14619 
L 182.019846 150.683407 
L 184.012722 145.515156 
L 184.344868 144.333093 
L 185.341306 147.231581 
L 185.673452 148.830361 
L 186.005598 148.10003 
L 186.337743 145.688368 
L 186.669889 145.135712 
L 187.666327 144.565416 
L 187.998473 145.152563 
L 188.330619 144.187862 
L 188.994911 144.250437 
L 190.323495 140.258973 
L 190.655641 143.586095 
L 190.987787 143.886584 
L 191.319932 143.43837 
L 192.31637 143.049161 
L 192.648516 141.447756 
L 192.980662 138.618222 
L 193.312808 137.886238 
L 194.641392 136.952116 
L 194.973538 133.026902 
L 195.63783 129.237602 
L 195.969976 130.564739 
L 197.298559 123.749096 
L 197.630705 122.796468 
L 197.962851 120.44712 
L 198.294997 119.330021 
L 199.291435 117.015478 
L 199.623581 113.27017 
L 199.955727 111.898962 
L 200.287873 112.659925 
L 200.620019 109.197389 
L 201.616456 105.259235 
L 202.280748 97.904637 
L 202.612894 99.451367 
L 202.94504 97.268458 
L 203.941478 96.990673 
L 204.273624 94.874908 
L 204.60577 94.608252 
L 204.937916 96.404235 
L 205.270062 95.474864 
L 206.266499 96.122749 
L 206.930791 102.322057 
L 207.262937 102.56824 
L 207.595083 101.437019 
L 208.591521 103.218277 
L 208.923667 102.623676 
L 209.255813 103.429103 
L 209.587959 102.987686 
L 209.920105 104.556202 
L 210.916542 106.054058 
L 211.248688 108.142157 
L 211.580834 107.734627 
L 211.91298 108.064883 
L 212.245126 107.762424 
L 213.241564 109.716107 
L 213.57371 108.796815 
L 214.238002 114.725556 
L 214.570148 114.901472 
L 216.230877 111.924922 
L 216.563023 112.663258 
L 216.895169 109.47499 
L 217.891607 108.633078 
L 218.223753 107.734837 
L 218.555899 107.257566 
L 218.888045 105.949354 
L 220.216628 108.827289 
L 220.548774 108.047165 
L 220.88092 108.628248 
L 221.213066 112.861144 
L 221.545212 114.12644 
L 222.54165 115.2175 
L 223.205942 117.669479 
L 223.870234 121.802028 
L 224.866672 122.55782 
L 225.198817 123.209983 
L 225.530963 122.142861 
L 225.863109 121.547604 
L 226.195255 122.935768 
L 227.855985 118.215653 
L 228.188131 120.870845 
L 228.520277 125.607838 
L 229.516715 131.011562 
L 229.84886 133.955932 
L 230.181006 134.561453 
L 230.845298 138.454328 
L 231.841736 140.839033 
L 232.173882 142.246437 
L 232.506028 140.087021 
L 232.838174 143.024487 
L 233.17032 143.59851 
L 236.491779 145.973345 
L 236.823925 149.34417 
L 237.156071 149.027223 
L 237.488217 145.375174 
L 237.820363 144.06901 
L 238.816801 138.781723 
L 239.148947 136.40799 
L 239.481092 135.281625 
L 240.145384 138.518007 
L 241.141822 139.645919 
L 241.473968 142.720585 
L 241.806114 144.396483 
L 242.13826 142.994932 
L 242.470406 143.630087 
L 243.466844 148.416295 
L 243.79899 150.574609 
L 244.463281 142.802952 
L 244.795427 142.148242 
L 246.124011 136.31557 
L 246.456157 137.027789 
L 246.788303 136.246852 
L 247.120449 138.013857 
L 248.449033 133.976563 
L 248.781179 130.552402 
L 249.113325 130.942083 
L 249.44547 132.301821 
L 250.441908 133.625913 
L 250.774054 135.181935 
L 251.1062 137.60399 
L 251.438346 139.080139 
L 251.770492 139.931159 
L 252.76693 141.242285 
L 253.099076 143.145597 
L 253.431222 140.526522 
L 253.763368 138.994097 
L 254.095513 135.281783 
L 255.091951 134.260858 
L 255.756243 130.680231 
L 256.088389 129.911026 
L 256.420535 130.043029 
L 257.416973 128.055539 
L 257.749119 128.623393 
L 258.081265 129.738969 
L 258.413411 130.191541 
L 258.745557 130.015704 
L 259.741994 130.718238 
L 260.738432 139.532816 
L 261.070578 140.859979 
L 262.067016 141.782578 
L 262.399162 140.639205 
L 262.731308 138.893881 
L 263.3956 140.287741 
L 264.724183 140.380713 
L 265.056329 138.58095 
L 265.388475 137.550785 
L 265.720621 133.660141 
L 266.717059 131.457677 
L 267.381351 128.026797 
L 267.713497 127.689507 
L 268.045643 127.667826 
L 269.04208 125.484262 
L 269.374226 121.779087 
L 269.706372 119.570797 
L 270.370664 116.667742 
L 273.692123 115.228945 
L 274.024269 112.561573 
L 274.356415 113.182659 
L 274.688561 110.921609 
L 275.020707 110.41032 
L 276.017145 111.609129 
L 276.349291 114.217574 
L 276.681437 115.140094 
L 277.013583 116.429854 
L 277.345729 114.464465 
L 278.342166 116.575558 
L 278.674312 115.744381 
L 279.006458 116.04285 
L 279.338604 116.857464 
L 279.67075 118.92173 
L 280.667188 122.421644 
L 280.999334 121.166164 
L 281.33148 121.06503 
L 281.995772 123.030655 
L 282.992209 124.829683 
L 283.324355 126.716144 
L 283.656501 126.332578 
L 283.988647 125.124739 
L 284.320793 125.493238 
L 285.317231 125.587102 
L 285.649377 126.003137 
L 285.981523 128.96378 
L 286.313669 129.975755 
L 286.645815 127.389805 
L 287.642253 128.240169 
L 287.974398 127.567243 
L 288.306544 128.744844 
L 288.63869 129.274822 
L 288.970836 132.10698 
L 289.967274 132.945086 
L 290.29942 133.791907 
L 290.963712 130.857695 
L 291.295858 129.466539 
L 292.292296 128.972993 
L 292.624442 129.071293 
L 292.956587 130.32294 
L 293.288733 130.856724 
L 293.620879 130.657395 
L 294.617317 129.768945 
L 294.949463 127.39201 
L 295.613755 127.054483 
L 295.945901 127.03233 
L 296.942339 125.904575 
L 297.274485 126.394235 
L 297.938776 124.514048 
L 298.270922 125.577941 
L 299.26736 124.89995 
L 299.599506 123.922465 
L 299.931652 123.473647 
L 300.263798 124.488823 
L 301.592382 129.634816 
L 302.256674 135.856882 
L 302.588819 136.530753 
L 302.920965 136.555977 
L 305.245987 134.827741 
L 306.242425 135.709892 
L 306.574571 135.324672 
L 306.906717 136.244489 
L 307.238862 136.360874 
L 307.571008 135.761312 
L 308.567446 137.137533 
L 308.899592 135.454418 
L 309.89603 137.528501 
L 310.892468 137.853821 
L 311.224614 138.318074 
L 312.221051 144.103841 
L 313.217489 144.701041 
L 313.549635 146.03033 
L 313.881781 146.047785 
L 314.213927 146.270449 
L 314.546073 144.962578 
L 315.542511 141.981645 
L 315.874657 141.471747 
L 316.538949 144.928403 
L 316.871094 145.673905 
L 317.867532 144.150143 
L 318.531824 141.065188 
L 318.86397 140.119779 
L 319.196116 137.309144 
L 320.192554 134.892469 
L 320.856846 135.209968 
L 322.517575 138.754162 
L 322.849721 142.687066 
L 323.181867 142.992045 
L 323.514013 144.174738 
L 323.846159 144.875093 
L 324.842597 144.070348 
L 325.506889 141.154169 
L 326.171181 142.530469 
L 327.167618 143.664446 
L 327.83191 140.62469 
L 328.164056 141.290503 
L 328.496202 139.185788 
L 329.49264 138.682898 
L 330.156932 140.187237 
L 330.489078 141.579496 
L 330.821224 143.923096 
L 331.817661 144.988197 
L 332.149807 146.368644 
L 332.481953 143.225864 
L 332.814099 142.718013 
L 333.146245 143.08436 
L 334.142683 141.011668 
L 334.474829 138.944803 
L 334.806975 138.127249 
L 335.139121 138.200797 
L 335.471267 137.636328 
L 336.467704 136.382949 
L 337.131996 137.768541 
L 337.464142 140.51408 
L 337.796288 142.146668 
L 338.792726 146.340296 
L 339.789164 154.182035 
L 341.117747 157.625829 
L 341.449893 159.973393 
L 341.782039 160.047255 
L 342.114185 162.612181 
L 342.446331 162.169032 
L 343.442769 163.586016 
L 343.774915 161.829852 
L 344.107061 158.471311 
L 344.439207 157.245283 
L 344.771353 158.253609 
L 345.767791 158.621976 
L 346.099936 157.204545 
L 346.432082 157.442512 
L 346.764228 157.879729 
L 347.096374 160.656057 
L 348.092812 162.426343 
L 348.424958 162.075037 
L 348.757104 162.194807 
L 349.421396 165.571275 
L 350.417834 167.040888 
L 350.749979 167.050075 
L 351.414271 169.80131 
L 351.746417 171.945686 
L 352.742855 170.58314 
L 353.075001 171.098603 
L 353.407147 172.172917 
L 353.739293 172.017369 
L 357.392898 171.898964 
L 357.725044 171.64181 
L 358.05719 171.902612 
L 358.389336 171.169053 
L 358.721482 169.472813 
L 359.71792 171.847491 
L 360.050066 174.653664 
L 360.382211 175.492058 
L 360.714357 177.48115 
L 361.046503 180.215901 
L 362.042941 182.198824 
L 362.375087 184.677891 
L 362.707233 184.473706 
L 363.371525 182.716308 
L 364.367963 179.552109 
L 364.700109 176.239424 
L 365.032255 175.810108 
L 365.3644 176.133145 
L 365.696546 177.448444 
L 366.692984 176.336333 
L 367.02513 172.92527 
L 367.357276 171.732419 
L 368.021568 170.709604 
L 369.350152 171.749926 
L 369.682298 171.587345 
L 370.014443 170.387564 
L 370.346589 171.533142 
L 371.343027 171.803446 
L 371.675173 171.426915 
L 372.007319 171.453846 
L 372.339465 173.292089 
L 372.671611 173.158748 
L 373.668049 174.513918 
L 374.000195 175.834178 
L 374.332341 175.78974 
L 374.664487 177.112099 
L 374.996632 177.899573 
L 375.99307 178.351515 
L 376.325216 179.351756 
L 376.657362 182.21977 
L 377.321654 182.434192 
L 378.318092 182.287307 
L 378.650238 181.440092 
L 378.982384 181.402032 
L 379.646675 185.090067 
L 380.643113 186.142359 
L 380.975259 187.991521 
L 381.307405 188.55234 
L 381.639551 190.632618 
L 381.971697 190.151462 
L 382.968135 190.379979 
L 383.300281 189.937696 
L 383.632427 191.207113 
L 383.964573 191.327041 
L 384.296719 187.946557 
L 385.625302 185.449012 
L 385.957448 186.020409 
L 386.289594 187.285627 
L 386.62174 189.481397 
L 387.618178 191.572856 
L 387.950324 194.967698 
L 388.614616 197.695808 
L 388.946762 196.745386 
L 389.943199 197.710245 
L 390.275345 198.743428 
L 390.607491 199.085285 
L 390.939637 202.464351 
L 391.271783 202.660951 
L 392.268221 202.97131 
L 392.600367 206.678164 
L 392.932513 205.896361 
L 393.264659 204.205607 
L 393.596805 200.982796 
L 394.593242 200.813075 
L 394.925388 203.224737 
L 395.58968 211.356309 
L 396.918264 215.956443 
L 397.25041 218.290541 
L 397.914702 204.404043 
L 401.568307 200.65884 
L 401.900453 198.496668 
L 402.232599 198.426874 
L 402.564745 197.968842 
L 402.896891 197.029733 
L 404.225474 196.584563 
L 404.55762 193.935538 
L 404.889766 192.752478 
L 405.221912 188.660247 
L 406.550496 186.10023 
L 406.882642 186.225172 
L 407.214788 186.478257 
L 407.546934 188.075987 
L 408.543372 187.29757 
L 408.875517 184.528407 
L 409.207663 182.733238 
L 409.539809 182.024588 
L 409.871955 182.587114 
L 410.868393 182.330485 
L 411.200539 180.437698 
L 411.532685 180.027071 
L 411.864831 179.843465 
L 413.193415 182.831695 
L 413.52556 185.837695 
L 413.857706 186.846336 
L 414.189852 190.45812 
L 414.521998 190.116656 
L 415.518436 189.273826 
L 415.850582 186.224726 
L 416.182728 185.684406 
L 417.843458 185.784359 
L 418.175604 187.503881 
L 418.507749 187.537557 
L 418.839895 189.394095 
L 419.172041 187.203811 
L 420.168479 187.518659 
L 420.500625 185.867802 
L 420.832771 188.358786 
L 421.164917 186.342606 
L 421.497063 186.152412 
L 422.493501 187.999841 
L 423.157792 191.390273 
L 423.822084 191.149945 
L 424.818522 188.123339 
L 425.150668 183.806082 
L 427.143544 183.519136 
L 427.47569 180.362733 
L 427.807836 179.290572 
L 428.139981 180.689734 
L 428.472127 179.022814 
L 429.468565 179.207365 
L 429.800711 179.912104 
L 430.132857 180.042531 
L 430.465003 181.162097 
L 430.797149 180.921637 
L 431.793587 179.106834 
L 432.125733 177.497529 
L 432.457879 177.767728 
L 432.790024 177.837522 
L 433.12217 179.922839 
L 434.118608 182.303265 
L 434.450754 182.313529 
L 434.7829 184.119722 
L 435.115046 184.604238 
L 435.447192 185.370897 
L 436.775776 186.073037 
L 437.107922 185.066732 
L 437.772213 187.102677 
L 439.100797 188.792669 
L 439.432943 189.517462 
L 440.097235 194.923207 
L 441.093673 195.304384 
L 441.425819 195.203906 
L 441.757965 194.695897 
L 442.090111 195.854547 
L 442.422257 198.131818 
L 443.418694 198.862332 
L 444.082986 201.852453 
L 444.415132 200.427016 
L 444.747278 201.497655 
L 445.743716 201.566294 
L 446.075862 201.213229 
L 447.0723 205.66346 
L 448.068737 206.15383 
L 448.400883 208.154418 
L 448.733029 206.787541 
L 449.065175 206.767592 
L 449.397321 204.316348 
L 450.393759 203.778706 
L 450.725905 204.631983 
L 451.058051 204.14395 
L 451.390197 204.498747 
L 451.722343 199.805983 
L 452.71878 194.354434 
L 453.050926 190.024368 
L 453.715218 189.231645 
L 455.375948 183.324164 
L 455.708094 182.779225 
L 456.04024 177.674258 
L 456.372386 176.221471 
L 457.368823 176.97658 
L 457.700969 179.146968 
L 458.033115 178.972601 
L 458.697407 179.757055 
L 459.693845 182.040022 
L 460.025991 183.662583 
L 460.358137 184.21999 
L 460.690283 185.826697 
L 461.022429 185.743359 
L 462.351012 186.040411 
L 463.34745 189.950978 
L 464.676034 190.631568 
L 465.340326 192.6725 
L 465.672472 192.138506 
L 466.668909 188.949922 
L 467.001055 190.551301 
L 467.333201 190.616029 
L 467.665347 191.519808 
L 467.997493 191.817595 
L 468.993931 193.540686 
L 469.326077 194.441604 
L 469.658223 194.928982 
L 469.990369 195.099674 
L 470.322515 196.299271 
L 471.983244 198.078035 
L 472.31539 199.053656 
L 472.647536 198.348654 
L 473.97612 198.297024 
L 475.968996 168.557196 
L 478.626163 147.106928 
L 478.958309 124.053549 
L 479.622601 128.781407 
L 480.619039 133.487086 
L 480.951185 130.247319 
L 481.28333 132.396866 
L 481.615476 138.078007 
L 481.947622 140.313622 
L 482.94406 134.073445 
L 483.608352 125.01783 
L 483.940498 122.670818 
L 484.272644 123.444354 
L 485.269082 121.305306 
L 485.601228 119.594971 
L 486.265519 120.989855 
L 486.597665 121.008202 
L 487.594103 122.884689 
L 487.926249 121.150573 
L 488.258395 116.58485 
L 488.590541 115.126813 
L 488.922687 111.337539 
L 489.919125 110.550643 
L 490.251271 107.320614 
L 490.583417 106.96369 
L 490.915562 106.440327 
L 491.247708 110.277504 
L 492.244146 115.292072 
L 492.576292 119.667285 
L 492.908438 118.674682 
L 493.240584 117.18247 
L 493.57273 116.664434 
L 494.569168 121.338248 
L 494.901314 123.468318 
L 495.23346 129.189594 
L 495.565606 127.425686 
L 495.897751 127.813582 
L 496.894189 125.040456 
L 497.226335 121.551882 
L 497.558481 120.368585 
L 497.890627 121.171178 
L 498.222773 121.134981 
L 499.219211 119.129774 
L 499.883503 113.289699 
L 500.547794 110.730443 
L 501.544232 113.702689 
L 501.876378 116.97713 
L 502.208524 118.991655 
L 502.54067 119.395222 
L 502.872816 119.02297 
L 503.869254 118.894327 
L 504.2014 120.206293 
L 504.533546 122.218666 
L 504.865692 126.368381 
L 505.197838 129.039952 
L 506.194275 132.142756 
L 506.526421 134.187048 
L 507.190713 139.055492 
L 507.522859 146.052773 
L 508.519297 151.820507 
L 508.851443 154.669858 
L 509.183589 154.792437 
L 509.847881 157.123465 
L 511.176464 160.914681 
L 511.50861 156.579995 
L 511.840756 155.844834 
L 512.172902 154.649752 
L 513.16934 153.379416 
L 513.833632 150.137182 
L 514.497924 151.370088 
L 515.494361 150.315827 
L 518.483675 151.502352 
L 518.815821 151.842556 
L 519.147967 149.099326 
L 520.144404 141.798091 
L 520.808696 130.726113 
L 521.140842 125.039459 
L 521.472988 122.17197 
L 522.469426 118.101053 
L 522.801572 115.05358 
L 523.133718 115.518883 
L 523.465864 113.637855 
L 525.126593 108.698725 
L 525.458739 109.944834 
L 525.790885 109.373357 
L 526.123031 109.70545 
L 527.451615 114.891629 
L 528.115907 123.415218 
L 528.448053 121.300818 
L 529.44449 120.082952 
L 529.776636 122.330667 
L 530.108782 125.599491 
L 530.440928 125.338085 
L 530.773074 125.351839 
L 531.769512 121.615193 
L 532.101658 123.213973 
L 532.433804 125.561563 
L 533.098096 132.851669 
L 534.094534 133.83939 
L 534.426679 132.282922 
L 535.423117 138.491076 
L 536.419555 140.764698 
L 536.751701 144.163293 
L 537.083847 146.039701 
L 537.415993 147.023485 
L 538.744577 149.645946 
L 539.076723 159.684085 
L 539.408868 159.599198 
L 539.741014 155.88376 
L 540.07316 147.956662 
L 541.069598 145.921951 
L 541.401744 146.377437 
L 541.73389 148.554991 
L 542.398182 154.671249 
L 542.398182 154.671249 
" clip-path="url(#pcdc8c253ab)" style="fill: none; stroke-dasharray: 5.55,2.4; stroke-dashoffset: 0; stroke: #ff0000; stroke-width: 1.5"/>
   </g>
   <g id="patch_3">
    <path d="M 63.56 246.04 
L 63.56 26.88 
" style="fill: none; stroke: #000000; stroke-width: 0.8; stroke-linejoin: miter; stroke-linecap: square"/>
   </g>
   <g id="patch_4">
    <path d="M 565.2 246.04 
L 565.2 26.88 
" style="fill: none; stroke: #000000; stroke-width: 0.8; stroke-linejoin: miter; stroke-linecap: square"/>
   </g>
   <g id="patch_5">
    <path d="M 63.56 246.04 
L 565.2 246.04 
" style="fill: none; stroke: #000000; stroke-width: 0.8; stroke-linejoin: miter; stroke-linecap: square"/>
   </g>
   <g id="patch_6">
    <path d="M 63.56 26.88 
L 565.2 26.88 
" style="fill: none; stroke: #000000; stroke-width: 0.8; stroke-linejoin: miter; stroke-linecap: square"/>
   </g>
   <g id="text_19">
    <!-- Real vs Predicted Stock Prices -->
    <g transform="translate(224.607812 20.88) scale(0.12 -0.12)">
     <defs>
      <path id="DejaVuSans-52" d="M 2841 2188 
Q 3044 2119 3236 1894 
Q 3428 1669 3622 1275 
L 4263 0 
L 3584 0 
L 2988 1197 
Q 2756 1666 2539 1819 
Q 2322 1972 1947 1972 
L 1259 1972 
L 1259 0 
L 628 0 
L 628 4666 
L 2053 4666 
Q 2853 4666 3247 4331 
Q 3641 3997 3641 3322 
Q 3641 2881 3436 2590 
Q 3231 2300 2841 2188 
z
M 1259 4147 
L 1259 2491 
L 2053 2491 
Q 2509 2491 2742 2702 
Q 2975 2913 2975 3322 
Q 2975 3731 2742 3939 
Q 2509 4147 2053 4147 
L 1259 4147 
z
" transform="scale(0.015625)"/>
      <path id="DejaVuSans-6c" d="M 603 4863 
L 1178 4863 
L 1178 0 
L 603 0 
L 603 4863 
z
" transform="scale(0.015625)"/>
      <path id="DejaVuSans-76" d="M 191 3500 
L 800 3500 
L 1894 563 
L 2988 3500 
L 3597 3500 
L 2284 0 
L 1503 0 
L 191 3500 
z
" transform="scale(0.015625)"/>
      <path id="DejaVuSans-73" d="M 2834 3397 
L 2834 2853 
Q 2591 2978 2328 3040 
Q 2066 3103 1784 3103 
Q 1356 3103 1142 2972 
Q 928 2841 928 2578 
Q 928 2378 1081 2264 
Q 1234 2150 1697 2047 
L 1894 2003 
Q 2506 1872 2764 1633 
Q 3022 1394 3022 966 
Q 3022 478 2636 193 
Q 2250 -91 1575 -91 
Q 1294 -91 989 -36 
Q 684 19 347 128 
L 347 722 
Q 666 556 975 473 
Q 1284 391 1588 391 
Q 1994 391 2212 530 
Q 2431 669 2431 922 
Q 2431 1156 2273 1281 
Q 2116 1406 1581 1522 
L 1381 1569 
Q 847 1681 609 1914 
Q 372 2147 372 2553 
Q 372 3047 722 3315 
Q 1072 3584 1716 3584 
Q 2034 3584 2315 3537 
Q 2597 3491 2834 3397 
z
" transform="scale(0.015625)"/>
      <path id="DejaVuSans-64" d="M 2906 2969 
L 2906 4863 
L 3481 4863 
L 3481 0 
L 2906 0 
L 2906 525 
Q 2725 213 2448 61 
Q 2172 -91 1784 -91 
Q 1150 -91 751 415 
Q 353 922 353 1747 
Q 353 2572 751 3078 
Q 1150 3584 1784 3584 
Q 2172 3584 2448 3432 
Q 2725 3281 2906 2969 
z
M 947 1747 
Q 947 1113 1208 752 
Q 1469 391 1925 391 
Q 2381 391 2643 752 
Q 2906 1113 2906 1747 
Q 2906 2381 2643 2742 
Q 2381 3103 1925 3103 
Q 1469 3103 1208 2742 
Q 947 2381 947 1747 
z
" transform="scale(0.015625)"/>
     </defs>
     <use xlink:href="#DejaVuSans-52"/>
     <use xlink:href="#DejaVuSans-65" transform="translate(64.982422 0)"/>
     <use xlink:href="#DejaVuSans-61" transform="translate(126.505859 0)"/>
     <use xlink:href="#DejaVuSans-6c" transform="translate(187.785156 0)"/>
     <use xlink:href="#DejaVuSans-20" transform="translate(215.568359 0)"/>
     <use xlink:href="#DejaVuSans-76" transform="translate(247.355469 0)"/>
     <use xlink:href="#DejaVuSans-73" transform="translate(306.535156 0)"/>
     <use xlink:href="#DejaVuSans-20" transform="translate(358.634766 0)"/>
     <use xlink:href="#DejaVuSans-50" transform="translate(390.421875 0)"/>
     <use xlink:href="#DejaVuSans-72" transform="translate(448.974609 0)"/>
     <use xlink:href="#DejaVuSans-65" transform="translate(487.837891 0)"/>
     <use xlink:href="#DejaVuSans-64" transform="translate(549.361328 0)"/>
     <use xlink:href="#DejaVuSans-69" transform="translate(612.837891 0)"/>
     <use xlink:href="#DejaVuSans-63" transform="translate(640.621094 0)"/>
     <use xlink:href="#DejaVuSans-74" transform="translate(695.601562 0)"/>
     <use xlink:href="#DejaVuSans-65" transform="translate(734.810547 0)"/>
     <use xlink:href="#DejaVuSans-64" transform="translate(796.333984 0)"/>
     <use xlink:href="#DejaVuSans-20" transform="translate(859.810547 0)"/>
     <use xlink:href="#DejaVuSans-53" transform="translate(891.597656 0)"/>
     <use xlink:href="#DejaVuSans-74" transform="translate(955.074219 0)"/>
     <use xlink:href="#DejaVuSans-6f" transform="translate(994.283203 0)"/>
     <use xlink:href="#DejaVuSans-63" transform="translate(1055.464844 0)"/>
     <use xlink:href="#DejaVuSans-6b" transform="translate(1110.445312 0)"/>
     <use xlink:href="#DejaVuSans-20" transform="translate(1168.355469 0)"/>
     <use xlink:href="#DejaVuSans-50" transform="translate(1200.142578 0)"/>
     <use xlink:href="#DejaVuSans-72" transform="translate(1258.695312 0)"/>
     <use xlink:href="#DejaVuSans-69" transform="translate(1299.808594 0)"/>
     <use xlink:href="#DejaVuSans-63" transform="translate(1327.591797 0)"/>
     <use xlink:href="#DejaVuSans-65" transform="translate(1382.572266 0)"/>
     <use xlink:href="#DejaVuSans-73" transform="translate(1444.095703 0)"/>
    </g>
   </g>
   <g id="legend_1">
    <g id="patch_7">
     <path d="M 446.476562 64.23625 
L 558.2 64.23625 
Q 560.2 64.23625 560.2 62.23625 
L 560.2 33.88 
Q 560.2 31.88 558.2 31.88 
L 446.476562 31.88 
Q 444.476562 31.88 444.476562 33.88 
L 444.476562 62.23625 
Q 444.476562 64.23625 446.476562 64.23625 
z
" style="fill: #ffffff; opacity: 0.8; stroke: #cccccc; stroke-linejoin: miter"/>
    </g>
    <g id="line2d_19">
     <path d="M 448.476562 39.978438 
L 458.476562 39.978438 
L 468.476562 39.978438 
" style="fill: none; stroke: #0000ff; stroke-width: 1.5; stroke-linecap: square"/>
    </g>
    <g id="text_20">
     <!-- Real Prices -->
     <g transform="translate(476.476562 43.478438) scale(0.1 -0.1)">
      <use xlink:href="#DejaVuSans-52"/>
      <use xlink:href="#DejaVuSans-65" transform="translate(64.982422 0)"/>
      <use xlink:href="#DejaVuSans-61" transform="translate(126.505859 0)"/>
      <use xlink:href="#DejaVuSans-6c" transform="translate(187.785156 0)"/>
      <use xlink:href="#DejaVuSans-20" transform="translate(215.568359 0)"/>
      <use xlink:href="#DejaVuSans-50" transform="translate(247.355469 0)"/>
      <use xlink:href="#DejaVuSans-72" transform="translate(305.908203 0)"/>
      <use xlink:href="#DejaVuSans-69" transform="translate(347.021484 0)"/>
      <use xlink:href="#DejaVuSans-63" transform="translate(374.804688 0)"/>
      <use xlink:href="#DejaVuSans-65" transform="translate(429.785156 0)"/>
      <use xlink:href="#DejaVuSans-73" transform="translate(491.308594 0)"/>
     </g>
    </g>
    <g id="line2d_20">
     <path d="M 448.476562 54.656563 
L 458.476562 54.656563 
L 468.476562 54.656563 
" style="fill: none; stroke-dasharray: 5.55,2.4; stroke-dashoffset: 0; stroke: #ff0000; stroke-width: 1.5"/>
    </g>
    <g id="text_21">
     <!-- Predicted Prices -->
     <g transform="translate(476.476562 58.156563) scale(0.1 -0.1)">
      <use xlink:href="#DejaVuSans-50"/>
      <use xlink:href="#DejaVuSans-72" transform="translate(58.552734 0)"/>
      <use xlink:href="#DejaVuSans-65" transform="translate(97.416016 0)"/>
      <use xlink:href="#DejaVuSans-64" transform="translate(158.939453 0)"/>
      <use xlink:href="#DejaVuSans-69" transform="translate(222.416016 0)"/>
      <use xlink:href="#DejaVuSans-63" transform="translate(250.199219 0)"/>
      <use xlink:href="#DejaVuSans-74" transform="translate(305.179688 0)"/>
      <use xlink:href="#DejaVuSans-65" transform="translate(344.388672 0)"/>
      <use xlink:href="#DejaVuSans-64" transform="translate(405.912109 0)"/>
      <use xlink:href="#DejaVuSans-20" transform="translate(469.388672 0)"/>
      <use xlink:href="#DejaVuSans-50" transform="translate(501.175781 0)"/>
      <use xlink:href="#DejaVuSans-72" transform="translate(559.728516 0)"/>
      <use xlink:href="#DejaVuSans-69" transform="translate(600.841797 0)"/>
      <use xlink:href="#DejaVuSans-63" transform="translate(628.625 0)"/>
      <use xlink:href="#DejaVuSans-65" transform="translate(683.605469 0)"/>
      <use xlink:href="#DejaVuSans-73" transform="translate(745.128906 0)"/>
     </g>
    </g>
   </g>
  </g>
 </g>
 <defs>
  <clipPath id="pcdc8c253ab">
   <rect x="63.56" y="26.88" width="501.64" height="219.16"/>
  </clipPath>
 </defs>
</svg>
