<?xml version="1.0" encoding="utf-8" standalone="no"?>
<!DOCTYPE svg PUBLIC "-//W3C//DTD SVG 1.1//EN"
  "http://www.w3.org/Graphics/SVG/1.1/DTD/svg11.dtd">
<svg xmlns:xlink="http://www.w3.org/1999/xlink" width="576pt" height="288pt" viewBox="0 0 576 288" xmlns="http://www.w3.org/2000/svg" version="1.1">
 <metadata>
  <rdf:RDF xmlns:dc="http://purl.org/dc/elements/1.1/" xmlns:cc="http://creativecommons.org/ns#" xmlns:rdf="http://www.w3.org/1999/02/22-rdf-syntax-ns#">
   <cc:Work>
    <dc:type rdf:resource="http://purl.org/dc/dcmitype/StillImage"/>
    <dc:date>2025-05-01T22:49:43.089861</dc:date>
    <dc:format>image/svg+xml</dc:format>
    <dc:creator>
     <cc:Agent>
      <dc:title>Matplotlib v3.10.1, https://matplotlib.org/</dc:title>
     </cc:Agent>
    </dc:creator>
   </cc:Work>
  </rdf:RDF>
 </metadata>
 <defs>
  <style type="text/css">*{stroke-linejoin: round; stroke-linecap: butt}</style>
 </defs>
 <g id="figure_1">
  <g id="patch_1">
   <path d="M 0 288 
L 576 288 
L 576 0 
L 0 0 
z
" style="fill: #ffffff"/>
  </g>
  <g id="axes_1">
   <g id="patch_2">
    <path d="M 57.17 246.04 
L 564.467319 246.04 
L 564.467319 26.88 
L 57.17 26.88 
z
" style="fill: #ffffff"/>
   </g>
   <g id="matplotlib.axis_1">
    <g id="xtick_1">
     <g id="line2d_1">
      <defs>
       <path id="me91603011d" d="M 0 0 
L 0 3.5 
" style="stroke: #000000; stroke-width: 0.8"/>
      </defs>
      <g>
       <use xlink:href="#me91603011d" x="82.742208" y="246.04" style="stroke: #000000; stroke-width: 0.8"/>
      </g>
     </g>
     <g id="text_1">
      <!-- 2022-05 -->
      <g transform="translate(61.850802 260.638438) scale(0.1 -0.1)">
       <defs>
        <path id="DejaVuSans-32" d="M 1228 531 
L 3431 531 
L 3431 0 
L 469 0 
L 469 531 
Q 828 903 1448 1529 
Q 2069 2156 2228 2338 
Q 2531 2678 2651 2914 
Q 2772 3150 2772 3378 
Q 2772 3750 2511 3984 
Q 2250 4219 1831 4219 
Q 1534 4219 1204 4116 
Q 875 4013 500 3803 
L 500 4441 
Q 881 4594 1212 4672 
Q 1544 4750 1819 4750 
Q 2544 4750 2975 4387 
Q 3406 4025 3406 3419 
Q 3406 3131 3298 2873 
Q 3191 2616 2906 2266 
Q 2828 2175 2409 1742 
Q 1991 1309 1228 531 
z
" transform="scale(0.015625)"/>
        <path id="DejaVuSans-30" d="M 2034 4250 
Q 1547 4250 1301 3770 
Q 1056 3291 1056 2328 
Q 1056 1369 1301 889 
Q 1547 409 2034 409 
Q 2525 409 2770 889 
Q 3016 1369 3016 2328 
Q 3016 3291 2770 3770 
Q 2525 4250 2034 4250 
z
M 2034 4750 
Q 2819 4750 3233 4129 
Q 3647 3509 3647 2328 
Q 3647 1150 3233 529 
Q 2819 -91 2034 -91 
Q 1250 -91 836 529 
Q 422 1150 422 2328 
Q 422 3509 836 4129 
Q 1250 4750 2034 4750 
z
" transform="scale(0.015625)"/>
        <path id="DejaVuSans-2d" d="M 313 2009 
L 1997 2009 
L 1997 1497 
L 313 1497 
L 313 2009 
z
" transform="scale(0.015625)"/>
        <path id="DejaVuSans-35" d="M 691 4666 
L 3169 4666 
L 3169 4134 
L 1269 4134 
L 1269 2991 
Q 1406 3038 1543 3061 
Q 1681 3084 1819 3084 
Q 2600 3084 3056 2656 
Q 3513 2228 3513 1497 
Q 3513 744 3044 326 
Q 2575 -91 1722 -91 
Q 1428 -91 1123 -41 
Q 819 9 494 109 
L 494 744 
Q 775 591 1075 516 
Q 1375 441 1709 441 
Q 2250 441 2565 725 
Q 2881 1009 2881 1497 
Q 2881 1984 2565 2268 
Q 2250 2553 1709 2553 
Q 1456 2553 1204 2497 
Q 953 2441 691 2322 
L 691 4666 
z
" transform="scale(0.015625)"/>
       </defs>
       <use xlink:href="#DejaVuSans-32"/>
       <use xlink:href="#DejaVuSans-30" transform="translate(63.623047 0)"/>
       <use xlink:href="#DejaVuSans-32" transform="translate(127.246094 0)"/>
       <use xlink:href="#DejaVuSans-32" transform="translate(190.869141 0)"/>
       <use xlink:href="#DejaVuSans-2d" transform="translate(254.492188 0)"/>
       <use xlink:href="#DejaVuSans-30" transform="translate(290.576172 0)"/>
       <use xlink:href="#DejaVuSans-35" transform="translate(354.199219 0)"/>
      </g>
     </g>
    </g>
    <g id="xtick_2">
     <g id="line2d_2">
      <g>
       <use xlink:href="#me91603011d" x="134.26361" y="246.04" style="stroke: #000000; stroke-width: 0.8"/>
      </g>
     </g>
     <g id="text_2">
      <!-- 2022-09 -->
      <g transform="translate(113.372204 260.638438) scale(0.1 -0.1)">
       <defs>
        <path id="DejaVuSans-39" d="M 703 97 
L 703 672 
Q 941 559 1184 500 
Q 1428 441 1663 441 
Q 2288 441 2617 861 
Q 2947 1281 2994 2138 
Q 2813 1869 2534 1725 
Q 2256 1581 1919 1581 
Q 1219 1581 811 2004 
Q 403 2428 403 3163 
Q 403 3881 828 4315 
Q 1253 4750 1959 4750 
Q 2769 4750 3195 4129 
Q 3622 3509 3622 2328 
Q 3622 1225 3098 567 
Q 2575 -91 1691 -91 
Q 1453 -91 1209 -44 
Q 966 3 703 97 
z
M 1959 2075 
Q 2384 2075 2632 2365 
Q 2881 2656 2881 3163 
Q 2881 3666 2632 3958 
Q 2384 4250 1959 4250 
Q 1534 4250 1286 3958 
Q 1038 3666 1038 3163 
Q 1038 2656 1286 2365 
Q 1534 2075 1959 2075 
z
" transform="scale(0.015625)"/>
       </defs>
       <use xlink:href="#DejaVuSans-32"/>
       <use xlink:href="#DejaVuSans-30" transform="translate(63.623047 0)"/>
       <use xlink:href="#DejaVuSans-32" transform="translate(127.246094 0)"/>
       <use xlink:href="#DejaVuSans-32" transform="translate(190.869141 0)"/>
       <use xlink:href="#DejaVuSans-2d" transform="translate(254.492188 0)"/>
       <use xlink:href="#DejaVuSans-30" transform="translate(290.576172 0)"/>
       <use xlink:href="#DejaVuSans-39" transform="translate(354.199219 0)"/>
      </g>
     </g>
    </g>
    <g id="xtick_3">
     <g id="line2d_3">
      <g>
       <use xlink:href="#me91603011d" x="185.366139" y="246.04" style="stroke: #000000; stroke-width: 0.8"/>
      </g>
     </g>
     <g id="text_3">
      <!-- 2023-01 -->
      <g transform="translate(164.474733 260.638438) scale(0.1 -0.1)">
       <defs>
        <path id="DejaVuSans-33" d="M 2597 2516 
Q 3050 2419 3304 2112 
Q 3559 1806 3559 1356 
Q 3559 666 3084 287 
Q 2609 -91 1734 -91 
Q 1441 -91 1130 -33 
Q 819 25 488 141 
L 488 750 
Q 750 597 1062 519 
Q 1375 441 1716 441 
Q 2309 441 2620 675 
Q 2931 909 2931 1356 
Q 2931 1769 2642 2001 
Q 2353 2234 1838 2234 
L 1294 2234 
L 1294 2753 
L 1863 2753 
Q 2328 2753 2575 2939 
Q 2822 3125 2822 3475 
Q 2822 3834 2567 4026 
Q 2313 4219 1838 4219 
Q 1578 4219 1281 4162 
Q 984 4106 628 3988 
L 628 4550 
Q 988 4650 1302 4700 
Q 1616 4750 1894 4750 
Q 2613 4750 3031 4423 
Q 3450 4097 3450 3541 
Q 3450 3153 3228 2886 
Q 3006 2619 2597 2516 
z
" transform="scale(0.015625)"/>
        <path id="DejaVuSans-31" d="M 794 531 
L 1825 531 
L 1825 4091 
L 703 3866 
L 703 4441 
L 1819 4666 
L 2450 4666 
L 2450 531 
L 3481 531 
L 3481 0 
L 794 0 
L 794 531 
z
" transform="scale(0.015625)"/>
       </defs>
       <use xlink:href="#DejaVuSans-32"/>
       <use xlink:href="#DejaVuSans-30" transform="translate(63.623047 0)"/>
       <use xlink:href="#DejaVuSans-32" transform="translate(127.246094 0)"/>
       <use xlink:href="#DejaVuSans-33" transform="translate(190.869141 0)"/>
       <use xlink:href="#DejaVuSans-2d" transform="translate(254.492188 0)"/>
       <use xlink:href="#DejaVuSans-30" transform="translate(290.576172 0)"/>
       <use xlink:href="#DejaVuSans-31" transform="translate(354.199219 0)"/>
      </g>
     </g>
    </g>
    <g id="xtick_4">
     <g id="line2d_4">
      <g>
       <use xlink:href="#me91603011d" x="235.630922" y="246.04" style="stroke: #000000; stroke-width: 0.8"/>
      </g>
     </g>
     <g id="text_4">
      <!-- 2023-05 -->
      <g transform="translate(214.739516 260.638438) scale(0.1 -0.1)">
       <use xlink:href="#DejaVuSans-32"/>
       <use xlink:href="#DejaVuSans-30" transform="translate(63.623047 0)"/>
       <use xlink:href="#DejaVuSans-32" transform="translate(127.246094 0)"/>
       <use xlink:href="#DejaVuSans-33" transform="translate(190.869141 0)"/>
       <use xlink:href="#DejaVuSans-2d" transform="translate(254.492188 0)"/>
       <use xlink:href="#DejaVuSans-30" transform="translate(290.576172 0)"/>
       <use xlink:href="#DejaVuSans-35" transform="translate(354.199219 0)"/>
      </g>
     </g>
    </g>
    <g id="xtick_5">
     <g id="line2d_5">
      <g>
       <use xlink:href="#me91603011d" x="287.152324" y="246.04" style="stroke: #000000; stroke-width: 0.8"/>
      </g>
     </g>
     <g id="text_5">
      <!-- 2023-09 -->
      <g transform="translate(266.260918 260.638438) scale(0.1 -0.1)">
       <use xlink:href="#DejaVuSans-32"/>
       <use xlink:href="#DejaVuSans-30" transform="translate(63.623047 0)"/>
       <use xlink:href="#DejaVuSans-32" transform="translate(127.246094 0)"/>
       <use xlink:href="#DejaVuSans-33" transform="translate(190.869141 0)"/>
       <use xlink:href="#DejaVuSans-2d" transform="translate(254.492188 0)"/>
       <use xlink:href="#DejaVuSans-30" transform="translate(290.576172 0)"/>
       <use xlink:href="#DejaVuSans-39" transform="translate(354.199219 0)"/>
      </g>
     </g>
    </g>
    <g id="xtick_6">
     <g id="line2d_6">
      <g>
       <use xlink:href="#me91603011d" x="338.254853" y="246.04" style="stroke: #000000; stroke-width: 0.8"/>
      </g>
     </g>
     <g id="text_6">
      <!-- 2024-01 -->
      <g transform="translate(317.363447 260.638438) scale(0.1 -0.1)">
       <defs>
        <path id="DejaVuSans-34" d="M 2419 4116 
L 825 1625 
L 2419 1625 
L 2419 4116 
z
M 2253 4666 
L 3047 4666 
L 3047 1625 
L 3713 1625 
L 3713 1100 
L 3047 1100 
L 3047 0 
L 2419 0 
L 2419 1100 
L 313 1100 
L 313 1709 
L 2253 4666 
z
" transform="scale(0.015625)"/>
       </defs>
       <use xlink:href="#DejaVuSans-32"/>
       <use xlink:href="#DejaVuSans-30" transform="translate(63.623047 0)"/>
       <use xlink:href="#DejaVuSans-32" transform="translate(127.246094 0)"/>
       <use xlink:href="#DejaVuSans-34" transform="translate(190.869141 0)"/>
       <use xlink:href="#DejaVuSans-2d" transform="translate(254.492188 0)"/>
       <use xlink:href="#DejaVuSans-30" transform="translate(290.576172 0)"/>
       <use xlink:href="#DejaVuSans-31" transform="translate(354.199219 0)"/>
      </g>
     </g>
    </g>
    <g id="xtick_7">
     <g id="line2d_7">
      <g>
       <use xlink:href="#me91603011d" x="388.938509" y="246.04" style="stroke: #000000; stroke-width: 0.8"/>
      </g>
     </g>
     <g id="text_7">
      <!-- 2024-05 -->
      <g transform="translate(368.047103 260.638438) scale(0.1 -0.1)">
       <use xlink:href="#DejaVuSans-32"/>
       <use xlink:href="#DejaVuSans-30" transform="translate(63.623047 0)"/>
       <use xlink:href="#DejaVuSans-32" transform="translate(127.246094 0)"/>
       <use xlink:href="#DejaVuSans-34" transform="translate(190.869141 0)"/>
       <use xlink:href="#DejaVuSans-2d" transform="translate(254.492188 0)"/>
       <use xlink:href="#DejaVuSans-30" transform="translate(290.576172 0)"/>
       <use xlink:href="#DejaVuSans-35" transform="translate(354.199219 0)"/>
      </g>
     </g>
    </g>
    <g id="xtick_8">
     <g id="line2d_8">
      <g>
       <use xlink:href="#me91603011d" x="440.459911" y="246.04" style="stroke: #000000; stroke-width: 0.8"/>
      </g>
     </g>
     <g id="text_8">
      <!-- 2024-09 -->
      <g transform="translate(419.568505 260.638438) scale(0.1 -0.1)">
       <use xlink:href="#DejaVuSans-32"/>
       <use xlink:href="#DejaVuSans-30" transform="translate(63.623047 0)"/>
       <use xlink:href="#DejaVuSans-32" transform="translate(127.246094 0)"/>
       <use xlink:href="#DejaVuSans-34" transform="translate(190.869141 0)"/>
       <use xlink:href="#DejaVuSans-2d" transform="translate(254.492188 0)"/>
       <use xlink:href="#DejaVuSans-30" transform="translate(290.576172 0)"/>
       <use xlink:href="#DejaVuSans-39" transform="translate(354.199219 0)"/>
      </g>
     </g>
    </g>
    <g id="xtick_9">
     <g id="line2d_9">
      <g>
       <use xlink:href="#me91603011d" x="491.56244" y="246.04" style="stroke: #000000; stroke-width: 0.8"/>
      </g>
     </g>
     <g id="text_9">
      <!-- 2025-01 -->
      <g transform="translate(470.671034 260.638438) scale(0.1 -0.1)">
       <use xlink:href="#DejaVuSans-32"/>
       <use xlink:href="#DejaVuSans-30" transform="translate(63.623047 0)"/>
       <use xlink:href="#DejaVuSans-32" transform="translate(127.246094 0)"/>
       <use xlink:href="#DejaVuSans-35" transform="translate(190.869141 0)"/>
       <use xlink:href="#DejaVuSans-2d" transform="translate(254.492188 0)"/>
       <use xlink:href="#DejaVuSans-30" transform="translate(290.576172 0)"/>
       <use xlink:href="#DejaVuSans-31" transform="translate(354.199219 0)"/>
      </g>
     </g>
    </g>
    <g id="xtick_10">
     <g id="line2d_10">
      <g>
       <use xlink:href="#me91603011d" x="541.827223" y="246.04" style="stroke: #000000; stroke-width: 0.8"/>
      </g>
     </g>
     <g id="text_10">
      <!-- 2025-05 -->
      <g transform="translate(520.935816 260.638438) scale(0.1 -0.1)">
       <use xlink:href="#DejaVuSans-32"/>
       <use xlink:href="#DejaVuSans-30" transform="translate(63.623047 0)"/>
       <use xlink:href="#DejaVuSans-32" transform="translate(127.246094 0)"/>
       <use xlink:href="#DejaVuSans-35" transform="translate(190.869141 0)"/>
       <use xlink:href="#DejaVuSans-2d" transform="translate(254.492188 0)"/>
       <use xlink:href="#DejaVuSans-30" transform="translate(290.576172 0)"/>
       <use xlink:href="#DejaVuSans-35" transform="translate(354.199219 0)"/>
      </g>
     </g>
    </g>
    <g id="text_11">
     <!-- Date -->
     <g transform="translate(298.867878 274.316562) scale(0.1 -0.1)">
      <defs>
       <path id="DejaVuSans-44" d="M 1259 4147 
L 1259 519 
L 2022 519 
Q 2988 519 3436 956 
Q 3884 1394 3884 2338 
Q 3884 3275 3436 3711 
Q 2988 4147 2022 4147 
L 1259 4147 
z
M 628 4666 
L 1925 4666 
Q 3281 4666 3915 4102 
Q 4550 3538 4550 2338 
Q 4550 1131 3912 565 
Q 3275 0 1925 0 
L 628 0 
L 628 4666 
z
" transform="scale(0.015625)"/>
       <path id="DejaVuSans-61" d="M 2194 1759 
Q 1497 1759 1228 1600 
Q 959 1441 959 1056 
Q 959 750 1161 570 
Q 1363 391 1709 391 
Q 2188 391 2477 730 
Q 2766 1069 2766 1631 
L 2766 1759 
L 2194 1759 
z
M 3341 1997 
L 3341 0 
L 2766 0 
L 2766 531 
Q 2569 213 2275 61 
Q 1981 -91 1556 -91 
Q 1019 -91 701 211 
Q 384 513 384 1019 
Q 384 1609 779 1909 
Q 1175 2209 1959 2209 
L 2766 2209 
L 2766 2266 
Q 2766 2663 2505 2880 
Q 2244 3097 1772 3097 
Q 1472 3097 1187 3025 
Q 903 2953 641 2809 
L 641 3341 
Q 956 3463 1253 3523 
Q 1550 3584 1831 3584 
Q 2591 3584 2966 3190 
Q 3341 2797 3341 1997 
z
" transform="scale(0.015625)"/>
       <path id="DejaVuSans-74" d="M 1172 4494 
L 1172 3500 
L 2356 3500 
L 2356 3053 
L 1172 3053 
L 1172 1153 
Q 1172 725 1289 603 
Q 1406 481 1766 481 
L 2356 481 
L 2356 0 
L 1766 0 
Q 1100 0 847 248 
Q 594 497 594 1153 
L 594 3053 
L 172 3053 
L 172 3500 
L 594 3500 
L 594 4494 
L 1172 4494 
z
" transform="scale(0.015625)"/>
       <path id="DejaVuSans-65" d="M 3597 1894 
L 3597 1613 
L 953 1613 
Q 991 1019 1311 708 
Q 1631 397 2203 397 
Q 2534 397 2845 478 
Q 3156 559 3463 722 
L 3463 178 
Q 3153 47 2828 -22 
Q 2503 -91 2169 -91 
Q 1331 -91 842 396 
Q 353 884 353 1716 
Q 353 2575 817 3079 
Q 1281 3584 2069 3584 
Q 2775 3584 3186 3129 
Q 3597 2675 3597 1894 
z
M 3022 2063 
Q 3016 2534 2758 2815 
Q 2500 3097 2075 3097 
Q 1594 3097 1305 2825 
Q 1016 2553 972 2059 
L 3022 2063 
z
" transform="scale(0.015625)"/>
      </defs>
      <use xlink:href="#DejaVuSans-44"/>
      <use xlink:href="#DejaVuSans-61" transform="translate(77.001953 0)"/>
      <use xlink:href="#DejaVuSans-74" transform="translate(138.28125 0)"/>
      <use xlink:href="#DejaVuSans-65" transform="translate(177.490234 0)"/>
     </g>
    </g>
   </g>
   <g id="matplotlib.axis_2">
    <g id="ytick_1">
     <g id="line2d_11">
      <defs>
       <path id="mc2baaefb3b" d="M 0 0 
L -3.5 0 
" style="stroke: #000000; stroke-width: 0.8"/>
      </defs>
      <g>
       <use xlink:href="#mc2baaefb3b" x="57.17" y="223.041202" style="stroke: #000000; stroke-width: 0.8"/>
      </g>
     </g>
     <g id="text_12">
      <!-- 4500 -->
      <g transform="translate(24.72 226.840421) scale(0.1 -0.1)">
       <use xlink:href="#DejaVuSans-34"/>
       <use xlink:href="#DejaVuSans-35" transform="translate(63.623047 0)"/>
       <use xlink:href="#DejaVuSans-30" transform="translate(127.246094 0)"/>
       <use xlink:href="#DejaVuSans-30" transform="translate(190.869141 0)"/>
      </g>
     </g>
    </g>
    <g id="ytick_2">
     <g id="line2d_12">
      <g>
       <use xlink:href="#mc2baaefb3b" x="57.17" y="191.540262" style="stroke: #000000; stroke-width: 0.8"/>
      </g>
     </g>
     <g id="text_13">
      <!-- 5000 -->
      <g transform="translate(24.72 195.339481) scale(0.1 -0.1)">
       <use xlink:href="#DejaVuSans-35"/>
       <use xlink:href="#DejaVuSans-30" transform="translate(63.623047 0)"/>
       <use xlink:href="#DejaVuSans-30" transform="translate(127.246094 0)"/>
       <use xlink:href="#DejaVuSans-30" transform="translate(190.869141 0)"/>
      </g>
     </g>
    </g>
    <g id="ytick_3">
     <g id="line2d_13">
      <g>
       <use xlink:href="#mc2baaefb3b" x="57.17" y="160.039321" style="stroke: #000000; stroke-width: 0.8"/>
      </g>
     </g>
     <g id="text_14">
      <!-- 5500 -->
      <g transform="translate(24.72 163.83854) scale(0.1 -0.1)">
       <use xlink:href="#DejaVuSans-35"/>
       <use xlink:href="#DejaVuSans-35" transform="translate(63.623047 0)"/>
       <use xlink:href="#DejaVuSans-30" transform="translate(127.246094 0)"/>
       <use xlink:href="#DejaVuSans-30" transform="translate(190.869141 0)"/>
      </g>
     </g>
    </g>
    <g id="ytick_4">
     <g id="line2d_14">
      <g>
       <use xlink:href="#mc2baaefb3b" x="57.17" y="128.53838" style="stroke: #000000; stroke-width: 0.8"/>
      </g>
     </g>
     <g id="text_15">
      <!-- 6000 -->
      <g transform="translate(24.72 132.337599) scale(0.1 -0.1)">
       <defs>
        <path id="DejaVuSans-36" d="M 2113 2584 
Q 1688 2584 1439 2293 
Q 1191 2003 1191 1497 
Q 1191 994 1439 701 
Q 1688 409 2113 409 
Q 2538 409 2786 701 
Q 3034 994 3034 1497 
Q 3034 2003 2786 2293 
Q 2538 2584 2113 2584 
z
M 3366 4563 
L 3366 3988 
Q 3128 4100 2886 4159 
Q 2644 4219 2406 4219 
Q 1781 4219 1451 3797 
Q 1122 3375 1075 2522 
Q 1259 2794 1537 2939 
Q 1816 3084 2150 3084 
Q 2853 3084 3261 2657 
Q 3669 2231 3669 1497 
Q 3669 778 3244 343 
Q 2819 -91 2113 -91 
Q 1303 -91 875 529 
Q 447 1150 447 2328 
Q 447 3434 972 4092 
Q 1497 4750 2381 4750 
Q 2619 4750 2861 4703 
Q 3103 4656 3366 4563 
z
" transform="scale(0.015625)"/>
       </defs>
       <use xlink:href="#DejaVuSans-36"/>
       <use xlink:href="#DejaVuSans-30" transform="translate(63.623047 0)"/>
       <use xlink:href="#DejaVuSans-30" transform="translate(127.246094 0)"/>
       <use xlink:href="#DejaVuSans-30" transform="translate(190.869141 0)"/>
      </g>
     </g>
    </g>
    <g id="ytick_5">
     <g id="line2d_15">
      <g>
       <use xlink:href="#mc2baaefb3b" x="57.17" y="97.03744" style="stroke: #000000; stroke-width: 0.8"/>
      </g>
     </g>
     <g id="text_16">
      <!-- 6500 -->
      <g transform="translate(24.72 100.836658) scale(0.1 -0.1)">
       <use xlink:href="#DejaVuSans-36"/>
       <use xlink:href="#DejaVuSans-35" transform="translate(63.623047 0)"/>
       <use xlink:href="#DejaVuSans-30" transform="translate(127.246094 0)"/>
       <use xlink:href="#DejaVuSans-30" transform="translate(190.869141 0)"/>
      </g>
     </g>
    </g>
    <g id="ytick_6">
     <g id="line2d_16">
      <g>
       <use xlink:href="#mc2baaefb3b" x="57.17" y="65.536499" style="stroke: #000000; stroke-width: 0.8"/>
      </g>
     </g>
     <g id="text_17">
      <!-- 7000 -->
      <g transform="translate(24.72 69.335718) scale(0.1 -0.1)">
       <defs>
        <path id="DejaVuSans-37" d="M 525 4666 
L 3525 4666 
L 3525 4397 
L 1831 0 
L 1172 0 
L 2766 4134 
L 525 4134 
L 525 4666 
z
" transform="scale(0.015625)"/>
       </defs>
       <use xlink:href="#DejaVuSans-37"/>
       <use xlink:href="#DejaVuSans-30" transform="translate(63.623047 0)"/>
       <use xlink:href="#DejaVuSans-30" transform="translate(127.246094 0)"/>
       <use xlink:href="#DejaVuSans-30" transform="translate(190.869141 0)"/>
      </g>
     </g>
    </g>
    <g id="ytick_7">
     <g id="line2d_17">
      <g>
       <use xlink:href="#mc2baaefb3b" x="57.17" y="34.035558" style="stroke: #000000; stroke-width: 0.8"/>
      </g>
     </g>
     <g id="text_18">
      <!-- 7500 -->
      <g transform="translate(24.72 37.834777) scale(0.1 -0.1)">
       <use xlink:href="#DejaVuSans-37"/>
       <use xlink:href="#DejaVuSans-35" transform="translate(63.623047 0)"/>
       <use xlink:href="#DejaVuSans-30" transform="translate(127.246094 0)"/>
       <use xlink:href="#DejaVuSans-30" transform="translate(190.869141 0)"/>
      </g>
     </g>
    </g>
    <g id="text_19">
     <!-- Stock Price -->
     <g transform="translate(18.640313 164.085) rotate(-90) scale(0.1 -0.1)">
      <defs>
       <path id="DejaVuSans-53" d="M 3425 4513 
L 3425 3897 
Q 3066 4069 2747 4153 
Q 2428 4238 2131 4238 
Q 1616 4238 1336 4038 
Q 1056 3838 1056 3469 
Q 1056 3159 1242 3001 
Q 1428 2844 1947 2747 
L 2328 2669 
Q 3034 2534 3370 2195 
Q 3706 1856 3706 1288 
Q 3706 609 3251 259 
Q 2797 -91 1919 -91 
Q 1588 -91 1214 -16 
Q 841 59 441 206 
L 441 856 
Q 825 641 1194 531 
Q 1563 422 1919 422 
Q 2459 422 2753 634 
Q 3047 847 3047 1241 
Q 3047 1584 2836 1778 
Q 2625 1972 2144 2069 
L 1759 2144 
Q 1053 2284 737 2584 
Q 422 2884 422 3419 
Q 422 4038 858 4394 
Q 1294 4750 2059 4750 
Q 2388 4750 2728 4690 
Q 3069 4631 3425 4513 
z
" transform="scale(0.015625)"/>
       <path id="DejaVuSans-6f" d="M 1959 3097 
Q 1497 3097 1228 2736 
Q 959 2375 959 1747 
Q 959 1119 1226 758 
Q 1494 397 1959 397 
Q 2419 397 2687 759 
Q 2956 1122 2956 1747 
Q 2956 2369 2687 2733 
Q 2419 3097 1959 3097 
z
M 1959 3584 
Q 2709 3584 3137 3096 
Q 3566 2609 3566 1747 
Q 3566 888 3137 398 
Q 2709 -91 1959 -91 
Q 1206 -91 779 398 
Q 353 888 353 1747 
Q 353 2609 779 3096 
Q 1206 3584 1959 3584 
z
" transform="scale(0.015625)"/>
       <path id="DejaVuSans-63" d="M 3122 3366 
L 3122 2828 
Q 2878 2963 2633 3030 
Q 2388 3097 2138 3097 
Q 1578 3097 1268 2742 
Q 959 2388 959 1747 
Q 959 1106 1268 751 
Q 1578 397 2138 397 
Q 2388 397 2633 464 
Q 2878 531 3122 666 
L 3122 134 
Q 2881 22 2623 -34 
Q 2366 -91 2075 -91 
Q 1284 -91 818 406 
Q 353 903 353 1747 
Q 353 2603 823 3093 
Q 1294 3584 2113 3584 
Q 2378 3584 2631 3529 
Q 2884 3475 3122 3366 
z
" transform="scale(0.015625)"/>
       <path id="DejaVuSans-6b" d="M 581 4863 
L 1159 4863 
L 1159 1991 
L 2875 3500 
L 3609 3500 
L 1753 1863 
L 3688 0 
L 2938 0 
L 1159 1709 
L 1159 0 
L 581 0 
L 581 4863 
z
" transform="scale(0.015625)"/>
       <path id="DejaVuSans-20" transform="scale(0.015625)"/>
       <path id="DejaVuSans-50" d="M 1259 4147 
L 1259 2394 
L 2053 2394 
Q 2494 2394 2734 2622 
Q 2975 2850 2975 3272 
Q 2975 3691 2734 3919 
Q 2494 4147 2053 4147 
L 1259 4147 
z
M 628 4666 
L 2053 4666 
Q 2838 4666 3239 4311 
Q 3641 3956 3641 3272 
Q 3641 2581 3239 2228 
Q 2838 1875 2053 1875 
L 1259 1875 
L 1259 0 
L 628 0 
L 628 4666 
z
" transform="scale(0.015625)"/>
       <path id="DejaVuSans-72" d="M 2631 2963 
Q 2534 3019 2420 3045 
Q 2306 3072 2169 3072 
Q 1681 3072 1420 2755 
Q 1159 2438 1159 1844 
L 1159 0 
L 581 0 
L 581 3500 
L 1159 3500 
L 1159 2956 
Q 1341 3275 1631 3429 
Q 1922 3584 2338 3584 
Q 2397 3584 2469 3576 
Q 2541 3569 2628 3553 
L 2631 2963 
z
" transform="scale(0.015625)"/>
       <path id="DejaVuSans-69" d="M 603 3500 
L 1178 3500 
L 1178 0 
L 603 0 
L 603 3500 
z
M 603 4863 
L 1178 4863 
L 1178 4134 
L 603 4134 
L 603 4863 
z
" transform="scale(0.015625)"/>
      </defs>
      <use xlink:href="#DejaVuSans-53"/>
      <use xlink:href="#DejaVuSans-74" transform="translate(63.476562 0)"/>
      <use xlink:href="#DejaVuSans-6f" transform="translate(102.685547 0)"/>
      <use xlink:href="#DejaVuSans-63" transform="translate(163.867188 0)"/>
      <use xlink:href="#DejaVuSans-6b" transform="translate(218.847656 0)"/>
      <use xlink:href="#DejaVuSans-20" transform="translate(276.757812 0)"/>
      <use xlink:href="#DejaVuSans-50" transform="translate(308.544922 0)"/>
      <use xlink:href="#DejaVuSans-72" transform="translate(367.097656 0)"/>
      <use xlink:href="#DejaVuSans-69" transform="translate(408.210938 0)"/>
      <use xlink:href="#DejaVuSans-63" transform="translate(435.994141 0)"/>
      <use xlink:href="#DejaVuSans-65" transform="translate(490.974609 0)"/>
     </g>
    </g>
   </g>
   <g id="line2d_18">
    <path d="M 80.228969 164.34802 
L 80.647842 174.74711 
L 81.066715 157.473884 
L 81.485589 160.423002 
L 81.904462 145.26601 
L 84.417701 138.812097 
L 84.836574 143.363353 
L 86.093194 138.56261 
L 86.512067 131.646263 
L 86.93094 128.347485 
L 87.768686 124.023035 
L 89.025306 123.316784 
L 89.444179 121.075177 
L 89.863052 120.48674 
L 90.281926 117.186071 
L 90.700799 111.941165 
L 91.957418 106.899124 
L 92.376291 123.394907 
L 92.795165 116.677016 
L 93.214038 114.230653 
L 93.632911 115.302315 
L 94.889531 110.749169 
L 95.308404 106.276665 
L 95.727277 105.018518 
L 96.14615 100.632957 
L 97.821643 90.423502 
L 98.240516 90.873966 
L 98.659389 90.177165 
L 99.078263 97.643518 
L 99.497136 88.988949 
L 100.753755 86.024711 
L 101.591502 87.35027 
L 102.010375 84.641189 
L 102.429248 79.728303 
L 103.685868 75.065533 
L 104.523614 84.953049 
L 104.942487 75.27344 
L 105.36136 69.842677 
L 106.61798 65.351903 
L 107.036853 60.513989 
L 107.455726 71.774315 
L 107.874599 65.818117 
L 108.293473 65.883009 
L 109.550092 60.728195 
L 109.968965 63.268431 
L 110.387839 68.435845 
L 110.806712 62.89861 
L 111.225585 65.486727 
L 112.482205 72.238009 
L 112.901078 79.424634 
L 113.319951 75.938109 
L 113.738824 70.521838 
L 114.157697 74.809116 
L 115.414317 68.438996 
L 115.83319 64.949321 
L 116.252063 58.599992 
L 117.08981 63.356634 
L 118.346429 68.755265 
L 119.184176 59.272222 
L 119.603049 56.073616 
L 120.021922 58.138188 
L 121.278541 54.167809 
L 121.697415 68.183838 
L 122.116288 70.786446 
L 122.535161 68.037044 
L 122.954034 59.86633 
L 124.629527 52.469909 
L 125.0484 52.17506 
L 125.467273 46.983075 
L 125.886147 51.119778 
L 127.142766 47.675465 
L 127.561639 45.084828 
L 127.980513 44.82967 
L 128.399386 43.395118 
L 128.818259 50.768228 
L 130.493752 46.256663 
L 130.912625 63.053595 
L 131.331498 64.508938 
L 131.750371 66.785196 
L 133.006991 64.193929 
L 133.425864 67.003183 
L 133.844737 81.240348 
L 134.26361 83.359731 
L 134.682484 79.596629 
L 135.939103 78.698222 
L 136.357976 70.5987 
L 136.776849 67.834807 
L 137.195723 72.019392 
L 137.614596 70.981121 
L 139.290089 71.579639 
L 139.708962 76.27454 
L 140.127835 89.528245 
L 140.546708 98.219355 
L 141.803328 103.350228 
L 142.222201 98.163283 
L 142.641074 98.259676 
L 143.059947 97.839454 
L 143.47882 105.625856 
L 144.73544 110.671677 
L 145.154313 102.721469 
L 145.573186 115.238053 
L 145.99206 114.12481 
L 146.410933 120.671965 
L 150.599665 129.514909 
L 151.018538 127.421987 
L 151.437411 116.401068 
L 151.856284 112.648046 
L 152.275157 102.930636 
L 153.531777 98.773141 
L 153.95065 96.501924 
L 154.369523 99.485063 
L 154.788397 101.466472 
L 155.20727 101.300777 
L 156.882763 106.123571 
L 157.301636 97.560985 
L 157.720509 99.456082 
L 158.139382 113.422339 
L 159.396002 110.10277 
L 159.814875 100.828893 
L 160.233748 95.493263 
L 160.652621 92.826394 
L 161.071494 83.829725 
L 162.328114 83.577718 
L 163.16586 85.948478 
L 163.584734 90.528715 
L 164.003607 87.99793 
L 165.260226 90.758042 
L 165.679099 81.128834 
L 166.097973 84.308539 
L 166.516846 83.523536 
L 166.935719 87.057942 
L 168.192339 85.109293 
L 168.611212 91.793793 
L 169.030085 92.753942 
L 169.448958 91.565096 
L 169.867831 96.271337 
L 171.124451 97.496723 
L 171.543324 91.095102 
L 171.962197 91.34774 
L 172.38107 87.056051 
L 172.799944 85.66308 
L 174.056563 83.531726 
L 174.475436 84.213407 
L 174.89431 84.103783 
L 175.313183 86.809714 
L 175.732056 85.67316 
L 176.988676 87.229937 
L 177.407549 91.136053 
L 177.826422 92.626048 
L 178.245295 90.891606 
L 178.664168 95.812683 
L 180.339661 107.018198 
L 180.758534 110.322016 
L 181.177407 116.761439 
L 181.596281 118.410828 
L 182.8529 111.180102 
L 183.271773 108.023078 
L 183.690647 111.624265 
L 184.10952 112.042598 
L 184.528393 110.79579 
L 186.203886 101.844483 
L 186.622759 101.996948 
L 187.041632 97.952857 
L 187.460505 97.017279 
L 188.717125 94.785122 
L 189.135998 94.504764 
L 189.554871 97.862764 
L 189.973744 97.694549 
L 190.392618 95.934277 
L 191.649237 91.253237 
L 192.06811 90.895386 
L 192.486984 89.917597 
L 193.32473 82.115444 
L 197.513462 78.990551 
L 197.932335 77.804225 
L 198.351208 70.783296 
L 198.770081 69.743134 
L 199.188955 70.2566 
L 200.445574 72.377873 
L 200.864447 70.304481 
L 201.28332 73.240369 
L 201.702194 65.58816 
L 202.121067 67.086975 
L 203.377686 62.249061 
L 203.79656 61.665033 
L 204.215433 61.529579 
L 204.634306 70.24904 
L 205.053179 73.818096 
L 206.728672 66.136277 
L 207.147545 65.635412 
L 207.566418 67.628791 
L 207.985292 69.012943 
L 209.241911 72.195798 
L 210.079657 65.361984 
L 210.498531 67.281021 
L 210.917404 67.556339 
L 212.174023 65.722984 
L 212.592897 74.650351 
L 213.01177 72.374723 
L 213.430643 72.28652 
L 213.849516 78.243978 
L 215.106136 76.081754 
L 215.525009 80.036382 
L 215.943882 77.918259 
L 216.362755 85.080943 
L 216.781628 82.145685 
L 218.038248 83.085673 
L 218.457121 77.545287 
L 219.294868 73.800456 
L 219.713741 73.855897 
L 220.97036 72.675242 
L 221.389234 76.537887 
L 221.808107 77.741223 
L 222.22698 77.655541 
L 222.645853 73.360702 
L 223.902473 67.91797 
L 224.321346 68.474907 
L 225.159092 66.605641 
L 225.577965 62.834348 
L 226.834585 67.516648 
L 227.253458 66.535709 
L 227.672331 64.212199 
L 228.091205 67.626901 
L 228.510078 64.270791 
L 229.766697 64.731965 
L 230.18557 65.721094 
L 230.604444 67.705024 
L 231.023317 67.810867 
L 231.44219 79.805795 
L 232.69881 82.845006 
L 233.117683 90.533125 
L 233.536556 89.200006 
L 233.955429 88.627318 
L 234.374302 82.969119 
L 236.887542 82.296889 
L 237.306415 87.3572 
L 238.563034 84.279559 
L 238.981907 90.00391 
L 239.400781 89.01667 
L 239.819654 89.318449 
L 240.238527 94.773152 
L 241.495147 91.624948 
L 241.91402 96.011139 
L 242.751766 91.761662 
L 243.170639 90.591087 
L 244.427259 90.990519 
L 244.846132 95.245036 
L 245.683878 96.974438 
L 246.102752 94.113522 
L 247.359371 94.887815 
L 247.778244 92.975708 
L 248.197118 93.153374 
L 248.615991 92.327419 
L 249.034864 89.081562 
L 250.291484 88.660709 
L 250.710357 97.679429 
L 251.12923 97.758181 
L 251.548103 100.661308 
L 251.966976 97.317168 
L 253.223596 95.137303 
L 254.061342 92.115733 
L 254.480215 89.858375 
L 254.899089 86.389492 
L 256.155708 84.859176 
L 256.574581 84.820745 
L 256.993455 93.987518 
L 259.087821 102.016478 
L 259.506694 96.579416 
L 259.925567 98.580356 
L 260.34444 95.774882 
L 260.763313 90.608728 
L 262.019933 89.925787 
L 262.438806 88.314829 
L 262.857679 91.718821 
L 263.276552 92.811273 
L 263.695426 95.687309 
L 264.952045 95.345839 
L 265.370918 92.03698 
L 265.789792 98.109102 
L 266.208665 93.993819 
L 266.627538 94.236376 
L 268.303031 96.405531 
L 268.721904 97.519404 
L 269.140777 102.785731 
L 269.55965 103.248165 
L 270.81627 103.728869 
L 271.235143 97.146433 
L 272.072889 102.861964 
L 272.491763 99.218565 
L 273.748382 96.03886 
L 274.167255 96.570596 
L 274.586128 97.288187 
L 275.005002 97.06642 
L 275.423875 94.812213 
L 276.680494 96.786692 
L 277.099368 98.843073 
L 277.518241 102.015848 
L 277.937114 101.648547 
L 278.355987 109.345487 
L 279.612607 108.414949 
L 280.03148 112.048898 
L 280.450353 116.79483 
L 280.869226 112.939114 
L 281.288099 121.16023 
L 282.544719 124.936563 
L 282.963592 122.289224 
L 283.382465 130.19722 
L 283.801339 129.296293 
L 284.220212 136.159718 
L 285.476831 133.442447 
L 285.895705 121.686296 
L 286.314578 119.741428 
L 286.733451 121.967284 
L 287.152324 121.784579 
L 288.408944 116.016126 
L 288.827817 117.976745 
L 289.24669 116.229073 
L 289.665563 123.278353 
L 290.084436 122.081317 
L 291.341056 117.031717 
L 291.759929 116.907603 
L 292.178802 122.040366 
L 292.597676 124.209521 
L 293.016549 123.557452 
L 294.273168 123.248112 
L 295.110915 129.637133 
L 295.529788 132.339914 
L 295.948661 125.077687 
L 297.205281 126.812759 
L 297.624154 128.783458 
L 298.4619 123.565012 
L 303.069505 124.760157 
L 303.488378 125.799058 
L 303.907252 124.796069 
L 304.326125 121.957204 
L 304.744998 123.380416 
L 306.001618 127.003654 
L 306.420491 127.822049 
L 306.839364 134.333923 
L 307.67711 142.756645 
L 308.93373 151.336241 
L 309.771476 142.468096 
L 310.190349 140.402265 
L 310.609223 133.787697 
L 311.865842 128.125088 
L 312.284715 130.470018 
L 312.703589 131.157999 
L 313.122462 135.767846 
L 313.541335 130.228721 
L 314.797955 122.454289 
L 315.635701 119.784899 
L 316.054574 122.194721 
L 316.473447 122.958934 
L 317.730067 119.426418 
L 318.14894 117.073298 
L 318.567813 115.47998 
L 318.986686 119.393657 
L 319.40556 115.986515 
L 320.662179 112.581264 
L 321.081052 115.173791 
L 321.499926 120.16102 
L 321.918799 116.093619 
L 322.337672 121.267333 
L 323.594292 121.522491 
L 324.013165 119.510211 
L 324.850911 123.463579 
L 325.269784 120.344986 
L 326.526404 121.331595 
L 326.945277 129.004594 
L 327.36415 127.038936 
L 327.783023 127.226051 
L 328.201897 128.340554 
L 329.458516 123.808199 
L 329.877389 123.561862 
L 330.296263 127.306694 
L 330.715136 129.051216 
L 331.134009 131.587671 
L 332.390628 137.547019 
L 332.809502 137.135617 
L 333.228375 143.576299 
L 333.647248 141.207429 
L 334.066121 145.302551 
L 335.322741 145.187888 
L 335.741614 150.488866 
L 336.160487 147.680872 
L 336.998234 135.642472 
L 338.673726 137.689404 
L 339.092599 139.624191 
L 339.511473 142.208529 
L 339.930346 148.96296 
L 341.186965 157.294329 
L 341.605839 156.681321 
L 342.024712 159.278888 
L 342.443585 153.039182 
L 342.862458 155.346311 
L 344.119078 156.298269 
L 344.537951 157.552637 
L 344.956824 167.02497 
L 345.375697 168.014099 
L 345.794571 172.199314 
L 347.05119 191.48797 
L 347.888936 182.505162 
L 348.30781 171.619067 
L 349.983302 183.271265 
L 350.402176 192.506711 
L 350.821049 205.083776 
L 351.239922 207.263011 
L 351.658795 218.336852 
L 352.915415 236.078182 
L 353.334288 217.217309 
L 354.172034 191.974975 
L 358.779639 189.676036 
L 359.198513 188.641545 
L 359.617386 186.910884 
L 360.455132 177.322627 
L 361.711752 175.449581 
L 362.130625 166.71563 
L 362.549498 181.960826 
L 362.968371 169.829183 
L 363.387244 166.217286 
L 364.643864 164.554036 
L 365.062737 167.906366 
L 365.48161 167.507564 
L 365.900484 172.433051 
L 366.319357 168.206255 
L 367.99485 160.268648 
L 368.413723 158.66714 
L 368.832596 160.880396 
L 369.251469 156.533896 
L 370.508089 150.714413 
L 370.926962 153.267879 
L 371.345835 150.012572 
L 371.764708 150.067383 
L 372.183581 153.998701 
L 373.440201 162.177605 
L 373.859074 163.331169 
L 374.277947 174.767271 
L 374.696821 167.458423 
L 375.115694 163.740052 
L 376.372313 156.31843 
L 377.21006 159.980729 
L 379.304426 166.345179 
L 379.723299 161.99805 
L 380.142172 168.415421 
L 380.561045 167.604587 
L 380.979918 170.197114 
L 382.236538 173.426591 
L 382.655411 187.340556 
L 383.074284 173.429741 
L 383.493157 173.476362 
L 383.912031 174.883194 
L 385.16865 176.036759 
L 385.587523 177.778761 
L 386.006397 172.286257 
L 386.42527 171.758301 
L 386.844143 165.335259 
L 388.100763 157.189746 
L 388.519636 160.201236 
L 391.451748 152.142665 
L 391.870621 157.729672 
L 392.289494 152.048792 
L 392.708368 155.362691 
L 393.964987 158.728882 
L 394.38386 156.783384 
L 394.802734 160.213836 
L 395.221607 160.735492 
L 395.64048 156.055712 
L 396.8971 153.941999 
L 397.315973 157.724632 
L 397.734846 157.540666 
L 398.153719 165.531825 
L 398.572592 169.482673 
L 399.829212 166.04844 
L 400.248085 169.613717 
L 400.666958 169.410851 
L 401.085831 170.478733 
L 401.504705 169.161363 
L 402.761324 173.608666 
L 403.180197 171.775942 
L 403.599071 176.162133 
L 404.017944 183.295206 
L 404.436817 181.863803 
L 406.11231 179.007927 
L 406.531183 177.902874 
L 406.950056 180.184803 
L 407.368929 180.158972 
L 408.625549 179.949806 
L 409.044422 177.223084 
L 409.463295 181.460591 
L 409.882168 188.003336 
L 410.301042 188.054368 
L 411.557661 198.610333 
L 411.976534 201.141118 
L 412.395407 192.398347 
L 412.814281 200.102847 
L 413.233154 198.093087 
L 414.489773 195.304624 
L 415.32752 199.911322 
L 415.746393 206.5429 
L 416.165266 203.460848 
L 417.421886 210.821358 
L 417.840759 204.325864 
L 418.259632 205.54684 
L 418.678505 198.244292 
L 420.353998 202.401786 
L 420.772871 201.827209 
L 421.191744 204.416586 
L 421.610618 203.357525 
L 422.029491 202.791138 
L 423.28611 202.447777 
L 423.704984 210.758986 
L 424.123857 214.787326 
L 424.54273 214.689043 
L 424.961603 210.309782 
L 426.218223 211.344903 
L 426.637096 210.283952 
L 427.055969 198.52843 
L 427.474842 199.208221 
L 427.893715 203.517549 
L 429.150335 211.777726 
L 429.569208 207.293882 
L 429.988081 207.705915 
L 430.406955 207.952882 
L 430.825828 210.267571 
L 432.082447 212.072575 
L 432.501321 210.592661 
L 432.920194 213.636282 
L 433.339067 210.954292 
L 433.75794 213.23496 
L 435.01456 212.733465 
L 435.433433 218.045153 
L 435.852306 220.000732 
L 436.271179 223.555298 
L 436.690052 223.334791 
L 437.946672 222.229108 
L 438.365545 225.581438 
L 438.784418 224.896608 
L 439.622165 214.893799 
L 440.878784 220.993011 
L 441.297657 218.479866 
L 441.716531 219.842597 
L 442.135404 217.573899 
L 442.554277 222.522697 
L 443.810897 224.582859 
L 444.22977 223.823686 
L 444.648643 223.922599 
L 445.067516 225.010641 
L 445.486389 228.510396 
L 447.580755 229.396202 
L 447.999628 224.158226 
L 448.418502 225.349591 
L 449.675121 224.986071 
L 450.093994 214.059654 
L 450.512868 211.306472 
L 450.931741 199.470309 
L 451.350614 182.944285 
L 452.607234 146.882638 
L 455.958219 115.81263 
L 456.377092 145.713953 
L 456.795965 150.30364 
L 457.214839 165.283598 
L 458.471458 152.746223 
L 458.890331 159.586968 
L 459.309205 158.511525 
L 459.728078 159.68588 
L 460.146951 144.324762 
L 461.822444 135.543559 
L 462.241317 134.613022 
L 462.66019 137.255951 
L 463.079063 130.119098 
L 464.335683 123.366556 
L 464.754556 129.556491 
L 465.173429 127.319294 
L 465.592302 121.188581 
L 466.011176 132.934022 
L 467.267795 125.19235 
L 467.686668 111.745859 
L 468.105542 110.066859 
L 468.524415 103.09066 
L 468.943288 101.881024 
L 470.199907 92.059661 
L 470.618781 97.543345 
L 471.037654 98.650918 
L 471.456527 111.389898 
L 471.8754 120.631014 
L 473.13202 130.141148 
L 473.969766 112.737508 
L 474.388639 112.021807 
L 474.807513 126.617453 
L 476.064132 125.254092 
L 476.483005 129.699505 
L 476.901879 121.062577 
L 477.320752 123.114548 
L 477.739625 116.622834 
L 478.996244 108.78036 
L 479.415118 109.43117 
L 479.833991 115.626775 
L 480.671737 106.511663 
L 481.928357 109.4318 
L 482.34723 105.730439 
L 482.766103 100.353229 
L 483.184976 97.658008 
L 483.60385 106.173342 
L 484.860469 111.054098 
L 485.279342 119.469889 
L 485.698215 116.198202 
L 486.117089 115.48502 
L 486.535962 111.417619 
L 487.792581 122.466259 
L 488.211455 118.183391 
L 488.630328 122.572732 
L 489.049201 118.429728 
L 489.468074 117.729147 
L 490.724694 119.344516 
L 491.143567 131.2021 
L 491.981313 141.322092 
L 492.400186 152.150855 
L 493.656806 153.233228 
L 494.075679 147.94044 
L 494.494552 149.846877 
L 494.913426 149.153856 
L 495.332299 157.209277 
L 496.588918 156.292599 
L 497.007792 140.442586 
L 497.426665 142.677893 
L 497.845538 141.056224 
L 498.264411 138.519768 
L 499.521031 136.152158 
L 499.939904 134.333293 
L 500.358777 137.627032 
L 500.77765 139.309812 
L 501.196523 132.436307 
L 502.453143 138.23626 
L 506.223002 136.007883 
L 506.641875 125.903012 
L 507.060748 120.092978 
L 508.317368 115.273334 
L 508.736241 116.557313 
L 509.155114 110.607415 
L 509.573987 115.15048 
L 509.99286 112.861622 
L 511.24948 110.798941 
L 511.668353 119.583293 
L 512.087226 110.360447 
L 512.5061 107.469921 
L 512.924973 100.236045 
L 514.181592 99.304247 
L 514.600465 101.105471 
L 515.019339 95.499564 
L 515.438212 97.06705 
L 515.857085 111.501412 
L 517.113705 111.296655 
L 517.532578 106.007017 
L 517.951451 103.448511 
L 518.370324 94.834264 
L 518.789197 96.548545 
L 520.045817 95.71629 
L 520.46469 93.778352 
L 520.883563 92.818204 
L 521.302436 99.125952 
L 521.72131 92.553596 
L 522.977929 91.394361 
L 523.396802 89.985639 
L 523.815676 92.962478 
L 524.234549 94.828594 
L 524.653422 102.984187 
L 525.910042 105.836282 
L 526.328915 108.959916 
L 526.747788 107.43842 
L 527.166661 107.825252 
L 527.585534 111.633715 
L 528.842154 114.259004 
L 529.261027 112.190652 
L 529.6799 111.071109 
L 530.098773 115.732618 
L 531.774266 160.263608 
L 532.193139 158.148005 
L 533.030886 142.109616 
L 533.449759 137.22067 
L 534.706379 132.411106 
L 535.125252 133.954652 
L 535.544125 138.91164 
L 535.962998 138.646402 
L 536.381871 139.142227 
L 537.638491 131.522149 
L 538.057364 131.731946 
L 538.476237 129.509869 
L 538.89511 133.54829 
L 539.313984 132.349994 
L 540.570603 136.283832 
L 540.989476 134.625622 
L 541.40835 131.680914 
L 541.40835 131.680914 
" clip-path="url(#pb1e0270516)" style="fill: none; stroke: #0000ff; stroke-width: 1.5; stroke-linecap: square"/>
   </g>
   <g id="line2d_19">
    <path d="M 80.228969 118.510068 
L 80.647842 133.540939 
L 81.066715 143.122824 
L 81.485589 137.278384 
L 81.904462 137.862874 
L 84.417701 130.696933 
L 84.836574 128.101858 
L 86.512067 134.937101 
L 86.93094 134.103741 
L 87.768686 132.213593 
L 89.025306 131.316062 
L 89.444179 130.691642 
L 89.863052 129.592677 
L 90.281926 128.979547 
L 91.957418 123.236532 
L 92.376291 118.578853 
L 92.795165 123.907434 
L 93.632911 120.528897 
L 94.889531 119.249663 
L 95.727277 110.996079 
L 96.14615 109.470036 
L 97.821643 108.161794 
L 98.240516 103.866222 
L 98.659389 103.444066 
L 99.078263 103.51196 
L 99.497136 107.333971 
L 100.753755 101.418408 
L 101.172628 96.155875 
L 102.429248 87.170847 
L 103.685868 83.72457 
L 104.104741 79.185143 
L 104.523614 78.754558 
L 104.942487 80.34068 
L 105.36136 76.171235 
L 106.61798 71.896551 
L 107.455726 64.325035 
L 107.874599 67.121944 
L 108.293473 66.115083 
L 109.550092 65.988494 
L 109.968965 63.637675 
L 110.387839 63.431596 
L 110.806712 65.566554 
L 111.225585 63.869318 
L 112.482205 64.616327 
L 113.319951 72.329135 
L 113.738824 72.420531 
L 114.157697 69.922174 
L 115.414317 70.874216 
L 116.252063 66.686929 
L 116.670936 63.310145 
L 117.08981 62.853997 
L 118.346429 64.047526 
L 118.765302 67.059311 
L 119.184176 66.373181 
L 119.603049 64.492723 
L 120.021922 61.994366 
L 121.278541 61.371668 
L 121.697415 59.571254 
L 122.116288 63.992184 
L 122.535161 66.066078 
L 122.954034 66.334728 
L 124.210654 63.408524 
L 124.629527 60.801729 
L 125.467273 57.787298 
L 125.886147 53.273373 
L 127.142766 52.202034 
L 127.980513 47.717579 
L 128.399386 46.857764 
L 128.818259 46.328462 
L 130.074878 49.256111 
L 130.912625 49.522762 
L 131.331498 56.230093 
L 131.750371 59.681938 
L 133.006991 62.254894 
L 133.425864 62.681203 
L 133.844737 64.409756 
L 134.682484 75.635842 
L 135.939103 77.805438 
L 136.357976 80.128694 
L 136.776849 78.817775 
L 137.195723 78.79458 
L 137.614596 82.232397 
L 139.290089 78.934366 
L 139.708962 77.327572 
L 140.127835 78.111342 
L 140.546708 82.659629 
L 141.803328 87.584942 
L 142.222201 91.63592 
L 142.641074 90.876237 
L 143.47882 91.373484 
L 144.73544 95.359461 
L 145.154313 99.466119 
L 145.573186 97.830562 
L 145.99206 103.642116 
L 146.410933 105.559582 
L 150.599665 112.491789 
L 151.018538 118.589805 
L 151.437411 119.51576 
L 151.856284 114.560853 
L 152.275157 111.060126 
L 153.531777 103.917565 
L 153.95065 99.112256 
L 154.369523 95.767343 
L 154.788397 95.651429 
L 155.20727 96.201834 
L 156.463889 96.322116 
L 157.301636 98.619285 
L 157.720509 95.005291 
L 158.139382 94.964499 
L 159.396002 101.252198 
L 159.814875 102.671524 
L 160.652621 94.95121 
L 161.071494 92.889498 
L 162.746987 86.45177 
L 163.16586 87.08951 
L 163.584734 85.180227 
L 164.003607 85.650772 
L 165.260226 82.313641 
L 165.679099 81.579276 
L 166.097973 75.929717 
L 166.516846 74.94236 
L 166.935719 74.732343 
L 168.611212 77.090638 
L 169.030085 80.453332 
L 169.448958 82.560389 
L 169.867831 83.288417 
L 171.124451 86.167769 
L 171.543324 88.252338 
L 171.962197 85.953292 
L 172.38107 84.916161 
L 172.799944 81.484158 
L 174.056563 79.435489 
L 174.475436 76.869424 
L 174.89431 76.758248 
L 175.313183 77.094729 
L 175.732056 78.927321 
L 176.988676 78.52553 
L 177.407549 79.434905 
L 178.245295 84.787942 
L 178.664168 85.906779 
L 179.920788 88.79093 
L 180.758534 98.523275 
L 181.596281 106.334924 
L 182.8529 108.808301 
L 183.690647 104.294992 
L 184.10952 105.45139 
L 184.528393 106.227439 
L 186.203886 106.164499 
L 186.622759 100.847423 
L 187.460505 95.489464 
L 188.717125 93.575228 
L 189.135998 91.759432 
L 189.554871 91.104311 
L 190.392618 92.906017 
L 191.649237 92.960221 
L 192.06811 90.663483 
L 192.905857 90.520744 
L 193.32473 89.454972 
L 197.513462 87.338103 
L 197.932335 83.695376 
L 198.351208 83.175734 
L 198.770081 77.733146 
L 199.188955 73.788822 
L 200.445574 71.943772 
L 200.864447 71.906641 
L 201.28332 70.410039 
L 201.702194 71.155941 
L 202.121067 67.865877 
L 203.377686 69.467226 
L 203.79656 67.873383 
L 204.215433 67.717416 
L 204.634306 67.221492 
L 205.053179 69.459043 
L 206.309799 72.37208 
L 207.147545 70.311475 
L 207.566418 70.283328 
L 207.985292 71.334733 
L 209.241911 72.720805 
L 209.660784 74.626551 
L 210.498531 72.049595 
L 210.917404 72.447541 
L 212.174023 72.754367 
L 212.592897 72.291482 
L 213.01177 75.859579 
L 213.430643 76.273367 
L 213.849516 72.943834 
L 215.106136 74.386879 
L 215.525009 73.779255 
L 215.943882 75.035878 
L 216.362755 74.377496 
L 216.781628 77.231039 
L 218.457121 76.162498 
L 219.294868 72.158218 
L 219.713741 70.63233 
L 220.97036 69.605904 
L 221.389234 68.585076 
L 222.22698 71.477195 
L 222.645853 72.333996 
L 223.902473 69.850067 
L 224.321346 65.422093 
L 225.159092 63.283874 
L 225.577965 61.830924 
L 226.834585 60.492934 
L 227.253458 62.131229 
L 227.672331 61.793732 
L 228.091205 59.811941 
L 228.510078 60.414827 
L 229.766697 59.420979 
L 230.18557 59.793484 
L 231.023317 62.813175 
L 231.44219 64.391114 
L 232.69881 70.343776 
L 233.536556 79.479695 
L 233.955429 80.93486 
L 234.374302 81.912004 
L 236.887542 80.18862 
L 237.306415 78.778184 
L 238.563034 80.755914 
L 238.981907 79.403188 
L 239.400781 80.948211 
L 239.819654 81.797998 
L 240.238527 81.968823 
L 241.495147 84.255964 
L 241.91402 83.493389 
L 242.332893 85.104059 
L 242.751766 84.852728 
L 243.170639 83.907238 
L 244.427259 83.482683 
L 244.846132 84.382706 
L 245.683878 89.530095 
L 246.102752 91.024144 
L 247.359371 90.841598 
L 247.778244 90.935824 
L 248.197118 90.287594 
L 248.615991 89.41412 
L 249.034864 87.935852 
L 250.710357 84.983562 
L 251.12923 88.712424 
L 251.548103 90.575994 
L 251.966976 93.128616 
L 253.223596 91.514654 
L 253.642469 89.97926 
L 254.899089 86.603091 
L 256.155708 84.795909 
L 256.574581 83.85365 
L 256.993455 84.142972 
L 259.087821 88.630042 
L 259.506694 93.769771 
L 259.925567 93.409663 
L 260.34444 94.396375 
L 262.019933 91.526221 
L 262.857679 88.302358 
L 263.276552 89.132795 
L 263.695426 89.417903 
L 264.952045 90.576209 
L 265.370918 89.568948 
L 265.789792 87.319922 
L 266.208665 88.41335 
L 266.627538 86.33844 
L 267.884157 85.272515 
L 268.721904 86.044411 
L 269.140777 87.374957 
L 269.55965 90.398401 
L 270.81627 91.947207 
L 271.235143 92.971511 
L 271.654016 89.524158 
L 272.072889 89.015959 
L 272.491763 89.926656 
L 273.748382 88.063886 
L 274.167255 84.807568 
L 274.586128 82.63105 
L 275.005002 81.624897 
L 275.423875 81.052989 
L 276.680494 78.924306 
L 277.099368 79.348554 
L 277.518241 80.743609 
L 277.937114 85.121071 
L 278.355987 87.930376 
L 279.612607 93.248529 
L 280.03148 95.850986 
L 280.869226 104.084483 
L 282.544719 112.789786 
L 282.963592 118.458448 
L 283.382465 119.853257 
L 283.801339 124.978959 
L 284.220212 126.563696 
L 285.476831 129.32735 
L 285.895705 124.983358 
L 286.314578 116.088095 
L 286.733451 111.129958 
L 287.152324 110.231319 
L 288.408944 111.167734 
L 288.827817 109.734841 
L 289.24669 111.464317 
L 289.665563 112.559036 
L 290.084436 116.969352 
L 291.341056 118.763583 
L 291.759929 117.078744 
L 292.178802 116.867405 
L 293.016549 121.571658 
L 294.273168 121.953422 
L 294.692042 121.955668 
L 295.110915 122.300763 
L 295.948661 122.366995 
L 297.624154 115.875341 
L 298.043027 115.922684 
L 298.4619 114.349637 
L 303.069505 112.291032 
L 303.488378 111.80286 
L 303.907252 111.64517 
L 304.326125 110.769789 
L 304.744998 108.596378 
L 306.001618 110.772865 
L 307.258237 121.294271 
L 307.67711 125.17384 
L 308.93373 129.293295 
L 309.352603 135.003764 
L 309.771476 134.698106 
L 310.190349 132.923594 
L 310.609223 131.918487 
L 311.865842 128.608827 
L 312.284715 124.902483 
L 312.703589 124.991664 
L 313.122462 125.646169 
L 313.541335 128.049593 
L 314.797955 126.265237 
L 315.216828 121.49269 
L 316.054574 117.147376 
L 316.473447 117.029893 
L 317.730067 117.439375 
L 318.986686 111.495971 
L 319.40556 112.575955 
L 320.662179 111.347603 
L 321.081052 108.921631 
L 321.499926 108.50209 
L 321.918799 110.132571 
L 322.337672 108.885669 
L 324.013165 111.430878 
L 324.432038 110.914004 
L 324.850911 111.467055 
L 325.269784 112.591767 
L 326.526404 111.37895 
L 326.945277 111.327177 
L 327.36415 114.855375 
L 327.783023 114.535597 
L 328.201897 113.962797 
L 329.458516 114.190009 
L 329.877389 112.652216 
L 330.296263 112.873338 
L 331.134009 117.086127 
L 332.390628 119.173772 
L 332.809502 122.757004 
L 333.228375 124.180391 
L 333.647248 128.014246 
L 334.066121 128.479808 
L 335.322741 130.602338 
L 335.741614 132.056765 
L 336.160487 135.608896 
L 336.57936 136.103959 
L 336.998234 132.950389 
L 338.673726 129.647866 
L 339.092599 129.535274 
L 339.511473 130.702747 
L 339.930346 132.556442 
L 341.186965 135.954268 
L 341.605839 142.036595 
L 342.443585 147.243325 
L 342.862458 145.295558 
L 344.119078 146.510405 
L 344.956824 149.641057 
L 345.375697 155.08466 
L 345.794571 156.963642 
L 347.05119 159.875756 
L 347.470063 169.436045 
L 347.888936 170.0062 
L 348.30781 167.900744 
L 348.726683 161.425947 
L 349.983302 160.549704 
L 350.402176 164.982908 
L 351.658795 184.304059 
L 352.915415 190.723821 
L 353.334288 201.044902 
L 353.753161 192.657438 
L 354.172034 182.004982 
L 358.779639 172.133806 
L 359.198513 168.69605 
L 359.617386 168.987126 
L 360.036259 169.108208 
L 360.455132 167.84291 
L 361.711752 165.568105 
L 362.130625 164.056798 
L 362.549498 159.606214 
L 362.968371 164.551985 
L 363.387244 160.496146 
L 364.643864 159.738401 
L 365.062737 161.269211 
L 365.48161 165.596776 
L 365.900484 168.660489 
L 366.319357 173.04801 
L 367.575976 173.274884 
L 368.832596 164.841738 
L 369.251469 165.085624 
L 370.508089 163.087314 
L 370.926962 158.766917 
L 371.345835 156.626576 
L 372.183581 148.548615 
L 373.440201 146.862976 
L 373.859074 148.63918 
L 374.277947 149.062504 
L 374.696821 154.136279 
L 375.115694 151.698032 
L 376.372313 148.968463 
L 376.791186 145.720698 
L 377.21006 147.296083 
L 379.304426 150.774107 
L 379.723299 156.663552 
L 380.142172 158.563853 
L 380.561045 163.128044 
L 380.979918 161.109738 
L 382.236538 160.66331 
L 382.655411 160.309048 
L 383.074284 165.129122 
L 383.493157 158.851514 
L 383.912031 156.162706 
L 385.16865 155.918143 
L 385.587523 156.767069 
L 386.006397 158.487869 
L 386.42527 156.735352 
L 386.844143 156.214725 
L 388.100763 152.001813 
L 388.519636 145.317738 
L 391.032875 145.250306 
L 391.451748 141.799999 
L 391.870621 140.648646 
L 392.289494 143.614349 
L 392.708368 142.220186 
L 393.964987 143.42116 
L 394.38386 145.652097 
L 394.802734 145.691073 
L 395.221607 147.741218 
L 395.64048 148.785395 
L 396.8971 146.663665 
L 397.315973 144.512495 
L 397.734846 146.142177 
L 398.153719 146.776441 
L 398.572592 150.17845 
L 399.829212 153.323776 
L 400.248085 152.966683 
L 400.666958 154.912974 
L 401.085831 156.002032 
L 401.504705 157.425697 
L 402.761324 157.545456 
L 403.180197 159.588372 
L 403.599071 159.902243 
L 404.017944 162.62329 
L 404.436817 166.414109 
L 406.11231 167.198987 
L 406.531183 166.089378 
L 407.368929 171.198929 
L 408.625549 172.769454 
L 409.044422 174.117688 
L 409.463295 173.707899 
L 409.882168 176.198165 
L 410.301042 180.917216 
L 411.557661 183.937061 
L 411.976534 191.0392 
L 412.395407 195.604468 
L 412.814281 192.814143 
L 413.233154 196.17896 
L 414.489773 195.706784 
L 414.908647 193.785934 
L 415.32752 193.941532 
L 415.746393 194.917353 
L 416.165266 198.058988 
L 417.421886 197.427554 
L 417.840759 200.424173 
L 418.259632 197.222152 
L 418.678505 196.538544 
L 419.097378 192.328923 
L 420.353998 191.898923 
L 420.772871 193.959282 
L 421.191744 194.824296 
L 421.610618 196.671993 
L 422.029491 197.041206 
L 423.28611 197.165702 
L 423.704984 197.340649 
L 424.54273 205.179215 
L 424.961603 206.615984 
L 426.218223 205.023987 
L 426.637096 205.144146 
L 427.055969 194.304039 
L 427.893715 156.749442 
L 429.150335 146.66671 
L 429.569208 141.947445 
L 429.988081 133.522943 
L 430.406955 127.674873 
L 430.825828 123.576798 
L 432.082447 123.489647 
L 432.501321 124.618913 
L 432.920194 124.663518 
L 433.339067 127.191069 
L 433.75794 126.791093 
L 435.433433 129.130992 
L 436.690052 139.430169 
L 437.946672 140.877889 
L 438.365545 140.9384 
L 438.784418 142.841715 
L 439.203292 142.948369 
L 439.622165 139.744071 
L 440.878784 133.655161 
L 441.297657 135.481231 
L 441.716531 136.122601 
L 442.135404 139.920187 
L 444.22977 147.441836 
L 445.067516 145.632563 
L 445.486389 145.387046 
L 447.580755 147.11243 
L 447.999628 148.53351 
L 448.418502 145.517295 
L 450.093994 145.226711 
L 451.350614 117.910443 
L 452.607234 101.709454 
L 455.958219 68.78048 
L 456.377092 36.841818 
L 457.214839 57.973504 
L 458.471458 73.437975 
L 458.890331 72.049072 
L 459.309205 73.590773 
L 459.728078 72.589326 
L 460.146951 71.134714 
L 461.403571 58.93619 
L 461.822444 50.383162 
L 462.241317 48.218672 
L 462.66019 49.314068 
L 463.079063 54.541317 
L 464.335683 61.805975 
L 464.754556 69.630114 
L 465.592302 94.003198 
L 466.011176 101.112751 
L 467.686668 119.088713 
L 468.105542 117.089573 
L 468.524415 116.924593 
L 468.943288 114.795203 
L 470.199907 113.133805 
L 470.618781 108.135276 
L 471.037654 109.636401 
L 471.456527 108.845647 
L 471.8754 113.981408 
L 473.13202 118.394247 
L 473.550893 123.097023 
L 473.969766 117.127103 
L 474.388639 109.158534 
L 474.807513 103.934761 
L 476.064132 108.053848 
L 476.483005 107.705799 
L 476.901879 109.597332 
L 477.320752 104.773628 
L 477.739625 102.463107 
L 478.996244 98.384905 
L 479.415118 93.574366 
L 479.833991 94.371488 
L 480.252864 98.641896 
L 480.671737 98.379829 
L 481.928357 97.877598 
L 482.766103 92.273691 
L 483.184976 90.706919 
L 483.60385 91.433779 
L 484.860469 97.989451 
L 485.698215 110.070462 
L 486.117089 110.103316 
L 486.535962 108.299364 
L 487.792581 103.883572 
L 488.211455 105.229468 
L 488.630328 102.558072 
L 489.049201 102.949649 
L 489.468074 100.435296 
L 491.143567 97.497526 
L 491.981313 101.877418 
L 492.400186 107.161762 
L 494.075679 115.433866 
L 494.494552 113.737368 
L 494.913426 114.123839 
L 496.588918 120.278766 
L 497.007792 122.612266 
L 497.426665 115.790682 
L 497.845538 114.773115 
L 498.264411 113.402148 
L 499.521031 112.427064 
L 500.358777 110.484834 
L 500.77765 112.328162 
L 501.196523 113.4083 
L 502.453143 110.654029 
L 506.223002 112.07114 
L 506.641875 111.080707 
L 507.060748 104.747756 
L 508.317368 99.131514 
L 508.736241 94.24493 
L 509.155114 91.601435 
L 509.573987 86.469212 
L 509.99286 83.891919 
L 511.668353 79.578105 
L 512.087226 84.268146 
L 512.924973 81.781079 
L 514.181592 79.895452 
L 514.600465 78.980817 
L 515.019339 80.787692 
L 515.438212 79.238485 
L 515.857085 79.069352 
L 517.113705 84.661046 
L 517.532578 84.979193 
L 518.370324 78.491538 
L 518.789197 71.400903 
L 520.045817 68.175564 
L 520.46469 66.162826 
L 521.302436 63.536374 
L 521.72131 65.848063 
L 522.977929 63.389513 
L 523.815676 61.500041 
L 524.653422 64.400773 
L 525.910042 68.304521 
L 526.747788 72.959739 
L 527.166661 73.426992 
L 528.842154 76.247772 
L 529.261027 80.70697 
L 530.098773 86.255781 
L 531.774266 90.760846 
L 532.193139 113.101043 
L 532.612013 117.549136 
L 533.030886 113.461704 
L 533.449759 104.757939 
L 534.706379 99.512478 
L 535.125252 95.765189 
L 535.544125 95.535577 
L 535.962998 97.764176 
L 536.381871 98.5872 
L 537.638491 98.822288 
L 538.057364 94.765188 
L 538.89511 91.473309 
L 539.313984 93.072905 
L 540.570603 93.239577 
L 540.989476 95.96167 
L 541.40835 96.510445 
L 541.40835 96.510445 
" clip-path="url(#pb1e0270516)" style="fill: none; stroke-dasharray: 5.55,2.4; stroke-dashoffset: 0; stroke: #ff0000; stroke-width: 1.5"/>
   </g>
   <g id="patch_3">
    <path d="M 57.17 246.04 
L 57.17 26.88 
" style="fill: none; stroke: #000000; stroke-width: 0.8; stroke-linejoin: miter; stroke-linecap: square"/>
   </g>
   <g id="patch_4">
    <path d="M 564.467319 246.04 
L 564.467319 26.88 
" style="fill: none; stroke: #000000; stroke-width: 0.8; stroke-linejoin: miter; stroke-linecap: square"/>
   </g>
   <g id="patch_5">
    <path d="M 57.17 246.04 
L 564.467319 246.04 
" style="fill: none; stroke: #000000; stroke-width: 0.8; stroke-linejoin: miter; stroke-linecap: square"/>
   </g>
   <g id="patch_6">
    <path d="M 57.17 26.88 
L 564.467319 26.88 
" style="fill: none; stroke: #000000; stroke-width: 0.8; stroke-linejoin: miter; stroke-linecap: square"/>
   </g>
   <g id="text_20">
    <!-- Real vs Predicted Stock Prices -->
    <g transform="translate(221.046472 20.88) scale(0.12 -0.12)">
     <defs>
      <path id="DejaVuSans-52" d="M 2841 2188 
Q 3044 2119 3236 1894 
Q 3428 1669 3622 1275 
L 4263 0 
L 3584 0 
L 2988 1197 
Q 2756 1666 2539 1819 
Q 2322 1972 1947 1972 
L 1259 1972 
L 1259 0 
L 628 0 
L 628 4666 
L 2053 4666 
Q 2853 4666 3247 4331 
Q 3641 3997 3641 3322 
Q 3641 2881 3436 2590 
Q 3231 2300 2841 2188 
z
M 1259 4147 
L 1259 2491 
L 2053 2491 
Q 2509 2491 2742 2702 
Q 2975 2913 2975 3322 
Q 2975 3731 2742 3939 
Q 2509 4147 2053 4147 
L 1259 4147 
z
" transform="scale(0.015625)"/>
      <path id="DejaVuSans-6c" d="M 603 4863 
L 1178 4863 
L 1178 0 
L 603 0 
L 603 4863 
z
" transform="scale(0.015625)"/>
      <path id="DejaVuSans-76" d="M 191 3500 
L 800 3500 
L 1894 563 
L 2988 3500 
L 3597 3500 
L 2284 0 
L 1503 0 
L 191 3500 
z
" transform="scale(0.015625)"/>
      <path id="DejaVuSans-73" d="M 2834 3397 
L 2834 2853 
Q 2591 2978 2328 3040 
Q 2066 3103 1784 3103 
Q 1356 3103 1142 2972 
Q 928 2841 928 2578 
Q 928 2378 1081 2264 
Q 1234 2150 1697 2047 
L 1894 2003 
Q 2506 1872 2764 1633 
Q 3022 1394 3022 966 
Q 3022 478 2636 193 
Q 2250 -91 1575 -91 
Q 1294 -91 989 -36 
Q 684 19 347 128 
L 347 722 
Q 666 556 975 473 
Q 1284 391 1588 391 
Q 1994 391 2212 530 
Q 2431 669 2431 922 
Q 2431 1156 2273 1281 
Q 2116 1406 1581 1522 
L 1381 1569 
Q 847 1681 609 1914 
Q 372 2147 372 2553 
Q 372 3047 722 3315 
Q 1072 3584 1716 3584 
Q 2034 3584 2315 3537 
Q 2597 3491 2834 3397 
z
" transform="scale(0.015625)"/>
      <path id="DejaVuSans-64" d="M 2906 2969 
L 2906 4863 
L 3481 4863 
L 3481 0 
L 2906 0 
L 2906 525 
Q 2725 213 2448 61 
Q 2172 -91 1784 -91 
Q 1150 -91 751 415 
Q 353 922 353 1747 
Q 353 2572 751 3078 
Q 1150 3584 1784 3584 
Q 2172 3584 2448 3432 
Q 2725 3281 2906 2969 
z
M 947 1747 
Q 947 1113 1208 752 
Q 1469 391 1925 391 
Q 2381 391 2643 752 
Q 2906 1113 2906 1747 
Q 2906 2381 2643 2742 
Q 2381 3103 1925 3103 
Q 1469 3103 1208 2742 
Q 947 2381 947 1747 
z
" transform="scale(0.015625)"/>
     </defs>
     <use xlink:href="#DejaVuSans-52"/>
     <use xlink:href="#DejaVuSans-65" transform="translate(64.982422 0)"/>
     <use xlink:href="#DejaVuSans-61" transform="translate(126.505859 0)"/>
     <use xlink:href="#DejaVuSans-6c" transform="translate(187.785156 0)"/>
     <use xlink:href="#DejaVuSans-20" transform="translate(215.568359 0)"/>
     <use xlink:href="#DejaVuSans-76" transform="translate(247.355469 0)"/>
     <use xlink:href="#DejaVuSans-73" transform="translate(306.535156 0)"/>
     <use xlink:href="#DejaVuSans-20" transform="translate(358.634766 0)"/>
     <use xlink:href="#DejaVuSans-50" transform="translate(390.421875 0)"/>
     <use xlink:href="#DejaVuSans-72" transform="translate(448.974609 0)"/>
     <use xlink:href="#DejaVuSans-65" transform="translate(487.837891 0)"/>
     <use xlink:href="#DejaVuSans-64" transform="translate(549.361328 0)"/>
     <use xlink:href="#DejaVuSans-69" transform="translate(612.837891 0)"/>
     <use xlink:href="#DejaVuSans-63" transform="translate(640.621094 0)"/>
     <use xlink:href="#DejaVuSans-74" transform="translate(695.601562 0)"/>
     <use xlink:href="#DejaVuSans-65" transform="translate(734.810547 0)"/>
     <use xlink:href="#DejaVuSans-64" transform="translate(796.333984 0)"/>
     <use xlink:href="#DejaVuSans-20" transform="translate(859.810547 0)"/>
     <use xlink:href="#DejaVuSans-53" transform="translate(891.597656 0)"/>
     <use xlink:href="#DejaVuSans-74" transform="translate(955.074219 0)"/>
     <use xlink:href="#DejaVuSans-6f" transform="translate(994.283203 0)"/>
     <use xlink:href="#DejaVuSans-63" transform="translate(1055.464844 0)"/>
     <use xlink:href="#DejaVuSans-6b" transform="translate(1110.445312 0)"/>
     <use xlink:href="#DejaVuSans-20" transform="translate(1168.355469 0)"/>
     <use xlink:href="#DejaVuSans-50" transform="translate(1200.142578 0)"/>
     <use xlink:href="#DejaVuSans-72" transform="translate(1258.695312 0)"/>
     <use xlink:href="#DejaVuSans-69" transform="translate(1299.808594 0)"/>
     <use xlink:href="#DejaVuSans-63" transform="translate(1327.591797 0)"/>
     <use xlink:href="#DejaVuSans-65" transform="translate(1382.572266 0)"/>
     <use xlink:href="#DejaVuSans-73" transform="translate(1444.095703 0)"/>
    </g>
   </g>
   <g id="legend_1">
    <g id="patch_7">
     <path d="M 64.17 241.04 
L 175.893438 241.04 
Q 177.893438 241.04 177.893438 239.04 
L 177.893438 210.68375 
Q 177.893438 208.68375 175.893438 208.68375 
L 64.17 208.68375 
Q 62.17 208.68375 62.17 210.68375 
L 62.17 239.04 
Q 62.17 241.04 64.17 241.04 
z
" style="fill: #ffffff; opacity: 0.8; stroke: #cccccc; stroke-linejoin: miter"/>
    </g>
    <g id="line2d_20">
     <path d="M 66.17 216.782187 
L 76.17 216.782187 
L 86.17 216.782187 
" style="fill: none; stroke: #0000ff; stroke-width: 1.5; stroke-linecap: square"/>
    </g>
    <g id="text_21">
     <!-- Real Prices -->
     <g transform="translate(94.17 220.282187) scale(0.1 -0.1)">
      <use xlink:href="#DejaVuSans-52"/>
      <use xlink:href="#DejaVuSans-65" transform="translate(64.982422 0)"/>
      <use xlink:href="#DejaVuSans-61" transform="translate(126.505859 0)"/>
      <use xlink:href="#DejaVuSans-6c" transform="translate(187.785156 0)"/>
      <use xlink:href="#DejaVuSans-20" transform="translate(215.568359 0)"/>
      <use xlink:href="#DejaVuSans-50" transform="translate(247.355469 0)"/>
      <use xlink:href="#DejaVuSans-72" transform="translate(305.908203 0)"/>
      <use xlink:href="#DejaVuSans-69" transform="translate(347.021484 0)"/>
      <use xlink:href="#DejaVuSans-63" transform="translate(374.804688 0)"/>
      <use xlink:href="#DejaVuSans-65" transform="translate(429.785156 0)"/>
      <use xlink:href="#DejaVuSans-73" transform="translate(491.308594 0)"/>
     </g>
    </g>
    <g id="line2d_21">
     <path d="M 66.17 231.460312 
L 76.17 231.460312 
L 86.17 231.460312 
" style="fill: none; stroke-dasharray: 5.55,2.4; stroke-dashoffset: 0; stroke: #ff0000; stroke-width: 1.5"/>
    </g>
    <g id="text_22">
     <!-- Predicted Prices -->
     <g transform="translate(94.17 234.960312) scale(0.1 -0.1)">
      <use xlink:href="#DejaVuSans-50"/>
      <use xlink:href="#DejaVuSans-72" transform="translate(58.552734 0)"/>
      <use xlink:href="#DejaVuSans-65" transform="translate(97.416016 0)"/>
      <use xlink:href="#DejaVuSans-64" transform="translate(158.939453 0)"/>
      <use xlink:href="#DejaVuSans-69" transform="translate(222.416016 0)"/>
      <use xlink:href="#DejaVuSans-63" transform="translate(250.199219 0)"/>
      <use xlink:href="#DejaVuSans-74" transform="translate(305.179688 0)"/>
      <use xlink:href="#DejaVuSans-65" transform="translate(344.388672 0)"/>
      <use xlink:href="#DejaVuSans-64" transform="translate(405.912109 0)"/>
      <use xlink:href="#DejaVuSans-20" transform="translate(469.388672 0)"/>
      <use xlink:href="#DejaVuSans-50" transform="translate(501.175781 0)"/>
      <use xlink:href="#DejaVuSans-72" transform="translate(559.728516 0)"/>
      <use xlink:href="#DejaVuSans-69" transform="translate(600.841797 0)"/>
      <use xlink:href="#DejaVuSans-63" transform="translate(628.625 0)"/>
      <use xlink:href="#DejaVuSans-65" transform="translate(683.605469 0)"/>
      <use xlink:href="#DejaVuSans-73" transform="translate(745.128906 0)"/>
     </g>
    </g>
   </g>
  </g>
 </g>
 <defs>
  <clipPath id="pb1e0270516">
   <rect x="57.17" y="26.88" width="507.297319" height="219.16"/>
  </clipPath>
 </defs>
</svg>
