<?xml version="1.0" encoding="utf-8" standalone="no"?>
<!DOCTYPE svg PUBLIC "-//W3C//DTD SVG 1.1//EN"
  "http://www.w3.org/Graphics/SVG/1.1/DTD/svg11.dtd">
<svg xmlns:xlink="http://www.w3.org/1999/xlink" width="576pt" height="288pt" viewBox="0 0 576 288" xmlns="http://www.w3.org/2000/svg" version="1.1">
 <metadata>
  <rdf:RDF xmlns:dc="http://purl.org/dc/elements/1.1/" xmlns:cc="http://creativecommons.org/ns#" xmlns:rdf="http://www.w3.org/1999/02/22-rdf-syntax-ns#">
   <cc:Work>
    <dc:type rdf:resource="http://purl.org/dc/dcmitype/StillImage"/>
    <dc:date>2025-05-04T15:56:39.824391</dc:date>
    <dc:format>image/svg+xml</dc:format>
    <dc:creator>
     <cc:Agent>
      <dc:title>Matplotlib v3.10.1, https://matplotlib.org/</dc:title>
     </cc:Agent>
    </dc:creator>
   </cc:Work>
  </rdf:RDF>
 </metadata>
 <defs>
  <style type="text/css">*{stroke-linejoin: round; stroke-linecap: butt}</style>
 </defs>
 <g id="figure_1">
  <g id="patch_1">
   <path d="M 0 288 
L 576 288 
L 576 0 
L 0 0 
z
" style="fill: #ffffff"/>
  </g>
  <g id="axes_1">
   <g id="patch_2">
    <path d="M 57.17 246.04 
L 564.467319 246.04 
L 564.467319 26.88 
L 57.17 26.88 
z
" style="fill: #ffffff"/>
   </g>
   <g id="matplotlib.axis_1">
    <g id="xtick_1">
     <g id="line2d_1">
      <defs>
       <path id="m7547d1e53e" d="M 0 0 
L 0 3.5 
" style="stroke: #000000; stroke-width: 0.8"/>
      </defs>
      <g>
       <use xlink:href="#m7547d1e53e" x="82.742208" y="246.04" style="stroke: #000000; stroke-width: 0.8"/>
      </g>
     </g>
     <g id="text_1">
      <!-- 2022-05 -->
      <g transform="translate(61.850802 260.638438) scale(0.1 -0.1)">
       <defs>
        <path id="DejaVuSans-32" d="M 1228 531 
L 3431 531 
L 3431 0 
L 469 0 
L 469 531 
Q 828 903 1448 1529 
Q 2069 2156 2228 2338 
Q 2531 2678 2651 2914 
Q 2772 3150 2772 3378 
Q 2772 3750 2511 3984 
Q 2250 4219 1831 4219 
Q 1534 4219 1204 4116 
Q 875 4013 500 3803 
L 500 4441 
Q 881 4594 1212 4672 
Q 1544 4750 1819 4750 
Q 2544 4750 2975 4387 
Q 3406 4025 3406 3419 
Q 3406 3131 3298 2873 
Q 3191 2616 2906 2266 
Q 2828 2175 2409 1742 
Q 1991 1309 1228 531 
z
" transform="scale(0.015625)"/>
        <path id="DejaVuSans-30" d="M 2034 4250 
Q 1547 4250 1301 3770 
Q 1056 3291 1056 2328 
Q 1056 1369 1301 889 
Q 1547 409 2034 409 
Q 2525 409 2770 889 
Q 3016 1369 3016 2328 
Q 3016 3291 2770 3770 
Q 2525 4250 2034 4250 
z
M 2034 4750 
Q 2819 4750 3233 4129 
Q 3647 3509 3647 2328 
Q 3647 1150 3233 529 
Q 2819 -91 2034 -91 
Q 1250 -91 836 529 
Q 422 1150 422 2328 
Q 422 3509 836 4129 
Q 1250 4750 2034 4750 
z
" transform="scale(0.015625)"/>
        <path id="DejaVuSans-2d" d="M 313 2009 
L 1997 2009 
L 1997 1497 
L 313 1497 
L 313 2009 
z
" transform="scale(0.015625)"/>
        <path id="DejaVuSans-35" d="M 691 4666 
L 3169 4666 
L 3169 4134 
L 1269 4134 
L 1269 2991 
Q 1406 3038 1543 3061 
Q 1681 3084 1819 3084 
Q 2600 3084 3056 2656 
Q 3513 2228 3513 1497 
Q 3513 744 3044 326 
Q 2575 -91 1722 -91 
Q 1428 -91 1123 -41 
Q 819 9 494 109 
L 494 744 
Q 775 591 1075 516 
Q 1375 441 1709 441 
Q 2250 441 2565 725 
Q 2881 1009 2881 1497 
Q 2881 1984 2565 2268 
Q 2250 2553 1709 2553 
Q 1456 2553 1204 2497 
Q 953 2441 691 2322 
L 691 4666 
z
" transform="scale(0.015625)"/>
       </defs>
       <use xlink:href="#DejaVuSans-32"/>
       <use xlink:href="#DejaVuSans-30" transform="translate(63.623047 0)"/>
       <use xlink:href="#DejaVuSans-32" transform="translate(127.246094 0)"/>
       <use xlink:href="#DejaVuSans-32" transform="translate(190.869141 0)"/>
       <use xlink:href="#DejaVuSans-2d" transform="translate(254.492188 0)"/>
       <use xlink:href="#DejaVuSans-30" transform="translate(290.576172 0)"/>
       <use xlink:href="#DejaVuSans-35" transform="translate(354.199219 0)"/>
      </g>
     </g>
    </g>
    <g id="xtick_2">
     <g id="line2d_2">
      <g>
       <use xlink:href="#m7547d1e53e" x="134.26361" y="246.04" style="stroke: #000000; stroke-width: 0.8"/>
      </g>
     </g>
     <g id="text_2">
      <!-- 2022-09 -->
      <g transform="translate(113.372204 260.638438) scale(0.1 -0.1)">
       <defs>
        <path id="DejaVuSans-39" d="M 703 97 
L 703 672 
Q 941 559 1184 500 
Q 1428 441 1663 441 
Q 2288 441 2617 861 
Q 2947 1281 2994 2138 
Q 2813 1869 2534 1725 
Q 2256 1581 1919 1581 
Q 1219 1581 811 2004 
Q 403 2428 403 3163 
Q 403 3881 828 4315 
Q 1253 4750 1959 4750 
Q 2769 4750 3195 4129 
Q 3622 3509 3622 2328 
Q 3622 1225 3098 567 
Q 2575 -91 1691 -91 
Q 1453 -91 1209 -44 
Q 966 3 703 97 
z
M 1959 2075 
Q 2384 2075 2632 2365 
Q 2881 2656 2881 3163 
Q 2881 3666 2632 3958 
Q 2384 4250 1959 4250 
Q 1534 4250 1286 3958 
Q 1038 3666 1038 3163 
Q 1038 2656 1286 2365 
Q 1534 2075 1959 2075 
z
" transform="scale(0.015625)"/>
       </defs>
       <use xlink:href="#DejaVuSans-32"/>
       <use xlink:href="#DejaVuSans-30" transform="translate(63.623047 0)"/>
       <use xlink:href="#DejaVuSans-32" transform="translate(127.246094 0)"/>
       <use xlink:href="#DejaVuSans-32" transform="translate(190.869141 0)"/>
       <use xlink:href="#DejaVuSans-2d" transform="translate(254.492188 0)"/>
       <use xlink:href="#DejaVuSans-30" transform="translate(290.576172 0)"/>
       <use xlink:href="#DejaVuSans-39" transform="translate(354.199219 0)"/>
      </g>
     </g>
    </g>
    <g id="xtick_3">
     <g id="line2d_3">
      <g>
       <use xlink:href="#m7547d1e53e" x="185.366139" y="246.04" style="stroke: #000000; stroke-width: 0.8"/>
      </g>
     </g>
     <g id="text_3">
      <!-- 2023-01 -->
      <g transform="translate(164.474733 260.638438) scale(0.1 -0.1)">
       <defs>
        <path id="DejaVuSans-33" d="M 2597 2516 
Q 3050 2419 3304 2112 
Q 3559 1806 3559 1356 
Q 3559 666 3084 287 
Q 2609 -91 1734 -91 
Q 1441 -91 1130 -33 
Q 819 25 488 141 
L 488 750 
Q 750 597 1062 519 
Q 1375 441 1716 441 
Q 2309 441 2620 675 
Q 2931 909 2931 1356 
Q 2931 1769 2642 2001 
Q 2353 2234 1838 2234 
L 1294 2234 
L 1294 2753 
L 1863 2753 
Q 2328 2753 2575 2939 
Q 2822 3125 2822 3475 
Q 2822 3834 2567 4026 
Q 2313 4219 1838 4219 
Q 1578 4219 1281 4162 
Q 984 4106 628 3988 
L 628 4550 
Q 988 4650 1302 4700 
Q 1616 4750 1894 4750 
Q 2613 4750 3031 4423 
Q 3450 4097 3450 3541 
Q 3450 3153 3228 2886 
Q 3006 2619 2597 2516 
z
" transform="scale(0.015625)"/>
        <path id="DejaVuSans-31" d="M 794 531 
L 1825 531 
L 1825 4091 
L 703 3866 
L 703 4441 
L 1819 4666 
L 2450 4666 
L 2450 531 
L 3481 531 
L 3481 0 
L 794 0 
L 794 531 
z
" transform="scale(0.015625)"/>
       </defs>
       <use xlink:href="#DejaVuSans-32"/>
       <use xlink:href="#DejaVuSans-30" transform="translate(63.623047 0)"/>
       <use xlink:href="#DejaVuSans-32" transform="translate(127.246094 0)"/>
       <use xlink:href="#DejaVuSans-33" transform="translate(190.869141 0)"/>
       <use xlink:href="#DejaVuSans-2d" transform="translate(254.492188 0)"/>
       <use xlink:href="#DejaVuSans-30" transform="translate(290.576172 0)"/>
       <use xlink:href="#DejaVuSans-31" transform="translate(354.199219 0)"/>
      </g>
     </g>
    </g>
    <g id="xtick_4">
     <g id="line2d_4">
      <g>
       <use xlink:href="#m7547d1e53e" x="235.630922" y="246.04" style="stroke: #000000; stroke-width: 0.8"/>
      </g>
     </g>
     <g id="text_4">
      <!-- 2023-05 -->
      <g transform="translate(214.739516 260.638438) scale(0.1 -0.1)">
       <use xlink:href="#DejaVuSans-32"/>
       <use xlink:href="#DejaVuSans-30" transform="translate(63.623047 0)"/>
       <use xlink:href="#DejaVuSans-32" transform="translate(127.246094 0)"/>
       <use xlink:href="#DejaVuSans-33" transform="translate(190.869141 0)"/>
       <use xlink:href="#DejaVuSans-2d" transform="translate(254.492188 0)"/>
       <use xlink:href="#DejaVuSans-30" transform="translate(290.576172 0)"/>
       <use xlink:href="#DejaVuSans-35" transform="translate(354.199219 0)"/>
      </g>
     </g>
    </g>
    <g id="xtick_5">
     <g id="line2d_5">
      <g>
       <use xlink:href="#m7547d1e53e" x="287.152324" y="246.04" style="stroke: #000000; stroke-width: 0.8"/>
      </g>
     </g>
     <g id="text_5">
      <!-- 2023-09 -->
      <g transform="translate(266.260918 260.638438) scale(0.1 -0.1)">
       <use xlink:href="#DejaVuSans-32"/>
       <use xlink:href="#DejaVuSans-30" transform="translate(63.623047 0)"/>
       <use xlink:href="#DejaVuSans-32" transform="translate(127.246094 0)"/>
       <use xlink:href="#DejaVuSans-33" transform="translate(190.869141 0)"/>
       <use xlink:href="#DejaVuSans-2d" transform="translate(254.492188 0)"/>
       <use xlink:href="#DejaVuSans-30" transform="translate(290.576172 0)"/>
       <use xlink:href="#DejaVuSans-39" transform="translate(354.199219 0)"/>
      </g>
     </g>
    </g>
    <g id="xtick_6">
     <g id="line2d_6">
      <g>
       <use xlink:href="#m7547d1e53e" x="338.254853" y="246.04" style="stroke: #000000; stroke-width: 0.8"/>
      </g>
     </g>
     <g id="text_6">
      <!-- 2024-01 -->
      <g transform="translate(317.363447 260.638438) scale(0.1 -0.1)">
       <defs>
        <path id="DejaVuSans-34" d="M 2419 4116 
L 825 1625 
L 2419 1625 
L 2419 4116 
z
M 2253 4666 
L 3047 4666 
L 3047 1625 
L 3713 1625 
L 3713 1100 
L 3047 1100 
L 3047 0 
L 2419 0 
L 2419 1100 
L 313 1100 
L 313 1709 
L 2253 4666 
z
" transform="scale(0.015625)"/>
       </defs>
       <use xlink:href="#DejaVuSans-32"/>
       <use xlink:href="#DejaVuSans-30" transform="translate(63.623047 0)"/>
       <use xlink:href="#DejaVuSans-32" transform="translate(127.246094 0)"/>
       <use xlink:href="#DejaVuSans-34" transform="translate(190.869141 0)"/>
       <use xlink:href="#DejaVuSans-2d" transform="translate(254.492188 0)"/>
       <use xlink:href="#DejaVuSans-30" transform="translate(290.576172 0)"/>
       <use xlink:href="#DejaVuSans-31" transform="translate(354.199219 0)"/>
      </g>
     </g>
    </g>
    <g id="xtick_7">
     <g id="line2d_7">
      <g>
       <use xlink:href="#m7547d1e53e" x="388.938509" y="246.04" style="stroke: #000000; stroke-width: 0.8"/>
      </g>
     </g>
     <g id="text_7">
      <!-- 2024-05 -->
      <g transform="translate(368.047103 260.638438) scale(0.1 -0.1)">
       <use xlink:href="#DejaVuSans-32"/>
       <use xlink:href="#DejaVuSans-30" transform="translate(63.623047 0)"/>
       <use xlink:href="#DejaVuSans-32" transform="translate(127.246094 0)"/>
       <use xlink:href="#DejaVuSans-34" transform="translate(190.869141 0)"/>
       <use xlink:href="#DejaVuSans-2d" transform="translate(254.492188 0)"/>
       <use xlink:href="#DejaVuSans-30" transform="translate(290.576172 0)"/>
       <use xlink:href="#DejaVuSans-35" transform="translate(354.199219 0)"/>
      </g>
     </g>
    </g>
    <g id="xtick_8">
     <g id="line2d_8">
      <g>
       <use xlink:href="#m7547d1e53e" x="440.459911" y="246.04" style="stroke: #000000; stroke-width: 0.8"/>
      </g>
     </g>
     <g id="text_8">
      <!-- 2024-09 -->
      <g transform="translate(419.568505 260.638438) scale(0.1 -0.1)">
       <use xlink:href="#DejaVuSans-32"/>
       <use xlink:href="#DejaVuSans-30" transform="translate(63.623047 0)"/>
       <use xlink:href="#DejaVuSans-32" transform="translate(127.246094 0)"/>
       <use xlink:href="#DejaVuSans-34" transform="translate(190.869141 0)"/>
       <use xlink:href="#DejaVuSans-2d" transform="translate(254.492188 0)"/>
       <use xlink:href="#DejaVuSans-30" transform="translate(290.576172 0)"/>
       <use xlink:href="#DejaVuSans-39" transform="translate(354.199219 0)"/>
      </g>
     </g>
    </g>
    <g id="xtick_9">
     <g id="line2d_9">
      <g>
       <use xlink:href="#m7547d1e53e" x="491.56244" y="246.04" style="stroke: #000000; stroke-width: 0.8"/>
      </g>
     </g>
     <g id="text_9">
      <!-- 2025-01 -->
      <g transform="translate(470.671034 260.638438) scale(0.1 -0.1)">
       <use xlink:href="#DejaVuSans-32"/>
       <use xlink:href="#DejaVuSans-30" transform="translate(63.623047 0)"/>
       <use xlink:href="#DejaVuSans-32" transform="translate(127.246094 0)"/>
       <use xlink:href="#DejaVuSans-35" transform="translate(190.869141 0)"/>
       <use xlink:href="#DejaVuSans-2d" transform="translate(254.492188 0)"/>
       <use xlink:href="#DejaVuSans-30" transform="translate(290.576172 0)"/>
       <use xlink:href="#DejaVuSans-31" transform="translate(354.199219 0)"/>
      </g>
     </g>
    </g>
    <g id="xtick_10">
     <g id="line2d_10">
      <g>
       <use xlink:href="#m7547d1e53e" x="541.827223" y="246.04" style="stroke: #000000; stroke-width: 0.8"/>
      </g>
     </g>
     <g id="text_10">
      <!-- 2025-05 -->
      <g transform="translate(520.935816 260.638438) scale(0.1 -0.1)">
       <use xlink:href="#DejaVuSans-32"/>
       <use xlink:href="#DejaVuSans-30" transform="translate(63.623047 0)"/>
       <use xlink:href="#DejaVuSans-32" transform="translate(127.246094 0)"/>
       <use xlink:href="#DejaVuSans-35" transform="translate(190.869141 0)"/>
       <use xlink:href="#DejaVuSans-2d" transform="translate(254.492188 0)"/>
       <use xlink:href="#DejaVuSans-30" transform="translate(290.576172 0)"/>
       <use xlink:href="#DejaVuSans-35" transform="translate(354.199219 0)"/>
      </g>
     </g>
    </g>
    <g id="text_11">
     <!-- Date -->
     <g transform="translate(298.867878 274.316562) scale(0.1 -0.1)">
      <defs>
       <path id="DejaVuSans-44" d="M 1259 4147 
L 1259 519 
L 2022 519 
Q 2988 519 3436 956 
Q 3884 1394 3884 2338 
Q 3884 3275 3436 3711 
Q 2988 4147 2022 4147 
L 1259 4147 
z
M 628 4666 
L 1925 4666 
Q 3281 4666 3915 4102 
Q 4550 3538 4550 2338 
Q 4550 1131 3912 565 
Q 3275 0 1925 0 
L 628 0 
L 628 4666 
z
" transform="scale(0.015625)"/>
       <path id="DejaVuSans-61" d="M 2194 1759 
Q 1497 1759 1228 1600 
Q 959 1441 959 1056 
Q 959 750 1161 570 
Q 1363 391 1709 391 
Q 2188 391 2477 730 
Q 2766 1069 2766 1631 
L 2766 1759 
L 2194 1759 
z
M 3341 1997 
L 3341 0 
L 2766 0 
L 2766 531 
Q 2569 213 2275 61 
Q 1981 -91 1556 -91 
Q 1019 -91 701 211 
Q 384 513 384 1019 
Q 384 1609 779 1909 
Q 1175 2209 1959 2209 
L 2766 2209 
L 2766 2266 
Q 2766 2663 2505 2880 
Q 2244 3097 1772 3097 
Q 1472 3097 1187 3025 
Q 903 2953 641 2809 
L 641 3341 
Q 956 3463 1253 3523 
Q 1550 3584 1831 3584 
Q 2591 3584 2966 3190 
Q 3341 2797 3341 1997 
z
" transform="scale(0.015625)"/>
       <path id="DejaVuSans-74" d="M 1172 4494 
L 1172 3500 
L 2356 3500 
L 2356 3053 
L 1172 3053 
L 1172 1153 
Q 1172 725 1289 603 
Q 1406 481 1766 481 
L 2356 481 
L 2356 0 
L 1766 0 
Q 1100 0 847 248 
Q 594 497 594 1153 
L 594 3053 
L 172 3053 
L 172 3500 
L 594 3500 
L 594 4494 
L 1172 4494 
z
" transform="scale(0.015625)"/>
       <path id="DejaVuSans-65" d="M 3597 1894 
L 3597 1613 
L 953 1613 
Q 991 1019 1311 708 
Q 1631 397 2203 397 
Q 2534 397 2845 478 
Q 3156 559 3463 722 
L 3463 178 
Q 3153 47 2828 -22 
Q 2503 -91 2169 -91 
Q 1331 -91 842 396 
Q 353 884 353 1716 
Q 353 2575 817 3079 
Q 1281 3584 2069 3584 
Q 2775 3584 3186 3129 
Q 3597 2675 3597 1894 
z
M 3022 2063 
Q 3016 2534 2758 2815 
Q 2500 3097 2075 3097 
Q 1594 3097 1305 2825 
Q 1016 2553 972 2059 
L 3022 2063 
z
" transform="scale(0.015625)"/>
      </defs>
      <use xlink:href="#DejaVuSans-44"/>
      <use xlink:href="#DejaVuSans-61" transform="translate(77.001953 0)"/>
      <use xlink:href="#DejaVuSans-74" transform="translate(138.28125 0)"/>
      <use xlink:href="#DejaVuSans-65" transform="translate(177.490234 0)"/>
     </g>
    </g>
   </g>
   <g id="matplotlib.axis_2">
    <g id="ytick_1">
     <g id="line2d_11">
      <defs>
       <path id="mf44e374ea7" d="M 0 0 
L -3.5 0 
" style="stroke: #000000; stroke-width: 0.8"/>
      </defs>
      <g>
       <use xlink:href="#mf44e374ea7" x="57.17" y="222.597805" style="stroke: #000000; stroke-width: 0.8"/>
      </g>
     </g>
     <g id="text_12">
      <!-- 4500 -->
      <g transform="translate(24.72 226.397024) scale(0.1 -0.1)">
       <use xlink:href="#DejaVuSans-34"/>
       <use xlink:href="#DejaVuSans-35" transform="translate(63.623047 0)"/>
       <use xlink:href="#DejaVuSans-30" transform="translate(127.246094 0)"/>
       <use xlink:href="#DejaVuSans-30" transform="translate(190.869141 0)"/>
      </g>
     </g>
    </g>
    <g id="ytick_2">
     <g id="line2d_12">
      <g>
       <use xlink:href="#mf44e374ea7" x="57.17" y="190.025493" style="stroke: #000000; stroke-width: 0.8"/>
      </g>
     </g>
     <g id="text_13">
      <!-- 5000 -->
      <g transform="translate(24.72 193.824712) scale(0.1 -0.1)">
       <use xlink:href="#DejaVuSans-35"/>
       <use xlink:href="#DejaVuSans-30" transform="translate(63.623047 0)"/>
       <use xlink:href="#DejaVuSans-30" transform="translate(127.246094 0)"/>
       <use xlink:href="#DejaVuSans-30" transform="translate(190.869141 0)"/>
      </g>
     </g>
    </g>
    <g id="ytick_3">
     <g id="line2d_13">
      <g>
       <use xlink:href="#mf44e374ea7" x="57.17" y="157.453181" style="stroke: #000000; stroke-width: 0.8"/>
      </g>
     </g>
     <g id="text_14">
      <!-- 5500 -->
      <g transform="translate(24.72 161.2524) scale(0.1 -0.1)">
       <use xlink:href="#DejaVuSans-35"/>
       <use xlink:href="#DejaVuSans-35" transform="translate(63.623047 0)"/>
       <use xlink:href="#DejaVuSans-30" transform="translate(127.246094 0)"/>
       <use xlink:href="#DejaVuSans-30" transform="translate(190.869141 0)"/>
      </g>
     </g>
    </g>
    <g id="ytick_4">
     <g id="line2d_14">
      <g>
       <use xlink:href="#mf44e374ea7" x="57.17" y="124.880869" style="stroke: #000000; stroke-width: 0.8"/>
      </g>
     </g>
     <g id="text_15">
      <!-- 6000 -->
      <g transform="translate(24.72 128.680088) scale(0.1 -0.1)">
       <defs>
        <path id="DejaVuSans-36" d="M 2113 2584 
Q 1688 2584 1439 2293 
Q 1191 2003 1191 1497 
Q 1191 994 1439 701 
Q 1688 409 2113 409 
Q 2538 409 2786 701 
Q 3034 994 3034 1497 
Q 3034 2003 2786 2293 
Q 2538 2584 2113 2584 
z
M 3366 4563 
L 3366 3988 
Q 3128 4100 2886 4159 
Q 2644 4219 2406 4219 
Q 1781 4219 1451 3797 
Q 1122 3375 1075 2522 
Q 1259 2794 1537 2939 
Q 1816 3084 2150 3084 
Q 2853 3084 3261 2657 
Q 3669 2231 3669 1497 
Q 3669 778 3244 343 
Q 2819 -91 2113 -91 
Q 1303 -91 875 529 
Q 447 1150 447 2328 
Q 447 3434 972 4092 
Q 1497 4750 2381 4750 
Q 2619 4750 2861 4703 
Q 3103 4656 3366 4563 
z
" transform="scale(0.015625)"/>
       </defs>
       <use xlink:href="#DejaVuSans-36"/>
       <use xlink:href="#DejaVuSans-30" transform="translate(63.623047 0)"/>
       <use xlink:href="#DejaVuSans-30" transform="translate(127.246094 0)"/>
       <use xlink:href="#DejaVuSans-30" transform="translate(190.869141 0)"/>
      </g>
     </g>
    </g>
    <g id="ytick_5">
     <g id="line2d_15">
      <g>
       <use xlink:href="#mf44e374ea7" x="57.17" y="92.308557" style="stroke: #000000; stroke-width: 0.8"/>
      </g>
     </g>
     <g id="text_16">
      <!-- 6500 -->
      <g transform="translate(24.72 96.107776) scale(0.1 -0.1)">
       <use xlink:href="#DejaVuSans-36"/>
       <use xlink:href="#DejaVuSans-35" transform="translate(63.623047 0)"/>
       <use xlink:href="#DejaVuSans-30" transform="translate(127.246094 0)"/>
       <use xlink:href="#DejaVuSans-30" transform="translate(190.869141 0)"/>
      </g>
     </g>
    </g>
    <g id="ytick_6">
     <g id="line2d_16">
      <g>
       <use xlink:href="#mf44e374ea7" x="57.17" y="59.736245" style="stroke: #000000; stroke-width: 0.8"/>
      </g>
     </g>
     <g id="text_17">
      <!-- 7000 -->
      <g transform="translate(24.72 63.535464) scale(0.1 -0.1)">
       <defs>
        <path id="DejaVuSans-37" d="M 525 4666 
L 3525 4666 
L 3525 4397 
L 1831 0 
L 1172 0 
L 2766 4134 
L 525 4134 
L 525 4666 
z
" transform="scale(0.015625)"/>
       </defs>
       <use xlink:href="#DejaVuSans-37"/>
       <use xlink:href="#DejaVuSans-30" transform="translate(63.623047 0)"/>
       <use xlink:href="#DejaVuSans-30" transform="translate(127.246094 0)"/>
       <use xlink:href="#DejaVuSans-30" transform="translate(190.869141 0)"/>
      </g>
     </g>
    </g>
    <g id="ytick_7">
     <g id="line2d_17">
      <g>
       <use xlink:href="#mf44e374ea7" x="57.17" y="27.163933" style="stroke: #000000; stroke-width: 0.8"/>
      </g>
     </g>
     <g id="text_18">
      <!-- 7500 -->
      <g transform="translate(24.72 30.963152) scale(0.1 -0.1)">
       <use xlink:href="#DejaVuSans-37"/>
       <use xlink:href="#DejaVuSans-35" transform="translate(63.623047 0)"/>
       <use xlink:href="#DejaVuSans-30" transform="translate(127.246094 0)"/>
       <use xlink:href="#DejaVuSans-30" transform="translate(190.869141 0)"/>
      </g>
     </g>
    </g>
    <g id="text_19">
     <!-- Stock Price -->
     <g transform="translate(18.640313 164.085) rotate(-90) scale(0.1 -0.1)">
      <defs>
       <path id="DejaVuSans-53" d="M 3425 4513 
L 3425 3897 
Q 3066 4069 2747 4153 
Q 2428 4238 2131 4238 
Q 1616 4238 1336 4038 
Q 1056 3838 1056 3469 
Q 1056 3159 1242 3001 
Q 1428 2844 1947 2747 
L 2328 2669 
Q 3034 2534 3370 2195 
Q 3706 1856 3706 1288 
Q 3706 609 3251 259 
Q 2797 -91 1919 -91 
Q 1588 -91 1214 -16 
Q 841 59 441 206 
L 441 856 
Q 825 641 1194 531 
Q 1563 422 1919 422 
Q 2459 422 2753 634 
Q 3047 847 3047 1241 
Q 3047 1584 2836 1778 
Q 2625 1972 2144 2069 
L 1759 2144 
Q 1053 2284 737 2584 
Q 422 2884 422 3419 
Q 422 4038 858 4394 
Q 1294 4750 2059 4750 
Q 2388 4750 2728 4690 
Q 3069 4631 3425 4513 
z
" transform="scale(0.015625)"/>
       <path id="DejaVuSans-6f" d="M 1959 3097 
Q 1497 3097 1228 2736 
Q 959 2375 959 1747 
Q 959 1119 1226 758 
Q 1494 397 1959 397 
Q 2419 397 2687 759 
Q 2956 1122 2956 1747 
Q 2956 2369 2687 2733 
Q 2419 3097 1959 3097 
z
M 1959 3584 
Q 2709 3584 3137 3096 
Q 3566 2609 3566 1747 
Q 3566 888 3137 398 
Q 2709 -91 1959 -91 
Q 1206 -91 779 398 
Q 353 888 353 1747 
Q 353 2609 779 3096 
Q 1206 3584 1959 3584 
z
" transform="scale(0.015625)"/>
       <path id="DejaVuSans-63" d="M 3122 3366 
L 3122 2828 
Q 2878 2963 2633 3030 
Q 2388 3097 2138 3097 
Q 1578 3097 1268 2742 
Q 959 2388 959 1747 
Q 959 1106 1268 751 
Q 1578 397 2138 397 
Q 2388 397 2633 464 
Q 2878 531 3122 666 
L 3122 134 
Q 2881 22 2623 -34 
Q 2366 -91 2075 -91 
Q 1284 -91 818 406 
Q 353 903 353 1747 
Q 353 2603 823 3093 
Q 1294 3584 2113 3584 
Q 2378 3584 2631 3529 
Q 2884 3475 3122 3366 
z
" transform="scale(0.015625)"/>
       <path id="DejaVuSans-6b" d="M 581 4863 
L 1159 4863 
L 1159 1991 
L 2875 3500 
L 3609 3500 
L 1753 1863 
L 3688 0 
L 2938 0 
L 1159 1709 
L 1159 0 
L 581 0 
L 581 4863 
z
" transform="scale(0.015625)"/>
       <path id="DejaVuSans-20" transform="scale(0.015625)"/>
       <path id="DejaVuSans-50" d="M 1259 4147 
L 1259 2394 
L 2053 2394 
Q 2494 2394 2734 2622 
Q 2975 2850 2975 3272 
Q 2975 3691 2734 3919 
Q 2494 4147 2053 4147 
L 1259 4147 
z
M 628 4666 
L 2053 4666 
Q 2838 4666 3239 4311 
Q 3641 3956 3641 3272 
Q 3641 2581 3239 2228 
Q 2838 1875 2053 1875 
L 1259 1875 
L 1259 0 
L 628 0 
L 628 4666 
z
" transform="scale(0.015625)"/>
       <path id="DejaVuSans-72" d="M 2631 2963 
Q 2534 3019 2420 3045 
Q 2306 3072 2169 3072 
Q 1681 3072 1420 2755 
Q 1159 2438 1159 1844 
L 1159 0 
L 581 0 
L 581 3500 
L 1159 3500 
L 1159 2956 
Q 1341 3275 1631 3429 
Q 1922 3584 2338 3584 
Q 2397 3584 2469 3576 
Q 2541 3569 2628 3553 
L 2631 2963 
z
" transform="scale(0.015625)"/>
       <path id="DejaVuSans-69" d="M 603 3500 
L 1178 3500 
L 1178 0 
L 603 0 
L 603 3500 
z
M 603 4863 
L 1178 4863 
L 1178 4134 
L 603 4134 
L 603 4863 
z
" transform="scale(0.015625)"/>
      </defs>
      <use xlink:href="#DejaVuSans-53"/>
      <use xlink:href="#DejaVuSans-74" transform="translate(63.476562 0)"/>
      <use xlink:href="#DejaVuSans-6f" transform="translate(102.685547 0)"/>
      <use xlink:href="#DejaVuSans-63" transform="translate(163.867188 0)"/>
      <use xlink:href="#DejaVuSans-6b" transform="translate(218.847656 0)"/>
      <use xlink:href="#DejaVuSans-20" transform="translate(276.757812 0)"/>
      <use xlink:href="#DejaVuSans-50" transform="translate(308.544922 0)"/>
      <use xlink:href="#DejaVuSans-72" transform="translate(367.097656 0)"/>
      <use xlink:href="#DejaVuSans-69" transform="translate(408.210938 0)"/>
      <use xlink:href="#DejaVuSans-63" transform="translate(435.994141 0)"/>
      <use xlink:href="#DejaVuSans-65" transform="translate(490.974609 0)"/>
     </g>
    </g>
   </g>
   <g id="line2d_18">
    <path d="M 80.228969 161.908422 
L 80.647842 172.661193 
L 81.066715 154.800492 
L 81.485589 157.849912 
L 81.904462 142.177418 
L 84.417701 135.504003 
L 84.836574 140.21005 
L 86.093194 135.24603 
L 86.512067 128.094453 
L 86.93094 124.683481 
L 87.768686 120.211954 
L 89.025306 119.481682 
L 89.444179 117.163837 
L 89.863052 116.555386 
L 90.281926 113.142459 
L 90.700799 107.719169 
L 91.957418 102.505645 
L 92.376291 119.562462 
L 92.795165 112.61609 
L 93.214038 110.086525 
L 93.632911 111.194635 
L 94.889531 106.486633 
L 95.308404 101.862016 
L 95.727277 100.561078 
L 96.14615 96.026361 
L 97.821643 85.469674 
L 98.240516 85.935458 
L 98.659389 85.214959 
L 99.078263 92.935248 
L 99.497136 83.986331 
L 100.753755 80.921277 
L 101.591502 82.291919 
L 102.010375 79.490701 
L 102.429248 74.410723 
L 103.685868 69.589369 
L 104.523614 79.813166 
L 104.942487 69.804346 
L 105.36136 64.18888 
L 106.61798 59.545371 
L 107.036853 54.542915 
L 107.455726 66.186214 
L 107.874599 60.027441 
L 108.293473 60.09454 
L 109.550092 54.764407 
L 109.968965 57.391038 
L 110.387839 62.7342 
L 110.806712 57.008639 
L 111.225585 59.684781 
L 112.482205 66.665678 
L 112.901078 74.096726 
L 113.319951 70.491622 
L 113.738824 64.891139 
L 114.157697 69.324231 
L 115.414317 62.737458 
L 115.83319 59.129097 
L 116.252063 52.563822 
L 117.08981 57.482241 
L 118.346429 63.064484 
L 119.184176 53.258915 
L 119.603049 49.951522 
L 120.021922 52.086312 
L 121.278541 47.980897 
L 121.697415 62.473622 
L 122.116288 65.164746 
L 122.535161 62.321835 
L 122.954034 53.873229 
L 124.629527 46.22525 
L 125.0484 45.920373 
L 125.467273 40.551805 
L 125.886147 44.829201 
L 127.142766 41.267744 
L 127.561639 38.588997 
L 127.980513 38.325161 
L 128.399386 36.841818 
L 128.818259 44.465694 
L 130.493752 39.800687 
L 130.912625 57.168895 
L 131.331498 58.673736 
L 131.750371 61.027411 
L 133.006991 58.348013 
L 133.425864 61.252812 
L 133.844737 75.974194 
L 134.26361 78.165659 
L 134.682484 74.274571 
L 135.939103 73.345608 
L 136.357976 64.970615 
L 136.776849 62.112721 
L 137.195723 66.439627 
L 137.614596 65.366043 
L 139.290089 65.984917 
L 139.708962 70.839495 
L 140.127835 84.543969 
L 140.546708 93.53067 
L 141.803328 98.836048 
L 142.222201 93.472691 
L 142.641074 93.572363 
L 143.059947 93.137848 
L 143.47882 101.189072 
L 144.73544 106.406505 
L 145.154313 98.185905 
L 145.573186 111.128187 
L 145.99206 109.977082 
L 146.410933 116.746911 
L 150.599665 125.89061 
L 151.018538 123.726506 
L 151.437411 112.330757 
L 151.856284 108.450092 
L 152.275157 98.402185 
L 153.531777 94.103291 
L 153.95065 91.754828 
L 154.369523 94.839425 
L 154.788397 96.888224 
L 155.20727 96.716894 
L 156.882763 101.703714 
L 157.301636 92.849909 
L 157.720509 94.809459 
L 158.139382 109.250719 
L 159.396002 105.818249 
L 159.814875 96.22896 
L 160.233748 90.711862 
L 160.652621 87.95429 
L 161.071494 78.651638 
L 162.328114 78.391059 
L 163.16586 80.842452 
L 163.584734 85.578466 
L 164.003607 82.961606 
L 165.260226 85.815592 
L 165.679099 75.858888 
L 166.097973 79.146737 
L 166.516846 78.335035 
L 166.935719 81.989648 
L 168.192339 79.974725 
L 168.611212 86.88657 
L 169.030085 87.879374 
L 169.448958 86.650095 
L 169.867831 91.516398 
L 171.124451 92.783461 
L 171.543324 86.164116 
L 171.962197 86.425346 
L 172.38107 81.987694 
L 172.799944 80.547346 
L 174.056563 78.343504 
L 174.475436 79.048369 
L 174.89431 78.935017 
L 175.313183 81.732979 
L 175.732056 80.55777 
L 176.988676 82.167493 
L 177.407549 86.20646 
L 177.826422 87.74713 
L 178.245295 85.953699 
L 178.664168 91.042145 
L 180.339661 102.628768 
L 180.758534 106.044952 
L 181.177407 112.703384 
L 181.596281 114.408871 
L 182.8529 106.932222 
L 183.271773 103.667825 
L 183.690647 107.391492 
L 184.10952 107.824052 
L 184.528393 106.53484 
L 186.203886 97.279092 
L 186.622759 97.436742 
L 187.041632 93.255108 
L 187.460505 92.287711 
L 188.717125 89.979637 
L 189.135998 89.689743 
L 189.554871 93.161951 
L 189.973744 92.988015 
L 190.392618 91.167874 
L 191.649237 86.327629 
L 192.06811 85.957607 
L 192.486984 84.946563 
L 193.32473 76.879053 
L 197.513462 73.647879 
L 197.932335 72.421206 
L 198.351208 65.161489 
L 198.770081 64.085951 
L 199.188955 64.61688 
L 200.445574 66.8103 
L 200.864447 64.66639 
L 201.28332 67.702129 
L 201.702194 59.789663 
L 202.121067 61.339454 
L 203.377686 56.336998 
L 203.79656 55.733108 
L 204.215433 55.593047 
L 204.634306 64.609063 
L 205.053179 68.299506 
L 206.728672 60.356422 
L 207.147545 59.838522 
L 207.566418 61.899698 
L 207.985292 63.330925 
L 209.241911 66.622032 
L 210.079657 59.555794 
L 210.498531 61.540099 
L 210.917404 61.824781 
L 212.174023 59.929073 
L 212.592897 69.160066 
L 213.01177 66.807042 
L 213.430643 66.71584 
L 213.849516 72.875915 
L 215.106136 70.640152 
L 215.525009 74.72928 
L 215.943882 72.539118 
L 216.362755 79.94541 
L 216.781628 76.910322 
L 218.038248 77.88228 
L 218.457121 72.153462 
L 219.294868 68.281265 
L 219.713741 68.338592 
L 220.97036 67.117782 
L 221.389234 71.111799 
L 221.808107 72.356061 
L 222.22698 72.267465 
L 222.645853 67.826556 
L 223.902473 62.198712 
L 224.321346 62.77459 
L 225.159092 60.841749 
L 225.577965 56.942192 
L 226.834585 61.78374 
L 227.253458 60.769439 
L 227.672331 58.366905 
L 228.091205 61.897743 
L 228.510078 58.427489 
L 229.766697 58.904348 
L 230.18557 59.927119 
L 230.604444 61.978523 
L 231.023317 62.087966 
L 231.44219 74.490851 
L 232.69881 77.633427 
L 233.117683 85.583026 
L 233.536556 84.204566 
L 233.955429 83.612401 
L 234.374302 77.761762 
L 236.887542 77.066669 
L 237.306415 82.299085 
L 238.563034 79.11677 
L 238.981907 85.035811 
L 239.400781 84.014995 
L 239.819654 84.327037 
L 240.238527 89.967259 
L 241.495147 86.711982 
L 241.91402 91.247351 
L 242.751766 86.853346 
L 243.170639 85.642959 
L 244.427259 86.055976 
L 244.846132 90.455192 
L 245.683878 92.243412 
L 246.102752 89.285195 
L 247.359371 90.085822 
L 247.778244 88.108683 
L 248.197118 88.292391 
L 248.615991 87.438345 
L 249.034864 84.082094 
L 250.291484 83.646928 
L 250.710357 92.972381 
L 251.12923 93.053811 
L 251.548103 96.055676 
L 251.966976 92.597799 
L 253.223596 90.343795 
L 254.061342 87.219459 
L 254.480215 84.885327 
L 254.899089 81.298464 
L 256.155708 79.716101 
L 256.574581 79.676363 
L 256.993455 89.154906 
L 259.087821 97.456936 
L 259.506694 91.834955 
L 259.925567 93.903949 
L 260.34444 91.003059 
L 260.763313 85.661199 
L 262.019933 84.955032 
L 262.438806 83.289284 
L 262.857679 86.809048 
L 263.276552 87.938655 
L 263.695426 90.912508 
L 264.952045 90.559424 
L 265.370918 87.138028 
L 265.789792 93.416667 
L 266.208665 89.16142 
L 266.627538 89.412227 
L 268.303031 91.655156 
L 268.721904 92.806913 
L 269.140777 98.252352 
L 269.55965 98.730514 
L 270.81627 99.227567 
L 271.235143 92.421257 
L 272.072889 98.331177 
L 272.491763 94.563864 
L 273.748382 91.276015 
L 274.167255 91.825835 
L 274.586128 92.567832 
L 275.005002 92.338523 
L 275.423875 90.007649 
L 276.680494 92.049281 
L 277.099368 94.175602 
L 277.518241 97.456285 
L 277.937114 97.076492 
L 278.355987 105.035211 
L 279.612607 104.073024 
L 280.03148 107.830566 
L 280.450353 112.737911 
L 280.869226 108.75106 
L 281.288099 117.251782 
L 282.544719 121.156551 
L 282.963592 118.419174 
L 283.382465 126.596127 
L 283.801339 125.664559 
L 284.220212 132.761414 
L 285.476831 129.951726 
L 285.895705 117.79574 
L 286.314578 115.784725 
L 286.733451 118.086285 
L 287.152324 117.897365 
L 288.408944 111.932723 
L 288.827817 113.960024 
L 289.24669 112.152912 
L 289.665563 119.441944 
L 290.084436 118.204196 
L 291.341056 112.982855 
L 291.759929 112.85452 
L 292.178802 118.161852 
L 292.597676 120.404782 
L 293.016549 119.730535 
L 294.273168 119.410675 
L 295.110915 126.016991 
L 295.529788 128.811695 
L 295.948661 121.302475 
L 297.205281 123.096558 
L 297.624154 125.134281 
L 298.4619 119.738352 
L 303.069505 120.974146 
L 303.488378 122.048381 
L 303.907252 121.011278 
L 304.326125 118.075861 
L 304.744998 119.547478 
L 306.001618 123.293946 
L 306.420491 124.140174 
L 306.839364 130.873523 
L 307.67711 139.582708 
L 308.93373 148.454102 
L 309.771476 139.284345 
L 310.190349 137.148253 
L 310.609223 130.308719 
L 311.865842 124.45352 
L 312.284715 126.878203 
L 312.703589 127.589582 
L 313.122462 132.356214 
L 313.541335 126.628699 
L 314.797955 118.589852 
L 315.635701 115.829675 
L 316.054574 118.321457 
L 316.473447 119.111661 
L 317.730067 115.459002 
L 318.14894 113.02585 
L 318.567813 111.378343 
L 318.986686 115.425127 
L 319.40556 111.902105 
L 320.662179 108.381038 
L 321.081052 111.06174 
L 321.499926 116.218588 
L 321.918799 112.012851 
L 322.337672 117.362528 
L 323.594292 117.626363 
L 324.013165 115.545644 
L 324.850911 119.633469 
L 325.269784 116.40881 
L 326.526404 117.428975 
L 326.945277 125.362939 
L 327.36415 123.330427 
L 327.783023 123.523906 
L 328.201897 124.676315 
L 329.458516 119.98981 
L 329.877389 119.735095 
L 330.296263 123.607291 
L 330.715136 125.411146 
L 331.134009 128.033869 
L 332.390628 134.195899 
L 332.809502 133.770504 
L 333.228375 140.430239 
L 333.647248 137.980801 
L 334.066121 142.215202 
L 335.322741 142.096639 
L 335.741614 147.577907 
L 336.160487 144.674411 
L 336.998234 132.226577 
L 338.673726 134.343125 
L 339.092599 136.343717 
L 339.511473 139.015949 
L 339.930346 146.000104 
L 341.186965 154.61483 
L 341.605839 153.980972 
L 342.024712 156.666885 
L 342.443585 150.214962 
L 342.862458 152.600558 
L 344.119078 153.584893 
L 344.537951 154.881922 
L 344.956824 164.676417 
L 345.375697 165.699187 
L 345.794571 170.026745 
L 347.05119 189.971423 
L 347.888936 180.683102 
L 348.30781 169.426763 
L 349.983302 181.475261 
L 350.402176 191.024811 
L 350.821049 204.029633 
L 351.239922 206.282985 
L 351.658795 217.733456 
L 352.915415 236.078182 
L 353.334288 216.575836 
L 354.172034 190.474991 
L 358.779639 188.097863 
L 359.198513 187.028189 
L 359.617386 185.238666 
L 360.455132 175.324305 
L 361.711752 173.387556 
L 362.130625 164.356557 
L 362.549498 180.120253 
L 362.968371 167.576004 
L 363.387244 163.841263 
L 364.643864 162.121445 
L 365.062737 165.58779 
L 365.48161 165.175425 
L 365.900484 170.268431 
L 366.319357 165.897878 
L 367.99485 157.690307 
L 368.413723 156.034331 
L 368.832596 158.322862 
L 369.251469 153.828534 
L 370.508089 147.811125 
L 370.926962 150.451437 
L 371.345835 147.085414 
L 371.764708 147.14209 
L 372.183581 151.207114 
L 373.440201 159.664189 
L 373.859074 160.856987 
L 374.277947 172.68204 
L 374.696821 165.124612 
L 375.115694 161.279776 
L 376.372313 153.605739 
L 377.21006 157.392596 
L 379.304426 163.973506 
L 379.723299 159.478527 
L 380.142172 166.114159 
L 380.561045 165.275747 
L 380.979918 167.956449 
L 382.236538 171.295762 
L 382.655411 185.682952 
L 383.074284 171.299019 
L 383.493157 171.347226 
L 383.912031 172.801906 
L 385.16865 173.994704 
L 385.587523 175.795953 
L 386.006397 170.116644 
L 386.42527 169.570732 
L 386.844143 162.929238 
L 388.100763 154.506689 
L 388.519636 157.620602 
L 391.451748 149.287954 
L 391.870621 155.064979 
L 392.289494 149.190888 
L 392.708368 152.617495 
L 393.964987 156.098173 
L 394.38386 154.086507 
L 394.802734 157.633631 
L 395.221607 158.173029 
L 395.64048 153.334086 
L 396.8971 151.148484 
L 397.315973 155.059767 
L 397.734846 154.869545 
L 398.153719 163.132489 
L 398.572592 167.217708 
L 399.829212 163.666675 
L 400.248085 167.353209 
L 400.666958 167.143444 
L 401.085831 168.247645 
L 401.504705 166.885471 
L 402.761324 171.48403 
L 403.180197 169.588973 
L 403.599071 174.124342 
L 404.017944 181.500016 
L 404.436817 180.01993 
L 406.11231 177.066924 
L 406.531183 175.924287 
L 406.950056 178.283826 
L 407.368929 178.257116 
L 408.625549 178.040836 
L 409.044422 175.221377 
L 409.463295 179.603004 
L 409.882168 186.368274 
L 410.301042 186.421041 
L 411.557661 197.336022 
L 411.976534 199.952882 
L 412.395407 190.912763 
L 412.814281 198.879299 
L 413.233154 196.801185 
L 414.489773 193.917884 
L 415.32752 198.681259 
L 415.746393 205.538382 
L 416.165266 202.351507 
L 417.421886 209.962354 
L 417.840759 203.245943 
L 418.259632 204.508446 
L 418.678505 196.957532 
L 420.353998 201.256426 
L 420.772871 200.662307 
L 421.191744 203.339751 
L 421.610618 202.24467 
L 422.029491 201.65902 
L 423.28611 201.303982 
L 423.704984 209.89786 
L 424.123857 214.063208 
L 424.54273 213.961582 
L 424.961603 209.433379 
L 426.218223 210.503705 
L 426.637096 209.40667 
L 427.055969 197.251334 
L 427.474842 197.954245 
L 427.893715 202.410137 
L 429.150335 210.951249 
L 429.569208 206.314906 
L 429.988081 206.740952 
L 430.406955 206.996319 
L 430.825828 209.389732 
L 432.082447 211.256126 
L 432.501321 209.725879 
L 432.920194 212.873015 
L 433.339067 210.099809 
L 433.75794 212.458044 
L 435.01456 211.939493 
L 435.433433 217.431836 
L 435.852306 219.453925 
L 436.271179 223.129385 
L 436.690052 222.901379 
L 437.946672 221.758091 
L 438.365545 225.224436 
L 438.784418 224.516314 
L 439.622165 214.173302 
L 440.878784 220.479953 
L 441.297657 217.881334 
L 441.716531 219.290412 
L 442.135404 216.944554 
L 442.554277 222.061665 
L 443.810897 224.191894 
L 444.22977 223.406901 
L 444.648643 223.509178 
L 445.067516 224.634226 
L 445.486389 228.25301 
L 447.580755 229.168943 
L 447.999628 223.752819 
L 448.418502 224.984704 
L 449.675121 224.608819 
L 450.093994 213.310787 
L 450.512868 210.463967 
L 450.931741 198.225247 
L 451.350614 181.13716 
L 452.607234 143.849029 
L 455.958219 111.722306 
L 456.377092 142.640596 
L 456.795965 147.386382 
L 457.214839 162.875819 
L 458.471458 149.912039 
L 458.890331 156.985442 
L 459.309205 155.873424 
L 459.728078 157.087719 
L 460.146951 141.204157 
L 461.822444 132.1243 
L 462.241317 131.162113 
L 462.66019 133.89493 
L 463.079063 126.515347 
L 464.335683 119.533147 
L 464.754556 125.933606 
L 465.173429 123.62032 
L 465.592302 117.281097 
L 466.011176 129.426009 
L 467.267795 121.421038 
L 467.686668 107.517221 
L 468.105542 105.781117 
L 468.524415 98.567652 
L 468.943288 97.316876 
L 470.199907 87.16148 
L 470.618781 92.831668 
L 471.037654 93.976911 
L 471.456527 107.149154 
L 471.8754 116.704567 
L 473.13202 126.538148 
L 473.969766 108.542597 
L 474.388639 107.802554 
L 474.807513 122.894609 
L 476.064132 121.48488 
L 476.483005 126.081484 
L 476.901879 117.150808 
L 477.320752 119.272568 
L 477.739625 112.560066 
L 478.996244 104.450863 
L 479.415118 105.123807 
L 479.833991 111.53013 
L 480.671737 102.105005 
L 481.928357 105.124459 
L 482.34723 101.297212 
L 482.766103 95.737118 
L 483.184976 92.950231 
L 483.60385 101.755179 
L 484.860469 106.801933 
L 485.279342 115.503952 
L 485.698215 112.120991 
L 486.117089 111.383554 
L 486.535962 107.177817 
L 487.792581 118.60223 
L 488.211455 114.173698 
L 488.630328 118.712324 
L 489.049201 114.428414 
L 489.468074 113.704006 
L 490.724694 115.374314 
L 491.143567 127.635184 
L 491.981313 138.099364 
L 492.400186 149.296422 
L 493.656806 150.415607 
L 494.075679 144.942807 
L 494.494552 146.914084 
L 494.913426 146.197493 
L 495.332299 154.526884 
L 496.588918 153.57903 
L 497.007792 137.189946 
L 497.426665 139.501277 
L 497.845538 137.824454 
L 498.264411 135.201732 
L 499.521031 132.753597 
L 499.939904 130.872871 
L 500.358777 134.278632 
L 500.77765 136.018645 
L 501.196523 128.911367 
L 502.453143 134.908581 
L 506.223002 132.604415 
L 506.641875 122.155869 
L 507.060748 116.148232 
L 508.317368 111.164668 
L 508.736241 112.492316 
L 509.155114 106.340057 
L 509.573987 111.037636 
L 509.99286 108.670932 
L 511.24948 106.538097 
L 511.668353 115.621212 
L 512.087226 106.08469 
L 512.5061 103.095855 
L 512.924973 95.615949 
L 514.181592 94.65246 
L 514.600465 96.514945 
L 515.019339 90.718377 
L 515.438212 92.339175 
L 515.857085 107.26446 
L 517.113705 107.05274 
L 517.532578 101.583197 
L 517.951451 98.937674 
L 518.370324 90.030449 
L 518.789197 91.803035 
L 520.045817 90.942474 
L 520.46469 88.938625 
L 520.883563 87.945821 
L 521.302436 94.468101 
L 521.72131 87.672214 
L 522.977929 86.473553 
L 523.396802 85.016919 
L 523.815676 88.095003 
L 524.234549 90.024586 
L 524.653422 98.457558 
L 525.910042 101.406655 
L 526.328915 104.636525 
L 526.747788 103.063283 
L 527.166661 103.463271 
L 527.585534 107.401263 
L 528.842154 110.11584 
L 529.261027 107.977142 
L 529.6799 106.819522 
L 530.098773 111.639573 
L 531.774266 157.685096 
L 532.193139 155.497539 
L 533.030886 138.913672 
L 533.449759 133.858449 
L 534.706379 128.885309 
L 535.125252 130.481352 
L 535.544125 135.606931 
L 535.962998 135.332672 
L 536.381871 135.84536 
L 537.638491 127.966118 
L 538.057364 128.18305 
L 538.476237 125.885399 
L 538.89511 130.061169 
L 539.313984 128.822119 
L 540.570603 132.889749 
L 540.989476 131.175142 
L 541.40835 128.130283 
L 541.40835 128.130283 
" clip-path="url(#p5151fe4520)" style="fill: none; stroke: #0000ff; stroke-width: 1.5; stroke-linecap: square"/>
   </g>
   <g id="line2d_19">
    <path d="M 80.228969 119.623526 
L 80.647842 136.748578 
L 81.066715 148.183114 
L 81.485589 142.994732 
L 81.904462 143.560963 
L 84.417701 135.825452 
L 84.836574 132.755162 
L 86.093194 136.606233 
L 86.512067 137.035526 
L 87.349813 134.039637 
L 87.768686 133.502925 
L 89.444179 133.741365 
L 89.863052 133.443506 
L 90.281926 132.83532 
L 91.957418 127.173686 
L 92.376291 122.64798 
L 92.795165 127.562009 
L 93.632911 123.634628 
L 94.889531 120.784074 
L 95.727277 111.263129 
L 96.14615 110.340035 
L 97.821643 109.000213 
L 98.240516 104.135201 
L 98.659389 102.722886 
L 99.078263 102.083399 
L 99.497136 104.970089 
L 100.753755 96.090349 
L 101.172628 90.252398 
L 101.591502 87.840838 
L 102.429248 85.242274 
L 103.685868 83.360141 
L 104.104741 79.933114 
L 104.523614 80.57963 
L 104.942487 83.023062 
L 105.36136 79.143458 
L 106.61798 74.642913 
L 107.455726 66.003075 
L 107.874599 68.7972 
L 108.293473 67.362969 
L 109.550092 67.34681 
L 109.968965 65.11777 
L 110.387839 65.28922 
L 110.806712 68.126605 
L 111.225585 67.040077 
L 112.482205 68.259916 
L 113.319951 75.78113 
L 113.738824 75.616647 
L 114.157697 72.329547 
L 115.414317 72.233961 
L 116.670936 61.564589 
L 117.08981 60.394339 
L 118.346429 61.337505 
L 118.765302 64.679125 
L 119.184176 64.248242 
L 119.603049 62.353004 
L 120.021922 59.580477 
L 121.278541 59.845413 
L 121.697415 58.409846 
L 122.116288 62.42028 
L 122.535161 63.796873 
L 122.954034 63.436956 
L 124.210654 59.747442 
L 124.629527 56.446219 
L 125.0484 54.375937 
L 125.467273 53.727099 
L 125.886147 49.811455 
L 127.142766 49.647957 
L 127.980513 46.788337 
L 128.399386 46.657571 
L 128.818259 47.006896 
L 130.074878 50.897093 
L 130.493752 51.404063 
L 130.912625 51.692792 
L 131.331498 58.698925 
L 131.750371 61.883918 
L 133.006991 64.442212 
L 133.425864 64.191017 
L 133.844737 65.149038 
L 134.26361 71.136141 
L 134.682484 75.024778 
L 135.939103 75.570874 
L 136.357976 76.070241 
L 136.776849 72.985987 
L 137.195723 71.107767 
L 137.614596 73.492957 
L 139.290089 68.811387 
L 139.708962 68.504272 
L 140.127835 71.567692 
L 140.546708 79.071665 
L 141.803328 86.512339 
L 142.222201 92.280883 
L 142.641074 92.305853 
L 143.059947 92.704419 
L 143.47882 92.430003 
L 144.73544 96.204574 
L 145.154313 99.942024 
L 145.573186 97.197139 
L 145.99206 102.315795 
L 146.410933 103.577336 
L 150.599665 108.057651 
L 151.018538 114.76214 
L 151.437411 116.417634 
L 152.275157 108.480646 
L 153.531777 102.177777 
L 153.95065 98.132575 
L 154.369523 95.552905 
L 154.788397 96.761071 
L 155.20727 98.587124 
L 156.463889 99.539133 
L 157.301636 103.096386 
L 157.720509 99.162547 
L 158.139382 98.501558 
L 159.396002 104.166691 
L 159.814875 105.448208 
L 160.652621 93.768013 
L 161.071494 90.738056 
L 162.746987 84.159117 
L 163.16586 85.08183 
L 163.584734 83.487886 
L 164.003607 85.254838 
L 165.260226 83.213343 
L 165.679099 83.688568 
L 166.097973 78.710571 
L 166.516846 78.537403 
L 166.935719 79.061041 
L 168.192339 80.952939 
L 168.611212 81.366009 
L 169.030085 84.574828 
L 169.448958 86.282584 
L 169.867831 86.363315 
L 171.124451 88.668028 
L 171.543324 90.170681 
L 172.38107 84.166688 
L 172.799944 78.957535 
L 174.056563 76.095689 
L 174.475436 73.112555 
L 174.89431 73.372815 
L 175.313183 74.33443 
L 175.732056 76.825385 
L 176.988676 76.663732 
L 177.407549 77.90183 
L 178.245295 83.616998 
L 179.920788 87.019278 
L 180.339661 92.229925 
L 181.596281 101.896013 
L 182.8529 103.357664 
L 183.690647 96.900203 
L 184.528393 98.268749 
L 186.203886 98.456581 
L 186.622759 93.064654 
L 187.460505 88.341319 
L 188.717125 87.153098 
L 189.135998 86.127102 
L 189.554871 86.237383 
L 189.973744 87.727248 
L 190.392618 90.771805 
L 191.649237 91.521477 
L 192.06811 89.132756 
L 192.486984 88.317303 
L 192.905857 87.838516 
L 193.32473 86.664354 
L 197.513462 84.337501 
L 198.351208 77.190296 
L 198.770081 70.798298 
L 199.188955 67.359343 
L 200.445574 67.001588 
L 200.864447 68.898575 
L 201.28332 69.428957 
L 201.702194 71.36262 
L 202.121067 68.713416 
L 203.377686 71.74913 
L 203.79656 70.056133 
L 204.215433 69.512964 
L 204.634306 68.649734 
L 205.053179 69.731078 
L 206.309799 71.98372 
L 207.147545 68.822648 
L 207.566418 68.540948 
L 207.985292 69.294183 
L 209.241911 70.618196 
L 209.660784 72.566428 
L 210.079657 71.06139 
L 210.498531 70.376862 
L 210.917404 71.341753 
L 212.592897 72.52603 
L 213.01177 76.688097 
L 213.430643 77.549514 
L 213.849516 73.043911 
L 215.106136 74.771389 
L 215.525009 74.500536 
L 215.943882 76.357285 
L 216.362755 75.992341 
L 216.781628 79.412084 
L 218.038248 78.956263 
L 218.457121 78.217247 
L 219.294868 73.571016 
L 219.713741 71.87134 
L 220.97036 70.892357 
L 221.389234 69.492702 
L 222.645853 74.781122 
L 223.902473 73.290589 
L 224.321346 69.007744 
L 225.577965 65.953994 
L 226.834585 65.131607 
L 227.253458 67.653893 
L 227.672331 68.25804 
L 228.091205 67.085214 
L 228.510078 68.85681 
L 229.766697 68.482928 
L 230.18557 69.344886 
L 231.44219 73.588098 
L 232.69881 79.112572 
L 233.536556 87.488332 
L 233.955429 88.226553 
L 234.374302 88.485127 
L 236.887542 85.703089 
L 237.306415 83.490271 
L 238.563034 85.421739 
L 238.981907 84.301398 
L 239.400781 86.135118 
L 240.238527 88.385215 
L 241.495147 91.566392 
L 241.91402 91.19356 
L 242.332893 93.276979 
L 242.751766 93.365439 
L 243.170639 92.89101 
L 244.427259 92.640292 
L 244.846132 93.267341 
L 245.265005 96.033856 
L 245.683878 98.031487 
L 246.102752 99.258419 
L 247.778244 98.211716 
L 248.197118 96.896004 
L 249.034864 91.155802 
L 250.710357 86.3977 
L 251.12923 90.365956 
L 251.548103 92.411809 
L 251.966976 95.435721 
L 253.223596 93.756466 
L 254.061342 90.713945 
L 254.899089 88.187523 
L 256.155708 86.230131 
L 256.574581 85.057941 
L 256.993455 85.140326 
L 259.087821 89.800807 
L 259.506694 95.384827 
L 259.925567 94.837428 
L 260.34444 95.39736 
L 260.763313 93.95629 
L 262.019933 91.117823 
L 262.857679 87.279538 
L 263.695426 89.410321 
L 264.952045 91.055095 
L 265.370918 90.306568 
L 265.789792 88.083285 
L 266.208665 89.584284 
L 266.627538 87.754572 
L 267.884157 86.964217 
L 268.721904 88.279801 
L 269.140777 89.790151 
L 269.55965 93.132471 
L 270.81627 94.695751 
L 271.235143 95.587418 
L 271.654016 91.762716 
L 272.072889 90.649596 
L 272.491763 91.304891 
L 273.748382 89.114275 
L 274.167255 85.457397 
L 274.586128 83.413548 
L 275.005002 82.997011 
L 275.423875 83.32741 
L 276.680494 82.018442 
L 277.099368 83.234623 
L 277.518241 85.440698 
L 277.937114 90.991987 
L 278.355987 94.345185 
L 280.03148 101.454283 
L 280.869226 108.075655 
L 281.288099 109.313498 
L 282.544719 114.287042 
L 282.963592 117.961447 
L 283.382465 117.539216 
L 283.801339 121.38927 
L 285.476831 124.164564 
L 285.895705 119.499535 
L 286.314578 110.720279 
L 286.733451 106.820635 
L 288.408944 110.473537 
L 288.827817 109.556359 
L 289.24669 111.028412 
L 289.665563 111.69115 
L 290.084436 116.166853 
L 291.341056 118.035626 
L 291.759929 116.249429 
L 292.178802 115.788136 
L 293.016549 120.459686 
L 294.273168 120.952025 
L 294.692042 120.805386 
L 295.110915 120.894355 
L 295.529788 121.571439 
L 295.948661 122.78778 
L 297.624154 118.008016 
L 298.043027 118.629021 
L 298.4619 117.539789 
L 303.488378 115.413745 
L 303.907252 115.478954 
L 304.326125 114.92462 
L 304.744998 113.552734 
L 306.001618 117.042075 
L 307.67711 132.473971 
L 308.93373 136.317567 
L 309.352603 141.773366 
L 309.771476 140.784427 
L 310.190349 138.065339 
L 310.609223 136.112177 
L 311.865842 131.74647 
L 312.284715 127.197829 
L 312.703589 127.032327 
L 313.122462 127.972948 
L 313.541335 131.035509 
L 314.797955 129.709619 
L 315.216828 125.259586 
L 316.054574 121.11021 
L 316.473447 120.788113 
L 317.730067 121.570103 
L 318.986686 116.337826 
L 319.40556 117.873718 
L 320.662179 117.073566 
L 321.081052 114.628893 
L 321.499926 114.099656 
L 321.918799 115.711795 
L 322.337672 114.359026 
L 324.013165 117.070766 
L 324.432038 116.294725 
L 324.850911 116.8322 
L 325.269784 117.941471 
L 326.526404 116.722014 
L 326.945277 116.678086 
L 327.36415 120.315338 
L 327.783023 120.247267 
L 328.201897 119.888049 
L 329.458516 120.371067 
L 329.877389 118.694738 
L 330.296263 118.923667 
L 331.134009 123.784098 
L 332.390628 126.09282 
L 332.809502 129.964885 
L 333.228375 131.558797 
L 333.647248 135.607974 
L 334.066121 136.137497 
L 335.322741 138.189871 
L 335.741614 139.192487 
L 336.160487 142.342332 
L 336.57936 142.43391 
L 336.998234 138.691943 
L 338.673726 134.546225 
L 339.092599 134.030953 
L 339.511473 135.312215 
L 339.930346 137.672563 
L 341.186965 141.816563 
L 341.605839 148.603945 
L 342.443585 154.319432 
L 342.862458 152.315662 
L 344.119078 153.479645 
L 344.956824 155.897439 
L 345.375697 161.140023 
L 345.794571 163.274082 
L 347.05119 166.016041 
L 347.470063 176.372732 
L 347.888936 177.132233 
L 348.30781 174.608928 
L 348.726683 167.114911 
L 349.983302 165.3311 
L 350.402176 169.824075 
L 350.821049 177.104909 
L 351.239922 186.693065 
L 351.658795 191.148983 
L 352.915415 198.223982 
L 353.334288 210.143126 
L 353.753161 201.51 
L 354.172034 188.987664 
L 358.779639 177.018612 
L 359.198513 172.132574 
L 359.617386 172.225042 
L 360.036259 172.986484 
L 360.455132 172.330362 
L 362.130625 170.184342 
L 362.549498 166.552721 
L 362.968371 172.86402 
L 363.387244 169.315419 
L 364.643864 167.750962 
L 365.062737 167.713968 
L 365.48161 170.354902 
L 365.900484 171.743424 
L 366.319357 174.93252 
L 367.575976 173.738764 
L 368.832596 162.588059 
L 369.251469 162.114934 
L 370.508089 159.365245 
L 370.926962 154.378119 
L 371.345835 152.276378 
L 371.764708 149.011099 
L 372.183581 147.00224 
L 373.440201 147.23365 
L 373.859074 151.083608 
L 374.277947 153.160029 
L 374.696821 159.752773 
L 375.115694 157.838736 
L 376.372313 154.725918 
L 376.791186 150.305435 
L 377.21006 150.026153 
L 379.304426 151.830767 
L 379.723299 156.422541 
L 380.142172 157.112794 
L 380.561045 161.50398 
L 380.979918 157.888963 
L 382.236538 158.491328 
L 382.655411 160.37416 
L 383.074284 168.159706 
L 383.493157 163.134314 
L 383.912031 161.132802 
L 385.16865 161.80273 
L 385.587523 163.498048 
L 386.006397 165.901815 
L 386.42527 164.137662 
L 386.844143 163.321764 
L 388.100763 158.534652 
L 388.519636 150.194104 
L 391.032875 149.540654 
L 391.451748 146.225498 
L 391.870621 145.371239 
L 392.289494 149.057858 
L 392.708368 147.886782 
L 393.964987 149.439374 
L 394.38386 151.829368 
L 394.802734 151.809773 
L 395.221607 153.713122 
L 395.64048 154.300092 
L 396.8971 151.249078 
L 397.315973 147.86318 
L 397.734846 148.647142 
L 398.153719 148.82823 
L 398.572592 153.283543 
L 399.829212 157.236785 
L 400.248085 156.972612 
L 400.666958 158.952589 
L 401.085831 159.913027 
L 401.504705 161.160667 
L 402.761324 160.569212 
L 403.180197 162.686094 
L 403.599071 162.74879 
L 404.017944 165.519408 
L 404.436817 170.312978 
L 406.11231 171.556101 
L 406.531183 170.536053 
L 407.368929 177.43868 
L 409.044422 178.777326 
L 409.463295 177.155358 
L 409.882168 178.731394 
L 410.301042 183.489782 
L 411.557661 186.155908 
L 411.976534 193.561211 
L 412.395407 197.770705 
L 412.814281 194.150407 
L 413.233154 196.877575 
L 414.489773 195.336847 
L 414.908647 192.82738 
L 415.32752 192.97685 
L 415.746393 194.254804 
L 416.165266 198.575025 
L 417.421886 198.457396 
L 417.840759 202.422661 
L 418.259632 199.610405 
L 418.678505 198.988477 
L 419.097378 194.736645 
L 420.353998 194.176331 
L 420.772871 196.632551 
L 421.191744 197.889511 
L 421.610618 200.204881 
L 422.029491 200.924939 
L 423.28611 201.067252 
L 423.704984 201.263163 
L 424.54273 210.062936 
L 424.961603 211.451331 
L 426.637096 208.825729 
L 427.055969 202.16555 
L 427.474842 186.109849 
L 427.893715 174.944321 
L 429.150335 169.220437 
L 429.569208 168.468316 
L 429.988081 163.118696 
L 430.406955 159.474541 
L 430.825828 157.170527 
L 432.082447 160.290216 
L 432.501321 162.626357 
L 432.920194 162.641403 
L 433.339067 164.415131 
L 433.75794 162.870745 
L 435.01456 163.304809 
L 435.433433 162.774428 
L 436.690052 171.104033 
L 437.946672 172.219317 
L 438.365545 172.034539 
L 438.784418 172.397574 
L 439.203292 171.695742 
L 439.622165 168.151118 
L 440.878784 161.722794 
L 441.297657 164.492554 
L 441.716531 165.661881 
L 442.135404 168.36007 
L 442.554277 168.9764 
L 443.810897 172.852759 
L 444.22977 173.285678 
L 444.648643 172.330552 
L 445.067516 171.700068 
L 445.486389 172.022801 
L 447.580755 174.310943 
L 447.999628 176.049394 
L 448.418502 173.067946 
L 450.093994 172.60589 
L 450.931741 155.085708 
L 451.350614 142.552239 
L 452.607234 124.413437 
L 455.958219 88.311451 
L 456.377092 54.134062 
L 456.795965 64.421982 
L 457.214839 78.556107 
L 458.471458 100.31069 
L 458.890331 103.763482 
L 459.309205 108.7786 
L 459.728078 110.182581 
L 460.146951 110.429895 
L 461.403571 98.699378 
L 461.822444 88.94572 
L 462.241317 84.724679 
L 462.66019 83.668369 
L 463.079063 88.050331 
L 464.335683 93.102857 
L 464.754556 94.275555 
L 465.173429 100.048934 
L 465.592302 103.597026 
L 466.011176 102.358101 
L 467.267795 108.107528 
L 467.686668 108.984881 
L 468.105542 102.598481 
L 468.943288 94.851456 
L 470.199907 92.084686 
L 470.618781 86.038959 
L 471.037654 86.920797 
L 471.456527 89.088828 
L 471.8754 96.594551 
L 473.13202 103.662361 
L 473.550893 108.61822 
L 473.969766 104.347652 
L 474.388639 97.250801 
L 474.807513 92.514869 
L 476.064132 96.089712 
L 476.483005 96.706392 
L 476.901879 100.274682 
L 477.320752 95.834923 
L 478.996244 88.682724 
L 479.415118 81.787287 
L 479.833991 80.347997 
L 480.252864 85.088955 
L 480.671737 85.485198 
L 481.928357 83.627654 
L 483.184976 75.440425 
L 483.60385 74.722021 
L 484.860469 79.955476 
L 485.698215 94.073474 
L 486.117089 95.132805 
L 486.535962 94.156336 
L 487.792581 90.1042 
L 488.211455 92.973522 
L 488.630328 91.162609 
L 489.049201 91.927359 
L 489.468074 89.056415 
L 490.724694 86.529643 
L 491.143567 86.218107 
L 491.981313 91.951152 
L 492.400186 99.545272 
L 493.656806 108.102788 
L 494.075679 112.122256 
L 494.494552 111.136021 
L 494.913426 111.983601 
L 495.332299 114.04275 
L 497.007792 120.804558 
L 497.426665 111.528543 
L 498.264411 106.776548 
L 499.521031 105.390125 
L 500.358777 102.128409 
L 500.77765 104.218572 
L 501.196523 105.597742 
L 502.453143 102.623197 
L 506.223002 104.962805 
L 506.641875 104.288424 
L 507.060748 97.094555 
L 508.317368 89.73878 
L 508.736241 83.985377 
L 509.155114 81.548402 
L 509.573987 76.699803 
L 509.99286 76.524218 
L 511.24948 74.331503 
L 511.668353 72.299996 
L 512.087226 78.360737 
L 512.5061 77.01926 
L 514.181592 69.627413 
L 514.600465 68.322898 
L 515.019339 69.759929 
L 515.438212 67.33011 
L 515.857085 66.699308 
L 517.113705 73.364417 
L 517.532578 74.917805 
L 517.951451 72.809511 
L 518.370324 69.782227 
L 518.789197 61.484907 
L 520.045817 57.39247 
L 520.46469 55.60939 
L 520.883563 54.541216 
L 521.302436 52.923606 
L 521.72131 55.782526 
L 523.396802 52.714335 
L 523.815676 52.386767 
L 524.653422 55.70329 
L 525.910042 59.906327 
L 526.747788 64.990057 
L 527.585534 66.191765 
L 528.842154 68.14041 
L 529.261027 71.279376 
L 530.098773 73.845972 
L 531.774266 77.861432 
L 532.193139 102.22549 
L 532.612013 107.144959 
L 533.030886 102.865294 
L 533.449759 93.440381 
L 534.706379 88.640959 
L 535.125252 86.450089 
L 535.544125 88.803948 
L 535.962998 94.318879 
L 536.381871 97.475976 
L 537.638491 100.461114 
L 538.057364 98.642981 
L 538.476237 98.671291 
L 538.89511 97.451483 
L 539.313984 99.51394 
L 540.570603 99.761827 
L 540.989476 102.294611 
L 541.40835 102.447675 
L 541.40835 102.447675 
" clip-path="url(#p5151fe4520)" style="fill: none; stroke-dasharray: 5.55,2.4; stroke-dashoffset: 0; stroke: #ff0000; stroke-width: 1.5"/>
   </g>
   <g id="patch_3">
    <path d="M 57.17 246.04 
L 57.17 26.88 
" style="fill: none; stroke: #000000; stroke-width: 0.8; stroke-linejoin: miter; stroke-linecap: square"/>
   </g>
   <g id="patch_4">
    <path d="M 564.467319 246.04 
L 564.467319 26.88 
" style="fill: none; stroke: #000000; stroke-width: 0.8; stroke-linejoin: miter; stroke-linecap: square"/>
   </g>
   <g id="patch_5">
    <path d="M 57.17 246.04 
L 564.467319 246.04 
" style="fill: none; stroke: #000000; stroke-width: 0.8; stroke-linejoin: miter; stroke-linecap: square"/>
   </g>
   <g id="patch_6">
    <path d="M 57.17 26.88 
L 564.467319 26.88 
" style="fill: none; stroke: #000000; stroke-width: 0.8; stroke-linejoin: miter; stroke-linecap: square"/>
   </g>
   <g id="text_20">
    <!-- Real vs Predicted Stock Prices -->
    <g transform="translate(221.046472 20.88) scale(0.12 -0.12)">
     <defs>
      <path id="DejaVuSans-52" d="M 2841 2188 
Q 3044 2119 3236 1894 
Q 3428 1669 3622 1275 
L 4263 0 
L 3584 0 
L 2988 1197 
Q 2756 1666 2539 1819 
Q 2322 1972 1947 1972 
L 1259 1972 
L 1259 0 
L 628 0 
L 628 4666 
L 2053 4666 
Q 2853 4666 3247 4331 
Q 3641 3997 3641 3322 
Q 3641 2881 3436 2590 
Q 3231 2300 2841 2188 
z
M 1259 4147 
L 1259 2491 
L 2053 2491 
Q 2509 2491 2742 2702 
Q 2975 2913 2975 3322 
Q 2975 3731 2742 3939 
Q 2509 4147 2053 4147 
L 1259 4147 
z
" transform="scale(0.015625)"/>
      <path id="DejaVuSans-6c" d="M 603 4863 
L 1178 4863 
L 1178 0 
L 603 0 
L 603 4863 
z
" transform="scale(0.015625)"/>
      <path id="DejaVuSans-76" d="M 191 3500 
L 800 3500 
L 1894 563 
L 2988 3500 
L 3597 3500 
L 2284 0 
L 1503 0 
L 191 3500 
z
" transform="scale(0.015625)"/>
      <path id="DejaVuSans-73" d="M 2834 3397 
L 2834 2853 
Q 2591 2978 2328 3040 
Q 2066 3103 1784 3103 
Q 1356 3103 1142 2972 
Q 928 2841 928 2578 
Q 928 2378 1081 2264 
Q 1234 2150 1697 2047 
L 1894 2003 
Q 2506 1872 2764 1633 
Q 3022 1394 3022 966 
Q 3022 478 2636 193 
Q 2250 -91 1575 -91 
Q 1294 -91 989 -36 
Q 684 19 347 128 
L 347 722 
Q 666 556 975 473 
Q 1284 391 1588 391 
Q 1994 391 2212 530 
Q 2431 669 2431 922 
Q 2431 1156 2273 1281 
Q 2116 1406 1581 1522 
L 1381 1569 
Q 847 1681 609 1914 
Q 372 2147 372 2553 
Q 372 3047 722 3315 
Q 1072 3584 1716 3584 
Q 2034 3584 2315 3537 
Q 2597 3491 2834 3397 
z
" transform="scale(0.015625)"/>
      <path id="DejaVuSans-64" d="M 2906 2969 
L 2906 4863 
L 3481 4863 
L 3481 0 
L 2906 0 
L 2906 525 
Q 2725 213 2448 61 
Q 2172 -91 1784 -91 
Q 1150 -91 751 415 
Q 353 922 353 1747 
Q 353 2572 751 3078 
Q 1150 3584 1784 3584 
Q 2172 3584 2448 3432 
Q 2725 3281 2906 2969 
z
M 947 1747 
Q 947 1113 1208 752 
Q 1469 391 1925 391 
Q 2381 391 2643 752 
Q 2906 1113 2906 1747 
Q 2906 2381 2643 2742 
Q 2381 3103 1925 3103 
Q 1469 3103 1208 2742 
Q 947 2381 947 1747 
z
" transform="scale(0.015625)"/>
     </defs>
     <use xlink:href="#DejaVuSans-52"/>
     <use xlink:href="#DejaVuSans-65" transform="translate(64.982422 0)"/>
     <use xlink:href="#DejaVuSans-61" transform="translate(126.505859 0)"/>
     <use xlink:href="#DejaVuSans-6c" transform="translate(187.785156 0)"/>
     <use xlink:href="#DejaVuSans-20" transform="translate(215.568359 0)"/>
     <use xlink:href="#DejaVuSans-76" transform="translate(247.355469 0)"/>
     <use xlink:href="#DejaVuSans-73" transform="translate(306.535156 0)"/>
     <use xlink:href="#DejaVuSans-20" transform="translate(358.634766 0)"/>
     <use xlink:href="#DejaVuSans-50" transform="translate(390.421875 0)"/>
     <use xlink:href="#DejaVuSans-72" transform="translate(448.974609 0)"/>
     <use xlink:href="#DejaVuSans-65" transform="translate(487.837891 0)"/>
     <use xlink:href="#DejaVuSans-64" transform="translate(549.361328 0)"/>
     <use xlink:href="#DejaVuSans-69" transform="translate(612.837891 0)"/>
     <use xlink:href="#DejaVuSans-63" transform="translate(640.621094 0)"/>
     <use xlink:href="#DejaVuSans-74" transform="translate(695.601562 0)"/>
     <use xlink:href="#DejaVuSans-65" transform="translate(734.810547 0)"/>
     <use xlink:href="#DejaVuSans-64" transform="translate(796.333984 0)"/>
     <use xlink:href="#DejaVuSans-20" transform="translate(859.810547 0)"/>
     <use xlink:href="#DejaVuSans-53" transform="translate(891.597656 0)"/>
     <use xlink:href="#DejaVuSans-74" transform="translate(955.074219 0)"/>
     <use xlink:href="#DejaVuSans-6f" transform="translate(994.283203 0)"/>
     <use xlink:href="#DejaVuSans-63" transform="translate(1055.464844 0)"/>
     <use xlink:href="#DejaVuSans-6b" transform="translate(1110.445312 0)"/>
     <use xlink:href="#DejaVuSans-20" transform="translate(1168.355469 0)"/>
     <use xlink:href="#DejaVuSans-50" transform="translate(1200.142578 0)"/>
     <use xlink:href="#DejaVuSans-72" transform="translate(1258.695312 0)"/>
     <use xlink:href="#DejaVuSans-69" transform="translate(1299.808594 0)"/>
     <use xlink:href="#DejaVuSans-63" transform="translate(1327.591797 0)"/>
     <use xlink:href="#DejaVuSans-65" transform="translate(1382.572266 0)"/>
     <use xlink:href="#DejaVuSans-73" transform="translate(1444.095703 0)"/>
    </g>
   </g>
   <g id="legend_1">
    <g id="patch_7">
     <path d="M 64.17 241.04 
L 175.893438 241.04 
Q 177.893438 241.04 177.893438 239.04 
L 177.893438 210.68375 
Q 177.893438 208.68375 175.893438 208.68375 
L 64.17 208.68375 
Q 62.17 208.68375 62.17 210.68375 
L 62.17 239.04 
Q 62.17 241.04 64.17 241.04 
z
" style="fill: #ffffff; opacity: 0.8; stroke: #cccccc; stroke-linejoin: miter"/>
    </g>
    <g id="line2d_20">
     <path d="M 66.17 216.782187 
L 76.17 216.782187 
L 86.17 216.782187 
" style="fill: none; stroke: #0000ff; stroke-width: 1.5; stroke-linecap: square"/>
    </g>
    <g id="text_21">
     <!-- Real Prices -->
     <g transform="translate(94.17 220.282187) scale(0.1 -0.1)">
      <use xlink:href="#DejaVuSans-52"/>
      <use xlink:href="#DejaVuSans-65" transform="translate(64.982422 0)"/>
      <use xlink:href="#DejaVuSans-61" transform="translate(126.505859 0)"/>
      <use xlink:href="#DejaVuSans-6c" transform="translate(187.785156 0)"/>
      <use xlink:href="#DejaVuSans-20" transform="translate(215.568359 0)"/>
      <use xlink:href="#DejaVuSans-50" transform="translate(247.355469 0)"/>
      <use xlink:href="#DejaVuSans-72" transform="translate(305.908203 0)"/>
      <use xlink:href="#DejaVuSans-69" transform="translate(347.021484 0)"/>
      <use xlink:href="#DejaVuSans-63" transform="translate(374.804688 0)"/>
      <use xlink:href="#DejaVuSans-65" transform="translate(429.785156 0)"/>
      <use xlink:href="#DejaVuSans-73" transform="translate(491.308594 0)"/>
     </g>
    </g>
    <g id="line2d_21">
     <path d="M 66.17 231.460312 
L 76.17 231.460312 
L 86.17 231.460312 
" style="fill: none; stroke-dasharray: 5.55,2.4; stroke-dashoffset: 0; stroke: #ff0000; stroke-width: 1.5"/>
    </g>
    <g id="text_22">
     <!-- Predicted Prices -->
     <g transform="translate(94.17 234.960312) scale(0.1 -0.1)">
      <use xlink:href="#DejaVuSans-50"/>
      <use xlink:href="#DejaVuSans-72" transform="translate(58.552734 0)"/>
      <use xlink:href="#DejaVuSans-65" transform="translate(97.416016 0)"/>
      <use xlink:href="#DejaVuSans-64" transform="translate(158.939453 0)"/>
      <use xlink:href="#DejaVuSans-69" transform="translate(222.416016 0)"/>
      <use xlink:href="#DejaVuSans-63" transform="translate(250.199219 0)"/>
      <use xlink:href="#DejaVuSans-74" transform="translate(305.179688 0)"/>
      <use xlink:href="#DejaVuSans-65" transform="translate(344.388672 0)"/>
      <use xlink:href="#DejaVuSans-64" transform="translate(405.912109 0)"/>
      <use xlink:href="#DejaVuSans-20" transform="translate(469.388672 0)"/>
      <use xlink:href="#DejaVuSans-50" transform="translate(501.175781 0)"/>
      <use xlink:href="#DejaVuSans-72" transform="translate(559.728516 0)"/>
      <use xlink:href="#DejaVuSans-69" transform="translate(600.841797 0)"/>
      <use xlink:href="#DejaVuSans-63" transform="translate(628.625 0)"/>
      <use xlink:href="#DejaVuSans-65" transform="translate(683.605469 0)"/>
      <use xlink:href="#DejaVuSans-73" transform="translate(745.128906 0)"/>
     </g>
    </g>
   </g>
  </g>
 </g>
 <defs>
  <clipPath id="p5151fe4520">
   <rect x="57.17" y="26.88" width="507.297319" height="219.16"/>
  </clipPath>
 </defs>
</svg>
