<?xml version="1.0" encoding="utf-8" standalone="no"?>
<!DOCTYPE svg PUBLIC "-//W3C//DTD SVG 1.1//EN"
  "http://www.w3.org/Graphics/SVG/1.1/DTD/svg11.dtd">
<svg xmlns:xlink="http://www.w3.org/1999/xlink" width="1000.898125pt" height="855.43625pt" viewBox="0 0 1000.898125 855.43625" xmlns="http://www.w3.org/2000/svg" version="1.1">
 <metadata>
  <rdf:RDF xmlns:dc="http://purl.org/dc/elements/1.1/" xmlns:cc="http://creativecommons.org/ns#" xmlns:rdf="http://www.w3.org/1999/02/22-rdf-syntax-ns#">
   <cc:Work>
    <dc:type rdf:resource="http://purl.org/dc/dcmitype/StillImage"/>
    <dc:date>2025-05-01T22:47:43.080964</dc:date>
    <dc:format>image/svg+xml</dc:format>
    <dc:creator>
     <cc:Agent>
      <dc:title>Matplotlib v3.10.1, https://matplotlib.org/</dc:title>
     </cc:Agent>
    </dc:creator>
   </cc:Work>
  </rdf:RDF>
 </metadata>
 <defs>
  <style type="text/css">*{stroke-linejoin: round; stroke-linecap: butt}</style>
 </defs>
 <g id="figure_1">
  <g id="patch_1">
   <path d="M 0 855.43625 
L 1000.898125 855.43625 
L 1000.898125 0 
L 0 0 
z
" style="fill: #ffffff"/>
  </g>
  <g id="axes_1">
   <g id="patch_2">
    <path d="M 42.828125 271.811458 
L 993.698125 271.811458 
L 993.698125 22.318125 
L 42.828125 22.318125 
z
" style="fill: #ffffff"/>
   </g>
   <g id="matplotlib.axis_1">
    <g id="xtick_1">
     <g id="line2d_1">
      <defs>
       <path id="mbcc4e69dfb" d="M 0 0 
L 0 3.5 
" style="stroke: #000000; stroke-width: 0.8"/>
      </defs>
      <g>
       <use xlink:href="#mbcc4e69dfb" x="86.493468" y="271.811458" style="stroke: #000000; stroke-width: 0.8"/>
      </g>
     </g>
    </g>
    <g id="xtick_2">
     <g id="line2d_2">
      <g>
       <use xlink:href="#mbcc4e69dfb" x="248.989812" y="271.811458" style="stroke: #000000; stroke-width: 0.8"/>
      </g>
     </g>
    </g>
    <g id="xtick_3">
     <g id="line2d_3">
      <g>
       <use xlink:href="#mbcc4e69dfb" x="411.042177" y="271.811458" style="stroke: #000000; stroke-width: 0.8"/>
      </g>
     </g>
    </g>
    <g id="xtick_4">
     <g id="line2d_4">
      <g>
       <use xlink:href="#mbcc4e69dfb" x="573.094542" y="271.811458" style="stroke: #000000; stroke-width: 0.8"/>
      </g>
     </g>
    </g>
    <g id="xtick_5">
     <g id="line2d_5">
      <g>
       <use xlink:href="#mbcc4e69dfb" x="735.146907" y="271.811458" style="stroke: #000000; stroke-width: 0.8"/>
      </g>
     </g>
    </g>
    <g id="xtick_6">
     <g id="line2d_6">
      <g>
       <use xlink:href="#mbcc4e69dfb" x="897.643251" y="271.811458" style="stroke: #000000; stroke-width: 0.8"/>
      </g>
     </g>
    </g>
   </g>
   <g id="matplotlib.axis_2">
    <g id="ytick_1">
     <g id="line2d_7">
      <defs>
       <path id="m0944656953" d="M 0 0 
L -3.5 0 
" style="stroke: #000000; stroke-width: 0.8"/>
      </defs>
      <g>
       <use xlink:href="#m0944656953" x="42.828125" y="243.023766" style="stroke: #000000; stroke-width: 0.8"/>
      </g>
     </g>
     <g id="text_1">
      <!-- 99.0 -->
      <g transform="translate(13.5625 246.822985) scale(0.1 -0.1)">
       <defs>
        <path id="DejaVuSans-39" d="M 703 97 
L 703 672 
Q 941 559 1184 500 
Q 1428 441 1663 441 
Q 2288 441 2617 861 
Q 2947 1281 2994 2138 
Q 2813 1869 2534 1725 
Q 2256 1581 1919 1581 
Q 1219 1581 811 2004 
Q 403 2428 403 3163 
Q 403 3881 828 4315 
Q 1253 4750 1959 4750 
Q 2769 4750 3195 4129 
Q 3622 3509 3622 2328 
Q 3622 1225 3098 567 
Q 2575 -91 1691 -91 
Q 1453 -91 1209 -44 
Q 966 3 703 97 
z
M 1959 2075 
Q 2384 2075 2632 2365 
Q 2881 2656 2881 3163 
Q 2881 3666 2632 3958 
Q 2384 4250 1959 4250 
Q 1534 4250 1286 3958 
Q 1038 3666 1038 3163 
Q 1038 2656 1286 2365 
Q 1534 2075 1959 2075 
z
" transform="scale(0.015625)"/>
        <path id="DejaVuSans-2e" d="M 684 794 
L 1344 794 
L 1344 0 
L 684 0 
L 684 794 
z
" transform="scale(0.015625)"/>
        <path id="DejaVuSans-30" d="M 2034 4250 
Q 1547 4250 1301 3770 
Q 1056 3291 1056 2328 
Q 1056 1369 1301 889 
Q 1547 409 2034 409 
Q 2525 409 2770 889 
Q 3016 1369 3016 2328 
Q 3016 3291 2770 3770 
Q 2525 4250 2034 4250 
z
M 2034 4750 
Q 2819 4750 3233 4129 
Q 3647 3509 3647 2328 
Q 3647 1150 3233 529 
Q 2819 -91 2034 -91 
Q 1250 -91 836 529 
Q 422 1150 422 2328 
Q 422 3509 836 4129 
Q 1250 4750 2034 4750 
z
" transform="scale(0.015625)"/>
       </defs>
       <use xlink:href="#DejaVuSans-39"/>
       <use xlink:href="#DejaVuSans-39" transform="translate(63.623047 0)"/>
       <use xlink:href="#DejaVuSans-2e" transform="translate(127.246094 0)"/>
       <use xlink:href="#DejaVuSans-30" transform="translate(159.033203 0)"/>
      </g>
     </g>
    </g>
    <g id="ytick_2">
     <g id="line2d_8">
      <g>
       <use xlink:href="#m0944656953" x="42.828125" y="199.40605" style="stroke: #000000; stroke-width: 0.8"/>
      </g>
     </g>
     <g id="text_2">
      <!-- 99.5 -->
      <g transform="translate(13.5625 203.205269) scale(0.1 -0.1)">
       <defs>
        <path id="DejaVuSans-35" d="M 691 4666 
L 3169 4666 
L 3169 4134 
L 1269 4134 
L 1269 2991 
Q 1406 3038 1543 3061 
Q 1681 3084 1819 3084 
Q 2600 3084 3056 2656 
Q 3513 2228 3513 1497 
Q 3513 744 3044 326 
Q 2575 -91 1722 -91 
Q 1428 -91 1123 -41 
Q 819 9 494 109 
L 494 744 
Q 775 591 1075 516 
Q 1375 441 1709 441 
Q 2250 441 2565 725 
Q 2881 1009 2881 1497 
Q 2881 1984 2565 2268 
Q 2250 2553 1709 2553 
Q 1456 2553 1204 2497 
Q 953 2441 691 2322 
L 691 4666 
z
" transform="scale(0.015625)"/>
       </defs>
       <use xlink:href="#DejaVuSans-39"/>
       <use xlink:href="#DejaVuSans-39" transform="translate(63.623047 0)"/>
       <use xlink:href="#DejaVuSans-2e" transform="translate(127.246094 0)"/>
       <use xlink:href="#DejaVuSans-35" transform="translate(159.033203 0)"/>
      </g>
     </g>
    </g>
    <g id="ytick_3">
     <g id="line2d_9">
      <g>
       <use xlink:href="#m0944656953" x="42.828125" y="155.788335" style="stroke: #000000; stroke-width: 0.8"/>
      </g>
     </g>
     <g id="text_3">
      <!-- 100.0 -->
      <g transform="translate(7.2 159.587554) scale(0.1 -0.1)">
       <defs>
        <path id="DejaVuSans-31" d="M 794 531 
L 1825 531 
L 1825 4091 
L 703 3866 
L 703 4441 
L 1819 4666 
L 2450 4666 
L 2450 531 
L 3481 531 
L 3481 0 
L 794 0 
L 794 531 
z
" transform="scale(0.015625)"/>
       </defs>
       <use xlink:href="#DejaVuSans-31"/>
       <use xlink:href="#DejaVuSans-30" transform="translate(63.623047 0)"/>
       <use xlink:href="#DejaVuSans-30" transform="translate(127.246094 0)"/>
       <use xlink:href="#DejaVuSans-2e" transform="translate(190.869141 0)"/>
       <use xlink:href="#DejaVuSans-30" transform="translate(222.65625 0)"/>
      </g>
     </g>
    </g>
    <g id="ytick_4">
     <g id="line2d_10">
      <g>
       <use xlink:href="#m0944656953" x="42.828125" y="112.170619" style="stroke: #000000; stroke-width: 0.8"/>
      </g>
     </g>
     <g id="text_4">
      <!-- 100.5 -->
      <g transform="translate(7.2 115.969838) scale(0.1 -0.1)">
       <use xlink:href="#DejaVuSans-31"/>
       <use xlink:href="#DejaVuSans-30" transform="translate(63.623047 0)"/>
       <use xlink:href="#DejaVuSans-30" transform="translate(127.246094 0)"/>
       <use xlink:href="#DejaVuSans-2e" transform="translate(190.869141 0)"/>
       <use xlink:href="#DejaVuSans-35" transform="translate(222.65625 0)"/>
      </g>
     </g>
    </g>
    <g id="ytick_5">
     <g id="line2d_11">
      <g>
       <use xlink:href="#m0944656953" x="42.828125" y="68.552904" style="stroke: #000000; stroke-width: 0.8"/>
      </g>
     </g>
     <g id="text_5">
      <!-- 101.0 -->
      <g transform="translate(7.2 72.352122) scale(0.1 -0.1)">
       <use xlink:href="#DejaVuSans-31"/>
       <use xlink:href="#DejaVuSans-30" transform="translate(63.623047 0)"/>
       <use xlink:href="#DejaVuSans-31" transform="translate(127.246094 0)"/>
       <use xlink:href="#DejaVuSans-2e" transform="translate(190.869141 0)"/>
       <use xlink:href="#DejaVuSans-30" transform="translate(222.65625 0)"/>
      </g>
     </g>
    </g>
    <g id="ytick_6">
     <g id="line2d_12">
      <g>
       <use xlink:href="#m0944656953" x="42.828125" y="24.935188" style="stroke: #000000; stroke-width: 0.8"/>
      </g>
     </g>
     <g id="text_6">
      <!-- 101.5 -->
      <g transform="translate(7.2 28.734407) scale(0.1 -0.1)">
       <use xlink:href="#DejaVuSans-31"/>
       <use xlink:href="#DejaVuSans-30" transform="translate(63.623047 0)"/>
       <use xlink:href="#DejaVuSans-31" transform="translate(127.246094 0)"/>
       <use xlink:href="#DejaVuSans-2e" transform="translate(190.869141 0)"/>
       <use xlink:href="#DejaVuSans-35" transform="translate(222.65625 0)"/>
      </g>
     </g>
    </g>
   </g>
   <g id="line2d_13">
    <path d="M 86.049489 155.788335 
L 102.920694 155.788335 
L 104.252631 33.658731 
L 116.684045 33.658731 
L 117.128024 85.99999 
L 130.447397 85.99999 
L 130.891376 260.470852 
L 144.654727 260.470852 
L 145.098707 234.300223 
L 157.530121 234.300223 
L 157.9741 225.57668 
L 170.405514 225.57668 
L 170.849493 164.511878 
L 183.724887 164.511878 
L 185.056824 103.447076 
L 197.932217 103.447076 
L 198.376196 120.894162 
L 213.915464 120.894162 
L 214.359443 138.341249 
L 225.45892 138.341249 
L 225.902899 181.958964 
L 238.334314 181.958964 
L 238.778293 208.129594 
L 252.097665 208.129594 
L 253.429603 94.723533 
L 266.304996 94.723533 
L 266.748975 68.552904 
L 278.73641 68.552904 
L 279.180389 103.447076 
L 292.055783 103.447076 
L 292.499762 199.40605 
L 306.263113 199.40605 
L 306.707092 181.958964 
L 319.138507 181.958964 
L 319.582486 173.235421 
L 332.457879 173.235421 
L 332.901858 190.682507 
L 345.333273 190.682507 
L 346.66521 129.617705 
L 359.984582 129.617705 
L 360.428561 147.064792 
L 375.52385 147.064792 
L 375.967829 155.788335 
L 387.511285 155.788335 
L 387.955264 94.723533 
L 400.386679 94.723533 
L 400.830658 120.894162 
L 415.481968 120.894162 
L 415.925947 181.958964 
L 431.021235 181.958964 
L 431.465214 120.894162 
L 440.344796 120.894162 
L 440.788775 103.447076 
L 454.108148 103.447076 
L 455.440085 155.788335 
L 468.315478 155.788335 
L 468.759457 120.894162 
L 481.634851 120.894162 
L 482.07883 173.235421 
L 508.717575 173.235421 
L 509.161554 112.170619 
L 522.036947 112.170619 
L 522.480926 164.511878 
L 537.576215 164.511878 
L 538.020194 129.617705 
L 549.119671 129.617705 
L 549.56365 147.064792 
L 562.439044 147.064792 
L 562.883023 173.235421 
L 577.534332 173.235421 
L 577.978312 155.788335 
L 590.409726 155.788335 
L 590.853705 85.99999 
L 602.397161 85.99999 
L 602.84114 199.40605 
L 617.048471 199.40605 
L 617.49245 181.958964 
L 630.367843 181.958964 
L 630.811822 164.511878 
L 643.243237 164.511878 
L 643.687216 173.235421 
L 670.325961 173.235421 
L 670.76994 138.341249 
L 711.172036 138.341249 
L 711.616015 164.511878 
L 739.586697 164.511878 
L 740.030676 147.064792 
L 751.574133 147.064792 
L 752.018112 129.617705 
L 779.544815 129.617705 
L 779.988794 243.023766 
L 807.071518 243.023766 
L 807.515497 164.511878 
L 819.502932 164.511878 
L 819.946911 173.235421 
L 832.822305 173.235421 
L 833.266284 112.170619 
L 845.697698 112.170619 
L 847.029635 120.894162 
L 886.099794 120.894162 
L 887.431732 208.129594 
L 900.751104 208.129594 
L 901.195083 155.788335 
L 941.153201 155.788335 
L 941.59718 190.682507 
L 950.476761 190.682507 
L 950.476761 190.682507 
" clip-path="url(#p7413fe4a7c)" style="fill: none; stroke: #0000ff; stroke-opacity: 0.6; stroke-width: 1.5; stroke-linecap: square"/>
   </g>
   <g id="line2d_14">
    <path d="M 86.049489 155.788335 
L 102.920694 155.788335 
L 104.252631 150.478352 
L 105.584568 136.999165 
L 106.028547 133.171742 
L 107.360485 129.617705 
L 108.692422 120.331353 
L 109.136401 117.622834 
L 110.468338 115.078467 
L 111.800275 108.293489 
L 112.244254 106.276333 
L 113.576192 104.365344 
L 114.908129 99.191689 
L 115.352108 97.631381 
L 116.684045 96.143645 
L 118.459962 95.280355 
L 119.791899 95.087014 
L 121.567815 94.388012 
L 123.343732 94.077345 
L 124.675669 93.652221 
L 126.451585 93.392823 
L 127.783522 93.035105 
L 130.003418 92.815258 
L 130.447397 92.710408 
L 130.891376 95.252233 
L 132.223313 97.718182 
L 133.999229 106.887347 
L 135.331167 109.020451 
L 137.107083 116.991525 
L 138.43902 118.854892 
L 139.770958 124.165491 
L 142.434832 125.848273 
L 143.32279 129.092191 
L 144.654727 130.656222 
L 146.430644 135.367313 
L 147.762581 136.478919 
L 149.538497 140.686287 
L 150.870435 141.68218 
L 152.646351 145.462508 
L 153.978288 146.359859 
L 155.754205 149.775019 
L 157.086142 150.587761 
L 158.418079 152.771782 
L 158.862058 153.445902 
L 160.193995 154.107652 
L 161.969912 156.637529 
L 163.301849 157.242259 
L 164.189807 158.420438 
L 166.409702 158.994423 
L 168.185619 161.19549 
L 169.517556 161.723204 
L 170.405514 162.753099 
L 180.173054 162.954102 
L 183.724887 163.018121 
L 185.056824 162.612875 
L 186.83274 161.045569 
L 188.164678 160.666632 
L 189.940594 159.199464 
L 191.272531 158.844353 
L 193.048447 157.468023 
L 194.380385 157.134561 
L 196.156301 155.840886 
L 197.488238 155.527151 
L 198.376196 155.009447 
L 199.264155 154.59404 
L 200.596092 154.386337 
L 202.372008 153.555523 
L 203.703945 153.34782 
L 205.479862 152.517006 
L 206.811799 152.309303 
L 207.699757 151.893896 
L 211.695569 151.686192 
L 213.027506 151.478489 
L 214.359443 150.959231 
L 214.803422 150.855379 
L 216.13536 151.478489 
L 217.911276 153.97093 
L 219.243213 154.59404 
L 221.01913 157.086481 
L 222.351067 157.709591 
L 224.126983 160.202032 
L 225.45892 160.825142 
L 227.234837 164.3561 
L 228.566774 165.23884 
L 230.34269 167.523577 
L 231.674628 168.094762 
L 233.450544 170.379499 
L 234.782481 170.950684 
L 236.558397 173.235421 
L 237.890335 173.806605 
L 238.778293 175.104752 
L 239.666251 176.558676 
L 240.998188 176.745486 
L 242.330126 178.913467 
L 242.774105 178.603755 
L 244.106042 178.294044 
L 245.881958 177.055197 
L 247.213895 176.745486 
L 248.545833 175.816351 
L 250.765728 174.689345 
L 251.653686 174.066235 
L 252.097665 174.267793 
L 253.429603 173.799886 
L 253.873582 173.337451 
L 255.205519 170.429603 
L 256.537456 169.460321 
L 258.313372 166.195369 
L 259.64531 165.379131 
L 261.421226 162.114179 
L 262.753163 161.297941 
L 264.52908 158.032989 
L 265.861017 157.216751 
L 266.748975 155.431231 
L 270.300808 152.162284 
L 270.744787 151.216357 
L 272.076724 150.270431 
L 273.85264 146.486726 
L 275.184578 145.540799 
L 276.072536 143.648946 
L 276.960494 142.754946 
L 278.292431 141.820281 
L 279.180389 140.158653 
L 280.068347 138.70473 
L 281.400285 137.977768 
L 282.288243 136.523844 
L 283.176201 135.796882 
L 284.508138 135.433401 
L 286.284055 133.979477 
L 287.615992 133.615996 
L 289.391908 132.162072 
L 291.167825 131.602703 
L 292.055783 130.871388 
L 292.499762 131.080335 
L 293.831699 131.289283 
L 296.939553 132.699676 
L 298.715469 134.998094 
L 300.047406 135.572699 
L 301.823323 137.871117 
L 304.487197 139.085941 
L 304.931176 139.671057 
L 306.263113 140.256173 
L 308.03903 142.171097 
L 309.370967 142.649828 
L 310.258925 143.500905 
L 311.146883 144.245598 
L 312.47882 144.617944 
L 314.254737 146.10733 
L 315.586674 146.479676 
L 317.36259 147.969061 
L 318.694528 148.341408 
L 319.582486 149.032908 
L 320.470444 149.324505 
L 322.690339 149.609158 
L 323.134318 149.748959 
L 323.578298 150.05867 
L 324.910235 150.368382 
L 326.242172 151.19428 
L 326.686151 151.400754 
L 328.018088 151.607228 
L 329.794005 152.433126 
L 331.125942 152.6396 
L 332.901858 153.568735 
L 334.233795 153.878447 
L 336.009712 155.117293 
L 338.229607 155.530242 
L 342.225419 155.891572 
L 344.889293 156.098046 
L 345.333273 156.149665 
L 346.66521 155.839953 
L 348.441126 154.601107 
L 349.773063 154.291395 
L 350.217042 153.981684 
L 351.54898 152.587982 
L 352.880917 152.123414 
L 354.656833 150.265145 
L 355.988771 149.800577 
L 357.764687 147.942308 
L 359.096624 147.47774 
L 360.428561 146.187275 
L 360.87254 146.192437 
L 362.204478 145.833233 
L 363.980394 144.396414 
L 366.200289 145.299313 
L 367.088248 145.922423 
L 368.420185 146.233978 
L 369.752122 147.168643 
L 373.303955 149.098501 
L 374.635892 149.419613 
L 376.411808 150.811099 
L 377.743746 151.185729 
L 378.187725 151.56036 
L 378.631704 152.095547 
L 381.739557 152.205451 
L 382.627515 153.243968 
L 383.959453 153.763227 
L 385.735369 155.840261 
L 387.067306 156.359519 
L 387.511285 156.878778 
L 388.843223 157.34611 
L 391.507097 157.553814 
L 395.05893 157.242259 
L 397.722804 157.034555 
L 400.386679 156.826852 
L 401.274637 157.034555 
L 402.606574 156.820707 
L 403.938511 157.130418 
L 404.38249 156.665851 
L 405.714428 156.201284 
L 407.490344 154.343014 
L 408.822281 153.878447 
L 410.598198 152.020177 
L 412.374114 151.270786 
L 413.706051 149.868788 
L 415.037988 149.69734 
L 415.481968 149.52791 
L 415.925947 149.717565 
L 416.813905 149.513506 
L 419.477779 149.411476 
L 423.029612 149.411476 
L 427.913382 148.43113 
L 431.021235 148.43113 
L 432.353173 147.485203 
L 433.68511 147.325976 
L 435.461026 146.072293 
L 436.792963 145.758872 
L 438.56888 144.505189 
L 439.900817 144.191768 
L 440.788775 143.460453 
L 441.676733 142.624665 
L 443.008671 142.206771 
L 444.784587 140.43072 
L 446.116524 139.908352 
L 447.89244 137.818881 
L 449.224378 137.296513 
L 451.000294 135.207041 
L 453.220189 134.005912 
L 454.108148 132.948513 
L 455.440085 132.737033 
L 457.216001 131.891114 
L 458.991918 132.208333 
L 460.323855 132.684163 
L 462.099771 133.001383 
L 463.431708 133.477212 
L 466.095583 133.710232 
L 466.539562 133.871779 
L 469.203436 134.087175 
L 474.087206 133.387138 
L 475.863123 132.740949 
L 477.639039 132.596476 
L 478.526997 132.277322 
L 480.746893 131.86549 
L 481.634851 131.544378 
L 482.07883 131.798591 
L 483.410767 132.049724 
L 485.186683 132.94096 
L 486.9626 133.252515 
L 488.294537 133.615996 
L 490.070453 133.823699 
L 491.402391 134.135255 
L 493.178307 134.342958 
L 494.510244 134.654513 
L 496.28616 134.862216 
L 497.618098 135.173772 
L 499.394014 135.381475 
L 500.725951 136.783473 
L 502.057889 137.250806 
L 503.833805 139.120136 
L 505.165742 139.587469 
L 506.941658 141.4568 
L 508.273596 141.924132 
L 508.717575 142.391465 
L 510.049512 142.70302 
L 511.825428 142.910724 
L 512.269407 143.014575 
L 516.265219 142.651094 
L 518.929094 142.443391 
L 522.036947 142.183762 
L 522.480926 142.443391 
L 524.256843 142.70302 
L 525.58878 143.481908 
L 526.920717 143.741537 
L 527.364696 144.001166 
L 528.696633 143.689611 
L 530.47255 143.481908 
L 536.244278 142.117904 
L 537.576215 142.520191 
L 539.352131 142.131836 
L 541.128048 140.885615 
L 542.459985 140.57406 
L 542.903964 140.262505 
L 547.343755 140.677912 
L 549.119671 140.781764 
L 550.451608 141.249096 
L 552.227525 141.560651 
L 553.559462 142.339539 
L 554.891399 142.599168 
L 556.667316 143.637685 
L 557.999253 143.897315 
L 559.775169 144.935832 
L 561.107106 145.195461 
L 562.439044 145.974349 
L 562.883023 146.389756 
L 564.658939 146.705587 
L 565.990876 147.937146 
L 567.766793 148.142406 
L 569.09873 148.450296 
L 570.874646 148.655555 
L 572.206583 148.963445 
L 574.426479 149.129536 
L 575.314437 149.33601 
L 577.090353 149.615535 
L 577.534332 149.75286 
L 580.198207 149.75286 
L 581.530144 150.361479 
L 586.413914 151.661629 
L 587.745851 152.28847 
L 589.077789 152.497417 
L 590.409726 153.124259 
L 590.853705 152.72471 
L 592.185642 152.517006 
L 593.517579 151.893896 
L 593.961558 151.374637 
L 595.293496 150.855379 
L 597.069412 148.778345 
L 598.401349 148.259086 
L 600.177266 146.182052 
L 601.509203 145.662794 
L 602.397161 144.624277 
L 603.285119 144.935832 
L 605.061036 145.247387 
L 606.392973 145.71472 
L 608.168889 146.026275 
L 609.500826 146.493607 
L 611.276743 146.805162 
L 612.60868 147.272495 
L 620.600303 148.214001 
L 621.932241 149.467684 
L 623.264178 149.885578 
L 625.040094 151.557155 
L 627.703969 152.703179 
L 628.147948 153.128718 
L 629.479885 153.554257 
L 630.811822 154.724488 
L 631.255801 155.043642 
L 632.587739 155.362796 
L 633.919676 156.320258 
L 643.687216 156.422774 
L 645.463132 156.624123 
L 646.795069 156.917264 
L 649.014965 157.071209 
L 651.23486 157.449962 
L 653.010776 158.488479 
L 654.342714 158.748108 
L 656.11863 159.786625 
L 657.450567 160.046255 
L 659.226484 161.084772 
L 660.558421 161.344401 
L 661.446379 161.759808 
L 662.334337 162.071363 
L 664.110253 162.382918 
L 665.442191 162.850251 
L 667.218107 163.161806 
L 668.550044 163.629138 
L 671.213919 163.836842 
L 676.097689 163.161806 
L 677.873605 162.330992 
L 679.205542 162.123289 
L 680.981459 161.292475 
L 682.313396 161.084772 
L 684.089312 160.253958 
L 685.421249 160.124297 
L 687.197166 159.298399 
L 688.529103 159.091925 
L 689.86104 158.575739 
L 690.305019 158.472502 
L 692.080936 158.266028 
L 692.968894 158.059553 
L 698.296643 157.865369 
L 699.62858 157.553814 
L 701.404496 157.34611 
L 702.292455 157.138407 
L 702.736434 157.449962 
L 704.068371 157.761517 
L 705.844287 159.007738 
L 707.176224 159.319293 
L 708.952141 160.565513 
L 710.284078 160.877068 
L 711.172036 161.500179 
L 712.059994 162.434844 
L 713.391932 162.902177 
L 714.27989 163.836842 
L 715.167848 163.421435 
L 716.499785 163.213732 
L 718.275701 162.382918 
L 719.607639 162.175215 
L 721.383555 161.344401 
L 722.715492 161.136698 
L 724.491409 160.305884 
L 725.823346 160.098181 
L 726.267325 159.890477 
L 726.711304 159.917823 
L 727.599262 159.504874 
L 730.263137 158.988688 
L 730.707116 158.885451 
L 732.483032 158.678976 
L 733.814969 158.369265 
L 736.478844 157.917295 
L 736.922823 157.813443 
L 739.586697 157.82893 
L 740.030676 157.62487 
L 741.362614 157.420811 
L 742.694551 156.910662 
L 743.13853 156.808632 
L 744.914446 156.604573 
L 746.246384 156.298484 
L 748.0223 156.094424 
L 749.354237 155.788335 
L 751.130154 155.584275 
L 752.018112 155.278186 
L 756.901882 154.625196 
L 758.677798 153.567797 
L 760.009735 153.303447 
L 761.341672 152.635247 
L 761.785651 152.497417 
L 763.117589 152.236233 
L 764.893505 151.191498 
L 766.225442 150.930314 
L 768.001359 149.885578 
L 769.333296 149.624394 
L 771.109212 148.579658 
L 772.441149 148.318475 
L 774.217066 147.273739 
L 775.549003 147.012555 
L 776.436961 146.490187 
L 778.656857 145.901653 
L 779.544815 145.372953 
L 780.432773 146.218872 
L 781.76471 146.641832 
L 782.208689 147.064792 
L 783.540627 148.96811 
L 784.872564 149.60255 
L 786.64848 152.140308 
L 787.980417 152.774747 
L 788.424396 153.409187 
L 791.088271 154.334411 
L 792.864187 156.919164 
L 794.196124 157.565353 
L 795.972041 160.150106 
L 797.303978 160.796295 
L 799.079894 163.381048 
L 800.411832 164.027237 
L 802.187748 166.61199 
L 803.519685 167.258179 
L 805.295602 169.64967 
L 807.071518 170.097073 
L 808.403455 169.99674 
L 810.179371 170.310161 
L 811.511309 170.780292 
L 813.287225 171.093713 
L 814.619162 171.563844 
L 816.395079 171.877265 
L 817.727016 172.347396 
L 819.502932 172.660816 
L 820.834869 173.287658 
L 822.166807 173.496605 
L 823.054765 173.914499 
L 827.050577 174.280157 
L 829.714451 174.489104 
L 832.822305 174.750288 
L 833.266284 174.436867 
L 834.598221 174.123446 
L 836.374137 172.869764 
L 837.706075 172.556343 
L 839.481991 171.30266 
L 840.813928 170.989239 
L 842.589844 169.735556 
L 843.921782 169.422136 
L 845.697698 168.168453 
L 847.029635 167.887058 
L 848.805552 166.848541 
L 851.025447 166.613936 
L 851.913405 166.193525 
L 853.689321 165.878216 
L 855.021259 165.405253 
L 856.353196 165.247598 
L 859.905029 165.649731 
L 861.236966 165.16208 
L 863.012882 164.836979 
L 864.344819 164.350331 
L 865.676757 164.083729 
L 867.452673 163.049248 
L 870.116548 162.840301 
L 873.66838 162.52688 
L 876.332255 162.317933 
L 879.884087 162.004512 
L 882.547962 161.795565 
L 886.099794 161.482144 
L 887.431732 161.952275 
L 888.31969 162.892538 
L 889.207648 163.427887 
L 890.539585 163.892455 
L 891.427543 164.82159 
L 892.315502 164.408641 
L 893.647439 164.202166 
L 895.423355 163.376269 
L 896.755292 163.169794 
L 897.199272 162.96332 
L 898.531209 162.071363 
L 899.863146 161.863659 
L 900.307125 161.655956 
L 900.751104 161.930948 
L 901.639062 161.859105 
L 902.971 161.348956 
L 904.746916 159.308361 
L 906.078853 158.798212 
L 907.854769 156.757617 
L 909.186707 156.247469 
L 913.626498 152.034568 
L 914.070477 151.505868 
L 915.402414 150.977169 
L 917.17833 148.86237 
L 918.510267 148.904093 
L 918.954247 148.378578 
L 923.394037 147.958167 
L 926.057912 147.747961 
L 929.609745 147.432652 
L 931.385661 147.327549 
L 932.717598 147.01224 
L 934.493514 146.802034 
L 935.825452 146.486726 
L 937.601368 146.27652 
L 938.489326 146.066314 
L 941.59718 145.690173 
L 942.041159 145.795913 
L 943.817075 146.007393 
L 944.705033 146.218872 
L 945.149012 146.694702 
L 946.48095 147.170532 
L 948.256866 149.07385 
L 949.588803 149.54968 
L 950.476761 150.501339 
L 950.476761 150.501339 
" clip-path="url(#p7413fe4a7c)" style="fill: none; stroke: #ffa500; stroke-width: 2; stroke-linecap: square"/>
   </g>
   <g id="patch_3">
    <path d="M 42.828125 271.811458 
L 42.828125 22.318125 
" style="fill: none; stroke: #000000; stroke-width: 0.8; stroke-linejoin: miter; stroke-linecap: square"/>
   </g>
   <g id="patch_4">
    <path d="M 993.698125 271.811458 
L 993.698125 22.318125 
" style="fill: none; stroke: #000000; stroke-width: 0.8; stroke-linejoin: miter; stroke-linecap: square"/>
   </g>
   <g id="patch_5">
    <path d="M 42.828125 271.811458 
L 993.698125 271.811458 
" style="fill: none; stroke: #000000; stroke-width: 0.8; stroke-linejoin: miter; stroke-linecap: square"/>
   </g>
   <g id="patch_6">
    <path d="M 42.828125 22.318125 
L 993.698125 22.318125 
" style="fill: none; stroke: #000000; stroke-width: 0.8; stroke-linejoin: miter; stroke-linecap: square"/>
   </g>
   <g id="text_7">
    <!-- CPI and 12-Month Rolling Mean -->
    <g transform="translate(424.634062 16.318125) scale(0.12 -0.12)">
     <defs>
      <path id="DejaVuSans-43" d="M 4122 4306 
L 4122 3641 
Q 3803 3938 3442 4084 
Q 3081 4231 2675 4231 
Q 1875 4231 1450 3742 
Q 1025 3253 1025 2328 
Q 1025 1406 1450 917 
Q 1875 428 2675 428 
Q 3081 428 3442 575 
Q 3803 722 4122 1019 
L 4122 359 
Q 3791 134 3420 21 
Q 3050 -91 2638 -91 
Q 1578 -91 968 557 
Q 359 1206 359 2328 
Q 359 3453 968 4101 
Q 1578 4750 2638 4750 
Q 3056 4750 3426 4639 
Q 3797 4528 4122 4306 
z
" transform="scale(0.015625)"/>
      <path id="DejaVuSans-50" d="M 1259 4147 
L 1259 2394 
L 2053 2394 
Q 2494 2394 2734 2622 
Q 2975 2850 2975 3272 
Q 2975 3691 2734 3919 
Q 2494 4147 2053 4147 
L 1259 4147 
z
M 628 4666 
L 2053 4666 
Q 2838 4666 3239 4311 
Q 3641 3956 3641 3272 
Q 3641 2581 3239 2228 
Q 2838 1875 2053 1875 
L 1259 1875 
L 1259 0 
L 628 0 
L 628 4666 
z
" transform="scale(0.015625)"/>
      <path id="DejaVuSans-49" d="M 628 4666 
L 1259 4666 
L 1259 0 
L 628 0 
L 628 4666 
z
" transform="scale(0.015625)"/>
      <path id="DejaVuSans-20" transform="scale(0.015625)"/>
      <path id="DejaVuSans-61" d="M 2194 1759 
Q 1497 1759 1228 1600 
Q 959 1441 959 1056 
Q 959 750 1161 570 
Q 1363 391 1709 391 
Q 2188 391 2477 730 
Q 2766 1069 2766 1631 
L 2766 1759 
L 2194 1759 
z
M 3341 1997 
L 3341 0 
L 2766 0 
L 2766 531 
Q 2569 213 2275 61 
Q 1981 -91 1556 -91 
Q 1019 -91 701 211 
Q 384 513 384 1019 
Q 384 1609 779 1909 
Q 1175 2209 1959 2209 
L 2766 2209 
L 2766 2266 
Q 2766 2663 2505 2880 
Q 2244 3097 1772 3097 
Q 1472 3097 1187 3025 
Q 903 2953 641 2809 
L 641 3341 
Q 956 3463 1253 3523 
Q 1550 3584 1831 3584 
Q 2591 3584 2966 3190 
Q 3341 2797 3341 1997 
z
" transform="scale(0.015625)"/>
      <path id="DejaVuSans-6e" d="M 3513 2113 
L 3513 0 
L 2938 0 
L 2938 2094 
Q 2938 2591 2744 2837 
Q 2550 3084 2163 3084 
Q 1697 3084 1428 2787 
Q 1159 2491 1159 1978 
L 1159 0 
L 581 0 
L 581 3500 
L 1159 3500 
L 1159 2956 
Q 1366 3272 1645 3428 
Q 1925 3584 2291 3584 
Q 2894 3584 3203 3211 
Q 3513 2838 3513 2113 
z
" transform="scale(0.015625)"/>
      <path id="DejaVuSans-64" d="M 2906 2969 
L 2906 4863 
L 3481 4863 
L 3481 0 
L 2906 0 
L 2906 525 
Q 2725 213 2448 61 
Q 2172 -91 1784 -91 
Q 1150 -91 751 415 
Q 353 922 353 1747 
Q 353 2572 751 3078 
Q 1150 3584 1784 3584 
Q 2172 3584 2448 3432 
Q 2725 3281 2906 2969 
z
M 947 1747 
Q 947 1113 1208 752 
Q 1469 391 1925 391 
Q 2381 391 2643 752 
Q 2906 1113 2906 1747 
Q 2906 2381 2643 2742 
Q 2381 3103 1925 3103 
Q 1469 3103 1208 2742 
Q 947 2381 947 1747 
z
" transform="scale(0.015625)"/>
      <path id="DejaVuSans-32" d="M 1228 531 
L 3431 531 
L 3431 0 
L 469 0 
L 469 531 
Q 828 903 1448 1529 
Q 2069 2156 2228 2338 
Q 2531 2678 2651 2914 
Q 2772 3150 2772 3378 
Q 2772 3750 2511 3984 
Q 2250 4219 1831 4219 
Q 1534 4219 1204 4116 
Q 875 4013 500 3803 
L 500 4441 
Q 881 4594 1212 4672 
Q 1544 4750 1819 4750 
Q 2544 4750 2975 4387 
Q 3406 4025 3406 3419 
Q 3406 3131 3298 2873 
Q 3191 2616 2906 2266 
Q 2828 2175 2409 1742 
Q 1991 1309 1228 531 
z
" transform="scale(0.015625)"/>
      <path id="DejaVuSans-2d" d="M 313 2009 
L 1997 2009 
L 1997 1497 
L 313 1497 
L 313 2009 
z
" transform="scale(0.015625)"/>
      <path id="DejaVuSans-4d" d="M 628 4666 
L 1569 4666 
L 2759 1491 
L 3956 4666 
L 4897 4666 
L 4897 0 
L 4281 0 
L 4281 4097 
L 3078 897 
L 2444 897 
L 1241 4097 
L 1241 0 
L 628 0 
L 628 4666 
z
" transform="scale(0.015625)"/>
      <path id="DejaVuSans-6f" d="M 1959 3097 
Q 1497 3097 1228 2736 
Q 959 2375 959 1747 
Q 959 1119 1226 758 
Q 1494 397 1959 397 
Q 2419 397 2687 759 
Q 2956 1122 2956 1747 
Q 2956 2369 2687 2733 
Q 2419 3097 1959 3097 
z
M 1959 3584 
Q 2709 3584 3137 3096 
Q 3566 2609 3566 1747 
Q 3566 888 3137 398 
Q 2709 -91 1959 -91 
Q 1206 -91 779 398 
Q 353 888 353 1747 
Q 353 2609 779 3096 
Q 1206 3584 1959 3584 
z
" transform="scale(0.015625)"/>
      <path id="DejaVuSans-74" d="M 1172 4494 
L 1172 3500 
L 2356 3500 
L 2356 3053 
L 1172 3053 
L 1172 1153 
Q 1172 725 1289 603 
Q 1406 481 1766 481 
L 2356 481 
L 2356 0 
L 1766 0 
Q 1100 0 847 248 
Q 594 497 594 1153 
L 594 3053 
L 172 3053 
L 172 3500 
L 594 3500 
L 594 4494 
L 1172 4494 
z
" transform="scale(0.015625)"/>
      <path id="DejaVuSans-68" d="M 3513 2113 
L 3513 0 
L 2938 0 
L 2938 2094 
Q 2938 2591 2744 2837 
Q 2550 3084 2163 3084 
Q 1697 3084 1428 2787 
Q 1159 2491 1159 1978 
L 1159 0 
L 581 0 
L 581 4863 
L 1159 4863 
L 1159 2956 
Q 1366 3272 1645 3428 
Q 1925 3584 2291 3584 
Q 2894 3584 3203 3211 
Q 3513 2838 3513 2113 
z
" transform="scale(0.015625)"/>
      <path id="DejaVuSans-52" d="M 2841 2188 
Q 3044 2119 3236 1894 
Q 3428 1669 3622 1275 
L 4263 0 
L 3584 0 
L 2988 1197 
Q 2756 1666 2539 1819 
Q 2322 1972 1947 1972 
L 1259 1972 
L 1259 0 
L 628 0 
L 628 4666 
L 2053 4666 
Q 2853 4666 3247 4331 
Q 3641 3997 3641 3322 
Q 3641 2881 3436 2590 
Q 3231 2300 2841 2188 
z
M 1259 4147 
L 1259 2491 
L 2053 2491 
Q 2509 2491 2742 2702 
Q 2975 2913 2975 3322 
Q 2975 3731 2742 3939 
Q 2509 4147 2053 4147 
L 1259 4147 
z
" transform="scale(0.015625)"/>
      <path id="DejaVuSans-6c" d="M 603 4863 
L 1178 4863 
L 1178 0 
L 603 0 
L 603 4863 
z
" transform="scale(0.015625)"/>
      <path id="DejaVuSans-69" d="M 603 3500 
L 1178 3500 
L 1178 0 
L 603 0 
L 603 3500 
z
M 603 4863 
L 1178 4863 
L 1178 4134 
L 603 4134 
L 603 4863 
z
" transform="scale(0.015625)"/>
      <path id="DejaVuSans-67" d="M 2906 1791 
Q 2906 2416 2648 2759 
Q 2391 3103 1925 3103 
Q 1463 3103 1205 2759 
Q 947 2416 947 1791 
Q 947 1169 1205 825 
Q 1463 481 1925 481 
Q 2391 481 2648 825 
Q 2906 1169 2906 1791 
z
M 3481 434 
Q 3481 -459 3084 -895 
Q 2688 -1331 1869 -1331 
Q 1566 -1331 1297 -1286 
Q 1028 -1241 775 -1147 
L 775 -588 
Q 1028 -725 1275 -790 
Q 1522 -856 1778 -856 
Q 2344 -856 2625 -561 
Q 2906 -266 2906 331 
L 2906 616 
Q 2728 306 2450 153 
Q 2172 0 1784 0 
Q 1141 0 747 490 
Q 353 981 353 1791 
Q 353 2603 747 3093 
Q 1141 3584 1784 3584 
Q 2172 3584 2450 3431 
Q 2728 3278 2906 2969 
L 2906 3500 
L 3481 3500 
L 3481 434 
z
" transform="scale(0.015625)"/>
      <path id="DejaVuSans-65" d="M 3597 1894 
L 3597 1613 
L 953 1613 
Q 991 1019 1311 708 
Q 1631 397 2203 397 
Q 2534 397 2845 478 
Q 3156 559 3463 722 
L 3463 178 
Q 3153 47 2828 -22 
Q 2503 -91 2169 -91 
Q 1331 -91 842 396 
Q 353 884 353 1716 
Q 353 2575 817 3079 
Q 1281 3584 2069 3584 
Q 2775 3584 3186 3129 
Q 3597 2675 3597 1894 
z
M 3022 2063 
Q 3016 2534 2758 2815 
Q 2500 3097 2075 3097 
Q 1594 3097 1305 2825 
Q 1016 2553 972 2059 
L 3022 2063 
z
" transform="scale(0.015625)"/>
     </defs>
     <use xlink:href="#DejaVuSans-43"/>
     <use xlink:href="#DejaVuSans-50" transform="translate(69.824219 0)"/>
     <use xlink:href="#DejaVuSans-49" transform="translate(130.126953 0)"/>
     <use xlink:href="#DejaVuSans-20" transform="translate(159.619141 0)"/>
     <use xlink:href="#DejaVuSans-61" transform="translate(191.40625 0)"/>
     <use xlink:href="#DejaVuSans-6e" transform="translate(252.685547 0)"/>
     <use xlink:href="#DejaVuSans-64" transform="translate(316.064453 0)"/>
     <use xlink:href="#DejaVuSans-20" transform="translate(379.541016 0)"/>
     <use xlink:href="#DejaVuSans-31" transform="translate(411.328125 0)"/>
     <use xlink:href="#DejaVuSans-32" transform="translate(474.951172 0)"/>
     <use xlink:href="#DejaVuSans-2d" transform="translate(538.574219 0)"/>
     <use xlink:href="#DejaVuSans-4d" transform="translate(574.658203 0)"/>
     <use xlink:href="#DejaVuSans-6f" transform="translate(660.9375 0)"/>
     <use xlink:href="#DejaVuSans-6e" transform="translate(722.119141 0)"/>
     <use xlink:href="#DejaVuSans-74" transform="translate(785.498047 0)"/>
     <use xlink:href="#DejaVuSans-68" transform="translate(824.707031 0)"/>
     <use xlink:href="#DejaVuSans-20" transform="translate(888.085938 0)"/>
     <use xlink:href="#DejaVuSans-52" transform="translate(919.873047 0)"/>
     <use xlink:href="#DejaVuSans-6f" transform="translate(984.855469 0)"/>
     <use xlink:href="#DejaVuSans-6c" transform="translate(1046.037109 0)"/>
     <use xlink:href="#DejaVuSans-6c" transform="translate(1073.820312 0)"/>
     <use xlink:href="#DejaVuSans-69" transform="translate(1101.603516 0)"/>
     <use xlink:href="#DejaVuSans-6e" transform="translate(1129.386719 0)"/>
     <use xlink:href="#DejaVuSans-67" transform="translate(1192.765625 0)"/>
     <use xlink:href="#DejaVuSans-20" transform="translate(1256.242188 0)"/>
     <use xlink:href="#DejaVuSans-4d" transform="translate(1288.029297 0)"/>
     <use xlink:href="#DejaVuSans-65" transform="translate(1374.308594 0)"/>
     <use xlink:href="#DejaVuSans-61" transform="translate(1435.832031 0)"/>
     <use xlink:href="#DejaVuSans-6e" transform="translate(1497.111328 0)"/>
    </g>
   </g>
   <g id="legend_1">
    <g id="patch_7">
     <path d="M 902.92 59.674375 
L 986.698125 59.674375 
Q 988.698125 59.674375 988.698125 57.674375 
L 988.698125 29.318125 
Q 988.698125 27.318125 986.698125 27.318125 
L 902.92 27.318125 
Q 900.92 27.318125 900.92 29.318125 
L 900.92 57.674375 
Q 900.92 59.674375 902.92 59.674375 
z
" style="fill: #ffffff; opacity: 0.8; stroke: #cccccc; stroke-linejoin: miter"/>
    </g>
    <g id="line2d_15">
     <path d="M 904.92 35.416563 
L 914.92 35.416563 
L 924.92 35.416563 
" style="fill: none; stroke: #0000ff; stroke-opacity: 0.6; stroke-width: 1.5; stroke-linecap: square"/>
    </g>
    <g id="text_8">
     <!-- CPI -->
     <g transform="translate(932.92 38.916563) scale(0.1 -0.1)">
      <use xlink:href="#DejaVuSans-43"/>
      <use xlink:href="#DejaVuSans-50" transform="translate(69.824219 0)"/>
      <use xlink:href="#DejaVuSans-49" transform="translate(130.126953 0)"/>
     </g>
    </g>
    <g id="line2d_16">
     <path d="M 904.92 50.094688 
L 914.92 50.094688 
L 924.92 50.094688 
" style="fill: none; stroke: #ffa500; stroke-width: 2; stroke-linecap: square"/>
    </g>
    <g id="text_9">
     <!-- 12M Mean -->
     <g transform="translate(932.92 53.594688) scale(0.1 -0.1)">
      <use xlink:href="#DejaVuSans-31"/>
      <use xlink:href="#DejaVuSans-32" transform="translate(63.623047 0)"/>
      <use xlink:href="#DejaVuSans-4d" transform="translate(127.246094 0)"/>
      <use xlink:href="#DejaVuSans-20" transform="translate(213.525391 0)"/>
      <use xlink:href="#DejaVuSans-4d" transform="translate(245.3125 0)"/>
      <use xlink:href="#DejaVuSans-65" transform="translate(331.591797 0)"/>
      <use xlink:href="#DejaVuSans-61" transform="translate(393.115234 0)"/>
      <use xlink:href="#DejaVuSans-6e" transform="translate(454.394531 0)"/>
     </g>
    </g>
   </g>
  </g>
  <g id="axes_2">
   <g id="patch_8">
    <path d="M 42.828125 551.684792 
L 993.698125 551.684792 
L 993.698125 302.191458 
L 42.828125 302.191458 
z
" style="fill: #ffffff"/>
   </g>
   <g id="matplotlib.axis_3">
    <g id="xtick_7">
     <g id="line2d_17">
      <g>
       <use xlink:href="#mbcc4e69dfb" x="86.493468" y="551.684792" style="stroke: #000000; stroke-width: 0.8"/>
      </g>
     </g>
    </g>
    <g id="xtick_8">
     <g id="line2d_18">
      <g>
       <use xlink:href="#mbcc4e69dfb" x="248.989812" y="551.684792" style="stroke: #000000; stroke-width: 0.8"/>
      </g>
     </g>
    </g>
    <g id="xtick_9">
     <g id="line2d_19">
      <g>
       <use xlink:href="#mbcc4e69dfb" x="411.042177" y="551.684792" style="stroke: #000000; stroke-width: 0.8"/>
      </g>
     </g>
    </g>
    <g id="xtick_10">
     <g id="line2d_20">
      <g>
       <use xlink:href="#mbcc4e69dfb" x="573.094542" y="551.684792" style="stroke: #000000; stroke-width: 0.8"/>
      </g>
     </g>
    </g>
    <g id="xtick_11">
     <g id="line2d_21">
      <g>
       <use xlink:href="#mbcc4e69dfb" x="735.146907" y="551.684792" style="stroke: #000000; stroke-width: 0.8"/>
      </g>
     </g>
    </g>
    <g id="xtick_12">
     <g id="line2d_22">
      <g>
       <use xlink:href="#mbcc4e69dfb" x="897.643251" y="551.684792" style="stroke: #000000; stroke-width: 0.8"/>
      </g>
     </g>
    </g>
   </g>
   <g id="matplotlib.axis_4">
    <g id="ytick_7">
     <g id="line2d_23">
      <g>
       <use xlink:href="#m0944656953" x="42.828125" y="541.290114" style="stroke: #000000; stroke-width: 0.8"/>
      </g>
     </g>
     <g id="text_10">
      <!-- −2.0 -->
      <g transform="translate(11.545312 545.089332) scale(0.1 -0.1)">
       <defs>
        <path id="DejaVuSans-2212" d="M 678 2272 
L 4684 2272 
L 4684 1741 
L 678 1741 
L 678 2272 
z
" transform="scale(0.015625)"/>
       </defs>
       <use xlink:href="#DejaVuSans-2212"/>
       <use xlink:href="#DejaVuSans-32" transform="translate(83.789062 0)"/>
       <use xlink:href="#DejaVuSans-2e" transform="translate(147.412109 0)"/>
       <use xlink:href="#DejaVuSans-30" transform="translate(179.199219 0)"/>
      </g>
     </g>
    </g>
    <g id="ytick_8">
     <g id="line2d_24">
      <g>
       <use xlink:href="#m0944656953" x="42.828125" y="511.493377" style="stroke: #000000; stroke-width: 0.8"/>
      </g>
     </g>
     <g id="text_11">
      <!-- −1.5 -->
      <g transform="translate(11.545312 515.292596) scale(0.1 -0.1)">
       <use xlink:href="#DejaVuSans-2212"/>
       <use xlink:href="#DejaVuSans-31" transform="translate(83.789062 0)"/>
       <use xlink:href="#DejaVuSans-2e" transform="translate(147.412109 0)"/>
       <use xlink:href="#DejaVuSans-35" transform="translate(179.199219 0)"/>
      </g>
     </g>
    </g>
    <g id="ytick_9">
     <g id="line2d_25">
      <g>
       <use xlink:href="#m0944656953" x="42.828125" y="481.696641" style="stroke: #000000; stroke-width: 0.8"/>
      </g>
     </g>
     <g id="text_12">
      <!-- −1.0 -->
      <g transform="translate(11.545312 485.49586) scale(0.1 -0.1)">
       <use xlink:href="#DejaVuSans-2212"/>
       <use xlink:href="#DejaVuSans-31" transform="translate(83.789062 0)"/>
       <use xlink:href="#DejaVuSans-2e" transform="translate(147.412109 0)"/>
       <use xlink:href="#DejaVuSans-30" transform="translate(179.199219 0)"/>
      </g>
     </g>
    </g>
    <g id="ytick_10">
     <g id="line2d_26">
      <g>
       <use xlink:href="#m0944656953" x="42.828125" y="451.899905" style="stroke: #000000; stroke-width: 0.8"/>
      </g>
     </g>
     <g id="text_13">
      <!-- −0.5 -->
      <g transform="translate(11.545312 455.699124) scale(0.1 -0.1)">
       <use xlink:href="#DejaVuSans-2212"/>
       <use xlink:href="#DejaVuSans-30" transform="translate(83.789062 0)"/>
       <use xlink:href="#DejaVuSans-2e" transform="translate(147.412109 0)"/>
       <use xlink:href="#DejaVuSans-35" transform="translate(179.199219 0)"/>
      </g>
     </g>
    </g>
    <g id="ytick_11">
     <g id="line2d_27">
      <g>
       <use xlink:href="#m0944656953" x="42.828125" y="422.103168" style="stroke: #000000; stroke-width: 0.8"/>
      </g>
     </g>
     <g id="text_14">
      <!-- 0.0 -->
      <g transform="translate(19.925 425.902387) scale(0.1 -0.1)">
       <use xlink:href="#DejaVuSans-30"/>
       <use xlink:href="#DejaVuSans-2e" transform="translate(63.623047 0)"/>
       <use xlink:href="#DejaVuSans-30" transform="translate(95.410156 0)"/>
      </g>
     </g>
    </g>
    <g id="ytick_12">
     <g id="line2d_28">
      <g>
       <use xlink:href="#m0944656953" x="42.828125" y="392.306432" style="stroke: #000000; stroke-width: 0.8"/>
      </g>
     </g>
     <g id="text_15">
      <!-- 0.5 -->
      <g transform="translate(19.925 396.105651) scale(0.1 -0.1)">
       <use xlink:href="#DejaVuSans-30"/>
       <use xlink:href="#DejaVuSans-2e" transform="translate(63.623047 0)"/>
       <use xlink:href="#DejaVuSans-35" transform="translate(95.410156 0)"/>
      </g>
     </g>
    </g>
    <g id="ytick_13">
     <g id="line2d_29">
      <g>
       <use xlink:href="#m0944656953" x="42.828125" y="362.509696" style="stroke: #000000; stroke-width: 0.8"/>
      </g>
     </g>
     <g id="text_16">
      <!-- 1.0 -->
      <g transform="translate(19.925 366.308915) scale(0.1 -0.1)">
       <use xlink:href="#DejaVuSans-31"/>
       <use xlink:href="#DejaVuSans-2e" transform="translate(63.623047 0)"/>
       <use xlink:href="#DejaVuSans-30" transform="translate(95.410156 0)"/>
      </g>
     </g>
    </g>
    <g id="ytick_14">
     <g id="line2d_30">
      <g>
       <use xlink:href="#m0944656953" x="42.828125" y="332.712959" style="stroke: #000000; stroke-width: 0.8"/>
      </g>
     </g>
     <g id="text_17">
      <!-- 1.5 -->
      <g transform="translate(19.925 336.512178) scale(0.1 -0.1)">
       <use xlink:href="#DejaVuSans-31"/>
       <use xlink:href="#DejaVuSans-2e" transform="translate(63.623047 0)"/>
       <use xlink:href="#DejaVuSans-35" transform="translate(95.410156 0)"/>
      </g>
     </g>
    </g>
    <g id="ytick_15">
     <g id="line2d_31">
      <g>
       <use xlink:href="#m0944656953" x="42.828125" y="302.916223" style="stroke: #000000; stroke-width: 0.8"/>
      </g>
     </g>
     <g id="text_18">
      <!-- 2.0 -->
      <g transform="translate(19.925 306.715442) scale(0.1 -0.1)">
       <use xlink:href="#DejaVuSans-32"/>
       <use xlink:href="#DejaVuSans-2e" transform="translate(63.623047 0)"/>
       <use xlink:href="#DejaVuSans-30" transform="translate(95.410156 0)"/>
      </g>
     </g>
    </g>
   </g>
   <g id="line2d_32">
    <path d="M 94.92907 422.103168 
L 96.261008 422.103168 
M 108.248443 338.672307 
L 110.912317 338.672307 
L 111.356296 422.103168 
L 112.244254 422.103168 
M 120.679857 457.365578 
L 123.787711 457.365578 
L 124.23169 422.103168 
L 126.451585 422.103168 
M 135.331167 540.344186 
L 138.43902 540.344186 
L 138.882999 422.103168 
L 139.770958 422.103168 
M 149.538497 404.007984 
L 151.758393 404.007984 
L 152.202372 422.103168 
L 152.646351 422.103168 
M 161.081954 416.0897 
L 166.409702 416.0897 
L 166.853682 422.103168 
M 174.401326 380.051323 
L 177.50918 380.051323 
L 178.841117 422.103168 
L 180.617033 422.103168 
M 189.052636 380.34598 
L 191.71651 380.34598 
L 192.160489 422.103168 
L 194.380385 422.103168 
M 201.928029 433.950777 
L 205.035883 433.950777 
L 205.479862 422.103168 
L 207.699757 422.103168 
M 219.687192 433.974378 
L 221.01913 433.974378 
M 229.454732 451.84043 
L 232.562586 451.84043 
L 233.006565 422.103168 
L 234.782481 422.103168 
M 241.886146 457.859252 
L 242.330126 440.035006 
L 245.437979 440.035006 
L 245.881958 422.103168 
L 248.545833 422.103168 
L 250.321749 457.859252 
L 252.097665 457.859252 
L 253.429603 380.387738 
L 256.981435 380.387738 
L 257.425414 344.164019 
L 260.089289 344.164019 
L 260.533268 422.103168 
L 261.421226 422.103168 
L 262.753163 463.242647 
L 266.304996 463.242647 
L 266.748975 445.611442 
L 272.520703 445.611442 
L 272.964682 404.349403 
L 273.85264 404.349403 
L 275.184578 410.279067 
L 278.73641 410.279067 
L 279.180389 433.92727 
L 281.844264 433.92727 
L 282.288243 445.704544 
L 285.840076 445.704544 
L 286.284055 422.103168 
L 288.50395 422.103168 
L 288.947929 313.532064 
L 292.055783 313.532064 
L 292.499762 379.881072 
L 296.939553 379.881072 
L 297.383532 487.265017 
L 300.047406 487.265017 
L 300.491385 422.103168 
L 301.823323 422.103168 
L 304.487197 398.049294 
L 306.263113 398.049294 
L 306.707092 386.022358 
L 311.146883 386.022358 
L 312.47882 410.124581 
L 313.366779 410.124581 
L 313.810758 422.103168 
L 315.586674 422.103168 
L 316.030653 392.066136 
L 319.138507 392.066136 
L 319.582486 386.058729 
L 323.134318 386.058729 
L 323.578298 416.125889 
L 326.686151 416.125889 
L 328.018088 422.103168 
L 328.906047 422.103168 
L 329.350026 428.068481 
L 332.457879 428.068481 
L 332.901858 439.999106 
L 336.009712 439.999106 
L 337.341649 434.045748 
L 340.449503 434.045748 
L 340.893482 422.103168 
L 342.225419 422.103168 
L 343.557356 481.341213 
L 345.333273 481.341213 
L 346.66521 439.874582 
L 350.217042 439.874582 
L 350.661022 380.220206 
L 353.324896 380.220206 
L 353.768875 422.103168 
L 356.43275 422.103168 
L 356.876729 428.038773 
L 359.984582 428.038773 
L 360.428561 439.909983 
L 363.536415 439.909983 
L 363.980394 433.986214 
L 368.864164 433.986214 
L 369.308143 422.103168 
L 369.752122 422.103168 
L 373.303955 428.050621 
L 375.52385 428.050621 
L 375.967829 433.998073 
L 380.851599 433.998073 
L 381.295578 428.056562 
L 382.627515 428.056562 
L 383.959453 404.171331 
L 387.511285 404.171331 
L 387.955264 362.330377 
L 390.619139 362.330377 
L 391.063118 380.387738 
L 394.614951 380.387738 
L 395.05893 422.103168 
L 396.834846 422.103168 
L 397.278825 344.164019 
L 400.386679 344.164019 
L 400.830658 362.149977 
L 403.938511 362.149977 
L 404.38249 439.856934 
L 407.490344 439.856934 
L 408.822281 422.103168 
L 410.598198 422.103168 
L 412.374114 439.856934 
L 415.481968 439.856934 
L 415.925947 481.282387 
L 419.0338 481.282387 
L 419.477779 463.652402 
L 422.585633 463.652402 
L 423.029612 422.103168 
L 427.469403 481.282387 
L 428.80134 481.282387 
L 429.245319 498.807638 
L 431.021235 498.807638 
L 431.465214 457.505231 
L 434.129089 457.505231 
L 434.573068 380.262215 
L 436.792963 380.262215 
L 437.236943 433.950777 
L 440.344796 433.950777 
L 440.788775 422.103168 
L 443.896629 422.103168 
L 444.340608 410.231959 
L 447.448461 410.231959 
L 447.89244 422.103168 
L 450.556315 422.103168 
L 451.000294 356.220937 
L 454.108148 356.220937 
L 455.440085 392.1567 
L 459.435897 392.1567 
L 459.879876 457.645995 
L 462.099771 457.645995 
L 462.54375 422.103168 
L 463.431708 422.103168 
L 466.095583 404.171331 
L 468.315478 404.171331 
L 468.759457 380.262215 
L 472.755269 380.262215 
L 474.087206 398.265779 
L 475.419144 398.265779 
L 475.863123 422.103168 
L 477.639039 422.103168 
L 478.083018 386.275429 
L 481.634851 386.275429 
L 482.07883 422.103168 
L 485.186683 422.103168 
L 486.518621 457.716798 
L 489.626474 457.716798 
L 490.070453 422.103168 
L 490.958411 422.103168 
L 491.402391 410.136608 
L 498.950035 410.136608 
L 499.394014 422.103168 
L 503.833805 422.103168 
L 505.165742 451.810782 
L 508.717575 451.810782 
L 509.161554 410.220123 
L 511.825428 410.220123 
L 512.269407 380.30414 
L 515.82124 380.30414 
L 516.265219 422.103168 
L 518.485115 422.103168 
L 518.929094 398.289593 
L 522.036947 398.289593 
L 522.480926 434.009956 
L 526.920717 434.009956 
L 527.364696 457.681361 
L 530.47255 457.681361 
L 530.916529 422.103168 
L 531.804487 422.103168 
L 536.244278 428.062516 
L 537.576215 428.062516 
L 538.020194 404.225127 
L 542.903964 404.225127 
L 543.347943 398.241918 
L 545.567839 398.241918 
L 546.011818 445.774856 
L 549.119671 445.774856 
L 549.56365 457.610699 
L 552.671504 457.610699 
L 553.115483 433.986214 
L 556.223337 433.986214 
L 556.667316 422.103168 
L 558.887211 422.103168 
L 559.33119 439.909983 
L 562.439044 439.909983 
L 562.883023 457.716798 
L 565.990876 457.716798 
L 567.322814 439.96335 
L 570.430667 439.96335 
L 570.874646 422.103168 
L 572.206583 422.103168 
L 573.9825 416.125889 
L 577.534332 416.125889 
L 577.978312 404.171331 
L 580.642186 404.171331 
L 581.086165 410.160589 
L 586.413914 410.160589 
L 586.857893 404.171331 
L 587.745851 404.171331 
L 589.077789 445.845588 
L 590.409726 445.845588 
L 590.853705 398.360749 
L 593.517579 398.360749 
L 593.961558 374.42839 
L 598.401349 374.42839 
L 598.845328 422.103168 
L 599.289307 410.25556 
L 602.397161 410.25556 
L 602.84114 487.265017 
L 605.948994 487.265017 
L 606.392973 498.95983 
L 609.500826 498.95983 
L 610.832764 422.103168 
L 612.60868 422.103168 
L 613.940617 451.899905 
L 617.048471 451.899905 
L 617.49245 439.98121 
L 621.044282 439.98121 
L 621.488262 410.124581 
L 624.152136 410.124581 
L 624.596115 422.103168 
L 625.040094 422.103168 
L 627.703969 463.652402 
L 630.367843 463.652402 
L 630.811822 451.781193 
L 634.363655 451.781193 
L 635.695592 410.14861 
L 637.471509 410.14861 
L 638.803446 422.103168 
L 639.691404 422.103168 
L 640.135383 416.131879 
L 643.243237 416.131879 
L 643.687216 422.103168 
L 646.795069 422.103168 
L 648.127006 428.068481 
L 652.122818 428.068481 
L 652.566797 422.103168 
L 666.774128 422.103168 
L 667.218107 463.61106 
L 670.325961 463.61106 
L 670.76994 439.892265 
L 673.877793 439.892265 
L 674.321772 398.218009 
L 677.429626 398.218009 
L 677.873605 422.103168 
L 680.537479 422.103168 
L 680.981459 404.207231 
L 688.529103 404.207231 
L 688.973082 422.103168 
L 692.968894 422.103168 
L 697.852664 428.044691 
L 704.51235 428.044691 
L 704.956329 422.103168 
L 707.620203 422.103168 
L 708.064183 416.149775 
L 711.172036 416.149775 
L 711.616015 434.009956 
L 714.723869 434.009956 
L 715.167848 439.945526 
L 718.275701 439.945526 
L 719.607639 422.103168 
L 720.939576 422.103168 
L 721.383555 416.131879 
L 728.931199 416.131879 
L 729.375179 422.103168 
L 733.814969 422.103168 
L 735.590886 416.131879 
L 736.478844 416.131879 
L 736.922823 428.062516 
L 739.586697 428.062516 
L 740.030676 416.143821 
L 742.250572 416.143821 
L 742.694551 410.172543 
L 747.578321 410.172543 
L 748.0223 422.103168 
L 748.466279 422.103168 
L 748.910258 463.487524 
L 751.574133 463.487524 
L 752.018112 451.663423 
L 760.009735 451.663423 
L 760.453714 410.196381 
L 761.341672 410.196381 
L 761.785651 374.188819 
L 769.333296 374.188819 
L 769.777275 422.103168 
L 774.217066 422.103168 
L 775.549003 386.239494 
L 779.544815 386.239494 
L 779.988794 463.944122 
L 783.096647 463.944122 
L 783.540627 499.342963 
L 786.64848 499.342963 
L 787.980417 422.103168 
L 788.424396 422.103168 
L 791.088271 475.790982 
L 797.747957 475.790982 
L 798.191936 422.103168 
L 802.187748 422.103168 
L 803.519685 469.873487 
L 807.071518 469.873487 
L 807.515497 416.131879 
L 810.623351 416.131879 
L 811.06733 367.927284 
L 814.175183 367.927284 
L 814.619162 422.103168 
L 815.9511 416.131879 
L 819.502932 416.131879 
L 819.946911 422.103168 
L 822.610786 422.103168 
L 823.054765 428.068481 
L 826.606597 428.068481 
L 827.050577 422.103168 
L 829.270472 422.103168 
L 829.714451 445.892978 
L 832.822305 445.892978 
L 833.266284 404.260811 
L 836.374137 404.260811 
L 837.706075 380.30414 
L 840.813928 380.30414 
L 841.257907 422.103168 
L 842.589844 422.103168 
L 843.921782 404.260811 
L 845.697698 404.260811 
L 847.029635 410.208264 
L 851.469426 410.208264 
L 851.913405 428.032867 
L 854.57728 428.032867 
L 855.021259 422.103168 
L 856.353196 422.103168 
L 859.905029 410.208264 
L 866.564715 410.208264 
L 867.008694 422.103168 
L 870.116548 422.103168 
L 870.560527 392.276606 
L 878.108171 392.276606 
L 878.55215 422.103168 
L 882.991941 422.103168 
L 884.323878 392.276606 
L 886.099794 392.276606 
L 887.431732 451.929731 
L 890.983564 451.929731 
L 891.427543 481.459217 
L 894.091418 481.459217 
L 894.535397 422.103168 
L 897.199272 422.103168 
L 898.08723 463.776926 
L 900.751104 463.776926 
L 901.195083 428.056562 
L 904.746916 428.056562 
L 906.078853 386.131253 
L 907.854769 386.131253 
L 909.186707 422.103168 
L 913.182518 428.056562 
L 913.626498 428.056562 
L 914.070477 439.927737 
L 919.842205 439.927737 
L 920.286184 422.103168 
L 923.394037 422.103168 
L 924.725975 439.927737 
L 931.385661 439.927737 
L 931.82964 422.103168 
L 937.157389 422.103168 
L 937.601368 361.907741 
L 941.153201 361.907741 
L 941.59718 385.985912 
L 944.705033 385.985912 
L 945.149012 445.940557 
L 948.256866 445.940557 
L 949.588803 422.103168 
L 950.476761 422.103168 
L 950.476761 422.103168 
" clip-path="url(#p42e0330b36)" style="fill: none; stroke: #008000; stroke-width: 1.5; stroke-linecap: square"/>
   </g>
   <g id="patch_9">
    <path d="M 42.828125 551.684792 
L 42.828125 302.191458 
" style="fill: none; stroke: #000000; stroke-width: 0.8; stroke-linejoin: miter; stroke-linecap: square"/>
   </g>
   <g id="patch_10">
    <path d="M 993.698125 551.684792 
L 993.698125 302.191458 
" style="fill: none; stroke: #000000; stroke-width: 0.8; stroke-linejoin: miter; stroke-linecap: square"/>
   </g>
   <g id="patch_11">
    <path d="M 42.828125 551.684792 
L 993.698125 551.684792 
" style="fill: none; stroke: #000000; stroke-width: 0.8; stroke-linejoin: miter; stroke-linecap: square"/>
   </g>
   <g id="patch_12">
    <path d="M 42.828125 302.191458 
L 993.698125 302.191458 
" style="fill: none; stroke: #000000; stroke-width: 0.8; stroke-linejoin: miter; stroke-linecap: square"/>
   </g>
   <g id="text_19">
    <!-- CPI Year-over-Year Change (%) -->
    <g transform="translate(427.854375 296.191458) scale(0.12 -0.12)">
     <defs>
      <path id="DejaVuSans-59" d="M -13 4666 
L 666 4666 
L 1959 2747 
L 3244 4666 
L 3922 4666 
L 2272 2222 
L 2272 0 
L 1638 0 
L 1638 2222 
L -13 4666 
z
" transform="scale(0.015625)"/>
      <path id="DejaVuSans-72" d="M 2631 2963 
Q 2534 3019 2420 3045 
Q 2306 3072 2169 3072 
Q 1681 3072 1420 2755 
Q 1159 2438 1159 1844 
L 1159 0 
L 581 0 
L 581 3500 
L 1159 3500 
L 1159 2956 
Q 1341 3275 1631 3429 
Q 1922 3584 2338 3584 
Q 2397 3584 2469 3576 
Q 2541 3569 2628 3553 
L 2631 2963 
z
" transform="scale(0.015625)"/>
      <path id="DejaVuSans-76" d="M 191 3500 
L 800 3500 
L 1894 563 
L 2988 3500 
L 3597 3500 
L 2284 0 
L 1503 0 
L 191 3500 
z
" transform="scale(0.015625)"/>
      <path id="DejaVuSans-28" d="M 1984 4856 
Q 1566 4138 1362 3434 
Q 1159 2731 1159 2009 
Q 1159 1288 1364 580 
Q 1569 -128 1984 -844 
L 1484 -844 
Q 1016 -109 783 600 
Q 550 1309 550 2009 
Q 550 2706 781 3412 
Q 1013 4119 1484 4856 
L 1984 4856 
z
" transform="scale(0.015625)"/>
      <path id="DejaVuSans-25" d="M 4653 2053 
Q 4381 2053 4226 1822 
Q 4072 1591 4072 1178 
Q 4072 772 4226 539 
Q 4381 306 4653 306 
Q 4919 306 5073 539 
Q 5228 772 5228 1178 
Q 5228 1588 5073 1820 
Q 4919 2053 4653 2053 
z
M 4653 2450 
Q 5147 2450 5437 2106 
Q 5728 1763 5728 1178 
Q 5728 594 5436 251 
Q 5144 -91 4653 -91 
Q 4153 -91 3862 251 
Q 3572 594 3572 1178 
Q 3572 1766 3864 2108 
Q 4156 2450 4653 2450 
z
M 1428 4353 
Q 1159 4353 1004 4120 
Q 850 3888 850 3481 
Q 850 3069 1003 2837 
Q 1156 2606 1428 2606 
Q 1700 2606 1854 2837 
Q 2009 3069 2009 3481 
Q 2009 3884 1853 4118 
Q 1697 4353 1428 4353 
z
M 4250 4750 
L 4750 4750 
L 1831 -91 
L 1331 -91 
L 4250 4750 
z
M 1428 4750 
Q 1922 4750 2215 4408 
Q 2509 4066 2509 3481 
Q 2509 2891 2217 2550 
Q 1925 2209 1428 2209 
Q 931 2209 642 2551 
Q 353 2894 353 3481 
Q 353 4063 643 4406 
Q 934 4750 1428 4750 
z
" transform="scale(0.015625)"/>
      <path id="DejaVuSans-29" d="M 513 4856 
L 1013 4856 
Q 1481 4119 1714 3412 
Q 1947 2706 1947 2009 
Q 1947 1309 1714 600 
Q 1481 -109 1013 -844 
L 513 -844 
Q 928 -128 1133 580 
Q 1338 1288 1338 2009 
Q 1338 2731 1133 3434 
Q 928 4138 513 4856 
z
" transform="scale(0.015625)"/>
     </defs>
     <use xlink:href="#DejaVuSans-43"/>
     <use xlink:href="#DejaVuSans-50" transform="translate(69.824219 0)"/>
     <use xlink:href="#DejaVuSans-49" transform="translate(130.126953 0)"/>
     <use xlink:href="#DejaVuSans-20" transform="translate(159.619141 0)"/>
     <use xlink:href="#DejaVuSans-59" transform="translate(191.40625 0)"/>
     <use xlink:href="#DejaVuSans-65" transform="translate(239.240234 0)"/>
     <use xlink:href="#DejaVuSans-61" transform="translate(300.763672 0)"/>
     <use xlink:href="#DejaVuSans-72" transform="translate(362.042969 0)"/>
     <use xlink:href="#DejaVuSans-2d" transform="translate(396.78125 0)"/>
     <use xlink:href="#DejaVuSans-6f" transform="translate(434.740234 0)"/>
     <use xlink:href="#DejaVuSans-76" transform="translate(495.921875 0)"/>
     <use xlink:href="#DejaVuSans-65" transform="translate(555.101562 0)"/>
     <use xlink:href="#DejaVuSans-72" transform="translate(616.625 0)"/>
     <use xlink:href="#DejaVuSans-2d" transform="translate(651.363281 0)"/>
     <use xlink:href="#DejaVuSans-59" transform="translate(675.572266 0)"/>
     <use xlink:href="#DejaVuSans-65" transform="translate(723.40625 0)"/>
     <use xlink:href="#DejaVuSans-61" transform="translate(784.929688 0)"/>
     <use xlink:href="#DejaVuSans-72" transform="translate(846.208984 0)"/>
     <use xlink:href="#DejaVuSans-20" transform="translate(887.322266 0)"/>
     <use xlink:href="#DejaVuSans-43" transform="translate(919.109375 0)"/>
     <use xlink:href="#DejaVuSans-68" transform="translate(988.933594 0)"/>
     <use xlink:href="#DejaVuSans-61" transform="translate(1052.3125 0)"/>
     <use xlink:href="#DejaVuSans-6e" transform="translate(1113.591797 0)"/>
     <use xlink:href="#DejaVuSans-67" transform="translate(1176.970703 0)"/>
     <use xlink:href="#DejaVuSans-65" transform="translate(1240.447266 0)"/>
     <use xlink:href="#DejaVuSans-20" transform="translate(1301.970703 0)"/>
     <use xlink:href="#DejaVuSans-28" transform="translate(1333.757812 0)"/>
     <use xlink:href="#DejaVuSans-25" transform="translate(1372.771484 0)"/>
     <use xlink:href="#DejaVuSans-29" transform="translate(1467.791016 0)"/>
    </g>
   </g>
   <g id="legend_2">
    <g id="patch_13">
     <path d="M 898.065313 324.869583 
L 986.698125 324.869583 
Q 988.698125 324.869583 988.698125 322.869583 
L 988.698125 309.191458 
Q 988.698125 307.191458 986.698125 307.191458 
L 898.065313 307.191458 
Q 896.065313 307.191458 896.065313 309.191458 
L 896.065313 322.869583 
Q 896.065313 324.869583 898.065313 324.869583 
z
" style="fill: #ffffff; opacity: 0.8; stroke: #cccccc; stroke-linejoin: miter"/>
    </g>
    <g id="line2d_33">
     <path d="M 900.065313 315.289896 
L 910.065313 315.289896 
L 920.065313 315.289896 
" style="fill: none; stroke: #008000; stroke-width: 1.5; stroke-linecap: square"/>
    </g>
    <g id="text_20">
     <!-- CPI YoY (%) -->
     <g transform="translate(928.065313 318.789896) scale(0.1 -0.1)">
      <use xlink:href="#DejaVuSans-43"/>
      <use xlink:href="#DejaVuSans-50" transform="translate(69.824219 0)"/>
      <use xlink:href="#DejaVuSans-49" transform="translate(130.126953 0)"/>
      <use xlink:href="#DejaVuSans-20" transform="translate(159.619141 0)"/>
      <use xlink:href="#DejaVuSans-59" transform="translate(191.40625 0)"/>
      <use xlink:href="#DejaVuSans-6f" transform="translate(239.240234 0)"/>
      <use xlink:href="#DejaVuSans-59" transform="translate(300.421875 0)"/>
      <use xlink:href="#DejaVuSans-20" transform="translate(361.505859 0)"/>
      <use xlink:href="#DejaVuSans-28" transform="translate(393.292969 0)"/>
      <use xlink:href="#DejaVuSans-25" transform="translate(432.306641 0)"/>
      <use xlink:href="#DejaVuSans-29" transform="translate(527.326172 0)"/>
     </g>
    </g>
   </g>
  </g>
  <g id="axes_3">
   <g id="patch_14">
    <path d="M 42.828125 831.558125 
L 993.698125 831.558125 
L 993.698125 582.064792 
L 42.828125 582.064792 
z
" style="fill: #ffffff"/>
   </g>
   <g id="matplotlib.axis_5">
    <g id="xtick_13">
     <g id="line2d_34">
      <g>
       <use xlink:href="#mbcc4e69dfb" x="86.493468" y="831.558125" style="stroke: #000000; stroke-width: 0.8"/>
      </g>
     </g>
     <g id="text_21">
      <!-- 2020 -->
      <g transform="translate(73.768468 846.156562) scale(0.1 -0.1)">
       <use xlink:href="#DejaVuSans-32"/>
       <use xlink:href="#DejaVuSans-30" transform="translate(63.623047 0)"/>
       <use xlink:href="#DejaVuSans-32" transform="translate(127.246094 0)"/>
       <use xlink:href="#DejaVuSans-30" transform="translate(190.869141 0)"/>
      </g>
     </g>
    </g>
    <g id="xtick_14">
     <g id="line2d_35">
      <g>
       <use xlink:href="#mbcc4e69dfb" x="248.989812" y="831.558125" style="stroke: #000000; stroke-width: 0.8"/>
      </g>
     </g>
     <g id="text_22">
      <!-- 2021 -->
      <g transform="translate(236.264812 846.156562) scale(0.1 -0.1)">
       <use xlink:href="#DejaVuSans-32"/>
       <use xlink:href="#DejaVuSans-30" transform="translate(63.623047 0)"/>
       <use xlink:href="#DejaVuSans-32" transform="translate(127.246094 0)"/>
       <use xlink:href="#DejaVuSans-31" transform="translate(190.869141 0)"/>
      </g>
     </g>
    </g>
    <g id="xtick_15">
     <g id="line2d_36">
      <g>
       <use xlink:href="#mbcc4e69dfb" x="411.042177" y="831.558125" style="stroke: #000000; stroke-width: 0.8"/>
      </g>
     </g>
     <g id="text_23">
      <!-- 2022 -->
      <g transform="translate(398.317177 846.156562) scale(0.1 -0.1)">
       <use xlink:href="#DejaVuSans-32"/>
       <use xlink:href="#DejaVuSans-30" transform="translate(63.623047 0)"/>
       <use xlink:href="#DejaVuSans-32" transform="translate(127.246094 0)"/>
       <use xlink:href="#DejaVuSans-32" transform="translate(190.869141 0)"/>
      </g>
     </g>
    </g>
    <g id="xtick_16">
     <g id="line2d_37">
      <g>
       <use xlink:href="#mbcc4e69dfb" x="573.094542" y="831.558125" style="stroke: #000000; stroke-width: 0.8"/>
      </g>
     </g>
     <g id="text_24">
      <!-- 2023 -->
      <g transform="translate(560.369542 846.156562) scale(0.1 -0.1)">
       <defs>
        <path id="DejaVuSans-33" d="M 2597 2516 
Q 3050 2419 3304 2112 
Q 3559 1806 3559 1356 
Q 3559 666 3084 287 
Q 2609 -91 1734 -91 
Q 1441 -91 1130 -33 
Q 819 25 488 141 
L 488 750 
Q 750 597 1062 519 
Q 1375 441 1716 441 
Q 2309 441 2620 675 
Q 2931 909 2931 1356 
Q 2931 1769 2642 2001 
Q 2353 2234 1838 2234 
L 1294 2234 
L 1294 2753 
L 1863 2753 
Q 2328 2753 2575 2939 
Q 2822 3125 2822 3475 
Q 2822 3834 2567 4026 
Q 2313 4219 1838 4219 
Q 1578 4219 1281 4162 
Q 984 4106 628 3988 
L 628 4550 
Q 988 4650 1302 4700 
Q 1616 4750 1894 4750 
Q 2613 4750 3031 4423 
Q 3450 4097 3450 3541 
Q 3450 3153 3228 2886 
Q 3006 2619 2597 2516 
z
" transform="scale(0.015625)"/>
       </defs>
       <use xlink:href="#DejaVuSans-32"/>
       <use xlink:href="#DejaVuSans-30" transform="translate(63.623047 0)"/>
       <use xlink:href="#DejaVuSans-32" transform="translate(127.246094 0)"/>
       <use xlink:href="#DejaVuSans-33" transform="translate(190.869141 0)"/>
      </g>
     </g>
    </g>
    <g id="xtick_17">
     <g id="line2d_38">
      <g>
       <use xlink:href="#mbcc4e69dfb" x="735.146907" y="831.558125" style="stroke: #000000; stroke-width: 0.8"/>
      </g>
     </g>
     <g id="text_25">
      <!-- 2024 -->
      <g transform="translate(722.421907 846.156562) scale(0.1 -0.1)">
       <defs>
        <path id="DejaVuSans-34" d="M 2419 4116 
L 825 1625 
L 2419 1625 
L 2419 4116 
z
M 2253 4666 
L 3047 4666 
L 3047 1625 
L 3713 1625 
L 3713 1100 
L 3047 1100 
L 3047 0 
L 2419 0 
L 2419 1100 
L 313 1100 
L 313 1709 
L 2253 4666 
z
" transform="scale(0.015625)"/>
       </defs>
       <use xlink:href="#DejaVuSans-32"/>
       <use xlink:href="#DejaVuSans-30" transform="translate(63.623047 0)"/>
       <use xlink:href="#DejaVuSans-32" transform="translate(127.246094 0)"/>
       <use xlink:href="#DejaVuSans-34" transform="translate(190.869141 0)"/>
      </g>
     </g>
    </g>
    <g id="xtick_18">
     <g id="line2d_39">
      <g>
       <use xlink:href="#mbcc4e69dfb" x="897.643251" y="831.558125" style="stroke: #000000; stroke-width: 0.8"/>
      </g>
     </g>
     <g id="text_26">
      <!-- 2025 -->
      <g transform="translate(884.918251 846.156562) scale(0.1 -0.1)">
       <use xlink:href="#DejaVuSans-32"/>
       <use xlink:href="#DejaVuSans-30" transform="translate(63.623047 0)"/>
       <use xlink:href="#DejaVuSans-32" transform="translate(127.246094 0)"/>
       <use xlink:href="#DejaVuSans-35" transform="translate(190.869141 0)"/>
      </g>
     </g>
    </g>
   </g>
   <g id="matplotlib.axis_6">
    <g id="ytick_16">
     <g id="line2d_40">
      <g>
       <use xlink:href="#m0944656953" x="42.828125" y="821.281366" style="stroke: #000000; stroke-width: 0.8"/>
      </g>
     </g>
     <g id="text_27">
      <!-- −2.0 -->
      <g transform="translate(11.545312 825.080584) scale(0.1 -0.1)">
       <use xlink:href="#DejaVuSans-2212"/>
       <use xlink:href="#DejaVuSans-32" transform="translate(83.789062 0)"/>
       <use xlink:href="#DejaVuSans-2e" transform="translate(147.412109 0)"/>
       <use xlink:href="#DejaVuSans-30" transform="translate(179.199219 0)"/>
      </g>
     </g>
    </g>
    <g id="ytick_17">
     <g id="line2d_41">
      <g>
       <use xlink:href="#m0944656953" x="42.828125" y="787.770194" style="stroke: #000000; stroke-width: 0.8"/>
      </g>
     </g>
     <g id="text_28">
      <!-- −1.5 -->
      <g transform="translate(11.545312 791.569413) scale(0.1 -0.1)">
       <use xlink:href="#DejaVuSans-2212"/>
       <use xlink:href="#DejaVuSans-31" transform="translate(83.789062 0)"/>
       <use xlink:href="#DejaVuSans-2e" transform="translate(147.412109 0)"/>
       <use xlink:href="#DejaVuSans-35" transform="translate(179.199219 0)"/>
      </g>
     </g>
    </g>
    <g id="ytick_18">
     <g id="line2d_42">
      <g>
       <use xlink:href="#m0944656953" x="42.828125" y="754.259022" style="stroke: #000000; stroke-width: 0.8"/>
      </g>
     </g>
     <g id="text_29">
      <!-- −1.0 -->
      <g transform="translate(11.545312 758.058241) scale(0.1 -0.1)">
       <use xlink:href="#DejaVuSans-2212"/>
       <use xlink:href="#DejaVuSans-31" transform="translate(83.789062 0)"/>
       <use xlink:href="#DejaVuSans-2e" transform="translate(147.412109 0)"/>
       <use xlink:href="#DejaVuSans-30" transform="translate(179.199219 0)"/>
      </g>
     </g>
    </g>
    <g id="ytick_19">
     <g id="line2d_43">
      <g>
       <use xlink:href="#m0944656953" x="42.828125" y="720.74785" style="stroke: #000000; stroke-width: 0.8"/>
      </g>
     </g>
     <g id="text_30">
      <!-- −0.5 -->
      <g transform="translate(11.545312 724.547069) scale(0.1 -0.1)">
       <use xlink:href="#DejaVuSans-2212"/>
       <use xlink:href="#DejaVuSans-30" transform="translate(83.789062 0)"/>
       <use xlink:href="#DejaVuSans-2e" transform="translate(147.412109 0)"/>
       <use xlink:href="#DejaVuSans-35" transform="translate(179.199219 0)"/>
      </g>
     </g>
    </g>
    <g id="ytick_20">
     <g id="line2d_44">
      <g>
       <use xlink:href="#m0944656953" x="42.828125" y="687.236679" style="stroke: #000000; stroke-width: 0.8"/>
      </g>
     </g>
     <g id="text_31">
      <!-- 0.0 -->
      <g transform="translate(19.925 691.035897) scale(0.1 -0.1)">
       <use xlink:href="#DejaVuSans-30"/>
       <use xlink:href="#DejaVuSans-2e" transform="translate(63.623047 0)"/>
       <use xlink:href="#DejaVuSans-30" transform="translate(95.410156 0)"/>
      </g>
     </g>
    </g>
    <g id="ytick_21">
     <g id="line2d_45">
      <g>
       <use xlink:href="#m0944656953" x="42.828125" y="653.725507" style="stroke: #000000; stroke-width: 0.8"/>
      </g>
     </g>
     <g id="text_32">
      <!-- 0.5 -->
      <g transform="translate(19.925 657.524726) scale(0.1 -0.1)">
       <use xlink:href="#DejaVuSans-30"/>
       <use xlink:href="#DejaVuSans-2e" transform="translate(63.623047 0)"/>
       <use xlink:href="#DejaVuSans-35" transform="translate(95.410156 0)"/>
      </g>
     </g>
    </g>
    <g id="ytick_22">
     <g id="line2d_46">
      <g>
       <use xlink:href="#m0944656953" x="42.828125" y="620.214335" style="stroke: #000000; stroke-width: 0.8"/>
      </g>
     </g>
     <g id="text_33">
      <!-- 1.0 -->
      <g transform="translate(19.925 624.013554) scale(0.1 -0.1)">
       <use xlink:href="#DejaVuSans-31"/>
       <use xlink:href="#DejaVuSans-2e" transform="translate(63.623047 0)"/>
       <use xlink:href="#DejaVuSans-30" transform="translate(95.410156 0)"/>
      </g>
     </g>
    </g>
    <g id="ytick_23">
     <g id="line2d_47">
      <g>
       <use xlink:href="#m0944656953" x="42.828125" y="586.703163" style="stroke: #000000; stroke-width: 0.8"/>
      </g>
     </g>
     <g id="text_34">
      <!-- 1.5 -->
      <g transform="translate(19.925 590.502382) scale(0.1 -0.1)">
       <use xlink:href="#DejaVuSans-31"/>
       <use xlink:href="#DejaVuSans-2e" transform="translate(63.623047 0)"/>
       <use xlink:href="#DejaVuSans-35" transform="translate(95.410156 0)"/>
      </g>
     </g>
    </g>
   </g>
   <g id="line2d_48">
    <path d="M 87.381426 687.236679 
L 102.920694 687.236679 
L 104.252631 593.405398 
L 104.69661 687.236679 
L 116.684045 687.236679 
L 117.128024 726.89487 
L 117.572003 687.236679 
L 130.447397 687.236679 
L 130.891376 820.217519 
L 132.223313 687.236679 
L 144.654727 687.236679 
L 145.098707 666.885765 
L 145.542686 687.236679 
L 157.530121 687.236679 
L 157.9741 680.473576 
L 158.418079 687.236679 
L 170.405514 687.236679 
L 170.849493 639.942686 
L 171.293472 687.236679 
L 183.724887 687.236679 
L 185.056824 640.274076 
L 185.500803 687.236679 
L 197.932217 687.236679 
L 198.376196 700.5612 
L 198.820175 687.236679 
L 213.915464 687.236679 
L 214.359443 700.587743 
L 214.803422 687.236679 
L 225.45892 687.236679 
L 225.902899 720.680962 
L 226.346879 687.236679 
L 238.334314 687.236679 
L 238.778293 707.403883 
L 239.222272 687.236679 
L 248.545833 687.236679 
M 250.765728 687.236679 
L 252.097665 687.236679 
L 253.429603 599.581702 
L 253.873582 687.236679 
L 266.304996 687.236679 
L 266.748975 667.269744 
L 270.300808 687.236679 
L 278.73641 687.236679 
L 279.180389 713.780181 
L 279.624368 687.236679 
L 292.055783 687.236679 
L 292.499762 760.521547 
L 293.831699 687.236679 
L 306.263113 687.236679 
L 306.707092 673.764851 
L 307.151071 687.236679 
L 319.138507 687.236679 
L 319.582486 680.514277 
L 320.026465 687.236679 
L 332.457879 687.236679 
L 332.901858 700.66801 
L 334.233795 687.236679 
L 345.333273 687.236679 
L 346.66521 640.132622 
L 347.109189 687.236679 
L 359.984582 687.236679 
L 360.428561 700.601054 
L 360.87254 687.236679 
L 375.52385 687.236679 
L 375.967829 693.932217 
L 376.411808 687.236679 
L 387.511285 687.236679 
L 387.955264 640.321038 
L 388.399244 687.236679 
L 400.386679 687.236679 
L 400.830658 707.203613 
L 401.274637 687.236679 
L 410.598198 687.236679 
M 412.818093 687.236679 
L 415.481968 687.236679 
L 415.925947 733.965404 
L 416.369926 687.236679 
L 431.021235 687.236679 
L 431.465214 640.179868 
L 431.909194 687.236679 
L 440.344796 687.236679 
L 440.788775 673.885614 
L 441.232754 687.236679 
L 454.108148 687.236679 
L 455.440085 727.210243 
L 455.884064 687.236679 
L 468.315478 687.236679 
L 468.759457 660.427741 
L 469.203436 687.236679 
L 481.634851 687.236679 
L 482.07883 727.289872 
L 483.410767 687.236679 
L 508.717575 687.236679 
L 509.161554 640.227019 
L 509.605533 687.236679 
L 522.036947 687.236679 
L 522.480926 727.250018 
L 524.256843 687.236679 
L 537.576215 687.236679 
L 538.020194 660.400905 
L 539.352131 687.236679 
L 549.119671 687.236679 
L 549.56365 700.601054 
L 550.007629 687.236679 
L 562.439044 687.236679 
L 562.883023 707.323295 
L 564.21496 687.236679 
L 572.206583 687.236679 
M 574.426479 687.236679 
L 577.534332 687.236679 
L 577.978312 673.805347 
L 578.422291 687.236679 
L 590.409726 687.236679 
L 590.853705 633.618804 
L 592.185642 687.236679 
L 602.397161 687.236679 
L 602.84114 773.674225 
L 603.285119 687.236679 
L 617.048471 687.236679 
L 617.49245 673.764851 
L 617.936429 687.236679 
L 630.367843 687.236679 
L 630.811822 673.791876 
L 631.255801 687.236679 
L 643.243237 687.236679 
L 643.687216 693.945622 
L 645.019153 687.236679 
L 670.325961 687.236679 
L 670.76994 660.374016 
L 671.213919 687.236679 
L 711.172036 687.236679 
L 711.616015 707.303249 
L 712.059994 687.236679 
L 733.814969 687.236679 
M 736.034865 687.236679 
L 739.586697 687.236679 
L 740.030676 673.818792 
L 741.362614 687.236679 
L 751.574133 687.236679 
L 752.018112 673.845601 
L 756.901882 687.236679 
L 779.544815 687.236679 
L 779.988794 774.10512 
L 780.432773 687.236679 
L 807.071518 687.236679 
L 807.515497 626.307275 
L 807.959476 687.236679 
L 819.502932 687.236679 
L 819.946911 693.945622 
L 820.39089 687.236679 
L 832.822305 687.236679 
L 833.266284 640.227019 
L 834.598221 687.236679 
L 845.697698 687.236679 
L 847.029635 693.905569 
L 847.473614 687.236679 
L 886.099794 687.236679 
L 887.431732 753.992001 
L 887.875711 687.236679 
L 897.199272 687.236679 
M 898.531209 687.236679 
L 900.751104 687.236679 
L 901.195083 646.780536 
L 901.639062 687.236679 
L 941.153201 687.236679 
L 941.59718 714.045616 
L 942.041159 687.236679 
L 950.476761 687.236679 
L 950.476761 687.236679 
" clip-path="url(#p949570c2d2)" style="fill: none; stroke: #ff0000; stroke-width: 1.5; stroke-linecap: square"/>
   </g>
   <g id="patch_15">
    <path d="M 42.828125 831.558125 
L 42.828125 582.064792 
" style="fill: none; stroke: #000000; stroke-width: 0.8; stroke-linejoin: miter; stroke-linecap: square"/>
   </g>
   <g id="patch_16">
    <path d="M 993.698125 831.558125 
L 993.698125 582.064792 
" style="fill: none; stroke: #000000; stroke-width: 0.8; stroke-linejoin: miter; stroke-linecap: square"/>
   </g>
   <g id="patch_17">
    <path d="M 42.828125 831.558125 
L 993.698125 831.558125 
" style="fill: none; stroke: #000000; stroke-width: 0.8; stroke-linejoin: miter; stroke-linecap: square"/>
   </g>
   <g id="patch_18">
    <path d="M 42.828125 582.064792 
L 993.698125 582.064792 
" style="fill: none; stroke: #000000; stroke-width: 0.8; stroke-linejoin: miter; stroke-linecap: square"/>
   </g>
   <g id="text_35">
    <!-- CPI Month-over-Month Change (%) -->
    <g transform="translate(414.55875 576.064792) scale(0.12 -0.12)">
     <use xlink:href="#DejaVuSans-43"/>
     <use xlink:href="#DejaVuSans-50" transform="translate(69.824219 0)"/>
     <use xlink:href="#DejaVuSans-49" transform="translate(130.126953 0)"/>
     <use xlink:href="#DejaVuSans-20" transform="translate(159.619141 0)"/>
     <use xlink:href="#DejaVuSans-4d" transform="translate(191.40625 0)"/>
     <use xlink:href="#DejaVuSans-6f" transform="translate(277.685547 0)"/>
     <use xlink:href="#DejaVuSans-6e" transform="translate(338.867188 0)"/>
     <use xlink:href="#DejaVuSans-74" transform="translate(402.246094 0)"/>
     <use xlink:href="#DejaVuSans-68" transform="translate(441.455078 0)"/>
     <use xlink:href="#DejaVuSans-2d" transform="translate(504.833984 0)"/>
     <use xlink:href="#DejaVuSans-6f" transform="translate(542.792969 0)"/>
     <use xlink:href="#DejaVuSans-76" transform="translate(603.974609 0)"/>
     <use xlink:href="#DejaVuSans-65" transform="translate(663.154297 0)"/>
     <use xlink:href="#DejaVuSans-72" transform="translate(724.677734 0)"/>
     <use xlink:href="#DejaVuSans-2d" transform="translate(759.416016 0)"/>
     <use xlink:href="#DejaVuSans-4d" transform="translate(795.5 0)"/>
     <use xlink:href="#DejaVuSans-6f" transform="translate(881.779297 0)"/>
     <use xlink:href="#DejaVuSans-6e" transform="translate(942.960938 0)"/>
     <use xlink:href="#DejaVuSans-74" transform="translate(1006.339844 0)"/>
     <use xlink:href="#DejaVuSans-68" transform="translate(1045.548828 0)"/>
     <use xlink:href="#DejaVuSans-20" transform="translate(1108.927734 0)"/>
     <use xlink:href="#DejaVuSans-43" transform="translate(1140.714844 0)"/>
     <use xlink:href="#DejaVuSans-68" transform="translate(1210.539062 0)"/>
     <use xlink:href="#DejaVuSans-61" transform="translate(1273.917969 0)"/>
     <use xlink:href="#DejaVuSans-6e" transform="translate(1335.197266 0)"/>
     <use xlink:href="#DejaVuSans-67" transform="translate(1398.576172 0)"/>
     <use xlink:href="#DejaVuSans-65" transform="translate(1462.052734 0)"/>
     <use xlink:href="#DejaVuSans-20" transform="translate(1523.576172 0)"/>
     <use xlink:href="#DejaVuSans-28" transform="translate(1555.363281 0)"/>
     <use xlink:href="#DejaVuSans-25" transform="translate(1594.376953 0)"/>
     <use xlink:href="#DejaVuSans-29" transform="translate(1689.396484 0)"/>
    </g>
   </g>
   <g id="legend_3">
    <g id="patch_19">
     <path d="M 891.699687 604.742917 
L 986.698125 604.742917 
Q 988.698125 604.742917 988.698125 602.742917 
L 988.698125 589.064792 
Q 988.698125 587.064792 986.698125 587.064792 
L 891.699687 587.064792 
Q 889.699687 587.064792 889.699687 589.064792 
L 889.699687 602.742917 
Q 889.699687 604.742917 891.699687 604.742917 
z
" style="fill: #ffffff; opacity: 0.8; stroke: #cccccc; stroke-linejoin: miter"/>
    </g>
    <g id="line2d_49">
     <path d="M 893.699687 595.163229 
L 903.699687 595.163229 
L 913.699687 595.163229 
" style="fill: none; stroke: #ff0000; stroke-width: 1.5; stroke-linecap: square"/>
    </g>
    <g id="text_36">
     <!-- CPI MoM (%) -->
     <g transform="translate(921.699687 598.663229) scale(0.1 -0.1)">
      <use xlink:href="#DejaVuSans-43"/>
      <use xlink:href="#DejaVuSans-50" transform="translate(69.824219 0)"/>
      <use xlink:href="#DejaVuSans-49" transform="translate(130.126953 0)"/>
      <use xlink:href="#DejaVuSans-20" transform="translate(159.619141 0)"/>
      <use xlink:href="#DejaVuSans-4d" transform="translate(191.40625 0)"/>
      <use xlink:href="#DejaVuSans-6f" transform="translate(277.685547 0)"/>
      <use xlink:href="#DejaVuSans-4d" transform="translate(338.867188 0)"/>
      <use xlink:href="#DejaVuSans-20" transform="translate(425.146484 0)"/>
      <use xlink:href="#DejaVuSans-28" transform="translate(456.933594 0)"/>
      <use xlink:href="#DejaVuSans-25" transform="translate(495.947266 0)"/>
      <use xlink:href="#DejaVuSans-29" transform="translate(590.966797 0)"/>
     </g>
    </g>
   </g>
  </g>
 </g>
 <defs>
  <clipPath id="p7413fe4a7c">
   <rect x="42.828125" y="22.318125" width="950.87" height="249.493333"/>
  </clipPath>
  <clipPath id="p42e0330b36">
   <rect x="42.828125" y="302.191458" width="950.87" height="249.493333"/>
  </clipPath>
  <clipPath id="p949570c2d2">
   <rect x="42.828125" y="582.064792" width="950.87" height="249.493333"/>
  </clipPath>
 </defs>
</svg>
