<?xml version="1.0" encoding="utf-8" standalone="no"?>
<!DOCTYPE svg PUBLIC "-//W3C//DTD SVG 1.1//EN"
  "http://www.w3.org/Graphics/SVG/1.1/DTD/svg11.dtd">
<svg xmlns:xlink="http://www.w3.org/1999/xlink" width="576pt" height="432pt" viewBox="0 0 576 432" xmlns="http://www.w3.org/2000/svg" version="1.1">
 <metadata>
  <rdf:RDF xmlns:dc="http://purl.org/dc/elements/1.1/" xmlns:cc="http://creativecommons.org/ns#" xmlns:rdf="http://www.w3.org/1999/02/22-rdf-syntax-ns#">
   <cc:Work>
    <dc:type rdf:resource="http://purl.org/dc/dcmitype/StillImage"/>
    <dc:date>2025-05-04T15:24:37.789034</dc:date>
    <dc:format>image/svg+xml</dc:format>
    <dc:creator>
     <cc:Agent>
      <dc:title>Matplotlib v3.10.1, https://matplotlib.org/</dc:title>
     </cc:Agent>
    </dc:creator>
   </cc:Work>
  </rdf:RDF>
 </metadata>
 <defs>
  <style type="text/css">*{stroke-linejoin: round; stroke-linecap: butt}</style>
 </defs>
 <g id="figure_1">
  <g id="patch_1">
   <path d="M 0 432 
L 576 432 
L 576 0 
L 0 0 
z
" style="fill: #ffffff"/>
  </g>
  <g id="axes_1">
   <g id="patch_2">
    <path d="M 47.72 179.44 
L 565.2 179.44 
L 565.2 26.88 
L 47.72 26.88 
z
" style="fill: #ffffff"/>
   </g>
   <g id="matplotlib.axis_1">
    <g id="xtick_1">
     <g id="line2d_1">
      <defs>
       <path id="m822bdb47b7" d="M 0 0 
L 0 3.5 
" style="stroke: #000000; stroke-width: 0.8"/>
      </defs>
      <g>
       <use xlink:href="#m822bdb47b7" x="71.483439" y="179.44" style="stroke: #000000; stroke-width: 0.8"/>
      </g>
     </g>
     <g id="text_1">
      <!-- 2020 -->
      <g transform="translate(58.758439 194.038437) scale(0.1 -0.1)">
       <defs>
        <path id="DejaVuSans-32" d="M 1228 531 
L 3431 531 
L 3431 0 
L 469 0 
L 469 531 
Q 828 903 1448 1529 
Q 2069 2156 2228 2338 
Q 2531 2678 2651 2914 
Q 2772 3150 2772 3378 
Q 2772 3750 2511 3984 
Q 2250 4219 1831 4219 
Q 1534 4219 1204 4116 
Q 875 4013 500 3803 
L 500 4441 
Q 881 4594 1212 4672 
Q 1544 4750 1819 4750 
Q 2544 4750 2975 4387 
Q 3406 4025 3406 3419 
Q 3406 3131 3298 2873 
Q 3191 2616 2906 2266 
Q 2828 2175 2409 1742 
Q 1991 1309 1228 531 
z
" transform="scale(0.015625)"/>
        <path id="DejaVuSans-30" d="M 2034 4250 
Q 1547 4250 1301 3770 
Q 1056 3291 1056 2328 
Q 1056 1369 1301 889 
Q 1547 409 2034 409 
Q 2525 409 2770 889 
Q 3016 1369 3016 2328 
Q 3016 3291 2770 3770 
Q 2525 4250 2034 4250 
z
M 2034 4750 
Q 2819 4750 3233 4129 
Q 3647 3509 3647 2328 
Q 3647 1150 3233 529 
Q 2819 -91 2034 -91 
Q 1250 -91 836 529 
Q 422 1150 422 2328 
Q 422 3509 836 4129 
Q 1250 4750 2034 4750 
z
" transform="scale(0.015625)"/>
       </defs>
       <use xlink:href="#DejaVuSans-32"/>
       <use xlink:href="#DejaVuSans-30" transform="translate(63.623047 0)"/>
       <use xlink:href="#DejaVuSans-32" transform="translate(127.246094 0)"/>
       <use xlink:href="#DejaVuSans-30" transform="translate(190.869141 0)"/>
      </g>
     </g>
    </g>
    <g id="xtick_2">
     <g id="line2d_2">
      <g>
       <use xlink:href="#m822bdb47b7" x="159.916777" y="179.44" style="stroke: #000000; stroke-width: 0.8"/>
      </g>
     </g>
     <g id="text_2">
      <!-- 2021 -->
      <g transform="translate(147.191777 194.038437) scale(0.1 -0.1)">
       <defs>
        <path id="DejaVuSans-31" d="M 794 531 
L 1825 531 
L 1825 4091 
L 703 3866 
L 703 4441 
L 1819 4666 
L 2450 4666 
L 2450 531 
L 3481 531 
L 3481 0 
L 794 0 
L 794 531 
z
" transform="scale(0.015625)"/>
       </defs>
       <use xlink:href="#DejaVuSans-32"/>
       <use xlink:href="#DejaVuSans-30" transform="translate(63.623047 0)"/>
       <use xlink:href="#DejaVuSans-32" transform="translate(127.246094 0)"/>
       <use xlink:href="#DejaVuSans-31" transform="translate(190.869141 0)"/>
      </g>
     </g>
    </g>
    <g id="xtick_3">
     <g id="line2d_3">
      <g>
       <use xlink:href="#m822bdb47b7" x="248.108494" y="179.44" style="stroke: #000000; stroke-width: 0.8"/>
      </g>
     </g>
     <g id="text_3">
      <!-- 2022 -->
      <g transform="translate(235.383494 194.038437) scale(0.1 -0.1)">
       <use xlink:href="#DejaVuSans-32"/>
       <use xlink:href="#DejaVuSans-30" transform="translate(63.623047 0)"/>
       <use xlink:href="#DejaVuSans-32" transform="translate(127.246094 0)"/>
       <use xlink:href="#DejaVuSans-32" transform="translate(190.869141 0)"/>
      </g>
     </g>
    </g>
    <g id="xtick_4">
     <g id="line2d_4">
      <g>
       <use xlink:href="#m822bdb47b7" x="336.300211" y="179.44" style="stroke: #000000; stroke-width: 0.8"/>
      </g>
     </g>
     <g id="text_4">
      <!-- 2023 -->
      <g transform="translate(323.575211 194.038437) scale(0.1 -0.1)">
       <defs>
        <path id="DejaVuSans-33" d="M 2597 2516 
Q 3050 2419 3304 2112 
Q 3559 1806 3559 1356 
Q 3559 666 3084 287 
Q 2609 -91 1734 -91 
Q 1441 -91 1130 -33 
Q 819 25 488 141 
L 488 750 
Q 750 597 1062 519 
Q 1375 441 1716 441 
Q 2309 441 2620 675 
Q 2931 909 2931 1356 
Q 2931 1769 2642 2001 
Q 2353 2234 1838 2234 
L 1294 2234 
L 1294 2753 
L 1863 2753 
Q 2328 2753 2575 2939 
Q 2822 3125 2822 3475 
Q 2822 3834 2567 4026 
Q 2313 4219 1838 4219 
Q 1578 4219 1281 4162 
Q 984 4106 628 3988 
L 628 4550 
Q 988 4650 1302 4700 
Q 1616 4750 1894 4750 
Q 2613 4750 3031 4423 
Q 3450 4097 3450 3541 
Q 3450 3153 3228 2886 
Q 3006 2619 2597 2516 
z
" transform="scale(0.015625)"/>
       </defs>
       <use xlink:href="#DejaVuSans-32"/>
       <use xlink:href="#DejaVuSans-30" transform="translate(63.623047 0)"/>
       <use xlink:href="#DejaVuSans-32" transform="translate(127.246094 0)"/>
       <use xlink:href="#DejaVuSans-33" transform="translate(190.869141 0)"/>
      </g>
     </g>
    </g>
    <g id="xtick_5">
     <g id="line2d_5">
      <g>
       <use xlink:href="#m822bdb47b7" x="424.491928" y="179.44" style="stroke: #000000; stroke-width: 0.8"/>
      </g>
     </g>
     <g id="text_5">
      <!-- 2024 -->
      <g transform="translate(411.766928 194.038437) scale(0.1 -0.1)">
       <defs>
        <path id="DejaVuSans-34" d="M 2419 4116 
L 825 1625 
L 2419 1625 
L 2419 4116 
z
M 2253 4666 
L 3047 4666 
L 3047 1625 
L 3713 1625 
L 3713 1100 
L 3047 1100 
L 3047 0 
L 2419 0 
L 2419 1100 
L 313 1100 
L 313 1709 
L 2253 4666 
z
" transform="scale(0.015625)"/>
       </defs>
       <use xlink:href="#DejaVuSans-32"/>
       <use xlink:href="#DejaVuSans-30" transform="translate(63.623047 0)"/>
       <use xlink:href="#DejaVuSans-32" transform="translate(127.246094 0)"/>
       <use xlink:href="#DejaVuSans-34" transform="translate(190.869141 0)"/>
      </g>
     </g>
    </g>
    <g id="xtick_6">
     <g id="line2d_6">
      <g>
       <use xlink:href="#m822bdb47b7" x="512.925266" y="179.44" style="stroke: #000000; stroke-width: 0.8"/>
      </g>
     </g>
     <g id="text_6">
      <!-- 2025 -->
      <g transform="translate(500.200266 194.038437) scale(0.1 -0.1)">
       <defs>
        <path id="DejaVuSans-35" d="M 691 4666 
L 3169 4666 
L 3169 4134 
L 1269 4134 
L 1269 2991 
Q 1406 3038 1543 3061 
Q 1681 3084 1819 3084 
Q 2600 3084 3056 2656 
Q 3513 2228 3513 1497 
Q 3513 744 3044 326 
Q 2575 -91 1722 -91 
Q 1428 -91 1123 -41 
Q 819 9 494 109 
L 494 744 
Q 775 591 1075 516 
Q 1375 441 1709 441 
Q 2250 441 2565 725 
Q 2881 1009 2881 1497 
Q 2881 1984 2565 2268 
Q 2250 2553 1709 2553 
Q 1456 2553 1204 2497 
Q 953 2441 691 2322 
L 691 4666 
z
" transform="scale(0.015625)"/>
       </defs>
       <use xlink:href="#DejaVuSans-32"/>
       <use xlink:href="#DejaVuSans-30" transform="translate(63.623047 0)"/>
       <use xlink:href="#DejaVuSans-32" transform="translate(127.246094 0)"/>
       <use xlink:href="#DejaVuSans-35" transform="translate(190.869141 0)"/>
      </g>
     </g>
    </g>
    <g id="text_7">
     <!-- Date -->
     <g transform="translate(294.509219 207.716562) scale(0.1 -0.1)">
      <defs>
       <path id="DejaVuSans-44" d="M 1259 4147 
L 1259 519 
L 2022 519 
Q 2988 519 3436 956 
Q 3884 1394 3884 2338 
Q 3884 3275 3436 3711 
Q 2988 4147 2022 4147 
L 1259 4147 
z
M 628 4666 
L 1925 4666 
Q 3281 4666 3915 4102 
Q 4550 3538 4550 2338 
Q 4550 1131 3912 565 
Q 3275 0 1925 0 
L 628 0 
L 628 4666 
z
" transform="scale(0.015625)"/>
       <path id="DejaVuSans-61" d="M 2194 1759 
Q 1497 1759 1228 1600 
Q 959 1441 959 1056 
Q 959 750 1161 570 
Q 1363 391 1709 391 
Q 2188 391 2477 730 
Q 2766 1069 2766 1631 
L 2766 1759 
L 2194 1759 
z
M 3341 1997 
L 3341 0 
L 2766 0 
L 2766 531 
Q 2569 213 2275 61 
Q 1981 -91 1556 -91 
Q 1019 -91 701 211 
Q 384 513 384 1019 
Q 384 1609 779 1909 
Q 1175 2209 1959 2209 
L 2766 2209 
L 2766 2266 
Q 2766 2663 2505 2880 
Q 2244 3097 1772 3097 
Q 1472 3097 1187 3025 
Q 903 2953 641 2809 
L 641 3341 
Q 956 3463 1253 3523 
Q 1550 3584 1831 3584 
Q 2591 3584 2966 3190 
Q 3341 2797 3341 1997 
z
" transform="scale(0.015625)"/>
       <path id="DejaVuSans-74" d="M 1172 4494 
L 1172 3500 
L 2356 3500 
L 2356 3053 
L 1172 3053 
L 1172 1153 
Q 1172 725 1289 603 
Q 1406 481 1766 481 
L 2356 481 
L 2356 0 
L 1766 0 
Q 1100 0 847 248 
Q 594 497 594 1153 
L 594 3053 
L 172 3053 
L 172 3500 
L 594 3500 
L 594 4494 
L 1172 4494 
z
" transform="scale(0.015625)"/>
       <path id="DejaVuSans-65" d="M 3597 1894 
L 3597 1613 
L 953 1613 
Q 991 1019 1311 708 
Q 1631 397 2203 397 
Q 2534 397 2845 478 
Q 3156 559 3463 722 
L 3463 178 
Q 3153 47 2828 -22 
Q 2503 -91 2169 -91 
Q 1331 -91 842 396 
Q 353 884 353 1716 
Q 353 2575 817 3079 
Q 1281 3584 2069 3584 
Q 2775 3584 3186 3129 
Q 3597 2675 3597 1894 
z
M 3022 2063 
Q 3016 2534 2758 2815 
Q 2500 3097 2075 3097 
Q 1594 3097 1305 2825 
Q 1016 2553 972 2059 
L 3022 2063 
z
" transform="scale(0.015625)"/>
      </defs>
      <use xlink:href="#DejaVuSans-44"/>
      <use xlink:href="#DejaVuSans-61" transform="translate(77.001953 0)"/>
      <use xlink:href="#DejaVuSans-74" transform="translate(138.28125 0)"/>
      <use xlink:href="#DejaVuSans-65" transform="translate(177.490234 0)"/>
     </g>
    </g>
   </g>
   <g id="matplotlib.axis_2">
    <g id="ytick_1">
     <g id="line2d_7">
      <defs>
       <path id="m21b2068e8f" d="M 0 0 
L -3.5 0 
" style="stroke: #000000; stroke-width: 0.8"/>
      </defs>
      <g>
       <use xlink:href="#m21b2068e8f" x="47.72" y="172.505455" style="stroke: #000000; stroke-width: 0.8"/>
      </g>
     </g>
     <g id="text_8">
      <!-- 0.0 -->
      <g transform="translate(24.816875 176.304673) scale(0.1 -0.1)">
       <defs>
        <path id="DejaVuSans-2e" d="M 684 794 
L 1344 794 
L 1344 0 
L 684 0 
L 684 794 
z
" transform="scale(0.015625)"/>
       </defs>
       <use xlink:href="#DejaVuSans-30"/>
       <use xlink:href="#DejaVuSans-2e" transform="translate(63.623047 0)"/>
       <use xlink:href="#DejaVuSans-30" transform="translate(95.410156 0)"/>
      </g>
     </g>
    </g>
    <g id="ytick_2">
     <g id="line2d_8">
      <g>
       <use xlink:href="#m21b2068e8f" x="47.72" y="144.767273" style="stroke: #000000; stroke-width: 0.8"/>
      </g>
     </g>
     <g id="text_9">
      <!-- 0.2 -->
      <g transform="translate(24.816875 148.566491) scale(0.1 -0.1)">
       <use xlink:href="#DejaVuSans-30"/>
       <use xlink:href="#DejaVuSans-2e" transform="translate(63.623047 0)"/>
       <use xlink:href="#DejaVuSans-32" transform="translate(95.410156 0)"/>
      </g>
     </g>
    </g>
    <g id="ytick_3">
     <g id="line2d_9">
      <g>
       <use xlink:href="#m21b2068e8f" x="47.72" y="117.029091" style="stroke: #000000; stroke-width: 0.8"/>
      </g>
     </g>
     <g id="text_10">
      <!-- 0.4 -->
      <g transform="translate(24.816875 120.82831) scale(0.1 -0.1)">
       <use xlink:href="#DejaVuSans-30"/>
       <use xlink:href="#DejaVuSans-2e" transform="translate(63.623047 0)"/>
       <use xlink:href="#DejaVuSans-34" transform="translate(95.410156 0)"/>
      </g>
     </g>
    </g>
    <g id="ytick_4">
     <g id="line2d_10">
      <g>
       <use xlink:href="#m21b2068e8f" x="47.72" y="89.290909" style="stroke: #000000; stroke-width: 0.8"/>
      </g>
     </g>
     <g id="text_11">
      <!-- 0.6 -->
      <g transform="translate(24.816875 93.090128) scale(0.1 -0.1)">
       <defs>
        <path id="DejaVuSans-36" d="M 2113 2584 
Q 1688 2584 1439 2293 
Q 1191 2003 1191 1497 
Q 1191 994 1439 701 
Q 1688 409 2113 409 
Q 2538 409 2786 701 
Q 3034 994 3034 1497 
Q 3034 2003 2786 2293 
Q 2538 2584 2113 2584 
z
M 3366 4563 
L 3366 3988 
Q 3128 4100 2886 4159 
Q 2644 4219 2406 4219 
Q 1781 4219 1451 3797 
Q 1122 3375 1075 2522 
Q 1259 2794 1537 2939 
Q 1816 3084 2150 3084 
Q 2853 3084 3261 2657 
Q 3669 2231 3669 1497 
Q 3669 778 3244 343 
Q 2819 -91 2113 -91 
Q 1303 -91 875 529 
Q 447 1150 447 2328 
Q 447 3434 972 4092 
Q 1497 4750 2381 4750 
Q 2619 4750 2861 4703 
Q 3103 4656 3366 4563 
z
" transform="scale(0.015625)"/>
       </defs>
       <use xlink:href="#DejaVuSans-30"/>
       <use xlink:href="#DejaVuSans-2e" transform="translate(63.623047 0)"/>
       <use xlink:href="#DejaVuSans-36" transform="translate(95.410156 0)"/>
      </g>
     </g>
    </g>
    <g id="ytick_5">
     <g id="line2d_11">
      <g>
       <use xlink:href="#m21b2068e8f" x="47.72" y="61.552727" style="stroke: #000000; stroke-width: 0.8"/>
      </g>
     </g>
     <g id="text_12">
      <!-- 0.8 -->
      <g transform="translate(24.816875 65.351946) scale(0.1 -0.1)">
       <defs>
        <path id="DejaVuSans-38" d="M 2034 2216 
Q 1584 2216 1326 1975 
Q 1069 1734 1069 1313 
Q 1069 891 1326 650 
Q 1584 409 2034 409 
Q 2484 409 2743 651 
Q 3003 894 3003 1313 
Q 3003 1734 2745 1975 
Q 2488 2216 2034 2216 
z
M 1403 2484 
Q 997 2584 770 2862 
Q 544 3141 544 3541 
Q 544 4100 942 4425 
Q 1341 4750 2034 4750 
Q 2731 4750 3128 4425 
Q 3525 4100 3525 3541 
Q 3525 3141 3298 2862 
Q 3072 2584 2669 2484 
Q 3125 2378 3379 2068 
Q 3634 1759 3634 1313 
Q 3634 634 3220 271 
Q 2806 -91 2034 -91 
Q 1263 -91 848 271 
Q 434 634 434 1313 
Q 434 1759 690 2068 
Q 947 2378 1403 2484 
z
M 1172 3481 
Q 1172 3119 1398 2916 
Q 1625 2713 2034 2713 
Q 2441 2713 2670 2916 
Q 2900 3119 2900 3481 
Q 2900 3844 2670 4047 
Q 2441 4250 2034 4250 
Q 1625 4250 1398 4047 
Q 1172 3844 1172 3481 
z
" transform="scale(0.015625)"/>
       </defs>
       <use xlink:href="#DejaVuSans-30"/>
       <use xlink:href="#DejaVuSans-2e" transform="translate(63.623047 0)"/>
       <use xlink:href="#DejaVuSans-38" transform="translate(95.410156 0)"/>
      </g>
     </g>
    </g>
    <g id="ytick_6">
     <g id="line2d_12">
      <g>
       <use xlink:href="#m21b2068e8f" x="47.72" y="33.814545" style="stroke: #000000; stroke-width: 0.8"/>
      </g>
     </g>
     <g id="text_13">
      <!-- 1.0 -->
      <g transform="translate(24.816875 37.613764) scale(0.1 -0.1)">
       <use xlink:href="#DejaVuSans-31"/>
       <use xlink:href="#DejaVuSans-2e" transform="translate(63.623047 0)"/>
       <use xlink:href="#DejaVuSans-30" transform="translate(95.410156 0)"/>
      </g>
     </g>
    </g>
    <g id="text_14">
     <!-- Normalized Close Price -->
     <g transform="translate(18.737188 160.512344) rotate(-90) scale(0.1 -0.1)">
      <defs>
       <path id="DejaVuSans-4e" d="M 628 4666 
L 1478 4666 
L 3547 763 
L 3547 4666 
L 4159 4666 
L 4159 0 
L 3309 0 
L 1241 3903 
L 1241 0 
L 628 0 
L 628 4666 
z
" transform="scale(0.015625)"/>
       <path id="DejaVuSans-6f" d="M 1959 3097 
Q 1497 3097 1228 2736 
Q 959 2375 959 1747 
Q 959 1119 1226 758 
Q 1494 397 1959 397 
Q 2419 397 2687 759 
Q 2956 1122 2956 1747 
Q 2956 2369 2687 2733 
Q 2419 3097 1959 3097 
z
M 1959 3584 
Q 2709 3584 3137 3096 
Q 3566 2609 3566 1747 
Q 3566 888 3137 398 
Q 2709 -91 1959 -91 
Q 1206 -91 779 398 
Q 353 888 353 1747 
Q 353 2609 779 3096 
Q 1206 3584 1959 3584 
z
" transform="scale(0.015625)"/>
       <path id="DejaVuSans-72" d="M 2631 2963 
Q 2534 3019 2420 3045 
Q 2306 3072 2169 3072 
Q 1681 3072 1420 2755 
Q 1159 2438 1159 1844 
L 1159 0 
L 581 0 
L 581 3500 
L 1159 3500 
L 1159 2956 
Q 1341 3275 1631 3429 
Q 1922 3584 2338 3584 
Q 2397 3584 2469 3576 
Q 2541 3569 2628 3553 
L 2631 2963 
z
" transform="scale(0.015625)"/>
       <path id="DejaVuSans-6d" d="M 3328 2828 
Q 3544 3216 3844 3400 
Q 4144 3584 4550 3584 
Q 5097 3584 5394 3201 
Q 5691 2819 5691 2113 
L 5691 0 
L 5113 0 
L 5113 2094 
Q 5113 2597 4934 2840 
Q 4756 3084 4391 3084 
Q 3944 3084 3684 2787 
Q 3425 2491 3425 1978 
L 3425 0 
L 2847 0 
L 2847 2094 
Q 2847 2600 2669 2842 
Q 2491 3084 2119 3084 
Q 1678 3084 1418 2786 
Q 1159 2488 1159 1978 
L 1159 0 
L 581 0 
L 581 3500 
L 1159 3500 
L 1159 2956 
Q 1356 3278 1631 3431 
Q 1906 3584 2284 3584 
Q 2666 3584 2933 3390 
Q 3200 3197 3328 2828 
z
" transform="scale(0.015625)"/>
       <path id="DejaVuSans-6c" d="M 603 4863 
L 1178 4863 
L 1178 0 
L 603 0 
L 603 4863 
z
" transform="scale(0.015625)"/>
       <path id="DejaVuSans-69" d="M 603 3500 
L 1178 3500 
L 1178 0 
L 603 0 
L 603 3500 
z
M 603 4863 
L 1178 4863 
L 1178 4134 
L 603 4134 
L 603 4863 
z
" transform="scale(0.015625)"/>
       <path id="DejaVuSans-7a" d="M 353 3500 
L 3084 3500 
L 3084 2975 
L 922 459 
L 3084 459 
L 3084 0 
L 275 0 
L 275 525 
L 2438 3041 
L 353 3041 
L 353 3500 
z
" transform="scale(0.015625)"/>
       <path id="DejaVuSans-64" d="M 2906 2969 
L 2906 4863 
L 3481 4863 
L 3481 0 
L 2906 0 
L 2906 525 
Q 2725 213 2448 61 
Q 2172 -91 1784 -91 
Q 1150 -91 751 415 
Q 353 922 353 1747 
Q 353 2572 751 3078 
Q 1150 3584 1784 3584 
Q 2172 3584 2448 3432 
Q 2725 3281 2906 2969 
z
M 947 1747 
Q 947 1113 1208 752 
Q 1469 391 1925 391 
Q 2381 391 2643 752 
Q 2906 1113 2906 1747 
Q 2906 2381 2643 2742 
Q 2381 3103 1925 3103 
Q 1469 3103 1208 2742 
Q 947 2381 947 1747 
z
" transform="scale(0.015625)"/>
       <path id="DejaVuSans-20" transform="scale(0.015625)"/>
       <path id="DejaVuSans-43" d="M 4122 4306 
L 4122 3641 
Q 3803 3938 3442 4084 
Q 3081 4231 2675 4231 
Q 1875 4231 1450 3742 
Q 1025 3253 1025 2328 
Q 1025 1406 1450 917 
Q 1875 428 2675 428 
Q 3081 428 3442 575 
Q 3803 722 4122 1019 
L 4122 359 
Q 3791 134 3420 21 
Q 3050 -91 2638 -91 
Q 1578 -91 968 557 
Q 359 1206 359 2328 
Q 359 3453 968 4101 
Q 1578 4750 2638 4750 
Q 3056 4750 3426 4639 
Q 3797 4528 4122 4306 
z
" transform="scale(0.015625)"/>
       <path id="DejaVuSans-73" d="M 2834 3397 
L 2834 2853 
Q 2591 2978 2328 3040 
Q 2066 3103 1784 3103 
Q 1356 3103 1142 2972 
Q 928 2841 928 2578 
Q 928 2378 1081 2264 
Q 1234 2150 1697 2047 
L 1894 2003 
Q 2506 1872 2764 1633 
Q 3022 1394 3022 966 
Q 3022 478 2636 193 
Q 2250 -91 1575 -91 
Q 1294 -91 989 -36 
Q 684 19 347 128 
L 347 722 
Q 666 556 975 473 
Q 1284 391 1588 391 
Q 1994 391 2212 530 
Q 2431 669 2431 922 
Q 2431 1156 2273 1281 
Q 2116 1406 1581 1522 
L 1381 1569 
Q 847 1681 609 1914 
Q 372 2147 372 2553 
Q 372 3047 722 3315 
Q 1072 3584 1716 3584 
Q 2034 3584 2315 3537 
Q 2597 3491 2834 3397 
z
" transform="scale(0.015625)"/>
       <path id="DejaVuSans-50" d="M 1259 4147 
L 1259 2394 
L 2053 2394 
Q 2494 2394 2734 2622 
Q 2975 2850 2975 3272 
Q 2975 3691 2734 3919 
Q 2494 4147 2053 4147 
L 1259 4147 
z
M 628 4666 
L 2053 4666 
Q 2838 4666 3239 4311 
Q 3641 3956 3641 3272 
Q 3641 2581 3239 2228 
Q 2838 1875 2053 1875 
L 1259 1875 
L 1259 0 
L 628 0 
L 628 4666 
z
" transform="scale(0.015625)"/>
       <path id="DejaVuSans-63" d="M 3122 3366 
L 3122 2828 
Q 2878 2963 2633 3030 
Q 2388 3097 2138 3097 
Q 1578 3097 1268 2742 
Q 959 2388 959 1747 
Q 959 1106 1268 751 
Q 1578 397 2138 397 
Q 2388 397 2633 464 
Q 2878 531 3122 666 
L 3122 134 
Q 2881 22 2623 -34 
Q 2366 -91 2075 -91 
Q 1284 -91 818 406 
Q 353 903 353 1747 
Q 353 2603 823 3093 
Q 1294 3584 2113 3584 
Q 2378 3584 2631 3529 
Q 2884 3475 3122 3366 
z
" transform="scale(0.015625)"/>
      </defs>
      <use xlink:href="#DejaVuSans-4e"/>
      <use xlink:href="#DejaVuSans-6f" transform="translate(74.804688 0)"/>
      <use xlink:href="#DejaVuSans-72" transform="translate(135.986328 0)"/>
      <use xlink:href="#DejaVuSans-6d" transform="translate(175.349609 0)"/>
      <use xlink:href="#DejaVuSans-61" transform="translate(272.761719 0)"/>
      <use xlink:href="#DejaVuSans-6c" transform="translate(334.041016 0)"/>
      <use xlink:href="#DejaVuSans-69" transform="translate(361.824219 0)"/>
      <use xlink:href="#DejaVuSans-7a" transform="translate(389.607422 0)"/>
      <use xlink:href="#DejaVuSans-65" transform="translate(442.097656 0)"/>
      <use xlink:href="#DejaVuSans-64" transform="translate(503.621094 0)"/>
      <use xlink:href="#DejaVuSans-20" transform="translate(567.097656 0)"/>
      <use xlink:href="#DejaVuSans-43" transform="translate(598.884766 0)"/>
      <use xlink:href="#DejaVuSans-6c" transform="translate(668.708984 0)"/>
      <use xlink:href="#DejaVuSans-6f" transform="translate(696.492188 0)"/>
      <use xlink:href="#DejaVuSans-73" transform="translate(757.673828 0)"/>
      <use xlink:href="#DejaVuSans-65" transform="translate(809.773438 0)"/>
      <use xlink:href="#DejaVuSans-20" transform="translate(871.296875 0)"/>
      <use xlink:href="#DejaVuSans-50" transform="translate(903.083984 0)"/>
      <use xlink:href="#DejaVuSans-72" transform="translate(961.636719 0)"/>
      <use xlink:href="#DejaVuSans-69" transform="translate(1002.75 0)"/>
      <use xlink:href="#DejaVuSans-63" transform="translate(1030.533203 0)"/>
      <use xlink:href="#DejaVuSans-65" transform="translate(1085.513672 0)"/>
     </g>
    </g>
   </g>
   <g id="line2d_13">
    <path d="M 71.241818 126.620506 
L 71.72506 124.085624 
L 71.966682 123.473756 
L 72.691545 123.113834 
L 72.933166 121.082844 
L 73.174787 120.044211 
L 73.416408 116.554251 
L 73.65803 116.794627 
L 74.624514 111.412504 
L 74.866135 111.867548 
L 75.107756 106.786217 
L 75.349378 95.942273 
L 76.074241 95.704467 
L 76.315862 101.553204 
L 76.557483 95.187721 
L 76.799104 100.641829 
L 79.456937 122.693496 
L 79.698558 106.923759 
L 80.423422 87.059905 
L 81.148285 85.197307 
L 81.389906 90.169377 
L 81.631527 81.797327 
L 81.873148 80.253518 
L 82.11477 84.558445 
L 83.081254 75.282734 
L 83.564496 81.843603 
L 83.806118 82.033848 
L 84.530981 81.410411 
L 84.772602 79.397417 
L 85.014223 89.569078 
L 85.255844 92.564145 
L 85.497466 102.060952 
L 86.222329 94.147803 
L 86.46395 89.981703 
L 86.705571 93.749318 
L 86.947192 92.583427 
L 87.913677 104.52899 
L 88.155298 98.812653 
L 88.63854 105.144714 
L 88.880162 104.089371 
L 89.605025 111.8277 
L 89.846646 109.710586 
L 90.088267 111.835412 
L 90.329888 110.042228 
L 90.57151 110.247898 
L 91.296373 121.494184 
L 91.537994 118.799909 
L 91.779615 113.596461 
L 92.021236 114.365152 
L 92.262858 115.75728 
L 92.987721 122.014786 
L 93.229342 122.796331 
L 93.470963 121.744844 
L 93.712584 114.430709 
L 93.954206 116.268884 
L 94.92069 112.268605 
L 95.162311 113.232682 
L 95.403932 113.601602 
L 95.645554 119.108413 
L 96.370417 121.20239 
L 96.612038 117.208538 
L 96.853659 115.282954 
L 97.09528 114.803486 
L 97.336902 111.571898 
L 98.061765 109.477921 
L 98.303386 111.294244 
L 98.786628 107.374947 
L 99.02825 108.090935 
L 99.753113 108.868624 
L 99.994734 112.029513 
L 100.236355 113.41907 
L 100.477976 105.237266 
L 101.927703 94.804661 
L 102.169324 97.813869 
L 102.410946 95.737888 
L 103.135809 97.561923 
L 103.37743 96.593989 
L 103.619051 94.866362 
L 103.860672 95.491085 
L 104.102294 91.852013 
L 104.827157 93.93185 
L 105.068778 84.918368 
L 105.310399 87.157598 
L 105.55202 94.236498 
L 105.793641 96.970622 
L 106.518505 99.357678 
L 106.760126 91.571788 
L 107.243368 96.770094 
L 107.484989 94.984622 
L 108.209853 87.962282 
L 108.451474 87.332418 
L 108.693095 88.792674 
L 108.934716 88.083113 
L 109.176337 88.403186 
L 109.901201 90.62185 
L 110.142822 90.819808 
L 110.384443 91.916285 
L 110.626064 91.452242 
L 110.867685 92.904786 
L 111.592549 94.496157 
L 111.83417 89.453388 
L 112.075791 89.198872 
L 112.317412 87.752756 
L 112.559033 84.824531 
L 113.283897 78.903809 
L 113.525518 74.278808 
L 113.767139 72.081997 
L 114.975245 74.992225 
L 115.216866 69.04708 
L 115.458487 70.076715 
L 115.700108 70.440494 
L 115.941729 70.242537 
L 117.149835 49.505871 
L 117.391456 40.901158 
L 117.633077 42.446253 
L 118.357941 33.814545 
L 118.599562 36.436836 
L 118.841183 47.946637 
L 119.082804 66.230689 
L 119.324425 69.624242 
L 120.049289 67.615104 
L 120.29091 63.612254 
L 120.532531 62.704736 
L 120.774152 63.101936 
L 121.015773 76.577169 
L 121.740637 78.47833 
L 121.982258 75.133623 
L 122.223879 65.315458 
L 122.4655 65.846343 
L 123.431985 46.562221 
L 123.673606 53.857075 
L 123.915227 50.95713 
L 124.156848 52.853149 
L 124.398469 58.903699 
L 125.123333 57.772515 
L 125.606575 67.665236 
L 125.848196 66.432502 
L 126.089817 64.400227 
L 126.814681 62.811427 
L 127.056302 60.740588 
L 127.539544 69.729647 
L 127.781165 69.070218 
L 128.506029 68.689729 
L 128.74765 71.642377 
L 128.989271 77.348431 
L 129.230892 72.94581 
L 129.472513 73.449701 
L 130.438998 71.777348 
L 130.680619 72.25296 
L 131.163861 76.452481 
L 132.130346 82.323071 
L 132.371967 88.304208 
L 132.613588 90.603854 
L 132.855209 86.449323 
L 133.821694 79.753483 
L 134.063315 81.67264 
L 134.546557 74.701717 
L 135.271421 75.49226 
L 135.513042 76.476905 
L 135.754663 72.130843 
L 136.237905 79.828038 
L 136.962769 83.050628 
L 137.446011 72.786416 
L 139.620601 66.724296 
L 140.587086 62.657174 
L 140.828707 63.805069 
L 141.070328 68.288673 
L 141.311949 70.250249 
L 142.036813 73.641231 
L 142.278434 71.837764 
L 143.003297 83.361704 
L 143.728161 80.844819 
L 144.211403 74.422777 
L 144.453024 73.6528 
L 144.694645 75.985868 
L 145.419509 75.086062 
L 145.66113 68.903112 
L 145.902751 67.631815 
L 146.144372 65.513415 
L 146.385993 69.872331 
L 147.110857 64.257543 
L 147.594099 75.780198 
L 148.077341 70.461061 
L 148.802205 69.167911 
L 149.285447 72.731142 
L 149.527068 70.585748 
L 149.768689 71.254175 
L 150.735174 73.564105 
L 150.976795 76.699285 
L 151.218416 77.091343 
L 151.460037 76.775126 
L 152.184901 77.069491 
L 152.426522 74.658012 
L 152.909764 73.810909 
L 153.151385 74.577029 
L 153.876249 74.407352 
L 154.11787 75.366287 
L 154.359491 79.696924 
L 154.601112 80.321646 
L 154.842733 79.964294 
L 155.567597 78.408916 
L 155.809218 79.936015 
L 156.050839 82.256228 
L 156.29246 79.912877 
L 156.534081 80.2021 
L 157.258945 76.659437 
L 157.500566 80.522174 
L 157.742187 78.210959 
L 157.983808 81.886022 
L 158.225429 81.657215 
L 158.950293 83.042915 
L 159.191914 83.240873 
L 159.675156 76.098986 
L 160.641641 72.359651 
L 160.883262 71.968878 
L 161.124883 73.272311 
L 161.366504 77.524536 
L 161.608125 77.935875 
L 162.332989 76.403635 
L 162.57461 74.532039 
L 162.816231 74.250528 
L 163.057852 69.126777 
L 163.299473 69.086929 
L 164.024337 64.758864 
L 164.265958 69.557399 
L 164.507579 64.733155 
L 164.7492 64.626464 
L 165.715685 62.528631 
L 166.198927 67.699943 
L 166.440548 72.427779 
L 166.682169 72.380218 
L 167.407033 72.441919 
L 167.648654 70.310665 
L 168.131896 75.961445 
L 168.373517 79.213599 
L 169.098381 77.455122 
L 169.340002 71.644948 
L 169.581623 70.44435 
L 171.756213 71.615383 
L 172.481077 76.498757 
L 172.722698 76.420345 
L 173.447561 84.767971 
L 174.172425 80.583875 
L 174.414046 81.367991 
L 174.655667 80.42191 
L 174.897288 84.951789 
L 175.138909 84.221661 
L 175.863773 91.211866 
L 176.105394 97.037465 
L 176.347015 96.703251 
L 176.588636 92.260782 
L 176.830257 93.029473 
L 177.555121 97.905135 
L 177.796742 98.293337 
L 178.038363 96.214785 
L 178.279984 95.601632 
L 178.521605 96.88964 
L 179.246469 95.415244 
L 179.48809 96.223783 
L 179.729711 98.154509 
L 179.971332 98.378175 
L 180.212953 93.628487 
L 181.179438 94.69797 
L 181.421059 94.699256 
L 181.66268 92.331481 
L 181.904301 88.067688 
L 182.870786 88.491882 
L 183.112407 88.214227 
L 183.354028 89.10375 
L 183.595649 91.728611 
L 184.320513 95.320121 
L 184.562134 95.590063 
L 185.045376 92.664409 
L 185.286997 91.309559 
L 186.011861 88.184662 
L 186.253482 89.278569 
L 186.495103 89.746468 
L 186.736724 87.391548 
L 186.978345 86.536732 
L 187.703209 86.140818 
L 187.94483 86.526449 
L 188.186451 84.941505 
L 188.428072 84.965929 
L 188.669693 85.198593 
L 190.11942 86.755257 
L 190.361041 92.697831 
L 191.085905 93.907427 
L 191.327526 93.442098 
L 191.569147 91.796739 
L 191.810768 91.209295 
L 192.052389 87.98799 
L 192.777253 84.339921 
L 193.018874 85.275719 
L 193.502116 84.228088 
L 193.743737 86.102255 
L 194.468601 84.089261 
L 194.710222 79.043922 
L 194.951843 79.825467 
L 195.193464 75.489689 
L 195.435085 76.997507 
L 196.40157 67.421003 
L 196.643191 71.751639 
L 196.884812 73.335297 
L 197.126433 71.15134 
L 197.851297 70.887826 
L 198.092918 72.750424 
L 198.334539 71.691224 
L 198.57616 68.724436 
L 198.817781 70.539472 
L 199.784266 69.007232 
L 200.025887 74.371359 
L 200.267508 65.753792 
L 200.509129 63.029951 
L 201.233993 58.732736 
L 201.475614 59.34589 
L 201.717235 57.939622 
L 201.958856 61.730375 
L 202.200477 57.868923 
L 202.925341 54.252989 
L 203.166962 54.368679 
L 203.408583 51.008547 
L 203.650204 52.090885 
L 203.891825 57.443443 
L 204.616689 52.59349 
L 204.85831 58.133723 
L 205.341552 48.109887 
L 205.583173 51.588279 
L 206.308037 49.287347 
L 206.549658 50.653766 
L 206.791279 55.057673 
L 207.0329 54.546069 
L 207.274521 59.105513 
L 207.999385 60.52592 
L 208.241006 59.439726 
L 208.482627 53.911063 
L 208.724248 51.791378 
L 208.965869 54.187432 
L 209.690733 55.024251 
L 209.932354 56.526927 
L 210.173975 59.944903 
L 210.415596 50.976411 
L 211.382081 49.562431 
L 211.623702 54.097451 
L 211.865323 48.73718 
L 212.106944 48.876007 
L 212.348565 51.20779 
L 213.073429 52.779879 
L 213.31505 51.012403 
L 213.556671 52.220714 
L 213.798292 51.229642 
L 214.039913 55.564135 
L 214.764777 56.187572 
L 215.006398 61.159641 
L 215.248019 61.321606 
L 215.48964 56.421521 
L 215.731261 58.609334 
L 216.697746 52.318407 
L 217.422609 64.879695 
L 218.147473 66.018592 
L 218.630715 72.03315 
L 218.872336 75.26988 
L 219.113957 75.088633 
L 219.838821 70.189834 
L 220.080442 70.245107 
L 220.322063 73.567961 
L 220.563684 74.921526 
L 220.805305 71.756781 
L 221.530169 77.204462 
L 221.77179 75.631087 
L 222.013411 77.192893 
L 222.255032 81.446403 
L 222.496653 81.671354 
L 223.704759 80.95151 
L 224.188001 78.416629 
L 224.912865 79.227739 
L 225.396107 82.17396 
L 225.637728 79.223883 
L 227.570697 79.771479 
L 228.295561 81.659785 
L 228.537182 85.564942 
L 228.778803 82.303789 
L 229.020424 81.981145 
L 229.262045 79.938586 
L 229.986909 81.299863 
L 230.22853 79.471972 
L 230.470151 78.597875 
L 230.711772 80.036279 
L 230.953393 79.298438 
L 231.678257 77.734062 
L 231.919878 78.271374 
L 232.161499 80.110834 
L 232.40312 80.811397 
L 232.644741 75.691503 
L 233.611226 74.478051 
L 233.852847 75.260882 
L 234.094468 73.822478 
L 234.336089 75.622089 
L 235.060953 75.100202 
L 235.302574 72.566606 
L 235.544195 72.574319 
L 235.785816 70.427639 
L 236.027437 70.040723 
L 236.752301 71.012513 
L 236.993922 72.468913 
L 237.235543 70.554898 
L 237.477164 72.121845 
L 237.718785 69.446851 
L 238.443649 64.920829 
L 239.168512 66.453069 
L 239.410133 67.499415 
L 240.376618 65.470995 
L 240.85986 71.410999 
L 241.101481 69.440424 
L 242.067966 76.560458 
L 242.551208 70.765709 
L 242.792829 70.614028 
L 243.517692 69.327306 
L 243.759314 70.129418 
L 244.000935 72.002299 
L 244.242556 71.869899 
L 244.484177 75.323868 
L 245.20904 79.835751 
L 245.450662 78.461619 
L 245.933904 78.291941 
L 246.175525 80.508034 
L 246.900388 80.905234 
L 247.14201 79.108194 
L 247.383631 80.831964 
L 247.866873 75.435701 
L 248.833358 79.703351 
L 249.074979 83.773043 
L 249.558221 87.351699 
L 250.283084 85.708911 
L 250.524706 88.777249 
L 250.766327 85.955715 
L 251.007948 88.745113 
L 251.249569 86.477602 
L 251.974432 83.131611 
L 252.216054 82.612294 
L 252.940917 89.290138 
L 253.66578 87.062476 
L 253.907402 91.013908 
L 254.149023 91.096176 
L 254.390644 95.699325 
L 254.632265 97.155725 
L 257.048476 96.590133 
L 257.290098 100.391169 
L 257.531719 99.589057 
L 258.014961 104.820784 
L 258.739824 104.840066 
L 258.981446 100.510715 
L 259.223067 101.225418 
L 259.464688 99.90656 
L 260.431172 101.734451 
L 260.672794 102.971041 
L 260.914415 96.916634 
L 261.156036 98.984902 
L 261.397657 95.656906 
L 262.12252 94.537291 
L 262.605763 97.019469 
L 262.847384 99.649472 
L 263.089005 100.514571 
L 263.813868 104.770652 
L 264.05549 109.001024 
L 264.297111 109.954818 
L 264.538732 106.907048 
L 264.780353 105.89798 
L 265.505216 110.388011 
L 265.746838 114.61067 
L 265.988459 110.490846 
L 266.23008 108.276038 
L 266.471701 108.069083 
L 267.196564 107.039448 
L 267.438186 109.35452 
L 267.679807 108.098648 
L 267.921428 109.322384 
L 268.163049 112.884329 
L 268.887912 114.957738 
L 269.129534 116.34601 
L 269.371155 112.156772 
L 269.612776 114.915319 
L 269.854397 115.155695 
L 271.062503 119.101986 
L 271.304124 121.983935 
L 271.545745 123.118976 
L 272.270608 128.065336 
L 272.51223 127.335208 
L 272.753851 131.141386 
L 272.995472 129.760827 
L 273.237093 130.044909 
L 273.961956 126.027919 
L 274.928441 134.06704 
L 275.894926 143.579272 
L 276.136547 138.648337 
L 276.378168 139.081529 
L 276.619789 133.414039 
L 278.069516 132.259716 
L 278.311137 134.046473 
L 279.036 133.469312 
L 279.760864 124.941725 
L 280.002485 125.232234 
L 280.727348 127.069123 
L 280.96897 125.287508 
L 281.210591 124.820894 
L 281.452212 121.949228 
L 281.693833 120.787194 
L 282.418696 120.688215 
L 282.660318 127.051127 
L 282.901939 125.782401 
L 283.14356 126.072909 
L 283.385181 127.430331 
L 284.110044 126.422548 
L 284.351665 122.080343 
L 284.593287 122.561096 
L 284.834908 116.356293 
L 285.801392 110.997308 
L 286.043013 112.30074 
L 286.284635 112.266034 
L 286.526256 116.186616 
L 286.767877 113.399789 
L 287.49274 115.259816 
L 287.734361 117.553035 
L 287.975983 118.559532 
L 288.459225 114.782919 
L 289.184088 114.366437 
L 289.425709 115.94881 
L 289.667331 118.433559 
L 290.150573 113.575894 
L 290.875436 113.32909 
L 291.117057 111.544904 
L 291.358679 114.964165 
L 291.6003 113.037296 
L 291.841921 115.176262 
L 292.566784 114.397288 
L 292.808405 114.932029 
L 293.291648 112.266034 
L 294.258132 116.187901 
L 294.499753 120.291015 
L 294.741375 119.834685 
L 294.982996 116.747066 
L 295.224617 117.33194 
L 295.94948 117.708573 
L 296.191101 118.670079 
L 296.674344 114.870328 
L 296.915965 115.69815 
L 297.640828 117.139124 
L 298.365692 112.636239 
L 298.607313 115.191688 
L 299.332176 113.743 
L 299.573797 114.420426 
L 299.815419 113.721148 
L 300.05704 112.362441 
L 300.298661 106.39673 
L 301.023524 107.007312 
L 301.265145 105.755297 
L 301.506767 106.547126 
L 301.748388 104.364454 
L 301.990009 107.828706 
L 302.714872 108.142353 
L 303.198115 109.612892 
L 303.439736 107.772147 
L 303.681357 112.679944 
L 304.647841 112.82777 
L 304.889463 117.753563 
L 305.372705 120.708782 
L 306.097568 119.643155 
L 306.339189 120.15733 
L 306.580811 122.8079 
L 306.822432 123.322075 
L 307.064053 122.74877 
L 307.788916 123.485325 
L 308.272159 120.24731 
L 308.755401 122.2783 
L 309.963507 122.597089 
L 310.205128 126.610222 
L 310.446749 126.81075 
L 311.171612 129.763398 
L 311.413233 128.529379 
L 311.654855 130.426684 
L 311.896476 129.722264 
L 312.138097 131.641421 
L 312.86296 131.527017 
L 313.104581 129.647709 
L 313.346203 132.252004 
L 313.587824 131.573293 
L 313.829445 134.412823 
L 316.487277 140.4081 
L 316.728899 136.27285 
L 316.97052 136.065895 
L 317.212141 132.415254 
L 317.937004 131.348342 
L 318.178625 131.762252 
L 318.420247 133.111961 
L 318.661868 131.254505 
L 318.903489 130.736474 
L 319.628352 130.542373 
L 319.869973 130.305853 
L 320.111595 126.202739 
L 320.353216 125.989356 
L 320.594837 127.42776 
L 321.3197 125.292649 
L 322.286185 117.253528 
L 323.011048 118.734351 
L 323.252669 119.973512 
L 323.735912 123.656288 
L 323.977533 123.63058 
L 324.702396 123.67557 
L 324.944017 119.931093 
L 325.185639 121.929947 
L 325.42726 121.264091 
L 325.668881 122.508393 
L 326.393744 122.446692 
L 326.635365 124.329857 
L 327.118608 124.646075 
L 327.360229 126.621791 
L 328.085092 127.544735 
L 328.326713 126.305574 
L 328.568335 126.587084 
L 328.809956 125.421193 
L 330.018061 126.216878 
L 330.501304 126.966288 
L 330.742925 126.403267 
L 331.467788 126.026634 
L 331.709409 127.994637 
L 331.95103 128.648925 
L 332.192652 128.008777 
L 332.434273 129.402191 
L 333.159136 132.252004 
L 333.400757 132.691623 
L 334.125621 136.859009 
L 335.092105 131.358625 
L 335.333726 132.113177 
L 335.575348 131.473029 
L 335.816969 131.775107 
L 336.783453 129.202948 
L 337.025074 130.170882 
L 337.508317 127.764544 
L 338.23318 128.076905 
L 338.474801 127.864808 
L 338.716422 129.967783 
L 339.199665 129.922792 
L 339.924528 127.570443 
L 340.166149 126.147465 
L 340.40777 125.752836 
L 340.649392 123.580448 
L 340.891013 122.874743 
L 343.307224 122.55724 
L 343.548845 124.774618 
L 343.790466 123.226953 
L 344.032088 122.548242 
L 344.273709 122.266731 
L 345.240193 124.02778 
L 345.481814 125.246374 
L 345.723436 121.882386 
L 345.965057 123.466044 
L 346.68992 123.530316 
L 346.931541 123.70642 
L 347.173162 123.507178 
L 347.656405 128.377698 
L 348.381268 126.770902 
L 348.622889 127.169387 
L 348.86451 127.950933 
L 349.106132 127.589725 
L 350.072616 128.384125 
L 350.555858 127.310785 
L 350.79748 128.048626 
L 351.039101 126.761904 
L 351.763964 125.639717 
L 352.005585 127.831387 
L 352.488828 126.83903 
L 352.730449 127.449612 
L 353.455312 126.760618 
L 353.696933 124.899306 
L 353.938554 125.682137 
L 354.180176 127.592296 
L 354.421797 124.594657 
L 355.388281 122.739772 
L 355.629902 122.243593 
L 355.871524 119.037714 
L 356.113145 118.780627 
L 356.838008 119.23053 
L 357.079629 121.654863 
L 357.32125 118.632802 
L 357.562872 118.176472 
L 358.529356 110.361016 
L 358.770977 110.028088 
L 359.25422 107.729728 
L 359.495841 105.922404 
L 360.462325 110.971599 
L 360.703946 109.985669 
L 360.945568 113.749428 
L 361.187189 109.111572 
L 361.912052 108.607681 
L 362.153673 109.932966 
L 362.395294 109.344236 
L 362.636916 105.417227 
L 362.878537 111.602748 
L 363.6034 114.231466 
L 363.845021 116.740639 
L 364.086642 117.749707 
L 364.328264 117.87825 
L 364.569885 115.325373 
L 366.019612 118.368002 
L 366.261233 120.310297 
L 366.986096 119.266522 
L 367.227717 122.223027 
L 367.469338 123.315648 
L 367.71096 123.282226 
L 367.952581 124.806754 
L 368.677444 123.305364 
L 368.919065 123.295081 
L 369.402308 122.144615 
L 369.643929 121.458192 
L 370.368792 122.492968 
L 370.610413 124.549667 
L 370.852034 125.107546 
L 371.093656 123.828537 
L 371.335277 121.651007 
L 372.06014 122.972436 
L 372.543382 119.690716 
L 373.751488 119.970941 
L 373.993109 123.666572 
L 374.23473 124.171749 
L 374.476351 125.705275 
L 374.717973 122.436409 
L 375.442836 123.196102 
L 375.684457 121.548172 
L 375.926078 122.081628 
L 376.167699 122.269302 
L 376.409321 119.823116 
L 377.375805 119.497901 
L 377.617426 124.021352 
L 378.825532 125.29522 
L 379.067153 125.161535 
L 379.308774 125.563877 
L 379.550395 126.432832 
L 379.792017 125.958506 
L 380.51688 125.540739 
L 380.758501 124.640933 
L 381.000122 125.88395 
L 381.241743 126.349278 
L 381.483365 127.668136 
L 382.208228 127.426474 
L 382.449849 126.439259 
L 382.69147 128.551231 
L 382.933091 127.138537 
L 383.174713 127.705414 
L 383.899576 128.571798 
L 384.382818 129.819958 
L 384.624439 131.616998 
L 384.866061 132.334272 
L 385.590924 132.97699 
L 385.832545 131.19666 
L 386.074166 131.556583 
L 386.315787 132.752039 
L 386.557409 131.422897 
L 387.282272 130.606645 
L 387.523893 130.51795 
L 387.765514 130.677344 
L 388.007135 130.429255 
L 388.248757 129.733833 
L 389.215241 131.051406 
L 389.456862 132.100322 
L 389.698483 131.868944 
L 389.940105 134.491235 
L 390.664968 135.554291 
L 391.14821 139.24478 
L 391.389831 138.140589 
L 391.631453 138.928562 
L 392.356316 140.491653 
L 392.597937 139.329618 
L 392.839558 142.11516 
L 393.081179 141.341327 
L 393.322801 143.279765 
L 394.047664 142.021323 
L 394.530906 134.378116 
L 394.772527 133.997627 
L 395.014149 135.002838 
L 395.739012 134.020765 
L 395.980633 135.53758 
L 396.222254 135.027262 
L 396.463875 139.496725 
L 397.43036 138.50951 
L 397.671981 139.266632 
L 398.155223 141.942911 
L 398.396845 141.144655 
L 399.121708 142.106162 
L 399.846571 144.566488 
L 400.088193 141.67554 
L 400.813056 142.746309 
L 401.054677 142.553494 
L 401.296298 142.023894 
L 401.537919 141.043105 
L 404.195752 141.118946 
L 404.437373 141.783517 
L 404.920615 139.477444 
L 405.162237 140.539214 
L 405.8871 142.813152 
L 406.128721 141.764235 
L 406.370342 143.362033 
L 406.611963 143.318328 
L 407.578448 147.169497 
L 407.820069 145.823645 
L 408.06169 146.07559 
L 408.303311 145.990751 
L 408.544933 144.378814 
L 409.269796 142.286123 
L 409.753038 143.341466 
L 409.994659 144.625618 
L 410.236281 142.640903 
L 410.961144 140.733315 
L 411.202765 140.572636 
L 411.444386 139.522434 
L 411.927629 140.792445 
L 412.652492 139.918348 
L 412.894113 138.916993 
L 413.135734 139.194647 
L 413.377355 141.131801 
L 413.618977 140.582919 
L 414.34384 140.42224 
L 414.585461 141.417168 
L 414.827082 143.23349 
L 415.068703 142.332398 
L 415.310325 144.003466 
L 416.035188 143.584414 
L 416.276809 143.085664 
L 416.51843 144.35439 
L 417.001673 143.6474 
L 417.726536 144.369816 
L 417.968157 146.44194 
L 418.209778 146.057594 
L 418.451399 146.225986 
L 418.69302 143.558705 
L 419.417884 142.235991 
L 420.384368 146.22213 
L 421.109232 147.100083 
L 421.350853 146.434227 
L 421.592474 147.738945 
L 421.834095 146.182281 
L 422.075716 146.760728 
L 422.80058 147.544844 
L 423.042201 149.082227 
L 423.283822 148.465217 
L 423.525443 145.851924 
L 423.767064 145.644969 
L 424.733549 147.213202 
L 425.458412 151.335597 
L 426.183276 154.330665 
L 426.424897 154.52348 
L 426.666518 155.266463 
L 426.908139 153.632673 
L 427.14976 155.110925 
L 427.874624 155.747216 
L 428.116245 155.234327 
L 428.357866 157.851476 
L 428.599487 156.406645 
L 428.841108 156.767853 
L 429.565972 159.755208 
L 429.807593 158.789845 
L 430.049214 158.721717 
L 430.290835 156.726719 
L 430.532456 159.257744 
L 431.25732 161.930167 
L 431.498941 165.459976 
L 431.740562 167.131044 
L 431.982183 166.467758 
L 432.223804 168.601583 
L 432.948668 168.167106 
L 433.190289 162.509899 
L 433.43191 159.602241 
L 433.673531 158.563608 
L 436.331364 157.044222 
L 436.572985 158.152268 
L 436.814606 158.093138 
L 437.056227 157.165053 
L 437.297848 156.895111 
L 438.022712 156.379651 
L 438.264333 152.72644 
L 438.505954 155.981166 
L 438.747575 151.338168 
L 438.989196 150.338098 
L 439.71406 149.949896 
L 439.955681 150.045019 
L 440.197302 150.79957 
L 440.438923 153.069651 
L 440.680544 151.9179 
L 441.405408 149.958895 
L 441.647029 150.04759 
L 441.88865 150.410083 
L 442.130271 151.704518 
L 442.371892 151.214766 
L 443.096756 149.064231 
L 443.338377 150.816281 
L 443.579998 150.525772 
L 443.821619 151.539982 
L 444.06324 153.074793 
L 444.788104 154.688016 
L 445.029725 155.916894 
L 445.271346 158.39393 
L 445.512967 157.050649 
L 445.754588 157.118777 
L 446.479452 155.474703 
L 446.721073 156.341088 
L 446.962694 157.887468 
L 448.1708 159.955736 
L 448.412421 158.803985 
L 448.654042 160.590742 
L 448.895663 160.212823 
L 449.137284 160.243674 
L 449.862148 158.640734 
L 450.103769 160.922384 
L 450.34539 158.64202 
L 450.587011 159.310447 
L 450.828632 161.255312 
L 451.553496 161.094633 
L 451.795117 161.603666 
L 452.036738 160.217965 
L 452.278359 160.897961 
L 452.51998 158.4672 
L 453.244844 155.395006 
L 453.486465 156.512051 
L 454.936192 155.200905 
L 455.419434 157.257604 
L 455.661055 155.045368 
L 455.902676 156.549329 
L 456.62754 156.996661 
L 456.869161 157.432424 
L 457.110782 158.824552 
L 457.352403 159.210183 
L 457.594024 158.18826 
L 458.318888 158.301379 
L 458.560509 158.98266 
L 458.80213 158.117561 
L 459.285372 161.685934 
L 460.010236 160.215394 
L 460.251857 160.70386 
L 460.493478 160.770703 
L 460.735099 159.694792 
L 460.97672 159.626664 
L 461.943205 158.288524 
L 462.184826 158.494194 
L 462.668068 160.307946 
L 463.634553 158.007014 
L 463.876174 158.122703 
L 464.117795 157.602101 
L 464.359416 158.208827 
L 465.08428 157.842478 
L 465.325901 157.869472 
L 465.567522 158.539185 
L 466.050764 157.680513 
L 466.775628 160.152408 
L 467.017249 162.901957 
L 467.25887 161.373573 
L 467.500491 163.209176 
L 467.742112 163.630799 
L 468.466976 163.949588 
L 468.708597 165.296725 
L 468.950218 164.954799 
L 469.191839 166.420197 
L 469.43346 165.331432 
L 470.158324 166.14897 
L 470.399945 163.91231 
L 470.641566 163.850609 
L 470.883187 162.864679 
L 471.124808 162.82226 
L 471.849672 163.144904 
L 472.091293 161.062497 
L 472.332914 161.455841 
L 472.574535 160.631876 
L 472.816156 158.824552 
L 473.54102 158.499336 
L 473.782641 162.47005 
L 474.024262 163.471405 
L 474.265883 163.399421 
L 474.507504 162.629444 
L 475.232368 164.206675 
L 475.473989 163.896885 
L 475.71561 159.608668 
L 475.957231 160.187114 
L 476.198852 161.885176 
L 476.923716 164.630869 
L 477.165337 163.401992 
L 477.406958 164.207961 
L 477.648579 164.036997 
L 477.8902 164.47019 
L 478.615064 164.241382 
L 478.856685 163.801763 
L 479.098306 165.064061 
L 479.339927 164.213102 
L 479.581548 164.512609 
L 480.306412 164.756842 
L 480.548033 166.01657 
L 480.789654 166.258232 
L 481.031275 167.043634 
L 481.272896 167.014069 
L 481.99776 167.433121 
L 482.239381 168.480752 
L 482.481002 168.883094 
L 482.722623 167.807183 
L 482.964244 165.934302 
L 483.689108 169.038632 
L 483.930729 168.402341 
L 484.17235 168.746838 
L 484.413971 168.877952 
L 484.655592 170.024562 
L 485.380456 170.975785 
L 485.863698 169.76876 
L 486.34694 170.961645 
L 487.555046 171.943719 
L 487.796667 171.421831 
L 488.038288 171.821602 
L 488.763152 172.505455 
L 489.004773 169.419121 
L 489.246394 169.381843 
L 489.488015 166.064131 
L 490.4545 143.026534 
L 492.387469 123.539314 
L 492.62909 126.896874 
L 493.112332 139.616271 
L 493.837196 136.137879 
L 494.320438 142.599769 
L 494.562059 142.161435 
L 494.80368 129.363627 
L 495.528544 126.572944 
L 495.770165 128.441969 
L 496.011786 129.300641 
L 496.253407 129.499884 
L 496.495028 127.749119 
L 497.219892 128.348132 
L 497.461513 129.786536 
L 497.703134 131.913934 
L 497.944755 130.547515 
L 498.186376 134.363976 
L 498.91124 132.44739 
L 499.152861 127.112828 
L 499.394482 126.866024 
L 499.636103 122.964723 
L 499.877724 123.324646 
L 500.602588 117.128841 
L 500.844209 120.123908 
L 501.08583 118.73178 
L 501.569072 128.306998 
L 502.293936 130.642637 
L 502.535557 126.876307 
L 502.777178 126.294005 
L 503.018799 125.147395 
L 503.26042 130.560369 
L 503.985284 132.029623 
L 504.226905 132.843305 
L 504.468526 128.423973 
L 504.710147 128.718338 
L 504.951768 125.670568 
L 505.676632 124.590801 
L 506.159874 126.702773 
L 506.401495 126.383985 
L 506.643116 124.763049 
L 507.36798 126.186028 
L 507.609601 125.218094 
L 507.851222 125.696277 
L 508.092843 125.219379 
L 508.334464 127.934222 
L 509.059328 129.799391 
L 509.300949 130.826454 
L 510.025812 125.179531 
L 510.750676 126.799181 
L 510.992297 124.818323 
L 511.233918 124.388987 
L 511.475539 123.147256 
L 511.71716 124.232164 
L 512.442024 123.96865 
L 512.683645 128.043484 
L 513.408508 134.099176 
L 514.133372 134.498947 
L 514.374993 131.051406 
L 514.616614 131.104109 
L 514.858235 131.577149 
L 515.099856 132.971848 
L 515.82472 132.766178 
L 516.066341 128.962571 
L 516.307962 129.492171 
L 516.549583 132.22501 
L 516.791204 131.003845 
L 517.516068 130.699196 
L 517.757689 129.666991 
L 517.99931 129.790392 
L 518.240931 130.976851 
L 518.482552 129.85595 
L 519.207416 132.393402 
L 521.382006 128.8276 
L 521.623627 125.178246 
L 521.865248 124.203884 
L 522.590112 121.893955 
L 522.831733 123.482754 
L 523.073354 121.332219 
L 523.314975 124.423694 
L 524.28146 121.824541 
L 524.523081 125.184673 
L 524.764702 122.176751 
L 525.006323 122.366995 
L 525.247944 114.438422 
L 526.214429 113.393362 
L 526.45605 110.318597 
L 526.697671 110.386725 
L 526.939292 116.491264 
L 527.664156 118.605808 
L 527.905777 116.252173 
L 528.147398 115.845975 
L 528.389019 110.992166 
L 528.63064 112.786636 
L 529.355504 113.102853 
L 529.597125 113.671016 
L 529.838746 114.703222 
L 530.080367 117.661012 
L 530.321988 115.294523 
L 531.046852 115.924387 
L 531.288473 115.073427 
L 531.771715 118.292161 
L 532.013336 121.107267 
L 532.7382 120.715209 
L 532.979821 122.545671 
L 533.221442 122.886312 
L 533.463063 121.405489 
L 533.704684 122.831038 
L 534.429548 123.701279 
L 534.671169 123.486611 
L 534.91279 123.696137 
L 535.154411 124.297721 
L 536.120896 136.367972 
L 536.362517 134.321557 
L 536.604138 129.118109 
L 536.845759 127.749119 
L 537.08738 125.115259 
L 537.812244 124.784902 
L 538.053865 125.805539 
L 538.295486 124.755337 
L 538.537107 124.459686 
L 538.778728 125.51503 
L 539.503592 124.125473 
L 539.986834 124.994428 
L 540.228455 126.193741 
L 540.470076 126.033061 
L 541.19494 126.256727 
L 541.436561 126.123042 
L 541.678182 125.023993 
L 541.678182 125.023993 
" clip-path="url(#pdf1eae315d)" style="fill: none; stroke: #0000ff; stroke-width: 1.5; stroke-linecap: square"/>
   </g>
   <g id="patch_3">
    <path d="M 47.72 179.44 
L 47.72 26.88 
" style="fill: none; stroke: #000000; stroke-width: 0.8; stroke-linejoin: miter; stroke-linecap: square"/>
   </g>
   <g id="patch_4">
    <path d="M 565.2 179.44 
L 565.2 26.88 
" style="fill: none; stroke: #000000; stroke-width: 0.8; stroke-linejoin: miter; stroke-linecap: square"/>
   </g>
   <g id="patch_5">
    <path d="M 47.72 179.44 
L 565.2 179.44 
" style="fill: none; stroke: #000000; stroke-width: 0.8; stroke-linejoin: miter; stroke-linecap: square"/>
   </g>
   <g id="patch_6">
    <path d="M 47.72 26.88 
L 565.2 26.88 
" style="fill: none; stroke: #000000; stroke-width: 0.8; stroke-linejoin: miter; stroke-linecap: square"/>
   </g>
   <g id="text_15">
    <!-- Normalized Close Price -->
    <g transform="translate(237.637187 20.88) scale(0.12 -0.12)">
     <use xlink:href="#DejaVuSans-4e"/>
     <use xlink:href="#DejaVuSans-6f" transform="translate(74.804688 0)"/>
     <use xlink:href="#DejaVuSans-72" transform="translate(135.986328 0)"/>
     <use xlink:href="#DejaVuSans-6d" transform="translate(175.349609 0)"/>
     <use xlink:href="#DejaVuSans-61" transform="translate(272.761719 0)"/>
     <use xlink:href="#DejaVuSans-6c" transform="translate(334.041016 0)"/>
     <use xlink:href="#DejaVuSans-69" transform="translate(361.824219 0)"/>
     <use xlink:href="#DejaVuSans-7a" transform="translate(389.607422 0)"/>
     <use xlink:href="#DejaVuSans-65" transform="translate(442.097656 0)"/>
     <use xlink:href="#DejaVuSans-64" transform="translate(503.621094 0)"/>
     <use xlink:href="#DejaVuSans-20" transform="translate(567.097656 0)"/>
     <use xlink:href="#DejaVuSans-43" transform="translate(598.884766 0)"/>
     <use xlink:href="#DejaVuSans-6c" transform="translate(668.708984 0)"/>
     <use xlink:href="#DejaVuSans-6f" transform="translate(696.492188 0)"/>
     <use xlink:href="#DejaVuSans-73" transform="translate(757.673828 0)"/>
     <use xlink:href="#DejaVuSans-65" transform="translate(809.773438 0)"/>
     <use xlink:href="#DejaVuSans-20" transform="translate(871.296875 0)"/>
     <use xlink:href="#DejaVuSans-50" transform="translate(903.083984 0)"/>
     <use xlink:href="#DejaVuSans-72" transform="translate(961.636719 0)"/>
     <use xlink:href="#DejaVuSans-69" transform="translate(1002.75 0)"/>
     <use xlink:href="#DejaVuSans-63" transform="translate(1030.533203 0)"/>
     <use xlink:href="#DejaVuSans-65" transform="translate(1085.513672 0)"/>
    </g>
   </g>
   <g id="legend_1">
    <g id="patch_7">
     <path d="M 411.495312 49.558125 
L 558.2 49.558125 
Q 560.2 49.558125 560.2 47.558125 
L 560.2 33.88 
Q 560.2 31.88 558.2 31.88 
L 411.495312 31.88 
Q 409.495312 31.88 409.495312 33.88 
L 409.495312 47.558125 
Q 409.495312 49.558125 411.495312 49.558125 
z
" style="fill: #ffffff; opacity: 0.8; stroke: #cccccc; stroke-linejoin: miter"/>
    </g>
    <g id="line2d_14">
     <path d="M 413.495312 39.978438 
L 423.495312 39.978438 
L 433.495312 39.978438 
" style="fill: none; stroke: #0000ff; stroke-width: 1.5; stroke-linecap: square"/>
    </g>
    <g id="text_16">
     <!-- Normalized Close Price -->
     <g transform="translate(441.495312 43.478438) scale(0.1 -0.1)">
      <use xlink:href="#DejaVuSans-4e"/>
      <use xlink:href="#DejaVuSans-6f" transform="translate(74.804688 0)"/>
      <use xlink:href="#DejaVuSans-72" transform="translate(135.986328 0)"/>
      <use xlink:href="#DejaVuSans-6d" transform="translate(175.349609 0)"/>
      <use xlink:href="#DejaVuSans-61" transform="translate(272.761719 0)"/>
      <use xlink:href="#DejaVuSans-6c" transform="translate(334.041016 0)"/>
      <use xlink:href="#DejaVuSans-69" transform="translate(361.824219 0)"/>
      <use xlink:href="#DejaVuSans-7a" transform="translate(389.607422 0)"/>
      <use xlink:href="#DejaVuSans-65" transform="translate(442.097656 0)"/>
      <use xlink:href="#DejaVuSans-64" transform="translate(503.621094 0)"/>
      <use xlink:href="#DejaVuSans-20" transform="translate(567.097656 0)"/>
      <use xlink:href="#DejaVuSans-43" transform="translate(598.884766 0)"/>
      <use xlink:href="#DejaVuSans-6c" transform="translate(668.708984 0)"/>
      <use xlink:href="#DejaVuSans-6f" transform="translate(696.492188 0)"/>
      <use xlink:href="#DejaVuSans-73" transform="translate(757.673828 0)"/>
      <use xlink:href="#DejaVuSans-65" transform="translate(809.773438 0)"/>
      <use xlink:href="#DejaVuSans-20" transform="translate(871.296875 0)"/>
      <use xlink:href="#DejaVuSans-50" transform="translate(903.083984 0)"/>
      <use xlink:href="#DejaVuSans-72" transform="translate(961.636719 0)"/>
      <use xlink:href="#DejaVuSans-69" transform="translate(1002.75 0)"/>
      <use xlink:href="#DejaVuSans-63" transform="translate(1030.533203 0)"/>
      <use xlink:href="#DejaVuSans-65" transform="translate(1085.513672 0)"/>
     </g>
    </g>
   </g>
  </g>
  <g id="axes_2">
   <g id="patch_8">
    <path d="M 47.72 390.04 
L 565.2 390.04 
L 565.2 237.48 
L 47.72 237.48 
z
" style="fill: #ffffff"/>
   </g>
   <g id="matplotlib.axis_3">
    <g id="xtick_7">
     <g id="line2d_15">
      <g>
       <use xlink:href="#m822bdb47b7" x="71.483439" y="390.04" style="stroke: #000000; stroke-width: 0.8"/>
      </g>
     </g>
     <g id="text_17">
      <!-- 2020 -->
      <g transform="translate(58.758439 404.638437) scale(0.1 -0.1)">
       <use xlink:href="#DejaVuSans-32"/>
       <use xlink:href="#DejaVuSans-30" transform="translate(63.623047 0)"/>
       <use xlink:href="#DejaVuSans-32" transform="translate(127.246094 0)"/>
       <use xlink:href="#DejaVuSans-30" transform="translate(190.869141 0)"/>
      </g>
     </g>
    </g>
    <g id="xtick_8">
     <g id="line2d_16">
      <g>
       <use xlink:href="#m822bdb47b7" x="159.916777" y="390.04" style="stroke: #000000; stroke-width: 0.8"/>
      </g>
     </g>
     <g id="text_18">
      <!-- 2021 -->
      <g transform="translate(147.191777 404.638437) scale(0.1 -0.1)">
       <use xlink:href="#DejaVuSans-32"/>
       <use xlink:href="#DejaVuSans-30" transform="translate(63.623047 0)"/>
       <use xlink:href="#DejaVuSans-32" transform="translate(127.246094 0)"/>
       <use xlink:href="#DejaVuSans-31" transform="translate(190.869141 0)"/>
      </g>
     </g>
    </g>
    <g id="xtick_9">
     <g id="line2d_17">
      <g>
       <use xlink:href="#m822bdb47b7" x="248.108494" y="390.04" style="stroke: #000000; stroke-width: 0.8"/>
      </g>
     </g>
     <g id="text_19">
      <!-- 2022 -->
      <g transform="translate(235.383494 404.638437) scale(0.1 -0.1)">
       <use xlink:href="#DejaVuSans-32"/>
       <use xlink:href="#DejaVuSans-30" transform="translate(63.623047 0)"/>
       <use xlink:href="#DejaVuSans-32" transform="translate(127.246094 0)"/>
       <use xlink:href="#DejaVuSans-32" transform="translate(190.869141 0)"/>
      </g>
     </g>
    </g>
    <g id="xtick_10">
     <g id="line2d_18">
      <g>
       <use xlink:href="#m822bdb47b7" x="336.300211" y="390.04" style="stroke: #000000; stroke-width: 0.8"/>
      </g>
     </g>
     <g id="text_20">
      <!-- 2023 -->
      <g transform="translate(323.575211 404.638437) scale(0.1 -0.1)">
       <use xlink:href="#DejaVuSans-32"/>
       <use xlink:href="#DejaVuSans-30" transform="translate(63.623047 0)"/>
       <use xlink:href="#DejaVuSans-32" transform="translate(127.246094 0)"/>
       <use xlink:href="#DejaVuSans-33" transform="translate(190.869141 0)"/>
      </g>
     </g>
    </g>
    <g id="xtick_11">
     <g id="line2d_19">
      <g>
       <use xlink:href="#m822bdb47b7" x="424.491928" y="390.04" style="stroke: #000000; stroke-width: 0.8"/>
      </g>
     </g>
     <g id="text_21">
      <!-- 2024 -->
      <g transform="translate(411.766928 404.638437) scale(0.1 -0.1)">
       <use xlink:href="#DejaVuSans-32"/>
       <use xlink:href="#DejaVuSans-30" transform="translate(63.623047 0)"/>
       <use xlink:href="#DejaVuSans-32" transform="translate(127.246094 0)"/>
       <use xlink:href="#DejaVuSans-34" transform="translate(190.869141 0)"/>
      </g>
     </g>
    </g>
    <g id="xtick_12">
     <g id="line2d_20">
      <g>
       <use xlink:href="#m822bdb47b7" x="512.925266" y="390.04" style="stroke: #000000; stroke-width: 0.8"/>
      </g>
     </g>
     <g id="text_22">
      <!-- 2025 -->
      <g transform="translate(500.200266 404.638437) scale(0.1 -0.1)">
       <use xlink:href="#DejaVuSans-32"/>
       <use xlink:href="#DejaVuSans-30" transform="translate(63.623047 0)"/>
       <use xlink:href="#DejaVuSans-32" transform="translate(127.246094 0)"/>
       <use xlink:href="#DejaVuSans-35" transform="translate(190.869141 0)"/>
      </g>
     </g>
    </g>
    <g id="text_23">
     <!-- Date -->
     <g transform="translate(294.509219 418.316562) scale(0.1 -0.1)">
      <use xlink:href="#DejaVuSans-44"/>
      <use xlink:href="#DejaVuSans-61" transform="translate(77.001953 0)"/>
      <use xlink:href="#DejaVuSans-74" transform="translate(138.28125 0)"/>
      <use xlink:href="#DejaVuSans-65" transform="translate(177.490234 0)"/>
     </g>
    </g>
   </g>
   <g id="matplotlib.axis_4">
    <g id="ytick_7">
     <g id="line2d_21">
      <g>
       <use xlink:href="#m21b2068e8f" x="47.72" y="383.105455" style="stroke: #000000; stroke-width: 0.8"/>
      </g>
     </g>
     <g id="text_24">
      <!-- 0.0 -->
      <g transform="translate(24.816875 386.904673) scale(0.1 -0.1)">
       <use xlink:href="#DejaVuSans-30"/>
       <use xlink:href="#DejaVuSans-2e" transform="translate(63.623047 0)"/>
       <use xlink:href="#DejaVuSans-30" transform="translate(95.410156 0)"/>
      </g>
     </g>
    </g>
    <g id="ytick_8">
     <g id="line2d_22">
      <g>
       <use xlink:href="#m21b2068e8f" x="47.72" y="355.367273" style="stroke: #000000; stroke-width: 0.8"/>
      </g>
     </g>
     <g id="text_25">
      <!-- 0.2 -->
      <g transform="translate(24.816875 359.166491) scale(0.1 -0.1)">
       <use xlink:href="#DejaVuSans-30"/>
       <use xlink:href="#DejaVuSans-2e" transform="translate(63.623047 0)"/>
       <use xlink:href="#DejaVuSans-32" transform="translate(95.410156 0)"/>
      </g>
     </g>
    </g>
    <g id="ytick_9">
     <g id="line2d_23">
      <g>
       <use xlink:href="#m21b2068e8f" x="47.72" y="327.629091" style="stroke: #000000; stroke-width: 0.8"/>
      </g>
     </g>
     <g id="text_26">
      <!-- 0.4 -->
      <g transform="translate(24.816875 331.42831) scale(0.1 -0.1)">
       <use xlink:href="#DejaVuSans-30"/>
       <use xlink:href="#DejaVuSans-2e" transform="translate(63.623047 0)"/>
       <use xlink:href="#DejaVuSans-34" transform="translate(95.410156 0)"/>
      </g>
     </g>
    </g>
    <g id="ytick_10">
     <g id="line2d_24">
      <g>
       <use xlink:href="#m21b2068e8f" x="47.72" y="299.890909" style="stroke: #000000; stroke-width: 0.8"/>
      </g>
     </g>
     <g id="text_27">
      <!-- 0.6 -->
      <g transform="translate(24.816875 303.690128) scale(0.1 -0.1)">
       <use xlink:href="#DejaVuSans-30"/>
       <use xlink:href="#DejaVuSans-2e" transform="translate(63.623047 0)"/>
       <use xlink:href="#DejaVuSans-36" transform="translate(95.410156 0)"/>
      </g>
     </g>
    </g>
    <g id="ytick_11">
     <g id="line2d_25">
      <g>
       <use xlink:href="#m21b2068e8f" x="47.72" y="272.152727" style="stroke: #000000; stroke-width: 0.8"/>
      </g>
     </g>
     <g id="text_28">
      <!-- 0.8 -->
      <g transform="translate(24.816875 275.951946) scale(0.1 -0.1)">
       <use xlink:href="#DejaVuSans-30"/>
       <use xlink:href="#DejaVuSans-2e" transform="translate(63.623047 0)"/>
       <use xlink:href="#DejaVuSans-38" transform="translate(95.410156 0)"/>
      </g>
     </g>
    </g>
    <g id="ytick_12">
     <g id="line2d_26">
      <g>
       <use xlink:href="#m21b2068e8f" x="47.72" y="244.414545" style="stroke: #000000; stroke-width: 0.8"/>
      </g>
     </g>
     <g id="text_29">
      <!-- 1.0 -->
      <g transform="translate(24.816875 248.213764) scale(0.1 -0.1)">
       <use xlink:href="#DejaVuSans-31"/>
       <use xlink:href="#DejaVuSans-2e" transform="translate(63.623047 0)"/>
       <use xlink:href="#DejaVuSans-30" transform="translate(95.410156 0)"/>
      </g>
     </g>
    </g>
    <g id="text_30">
     <!-- Normalized Volume -->
     <g transform="translate(18.737188 362.301406) rotate(-90) scale(0.1 -0.1)">
      <defs>
       <path id="DejaVuSans-56" d="M 1831 0 
L 50 4666 
L 709 4666 
L 2188 738 
L 3669 4666 
L 4325 4666 
L 2547 0 
L 1831 0 
z
" transform="scale(0.015625)"/>
       <path id="DejaVuSans-75" d="M 544 1381 
L 544 3500 
L 1119 3500 
L 1119 1403 
Q 1119 906 1312 657 
Q 1506 409 1894 409 
Q 2359 409 2629 706 
Q 2900 1003 2900 1516 
L 2900 3500 
L 3475 3500 
L 3475 0 
L 2900 0 
L 2900 538 
Q 2691 219 2414 64 
Q 2138 -91 1772 -91 
Q 1169 -91 856 284 
Q 544 659 544 1381 
z
M 1991 3584 
L 1991 3584 
z
" transform="scale(0.015625)"/>
      </defs>
      <use xlink:href="#DejaVuSans-4e"/>
      <use xlink:href="#DejaVuSans-6f" transform="translate(74.804688 0)"/>
      <use xlink:href="#DejaVuSans-72" transform="translate(135.986328 0)"/>
      <use xlink:href="#DejaVuSans-6d" transform="translate(175.349609 0)"/>
      <use xlink:href="#DejaVuSans-61" transform="translate(272.761719 0)"/>
      <use xlink:href="#DejaVuSans-6c" transform="translate(334.041016 0)"/>
      <use xlink:href="#DejaVuSans-69" transform="translate(361.824219 0)"/>
      <use xlink:href="#DejaVuSans-7a" transform="translate(389.607422 0)"/>
      <use xlink:href="#DejaVuSans-65" transform="translate(442.097656 0)"/>
      <use xlink:href="#DejaVuSans-64" transform="translate(503.621094 0)"/>
      <use xlink:href="#DejaVuSans-20" transform="translate(567.097656 0)"/>
      <use xlink:href="#DejaVuSans-56" transform="translate(598.884766 0)"/>
      <use xlink:href="#DejaVuSans-6f" transform="translate(659.542969 0)"/>
      <use xlink:href="#DejaVuSans-6c" transform="translate(720.724609 0)"/>
      <use xlink:href="#DejaVuSans-75" transform="translate(748.507812 0)"/>
      <use xlink:href="#DejaVuSans-6d" transform="translate(811.886719 0)"/>
      <use xlink:href="#DejaVuSans-65" transform="translate(909.298828 0)"/>
     </g>
    </g>
   </g>
   <g id="line2d_27">
    <path d="M 71.241818 382.955425 
L 71.72506 381.775803 
L 71.966682 381.833716 
L 72.691545 380.959108 
L 72.933166 380.936635 
L 73.174787 380.011063 
L 73.65803 381.215935 
L 74.382893 381.301607 
L 74.624514 379.915605 
L 74.866135 381.381325 
L 75.107756 380.224026 
L 75.349378 375.370242 
L 76.074241 376.538302 
L 76.315862 378.271759 
L 76.557483 377.248274 
L 76.799104 377.890278 
L 79.456937 376.078825 
L 79.698558 376.392749 
L 79.940179 375.393539 
L 80.1818 375.863948 
L 81.148285 375.266997 
L 81.389906 376.825634 
L 81.631527 377.301951 
L 81.873148 374.899437 
L 82.11477 376.35104 
L 83.322875 377.26838 
L 83.564496 378.244815 
L 83.806118 377.804075 
L 84.530981 378.283596 
L 85.014223 376.863437 
L 85.255844 376.833828 
L 85.497466 376.66104 
L 86.222329 376.92624 
L 86.46395 376.676958 
L 86.705571 378.945894 
L 86.947192 378.087539 
L 87.188814 379.917781 
L 88.396919 378.199133 
L 88.63854 380.711272 
L 88.880162 379.70524 
L 89.605025 380.057087 
L 89.846646 380.420053 
L 90.088267 380.373256 
L 90.329888 380.7467 
L 90.57151 381.493609 
L 91.296373 380.667595 
L 91.537994 381.472059 
L 91.779615 381.249269 
L 92.021236 381.915192 
L 92.262858 381.604929 
L 92.987721 381.659132 
L 93.229342 382.629091 
L 93.470963 382.547469 
L 93.712584 381.951193 
L 93.954206 382.436323 
L 94.92069 382.13723 
L 95.162311 382.622544 
L 95.645554 381.640733 
L 96.370417 382.95038 
L 96.612038 383.105455 
L 97.09528 382.488534 
L 98.061765 376.866222 
L 98.303386 378.906222 
L 98.545007 378.942315 
L 98.786628 378.540251 
L 99.02825 379.345312 
L 99.753113 380.119613 
L 99.994734 377.571193 
L 100.236355 380.197688 
L 100.477976 378.479914 
L 101.927703 375.79265 
L 102.169324 376.155326 
L 102.410946 377.483859 
L 103.135809 378.413281 
L 103.37743 378.940516 
L 103.619051 378.511619 
L 103.860672 377.450976 
L 104.102294 378.082449 
L 104.827157 376.747838 
L 105.068778 377.225916 
L 105.310399 375.805286 
L 105.793641 378.21235 
L 106.518505 379.692408 
L 106.760126 377.820668 
L 107.001747 377.636795 
L 107.243368 378.21516 
L 107.484989 377.763804 
L 108.209853 376.765613 
L 108.451474 377.156402 
L 108.693095 377.23823 
L 108.934716 376.021059 
L 109.176337 377.343419 
L 109.901201 377.362987 
L 110.142822 378.145237 
L 110.384443 375.653936 
L 110.867685 377.222013 
L 111.592549 377.449243 
L 111.83417 376.341723 
L 112.075791 376.090672 
L 112.559033 377.369684 
L 113.283897 373.213798 
L 113.525518 375.49682 
L 113.767139 374.494922 
L 114.975245 376.470477 
L 115.216866 375.96199 
L 115.458487 374.665204 
L 115.700108 375.159185 
L 115.941729 375.10691 
L 116.908214 367.63006 
L 117.149835 371.819861 
L 117.391456 368.742814 
L 117.633077 371.98534 
L 118.357941 371.498645 
L 118.599562 369.147296 
L 118.841183 368.171909 
L 119.082804 361.537579 
L 119.324425 369.988746 
L 120.049289 369.835045 
L 120.29091 372.368191 
L 120.532531 368.342411 
L 120.774152 370.018861 
L 121.015773 367.744325 
L 121.982258 376.116836 
L 122.223879 372.840228 
L 122.4655 372.708125 
L 122.707121 370.703733 
L 123.431985 368.769631 
L 123.673606 371.968902 
L 123.915227 373.118303 
L 124.156848 373.433447 
L 124.398469 372.7871 
L 125.364954 375.548169 
L 125.606575 374.565124 
L 125.848196 376.986758 
L 126.089817 378.086784 
L 126.814681 372.527203 
L 127.056302 371.761385 
L 127.297923 371.639906 
L 127.539544 374.880823 
L 127.781165 376.516524 
L 128.506029 375.8349 
L 128.74765 376.421118 
L 128.989271 374.201569 
L 129.472513 375.754427 
L 130.197377 376.062898 
L 130.438998 377.879943 
L 130.92224 376.360275 
L 131.163861 377.047965 
L 131.888725 374.788806 
L 132.130346 377.850917 
L 132.371967 374.711208 
L 132.613588 377.325113 
L 132.855209 378.56871 
L 133.580073 377.981992 
L 133.821694 378.441107 
L 134.063315 378.399012 
L 134.304936 370.961486 
L 134.546557 374.49531 
L 135.271421 376.589089 
L 135.513042 375.896003 
L 135.754663 374.786543 
L 136.237905 378.937874 
L 136.962769 377.720914 
L 137.446011 378.65773 
L 139.620601 377.028459 
L 140.345465 374.108938 
L 140.587086 376.724803 
L 140.828707 377.459467 
L 141.070328 377.725988 
L 141.311949 379.01914 
L 142.036813 378.615258 
L 142.278434 378.841392 
L 142.520055 378.892968 
L 142.761676 379.799611 
L 143.003297 379.02274 
L 143.728161 380.243658 
L 143.969782 380.115253 
L 144.211403 378.342159 
L 144.453024 377.566301 
L 144.694645 374.934827 
L 145.66113 376.854825 
L 145.902751 378.318389 
L 146.144372 377.245202 
L 146.385993 377.842395 
L 147.110857 372.022138 
L 147.352478 375.478632 
L 147.594099 375.81962 
L 147.83572 378.247723 
L 148.077341 378.352839 
L 149.285447 376.854199 
L 149.527068 377.76825 
L 149.768689 377.408094 
L 150.493553 377.336707 
L 150.735174 377.127105 
L 150.976795 377.495741 
L 151.218416 378.979005 
L 151.460037 379.113611 
L 152.184901 378.312169 
L 152.426522 379.098701 
L 152.668143 375.605436 
L 152.909764 377.613361 
L 153.151385 378.320833 
L 153.876249 377.310527 
L 154.11787 378.145052 
L 154.359491 377.268089 
L 154.601112 376.81542 
L 154.842733 373.991877 
L 155.567597 377.614539 
L 155.809218 377.389723 
L 156.050839 375.915069 
L 156.29246 377.242075 
L 156.534081 377.477218 
L 157.258945 376.521603 
L 157.500566 376.608533 
L 157.742187 376.549614 
L 157.983808 375.560358 
L 158.225429 376.922854 
L 158.950293 376.527174 
L 159.191914 377.205599 
L 159.675156 376.088716 
L 160.641641 375.401828 
L 160.883262 374.980457 
L 161.124883 375.025817 
L 161.366504 374.047303 
L 161.608125 376.15271 
L 162.332989 375.563773 
L 162.57461 377.741584 
L 162.816231 375.655685 
L 163.057852 372.464218 
L 163.299473 375.054663 
L 164.024337 374.644778 
L 164.507579 377.029474 
L 164.7492 376.437514 
L 164.990821 375.495506 
L 165.715685 375.087821 
L 165.957306 377.167416 
L 166.440548 378.141607 
L 166.682169 377.029532 
L 167.648654 377.814983 
L 167.890275 376.743122 
L 168.131896 377.165929 
L 168.373517 378.235471 
L 169.098381 379.029048 
L 169.581623 378.488728 
L 171.514592 377.242679 
L 171.756213 378.040011 
L 172.481077 376.106184 
L 172.722698 378.007229 
L 172.964319 377.737087 
L 173.20594 377.06435 
L 173.447561 377.337753 
L 174.172425 376.947155 
L 174.414046 376.464423 
L 174.655667 377.775779 
L 174.897288 376.466571 
L 175.138909 378.915761 
L 175.863773 377.025721 
L 176.105394 376.820929 
L 176.347015 379.134578 
L 176.588636 378.88355 
L 176.830257 379.12572 
L 177.555121 379.539603 
L 178.038363 380.072557 
L 178.521605 378.682565 
L 179.246469 379.380204 
L 179.48809 378.06131 
L 179.971332 379.737056 
L 180.212953 379.442519 
L 181.179438 379.51921 
L 181.421059 379.410839 
L 181.66268 378.187186 
L 181.904301 376.156806 
L 183.112407 378.395801 
L 183.354028 377.300558 
L 183.595649 378.385076 
L 184.320513 377.924035 
L 184.803755 379.455878 
L 185.045376 379.457916 
L 185.286997 377.495678 
L 186.011861 373.627624 
L 186.253482 373.422612 
L 186.495103 376.552141 
L 186.978345 377.305345 
L 187.703209 374.747806 
L 187.94483 376.799829 
L 188.186451 375.62318 
L 188.428072 375.996809 
L 188.669693 375.043088 
L 190.11942 377.359857 
L 190.361041 377.155671 
L 191.085905 377.970612 
L 191.327526 377.992294 
L 191.810768 376.843538 
L 192.052389 376.784831 
L 192.777253 375.2427 
L 193.018874 376.155162 
L 193.260495 372.245665 
L 193.743737 374.695265 
L 194.468601 375.823899 
L 194.710222 374.726386 
L 194.951843 374.888329 
L 195.193464 371.10638 
L 195.435085 348.055061 
L 196.159949 357.087535 
L 196.40157 357.907981 
L 196.643191 360.534985 
L 196.884812 365.677676 
L 197.126433 368.186768 
L 197.851297 367.455715 
L 198.334539 371.208737 
L 198.57616 368.008421 
L 198.817781 366.997736 
L 199.784266 368.063447 
L 200.025887 370.729733 
L 200.267508 364.864639 
L 200.509129 368.080837 
L 201.233993 367.805046 
L 201.475614 351.287937 
L 201.717235 357.681941 
L 201.958856 361.102087 
L 202.200477 366.699754 
L 202.925341 366.528951 
L 203.166962 367.507573 
L 203.408583 365.515098 
L 203.891825 369.032794 
L 204.616689 368.524752 
L 204.85831 366.323224 
L 205.099931 367.595535 
L 205.341552 365.167298 
L 205.583173 367.929836 
L 206.308037 367.249816 
L 206.549658 366.252232 
L 206.791279 369.582294 
L 207.274521 369.040627 
L 207.999385 370.75221 
L 208.241006 371.830518 
L 208.482627 369.640842 
L 208.724248 364.084065 
L 208.965869 365.5962 
L 209.690733 363.611671 
L 209.932354 353.219644 
L 210.173975 361.89455 
L 210.415596 363.292729 
L 210.657217 358.994307 
L 211.382081 359.267307 
L 211.865323 363.745334 
L 212.106944 363.622561 
L 212.348565 363.657138 
L 213.073429 366.945103 
L 213.31505 366.092489 
L 213.556671 362.579792 
L 214.039913 363.705723 
L 214.764777 366.528148 
L 215.006398 366.603732 
L 215.48964 368.409658 
L 215.731261 367.532565 
L 216.456125 365.495627 
L 216.697746 365.198092 
L 216.939367 366.711771 
L 217.180988 366.93114 
L 217.422609 367.489446 
L 218.147473 364.922209 
L 218.389094 366.916629 
L 218.630715 363.40268 
L 218.872336 365.595655 
L 219.113957 365.757668 
L 220.080442 369.139898 
L 220.322063 368.352427 
L 220.563684 369.213738 
L 220.805305 367.276701 
L 221.530169 369.465046 
L 221.77179 368.624392 
L 222.013411 371.800391 
L 222.255032 369.708185 
L 222.496653 370.398201 
L 223.704759 371.983761 
L 223.94638 372.798958 
L 224.188001 373.115129 
L 224.912865 370.96813 
L 225.154486 375.396942 
L 225.396107 373.577053 
L 225.637728 376.045136 
L 227.570697 376.015732 
L 228.295561 376.637609 
L 228.537182 375.296838 
L 228.778803 376.501585 
L 229.020424 375.818487 
L 229.262045 373.88071 
L 229.986909 374.216378 
L 230.22853 374.706345 
L 230.470151 372.956824 
L 230.711772 374.200229 
L 230.953393 373.890359 
L 231.678257 373.348571 
L 231.919878 372.154686 
L 232.161499 370.235638 
L 232.40312 370.129673 
L 232.644741 371.28862 
L 233.369605 369.732786 
L 233.611226 368.52195 
L 233.852847 372.741187 
L 234.336089 369.726091 
L 235.060953 371.525171 
L 235.302574 370.363563 
L 235.544195 370.442148 
L 235.785816 367.838624 
L 236.027437 366.920023 
L 236.752301 365.722414 
L 236.993922 367.662436 
L 237.235543 368.578438 
L 237.477164 367.770027 
L 237.718785 369.264794 
L 238.443649 366.074246 
L 238.926891 368.071056 
L 239.168512 368.524671 
L 239.410133 369.74169 
L 240.134996 367.427428 
L 240.376618 367.741049 
L 240.618239 369.995136 
L 240.85986 369.852429 
L 241.101481 370.816144 
L 241.826344 369.518413 
L 242.067966 370.396191 
L 242.309587 373.146122 
L 242.551208 371.414565 
L 242.792829 367.65967 
L 243.759314 371.816726 
L 244.000935 371.259621 
L 244.242556 372.688754 
L 244.484177 371.574394 
L 245.20904 372.101429 
L 245.450662 373.783065 
L 245.692283 372.367315 
L 245.933904 373.380378 
L 246.175525 372.302348 
L 246.900388 374.540584 
L 247.14201 374.042597 
L 247.383631 374.620948 
L 247.625252 371.987514 
L 247.866873 371.946837 
L 248.833358 369.401226 
L 249.074979 369.92705 
L 249.3166 371.749205 
L 249.558221 369.723522 
L 250.283084 370.768064 
L 250.524706 371.606384 
L 250.766327 370.118767 
L 251.007948 371.231562 
L 251.249569 368.229126 
L 251.974432 367.382419 
L 252.216054 366.1286 
L 252.457675 370.357767 
L 252.699296 369.714115 
L 253.66578 373.355614 
L 253.907402 371.26011 
L 254.149023 359.239713 
L 254.390644 366.120028 
L 254.632265 369.821314 
L 257.048476 371.321099 
L 257.290098 371.286994 
L 257.77334 369.892128 
L 258.014961 369.971267 
L 258.739824 374.792244 
L 258.981446 372.641849 
L 259.223067 373.262755 
L 259.464688 372.708069 
L 259.706309 374.45921 
L 260.431172 372.405495 
L 260.672794 372.196538 
L 260.914415 369.808525 
L 261.156036 365.869275 
L 261.397657 370.588115 
L 262.12252 368.514021 
L 262.605763 373.0462 
L 262.847384 372.328592 
L 263.813868 371.347707 
L 264.297111 366.590144 
L 264.538732 367.788624 
L 264.780353 367.2241 
L 265.505216 370.061082 
L 265.988459 365.419359 
L 266.23008 364.739797 
L 266.471701 370.634685 
L 267.196564 369.505119 
L 267.438186 368.012817 
L 267.921428 371.435118 
L 268.163049 372.819776 
L 268.887912 373.871726 
L 269.129534 373.468445 
L 269.371155 372.744168 
L 269.612776 372.549869 
L 269.854397 374.169589 
L 271.062503 372.376576 
L 271.304124 373.062294 
L 271.545745 373.087094 
L 272.270608 372.753858 
L 272.753851 375.622858 
L 272.995472 374.063936 
L 273.961956 373.25693 
L 274.203578 374.87385 
L 274.445199 375.013389 
L 274.68682 373.64366 
L 274.928441 374.523493 
L 275.653304 369.691107 
L 275.894926 371.565043 
L 276.136547 369.428104 
L 276.378168 370.287804 
L 276.619789 368.641711 
L 278.069516 370.640987 
L 278.311137 373.090033 
L 279.036 373.818021 
L 279.519243 367.059023 
L 280.002485 374.066956 
L 280.727348 372.342664 
L 280.96897 372.813102 
L 281.210591 373.896629 
L 281.452212 371.83781 
L 281.693833 371.562987 
L 282.418696 372.447672 
L 282.660318 369.672886 
L 282.901939 374.440046 
L 283.14356 373.769761 
L 283.385181 373.695341 
L 284.110044 373.216908 
L 284.351665 364.190306 
L 284.593287 362.516646 
L 284.834908 352.239835 
L 285.801392 345.66099 
L 286.043013 356.823823 
L 286.284635 359.384812 
L 286.526256 365.78902 
L 286.767877 363.097866 
L 287.49274 366.023973 
L 287.734361 365.969275 
L 287.975983 366.090385 
L 288.217604 367.961241 
L 288.459225 367.112503 
L 289.184088 366.497514 
L 289.425709 367.238411 
L 289.908952 366.4177 
L 290.150573 363.70636 
L 290.875436 364.98866 
L 291.358679 362.207607 
L 291.6003 365.229513 
L 291.841921 365.972051 
L 292.566784 364.429655 
L 292.808405 366.681856 
L 293.050027 366.274227 
L 293.533269 367.809146 
L 294.258132 368.374183 
L 294.499753 368.331758 
L 294.741375 369.935884 
L 294.982996 367.514376 
L 295.224617 368.183025 
L 295.94948 366.96415 
L 296.432723 366.6731 
L 296.674344 364.80819 
L 296.915965 365.84503 
L 297.640828 367.238449 
L 297.882449 368.299842 
L 298.124071 366.826064 
L 298.365692 363.024951 
L 298.607313 364.706785 
L 299.332176 365.09898 
L 299.573797 359.987146 
L 299.815419 357.592133 
L 300.05704 363.150442 
L 300.298661 353.963441 
L 301.023524 357.535872 
L 301.265145 360.33842 
L 301.506767 360.749226 
L 301.748388 360.571797 
L 301.990009 360.192907 
L 302.714872 364.40545 
L 302.956493 363.70953 
L 303.198115 363.44453 
L 303.439736 359.072039 
L 303.681357 356.717099 
L 304.647841 363.931709 
L 304.889463 360.159128 
L 305.131084 364.153706 
L 305.372705 365.914282 
L 306.097568 366.847322 
L 306.339189 368.545078 
L 306.580811 364.866784 
L 306.822432 367.732671 
L 307.064053 368.340637 
L 307.788916 368.080548 
L 308.030537 368.190719 
L 308.272159 366.990227 
L 308.755401 371.342299 
L 309.721885 371.038161 
L 309.963507 371.121552 
L 310.205128 365.85859 
L 310.446749 369.413753 
L 311.171612 369.540507 
L 311.413233 372.242649 
L 311.654855 370.537316 
L 311.896476 371.53749 
L 312.138097 369.539211 
L 312.86296 366.657013 
L 313.587824 370.246182 
L 313.829445 371.556219 
L 316.245656 369.53353 
L 316.487277 371.664212 
L 316.728899 366.813562 
L 316.97052 366.080819 
L 317.212141 361.650093 
L 317.937004 360.519532 
L 318.420247 365.011519 
L 318.661868 362.108037 
L 318.903489 364.11494 
L 319.628352 362.505686 
L 319.869973 364.649425 
L 320.111595 359.579226 
L 320.353216 359.301317 
L 320.594837 360.454194 
L 321.3197 356.790886 
L 321.561321 359.437697 
L 321.802943 356.145601 
L 322.044564 360.184829 
L 322.286185 358.55306 
L 323.011048 359.288151 
L 323.252669 363.823849 
L 323.494291 365.598339 
L 323.977533 354.862776 
L 324.702396 362.002383 
L 324.944017 357.847188 
L 325.185639 362.413899 
L 325.42726 362.253857 
L 325.668881 360.702547 
L 326.393744 364.31961 
L 326.635365 360.877433 
L 326.876987 361.002747 
L 327.118608 365.597777 
L 327.360229 365.848781 
L 328.085092 365.659283 
L 328.326713 363.627639 
L 328.568335 364.365945 
L 328.809956 362.728932 
L 329.051577 363.65911 
L 329.77644 359.411672 
L 330.018061 362.860781 
L 330.259682 364.522748 
L 330.501304 364.081287 
L 330.742925 356.285247 
L 331.467788 361.195468 
L 331.709409 365.982887 
L 331.95103 365.995405 
L 332.192652 368.86947 
L 332.434273 366.6255 
L 333.159136 368.592585 
L 333.400757 371.660745 
L 333.642378 372.174237 
L 334.850484 368.862067 
L 335.092105 369.477012 
L 335.816969 371.896021 
L 336.783453 365.992608 
L 337.025074 368.240084 
L 337.266696 367.435286 
L 337.508317 365.672409 
L 338.23318 367.522613 
L 338.474801 368.977648 
L 338.716422 368.299238 
L 338.958044 369.655057 
L 339.199665 369.697821 
L 339.924528 362.450459 
L 340.166149 367.264379 
L 340.40777 369.258787 
L 340.649392 367.440322 
L 340.891013 368.398507 
L 343.307224 359.880996 
L 343.548845 364.791435 
L 344.032088 359.327294 
L 344.273709 362.205078 
L 345.240193 362.149925 
L 345.481814 363.988463 
L 345.723436 359.047576 
L 345.965057 358.611338 
L 346.68992 360.040357 
L 346.931541 362.379925 
L 347.173162 360.330858 
L 347.414784 353.014645 
L 347.656405 362.416437 
L 348.381268 363.068085 
L 348.622889 363.729397 
L 348.86451 365.62644 
L 349.106132 365.480032 
L 349.347753 367.551597 
L 350.072616 362.780951 
L 350.314237 362.912214 
L 350.555858 356.135016 
L 350.79748 356.023814 
L 351.039101 358.213351 
L 351.763964 356.185059 
L 352.005585 356.765858 
L 352.247206 361.365953 
L 352.488828 360.242958 
L 352.730449 358.337645 
L 353.455312 358.710255 
L 353.696933 352.791634 
L 354.180176 357.599711 
L 354.421797 351.289142 
L 355.14666 350.414626 
L 355.388281 357.771841 
L 355.629902 355.898096 
L 355.871524 350.630756 
L 356.113145 350.770292 
L 356.838008 349.220038 
L 357.079629 355.183539 
L 357.32125 354.124621 
L 357.562872 357.302892 
L 357.804493 357.644696 
L 358.529356 346.696135 
L 358.770977 338.75817 
L 359.25422 339.396931 
L 359.495841 346.558708 
L 360.220704 340.203101 
L 360.462325 348.512291 
L 360.703946 348.537026 
L 360.945568 347.921191 
L 361.187189 344.468262 
L 361.912052 347.095697 
L 362.153673 351.915534 
L 362.395294 350.580088 
L 362.636916 338.195363 
L 362.878537 335.720218 
L 363.6034 345.380308 
L 363.845021 346.257718 
L 364.086642 345.999729 
L 364.328264 352.542345 
L 364.569885 349.728129 
L 366.019612 350.632895 
L 366.261233 351.41088 
L 366.986096 354.305889 
L 367.227717 352.467027 
L 367.469338 345.756231 
L 367.71096 354.977647 
L 367.952581 357.818405 
L 368.677444 356.287211 
L 368.919065 354.932758 
L 369.160686 356.237077 
L 369.402308 352.313448 
L 369.643929 350.251696 
L 370.610413 359.064806 
L 370.852034 355.56129 
L 371.093656 356.623606 
L 371.335277 358.379076 
L 372.06014 353.112375 
L 372.301761 355.204601 
L 372.785004 350.037445 
L 373.026625 354.064575 
L 373.751488 355.127671 
L 373.993109 353.518787 
L 374.23473 358.1281 
L 374.476351 354.735455 
L 374.717973 342.625264 
L 375.684457 352.540249 
L 375.926078 352.434912 
L 376.167699 348.649025 
L 376.409321 348.80754 
L 377.134184 344.333058 
L 377.375805 344.173965 
L 377.617426 348.997982 
L 378.825532 350.981077 
L 379.067153 354.630172 
L 379.308774 353.239877 
L 379.550395 354.986819 
L 379.792017 352.582334 
L 380.51688 350.114091 
L 380.758501 351.493091 
L 381.241743 359.080102 
L 381.483365 358.454519 
L 382.208228 360.964701 
L 382.449849 359.229294 
L 382.69147 356.643813 
L 382.933091 357.923138 
L 383.174713 356.342513 
L 383.899576 361.143975 
L 384.141197 361.000837 
L 384.382818 363.070686 
L 384.624439 360.519802 
L 384.866061 363.325631 
L 385.590924 365.422205 
L 385.832545 362.609643 
L 386.074166 364.376219 
L 386.315787 363.880969 
L 386.557409 361.474692 
L 387.282272 359.041351 
L 387.523893 362.672869 
L 388.007135 364.770631 
L 388.248757 361.940384 
L 388.97362 360.830812 
L 389.215241 365.186525 
L 389.456862 365.215502 
L 389.698483 367.108085 
L 389.940105 365.083051 
L 390.664968 364.269585 
L 390.906589 360.616914 
L 391.14821 363.581351 
L 391.389831 362.43517 
L 391.631453 356.317221 
L 392.356316 361.89384 
L 392.597937 357.949033 
L 392.839558 363.51915 
L 393.322801 358.394388 
L 394.047664 350.689179 
L 394.530906 337.329029 
L 394.772527 343.945782 
L 395.014149 355.032403 
L 395.739012 354.239703 
L 395.980633 355.632721 
L 396.222254 353.865335 
L 396.463875 354.347881 
L 396.705497 355.11323 
L 397.43036 349.093946 
L 397.671981 358.288813 
L 397.913602 358.977653 
L 398.155223 362.776714 
L 398.396845 357.838268 
L 399.121708 360.545797 
L 399.60495 365.530188 
L 399.846571 366.870152 
L 400.088193 359.190749 
L 400.813056 359.408036 
L 401.054677 361.069512 
L 401.296298 358.018646 
L 401.537919 360.079022 
L 404.195752 360.296793 
L 404.437373 359.956599 
L 404.678994 354.792094 
L 404.920615 357.731911 
L 405.162237 357.106539 
L 405.8871 356.158906 
L 406.128721 360.517615 
L 406.370342 361.208031 
L 406.611963 356.691015 
L 406.853585 358.926806 
L 407.578448 358.953458 
L 407.820069 358.752134 
L 408.06169 358.282471 
L 408.303311 358.673923 
L 408.544933 350.821006 
L 409.269796 343.360115 
L 409.753038 357.592502 
L 409.994659 360.011875 
L 410.236281 355.372264 
L 410.961144 346.272988 
L 411.202765 351.130905 
L 411.444386 347.042412 
L 411.686007 349.540574 
L 411.927629 356.205451 
L 412.652492 354.477772 
L 413.135734 345.699532 
L 413.377355 353.009766 
L 413.618977 354.026253 
L 414.34384 348.166498 
L 415.310325 360.174064 
L 416.035188 356.637332 
L 416.276809 356.660333 
L 417.001673 357.985647 
L 417.726536 356.951068 
L 417.968157 359.103141 
L 418.209778 357.946706 
L 418.451399 355.330014 
L 418.69302 342.983623 
L 419.417884 349.663298 
L 419.659505 358.383844 
L 420.142747 362.696838 
L 420.384368 363.070761 
L 421.109232 363.64461 
L 421.350853 364.440211 
L 421.592474 364.510608 
L 421.834095 360.657364 
L 422.075716 360.33302 
L 422.80058 364.961486 
L 423.042201 365.239554 
L 423.283822 364.64352 
L 423.525443 354.398774 
L 423.767064 355.685838 
L 424.733549 359.243045 
L 424.97517 360.726932 
L 425.216791 363.894615 
L 425.458412 361.517659 
L 426.183276 362.609359 
L 426.424897 361.741015 
L 426.666518 363.416114 
L 426.908139 362.01225 
L 427.14976 362.779489 
L 427.874624 364.373962 
L 428.116245 362.698773 
L 428.357866 365.133643 
L 428.599487 355.402785 
L 428.841108 363.173074 
L 429.565972 355.800306 
L 429.807593 357.526592 
L 430.049214 356.948378 
L 430.290835 352.750423 
L 430.532456 358.346367 
L 431.25732 354.088185 
L 431.498941 359.162256 
L 431.740562 352.884902 
L 431.982183 354.719266 
L 432.223804 349.097128 
L 432.948668 337.241688 
L 433.190289 337.674943 
L 433.43191 331.642547 
L 433.673531 331.565754 
L 436.331364 337.852647 
L 436.572985 351.295802 
L 436.814606 346.82336 
L 437.056227 353.503432 
L 437.297848 348.537125 
L 438.022712 339.089136 
L 438.264333 343.442829 
L 438.505954 327.04535 
L 438.747575 340.242602 
L 438.989196 343.845887 
L 439.71406 345.329088 
L 439.955681 346.690463 
L 440.197302 350.825514 
L 440.438923 348.336697 
L 440.680544 350.239145 
L 441.405408 347.07278 
L 441.647029 347.391522 
L 441.88865 349.381198 
L 442.130271 347.748833 
L 442.371892 351.241764 
L 443.096756 344.774547 
L 443.338377 348.030236 
L 443.579998 349.406683 
L 443.821619 346.026291 
L 444.06324 347.139206 
L 444.788104 349.190811 
L 445.029725 353.322602 
L 445.271346 354.549495 
L 445.512967 352.751725 
L 445.754588 356.288441 
L 446.479452 352.243263 
L 446.721073 354.910879 
L 448.1708 354.769678 
L 448.412421 357.750745 
L 448.654042 356.760441 
L 448.895663 357.01658 
L 449.137284 357.958259 
L 449.862148 347.475923 
L 450.103769 347.731164 
L 450.587011 352.380433 
L 450.828632 356.691872 
L 451.553496 357.8026 
L 451.795117 358.767764 
L 452.036738 356.827261 
L 452.278359 357.476242 
L 452.51998 347.479899 
L 453.244844 341.018077 
L 453.486465 348.530514 
L 454.936192 348.584491 
L 455.419434 355.477836 
L 455.661055 351.492621 
L 455.902676 353.494533 
L 456.62754 352.883009 
L 457.110782 362.110053 
L 457.594024 356.331929 
L 458.318888 353.815838 
L 458.560509 359.836248 
L 458.80213 354.478186 
L 459.285372 355.940355 
L 460.010236 354.203601 
L 460.251857 357.303184 
L 460.493478 358.428138 
L 460.97672 355.555563 
L 461.701584 343.775985 
L 462.184826 356.874725 
L 462.426447 346.340175 
L 462.668068 356.488354 
L 463.634553 351.497203 
L 463.876174 353.864788 
L 464.117795 340.371594 
L 464.359416 334.231561 
L 465.325901 351.38214 
L 465.567522 352.159149 
L 465.809143 338.759053 
L 466.050764 350.104814 
L 466.775628 345.141146 
L 467.017249 351.703353 
L 467.25887 353.338157 
L 467.500491 357.583172 
L 467.742112 354.766709 
L 468.466976 355.777792 
L 468.708597 360.338944 
L 468.950218 359.444651 
L 469.43346 360.780678 
L 470.158324 359.245149 
L 470.399945 352.526191 
L 470.641566 359.449628 
L 470.883187 353.495471 
L 471.124808 359.272899 
L 471.849672 360.949281 
L 472.091293 358.541578 
L 472.332914 359.140101 
L 472.574535 354.677642 
L 472.816156 352.645532 
L 474.024262 358.574686 
L 474.265883 361.168603 
L 474.507504 362.137223 
L 475.232368 362.45553 
L 475.473989 362.843809 
L 475.71561 349.759114 
L 476.198852 356.721745 
L 476.923716 352.86402 
L 477.165337 359.979339 
L 477.406958 363.144311 
L 477.648579 361.413391 
L 477.8902 363.147119 
L 478.615064 364.701763 
L 478.856685 367.060073 
L 479.098306 367.270042 
L 479.339927 361.210939 
L 479.581548 362.483342 
L 480.306412 363.268931 
L 480.548033 364.460098 
L 480.789654 367.625403 
L 481.031275 364.981583 
L 481.272896 365.313263 
L 481.99776 364.441924 
L 482.481002 366.594107 
L 482.722623 361.302779 
L 482.964244 352.247493 
L 483.689108 355.643983 
L 483.930729 362.89149 
L 484.413971 366.014594 
L 484.655592 364.68004 
L 485.380456 367.103247 
L 485.622077 366.178826 
L 485.863698 366.584652 
L 486.105319 366.140674 
L 486.34694 363.874133 
L 487.555046 365.087477 
L 487.796667 362.584734 
L 488.038288 365.494959 
L 488.763152 366.10734 
L 489.004773 351.178811 
L 489.246394 348.087686 
L 489.488015 348.689445 
L 489.729636 350.907346 
L 490.4545 281.300582 
L 492.387469 244.414545 
L 492.62909 256.729285 
L 492.870711 300.643777 
L 493.112332 319.11128 
L 493.837196 322.663282 
L 494.078817 327.287607 
L 494.320438 340.843661 
L 494.562059 335.40788 
L 494.80368 299.401619 
L 495.528544 284.305711 
L 495.770165 305.075637 
L 496.011786 310.329975 
L 496.253407 329.987403 
L 496.495028 315.597478 
L 497.219892 321.471099 
L 497.461513 314.116298 
L 497.703134 323.723335 
L 497.944755 313.109658 
L 498.186376 316.362647 
L 498.91124 334.598937 
L 499.152861 308.57375 
L 499.394482 302.508332 
L 499.636103 309.476107 
L 499.877724 287.337639 
L 500.602588 272.551809 
L 500.844209 281.890721 
L 501.08583 307.483111 
L 501.327451 316.697046 
L 502.293936 323.033685 
L 502.535557 329.786769 
L 502.777178 324.311657 
L 503.018799 328.079135 
L 503.26042 322.764281 
L 503.985284 335.596178 
L 504.226905 342.730058 
L 504.468526 334.027192 
L 504.710147 335.974419 
L 504.951768 326.599104 
L 505.676632 321.806774 
L 505.918253 327.649294 
L 506.159874 325.901641 
L 506.401495 331.99681 
L 506.643116 320.710769 
L 507.36798 329.665062 
L 507.609601 312.750741 
L 508.092843 325.004357 
L 508.334464 309.255166 
L 509.300949 337.975033 
L 509.54257 339.26487 
L 509.784191 336.198919 
L 510.025812 321.909502 
L 510.750676 324.392282 
L 510.992297 337.147206 
L 511.233918 338.159454 
L 511.475539 337.174818 
L 511.71716 333.532253 
L 512.442024 341.227442 
L 512.683645 337.286808 
L 513.166887 336.57915 
L 513.408508 339.789137 
L 514.133372 345.952916 
L 514.374993 345.64817 
L 514.616614 338.483158 
L 514.858235 345.396037 
L 515.099856 341.262026 
L 515.82472 347.498642 
L 516.066341 334.507388 
L 516.307962 342.474423 
L 516.549583 340.244484 
L 517.516068 342.854011 
L 517.757689 340.350944 
L 517.99931 344.147791 
L 518.240931 336.582598 
L 518.482552 338.99717 
L 519.207416 342.502422 
L 521.382006 330.484389 
L 521.865248 310.075455 
L 522.590112 314.401951 
L 522.831733 319.518801 
L 523.314975 320.891819 
L 523.556596 320.903479 
L 524.28146 314.789626 
L 524.523081 318.401416 
L 524.764702 312.855542 
L 525.006323 315.684375 
L 525.247944 296.458035 
L 525.972808 303.197397 
L 526.214429 308.950745 
L 526.45605 301.709855 
L 526.939292 300.945778 
L 528.147398 324.56162 
L 528.389019 307.404129 
L 528.63064 318.31596 
L 529.355504 324.549459 
L 529.597125 329.029861 
L 529.838746 328.502718 
L 530.080367 324.61812 
L 530.321988 327.807829 
L 531.046852 333.709734 
L 531.288473 332.416061 
L 531.771715 337.593649 
L 532.013336 332.939511 
L 532.7382 334.979234 
L 532.979821 344.55903 
L 533.221442 348.012266 
L 533.463063 341.59738 
L 533.704684 345.975833 
L 534.429548 340.412763 
L 534.671169 339.771623 
L 534.91279 349.095922 
L 535.154411 343.721635 
L 536.120896 302.298694 
L 536.362517 319.397966 
L 536.604138 316.271247 
L 536.845759 326.718839 
L 537.08738 326.299895 
L 537.812244 335.872552 
L 538.053865 347.362413 
L 538.295486 345.141961 
L 538.537107 348.197057 
L 538.778728 380.370819 
L 539.503592 379.68644 
L 539.745213 378.152205 
L 539.986834 378.535868 
L 540.228455 379.31723 
L 540.470076 378.828561 
L 541.19494 379.376168 
L 541.436561 378.624378 
L 541.678182 375.983354 
L 541.678182 375.983354 
" clip-path="url(#p88da2b672a)" style="fill: none; stroke: #008000; stroke-width: 1.5; stroke-linecap: square"/>
   </g>
   <g id="patch_9">
    <path d="M 47.72 390.04 
L 47.72 237.48 
" style="fill: none; stroke: #000000; stroke-width: 0.8; stroke-linejoin: miter; stroke-linecap: square"/>
   </g>
   <g id="patch_10">
    <path d="M 565.2 390.04 
L 565.2 237.48 
" style="fill: none; stroke: #000000; stroke-width: 0.8; stroke-linejoin: miter; stroke-linecap: square"/>
   </g>
   <g id="patch_11">
    <path d="M 47.72 390.04 
L 565.2 390.04 
" style="fill: none; stroke: #000000; stroke-width: 0.8; stroke-linejoin: miter; stroke-linecap: square"/>
   </g>
   <g id="patch_12">
    <path d="M 47.72 237.48 
L 565.2 237.48 
" style="fill: none; stroke: #000000; stroke-width: 0.8; stroke-linejoin: miter; stroke-linecap: square"/>
   </g>
   <g id="text_31">
    <!-- Normalized  Trading Volume -->
    <g transform="translate(222.385937 231.48) scale(0.12 -0.12)">
     <defs>
      <path id="DejaVuSans-54" d="M -19 4666 
L 3928 4666 
L 3928 4134 
L 2272 4134 
L 2272 0 
L 1638 0 
L 1638 4134 
L -19 4134 
L -19 4666 
z
" transform="scale(0.015625)"/>
      <path id="DejaVuSans-6e" d="M 3513 2113 
L 3513 0 
L 2938 0 
L 2938 2094 
Q 2938 2591 2744 2837 
Q 2550 3084 2163 3084 
Q 1697 3084 1428 2787 
Q 1159 2491 1159 1978 
L 1159 0 
L 581 0 
L 581 3500 
L 1159 3500 
L 1159 2956 
Q 1366 3272 1645 3428 
Q 1925 3584 2291 3584 
Q 2894 3584 3203 3211 
Q 3513 2838 3513 2113 
z
" transform="scale(0.015625)"/>
      <path id="DejaVuSans-67" d="M 2906 1791 
Q 2906 2416 2648 2759 
Q 2391 3103 1925 3103 
Q 1463 3103 1205 2759 
Q 947 2416 947 1791 
Q 947 1169 1205 825 
Q 1463 481 1925 481 
Q 2391 481 2648 825 
Q 2906 1169 2906 1791 
z
M 3481 434 
Q 3481 -459 3084 -895 
Q 2688 -1331 1869 -1331 
Q 1566 -1331 1297 -1286 
Q 1028 -1241 775 -1147 
L 775 -588 
Q 1028 -725 1275 -790 
Q 1522 -856 1778 -856 
Q 2344 -856 2625 -561 
Q 2906 -266 2906 331 
L 2906 616 
Q 2728 306 2450 153 
Q 2172 0 1784 0 
Q 1141 0 747 490 
Q 353 981 353 1791 
Q 353 2603 747 3093 
Q 1141 3584 1784 3584 
Q 2172 3584 2450 3431 
Q 2728 3278 2906 2969 
L 2906 3500 
L 3481 3500 
L 3481 434 
z
" transform="scale(0.015625)"/>
     </defs>
     <use xlink:href="#DejaVuSans-4e"/>
     <use xlink:href="#DejaVuSans-6f" transform="translate(74.804688 0)"/>
     <use xlink:href="#DejaVuSans-72" transform="translate(135.986328 0)"/>
     <use xlink:href="#DejaVuSans-6d" transform="translate(175.349609 0)"/>
     <use xlink:href="#DejaVuSans-61" transform="translate(272.761719 0)"/>
     <use xlink:href="#DejaVuSans-6c" transform="translate(334.041016 0)"/>
     <use xlink:href="#DejaVuSans-69" transform="translate(361.824219 0)"/>
     <use xlink:href="#DejaVuSans-7a" transform="translate(389.607422 0)"/>
     <use xlink:href="#DejaVuSans-65" transform="translate(442.097656 0)"/>
     <use xlink:href="#DejaVuSans-64" transform="translate(503.621094 0)"/>
     <use xlink:href="#DejaVuSans-20" transform="translate(567.097656 0)"/>
     <use xlink:href="#DejaVuSans-20" transform="translate(598.884766 0)"/>
     <use xlink:href="#DejaVuSans-54" transform="translate(630.671875 0)"/>
     <use xlink:href="#DejaVuSans-72" transform="translate(677.005859 0)"/>
     <use xlink:href="#DejaVuSans-61" transform="translate(718.119141 0)"/>
     <use xlink:href="#DejaVuSans-64" transform="translate(779.398438 0)"/>
     <use xlink:href="#DejaVuSans-69" transform="translate(842.875 0)"/>
     <use xlink:href="#DejaVuSans-6e" transform="translate(870.658203 0)"/>
     <use xlink:href="#DejaVuSans-67" transform="translate(934.037109 0)"/>
     <use xlink:href="#DejaVuSans-20" transform="translate(997.513672 0)"/>
     <use xlink:href="#DejaVuSans-56" transform="translate(1029.300781 0)"/>
     <use xlink:href="#DejaVuSans-6f" transform="translate(1089.958984 0)"/>
     <use xlink:href="#DejaVuSans-6c" transform="translate(1151.140625 0)"/>
     <use xlink:href="#DejaVuSans-75" transform="translate(1178.923828 0)"/>
     <use xlink:href="#DejaVuSans-6d" transform="translate(1242.302734 0)"/>
     <use xlink:href="#DejaVuSans-65" transform="translate(1339.714844 0)"/>
    </g>
   </g>
   <g id="legend_2">
    <g id="patch_13">
     <path d="M 54.72 260.158125 
L 183.802813 260.158125 
Q 185.802813 260.158125 185.802813 258.158125 
L 185.802813 244.48 
Q 185.802813 242.48 183.802813 242.48 
L 54.72 242.48 
Q 52.72 242.48 52.72 244.48 
L 52.72 258.158125 
Q 52.72 260.158125 54.72 260.158125 
z
" style="fill: #ffffff; opacity: 0.8; stroke: #cccccc; stroke-linejoin: miter"/>
    </g>
    <g id="line2d_28">
     <path d="M 56.72 250.578437 
L 66.72 250.578437 
L 76.72 250.578437 
" style="fill: none; stroke: #008000; stroke-width: 1.5; stroke-linecap: square"/>
    </g>
    <g id="text_32">
     <!-- Normalized Volume -->
     <g transform="translate(84.72 254.078437) scale(0.1 -0.1)">
      <use xlink:href="#DejaVuSans-4e"/>
      <use xlink:href="#DejaVuSans-6f" transform="translate(74.804688 0)"/>
      <use xlink:href="#DejaVuSans-72" transform="translate(135.986328 0)"/>
      <use xlink:href="#DejaVuSans-6d" transform="translate(175.349609 0)"/>
      <use xlink:href="#DejaVuSans-61" transform="translate(272.761719 0)"/>
      <use xlink:href="#DejaVuSans-6c" transform="translate(334.041016 0)"/>
      <use xlink:href="#DejaVuSans-69" transform="translate(361.824219 0)"/>
      <use xlink:href="#DejaVuSans-7a" transform="translate(389.607422 0)"/>
      <use xlink:href="#DejaVuSans-65" transform="translate(442.097656 0)"/>
      <use xlink:href="#DejaVuSans-64" transform="translate(503.621094 0)"/>
      <use xlink:href="#DejaVuSans-20" transform="translate(567.097656 0)"/>
      <use xlink:href="#DejaVuSans-56" transform="translate(598.884766 0)"/>
      <use xlink:href="#DejaVuSans-6f" transform="translate(659.542969 0)"/>
      <use xlink:href="#DejaVuSans-6c" transform="translate(720.724609 0)"/>
      <use xlink:href="#DejaVuSans-75" transform="translate(748.507812 0)"/>
      <use xlink:href="#DejaVuSans-6d" transform="translate(811.886719 0)"/>
      <use xlink:href="#DejaVuSans-65" transform="translate(909.298828 0)"/>
     </g>
    </g>
   </g>
  </g>
 </g>
 <defs>
  <clipPath id="pdf1eae315d">
   <rect x="47.72" y="26.88" width="517.48" height="152.56"/>
  </clipPath>
  <clipPath id="p88da2b672a">
   <rect x="47.72" y="237.48" width="517.48" height="152.56"/>
  </clipPath>
 </defs>
</svg>
