<?xml version="1.0" encoding="utf-8" standalone="no"?>
<!DOCTYPE svg PUBLIC "-//W3C//DTD SVG 1.1//EN"
  "http://www.w3.org/Graphics/SVG/1.1/DTD/svg11.dtd">
<svg xmlns:xlink="http://www.w3.org/1999/xlink" width="460.8pt" height="345.6pt" viewBox="0 0 460.8 345.6" xmlns="http://www.w3.org/2000/svg" version="1.1">
 <metadata>
  <rdf:RDF xmlns:dc="http://purl.org/dc/elements/1.1/" xmlns:cc="http://creativecommons.org/ns#" xmlns:rdf="http://www.w3.org/1999/02/22-rdf-syntax-ns#">
   <cc:Work>
    <dc:type rdf:resource="http://purl.org/dc/dcmitype/StillImage"/>
    <dc:date>2025-05-01T22:47:42.345367</dc:date>
    <dc:format>image/svg+xml</dc:format>
    <dc:creator>
     <cc:Agent>
      <dc:title>Matplotlib v3.10.1, https://matplotlib.org/</dc:title>
     </cc:Agent>
    </dc:creator>
   </cc:Work>
  </rdf:RDF>
 </metadata>
 <defs>
  <style type="text/css">*{stroke-linejoin: round; stroke-linecap: butt}</style>
 </defs>
 <g id="figure_1">
  <g id="patch_1">
   <path d="M 0 345.6 
L 460.8 345.6 
L 460.8 0 
L 0 0 
z
" style="fill: #ffffff"/>
  </g>
  <g id="axes_1">
   <g id="patch_2">
    <path d="M 33.64 150.32 
L 450 150.32 
L 450 26.88 
L 33.64 26.88 
z
" style="fill: #ffffff"/>
   </g>
   <g id="PathCollection_1">
    <defs>
     <path id="mc5ed8f91d1" d="M 0 3 
C 0.795609 3 1.55874 2.683901 2.12132 2.12132 
C 2.683901 1.55874 3 0.795609 3 0 
C 3 -0.795609 2.683901 -1.55874 2.12132 -2.12132 
C 1.55874 -2.683901 0.795609 -3 0 -3 
C -0.795609 -3 -1.55874 -2.683901 -2.12132 -2.12132 
C -2.683901 -1.55874 -3 -0.795609 -3 0 
C -3 0.795609 -2.683901 1.55874 -2.12132 2.12132 
C -1.55874 2.683901 -0.795609 3 0 3 
z
" style="stroke: #ff0000"/>
    </defs>
    <g clip-path="url(#p53ab00de2e)">
     <use xlink:href="#mc5ed8f91d1" x="348.06305" y="146.168175" style="fill: #ff0000; stroke: #ff0000"/>
     <use xlink:href="#mc5ed8f91d1" x="389.860407" y="142.924347" style="fill: #ff0000; stroke: #ff0000"/>
     <use xlink:href="#mc5ed8f91d1" x="391.415658" y="140.308705" style="fill: #ff0000; stroke: #ff0000"/>
     <use xlink:href="#mc5ed8f91d1" x="391.610064" y="141.181961" style="fill: #ff0000; stroke: #ff0000"/>
     <use xlink:href="#mc5ed8f91d1" x="391.80447" y="144.296001" style="fill: #ff0000; stroke: #ff0000"/>
     <use xlink:href="#mc5ed8f91d1" x="391.998877" y="145.605559" style="fill: #ff0000; stroke: #ff0000"/>
     <use xlink:href="#mc5ed8f91d1" x="392.582096" y="145.857436" style="fill: #ff0000; stroke: #ff0000"/>
     <use xlink:href="#mc5ed8f91d1" x="392.776502" y="146.185354" style="fill: #ff0000; stroke: #ff0000"/>
     <use xlink:href="#mc5ed8f91d1" x="393.359721" y="144.207918" style="fill: #ff0000; stroke: #ff0000"/>
     <use xlink:href="#mc5ed8f91d1" x="393.94294" y="143.137445" style="fill: #ff0000; stroke: #ff0000"/>
     <use xlink:href="#mc5ed8f91d1" x="394.137346" y="144.610271" style="fill: #ff0000; stroke: #ff0000"/>
     <use xlink:href="#mc5ed8f91d1" x="394.331752" y="144.982864" style="fill: #ff0000; stroke: #ff0000"/>
     <use xlink:href="#mc5ed8f91d1" x="394.720565" y="145.35639" style="fill: #ff0000; stroke: #ff0000"/>
     <use xlink:href="#mc5ed8f91d1" x="395.303784" y="145.772897" style="fill: #ff0000; stroke: #ff0000"/>
     <use xlink:href="#mc5ed8f91d1" x="395.49819" y="145.251357" style="fill: #ff0000; stroke: #ff0000"/>
     <use xlink:href="#mc5ed8f91d1" x="395.692597" y="145.932606" style="fill: #ff0000; stroke: #ff0000"/>
     <use xlink:href="#mc5ed8f91d1" x="395.887003" y="145.179975" style="fill: #ff0000; stroke: #ff0000"/>
     <use xlink:href="#mc5ed8f91d1" x="396.081409" y="145.410649" style="fill: #ff0000; stroke: #ff0000"/>
     <use xlink:href="#mc5ed8f91d1" x="396.859034" y="144.858327" style="fill: #ff0000; stroke: #ff0000"/>
     <use xlink:href="#mc5ed8f91d1" x="397.053441" y="144.42822" style="fill: #ff0000; stroke: #ff0000"/>
     <use xlink:href="#mc5ed8f91d1" x="397.247847" y="144.922315" style="fill: #ff0000; stroke: #ff0000"/>
     <use xlink:href="#mc5ed8f91d1" x="397.442253" y="143.352444" style="fill: #ff0000; stroke: #ff0000"/>
     <use xlink:href="#mc5ed8f91d1" x="398.025472" y="142.303959" style="fill: #ff0000; stroke: #ff0000"/>
     <use xlink:href="#mc5ed8f91d1" x="398.219879" y="142.966195" style="fill: #ff0000; stroke: #ff0000"/>
     <use xlink:href="#mc5ed8f91d1" x="398.414285" y="144.780988" style="fill: #ff0000; stroke: #ff0000"/>
     <use xlink:href="#mc5ed8f91d1" x="398.608691" y="145.434362" style="fill: #ff0000; stroke: #ff0000"/>
     <use xlink:href="#mc5ed8f91d1" x="398.803098" y="145.537524" style="fill: #ff0000; stroke: #ff0000"/>
     <use xlink:href="#mc5ed8f91d1" x="399.386316" y="145.883702" style="fill: #ff0000; stroke: #ff0000"/>
     <use xlink:href="#mc5ed8f91d1" x="399.775129" y="145.974325" style="fill: #ff0000; stroke: #ff0000"/>
     <use xlink:href="#mc5ed8f91d1" x="400.163942" y="145.864598" style="fill: #ff0000; stroke: #ff0000"/>
     <use xlink:href="#mc5ed8f91d1" x="401.524786" y="146.136531" style="fill: #ff0000; stroke: #ff0000"/>
     <use xlink:href="#mc5ed8f91d1" x="402.108005" y="145.7967" style="fill: #ff0000; stroke: #ff0000"/>
     <use xlink:href="#mc5ed8f91d1" x="402.496817" y="146.087073" style="fill: #ff0000; stroke: #ff0000"/>
     <use xlink:href="#mc5ed8f91d1" x="402.88563" y="145.718981" style="fill: #ff0000; stroke: #ff0000"/>
     <use xlink:href="#mc5ed8f91d1" x="403.663255" y="145.154524" style="fill: #ff0000; stroke: #ff0000"/>
     <use xlink:href="#mc5ed8f91d1" x="403.857662" y="145.69135" style="fill: #ff0000; stroke: #ff0000"/>
     <use xlink:href="#mc5ed8f91d1" x="404.052068" y="146.023445" style="fill: #ff0000; stroke: #ff0000"/>
     <use xlink:href="#mc5ed8f91d1" x="404.246474" y="144.906647" style="fill: #ff0000; stroke: #ff0000"/>
     <use xlink:href="#mc5ed8f91d1" x="405.607318" y="145.803985" style="fill: #ff0000; stroke: #ff0000"/>
     <use xlink:href="#mc5ed8f91d1" x="406.190537" y="145.980042" style="fill: #ff0000; stroke: #ff0000"/>
     <use xlink:href="#mc5ed8f91d1" x="414.938821" y="145.749617" style="fill: #ff0000; stroke: #ff0000"/>
     <use xlink:href="#mc5ed8f91d1" x="415.133228" y="144.964815" style="fill: #ff0000; stroke: #ff0000"/>
     <use xlink:href="#mc5ed8f91d1" x="415.716447" y="145.271613" style="fill: #ff0000; stroke: #ff0000"/>
     <use xlink:href="#mc5ed8f91d1" x="415.910853" y="145.634457" style="fill: #ff0000; stroke: #ff0000"/>
     <use xlink:href="#mc5ed8f91d1" x="416.105259" y="145.687075" style="fill: #ff0000; stroke: #ff0000"/>
     <use xlink:href="#mc5ed8f91d1" x="416.299666" y="145.731819" style="fill: #ff0000; stroke: #ff0000"/>
     <use xlink:href="#mc5ed8f91d1" x="416.494072" y="145.732646" style="fill: #ff0000; stroke: #ff0000"/>
     <use xlink:href="#mc5ed8f91d1" x="417.077291" y="145.299104" style="fill: #ff0000; stroke: #ff0000"/>
     <use xlink:href="#mc5ed8f91d1" x="417.271697" y="145.555221" style="fill: #ff0000; stroke: #ff0000"/>
     <use xlink:href="#mc5ed8f91d1" x="417.466104" y="145.161955" style="fill: #ff0000; stroke: #ff0000"/>
     <use xlink:href="#mc5ed8f91d1" x="417.66051" y="145.362552" style="fill: #ff0000; stroke: #ff0000"/>
     <use xlink:href="#mc5ed8f91d1" x="417.854916" y="143.999184" style="fill: #ff0000; stroke: #ff0000"/>
     <use xlink:href="#mc5ed8f91d1" x="418.438135" y="144.477082" style="fill: #ff0000; stroke: #ff0000"/>
     <use xlink:href="#mc5ed8f91d1" x="418.632541" y="144.88506" style="fill: #ff0000; stroke: #ff0000"/>
     <use xlink:href="#mc5ed8f91d1" x="418.826948" y="144.371598" style="fill: #ff0000; stroke: #ff0000"/>
     <use xlink:href="#mc5ed8f91d1" x="419.021354" y="144.343758" style="fill: #ff0000; stroke: #ff0000"/>
     <use xlink:href="#mc5ed8f91d1" x="419.21576" y="144.317417" style="fill: #ff0000; stroke: #ff0000"/>
     <use xlink:href="#mc5ed8f91d1" x="419.798979" y="145.327567" style="fill: #ff0000; stroke: #ff0000"/>
     <use xlink:href="#mc5ed8f91d1" x="419.993386" y="145.805023" style="fill: #ff0000; stroke: #ff0000"/>
     <use xlink:href="#mc5ed8f91d1" x="420.187792" y="145.99205" style="fill: #ff0000; stroke: #ff0000"/>
     <use xlink:href="#mc5ed8f91d1" x="420.382198" y="144.775388" style="fill: #ff0000; stroke: #ff0000"/>
     <use xlink:href="#mc5ed8f91d1" x="420.576605" y="145.549161" style="fill: #ff0000; stroke: #ff0000"/>
     <use xlink:href="#mc5ed8f91d1" x="421.159824" y="145.991188" style="fill: #ff0000; stroke: #ff0000"/>
     <use xlink:href="#mc5ed8f91d1" x="421.743042" y="145.996057" style="fill: #ff0000; stroke: #ff0000"/>
     <use xlink:href="#mc5ed8f91d1" x="426.6032" y="144.413354" style="fill: #ff0000; stroke: #ff0000"/>
     <use xlink:href="#mc5ed8f91d1" x="426.797607" y="145.625888" style="fill: #ff0000; stroke: #ff0000"/>
     <use xlink:href="#mc5ed8f91d1" x="426.992013" y="145.404168" style="fill: #ff0000; stroke: #ff0000"/>
     <use xlink:href="#mc5ed8f91d1" x="427.186419" y="146.145022" style="fill: #ff0000; stroke: #ff0000"/>
     <use xlink:href="#mc5ed8f91d1" x="427.380826" y="146.115314" style="fill: #ff0000; stroke: #ff0000"/>
    </g>
   </g>
   <g id="matplotlib.axis_1">
    <g id="xtick_1">
     <g id="line2d_1">
      <defs>
       <path id="m1f0e4efe26" d="M 0 0 
L 0 3.5 
" style="stroke: #000000; stroke-width: 0.8"/>
      </defs>
      <g>
       <use xlink:href="#m1f0e4efe26" x="52.759861" y="150.32" style="stroke: #000000; stroke-width: 0.8"/>
      </g>
     </g>
     <g id="text_1">
      <!-- 2020 -->
      <g transform="translate(40.034861 164.918437) scale(0.1 -0.1)">
       <defs>
        <path id="DejaVuSans-32" d="M 1228 531 
L 3431 531 
L 3431 0 
L 469 0 
L 469 531 
Q 828 903 1448 1529 
Q 2069 2156 2228 2338 
Q 2531 2678 2651 2914 
Q 2772 3150 2772 3378 
Q 2772 3750 2511 3984 
Q 2250 4219 1831 4219 
Q 1534 4219 1204 4116 
Q 875 4013 500 3803 
L 500 4441 
Q 881 4594 1212 4672 
Q 1544 4750 1819 4750 
Q 2544 4750 2975 4387 
Q 3406 4025 3406 3419 
Q 3406 3131 3298 2873 
Q 3191 2616 2906 2266 
Q 2828 2175 2409 1742 
Q 1991 1309 1228 531 
z
" transform="scale(0.015625)"/>
        <path id="DejaVuSans-30" d="M 2034 4250 
Q 1547 4250 1301 3770 
Q 1056 3291 1056 2328 
Q 1056 1369 1301 889 
Q 1547 409 2034 409 
Q 2525 409 2770 889 
Q 3016 1369 3016 2328 
Q 3016 3291 2770 3770 
Q 2525 4250 2034 4250 
z
M 2034 4750 
Q 2819 4750 3233 4129 
Q 3647 3509 3647 2328 
Q 3647 1150 3233 529 
Q 2819 -91 2034 -91 
Q 1250 -91 836 529 
Q 422 1150 422 2328 
Q 422 3509 836 4129 
Q 1250 4750 2034 4750 
z
" transform="scale(0.015625)"/>
       </defs>
       <use xlink:href="#DejaVuSans-32"/>
       <use xlink:href="#DejaVuSans-30" transform="translate(63.623047 0)"/>
       <use xlink:href="#DejaVuSans-32" transform="translate(127.246094 0)"/>
       <use xlink:href="#DejaVuSans-30" transform="translate(190.869141 0)"/>
      </g>
     </g>
    </g>
    <g id="xtick_2">
     <g id="line2d_2">
      <g>
       <use xlink:href="#m1f0e4efe26" x="123.912571" y="150.32" style="stroke: #000000; stroke-width: 0.8"/>
      </g>
     </g>
     <g id="text_2">
      <!-- 2021 -->
      <g transform="translate(111.187571 164.918437) scale(0.1 -0.1)">
       <defs>
        <path id="DejaVuSans-31" d="M 794 531 
L 1825 531 
L 1825 4091 
L 703 3866 
L 703 4441 
L 1819 4666 
L 2450 4666 
L 2450 531 
L 3481 531 
L 3481 0 
L 794 0 
L 794 531 
z
" transform="scale(0.015625)"/>
       </defs>
       <use xlink:href="#DejaVuSans-32"/>
       <use xlink:href="#DejaVuSans-30" transform="translate(63.623047 0)"/>
       <use xlink:href="#DejaVuSans-32" transform="translate(127.246094 0)"/>
       <use xlink:href="#DejaVuSans-31" transform="translate(190.869141 0)"/>
      </g>
     </g>
    </g>
    <g id="xtick_3">
     <g id="line2d_3">
      <g>
       <use xlink:href="#m1f0e4efe26" x="194.870875" y="150.32" style="stroke: #000000; stroke-width: 0.8"/>
      </g>
     </g>
     <g id="text_3">
      <!-- 2022 -->
      <g transform="translate(182.145875 164.918437) scale(0.1 -0.1)">
       <use xlink:href="#DejaVuSans-32"/>
       <use xlink:href="#DejaVuSans-30" transform="translate(63.623047 0)"/>
       <use xlink:href="#DejaVuSans-32" transform="translate(127.246094 0)"/>
       <use xlink:href="#DejaVuSans-32" transform="translate(190.869141 0)"/>
      </g>
     </g>
    </g>
    <g id="xtick_4">
     <g id="line2d_4">
      <g>
       <use xlink:href="#m1f0e4efe26" x="265.82918" y="150.32" style="stroke: #000000; stroke-width: 0.8"/>
      </g>
     </g>
     <g id="text_4">
      <!-- 2023 -->
      <g transform="translate(253.10418 164.918437) scale(0.1 -0.1)">
       <defs>
        <path id="DejaVuSans-33" d="M 2597 2516 
Q 3050 2419 3304 2112 
Q 3559 1806 3559 1356 
Q 3559 666 3084 287 
Q 2609 -91 1734 -91 
Q 1441 -91 1130 -33 
Q 819 25 488 141 
L 488 750 
Q 750 597 1062 519 
Q 1375 441 1716 441 
Q 2309 441 2620 675 
Q 2931 909 2931 1356 
Q 2931 1769 2642 2001 
Q 2353 2234 1838 2234 
L 1294 2234 
L 1294 2753 
L 1863 2753 
Q 2328 2753 2575 2939 
Q 2822 3125 2822 3475 
Q 2822 3834 2567 4026 
Q 2313 4219 1838 4219 
Q 1578 4219 1281 4162 
Q 984 4106 628 3988 
L 628 4550 
Q 988 4650 1302 4700 
Q 1616 4750 1894 4750 
Q 2613 4750 3031 4423 
Q 3450 4097 3450 3541 
Q 3450 3153 3228 2886 
Q 3006 2619 2597 2516 
z
" transform="scale(0.015625)"/>
       </defs>
       <use xlink:href="#DejaVuSans-32"/>
       <use xlink:href="#DejaVuSans-30" transform="translate(63.623047 0)"/>
       <use xlink:href="#DejaVuSans-32" transform="translate(127.246094 0)"/>
       <use xlink:href="#DejaVuSans-33" transform="translate(190.869141 0)"/>
      </g>
     </g>
    </g>
    <g id="xtick_5">
     <g id="line2d_5">
      <g>
       <use xlink:href="#m1f0e4efe26" x="336.787484" y="150.32" style="stroke: #000000; stroke-width: 0.8"/>
      </g>
     </g>
     <g id="text_5">
      <!-- 2024 -->
      <g transform="translate(324.062484 164.918437) scale(0.1 -0.1)">
       <defs>
        <path id="DejaVuSans-34" d="M 2419 4116 
L 825 1625 
L 2419 1625 
L 2419 4116 
z
M 2253 4666 
L 3047 4666 
L 3047 1625 
L 3713 1625 
L 3713 1100 
L 3047 1100 
L 3047 0 
L 2419 0 
L 2419 1100 
L 313 1100 
L 313 1709 
L 2253 4666 
z
" transform="scale(0.015625)"/>
       </defs>
       <use xlink:href="#DejaVuSans-32"/>
       <use xlink:href="#DejaVuSans-30" transform="translate(63.623047 0)"/>
       <use xlink:href="#DejaVuSans-32" transform="translate(127.246094 0)"/>
       <use xlink:href="#DejaVuSans-34" transform="translate(190.869141 0)"/>
      </g>
     </g>
    </g>
    <g id="xtick_6">
     <g id="line2d_6">
      <g>
       <use xlink:href="#m1f0e4efe26" x="407.940194" y="150.32" style="stroke: #000000; stroke-width: 0.8"/>
      </g>
     </g>
     <g id="text_6">
      <!-- 2025 -->
      <g transform="translate(395.215194 164.918437) scale(0.1 -0.1)">
       <defs>
        <path id="DejaVuSans-35" d="M 691 4666 
L 3169 4666 
L 3169 4134 
L 1269 4134 
L 1269 2991 
Q 1406 3038 1543 3061 
Q 1681 3084 1819 3084 
Q 2600 3084 3056 2656 
Q 3513 2228 3513 1497 
Q 3513 744 3044 326 
Q 2575 -91 1722 -91 
Q 1428 -91 1123 -41 
Q 819 9 494 109 
L 494 744 
Q 775 591 1075 516 
Q 1375 441 1709 441 
Q 2250 441 2565 725 
Q 2881 1009 2881 1497 
Q 2881 1984 2565 2268 
Q 2250 2553 1709 2553 
Q 1456 2553 1204 2497 
Q 953 2441 691 2322 
L 691 4666 
z
" transform="scale(0.015625)"/>
       </defs>
       <use xlink:href="#DejaVuSans-32"/>
       <use xlink:href="#DejaVuSans-30" transform="translate(63.623047 0)"/>
       <use xlink:href="#DejaVuSans-32" transform="translate(127.246094 0)"/>
       <use xlink:href="#DejaVuSans-35" transform="translate(190.869141 0)"/>
      </g>
     </g>
    </g>
   </g>
   <g id="matplotlib.axis_2">
    <g id="ytick_1">
     <g id="line2d_7">
      <defs>
       <path id="m4446947b65" d="M 0 0 
L -3.5 0 
" style="stroke: #000000; stroke-width: 0.8"/>
      </defs>
      <g>
       <use xlink:href="#m4446947b65" x="33.64" y="150.32" style="stroke: #000000; stroke-width: 0.8"/>
      </g>
     </g>
     <g id="text_7">
      <!-- 0.0 -->
      <g transform="translate(10.736875 154.119219) scale(0.1 -0.1)">
       <defs>
        <path id="DejaVuSans-2e" d="M 684 794 
L 1344 794 
L 1344 0 
L 684 0 
L 684 794 
z
" transform="scale(0.015625)"/>
       </defs>
       <use xlink:href="#DejaVuSans-30"/>
       <use xlink:href="#DejaVuSans-2e" transform="translate(63.623047 0)"/>
       <use xlink:href="#DejaVuSans-30" transform="translate(95.410156 0)"/>
      </g>
     </g>
    </g>
    <g id="ytick_2">
     <g id="line2d_8">
      <g>
       <use xlink:href="#m4446947b65" x="33.64" y="125.632" style="stroke: #000000; stroke-width: 0.8"/>
      </g>
     </g>
     <g id="text_8">
      <!-- 0.2 -->
      <g transform="translate(10.736875 129.431219) scale(0.1 -0.1)">
       <use xlink:href="#DejaVuSans-30"/>
       <use xlink:href="#DejaVuSans-2e" transform="translate(63.623047 0)"/>
       <use xlink:href="#DejaVuSans-32" transform="translate(95.410156 0)"/>
      </g>
     </g>
    </g>
    <g id="ytick_3">
     <g id="line2d_9">
      <g>
       <use xlink:href="#m4446947b65" x="33.64" y="100.944" style="stroke: #000000; stroke-width: 0.8"/>
      </g>
     </g>
     <g id="text_9">
      <!-- 0.4 -->
      <g transform="translate(10.736875 104.743219) scale(0.1 -0.1)">
       <use xlink:href="#DejaVuSans-30"/>
       <use xlink:href="#DejaVuSans-2e" transform="translate(63.623047 0)"/>
       <use xlink:href="#DejaVuSans-34" transform="translate(95.410156 0)"/>
      </g>
     </g>
    </g>
    <g id="ytick_4">
     <g id="line2d_10">
      <g>
       <use xlink:href="#m4446947b65" x="33.64" y="76.256" style="stroke: #000000; stroke-width: 0.8"/>
      </g>
     </g>
     <g id="text_10">
      <!-- 0.6 -->
      <g transform="translate(10.736875 80.055219) scale(0.1 -0.1)">
       <defs>
        <path id="DejaVuSans-36" d="M 2113 2584 
Q 1688 2584 1439 2293 
Q 1191 2003 1191 1497 
Q 1191 994 1439 701 
Q 1688 409 2113 409 
Q 2538 409 2786 701 
Q 3034 994 3034 1497 
Q 3034 2003 2786 2293 
Q 2538 2584 2113 2584 
z
M 3366 4563 
L 3366 3988 
Q 3128 4100 2886 4159 
Q 2644 4219 2406 4219 
Q 1781 4219 1451 3797 
Q 1122 3375 1075 2522 
Q 1259 2794 1537 2939 
Q 1816 3084 2150 3084 
Q 2853 3084 3261 2657 
Q 3669 2231 3669 1497 
Q 3669 778 3244 343 
Q 2819 -91 2113 -91 
Q 1303 -91 875 529 
Q 447 1150 447 2328 
Q 447 3434 972 4092 
Q 1497 4750 2381 4750 
Q 2619 4750 2861 4703 
Q 3103 4656 3366 4563 
z
" transform="scale(0.015625)"/>
       </defs>
       <use xlink:href="#DejaVuSans-30"/>
       <use xlink:href="#DejaVuSans-2e" transform="translate(63.623047 0)"/>
       <use xlink:href="#DejaVuSans-36" transform="translate(95.410156 0)"/>
      </g>
     </g>
    </g>
    <g id="ytick_5">
     <g id="line2d_11">
      <g>
       <use xlink:href="#m4446947b65" x="33.64" y="51.568" style="stroke: #000000; stroke-width: 0.8"/>
      </g>
     </g>
     <g id="text_11">
      <!-- 0.8 -->
      <g transform="translate(10.736875 55.367219) scale(0.1 -0.1)">
       <defs>
        <path id="DejaVuSans-38" d="M 2034 2216 
Q 1584 2216 1326 1975 
Q 1069 1734 1069 1313 
Q 1069 891 1326 650 
Q 1584 409 2034 409 
Q 2484 409 2743 651 
Q 3003 894 3003 1313 
Q 3003 1734 2745 1975 
Q 2488 2216 2034 2216 
z
M 1403 2484 
Q 997 2584 770 2862 
Q 544 3141 544 3541 
Q 544 4100 942 4425 
Q 1341 4750 2034 4750 
Q 2731 4750 3128 4425 
Q 3525 4100 3525 3541 
Q 3525 3141 3298 2862 
Q 3072 2584 2669 2484 
Q 3125 2378 3379 2068 
Q 3634 1759 3634 1313 
Q 3634 634 3220 271 
Q 2806 -91 2034 -91 
Q 1263 -91 848 271 
Q 434 634 434 1313 
Q 434 1759 690 2068 
Q 947 2378 1403 2484 
z
M 1172 3481 
Q 1172 3119 1398 2916 
Q 1625 2713 2034 2713 
Q 2441 2713 2670 2916 
Q 2900 3119 2900 3481 
Q 2900 3844 2670 4047 
Q 2441 4250 2034 4250 
Q 1625 4250 1398 4047 
Q 1172 3844 1172 3481 
z
" transform="scale(0.015625)"/>
       </defs>
       <use xlink:href="#DejaVuSans-30"/>
       <use xlink:href="#DejaVuSans-2e" transform="translate(63.623047 0)"/>
       <use xlink:href="#DejaVuSans-38" transform="translate(95.410156 0)"/>
      </g>
     </g>
    </g>
    <g id="ytick_6">
     <g id="line2d_12">
      <g>
       <use xlink:href="#m4446947b65" x="33.64" y="26.88" style="stroke: #000000; stroke-width: 0.8"/>
      </g>
     </g>
     <g id="text_12">
      <!-- 1.0 -->
      <g transform="translate(10.736875 30.679219) scale(0.1 -0.1)">
       <use xlink:href="#DejaVuSans-31"/>
       <use xlink:href="#DejaVuSans-2e" transform="translate(63.623047 0)"/>
       <use xlink:href="#DejaVuSans-30" transform="translate(95.410156 0)"/>
      </g>
     </g>
    </g>
    <g id="text_13">
     <!-- 1e9 -->
     <g transform="translate(33.64 23.88) scale(0.1 -0.1)">
      <defs>
       <path id="DejaVuSans-65" d="M 3597 1894 
L 3597 1613 
L 953 1613 
Q 991 1019 1311 708 
Q 1631 397 2203 397 
Q 2534 397 2845 478 
Q 3156 559 3463 722 
L 3463 178 
Q 3153 47 2828 -22 
Q 2503 -91 2169 -91 
Q 1331 -91 842 396 
Q 353 884 353 1716 
Q 353 2575 817 3079 
Q 1281 3584 2069 3584 
Q 2775 3584 3186 3129 
Q 3597 2675 3597 1894 
z
M 3022 2063 
Q 3016 2534 2758 2815 
Q 2500 3097 2075 3097 
Q 1594 3097 1305 2825 
Q 1016 2553 972 2059 
L 3022 2063 
z
" transform="scale(0.015625)"/>
       <path id="DejaVuSans-39" d="M 703 97 
L 703 672 
Q 941 559 1184 500 
Q 1428 441 1663 441 
Q 2288 441 2617 861 
Q 2947 1281 2994 2138 
Q 2813 1869 2534 1725 
Q 2256 1581 1919 1581 
Q 1219 1581 811 2004 
Q 403 2428 403 3163 
Q 403 3881 828 4315 
Q 1253 4750 1959 4750 
Q 2769 4750 3195 4129 
Q 3622 3509 3622 2328 
Q 3622 1225 3098 567 
Q 2575 -91 1691 -91 
Q 1453 -91 1209 -44 
Q 966 3 703 97 
z
M 1959 2075 
Q 2384 2075 2632 2365 
Q 2881 2656 2881 3163 
Q 2881 3666 2632 3958 
Q 2384 4250 1959 4250 
Q 1534 4250 1286 3958 
Q 1038 3666 1038 3163 
Q 1038 2656 1286 2365 
Q 1534 2075 1959 2075 
z
" transform="scale(0.015625)"/>
      </defs>
      <use xlink:href="#DejaVuSans-31"/>
      <use xlink:href="#DejaVuSans-65" transform="translate(63.623047 0)"/>
      <use xlink:href="#DejaVuSans-39" transform="translate(125.146484 0)"/>
     </g>
    </g>
   </g>
   <g id="line2d_13">
    <path d="M 52.565455 150.13284 
L 53.731892 149.991278 
L 55.675956 149.939152 
L 55.870362 149.594963 
L 57.0368 149.773663 
L 60.536113 149.587642 
L 60.924926 149.731944 
L 61.119332 149.561578 
L 61.313739 149.664513 
L 63.452208 149.750744 
L 64.035427 149.686496 
L 64.813052 149.687624 
L 65.007459 149.848518 
L 65.201865 149.787651 
L 65.396271 149.917436 
L 66.368303 149.795564 
L 66.562709 149.973704 
L 66.757115 149.902364 
L 73.36693 150.099732 
L 74.144555 149.701045 
L 74.338962 149.845705 
L 75.505399 149.931748 
L 75.699806 149.751036 
L 75.894212 149.937285 
L 76.088618 149.815475 
L 77.449463 149.650635 
L 77.643869 149.744843 
L 78.6159 149.817723 
L 78.810307 149.742511 
L 79.004713 149.78729 
L 80.171151 149.709088 
L 80.365557 149.796501 
L 80.948776 149.901454 
L 81.337589 149.755688 
L 81.726401 149.764694 
L 82.892839 149.641114 
L 83.087246 149.734884 
L 83.864871 149.791742 
L 84.059277 149.61508 
L 85.031309 149.742388 
L 85.420121 149.64605 
L 85.808934 149.736747 
L 86.392153 149.442047 
L 86.586559 149.603939 
L 86.780966 149.532893 
L 87.947403 149.636925 
L 88.14181 149.544968 
L 88.530622 149.57629 
L 89.308248 149.046096 
L 89.502654 149.343201 
L 89.69706 149.125003 
L 89.891467 149.354935 
L 90.474686 149.320423 
L 90.863498 149.084519 
L 91.057904 148.614069 
L 91.252311 149.213354 
L 91.83553 149.202454 
L 92.029936 149.382083 
L 92.224342 149.09661 
L 92.418749 149.215489 
L 92.613155 149.054198 
L 93.39078 149.647905 
L 93.585187 149.415556 
L 93.779593 149.406189 
L 93.973999 149.264054 
L 94.557218 149.126904 
L 94.946031 149.435275 
L 96.501281 149.709593 
L 96.695688 149.787597 
L 97.473313 149.339054 
L 97.667719 149.33044 
L 98.056532 149.676248 
L 99.417376 149.622206 
L 100.000595 149.644081 
L 100.195001 149.77293 
L 100.583814 149.665168 
L 100.77822 149.713933 
L 101.361439 149.553733 
L 101.555845 149.770872 
L 101.750252 149.54823 
L 102.139064 149.821771 
L 103.111096 149.809738 
L 103.305502 149.282332 
L 103.499908 149.532921 
L 104.277534 149.632246 
L 104.47194 149.553572 
L 104.860753 149.847949 
L 105.638378 149.789996 
L 105.832784 149.828084 
L 107.582441 149.71255 
L 108.16566 149.505522 
L 108.554473 149.743113 
L 111.081755 149.931439 
L 111.664974 149.564087 
L 113.025818 149.770267 
L 113.609037 149.357544 
L 113.803443 149.602649 
L 113.997849 149.626829 
L 114.192256 149.79901 
L 114.969881 149.73776 
L 115.747506 149.73947 
L 116.719538 149.745686 
L 117.10835 149.860411 
L 117.885976 149.859354 
L 118.080382 149.611641 
L 118.469195 149.804194 
L 119.635632 149.697443 
L 119.830039 149.497221 
L 120.607664 149.738168 
L 120.80207 149.633598 
L 121.190883 149.744372 
L 122.357321 149.608445 
L 122.551727 149.705061 
L 125.856634 149.608687 
L 126.051041 149.763119 
L 126.439853 149.388893 
L 126.63426 149.572585 
L 127.411885 149.612501 
L 127.606291 149.712622 
L 128.578323 149.574936 
L 128.967135 149.761074 
L 129.355948 149.712626 
L 131.688824 149.8161 
L 135.57695 149.672553 
L 135.771356 149.765543 
L 135.965763 149.672706 
L 136.160169 149.846381 
L 136.937794 149.697834 
L 137.132201 149.861898 
L 137.521013 149.86127 
L 139.465076 149.879315 
L 139.659483 149.785791 
L 140.242702 149.883734 
L 141.409139 149.794717 
L 141.603546 149.65074 
L 142.575577 149.80951 
L 142.769984 149.731845 
L 142.96439 149.80875 
L 143.742015 149.844815 
L 144.130828 149.884826 
L 144.325234 149.745681 
L 145.102859 149.456854 
L 145.297266 149.678774 
L 145.686078 149.732184 
L 146.269297 149.550825 
L 146.463704 149.696337 
L 146.852516 149.639394 
L 147.046923 149.571764 
L 149.185392 149.780897 
L 150.35183 149.585919 
L 150.546236 149.650623 
L 150.740642 149.373395 
L 151.129455 149.5471 
L 151.90708 149.549307 
L 152.101487 149.56079 
L 152.295893 149.292607 
L 152.490299 147.658004 
L 153.267925 148.356689 
L 153.462331 148.542974 
L 153.851143 149.085573 
L 154.434362 149.033733 
L 154.823175 149.299865 
L 155.211988 149.001257 
L 155.989613 149.076828 
L 156.184019 149.265898 
L 156.378426 148.849996 
L 156.572832 149.078061 
L 157.156051 149.058504 
L 157.350457 147.887252 
L 157.933676 148.980126 
L 159.100114 149.034771 
L 159.29452 149.145566 
L 159.877739 149.10954 
L 160.072145 148.953426 
L 160.266552 149.043648 
L 160.460958 148.871458 
L 160.655364 149.067353 
L 161.43299 148.948392 
L 161.627396 149.184531 
L 162.016209 149.146121 
L 162.793834 149.343956 
L 162.98824 149.188683 
L 163.182646 148.794644 
L 163.377053 148.901872 
L 163.960272 148.761146 
L 164.154678 148.024232 
L 164.349084 148.639382 
L 164.543491 148.738529 
L 164.737897 148.433722 
L 165.321116 148.453081 
L 165.709929 148.770624 
L 166.098741 148.76437 
L 166.68196 148.997524 
L 166.876366 148.937064 
L 167.070773 148.687974 
L 168.82043 149.039182 
L 169.598055 148.873641 
L 169.986867 148.996534 
L 170.181274 149.036125 
L 170.764493 148.854078 
L 170.958899 148.995505 
L 171.153305 148.746326 
L 171.347712 148.901833 
L 171.542118 148.913322 
L 172.319743 149.153161 
L 172.51415 149.09732 
L 172.708556 149.158397 
L 172.902962 149.021039 
L 173.874994 149.34182 
L 174.0694 149.193459 
L 174.263806 149.242389 
L 175.624651 149.43505 
L 176.207869 149.282803 
L 176.402276 149.596857 
L 176.596682 149.467806 
L 176.791088 149.642821 
L 179.512777 149.626749 
L 179.707183 149.489338 
L 181.068027 149.490023 
L 181.845653 149.366944 
L 182.234465 149.223347 
L 182.428871 149.30553 
L 183.206497 149.109341 
L 183.400903 149.408533 
L 183.789716 149.194728 
L 184.372935 149.322304 
L 185.15056 148.995746 
L 185.733779 148.910822 
L 186.122591 149.113347 
L 186.316998 149.056021 
L 186.511404 149.162017 
L 187.094623 148.935771 
L 187.872248 149.195835 
L 188.649873 149.053966 
L 188.84428 149.213807 
L 190.010718 149.242246 
L 190.205124 149.437248 
L 190.39953 149.31446 
L 190.593937 149.048195 
L 191.760374 149.404815 
L 191.954781 149.325794 
L 194.287657 149.54183 
L 194.482063 149.355089 
L 194.676469 149.352205 
L 195.648501 149.208979 
L 195.842907 149.33819 
L 196.037313 149.194546 
L 197.203751 149.301483 
L 197.398158 149.088576 
L 198.175783 148.939625 
L 198.370189 149.239521 
L 198.759002 149.252446 
L 199.342221 149.452103 
L 199.536627 149.303508 
L 199.731033 148.451124 
L 200.119846 149.201481 
L 202.452722 149.256757 
L 202.841534 149.212114 
L 203.424753 149.553977 
L 203.61916 149.401489 
L 204.202378 149.530361 
L 205.17441 149.200574 
L 205.368816 148.921236 
L 205.563223 149.255856 
L 206.146442 149.108779 
L 206.535254 149.430162 
L 206.924067 149.361146 
L 207.507286 149.30972 
L 207.896098 148.972354 
L 208.090505 149.05734 
L 208.284911 149.017309 
L 208.86813 149.218483 
L 209.256943 148.889332 
L 209.451349 148.841143 
L 209.645755 149.259158 
L 210.617787 149.210201 
L 211.006599 149.414106 
L 211.784225 149.460104 
L 212.173037 149.394967 
L 212.367444 149.509823 
L 213.728288 149.433062 
L 214.505913 149.499928 
L 214.700319 149.612877 
L 215.089132 149.489894 
L 215.672351 149.445105 
L 216.061164 149.569658 
L 216.25557 149.472529 
L 216.449976 149.534919 
L 217.033195 149.192248 
L 217.227601 149.325131 
L 217.422008 149.173598 
L 217.616414 149.23456 
L 217.81082 149.117833 
L 218.977258 149.259605 
L 219.171665 149.43327 
L 219.754884 149.484893 
L 220.143696 149.005603 
L 220.532509 149.502545 
L 221.310134 149.413633 
L 221.50454 149.490467 
L 221.893353 149.324985 
L 222.476572 149.38772 
L 222.670978 149.190956 
L 222.865385 149.529002 
L 223.254197 149.476194 
L 223.837416 149.442267 
L 224.031822 148.802178 
L 224.226229 148.683496 
L 224.420635 147.954753 
L 225.19826 147.488237 
L 225.392667 148.27981 
L 225.587073 148.461413 
L 225.781479 148.915545 
L 225.975886 148.724711 
L 226.753511 148.928327 
L 226.947917 148.936915 
L 227.142323 149.06958 
L 227.33673 149.009395 
L 228.503168 148.960126 
L 228.697574 148.767861 
L 229.475199 148.777812 
L 229.669605 148.661582 
L 230.058418 148.928524 
L 230.641637 148.81915 
L 230.836043 148.978857 
L 231.224856 148.996361 
L 231.419262 149.058795 
L 232.780106 149.085307 
L 234.140951 148.919517 
L 235.112982 148.989083 
L 235.307389 148.719541 
L 235.501795 148.838802 
L 236.085014 148.866613 
L 236.473826 148.334292 
L 236.668233 148.72844 
L 236.862639 148.076976 
L 238.029077 148.545584 
L 238.223483 148.518716 
L 238.806702 148.817434 
L 239.195515 148.749294 
L 239.584327 148.272242 
L 240.361953 148.78384 
L 240.556359 148.516321 
L 240.945172 148.924427 
L 241.722797 149.110981 
L 241.917203 148.850148 
L 242.306016 149.096484 
L 243.278047 149.000724 
L 243.66686 149.309336 
L 244.638892 149.293683 
L 244.833298 148.920478 
L 245.027704 149.17258 
L 245.610923 149.181568 
L 245.805329 149.373181 
L 245.999736 149.252254 
L 246.194142 149.323177 
L 246.388548 149.181476 
L 246.971767 148.977096 
L 247.749393 149.324505 
L 249.693456 149.181074 
L 249.887862 149.332163 
L 250.082268 148.988197 
L 250.276675 148.936237 
L 250.471081 148.622048 
L 251.0543 148.541878 
L 251.443112 148.860411 
L 251.637519 148.654521 
L 251.831925 148.796833 
L 252.415144 148.682719 
L 252.60955 148.834735 
L 252.803957 148.475199 
L 254.164801 148.231716 
L 254.359207 148.518144 
L 254.553613 148.402433 
L 255.136832 148.454559 
L 255.525645 148.902023 
L 255.914458 148.140749 
L 256.497677 148.647029 
L 256.692083 148.352378 
L 256.886489 148.67621 
L 257.275302 148.554856 
L 257.858521 148.811347 
L 258.052927 148.567257 
L 258.247333 148.576143 
L 258.44174 148.901984 
L 259.219365 148.906345 
L 259.413771 148.762278 
L 259.608178 148.814633 
L 259.802584 148.69855 
L 259.99699 148.76451 
L 260.580209 148.463318 
L 260.969022 148.825752 
L 261.163428 148.794447 
L 261.357834 148.241619 
L 261.941053 148.58981 
L 262.13546 148.929292 
L 262.329866 148.93018 
L 262.524272 149.133984 
L 262.718679 148.974861 
L 263.301898 149.11435 
L 263.496304 149.331917 
L 263.885116 149.316433 
L 264.662742 149.133459 
L 265.440367 149.348601 
L 266.217992 148.929982 
L 266.412399 149.089353 
L 266.801211 148.907276 
L 268.162055 149.192724 
L 268.745274 148.678803 
L 269.134087 149.161591 
L 269.328493 149.032641 
L 269.5229 149.100587 
L 271.466963 148.496598 
L 271.661369 148.844805 
L 272.050182 148.457335 
L 272.244588 148.661402 
L 273.022213 148.657491 
L 273.21662 148.787865 
L 273.411026 148.437499 
L 273.605432 148.406565 
L 274.188651 148.507899 
L 274.383057 148.673801 
L 274.577464 148.528499 
L 274.77187 148.009695 
L 274.966276 148.67639 
L 275.743902 148.769494 
L 275.938308 148.904016 
L 276.132714 148.893634 
L 276.327121 149.040532 
L 277.104746 148.711546 
L 277.299152 148.230966 
L 277.493558 148.22308 
L 277.687965 148.378343 
L 278.46559 148.275699 
L 278.659996 148.601899 
L 279.048809 148.387157 
L 279.632028 148.413579 
L 279.826434 147.993881 
L 280.215247 148.334829 
L 280.409653 147.887338 
L 280.992872 147.825324 
L 281.187278 148.347035 
L 281.381685 148.214165 
L 281.576091 147.84065 
L 281.770497 147.850545 
L 282.353716 147.740614 
L 282.548123 148.163495 
L 282.742529 148.088406 
L 282.936935 148.313781 
L 283.131341 148.338019 
L 283.71456 147.561641 
L 283.908967 146.998748 
L 284.297779 147.044044 
L 284.492186 147.551896 
L 285.075405 147.10121 
L 285.269811 147.690427 
L 285.658624 147.648511 
L 285.85303 147.403659 
L 286.436249 147.589974 
L 286.630655 147.931756 
L 286.825061 147.837057 
L 287.019468 146.958839 
L 287.213874 146.783323 
L 287.991499 147.530552 
L 288.185906 147.512258 
L 288.380312 147.976204 
L 288.574718 147.776644 
L 289.935562 147.89597 
L 290.518781 148.101259 
L 290.713188 147.970863 
L 290.907594 147.494991 
L 291.102 148.148895 
L 291.296407 148.350337 
L 292.268438 148.238203 
L 292.657251 147.813771 
L 293.434876 148.438721 
L 293.629282 148.190282 
L 294.018095 148.390095 
L 294.601314 148.016626 
L 294.79572 148.164988 
L 295.184533 147.798578 
L 295.378939 148.084148 
L 295.962158 148.159533 
L 296.156564 148.045445 
L 296.350971 148.372298 
L 296.545377 148.131721 
L 296.739783 147.272969 
L 297.517409 147.976055 
L 297.711815 147.968586 
L 297.906221 147.700123 
L 298.100628 147.711364 
L 298.878253 147.38279 
L 299.072659 147.724868 
L 300.044691 147.865492 
L 300.239097 148.124255 
L 300.433503 148.025667 
L 300.62791 148.149545 
L 300.822316 147.97904 
L 301.405535 147.804013 
L 301.599941 147.9018 
L 301.988754 148.439806 
L 302.18316 148.395445 
L 302.766379 148.573445 
L 303.155192 148.267045 
L 303.349598 148.357764 
L 303.544004 148.245679 
L 304.516036 148.722784 
L 304.710442 148.541897 
L 304.904848 148.740862 
L 305.488067 148.889534 
L 305.682474 148.690091 
L 305.87688 148.815361 
L 306.071286 148.780242 
L 306.265693 148.60961 
L 306.848912 148.437058 
L 307.237724 148.788876 
L 307.432131 148.843329 
L 307.626537 148.642633 
L 308.209756 148.563951 
L 308.404162 148.872821 
L 308.598568 148.874876 
L 308.792975 149.009082 
L 308.987381 148.865484 
L 309.5706 148.8078 
L 309.765006 148.548783 
L 309.959413 148.758996 
L 310.153819 148.677719 
L 310.348225 148.243886 
L 310.931444 148.639332 
L 311.12585 148.3596 
L 311.320257 148.754585 
L 311.709069 148.391181 
L 312.292288 147.844793 
L 312.681101 146.897406 
L 312.875507 147.366609 
L 313.069914 148.152778 
L 313.653133 148.096566 
L 313.847539 148.195347 
L 314.041945 148.070019 
L 314.430758 148.158509 
L 315.013977 147.731673 
L 315.208383 148.383694 
L 315.402789 148.432541 
L 315.597196 148.701938 
L 315.791602 148.351746 
L 316.374821 148.54374 
L 316.763634 148.897191 
L 316.95804 148.99221 
L 317.152446 148.447652 
L 317.735665 148.46306 
L 317.930071 148.580878 
L 318.124478 148.364536 
L 318.318884 148.510641 
L 320.65176 148.50196 
L 320.846166 148.135737 
L 321.040572 148.344204 
L 321.818198 148.23266 
L 322.012604 148.541742 
L 322.20701 148.5907 
L 322.401417 148.270392 
L 322.595823 148.428935 
L 323.762261 148.411003 
L 323.956667 147.854141 
L 324.539886 147.325079 
L 325.123105 148.505879 
L 325.317511 148.176878 
L 325.90073 147.531635 
L 326.095137 147.876117 
L 326.289543 147.586196 
L 326.483949 147.763344 
L 326.678356 148.23596 
L 327.261574 148.113448 
L 327.650387 147.49097 
L 327.844793 148.009349 
L 328.0392 148.08143 
L 328.622419 147.665906 
L 329.400044 148.51738 
L 330.177669 148.268216 
L 330.760888 148.362196 
L 331.344107 148.288833 
L 331.538513 148.44144 
L 331.927326 148.173882 
L 332.121732 147.298381 
L 332.704951 147.772047 
L 332.899358 148.390433 
L 333.482576 148.722789 
L 334.454608 148.824891 
L 334.649014 148.551652 
L 334.843421 148.528652 
L 335.621046 148.876582 
L 335.815452 148.834316 
L 336.009859 148.107846 
L 337.370703 148.78121 
L 337.565109 148.612657 
L 338.537141 148.747279 
L 338.731547 148.647729 
L 339.509172 148.815201 
L 339.703578 148.696411 
L 339.897985 148.869071 
L 340.092391 148.179042 
L 340.286797 148.730044 
L 340.870016 148.207231 
L 341.064423 148.329644 
L 341.258829 148.288642 
L 341.453235 147.990959 
L 341.647642 148.387776 
L 342.230861 148.085822 
L 342.425267 148.445631 
L 342.619673 148.000495 
L 342.814079 148.130573 
L 343.008486 147.731899 
L 343.591705 146.891212 
L 343.786111 146.921935 
L 343.980517 146.494169 
L 344.174924 146.488723 
L 346.313393 146.934536 
L 346.507799 147.88781 
L 346.702206 147.570662 
L 346.896612 148.044356 
L 347.091018 147.692188 
L 347.674237 147.022217 
L 347.868644 147.330944 
L 348.06305 146.168175 
L 348.257456 147.104011 
L 348.451863 147.359526 
L 349.229488 147.561239 
L 349.423894 147.854461 
L 349.6183 147.677975 
L 349.812707 147.812881 
L 350.590332 147.610952 
L 350.784738 147.752042 
L 350.979145 147.636289 
L 351.173551 147.883978 
L 351.75677 147.425378 
L 352.145582 147.75385 
L 352.339989 147.514141 
L 353.117614 147.738542 
L 353.31202 148.031533 
L 353.506427 148.118534 
L 353.700833 147.991051 
L 353.895239 148.241845 
L 354.478458 147.954996 
L 354.672865 148.14416 
L 355.839302 148.134147 
L 356.033709 148.345539 
L 356.422521 148.293478 
L 356.616928 148.360254 
L 357.200147 147.616937 
L 357.394553 147.635036 
L 357.977772 148.270453 
L 358.755397 148.417658 
L 358.949803 148.280054 
L 359.14421 148.326074 
L 359.338616 147.617219 
L 359.921835 147.159001 
L 360.116241 147.691719 
L 361.282679 147.695547 
L 361.671492 148.184364 
L 361.865898 147.901767 
L 362.060304 148.043725 
L 362.643523 148.000361 
L 363.032336 148.654664 
L 363.421149 148.244929 
L 364.004368 148.066509 
L 364.198774 148.493425 
L 364.39318 148.113477 
L 364.781993 148.217162 
L 365.365212 148.094006 
L 365.754024 148.393574 
L 366.142837 148.189876 
L 366.726056 147.354569 
L 367.114869 148.283419 
L 367.309275 147.536399 
L 367.503681 148.256021 
L 368.281306 147.902091 
L 368.475713 148.06998 
L 368.864525 146.67776 
L 369.642151 147.893932 
L 369.836557 147.949031 
L 370.030963 146.998811 
L 370.22537 147.803355 
L 370.808589 147.451374 
L 371.002995 147.91671 
L 371.197401 148.032636 
L 371.391807 148.333656 
L 371.586214 148.133937 
L 372.169433 148.205634 
L 372.363839 148.529072 
L 372.752652 148.513704 
L 372.947058 148.560396 
L 373.530277 148.45151 
L 373.724683 147.975058 
L 373.91909 148.466009 
L 374.113496 148.043792 
L 374.307902 148.453477 
L 374.891121 148.572352 
L 375.085527 148.401618 
L 375.279934 148.44406 
L 375.668746 147.983521 
L 376.640778 148.403966 
L 377.029591 148.656591 
L 377.807216 148.706696 
L 378.001622 147.778841 
L 378.390435 148.272571 
L 378.973654 147.999014 
L 379.362466 148.728005 
L 379.556873 148.605263 
L 379.751279 148.728204 
L 380.334498 148.838446 
L 380.528904 149.005677 
L 380.72331 149.020566 
L 380.917717 148.590907 
L 381.112123 148.681135 
L 381.889748 148.821309 
L 382.084155 149.045766 
L 382.278561 148.858288 
L 382.472967 148.881808 
L 383.250593 148.886614 
L 383.444999 148.972635 
L 383.639405 148.597419 
L 383.833811 147.955296 
L 384.41703 148.196146 
L 384.611437 148.710077 
L 385.000249 148.931541 
L 385.194656 148.836906 
L 385.777875 149.008739 
L 386.166687 148.971964 
L 386.361094 148.940481 
L 386.5555 148.779758 
L 387.527531 148.865798 
L 387.721938 148.688324 
L 387.916344 148.894693 
L 388.499563 148.938117 
L 388.693969 147.879514 
L 388.888376 147.660318 
L 389.082782 147.702989 
L 389.277188 147.860264 
L 389.860407 142.924347 
L 391.415658 140.308705 
L 391.610064 141.181961 
L 391.80447 144.296001 
L 391.998877 145.605559 
L 392.582096 145.857436 
L 392.776502 146.185354 
L 392.970908 147.146633 
L 393.165314 146.761174 
L 393.359721 144.207918 
L 393.94294 143.137445 
L 394.137346 144.610271 
L 394.331752 144.982864 
L 394.526159 146.3768 
L 394.720565 145.35639 
L 395.303784 145.772897 
L 395.49819 145.251357 
L 395.692597 145.932606 
L 395.887003 145.179975 
L 396.081409 145.410649 
L 396.664628 146.703811 
L 396.859034 144.858327 
L 397.053441 144.42822 
L 397.247847 144.922315 
L 397.442253 143.352444 
L 398.025472 142.303959 
L 398.219879 142.966195 
L 398.414285 144.780988 
L 398.608691 145.434362 
L 399.386316 145.883702 
L 399.580723 146.362573 
L 399.775129 145.974325 
L 399.969535 146.241482 
L 400.163942 145.864598 
L 400.941567 147.2804 
L 401.135973 146.663268 
L 401.33038 146.801348 
L 401.524786 146.136531 
L 402.108005 145.7967 
L 402.302411 146.211002 
L 402.496817 146.087073 
L 402.691224 146.51929 
L 402.88563 145.718981 
L 403.468849 146.353943 
L 403.663255 145.154524 
L 404.052068 146.023445 
L 404.246474 144.906647 
L 405.0241 146.943215 
L 405.218506 147.034679 
L 405.412912 146.817268 
L 405.607318 145.803985 
L 406.190537 145.980042 
L 406.384944 146.884512 
L 406.57935 146.956292 
L 406.773756 146.88647 
L 406.968163 146.628171 
L 407.551382 147.173848 
L 407.745788 146.894412 
L 408.134601 146.844231 
L 408.329007 147.071856 
L 408.912226 147.508938 
L 409.106632 147.487328 
L 409.301038 146.979247 
L 409.495445 147.469449 
L 409.689851 147.1763 
L 410.27307 147.618548 
L 410.467476 146.697319 
L 410.661883 147.262273 
L 410.856289 147.104145 
L 411.633914 147.28919 
L 411.82832 147.111694 
L 412.022727 147.380934 
L 412.217133 146.844475 
L 412.411539 147.015696 
L 412.994758 147.264258 
L 414.744415 146.412042 
L 415.133228 144.964815 
L 415.716447 145.271613 
L 415.910853 145.634457 
L 416.494072 145.732646 
L 417.077291 145.299104 
L 417.271697 145.555221 
L 417.466104 145.161955 
L 417.66051 145.362552 
L 417.854916 143.999184 
L 418.438135 144.477082 
L 418.632541 144.88506 
L 418.826948 144.371598 
L 419.21576 144.317417 
L 420.187792 145.99205 
L 420.382198 144.775388 
L 420.576605 145.549161 
L 421.159824 145.991188 
L 421.35423 146.3089 
L 421.548636 146.271519 
L 421.743042 145.996057 
L 421.937449 146.222244 
L 422.520668 146.640756 
L 422.715074 146.54902 
L 423.103887 146.91617 
L 423.298293 146.586139 
L 423.881512 146.730778 
L 424.075918 147.410096 
L 424.270325 147.65497 
L 424.464731 147.200081 
L 424.659137 147.510563 
L 425.436762 147.070614 
L 425.631169 147.731813 
L 425.825575 147.350715 
L 426.6032 144.413354 
L 426.797607 145.625888 
L 426.992013 145.404168 
L 427.186419 146.145022 
L 427.380826 146.115314 
L 427.964044 146.794125 
L 428.158451 147.608888 
L 428.352857 147.451432 
L 428.547263 147.668073 
L 428.74167 149.949561 
L 430.880139 149.825719 
L 431.074545 149.63844 
L 431.074545 149.63844 
" clip-path="url(#p53ab00de2e)" style="fill: none; stroke: #0000ff; stroke-width: 1.5; stroke-linecap: square"/>
   </g>
   <g id="patch_3">
    <path d="M 33.64 150.32 
L 33.64 26.88 
" style="fill: none; stroke: #000000; stroke-width: 0.8; stroke-linejoin: miter; stroke-linecap: square"/>
   </g>
   <g id="patch_4">
    <path d="M 450 150.32 
L 450 26.88 
" style="fill: none; stroke: #000000; stroke-width: 0.8; stroke-linejoin: miter; stroke-linecap: square"/>
   </g>
   <g id="patch_5">
    <path d="M 33.64 150.32 
L 450 150.32 
" style="fill: none; stroke: #000000; stroke-width: 0.8; stroke-linejoin: miter; stroke-linecap: square"/>
   </g>
   <g id="patch_6">
    <path d="M 33.64 26.88 
L 450 26.88 
" style="fill: none; stroke: #000000; stroke-width: 0.8; stroke-linejoin: miter; stroke-linecap: square"/>
   </g>
   <g id="text_14">
    <!-- Volume Before Correction -->
    <g transform="translate(165.036875 20.88) scale(0.12 -0.12)">
     <defs>
      <path id="DejaVuSans-56" d="M 1831 0 
L 50 4666 
L 709 4666 
L 2188 738 
L 3669 4666 
L 4325 4666 
L 2547 0 
L 1831 0 
z
" transform="scale(0.015625)"/>
      <path id="DejaVuSans-6f" d="M 1959 3097 
Q 1497 3097 1228 2736 
Q 959 2375 959 1747 
Q 959 1119 1226 758 
Q 1494 397 1959 397 
Q 2419 397 2687 759 
Q 2956 1122 2956 1747 
Q 2956 2369 2687 2733 
Q 2419 3097 1959 3097 
z
M 1959 3584 
Q 2709 3584 3137 3096 
Q 3566 2609 3566 1747 
Q 3566 888 3137 398 
Q 2709 -91 1959 -91 
Q 1206 -91 779 398 
Q 353 888 353 1747 
Q 353 2609 779 3096 
Q 1206 3584 1959 3584 
z
" transform="scale(0.015625)"/>
      <path id="DejaVuSans-6c" d="M 603 4863 
L 1178 4863 
L 1178 0 
L 603 0 
L 603 4863 
z
" transform="scale(0.015625)"/>
      <path id="DejaVuSans-75" d="M 544 1381 
L 544 3500 
L 1119 3500 
L 1119 1403 
Q 1119 906 1312 657 
Q 1506 409 1894 409 
Q 2359 409 2629 706 
Q 2900 1003 2900 1516 
L 2900 3500 
L 3475 3500 
L 3475 0 
L 2900 0 
L 2900 538 
Q 2691 219 2414 64 
Q 2138 -91 1772 -91 
Q 1169 -91 856 284 
Q 544 659 544 1381 
z
M 1991 3584 
L 1991 3584 
z
" transform="scale(0.015625)"/>
      <path id="DejaVuSans-6d" d="M 3328 2828 
Q 3544 3216 3844 3400 
Q 4144 3584 4550 3584 
Q 5097 3584 5394 3201 
Q 5691 2819 5691 2113 
L 5691 0 
L 5113 0 
L 5113 2094 
Q 5113 2597 4934 2840 
Q 4756 3084 4391 3084 
Q 3944 3084 3684 2787 
Q 3425 2491 3425 1978 
L 3425 0 
L 2847 0 
L 2847 2094 
Q 2847 2600 2669 2842 
Q 2491 3084 2119 3084 
Q 1678 3084 1418 2786 
Q 1159 2488 1159 1978 
L 1159 0 
L 581 0 
L 581 3500 
L 1159 3500 
L 1159 2956 
Q 1356 3278 1631 3431 
Q 1906 3584 2284 3584 
Q 2666 3584 2933 3390 
Q 3200 3197 3328 2828 
z
" transform="scale(0.015625)"/>
      <path id="DejaVuSans-20" transform="scale(0.015625)"/>
      <path id="DejaVuSans-42" d="M 1259 2228 
L 1259 519 
L 2272 519 
Q 2781 519 3026 730 
Q 3272 941 3272 1375 
Q 3272 1813 3026 2020 
Q 2781 2228 2272 2228 
L 1259 2228 
z
M 1259 4147 
L 1259 2741 
L 2194 2741 
Q 2656 2741 2882 2914 
Q 3109 3088 3109 3444 
Q 3109 3797 2882 3972 
Q 2656 4147 2194 4147 
L 1259 4147 
z
M 628 4666 
L 2241 4666 
Q 2963 4666 3353 4366 
Q 3744 4066 3744 3513 
Q 3744 3084 3544 2831 
Q 3344 2578 2956 2516 
Q 3422 2416 3680 2098 
Q 3938 1781 3938 1306 
Q 3938 681 3513 340 
Q 3088 0 2303 0 
L 628 0 
L 628 4666 
z
" transform="scale(0.015625)"/>
      <path id="DejaVuSans-66" d="M 2375 4863 
L 2375 4384 
L 1825 4384 
Q 1516 4384 1395 4259 
Q 1275 4134 1275 3809 
L 1275 3500 
L 2222 3500 
L 2222 3053 
L 1275 3053 
L 1275 0 
L 697 0 
L 697 3053 
L 147 3053 
L 147 3500 
L 697 3500 
L 697 3744 
Q 697 4328 969 4595 
Q 1241 4863 1831 4863 
L 2375 4863 
z
" transform="scale(0.015625)"/>
      <path id="DejaVuSans-72" d="M 2631 2963 
Q 2534 3019 2420 3045 
Q 2306 3072 2169 3072 
Q 1681 3072 1420 2755 
Q 1159 2438 1159 1844 
L 1159 0 
L 581 0 
L 581 3500 
L 1159 3500 
L 1159 2956 
Q 1341 3275 1631 3429 
Q 1922 3584 2338 3584 
Q 2397 3584 2469 3576 
Q 2541 3569 2628 3553 
L 2631 2963 
z
" transform="scale(0.015625)"/>
      <path id="DejaVuSans-43" d="M 4122 4306 
L 4122 3641 
Q 3803 3938 3442 4084 
Q 3081 4231 2675 4231 
Q 1875 4231 1450 3742 
Q 1025 3253 1025 2328 
Q 1025 1406 1450 917 
Q 1875 428 2675 428 
Q 3081 428 3442 575 
Q 3803 722 4122 1019 
L 4122 359 
Q 3791 134 3420 21 
Q 3050 -91 2638 -91 
Q 1578 -91 968 557 
Q 359 1206 359 2328 
Q 359 3453 968 4101 
Q 1578 4750 2638 4750 
Q 3056 4750 3426 4639 
Q 3797 4528 4122 4306 
z
" transform="scale(0.015625)"/>
      <path id="DejaVuSans-63" d="M 3122 3366 
L 3122 2828 
Q 2878 2963 2633 3030 
Q 2388 3097 2138 3097 
Q 1578 3097 1268 2742 
Q 959 2388 959 1747 
Q 959 1106 1268 751 
Q 1578 397 2138 397 
Q 2388 397 2633 464 
Q 2878 531 3122 666 
L 3122 134 
Q 2881 22 2623 -34 
Q 2366 -91 2075 -91 
Q 1284 -91 818 406 
Q 353 903 353 1747 
Q 353 2603 823 3093 
Q 1294 3584 2113 3584 
Q 2378 3584 2631 3529 
Q 2884 3475 3122 3366 
z
" transform="scale(0.015625)"/>
      <path id="DejaVuSans-74" d="M 1172 4494 
L 1172 3500 
L 2356 3500 
L 2356 3053 
L 1172 3053 
L 1172 1153 
Q 1172 725 1289 603 
Q 1406 481 1766 481 
L 2356 481 
L 2356 0 
L 1766 0 
Q 1100 0 847 248 
Q 594 497 594 1153 
L 594 3053 
L 172 3053 
L 172 3500 
L 594 3500 
L 594 4494 
L 1172 4494 
z
" transform="scale(0.015625)"/>
      <path id="DejaVuSans-69" d="M 603 3500 
L 1178 3500 
L 1178 0 
L 603 0 
L 603 3500 
z
M 603 4863 
L 1178 4863 
L 1178 4134 
L 603 4134 
L 603 4863 
z
" transform="scale(0.015625)"/>
      <path id="DejaVuSans-6e" d="M 3513 2113 
L 3513 0 
L 2938 0 
L 2938 2094 
Q 2938 2591 2744 2837 
Q 2550 3084 2163 3084 
Q 1697 3084 1428 2787 
Q 1159 2491 1159 1978 
L 1159 0 
L 581 0 
L 581 3500 
L 1159 3500 
L 1159 2956 
Q 1366 3272 1645 3428 
Q 1925 3584 2291 3584 
Q 2894 3584 3203 3211 
Q 3513 2838 3513 2113 
z
" transform="scale(0.015625)"/>
     </defs>
     <use xlink:href="#DejaVuSans-56"/>
     <use xlink:href="#DejaVuSans-6f" transform="translate(60.658203 0)"/>
     <use xlink:href="#DejaVuSans-6c" transform="translate(121.839844 0)"/>
     <use xlink:href="#DejaVuSans-75" transform="translate(149.623047 0)"/>
     <use xlink:href="#DejaVuSans-6d" transform="translate(213.001953 0)"/>
     <use xlink:href="#DejaVuSans-65" transform="translate(310.414062 0)"/>
     <use xlink:href="#DejaVuSans-20" transform="translate(371.9375 0)"/>
     <use xlink:href="#DejaVuSans-42" transform="translate(403.724609 0)"/>
     <use xlink:href="#DejaVuSans-65" transform="translate(472.328125 0)"/>
     <use xlink:href="#DejaVuSans-66" transform="translate(533.851562 0)"/>
     <use xlink:href="#DejaVuSans-6f" transform="translate(569.056641 0)"/>
     <use xlink:href="#DejaVuSans-72" transform="translate(630.238281 0)"/>
     <use xlink:href="#DejaVuSans-65" transform="translate(669.101562 0)"/>
     <use xlink:href="#DejaVuSans-20" transform="translate(730.625 0)"/>
     <use xlink:href="#DejaVuSans-43" transform="translate(762.412109 0)"/>
     <use xlink:href="#DejaVuSans-6f" transform="translate(832.236328 0)"/>
     <use xlink:href="#DejaVuSans-72" transform="translate(893.417969 0)"/>
     <use xlink:href="#DejaVuSans-72" transform="translate(932.78125 0)"/>
     <use xlink:href="#DejaVuSans-65" transform="translate(971.644531 0)"/>
     <use xlink:href="#DejaVuSans-63" transform="translate(1033.167969 0)"/>
     <use xlink:href="#DejaVuSans-74" transform="translate(1088.148438 0)"/>
     <use xlink:href="#DejaVuSans-69" transform="translate(1127.357422 0)"/>
     <use xlink:href="#DejaVuSans-6f" transform="translate(1155.140625 0)"/>
     <use xlink:href="#DejaVuSans-6e" transform="translate(1216.322266 0)"/>
    </g>
   </g>
   <g id="legend_1">
    <g id="patch_7">
     <path d="M 322.815625 64.23625 
L 443 64.23625 
Q 445 64.23625 445 62.23625 
L 445 33.88 
Q 445 31.88 443 31.88 
L 322.815625 31.88 
Q 320.815625 31.88 320.815625 33.88 
L 320.815625 62.23625 
Q 320.815625 64.23625 322.815625 64.23625 
z
" style="fill: #ffffff; opacity: 0.8; stroke: #cccccc; stroke-linejoin: miter"/>
    </g>
    <g id="line2d_14">
     <path d="M 324.815625 39.978437 
L 334.815625 39.978437 
L 344.815625 39.978437 
" style="fill: none; stroke: #0000ff; stroke-width: 1.5; stroke-linecap: square"/>
    </g>
    <g id="text_15">
     <!-- Original Volume -->
     <g transform="translate(352.815625 43.478437) scale(0.1 -0.1)">
      <defs>
       <path id="DejaVuSans-4f" d="M 2522 4238 
Q 1834 4238 1429 3725 
Q 1025 3213 1025 2328 
Q 1025 1447 1429 934 
Q 1834 422 2522 422 
Q 3209 422 3611 934 
Q 4013 1447 4013 2328 
Q 4013 3213 3611 3725 
Q 3209 4238 2522 4238 
z
M 2522 4750 
Q 3503 4750 4090 4092 
Q 4678 3434 4678 2328 
Q 4678 1225 4090 567 
Q 3503 -91 2522 -91 
Q 1538 -91 948 565 
Q 359 1222 359 2328 
Q 359 3434 948 4092 
Q 1538 4750 2522 4750 
z
" transform="scale(0.015625)"/>
       <path id="DejaVuSans-67" d="M 2906 1791 
Q 2906 2416 2648 2759 
Q 2391 3103 1925 3103 
Q 1463 3103 1205 2759 
Q 947 2416 947 1791 
Q 947 1169 1205 825 
Q 1463 481 1925 481 
Q 2391 481 2648 825 
Q 2906 1169 2906 1791 
z
M 3481 434 
Q 3481 -459 3084 -895 
Q 2688 -1331 1869 -1331 
Q 1566 -1331 1297 -1286 
Q 1028 -1241 775 -1147 
L 775 -588 
Q 1028 -725 1275 -790 
Q 1522 -856 1778 -856 
Q 2344 -856 2625 -561 
Q 2906 -266 2906 331 
L 2906 616 
Q 2728 306 2450 153 
Q 2172 0 1784 0 
Q 1141 0 747 490 
Q 353 981 353 1791 
Q 353 2603 747 3093 
Q 1141 3584 1784 3584 
Q 2172 3584 2450 3431 
Q 2728 3278 2906 2969 
L 2906 3500 
L 3481 3500 
L 3481 434 
z
" transform="scale(0.015625)"/>
       <path id="DejaVuSans-61" d="M 2194 1759 
Q 1497 1759 1228 1600 
Q 959 1441 959 1056 
Q 959 750 1161 570 
Q 1363 391 1709 391 
Q 2188 391 2477 730 
Q 2766 1069 2766 1631 
L 2766 1759 
L 2194 1759 
z
M 3341 1997 
L 3341 0 
L 2766 0 
L 2766 531 
Q 2569 213 2275 61 
Q 1981 -91 1556 -91 
Q 1019 -91 701 211 
Q 384 513 384 1019 
Q 384 1609 779 1909 
Q 1175 2209 1959 2209 
L 2766 2209 
L 2766 2266 
Q 2766 2663 2505 2880 
Q 2244 3097 1772 3097 
Q 1472 3097 1187 3025 
Q 903 2953 641 2809 
L 641 3341 
Q 956 3463 1253 3523 
Q 1550 3584 1831 3584 
Q 2591 3584 2966 3190 
Q 3341 2797 3341 1997 
z
" transform="scale(0.015625)"/>
      </defs>
      <use xlink:href="#DejaVuSans-4f"/>
      <use xlink:href="#DejaVuSans-72" transform="translate(78.710938 0)"/>
      <use xlink:href="#DejaVuSans-69" transform="translate(119.824219 0)"/>
      <use xlink:href="#DejaVuSans-67" transform="translate(147.607422 0)"/>
      <use xlink:href="#DejaVuSans-69" transform="translate(211.083984 0)"/>
      <use xlink:href="#DejaVuSans-6e" transform="translate(238.867188 0)"/>
      <use xlink:href="#DejaVuSans-61" transform="translate(302.246094 0)"/>
      <use xlink:href="#DejaVuSans-6c" transform="translate(363.525391 0)"/>
      <use xlink:href="#DejaVuSans-20" transform="translate(391.308594 0)"/>
      <use xlink:href="#DejaVuSans-56" transform="translate(423.095703 0)"/>
      <use xlink:href="#DejaVuSans-6f" transform="translate(483.753906 0)"/>
      <use xlink:href="#DejaVuSans-6c" transform="translate(544.935547 0)"/>
      <use xlink:href="#DejaVuSans-75" transform="translate(572.71875 0)"/>
      <use xlink:href="#DejaVuSans-6d" transform="translate(636.097656 0)"/>
      <use xlink:href="#DejaVuSans-65" transform="translate(733.509766 0)"/>
     </g>
    </g>
    <g id="PathCollection_2">
     <g>
      <use xlink:href="#mc5ed8f91d1" x="334.815625" y="55.531563" style="fill: #ff0000; stroke: #ff0000"/>
     </g>
    </g>
    <g id="text_16">
     <!-- Detected Outliers -->
     <g transform="translate(352.815625 58.156563) scale(0.1 -0.1)">
      <defs>
       <path id="DejaVuSans-44" d="M 1259 4147 
L 1259 519 
L 2022 519 
Q 2988 519 3436 956 
Q 3884 1394 3884 2338 
Q 3884 3275 3436 3711 
Q 2988 4147 2022 4147 
L 1259 4147 
z
M 628 4666 
L 1925 4666 
Q 3281 4666 3915 4102 
Q 4550 3538 4550 2338 
Q 4550 1131 3912 565 
Q 3275 0 1925 0 
L 628 0 
L 628 4666 
z
" transform="scale(0.015625)"/>
       <path id="DejaVuSans-64" d="M 2906 2969 
L 2906 4863 
L 3481 4863 
L 3481 0 
L 2906 0 
L 2906 525 
Q 2725 213 2448 61 
Q 2172 -91 1784 -91 
Q 1150 -91 751 415 
Q 353 922 353 1747 
Q 353 2572 751 3078 
Q 1150 3584 1784 3584 
Q 2172 3584 2448 3432 
Q 2725 3281 2906 2969 
z
M 947 1747 
Q 947 1113 1208 752 
Q 1469 391 1925 391 
Q 2381 391 2643 752 
Q 2906 1113 2906 1747 
Q 2906 2381 2643 2742 
Q 2381 3103 1925 3103 
Q 1469 3103 1208 2742 
Q 947 2381 947 1747 
z
" transform="scale(0.015625)"/>
       <path id="DejaVuSans-73" d="M 2834 3397 
L 2834 2853 
Q 2591 2978 2328 3040 
Q 2066 3103 1784 3103 
Q 1356 3103 1142 2972 
Q 928 2841 928 2578 
Q 928 2378 1081 2264 
Q 1234 2150 1697 2047 
L 1894 2003 
Q 2506 1872 2764 1633 
Q 3022 1394 3022 966 
Q 3022 478 2636 193 
Q 2250 -91 1575 -91 
Q 1294 -91 989 -36 
Q 684 19 347 128 
L 347 722 
Q 666 556 975 473 
Q 1284 391 1588 391 
Q 1994 391 2212 530 
Q 2431 669 2431 922 
Q 2431 1156 2273 1281 
Q 2116 1406 1581 1522 
L 1381 1569 
Q 847 1681 609 1914 
Q 372 2147 372 2553 
Q 372 3047 722 3315 
Q 1072 3584 1716 3584 
Q 2034 3584 2315 3537 
Q 2597 3491 2834 3397 
z
" transform="scale(0.015625)"/>
      </defs>
      <use xlink:href="#DejaVuSans-44"/>
      <use xlink:href="#DejaVuSans-65" transform="translate(77.001953 0)"/>
      <use xlink:href="#DejaVuSans-74" transform="translate(138.525391 0)"/>
      <use xlink:href="#DejaVuSans-65" transform="translate(177.734375 0)"/>
      <use xlink:href="#DejaVuSans-63" transform="translate(239.257812 0)"/>
      <use xlink:href="#DejaVuSans-74" transform="translate(294.238281 0)"/>
      <use xlink:href="#DejaVuSans-65" transform="translate(333.447266 0)"/>
      <use xlink:href="#DejaVuSans-64" transform="translate(394.970703 0)"/>
      <use xlink:href="#DejaVuSans-20" transform="translate(458.447266 0)"/>
      <use xlink:href="#DejaVuSans-4f" transform="translate(490.234375 0)"/>
      <use xlink:href="#DejaVuSans-75" transform="translate(568.945312 0)"/>
      <use xlink:href="#DejaVuSans-74" transform="translate(632.324219 0)"/>
      <use xlink:href="#DejaVuSans-6c" transform="translate(671.533203 0)"/>
      <use xlink:href="#DejaVuSans-69" transform="translate(699.316406 0)"/>
      <use xlink:href="#DejaVuSans-65" transform="translate(727.099609 0)"/>
      <use xlink:href="#DejaVuSans-72" transform="translate(788.623047 0)"/>
      <use xlink:href="#DejaVuSans-73" transform="translate(829.736328 0)"/>
     </g>
    </g>
   </g>
  </g>
  <g id="axes_2">
   <g id="patch_8">
    <path d="M 33.64 317.72 
L 450 317.72 
L 450 194.28 
L 33.64 194.28 
z
" style="fill: #ffffff"/>
   </g>
   <g id="matplotlib.axis_3">
    <g id="xtick_7">
     <g id="line2d_15">
      <g>
       <use xlink:href="#m1f0e4efe26" x="52.759861" y="317.72" style="stroke: #000000; stroke-width: 0.8"/>
      </g>
     </g>
     <g id="text_17">
      <!-- 2020 -->
      <g transform="translate(40.034861 332.318438) scale(0.1 -0.1)">
       <use xlink:href="#DejaVuSans-32"/>
       <use xlink:href="#DejaVuSans-30" transform="translate(63.623047 0)"/>
       <use xlink:href="#DejaVuSans-32" transform="translate(127.246094 0)"/>
       <use xlink:href="#DejaVuSans-30" transform="translate(190.869141 0)"/>
      </g>
     </g>
    </g>
    <g id="xtick_8">
     <g id="line2d_16">
      <g>
       <use xlink:href="#m1f0e4efe26" x="123.912571" y="317.72" style="stroke: #000000; stroke-width: 0.8"/>
      </g>
     </g>
     <g id="text_18">
      <!-- 2021 -->
      <g transform="translate(111.187571 332.318438) scale(0.1 -0.1)">
       <use xlink:href="#DejaVuSans-32"/>
       <use xlink:href="#DejaVuSans-30" transform="translate(63.623047 0)"/>
       <use xlink:href="#DejaVuSans-32" transform="translate(127.246094 0)"/>
       <use xlink:href="#DejaVuSans-31" transform="translate(190.869141 0)"/>
      </g>
     </g>
    </g>
    <g id="xtick_9">
     <g id="line2d_17">
      <g>
       <use xlink:href="#m1f0e4efe26" x="194.870875" y="317.72" style="stroke: #000000; stroke-width: 0.8"/>
      </g>
     </g>
     <g id="text_19">
      <!-- 2022 -->
      <g transform="translate(182.145875 332.318438) scale(0.1 -0.1)">
       <use xlink:href="#DejaVuSans-32"/>
       <use xlink:href="#DejaVuSans-30" transform="translate(63.623047 0)"/>
       <use xlink:href="#DejaVuSans-32" transform="translate(127.246094 0)"/>
       <use xlink:href="#DejaVuSans-32" transform="translate(190.869141 0)"/>
      </g>
     </g>
    </g>
    <g id="xtick_10">
     <g id="line2d_18">
      <g>
       <use xlink:href="#m1f0e4efe26" x="265.82918" y="317.72" style="stroke: #000000; stroke-width: 0.8"/>
      </g>
     </g>
     <g id="text_20">
      <!-- 2023 -->
      <g transform="translate(253.10418 332.318438) scale(0.1 -0.1)">
       <use xlink:href="#DejaVuSans-32"/>
       <use xlink:href="#DejaVuSans-30" transform="translate(63.623047 0)"/>
       <use xlink:href="#DejaVuSans-32" transform="translate(127.246094 0)"/>
       <use xlink:href="#DejaVuSans-33" transform="translate(190.869141 0)"/>
      </g>
     </g>
    </g>
    <g id="xtick_11">
     <g id="line2d_19">
      <g>
       <use xlink:href="#m1f0e4efe26" x="336.787484" y="317.72" style="stroke: #000000; stroke-width: 0.8"/>
      </g>
     </g>
     <g id="text_21">
      <!-- 2024 -->
      <g transform="translate(324.062484 332.318438) scale(0.1 -0.1)">
       <use xlink:href="#DejaVuSans-32"/>
       <use xlink:href="#DejaVuSans-30" transform="translate(63.623047 0)"/>
       <use xlink:href="#DejaVuSans-32" transform="translate(127.246094 0)"/>
       <use xlink:href="#DejaVuSans-34" transform="translate(190.869141 0)"/>
      </g>
     </g>
    </g>
    <g id="xtick_12">
     <g id="line2d_20">
      <g>
       <use xlink:href="#m1f0e4efe26" x="407.940194" y="317.72" style="stroke: #000000; stroke-width: 0.8"/>
      </g>
     </g>
     <g id="text_22">
      <!-- 2025 -->
      <g transform="translate(395.215194 332.318438) scale(0.1 -0.1)">
       <use xlink:href="#DejaVuSans-32"/>
       <use xlink:href="#DejaVuSans-30" transform="translate(63.623047 0)"/>
       <use xlink:href="#DejaVuSans-32" transform="translate(127.246094 0)"/>
       <use xlink:href="#DejaVuSans-35" transform="translate(190.869141 0)"/>
      </g>
     </g>
    </g>
   </g>
   <g id="matplotlib.axis_4">
    <g id="ytick_7">
     <g id="line2d_21">
      <g>
       <use xlink:href="#m4446947b65" x="33.64" y="317.72" style="stroke: #000000; stroke-width: 0.8"/>
      </g>
     </g>
     <g id="text_23">
      <!-- 0.0 -->
      <g transform="translate(10.736875 321.519219) scale(0.1 -0.1)">
       <use xlink:href="#DejaVuSans-30"/>
       <use xlink:href="#DejaVuSans-2e" transform="translate(63.623047 0)"/>
       <use xlink:href="#DejaVuSans-30" transform="translate(95.410156 0)"/>
      </g>
     </g>
    </g>
    <g id="ytick_8">
     <g id="line2d_22">
      <g>
       <use xlink:href="#m4446947b65" x="33.64" y="293.032" style="stroke: #000000; stroke-width: 0.8"/>
      </g>
     </g>
     <g id="text_24">
      <!-- 0.2 -->
      <g transform="translate(10.736875 296.831219) scale(0.1 -0.1)">
       <use xlink:href="#DejaVuSans-30"/>
       <use xlink:href="#DejaVuSans-2e" transform="translate(63.623047 0)"/>
       <use xlink:href="#DejaVuSans-32" transform="translate(95.410156 0)"/>
      </g>
     </g>
    </g>
    <g id="ytick_9">
     <g id="line2d_23">
      <g>
       <use xlink:href="#m4446947b65" x="33.64" y="268.344" style="stroke: #000000; stroke-width: 0.8"/>
      </g>
     </g>
     <g id="text_25">
      <!-- 0.4 -->
      <g transform="translate(10.736875 272.143219) scale(0.1 -0.1)">
       <use xlink:href="#DejaVuSans-30"/>
       <use xlink:href="#DejaVuSans-2e" transform="translate(63.623047 0)"/>
       <use xlink:href="#DejaVuSans-34" transform="translate(95.410156 0)"/>
      </g>
     </g>
    </g>
    <g id="ytick_10">
     <g id="line2d_24">
      <g>
       <use xlink:href="#m4446947b65" x="33.64" y="243.656" style="stroke: #000000; stroke-width: 0.8"/>
      </g>
     </g>
     <g id="text_26">
      <!-- 0.6 -->
      <g transform="translate(10.736875 247.455219) scale(0.1 -0.1)">
       <use xlink:href="#DejaVuSans-30"/>
       <use xlink:href="#DejaVuSans-2e" transform="translate(63.623047 0)"/>
       <use xlink:href="#DejaVuSans-36" transform="translate(95.410156 0)"/>
      </g>
     </g>
    </g>
    <g id="ytick_11">
     <g id="line2d_25">
      <g>
       <use xlink:href="#m4446947b65" x="33.64" y="218.968" style="stroke: #000000; stroke-width: 0.8"/>
      </g>
     </g>
     <g id="text_27">
      <!-- 0.8 -->
      <g transform="translate(10.736875 222.767219) scale(0.1 -0.1)">
       <use xlink:href="#DejaVuSans-30"/>
       <use xlink:href="#DejaVuSans-2e" transform="translate(63.623047 0)"/>
       <use xlink:href="#DejaVuSans-38" transform="translate(95.410156 0)"/>
      </g>
     </g>
    </g>
    <g id="ytick_12">
     <g id="line2d_26">
      <g>
       <use xlink:href="#m4446947b65" x="33.64" y="194.28" style="stroke: #000000; stroke-width: 0.8"/>
      </g>
     </g>
     <g id="text_28">
      <!-- 1.0 -->
      <g transform="translate(10.736875 198.079219) scale(0.1 -0.1)">
       <use xlink:href="#DejaVuSans-31"/>
       <use xlink:href="#DejaVuSans-2e" transform="translate(63.623047 0)"/>
       <use xlink:href="#DejaVuSans-30" transform="translate(95.410156 0)"/>
      </g>
     </g>
    </g>
    <g id="text_29">
     <!-- 1e9 -->
     <g transform="translate(33.64 191.28) scale(0.1 -0.1)">
      <use xlink:href="#DejaVuSans-31"/>
      <use xlink:href="#DejaVuSans-65" transform="translate(63.623047 0)"/>
      <use xlink:href="#DejaVuSans-39" transform="translate(125.146484 0)"/>
     </g>
    </g>
   </g>
   <g id="line2d_27">
    <path d="M 52.565455 317.53284 
L 53.731892 317.391278 
L 55.675956 317.339152 
L 55.870362 316.994963 
L 57.0368 317.173663 
L 60.536113 316.987642 
L 60.924926 317.131944 
L 61.119332 316.961578 
L 61.313739 317.064513 
L 63.452208 317.150744 
L 64.035427 317.086496 
L 64.813052 317.087624 
L 65.007459 317.248518 
L 65.201865 317.187651 
L 65.396271 317.317436 
L 66.368303 317.195564 
L 66.562709 317.373704 
L 66.757115 317.302364 
L 73.36693 317.499732 
L 74.144555 317.101045 
L 74.338962 317.245705 
L 75.505399 317.331748 
L 75.699806 317.151036 
L 75.894212 317.337285 
L 76.088618 317.215475 
L 77.449463 317.050635 
L 77.643869 317.144843 
L 78.6159 317.217723 
L 78.810307 317.142511 
L 79.004713 317.18729 
L 80.171151 317.109088 
L 80.365557 317.196501 
L 80.948776 317.301454 
L 81.337589 317.155688 
L 81.726401 317.164694 
L 82.892839 317.041114 
L 83.087246 317.134884 
L 83.864871 317.191742 
L 84.059277 317.01508 
L 85.031309 317.142388 
L 85.420121 317.04605 
L 85.808934 317.136747 
L 86.392153 316.842047 
L 86.586559 317.003939 
L 86.780966 316.932893 
L 87.947403 317.036925 
L 88.14181 316.944968 
L 88.530622 316.97629 
L 89.308248 316.446096 
L 89.502654 316.743201 
L 89.69706 316.525003 
L 89.891467 316.754935 
L 90.474686 316.720423 
L 90.863498 316.484519 
L 91.057904 316.014069 
L 91.252311 316.613354 
L 91.83553 316.602454 
L 92.029936 316.782083 
L 92.224342 316.49661 
L 92.418749 316.615489 
L 92.613155 316.454198 
L 93.39078 317.047905 
L 93.585187 316.815556 
L 93.779593 316.806189 
L 93.973999 316.664054 
L 94.557218 316.526904 
L 94.946031 316.835275 
L 96.501281 317.109593 
L 96.695688 317.187597 
L 97.473313 316.739054 
L 97.667719 316.73044 
L 98.056532 317.076248 
L 99.417376 317.022206 
L 100.000595 317.044081 
L 100.195001 317.17293 
L 100.583814 317.065168 
L 100.77822 317.113933 
L 101.361439 316.953733 
L 101.555845 317.170872 
L 101.750252 316.94823 
L 102.139064 317.221771 
L 103.111096 317.209738 
L 103.305502 316.682332 
L 103.499908 316.932921 
L 104.277534 317.032246 
L 104.47194 316.953572 
L 104.860753 317.247949 
L 105.638378 317.189996 
L 105.832784 317.228084 
L 107.582441 317.11255 
L 108.16566 316.905522 
L 108.554473 317.143113 
L 111.081755 317.331439 
L 111.664974 316.964087 
L 113.025818 317.170267 
L 113.609037 316.757544 
L 113.803443 317.002649 
L 113.997849 317.026829 
L 114.192256 317.19901 
L 114.969881 317.13776 
L 115.747506 317.13947 
L 116.719538 317.145686 
L 117.10835 317.260411 
L 117.885976 317.259354 
L 118.080382 317.011641 
L 118.469195 317.204194 
L 119.635632 317.097443 
L 119.830039 316.897221 
L 120.607664 317.138168 
L 120.80207 317.033598 
L 121.190883 317.144372 
L 122.357321 317.008445 
L 122.551727 317.105061 
L 125.856634 317.008687 
L 126.051041 317.163119 
L 126.439853 316.788893 
L 126.63426 316.972585 
L 127.411885 317.012501 
L 127.606291 317.112622 
L 128.578323 316.974936 
L 128.967135 317.161074 
L 129.355948 317.112626 
L 131.688824 317.2161 
L 135.57695 317.072553 
L 135.771356 317.165543 
L 135.965763 317.072706 
L 136.160169 317.246381 
L 136.937794 317.097834 
L 137.132201 317.261898 
L 137.521013 317.26127 
L 139.465076 317.279315 
L 139.659483 317.185791 
L 140.242702 317.283734 
L 141.409139 317.194717 
L 141.603546 317.05074 
L 142.575577 317.20951 
L 142.769984 317.131845 
L 142.96439 317.20875 
L 143.742015 317.244815 
L 144.130828 317.284826 
L 144.325234 317.145681 
L 145.102859 316.856854 
L 145.297266 317.078774 
L 145.686078 317.132184 
L 146.269297 316.950825 
L 146.463704 317.096337 
L 146.852516 317.039394 
L 147.046923 316.971764 
L 149.185392 317.180897 
L 150.35183 316.985919 
L 150.546236 317.050623 
L 150.740642 316.773395 
L 151.129455 316.9471 
L 151.90708 316.949307 
L 152.101487 316.96079 
L 152.295893 316.692607 
L 152.490299 315.058004 
L 153.267925 315.756689 
L 153.462331 315.942974 
L 153.851143 316.485573 
L 154.434362 316.433733 
L 154.823175 316.699865 
L 155.211988 316.401257 
L 155.989613 316.476828 
L 156.184019 316.665898 
L 156.378426 316.249996 
L 156.572832 316.478061 
L 157.156051 316.458504 
L 157.350457 315.287252 
L 157.933676 316.380126 
L 159.100114 316.434771 
L 159.29452 316.545566 
L 159.877739 316.50954 
L 160.072145 316.353426 
L 160.266552 316.443648 
L 160.460958 316.271458 
L 160.655364 316.467353 
L 161.43299 316.348392 
L 161.627396 316.584531 
L 162.016209 316.546121 
L 162.793834 316.743956 
L 162.98824 316.588683 
L 163.182646 316.194644 
L 163.377053 316.301872 
L 163.960272 316.161146 
L 164.154678 315.424232 
L 164.349084 316.039382 
L 164.543491 316.138529 
L 164.737897 315.833722 
L 165.321116 315.853081 
L 165.709929 316.170624 
L 166.098741 316.16437 
L 166.68196 316.397524 
L 166.876366 316.337064 
L 167.070773 316.087974 
L 168.82043 316.439182 
L 169.598055 316.273641 
L 169.986867 316.396534 
L 170.181274 316.436125 
L 170.764493 316.254078 
L 170.958899 316.395505 
L 171.153305 316.146326 
L 171.347712 316.301833 
L 171.542118 316.313322 
L 172.319743 316.553161 
L 172.51415 316.49732 
L 172.708556 316.558397 
L 172.902962 316.421039 
L 173.874994 316.74182 
L 174.0694 316.593459 
L 174.263806 316.642389 
L 175.624651 316.83505 
L 176.207869 316.682803 
L 176.402276 316.996857 
L 176.596682 316.867806 
L 176.791088 317.042821 
L 179.512777 317.026749 
L 179.707183 316.889338 
L 181.068027 316.890023 
L 181.845653 316.766944 
L 182.234465 316.623347 
L 182.428871 316.70553 
L 183.206497 316.509341 
L 183.400903 316.808533 
L 183.789716 316.594728 
L 184.372935 316.722304 
L 185.15056 316.395746 
L 185.733779 316.310822 
L 186.122591 316.513347 
L 186.316998 316.456021 
L 186.511404 316.562017 
L 187.094623 316.335771 
L 187.872248 316.595835 
L 188.649873 316.453966 
L 188.84428 316.613807 
L 190.010718 316.642246 
L 190.205124 316.837248 
L 190.39953 316.71446 
L 190.593937 316.448195 
L 191.760374 316.804815 
L 191.954781 316.725794 
L 194.287657 316.94183 
L 194.482063 316.755089 
L 194.676469 316.752205 
L 195.648501 316.608979 
L 195.842907 316.73819 
L 196.037313 316.594546 
L 197.203751 316.701483 
L 197.398158 316.488576 
L 198.175783 316.339625 
L 198.370189 316.639521 
L 198.759002 316.652446 
L 199.342221 316.852103 
L 199.536627 316.703508 
L 199.731033 315.851124 
L 200.119846 316.601481 
L 202.452722 316.656757 
L 202.841534 316.612114 
L 203.424753 316.953977 
L 203.61916 316.801489 
L 204.202378 316.930361 
L 205.17441 316.600574 
L 205.368816 316.321236 
L 205.563223 316.655856 
L 206.146442 316.508779 
L 206.535254 316.830162 
L 206.924067 316.761146 
L 207.507286 316.70972 
L 207.896098 316.372354 
L 208.090505 316.45734 
L 208.284911 316.417309 
L 208.86813 316.618483 
L 209.256943 316.289332 
L 209.451349 316.241143 
L 209.645755 316.659158 
L 210.617787 316.610201 
L 211.006599 316.814106 
L 211.784225 316.860104 
L 212.173037 316.794967 
L 212.367444 316.909823 
L 213.728288 316.833062 
L 214.505913 316.899928 
L 214.700319 317.012877 
L 215.089132 316.889894 
L 215.672351 316.845105 
L 216.061164 316.969658 
L 216.25557 316.872529 
L 216.449976 316.934919 
L 217.033195 316.592248 
L 217.227601 316.725131 
L 217.422008 316.573598 
L 217.616414 316.63456 
L 217.81082 316.517833 
L 218.977258 316.659605 
L 219.171665 316.83327 
L 219.754884 316.884893 
L 220.143696 316.405603 
L 220.532509 316.902545 
L 221.310134 316.813633 
L 221.50454 316.890467 
L 221.893353 316.724985 
L 222.476572 316.78772 
L 222.670978 316.590956 
L 222.865385 316.929002 
L 223.254197 316.876194 
L 223.837416 316.842267 
L 224.031822 316.202178 
L 224.226229 316.083496 
L 224.420635 315.354753 
L 225.19826 314.888237 
L 225.392667 315.67981 
L 225.587073 315.861413 
L 225.781479 316.315545 
L 225.975886 316.124711 
L 226.753511 316.328327 
L 226.947917 316.336915 
L 227.142323 316.46958 
L 227.33673 316.409395 
L 228.503168 316.360126 
L 228.697574 316.167861 
L 229.475199 316.177812 
L 229.669605 316.061582 
L 230.058418 316.328524 
L 230.641637 316.21915 
L 230.836043 316.378857 
L 231.224856 316.396361 
L 231.419262 316.458795 
L 232.780106 316.485307 
L 234.140951 316.319517 
L 235.112982 316.389083 
L 235.307389 316.119541 
L 235.501795 316.238802 
L 236.085014 316.266613 
L 236.473826 315.734292 
L 236.668233 316.12844 
L 236.862639 315.476976 
L 238.029077 315.945584 
L 238.223483 315.918716 
L 238.806702 316.217434 
L 239.195515 316.149294 
L 239.584327 315.672242 
L 240.361953 316.18384 
L 240.556359 315.916321 
L 240.945172 316.324427 
L 241.722797 316.510981 
L 241.917203 316.250148 
L 242.306016 316.496484 
L 243.278047 316.400724 
L 243.66686 316.709336 
L 244.638892 316.693683 
L 244.833298 316.320478 
L 245.027704 316.57258 
L 245.610923 316.581568 
L 245.805329 316.773181 
L 245.999736 316.652254 
L 246.194142 316.723177 
L 246.388548 316.581476 
L 246.971767 316.377096 
L 247.749393 316.724505 
L 249.693456 316.581074 
L 249.887862 316.732163 
L 250.082268 316.388197 
L 250.276675 316.336237 
L 250.471081 316.022048 
L 251.0543 315.941878 
L 251.443112 316.260411 
L 251.637519 316.054521 
L 251.831925 316.196833 
L 252.415144 316.082719 
L 252.60955 316.234735 
L 252.803957 315.875199 
L 254.164801 315.631716 
L 254.359207 315.918144 
L 254.553613 315.802433 
L 255.136832 315.854559 
L 255.525645 316.302023 
L 255.914458 315.540749 
L 256.497677 316.047029 
L 256.692083 315.752378 
L 256.886489 316.07621 
L 257.275302 315.954856 
L 257.858521 316.211347 
L 258.052927 315.967257 
L 258.247333 315.976143 
L 258.44174 316.301984 
L 259.219365 316.306345 
L 259.413771 316.162278 
L 259.608178 316.214633 
L 259.802584 316.09855 
L 259.99699 316.16451 
L 260.580209 315.863318 
L 260.969022 316.225752 
L 261.163428 316.194447 
L 261.357834 315.641619 
L 261.941053 315.98981 
L 262.13546 316.329292 
L 262.329866 316.33018 
L 262.524272 316.533984 
L 262.718679 316.374861 
L 263.301898 316.51435 
L 263.496304 316.731917 
L 263.885116 316.716433 
L 264.662742 316.533459 
L 265.440367 316.748601 
L 266.217992 316.329982 
L 266.412399 316.489353 
L 266.801211 316.307276 
L 268.162055 316.592724 
L 268.745274 316.078803 
L 269.134087 316.561591 
L 269.328493 316.432641 
L 269.5229 316.500587 
L 271.466963 315.896598 
L 271.661369 316.244805 
L 272.050182 315.857335 
L 272.244588 316.061402 
L 273.022213 316.057491 
L 273.21662 316.187865 
L 273.411026 315.837499 
L 273.605432 315.806565 
L 274.188651 315.907899 
L 274.383057 316.073801 
L 274.577464 315.928499 
L 274.77187 315.409695 
L 274.966276 316.07639 
L 275.743902 316.169494 
L 275.938308 316.304016 
L 276.132714 316.293634 
L 276.327121 316.440532 
L 277.104746 316.111546 
L 277.299152 315.630966 
L 277.493558 315.62308 
L 277.687965 315.778343 
L 278.46559 315.675699 
L 278.659996 316.001899 
L 279.048809 315.787157 
L 279.632028 315.813579 
L 279.826434 315.393881 
L 280.215247 315.734829 
L 280.409653 315.287338 
L 280.992872 315.225324 
L 281.187278 315.747035 
L 281.381685 315.614165 
L 281.576091 315.24065 
L 281.770497 315.250545 
L 282.353716 315.140614 
L 282.548123 315.563495 
L 282.742529 315.488406 
L 282.936935 315.713781 
L 283.131341 315.738019 
L 283.71456 314.961641 
L 283.908967 314.398748 
L 284.297779 314.444044 
L 284.492186 314.951896 
L 285.075405 314.50121 
L 285.269811 315.090427 
L 285.658624 315.048511 
L 285.85303 314.803659 
L 286.436249 314.989974 
L 286.630655 315.331756 
L 286.825061 315.237057 
L 287.019468 314.358839 
L 287.213874 314.183323 
L 287.991499 314.930552 
L 288.185906 314.912258 
L 288.380312 315.376204 
L 288.574718 315.176644 
L 289.935562 315.29597 
L 290.518781 315.501259 
L 290.713188 315.370863 
L 290.907594 314.894991 
L 291.102 315.548895 
L 291.296407 315.750337 
L 292.268438 315.638203 
L 292.657251 315.213771 
L 293.434876 315.838721 
L 293.629282 315.590282 
L 294.018095 315.790095 
L 294.601314 315.416626 
L 294.79572 315.564988 
L 295.184533 315.198578 
L 295.378939 315.484148 
L 295.962158 315.559533 
L 296.156564 315.445445 
L 296.350971 315.772298 
L 296.545377 315.531721 
L 296.739783 314.672969 
L 297.517409 315.376055 
L 297.711815 315.368586 
L 297.906221 315.100123 
L 298.100628 315.111364 
L 298.878253 314.78279 
L 299.072659 315.124868 
L 300.044691 315.265492 
L 300.239097 315.524255 
L 300.433503 315.425667 
L 300.62791 315.549545 
L 300.822316 315.37904 
L 301.405535 315.204013 
L 301.599941 315.3018 
L 301.988754 315.839806 
L 302.18316 315.795445 
L 302.766379 315.973445 
L 303.155192 315.667045 
L 303.349598 315.757764 
L 303.544004 315.645679 
L 304.516036 316.122784 
L 304.710442 315.941897 
L 304.904848 316.140862 
L 305.488067 316.289534 
L 305.682474 316.090091 
L 305.87688 316.215361 
L 306.071286 316.180242 
L 306.265693 316.00961 
L 306.848912 315.837058 
L 307.237724 316.188876 
L 307.432131 316.243329 
L 307.626537 316.042633 
L 308.209756 315.963951 
L 308.404162 316.272821 
L 308.598568 316.274876 
L 308.792975 316.409082 
L 308.987381 316.265484 
L 309.5706 316.2078 
L 309.765006 315.948783 
L 309.959413 316.158996 
L 310.153819 316.077719 
L 310.348225 315.643886 
L 310.931444 316.039332 
L 311.12585 315.7596 
L 311.320257 316.154585 
L 311.709069 315.791181 
L 312.292288 315.244793 
L 312.681101 314.297406 
L 312.875507 314.766609 
L 313.069914 315.552778 
L 313.653133 315.496566 
L 313.847539 315.595347 
L 314.041945 315.470019 
L 314.430758 315.558509 
L 315.013977 315.131673 
L 315.208383 315.783694 
L 315.402789 315.832541 
L 315.597196 316.101938 
L 315.791602 315.751746 
L 316.374821 315.94374 
L 316.763634 316.297191 
L 316.95804 316.39221 
L 317.152446 315.847652 
L 317.735665 315.86306 
L 317.930071 315.980878 
L 318.124478 315.764536 
L 318.318884 315.910641 
L 320.65176 315.90196 
L 320.846166 315.535737 
L 321.040572 315.744204 
L 321.818198 315.63266 
L 322.012604 315.941742 
L 322.20701 315.9907 
L 322.401417 315.670392 
L 322.595823 315.828935 
L 323.762261 315.811003 
L 323.956667 315.254141 
L 324.539886 314.725079 
L 325.123105 315.905879 
L 325.317511 315.576878 
L 325.90073 314.931635 
L 326.095137 315.276117 
L 326.289543 314.986196 
L 326.483949 315.163344 
L 326.678356 315.63596 
L 327.261574 315.513448 
L 327.650387 314.89097 
L 327.844793 315.409349 
L 328.0392 315.48143 
L 328.622419 315.065906 
L 329.400044 315.91738 
L 330.177669 315.668216 
L 330.760888 315.762196 
L 331.344107 315.688833 
L 331.538513 315.84144 
L 331.927326 315.573882 
L 332.121732 314.698381 
L 332.704951 315.172047 
L 332.899358 315.790433 
L 333.482576 316.122789 
L 334.454608 316.224891 
L 334.649014 315.951652 
L 334.843421 315.928652 
L 335.621046 316.276582 
L 335.815452 316.234316 
L 336.009859 315.507846 
L 337.370703 316.18121 
L 337.565109 316.012657 
L 338.537141 316.147279 
L 338.731547 316.047729 
L 339.509172 316.215201 
L 339.703578 316.096411 
L 339.897985 316.269071 
L 340.092391 315.579042 
L 340.286797 316.130044 
L 340.870016 315.607231 
L 341.064423 315.729644 
L 341.258829 315.688642 
L 341.453235 315.390959 
L 341.647642 315.787776 
L 342.230861 315.485822 
L 342.425267 315.845631 
L 342.619673 315.400495 
L 342.814079 315.530573 
L 343.008486 315.131899 
L 343.591705 314.291212 
L 343.786111 314.321935 
L 343.980517 313.894169 
L 344.174924 313.888723 
L 346.313393 314.334536 
L 346.507799 315.28781 
L 346.702206 314.970662 
L 346.896612 315.444356 
L 347.091018 315.092188 
L 347.674237 314.422217 
L 347.868644 314.730944 
L 348.257456 314.504011 
L 348.451863 314.759526 
L 349.229488 314.961239 
L 349.423894 315.254461 
L 349.6183 315.077975 
L 349.812707 315.212881 
L 350.590332 315.010952 
L 350.784738 315.152042 
L 350.979145 315.036289 
L 351.173551 315.283978 
L 351.75677 314.825378 
L 352.145582 315.15385 
L 352.339989 314.914141 
L 353.117614 315.138542 
L 353.31202 315.431533 
L 353.506427 315.518534 
L 353.700833 315.391051 
L 353.895239 315.641845 
L 354.478458 315.354996 
L 354.672865 315.54416 
L 355.839302 315.534147 
L 356.033709 315.745539 
L 356.422521 315.693478 
L 356.616928 315.760254 
L 357.200147 315.016937 
L 357.394553 315.035036 
L 357.977772 315.670453 
L 358.755397 315.817658 
L 358.949803 315.680054 
L 359.14421 315.726074 
L 359.338616 315.017219 
L 359.921835 314.559001 
L 360.116241 315.091719 
L 361.282679 315.095547 
L 361.671492 315.584364 
L 361.865898 315.301767 
L 362.060304 315.443725 
L 362.643523 315.400361 
L 363.032336 316.054664 
L 363.421149 315.644929 
L 364.004368 315.466509 
L 364.198774 315.893425 
L 364.39318 315.513477 
L 364.781993 315.617162 
L 365.365212 315.494006 
L 365.754024 315.793574 
L 366.142837 315.589876 
L 366.726056 314.754569 
L 367.114869 315.683419 
L 367.309275 314.936399 
L 367.503681 315.656021 
L 368.281306 315.302091 
L 368.475713 315.46998 
L 368.864525 314.07776 
L 369.642151 315.293932 
L 369.836557 315.349031 
L 370.030963 314.398811 
L 370.22537 315.203355 
L 370.808589 314.851374 
L 371.002995 315.31671 
L 371.197401 315.432636 
L 371.391807 315.733656 
L 371.586214 315.533937 
L 372.169433 315.605634 
L 372.363839 315.929072 
L 372.752652 315.913704 
L 372.947058 315.960396 
L 373.530277 315.85151 
L 373.724683 315.375058 
L 373.91909 315.866009 
L 374.113496 315.443792 
L 374.307902 315.853477 
L 374.891121 315.972352 
L 375.085527 315.801618 
L 375.279934 315.84406 
L 375.668746 315.383521 
L 376.640778 315.803966 
L 377.029591 316.056591 
L 377.807216 316.106696 
L 378.001622 315.178841 
L 378.390435 315.672571 
L 378.973654 315.399014 
L 379.362466 316.128005 
L 379.556873 316.005263 
L 379.751279 316.128204 
L 380.334498 316.238446 
L 380.528904 316.405677 
L 380.72331 316.420566 
L 380.917717 315.990907 
L 381.112123 316.081135 
L 381.889748 316.221309 
L 382.084155 316.445766 
L 382.278561 316.258288 
L 382.472967 316.281808 
L 383.250593 316.286614 
L 383.444999 316.372635 
L 383.639405 315.997419 
L 383.833811 315.355296 
L 384.41703 315.596146 
L 384.611437 316.110077 
L 385.000249 316.331541 
L 385.194656 316.236906 
L 385.777875 316.408739 
L 386.166687 316.371964 
L 386.361094 316.340481 
L 386.5555 316.179758 
L 387.527531 316.265798 
L 387.721938 316.088324 
L 387.916344 316.294693 
L 388.499563 316.338117 
L 388.693969 315.279514 
L 388.888376 315.060318 
L 389.082782 315.102989 
L 389.277188 315.260264 
L 389.860407 315.17106 
L 391.610064 314.992652 
L 391.998877 314.814245 
L 392.776502 314.635837 
L 392.970908 314.546633 
L 393.165314 314.161174 
L 393.359721 314.084299 
L 394.331752 313.853675 
L 394.526159 313.7768 
L 396.081409 314.057095 
L 397.053441 314.041768 
L 398.803098 313.824616 
L 399.775129 313.702028 
L 399.969535 313.641482 
L 400.163942 313.908004 
L 400.747161 314.174527 
L 400.941567 314.6804 
L 401.135973 314.063268 
L 401.33038 314.201348 
L 401.524786 314.004566 
L 402.108005 313.807784 
L 402.302411 313.611002 
L 402.691224 313.91929 
L 402.88563 313.836616 
L 403.857662 313.808404 
L 404.829693 313.890097 
L 405.0241 314.343215 
L 405.218506 314.434679 
L 405.412912 314.217268 
L 406.773756 314.28647 
L 406.968163 314.028171 
L 407.551382 314.573848 
L 407.745788 314.294412 
L 408.134601 314.244231 
L 408.329007 314.471856 
L 408.912226 314.908938 
L 409.106632 314.887328 
L 409.301038 314.379247 
L 409.495445 314.869449 
L 409.689851 314.5763 
L 410.27307 315.018548 
L 410.467476 314.097319 
L 410.661883 314.662273 
L 410.856289 314.504145 
L 411.633914 314.68919 
L 411.82832 314.511694 
L 412.022727 314.780934 
L 412.217133 314.244475 
L 412.411539 314.415696 
L 412.994758 314.664258 
L 414.938821 313.807745 
L 421.937449 313.622244 
L 422.520668 314.040756 
L 422.715074 313.94902 
L 423.103887 314.31617 
L 423.298293 313.986139 
L 423.881512 314.130778 
L 424.075918 314.810096 
L 424.270325 315.05497 
L 424.464731 314.600081 
L 424.659137 314.910563 
L 425.436762 314.470614 
L 425.631169 315.131813 
L 425.825575 314.750715 
L 426.797607 314.565185 
L 427.380826 314.28689 
L 427.964044 314.194125 
L 428.158451 315.008888 
L 428.352857 314.851432 
L 428.547263 315.068073 
L 428.74167 317.349561 
L 430.880139 317.225719 
L 431.074545 317.03844 
L 431.074545 317.03844 
" clip-path="url(#p356a09a33d)" style="fill: none; stroke: #008000; stroke-width: 1.5; stroke-linecap: square"/>
   </g>
   <g id="patch_9">
    <path d="M 33.64 317.72 
L 33.64 194.28 
" style="fill: none; stroke: #000000; stroke-width: 0.8; stroke-linejoin: miter; stroke-linecap: square"/>
   </g>
   <g id="patch_10">
    <path d="M 450 317.72 
L 450 194.28 
" style="fill: none; stroke: #000000; stroke-width: 0.8; stroke-linejoin: miter; stroke-linecap: square"/>
   </g>
   <g id="patch_11">
    <path d="M 33.64 317.72 
L 450 317.72 
" style="fill: none; stroke: #000000; stroke-width: 0.8; stroke-linejoin: miter; stroke-linecap: square"/>
   </g>
   <g id="patch_12">
    <path d="M 33.64 194.28 
L 450 194.28 
" style="fill: none; stroke: #000000; stroke-width: 0.8; stroke-linejoin: miter; stroke-linecap: square"/>
   </g>
   <g id="text_30">
    <!-- Volume After Correction -->
    <g transform="translate(170.2475 188.28) scale(0.12 -0.12)">
     <defs>
      <path id="DejaVuSans-41" d="M 2188 4044 
L 1331 1722 
L 3047 1722 
L 2188 4044 
z
M 1831 4666 
L 2547 4666 
L 4325 0 
L 3669 0 
L 3244 1197 
L 1141 1197 
L 716 0 
L 50 0 
L 1831 4666 
z
" transform="scale(0.015625)"/>
     </defs>
     <use xlink:href="#DejaVuSans-56"/>
     <use xlink:href="#DejaVuSans-6f" transform="translate(60.658203 0)"/>
     <use xlink:href="#DejaVuSans-6c" transform="translate(121.839844 0)"/>
     <use xlink:href="#DejaVuSans-75" transform="translate(149.623047 0)"/>
     <use xlink:href="#DejaVuSans-6d" transform="translate(213.001953 0)"/>
     <use xlink:href="#DejaVuSans-65" transform="translate(310.414062 0)"/>
     <use xlink:href="#DejaVuSans-20" transform="translate(371.9375 0)"/>
     <use xlink:href="#DejaVuSans-41" transform="translate(403.724609 0)"/>
     <use xlink:href="#DejaVuSans-66" transform="translate(468.507812 0)"/>
     <use xlink:href="#DejaVuSans-74" transform="translate(501.962891 0)"/>
     <use xlink:href="#DejaVuSans-65" transform="translate(541.171875 0)"/>
     <use xlink:href="#DejaVuSans-72" transform="translate(602.695312 0)"/>
     <use xlink:href="#DejaVuSans-20" transform="translate(643.808594 0)"/>
     <use xlink:href="#DejaVuSans-43" transform="translate(675.595703 0)"/>
     <use xlink:href="#DejaVuSans-6f" transform="translate(745.419922 0)"/>
     <use xlink:href="#DejaVuSans-72" transform="translate(806.601562 0)"/>
     <use xlink:href="#DejaVuSans-72" transform="translate(845.964844 0)"/>
     <use xlink:href="#DejaVuSans-65" transform="translate(884.828125 0)"/>
     <use xlink:href="#DejaVuSans-63" transform="translate(946.351562 0)"/>
     <use xlink:href="#DejaVuSans-74" transform="translate(1001.332031 0)"/>
     <use xlink:href="#DejaVuSans-69" transform="translate(1040.541016 0)"/>
     <use xlink:href="#DejaVuSans-6f" transform="translate(1068.324219 0)"/>
     <use xlink:href="#DejaVuSans-6e" transform="translate(1129.505859 0)"/>
    </g>
   </g>
   <g id="legend_2">
    <g id="patch_13">
     <path d="M 321.63125 216.958125 
L 443 216.958125 
Q 445 216.958125 445 214.958125 
L 445 201.28 
Q 445 199.28 443 199.28 
L 321.63125 199.28 
Q 319.63125 199.28 319.63125 201.28 
L 319.63125 214.958125 
Q 319.63125 216.958125 321.63125 216.958125 
z
" style="fill: #ffffff; opacity: 0.8; stroke: #cccccc; stroke-linejoin: miter"/>
    </g>
    <g id="line2d_28">
     <path d="M 323.63125 207.378437 
L 333.63125 207.378437 
L 343.63125 207.378437 
" style="fill: none; stroke: #008000; stroke-width: 1.5; stroke-linecap: square"/>
    </g>
    <g id="text_31">
     <!-- Corrected Volume -->
     <g transform="translate(351.63125 210.878437) scale(0.1 -0.1)">
      <use xlink:href="#DejaVuSans-43"/>
      <use xlink:href="#DejaVuSans-6f" transform="translate(69.824219 0)"/>
      <use xlink:href="#DejaVuSans-72" transform="translate(131.005859 0)"/>
      <use xlink:href="#DejaVuSans-72" transform="translate(170.369141 0)"/>
      <use xlink:href="#DejaVuSans-65" transform="translate(209.232422 0)"/>
      <use xlink:href="#DejaVuSans-63" transform="translate(270.755859 0)"/>
      <use xlink:href="#DejaVuSans-74" transform="translate(325.736328 0)"/>
      <use xlink:href="#DejaVuSans-65" transform="translate(364.945312 0)"/>
      <use xlink:href="#DejaVuSans-64" transform="translate(426.46875 0)"/>
      <use xlink:href="#DejaVuSans-20" transform="translate(489.945312 0)"/>
      <use xlink:href="#DejaVuSans-56" transform="translate(521.732422 0)"/>
      <use xlink:href="#DejaVuSans-6f" transform="translate(582.390625 0)"/>
      <use xlink:href="#DejaVuSans-6c" transform="translate(643.572266 0)"/>
      <use xlink:href="#DejaVuSans-75" transform="translate(671.355469 0)"/>
      <use xlink:href="#DejaVuSans-6d" transform="translate(734.734375 0)"/>
      <use xlink:href="#DejaVuSans-65" transform="translate(832.146484 0)"/>
     </g>
    </g>
   </g>
  </g>
 </g>
 <defs>
  <clipPath id="p53ab00de2e">
   <rect x="33.64" y="26.88" width="416.36" height="123.44"/>
  </clipPath>
  <clipPath id="p356a09a33d">
   <rect x="33.64" y="194.28" width="416.36" height="123.44"/>
  </clipPath>
 </defs>
</svg>
