<?xml version="1.0" encoding="utf-8" standalone="no"?>
<!DOCTYPE svg PUBLIC "-//W3C//DTD SVG 1.1//EN"
  "http://www.w3.org/Graphics/SVG/1.1/DTD/svg11.dtd">
<svg xmlns:xlink="http://www.w3.org/1999/xlink" width="576pt" height="288pt" viewBox="0 0 576 288" xmlns="http://www.w3.org/2000/svg" version="1.1">
 <metadata>
  <rdf:RDF xmlns:dc="http://purl.org/dc/elements/1.1/" xmlns:cc="http://creativecommons.org/ns#" xmlns:rdf="http://www.w3.org/1999/02/22-rdf-syntax-ns#">
   <cc:Work>
    <dc:type rdf:resource="http://purl.org/dc/dcmitype/StillImage"/>
    <dc:date>2025-05-01T21:24:45.969519</dc:date>
    <dc:format>image/svg+xml</dc:format>
    <dc:creator>
     <cc:Agent>
      <dc:title>Matplotlib v3.10.1, https://matplotlib.org/</dc:title>
     </cc:Agent>
    </dc:creator>
   </cc:Work>
  </rdf:RDF>
 </metadata>
 <defs>
  <style type="text/css">*{stroke-linejoin: round; stroke-linecap: butt}</style>
 </defs>
 <g id="figure_1">
  <g id="patch_1">
   <path d="M 0 288 
L 576 288 
L 576 0 
L 0 0 
z
" style="fill: #ffffff"/>
  </g>
  <g id="axes_1">
   <g id="patch_2">
    <path d="M 57.26 246.04 
L 565.2 246.04 
L 565.2 26.88 
L 57.26 26.88 
z
" style="fill: #ffffff"/>
   </g>
   <g id="matplotlib.axis_1">
    <g id="xtick_1">
     <g id="line2d_1">
      <defs>
       <path id="me8fe1c6f1c" d="M 0 0 
L 0 3.5 
" style="stroke: #000000; stroke-width: 0.8"/>
      </defs>
      <g>
       <use xlink:href="#me8fe1c6f1c" x="105.618829" y="246.04" style="stroke: #000000; stroke-width: 0.8"/>
      </g>
     </g>
     <g id="text_1">
      <!-- 2023-04 -->
      <g transform="translate(84.727422 260.638438) scale(0.1 -0.1)">
       <defs>
        <path id="DejaVuSans-32" d="M 1228 531 
L 3431 531 
L 3431 0 
L 469 0 
L 469 531 
Q 828 903 1448 1529 
Q 2069 2156 2228 2338 
Q 2531 2678 2651 2914 
Q 2772 3150 2772 3378 
Q 2772 3750 2511 3984 
Q 2250 4219 1831 4219 
Q 1534 4219 1204 4116 
Q 875 4013 500 3803 
L 500 4441 
Q 881 4594 1212 4672 
Q 1544 4750 1819 4750 
Q 2544 4750 2975 4387 
Q 3406 4025 3406 3419 
Q 3406 3131 3298 2873 
Q 3191 2616 2906 2266 
Q 2828 2175 2409 1742 
Q 1991 1309 1228 531 
z
" transform="scale(0.015625)"/>
        <path id="DejaVuSans-30" d="M 2034 4250 
Q 1547 4250 1301 3770 
Q 1056 3291 1056 2328 
Q 1056 1369 1301 889 
Q 1547 409 2034 409 
Q 2525 409 2770 889 
Q 3016 1369 3016 2328 
Q 3016 3291 2770 3770 
Q 2525 4250 2034 4250 
z
M 2034 4750 
Q 2819 4750 3233 4129 
Q 3647 3509 3647 2328 
Q 3647 1150 3233 529 
Q 2819 -91 2034 -91 
Q 1250 -91 836 529 
Q 422 1150 422 2328 
Q 422 3509 836 4129 
Q 1250 4750 2034 4750 
z
" transform="scale(0.015625)"/>
        <path id="DejaVuSans-33" d="M 2597 2516 
Q 3050 2419 3304 2112 
Q 3559 1806 3559 1356 
Q 3559 666 3084 287 
Q 2609 -91 1734 -91 
Q 1441 -91 1130 -33 
Q 819 25 488 141 
L 488 750 
Q 750 597 1062 519 
Q 1375 441 1716 441 
Q 2309 441 2620 675 
Q 2931 909 2931 1356 
Q 2931 1769 2642 2001 
Q 2353 2234 1838 2234 
L 1294 2234 
L 1294 2753 
L 1863 2753 
Q 2328 2753 2575 2939 
Q 2822 3125 2822 3475 
Q 2822 3834 2567 4026 
Q 2313 4219 1838 4219 
Q 1578 4219 1281 4162 
Q 984 4106 628 3988 
L 628 4550 
Q 988 4650 1302 4700 
Q 1616 4750 1894 4750 
Q 2613 4750 3031 4423 
Q 3450 4097 3450 3541 
Q 3450 3153 3228 2886 
Q 3006 2619 2597 2516 
z
" transform="scale(0.015625)"/>
        <path id="DejaVuSans-2d" d="M 313 2009 
L 1997 2009 
L 1997 1497 
L 313 1497 
L 313 2009 
z
" transform="scale(0.015625)"/>
        <path id="DejaVuSans-34" d="M 2419 4116 
L 825 1625 
L 2419 1625 
L 2419 4116 
z
M 2253 4666 
L 3047 4666 
L 3047 1625 
L 3713 1625 
L 3713 1100 
L 3047 1100 
L 3047 0 
L 2419 0 
L 2419 1100 
L 313 1100 
L 313 1709 
L 2253 4666 
z
" transform="scale(0.015625)"/>
       </defs>
       <use xlink:href="#DejaVuSans-32"/>
       <use xlink:href="#DejaVuSans-30" transform="translate(63.623047 0)"/>
       <use xlink:href="#DejaVuSans-32" transform="translate(127.246094 0)"/>
       <use xlink:href="#DejaVuSans-33" transform="translate(190.869141 0)"/>
       <use xlink:href="#DejaVuSans-2d" transform="translate(254.492188 0)"/>
       <use xlink:href="#DejaVuSans-30" transform="translate(290.576172 0)"/>
       <use xlink:href="#DejaVuSans-34" transform="translate(354.199219 0)"/>
      </g>
     </g>
    </g>
    <g id="xtick_2">
     <g id="line2d_2">
      <g>
       <use xlink:href="#me8fe1c6f1c" x="157.883121" y="246.04" style="stroke: #000000; stroke-width: 0.8"/>
      </g>
     </g>
     <g id="text_2">
      <!-- 2023-07 -->
      <g transform="translate(136.991715 260.638438) scale(0.1 -0.1)">
       <defs>
        <path id="DejaVuSans-37" d="M 525 4666 
L 3525 4666 
L 3525 4397 
L 1831 0 
L 1172 0 
L 2766 4134 
L 525 4134 
L 525 4666 
z
" transform="scale(0.015625)"/>
       </defs>
       <use xlink:href="#DejaVuSans-32"/>
       <use xlink:href="#DejaVuSans-30" transform="translate(63.623047 0)"/>
       <use xlink:href="#DejaVuSans-32" transform="translate(127.246094 0)"/>
       <use xlink:href="#DejaVuSans-33" transform="translate(190.869141 0)"/>
       <use xlink:href="#DejaVuSans-2d" transform="translate(254.492188 0)"/>
       <use xlink:href="#DejaVuSans-30" transform="translate(290.576172 0)"/>
       <use xlink:href="#DejaVuSans-37" transform="translate(354.199219 0)"/>
      </g>
     </g>
    </g>
    <g id="xtick_3">
     <g id="line2d_3">
      <g>
       <use xlink:href="#me8fe1c6f1c" x="210.721746" y="246.04" style="stroke: #000000; stroke-width: 0.8"/>
      </g>
     </g>
     <g id="text_3">
      <!-- 2023-10 -->
      <g transform="translate(189.83034 260.638438) scale(0.1 -0.1)">
       <defs>
        <path id="DejaVuSans-31" d="M 794 531 
L 1825 531 
L 1825 4091 
L 703 3866 
L 703 4441 
L 1819 4666 
L 2450 4666 
L 2450 531 
L 3481 531 
L 3481 0 
L 794 0 
L 794 531 
z
" transform="scale(0.015625)"/>
       </defs>
       <use xlink:href="#DejaVuSans-32"/>
       <use xlink:href="#DejaVuSans-30" transform="translate(63.623047 0)"/>
       <use xlink:href="#DejaVuSans-32" transform="translate(127.246094 0)"/>
       <use xlink:href="#DejaVuSans-33" transform="translate(190.869141 0)"/>
       <use xlink:href="#DejaVuSans-2d" transform="translate(254.492188 0)"/>
       <use xlink:href="#DejaVuSans-31" transform="translate(290.576172 0)"/>
       <use xlink:href="#DejaVuSans-30" transform="translate(354.199219 0)"/>
      </g>
     </g>
    </g>
    <g id="xtick_4">
     <g id="line2d_4">
      <g>
       <use xlink:href="#me8fe1c6f1c" x="263.560371" y="246.04" style="stroke: #000000; stroke-width: 0.8"/>
      </g>
     </g>
     <g id="text_4">
      <!-- 2024-01 -->
      <g transform="translate(242.668965 260.638438) scale(0.1 -0.1)">
       <use xlink:href="#DejaVuSans-32"/>
       <use xlink:href="#DejaVuSans-30" transform="translate(63.623047 0)"/>
       <use xlink:href="#DejaVuSans-32" transform="translate(127.246094 0)"/>
       <use xlink:href="#DejaVuSans-34" transform="translate(190.869141 0)"/>
       <use xlink:href="#DejaVuSans-2d" transform="translate(254.492188 0)"/>
       <use xlink:href="#DejaVuSans-30" transform="translate(290.576172 0)"/>
       <use xlink:href="#DejaVuSans-31" transform="translate(354.199219 0)"/>
      </g>
     </g>
    </g>
    <g id="xtick_5">
     <g id="line2d_5">
      <g>
       <use xlink:href="#me8fe1c6f1c" x="315.824663" y="246.04" style="stroke: #000000; stroke-width: 0.8"/>
      </g>
     </g>
     <g id="text_5">
      <!-- 2024-04 -->
      <g transform="translate(294.933257 260.638438) scale(0.1 -0.1)">
       <use xlink:href="#DejaVuSans-32"/>
       <use xlink:href="#DejaVuSans-30" transform="translate(63.623047 0)"/>
       <use xlink:href="#DejaVuSans-32" transform="translate(127.246094 0)"/>
       <use xlink:href="#DejaVuSans-34" transform="translate(190.869141 0)"/>
       <use xlink:href="#DejaVuSans-2d" transform="translate(254.492188 0)"/>
       <use xlink:href="#DejaVuSans-30" transform="translate(290.576172 0)"/>
       <use xlink:href="#DejaVuSans-34" transform="translate(354.199219 0)"/>
      </g>
     </g>
    </g>
    <g id="xtick_6">
     <g id="line2d_6">
      <g>
       <use xlink:href="#me8fe1c6f1c" x="368.088955" y="246.04" style="stroke: #000000; stroke-width: 0.8"/>
      </g>
     </g>
     <g id="text_6">
      <!-- 2024-07 -->
      <g transform="translate(347.197549 260.638438) scale(0.1 -0.1)">
       <use xlink:href="#DejaVuSans-32"/>
       <use xlink:href="#DejaVuSans-30" transform="translate(63.623047 0)"/>
       <use xlink:href="#DejaVuSans-32" transform="translate(127.246094 0)"/>
       <use xlink:href="#DejaVuSans-34" transform="translate(190.869141 0)"/>
       <use xlink:href="#DejaVuSans-2d" transform="translate(254.492188 0)"/>
       <use xlink:href="#DejaVuSans-30" transform="translate(290.576172 0)"/>
       <use xlink:href="#DejaVuSans-37" transform="translate(354.199219 0)"/>
      </g>
     </g>
    </g>
    <g id="xtick_7">
     <g id="line2d_7">
      <g>
       <use xlink:href="#me8fe1c6f1c" x="420.92758" y="246.04" style="stroke: #000000; stroke-width: 0.8"/>
      </g>
     </g>
     <g id="text_7">
      <!-- 2024-10 -->
      <g transform="translate(400.036174 260.638438) scale(0.1 -0.1)">
       <use xlink:href="#DejaVuSans-32"/>
       <use xlink:href="#DejaVuSans-30" transform="translate(63.623047 0)"/>
       <use xlink:href="#DejaVuSans-32" transform="translate(127.246094 0)"/>
       <use xlink:href="#DejaVuSans-34" transform="translate(190.869141 0)"/>
       <use xlink:href="#DejaVuSans-2d" transform="translate(254.492188 0)"/>
       <use xlink:href="#DejaVuSans-31" transform="translate(290.576172 0)"/>
       <use xlink:href="#DejaVuSans-30" transform="translate(354.199219 0)"/>
      </g>
     </g>
    </g>
    <g id="xtick_8">
     <g id="line2d_8">
      <g>
       <use xlink:href="#me8fe1c6f1c" x="473.766205" y="246.04" style="stroke: #000000; stroke-width: 0.8"/>
      </g>
     </g>
     <g id="text_8">
      <!-- 2025-01 -->
      <g transform="translate(452.874799 260.638438) scale(0.1 -0.1)">
       <defs>
        <path id="DejaVuSans-35" d="M 691 4666 
L 3169 4666 
L 3169 4134 
L 1269 4134 
L 1269 2991 
Q 1406 3038 1543 3061 
Q 1681 3084 1819 3084 
Q 2600 3084 3056 2656 
Q 3513 2228 3513 1497 
Q 3513 744 3044 326 
Q 2575 -91 1722 -91 
Q 1428 -91 1123 -41 
Q 819 9 494 109 
L 494 744 
Q 775 591 1075 516 
Q 1375 441 1709 441 
Q 2250 441 2565 725 
Q 2881 1009 2881 1497 
Q 2881 1984 2565 2268 
Q 2250 2553 1709 2553 
Q 1456 2553 1204 2497 
Q 953 2441 691 2322 
L 691 4666 
z
" transform="scale(0.015625)"/>
       </defs>
       <use xlink:href="#DejaVuSans-32"/>
       <use xlink:href="#DejaVuSans-30" transform="translate(63.623047 0)"/>
       <use xlink:href="#DejaVuSans-32" transform="translate(127.246094 0)"/>
       <use xlink:href="#DejaVuSans-35" transform="translate(190.869141 0)"/>
       <use xlink:href="#DejaVuSans-2d" transform="translate(254.492188 0)"/>
       <use xlink:href="#DejaVuSans-30" transform="translate(290.576172 0)"/>
       <use xlink:href="#DejaVuSans-31" transform="translate(354.199219 0)"/>
      </g>
     </g>
    </g>
    <g id="xtick_9">
     <g id="line2d_9">
      <g>
       <use xlink:href="#me8fe1c6f1c" x="525.456165" y="246.04" style="stroke: #000000; stroke-width: 0.8"/>
      </g>
     </g>
     <g id="text_9">
      <!-- 2025-04 -->
      <g transform="translate(504.564758 260.638438) scale(0.1 -0.1)">
       <use xlink:href="#DejaVuSans-32"/>
       <use xlink:href="#DejaVuSans-30" transform="translate(63.623047 0)"/>
       <use xlink:href="#DejaVuSans-32" transform="translate(127.246094 0)"/>
       <use xlink:href="#DejaVuSans-35" transform="translate(190.869141 0)"/>
       <use xlink:href="#DejaVuSans-2d" transform="translate(254.492188 0)"/>
       <use xlink:href="#DejaVuSans-30" transform="translate(290.576172 0)"/>
       <use xlink:href="#DejaVuSans-34" transform="translate(354.199219 0)"/>
      </g>
     </g>
    </g>
    <g id="text_10">
     <!-- Date -->
     <g transform="translate(299.279219 274.316562) scale(0.1 -0.1)">
      <defs>
       <path id="DejaVuSans-44" d="M 1259 4147 
L 1259 519 
L 2022 519 
Q 2988 519 3436 956 
Q 3884 1394 3884 2338 
Q 3884 3275 3436 3711 
Q 2988 4147 2022 4147 
L 1259 4147 
z
M 628 4666 
L 1925 4666 
Q 3281 4666 3915 4102 
Q 4550 3538 4550 2338 
Q 4550 1131 3912 565 
Q 3275 0 1925 0 
L 628 0 
L 628 4666 
z
" transform="scale(0.015625)"/>
       <path id="DejaVuSans-61" d="M 2194 1759 
Q 1497 1759 1228 1600 
Q 959 1441 959 1056 
Q 959 750 1161 570 
Q 1363 391 1709 391 
Q 2188 391 2477 730 
Q 2766 1069 2766 1631 
L 2766 1759 
L 2194 1759 
z
M 3341 1997 
L 3341 0 
L 2766 0 
L 2766 531 
Q 2569 213 2275 61 
Q 1981 -91 1556 -91 
Q 1019 -91 701 211 
Q 384 513 384 1019 
Q 384 1609 779 1909 
Q 1175 2209 1959 2209 
L 2766 2209 
L 2766 2266 
Q 2766 2663 2505 2880 
Q 2244 3097 1772 3097 
Q 1472 3097 1187 3025 
Q 903 2953 641 2809 
L 641 3341 
Q 956 3463 1253 3523 
Q 1550 3584 1831 3584 
Q 2591 3584 2966 3190 
Q 3341 2797 3341 1997 
z
" transform="scale(0.015625)"/>
       <path id="DejaVuSans-74" d="M 1172 4494 
L 1172 3500 
L 2356 3500 
L 2356 3053 
L 1172 3053 
L 1172 1153 
Q 1172 725 1289 603 
Q 1406 481 1766 481 
L 2356 481 
L 2356 0 
L 1766 0 
Q 1100 0 847 248 
Q 594 497 594 1153 
L 594 3053 
L 172 3053 
L 172 3500 
L 594 3500 
L 594 4494 
L 1172 4494 
z
" transform="scale(0.015625)"/>
       <path id="DejaVuSans-65" d="M 3597 1894 
L 3597 1613 
L 953 1613 
Q 991 1019 1311 708 
Q 1631 397 2203 397 
Q 2534 397 2845 478 
Q 3156 559 3463 722 
L 3463 178 
Q 3153 47 2828 -22 
Q 2503 -91 2169 -91 
Q 1331 -91 842 396 
Q 353 884 353 1716 
Q 353 2575 817 3079 
Q 1281 3584 2069 3584 
Q 2775 3584 3186 3129 
Q 3597 2675 3597 1894 
z
M 3022 2063 
Q 3016 2534 2758 2815 
Q 2500 3097 2075 3097 
Q 1594 3097 1305 2825 
Q 1016 2553 972 2059 
L 3022 2063 
z
" transform="scale(0.015625)"/>
      </defs>
      <use xlink:href="#DejaVuSans-44"/>
      <use xlink:href="#DejaVuSans-61" transform="translate(77.001953 0)"/>
      <use xlink:href="#DejaVuSans-74" transform="translate(138.28125 0)"/>
      <use xlink:href="#DejaVuSans-65" transform="translate(177.490234 0)"/>
     </g>
    </g>
   </g>
   <g id="matplotlib.axis_2">
    <g id="ytick_1">
     <g id="line2d_10">
      <defs>
       <path id="mb94d0e6651" d="M 0 0 
L -3.5 0 
" style="stroke: #000000; stroke-width: 0.8"/>
      </defs>
      <g>
       <use xlink:href="#mb94d0e6651" x="57.26" y="222.501655" style="stroke: #000000; stroke-width: 0.8"/>
      </g>
     </g>
     <g id="text_11">
      <!-- 1600 -->
      <g transform="translate(24.81 226.300874) scale(0.1 -0.1)">
       <defs>
        <path id="DejaVuSans-36" d="M 2113 2584 
Q 1688 2584 1439 2293 
Q 1191 2003 1191 1497 
Q 1191 994 1439 701 
Q 1688 409 2113 409 
Q 2538 409 2786 701 
Q 3034 994 3034 1497 
Q 3034 2003 2786 2293 
Q 2538 2584 2113 2584 
z
M 3366 4563 
L 3366 3988 
Q 3128 4100 2886 4159 
Q 2644 4219 2406 4219 
Q 1781 4219 1451 3797 
Q 1122 3375 1075 2522 
Q 1259 2794 1537 2939 
Q 1816 3084 2150 3084 
Q 2853 3084 3261 2657 
Q 3669 2231 3669 1497 
Q 3669 778 3244 343 
Q 2819 -91 2113 -91 
Q 1303 -91 875 529 
Q 447 1150 447 2328 
Q 447 3434 972 4092 
Q 1497 4750 2381 4750 
Q 2619 4750 2861 4703 
Q 3103 4656 3366 4563 
z
" transform="scale(0.015625)"/>
       </defs>
       <use xlink:href="#DejaVuSans-31"/>
       <use xlink:href="#DejaVuSans-36" transform="translate(63.623047 0)"/>
       <use xlink:href="#DejaVuSans-30" transform="translate(127.246094 0)"/>
       <use xlink:href="#DejaVuSans-30" transform="translate(190.869141 0)"/>
      </g>
     </g>
    </g>
    <g id="ytick_2">
     <g id="line2d_11">
      <g>
       <use xlink:href="#mb94d0e6651" x="57.26" y="183.42689" style="stroke: #000000; stroke-width: 0.8"/>
      </g>
     </g>
     <g id="text_12">
      <!-- 1800 -->
      <g transform="translate(24.81 187.226109) scale(0.1 -0.1)">
       <defs>
        <path id="DejaVuSans-38" d="M 2034 2216 
Q 1584 2216 1326 1975 
Q 1069 1734 1069 1313 
Q 1069 891 1326 650 
Q 1584 409 2034 409 
Q 2484 409 2743 651 
Q 3003 894 3003 1313 
Q 3003 1734 2745 1975 
Q 2488 2216 2034 2216 
z
M 1403 2484 
Q 997 2584 770 2862 
Q 544 3141 544 3541 
Q 544 4100 942 4425 
Q 1341 4750 2034 4750 
Q 2731 4750 3128 4425 
Q 3525 4100 3525 3541 
Q 3525 3141 3298 2862 
Q 3072 2584 2669 2484 
Q 3125 2378 3379 2068 
Q 3634 1759 3634 1313 
Q 3634 634 3220 271 
Q 2806 -91 2034 -91 
Q 1263 -91 848 271 
Q 434 634 434 1313 
Q 434 1759 690 2068 
Q 947 2378 1403 2484 
z
M 1172 3481 
Q 1172 3119 1398 2916 
Q 1625 2713 2034 2713 
Q 2441 2713 2670 2916 
Q 2900 3119 2900 3481 
Q 2900 3844 2670 4047 
Q 2441 4250 2034 4250 
Q 1625 4250 1398 4047 
Q 1172 3844 1172 3481 
z
" transform="scale(0.015625)"/>
       </defs>
       <use xlink:href="#DejaVuSans-31"/>
       <use xlink:href="#DejaVuSans-38" transform="translate(63.623047 0)"/>
       <use xlink:href="#DejaVuSans-30" transform="translate(127.246094 0)"/>
       <use xlink:href="#DejaVuSans-30" transform="translate(190.869141 0)"/>
      </g>
     </g>
    </g>
    <g id="ytick_3">
     <g id="line2d_12">
      <g>
       <use xlink:href="#mb94d0e6651" x="57.26" y="144.352126" style="stroke: #000000; stroke-width: 0.8"/>
      </g>
     </g>
     <g id="text_13">
      <!-- 2000 -->
      <g transform="translate(24.81 148.151344) scale(0.1 -0.1)">
       <use xlink:href="#DejaVuSans-32"/>
       <use xlink:href="#DejaVuSans-30" transform="translate(63.623047 0)"/>
       <use xlink:href="#DejaVuSans-30" transform="translate(127.246094 0)"/>
       <use xlink:href="#DejaVuSans-30" transform="translate(190.869141 0)"/>
      </g>
     </g>
    </g>
    <g id="ytick_4">
     <g id="line2d_13">
      <g>
       <use xlink:href="#mb94d0e6651" x="57.26" y="105.277361" style="stroke: #000000; stroke-width: 0.8"/>
      </g>
     </g>
     <g id="text_14">
      <!-- 2200 -->
      <g transform="translate(24.81 109.07658) scale(0.1 -0.1)">
       <use xlink:href="#DejaVuSans-32"/>
       <use xlink:href="#DejaVuSans-32" transform="translate(63.623047 0)"/>
       <use xlink:href="#DejaVuSans-30" transform="translate(127.246094 0)"/>
       <use xlink:href="#DejaVuSans-30" transform="translate(190.869141 0)"/>
      </g>
     </g>
    </g>
    <g id="ytick_5">
     <g id="line2d_14">
      <g>
       <use xlink:href="#mb94d0e6651" x="57.26" y="66.202596" style="stroke: #000000; stroke-width: 0.8"/>
      </g>
     </g>
     <g id="text_15">
      <!-- 2400 -->
      <g transform="translate(24.81 70.001815) scale(0.1 -0.1)">
       <use xlink:href="#DejaVuSans-32"/>
       <use xlink:href="#DejaVuSans-34" transform="translate(63.623047 0)"/>
       <use xlink:href="#DejaVuSans-30" transform="translate(127.246094 0)"/>
       <use xlink:href="#DejaVuSans-30" transform="translate(190.869141 0)"/>
      </g>
     </g>
    </g>
    <g id="ytick_6">
     <g id="line2d_15">
      <g>
       <use xlink:href="#mb94d0e6651" x="57.26" y="27.127832" style="stroke: #000000; stroke-width: 0.8"/>
      </g>
     </g>
     <g id="text_16">
      <!-- 2600 -->
      <g transform="translate(24.81 30.92705) scale(0.1 -0.1)">
       <use xlink:href="#DejaVuSans-32"/>
       <use xlink:href="#DejaVuSans-36" transform="translate(63.623047 0)"/>
       <use xlink:href="#DejaVuSans-30" transform="translate(127.246094 0)"/>
       <use xlink:href="#DejaVuSans-30" transform="translate(190.869141 0)"/>
      </g>
     </g>
    </g>
    <g id="text_17">
     <!-- Stock Price -->
     <g transform="translate(18.730313 164.085) rotate(-90) scale(0.1 -0.1)">
      <defs>
       <path id="DejaVuSans-53" d="M 3425 4513 
L 3425 3897 
Q 3066 4069 2747 4153 
Q 2428 4238 2131 4238 
Q 1616 4238 1336 4038 
Q 1056 3838 1056 3469 
Q 1056 3159 1242 3001 
Q 1428 2844 1947 2747 
L 2328 2669 
Q 3034 2534 3370 2195 
Q 3706 1856 3706 1288 
Q 3706 609 3251 259 
Q 2797 -91 1919 -91 
Q 1588 -91 1214 -16 
Q 841 59 441 206 
L 441 856 
Q 825 641 1194 531 
Q 1563 422 1919 422 
Q 2459 422 2753 634 
Q 3047 847 3047 1241 
Q 3047 1584 2836 1778 
Q 2625 1972 2144 2069 
L 1759 2144 
Q 1053 2284 737 2584 
Q 422 2884 422 3419 
Q 422 4038 858 4394 
Q 1294 4750 2059 4750 
Q 2388 4750 2728 4690 
Q 3069 4631 3425 4513 
z
" transform="scale(0.015625)"/>
       <path id="DejaVuSans-6f" d="M 1959 3097 
Q 1497 3097 1228 2736 
Q 959 2375 959 1747 
Q 959 1119 1226 758 
Q 1494 397 1959 397 
Q 2419 397 2687 759 
Q 2956 1122 2956 1747 
Q 2956 2369 2687 2733 
Q 2419 3097 1959 3097 
z
M 1959 3584 
Q 2709 3584 3137 3096 
Q 3566 2609 3566 1747 
Q 3566 888 3137 398 
Q 2709 -91 1959 -91 
Q 1206 -91 779 398 
Q 353 888 353 1747 
Q 353 2609 779 3096 
Q 1206 3584 1959 3584 
z
" transform="scale(0.015625)"/>
       <path id="DejaVuSans-63" d="M 3122 3366 
L 3122 2828 
Q 2878 2963 2633 3030 
Q 2388 3097 2138 3097 
Q 1578 3097 1268 2742 
Q 959 2388 959 1747 
Q 959 1106 1268 751 
Q 1578 397 2138 397 
Q 2388 397 2633 464 
Q 2878 531 3122 666 
L 3122 134 
Q 2881 22 2623 -34 
Q 2366 -91 2075 -91 
Q 1284 -91 818 406 
Q 353 903 353 1747 
Q 353 2603 823 3093 
Q 1294 3584 2113 3584 
Q 2378 3584 2631 3529 
Q 2884 3475 3122 3366 
z
" transform="scale(0.015625)"/>
       <path id="DejaVuSans-6b" d="M 581 4863 
L 1159 4863 
L 1159 1991 
L 2875 3500 
L 3609 3500 
L 1753 1863 
L 3688 0 
L 2938 0 
L 1159 1709 
L 1159 0 
L 581 0 
L 581 4863 
z
" transform="scale(0.015625)"/>
       <path id="DejaVuSans-20" transform="scale(0.015625)"/>
       <path id="DejaVuSans-50" d="M 1259 4147 
L 1259 2394 
L 2053 2394 
Q 2494 2394 2734 2622 
Q 2975 2850 2975 3272 
Q 2975 3691 2734 3919 
Q 2494 4147 2053 4147 
L 1259 4147 
z
M 628 4666 
L 2053 4666 
Q 2838 4666 3239 4311 
Q 3641 3956 3641 3272 
Q 3641 2581 3239 2228 
Q 2838 1875 2053 1875 
L 1259 1875 
L 1259 0 
L 628 0 
L 628 4666 
z
" transform="scale(0.015625)"/>
       <path id="DejaVuSans-72" d="M 2631 2963 
Q 2534 3019 2420 3045 
Q 2306 3072 2169 3072 
Q 1681 3072 1420 2755 
Q 1159 2438 1159 1844 
L 1159 0 
L 581 0 
L 581 3500 
L 1159 3500 
L 1159 2956 
Q 1341 3275 1631 3429 
Q 1922 3584 2338 3584 
Q 2397 3584 2469 3576 
Q 2541 3569 2628 3553 
L 2631 2963 
z
" transform="scale(0.015625)"/>
       <path id="DejaVuSans-69" d="M 603 3500 
L 1178 3500 
L 1178 0 
L 603 0 
L 603 3500 
z
M 603 4863 
L 1178 4863 
L 1178 4134 
L 603 4134 
L 603 4863 
z
" transform="scale(0.015625)"/>
      </defs>
      <use xlink:href="#DejaVuSans-53"/>
      <use xlink:href="#DejaVuSans-74" transform="translate(63.476562 0)"/>
      <use xlink:href="#DejaVuSans-6f" transform="translate(102.685547 0)"/>
      <use xlink:href="#DejaVuSans-63" transform="translate(163.867188 0)"/>
      <use xlink:href="#DejaVuSans-6b" transform="translate(218.847656 0)"/>
      <use xlink:href="#DejaVuSans-20" transform="translate(276.757812 0)"/>
      <use xlink:href="#DejaVuSans-50" transform="translate(308.544922 0)"/>
      <use xlink:href="#DejaVuSans-72" transform="translate(367.097656 0)"/>
      <use xlink:href="#DejaVuSans-69" transform="translate(408.210938 0)"/>
      <use xlink:href="#DejaVuSans-63" transform="translate(435.994141 0)"/>
      <use xlink:href="#DejaVuSans-65" transform="translate(490.974609 0)"/>
     </g>
    </g>
   </g>
   <g id="line2d_16">
    <path d="M 80.348182 44.223041 
L 80.922515 56.560898 
L 82.645513 50.418345 
L 83.219846 52.56355 
L 83.794179 56.062695 
L 84.368512 54.972509 
L 84.942845 60.548478 
L 86.665844 64.289887 
L 87.240176 60.530894 
L 87.814509 57.615917 
L 88.388842 62.568643 
L 88.963175 61.818408 
L 90.686174 60.036598 
L 91.260507 69.381328 
L 92.409172 71.540209 
L 92.983505 71.993476 
L 94.706504 74.589995 
L 95.280837 77.317413 
L 95.85517 78.421275 
L 96.429502 85.339462 
L 97.003835 86.976695 
L 98.726834 87.318599 
L 99.301167 78.46035 
L 99.8755 77.549908 
L 100.449833 73.742072 
L 102.747164 66.589436 
L 103.321497 72.225971 
L 103.89583 71.831316 
L 104.470163 69.516136 
L 105.044496 66.300283 
L 106.767494 58.346615 
L 107.341827 61.972753 
L 108.490493 61.011514 
L 109.064826 57.029795 
L 110.787825 57.699928 
L 111.362157 58.504868 
L 111.93649 60.480097 
L 112.510823 65.077243 
L 113.085156 60.714546 
L 114.808155 59.473922 
L 115.382488 60.12647 
L 115.95682 63.123505 
L 116.531153 68.806929 
L 117.105486 77.692531 
L 118.828485 85.497715 
L 119.402818 93.713184 
L 119.977151 86.900499 
L 120.551483 84.319611 
L 121.125816 80.910338 
L 124.571814 86.1952 
L 125.146147 92.064229 
L 126.869145 90.936922 
L 127.443478 96.325332 
L 128.592144 90.317587 
L 129.166477 95.04368 
L 130.889475 85.753655 
L 131.463808 86.875101 
L 132.038141 86.982556 
L 132.612474 90.044064 
L 134.909806 89.618149 
L 135.484138 94.858075 
L 136.058471 96.434742 
L 136.632804 96.645745 
L 137.207137 99.558769 
L 138.930136 104.527125 
L 139.504469 101.643408 
L 140.078801 106.564874 
L 140.653134 104.021107 
L 141.227467 98.777274 
L 142.950466 104.859261 
L 144.099132 118.973066 
L 144.673464 120.133586 
L 145.247797 116.411715 
L 146.970796 114.573247 
L 147.545129 111.732512 
L 148.119462 112.439765 
L 148.693795 97.903953 
L 149.268128 91.589471 
L 150.991126 92.542895 
L 151.565459 91.323763 
L 152.139792 102.964135 
L 155.011456 107.963751 
L 155.585789 106.873565 
L 156.160122 108.774552 
L 156.734455 109.173115 
L 157.308788 102.346754 
L 159.606119 98.878868 
L 161.329118 111.292921 
L 163.052117 105.500087 
L 163.62645 101.998988 
L 164.200782 105.892788 
L 164.775115 97.946935 
L 165.349448 100.568852 
L 167.072447 103.82378 
L 167.64678 105.156229 
L 168.795445 113.94219 
L 169.369778 112.482748 
L 171.092777 115.64585 
L 171.66711 106.664515 
L 172.241443 107.002512 
L 172.815776 108.383805 
L 173.390109 101.459756 
L 175.113107 98.113003 
L 175.68744 100.627464 
L 176.261773 101.649269 
L 177.410439 92.896522 
L 179.133437 97.31197 
L 179.70777 99.629104 
L 180.282103 99.664271 
L 180.856436 97.597216 
L 181.430769 107.809406 
L 183.153768 112.176011 
L 184.302433 118.373268 
L 184.876766 115.620451 
L 185.451099 121.118271 
L 187.174098 127.751212 
L 187.748431 127.366325 
L 188.322763 136.736454 
L 188.897096 131.736838 
L 189.471429 136.459023 
L 191.194428 132.621881 
L 191.768761 121.260893 
L 192.343094 121.46799 
L 192.917427 124.310679 
L 193.491759 124.763946 
L 195.214758 121.292153 
L 195.789091 122.601158 
L 196.363424 124.54122 
L 196.937757 133.219725 
L 197.51209 134.62837 
L 199.235088 132.006454 
L 199.809421 134.380246 
L 200.383754 138.934409 
L 200.958087 142.031085 
L 201.53242 143.818755 
L 203.255418 140.352823 
L 204.978417 150.680284 
L 205.55275 141.745839 
L 207.275749 143.324459 
L 207.850081 146.339077 
L 208.424414 143.1369 
L 208.998747 143.588214 
L 215.316409 144.623695 
L 215.890742 146.708334 
L 217.039408 140.620486 
L 217.61374 145.016397 
L 219.336739 152.807905 
L 219.911072 151.797822 
L 221.059738 161.212887 
L 221.634071 164.485398 
L 223.357069 170.745175 
L 223.931402 167.638732 
L 224.505735 170.96204 
L 225.080068 168.605832 
L 225.654401 158.045877 
L 227.377399 148.710916 
L 228.526065 152.337054 
L 229.100398 156.133167 
L 229.674731 150.563059 
L 231.39773 138.033736 
L 231.972062 139.903464 
L 232.546395 139.833129 
L 233.120728 140.761155 
L 233.695061 143.328367 
L 235.41806 142.552733 
L 235.992393 143.412377 
L 236.566725 141.351184 
L 237.141058 148.626905 
L 237.715391 146.983811 
L 239.43839 145.725604 
L 240.012723 147.425356 
L 240.587056 154.118863 
L 241.161389 151.903324 
L 241.735721 156.477025 
L 243.45872 158.770714 
L 244.033053 156.383246 
L 244.607386 160.392316 
L 245.756052 158.755084 
L 247.47905 162.146773 
L 248.053383 169.535811 
L 248.627716 167.417959 
L 249.202049 168.342077 
L 249.776382 165.417331 
L 251.49938 160.814324 
L 252.073713 163.133411 
L 252.648046 169.293548 
L 253.796712 173.95126 
L 255.519711 179.519414 
L 256.094043 178.020897 
L 256.668376 182.864214 
L 257.242709 177.053796 
L 257.817042 178.378431 
L 259.540041 177.258939 
L 260.114374 181.766213 
L 260.688706 181.506366 
L 261.263039 167.894671 
L 261.837372 165.575584 
L 264.134704 172.501586 
L 264.709037 176.641557 
L 265.28337 183.083032 
L 265.857702 188.197919 
L 267.580701 194.287721 
L 268.155034 193.04319 
L 268.729367 194.524123 
L 269.3037 187.867737 
L 269.878033 191.01521 
L 271.601031 194.053272 
L 272.175364 192.759898 
L 272.749697 203.038515 
L 273.32403 196.641976 
L 275.621361 209.435054 
L 276.195694 205.384954 
L 276.770027 203.708647 
L 277.34436 198.904404 
L 277.918693 206.387222 
L 279.641692 217.849804 
L 280.216024 225.672572 
L 280.790357 227.70446 
L 281.36469 224.642952 
L 281.939023 232.198058 
L 283.662022 229.806682 
L 284.236355 209.32369 
L 284.810687 201.592748 
L 285.38502 197.716532 
L 291.702682 193.89502 
L 292.277015 193.941909 
L 293.425681 191.657989 
L 294.000014 191.59547 
L 295.723012 192.863446 
L 296.297345 184.603041 
L 296.871678 193.396816 
L 297.446011 182.053412 
L 298.020344 178.732057 
L 299.743342 176.62202 
L 300.892008 177.061611 
L 301.466341 185.392351 
L 302.040674 182.002615 
L 303.763673 165.763143 
L 304.338005 162.70945 
L 305.486671 167.206955 
L 306.061004 166.997905 
L 307.784003 158.731639 
L 308.358336 162.533614 
L 308.932668 162.0823 
L 309.507001 164.458046 
L 310.081334 169.912883 
L 311.804333 176.89359 
L 312.378666 175.311062 
L 312.952999 185.415796 
L 313.527332 182.078811 
L 314.101664 179.871087 
L 315.824663 169.33653 
L 316.398996 171.608728 
L 316.973329 175.531834 
L 319.844993 182.049505 
L 320.419326 178.03848 
L 320.993659 185.392351 
L 321.567992 186.926035 
L 322.142325 190.679167 
L 323.865323 184.302165 
L 324.439656 191.202768 
L 325.013989 183.952446 
L 325.588322 185.871017 
L 326.162655 192.023338 
L 327.885654 193.105709 
L 328.459986 192.5782 
L 329.034319 190.184871 
L 329.608652 190.317725 
L 330.182985 178.788716 
L 331.905984 166.318005 
L 332.480317 172.019013 
L 335.926314 164.825349 
L 336.500647 165.346997 
L 337.07498 170.706101 
L 337.649313 163.887554 
L 338.223645 168.154518 
L 340.520977 172.564106 
L 341.09531 175.828802 
L 341.669643 174.789413 
L 342.243976 170.739314 
L 343.966974 168.592156 
L 344.541307 171.415308 
L 345.11564 168.201408 
L 345.689973 173.253775 
L 346.264306 179.800752 
L 347.987304 177.378117 
L 348.561637 182.205804 
L 349.13597 181.264102 
L 349.710303 180.857724 
L 350.284636 182.42853 
L 352.007635 179.624916 
L 352.581967 174.910545 
L 353.1563 176.872098 
L 353.730633 179.431496 
L 354.304966 187.125317 
L 356.602298 185.908138 
L 357.17663 187.447683 
L 357.750963 187.766143 
L 358.325296 185.11492 
L 360.622628 181.207444 
L 361.771294 190.714334 
L 362.345626 192.046783 
L 364.068625 196.808043 
L 364.642958 202.960365 
L 365.217291 196.978019 
L 365.791624 202.339076 
L 366.365957 206.201617 
L 368.088955 206.346193 
L 368.663288 209.794541 
L 369.237621 210.755781 
L 369.811954 213.276103 
L 370.386287 211.640824 
L 372.109285 216.882704 
L 372.683618 212.318771 
L 373.257951 212.516099 
L 373.832284 205.871435 
L 374.406617 206.162542 
L 376.129616 208.237412 
L 376.703948 203.679341 
L 377.278281 203.65785 
L 377.852614 199.504202 
L 378.426947 197.984194 
L 380.149946 198.292884 
L 380.724279 208.544149 
L 381.298611 212.555174 
L 381.872944 213.817288 
L 382.447277 210.871051 
L 384.170276 215.532671 
L 384.744609 216.454835 
L 385.318942 205.281406 
L 385.893275 209.612844 
L 386.467607 215.018837 
L 388.190606 221.07738 
L 388.764939 217.156227 
L 389.339272 218.529705 
L 389.913605 220.252902 
L 390.487938 223.353485 
L 392.210936 223.98845 
L 392.785269 221.096917 
L 393.359602 225.563163 
L 393.933935 223.92593 
L 394.508268 224.170147 
L 396.231266 224.594108 
L 396.805599 228.759478 
L 397.379932 230.607715 
L 397.954265 232.928756 
L 398.528598 232.876005 
L 400.251597 233.186649 
L 400.825929 236.033246 
L 401.400262 235.89453 
L 401.974595 233.950561 
L 402.548928 226.319259 
L 404.271927 234.819974 
L 404.84626 231.035583 
L 405.420592 231.363811 
L 405.994925 229.394443 
L 406.569258 234.601156 
L 408.292257 234.411643 
L 408.86659 234.227992 
L 409.440923 230.642882 
L 410.015256 231.916719 
L 410.589588 235.16774 
L 413.461253 235.499875 
L 414.035586 232.960016 
L 414.609919 234.888355 
L 416.332917 236.078182 
L 416.90725 219.508528 
L 417.481583 214.385826 
L 418.055916 200.201687 
L 418.630249 166.724382 
L 420.353247 110.144123 
L 424.94791 36.841818 
L 425.522243 89.627918 
L 426.096576 102.755085 
L 426.670909 124.644768 
L 428.393908 113.991033 
L 428.968241 127.551931 
L 429.542573 136.546941 
L 430.116906 137.81101 
L 430.691239 106.234693 
L 432.414238 103.257196 
L 432.988571 101.95796 
L 433.562904 104.24188 
L 434.137237 110.142169 
L 434.711569 97.677319 
L 436.434568 99.588075 
L 437.008901 109.710393 
L 437.583234 114.751038 
L 438.157567 112.220947 
L 438.7319 120.176569 
L 440.454898 108.016502 
L 441.029231 87.724977 
L 441.603564 92.415902 
L 442.177897 75.822803 
L 442.75223 81.521858 
L 444.475228 67.679622 
L 445.049561 68.000035 
L 445.623894 62.832398 
L 446.77256 96.755155 
L 448.495559 107.045494 
L 449.069891 94.217249 
L 449.644224 92.021247 
L 450.218557 92.408087 
L 450.79289 110.050343 
L 452.515889 110.126539 
L 453.090222 115.026515 
L 453.664555 103.561979 
L 454.238887 111.17765 
L 454.81322 100.588389 
L 456.536219 94.434114 
L 457.110552 96.387852 
L 457.684885 102.657398 
L 458.259218 101.084639 
L 458.83355 92.175592 
L 460.556549 95.776332 
L 461.130882 92.763668 
L 461.705215 93.246241 
L 462.279548 87.273663 
L 462.853881 98.38848 
L 464.576879 104.978439 
L 465.151212 105.04682 
L 465.725545 104.859261 
L 466.299878 102.631999 
L 466.874211 103.39005 
L 468.597209 107.633569 
L 469.171542 102.630046 
L 469.745875 105.023375 
L 470.320208 103.352929 
L 470.894541 104.320029 
L 472.61754 104.04846 
L 473.191872 116.687192 
L 474.914871 141.232006 
L 476.63787 141.579771 
L 477.212203 138.811324 
L 477.786536 142.703171 
L 478.360868 142.269441 
L 478.935201 149.177859 
L 480.6582 147.778982 
L 481.232533 129.550605 
L 481.806866 136.941596 
L 484.67853 123.890625 
L 485.252863 122.394062 
L 485.827196 124.613508 
L 486.401529 126.121794 
L 486.975862 120.547779 
L 488.69886 131.883368 
L 493.867856 132.059205 
L 495.016522 110.2887 
L 496.739521 108.426787 
L 497.313853 114.512682 
L 497.888186 106.887241 
L 498.462519 109.935073 
L 499.036852 102.288141 
L 500.759851 100.07651 
L 501.334184 108.682727 
L 501.908517 100.006175 
L 502.482849 100.279699 
L 503.057182 89.352441 
L 504.780181 92.335799 
L 505.354514 97.347137 
L 505.928847 91.948959 
L 506.50318 94.236786 
L 507.077512 111.06238 
L 508.800511 105.957262 
L 509.374844 107.215469 
L 509.949177 107.160765 
L 510.52351 98.499843 
L 511.097843 104.239926 
L 512.820841 105.300806 
L 513.395174 104.490004 
L 513.969507 106.982974 
L 514.54384 111.920071 
L 515.118173 100.056972 
L 516.841171 102.321355 
L 517.415504 99.681855 
L 517.989837 100.910756 
L 518.56417 105.2715 
L 519.138503 114.6006 
L 520.861502 114.547849 
L 521.435834 115.929142 
L 522.010167 117.019328 
L 522.5845 116.003384 
L 523.158833 119.303248 
L 524.881832 124.09186 
L 525.456165 124.44744 
L 526.030498 123.910162 
L 526.60483 131.574678 
L 528.902162 182.018245 
L 529.476495 175.551371 
L 530.050828 172.024874 
L 530.625161 163.78596 
L 531.199493 158.7375 
L 532.922492 157.459755 
L 533.496825 157.950144 
L 534.071158 162.5004 
L 534.645491 162.174126 
L 535.219824 161.160136 
L 536.942822 155.23054 
L 537.517155 158.33503 
L 538.091488 154.284931 
L 538.665821 156.883403 
L 539.240154 154.669817 
L 540.963152 157.156926 
L 541.537485 157.649268 
L 542.111818 154.505703 
L 542.111818 154.505703 
" clip-path="url(#p82f5f2c2c9)" style="fill: none; stroke: #0000ff; stroke-width: 1.5; stroke-linecap: square"/>
   </g>
   <g id="line2d_17">
    <path d="M 80.348182 60.365517 
L 80.922515 60.34391 
L 82.645513 65.618287 
L 84.368512 76.980878 
L 84.942845 79.16419 
L 86.665844 82.232646 
L 87.240176 85.089225 
L 87.814509 85.672056 
L 88.963175 88.398799 
L 90.686174 89.811252 
L 91.260507 91.249511 
L 92.409172 96.857112 
L 92.983505 94.955317 
L 94.706504 93.800055 
L 95.85517 92.343385 
L 96.429502 92.075604 
L 97.003835 93.601199 
L 98.726834 95.371965 
L 99.301167 96.132855 
L 99.8755 95.404544 
L 101.024166 92.11343 
L 102.747164 90.369422 
L 103.321497 88.358303 
L 103.89583 89.56465 
L 105.044496 92.762847 
L 106.767494 93.187795 
L 107.341827 89.062097 
L 108.490493 86.137023 
L 109.064826 84.31064 
L 110.787825 82.093223 
L 111.362157 80.338484 
L 112.510823 74.07121 
L 113.085156 72.716997 
L 114.808155 71.002324 
L 115.382488 70.199651 
L 115.95682 70.29543 
L 116.531153 70.795026 
L 117.105486 74.176481 
L 118.828485 78.05739 
L 119.977151 87.214631 
L 121.125816 89.479651 
L 124.571814 89.815498 
L 125.146147 89.219884 
L 126.869145 90.050032 
L 127.443478 90.099639 
L 128.017811 91.473027 
L 128.592144 92.201529 
L 129.166477 89.780248 
L 130.889475 89.92945 
L 131.463808 87.721859 
L 132.038141 86.700964 
L 133.186807 85.627076 
L 134.909806 85.927148 
L 135.484138 89.559785 
L 136.632804 100.102578 
L 137.207137 103.801754 
L 138.930136 107.779348 
L 139.504469 111.280909 
L 140.078801 112.735862 
L 140.653134 112.877384 
L 141.227467 110.604255 
L 142.950466 108.262202 
L 143.524799 109.897694 
L 144.099132 113.201401 
L 144.673464 118.253646 
L 145.247797 122.187452 
L 146.970796 121.89296 
L 147.545129 122.070542 
L 148.693795 121.658378 
L 149.268128 117.806948 
L 150.991126 115.006033 
L 151.565459 115.103243 
L 152.139792 115.716791 
L 155.011456 119.916899 
L 155.585789 124.421324 
L 156.160122 127.735668 
L 156.734455 130.342258 
L 157.308788 132.333535 
L 159.031787 132.364015 
L 160.180452 128.208696 
L 160.754785 127.672229 
L 161.329118 128.058969 
L 163.052117 128.995247 
L 164.775115 120.367699 
L 165.349448 114.823204 
L 167.64678 109.622616 
L 168.221113 109.213409 
L 169.369778 114.489313 
L 171.092777 116.214002 
L 171.66711 119.176234 
L 172.241443 118.028174 
L 172.815776 117.853883 
L 173.390109 118.298101 
L 175.113107 116.460986 
L 176.261773 110.398006 
L 176.836106 109.511383 
L 177.410439 108.215123 
L 179.70777 103.960829 
L 180.282103 104.161736 
L 180.856436 107.369378 
L 181.430769 109.087437 
L 183.153768 112.276142 
L 184.302433 118.889183 
L 184.876766 121.074117 
L 185.451099 121.687808 
L 187.174098 122.5388 
L 187.748431 124.666496 
L 188.322763 124.417938 
L 188.897096 126.538335 
L 189.471429 124.954834 
L 191.194428 125.563994 
L 191.768761 122.073357 
L 192.343094 117.554001 
L 192.917427 115.676724 
L 193.491759 118.26972 
L 195.214758 119.126436 
L 196.937757 114.340827 
L 197.51209 115.041807 
L 199.235088 115.488457 
L 199.809421 114.479106 
L 200.383754 115.08278 
L 200.958087 116.785576 
L 201.53242 119.107929 
L 203.829751 122.353539 
L 204.404084 126.917731 
L 205.55275 138.75447 
L 207.275749 140.142144 
L 207.850081 141.675084 
L 208.424414 143.670654 
L 208.998747 144.180983 
L 215.316409 144.468224 
L 215.890742 143.560709 
L 216.465075 142.377901 
L 217.039408 139.546483 
L 217.61374 137.318048 
L 219.336739 141.514626 
L 219.911072 145.129161 
L 221.059738 149.508306 
L 221.634071 151.733235 
L 223.357069 153.9652 
L 223.931402 156.794614 
L 224.505735 156.563061 
L 225.080068 157.037114 
L 225.654401 156.365851 
L 227.377399 151.890832 
L 227.951732 146.437345 
L 228.526065 143.654938 
L 229.100398 143.085725 
L 229.674731 143.439244 
L 231.39773 141.745702 
L 231.972062 136.292359 
L 232.546395 133.275823 
L 233.120728 129.317404 
L 233.695061 126.797768 
L 235.992393 127.699035 
L 236.566725 128.389092 
L 237.141058 127.766004 
L 237.715391 129.349982 
L 239.43839 131.001454 
L 240.012723 131.358955 
L 240.587056 131.078678 
L 241.735721 135.452695 
L 243.45872 138.516835 
L 244.033053 141.686961 
L 244.607386 143.661878 
L 245.756052 149.108186 
L 247.47905 150.11241 
L 248.053383 151.528083 
L 248.627716 154.60088 
L 249.776382 156.994329 
L 251.49938 156.555501 
L 252.073713 155.640282 
L 252.648046 156.601888 
L 253.796712 161.571733 
L 255.519711 163.81567 
L 256.094043 166.984843 
L 256.668376 169.443782 
L 257.242709 172.688556 
L 257.817042 172.896427 
L 259.540041 172.402817 
L 260.114374 172.940954 
L 260.688706 175.182816 
L 261.263039 176.778886 
L 261.837372 173.594641 
L 264.134704 171.067063 
L 264.709037 171.006224 
L 265.28337 172.423304 
L 265.857702 175.879575 
L 267.580701 178.848222 
L 268.155034 182.300724 
L 269.3037 184.306311 
L 269.878033 182.524216 
L 271.601031 182.080762 
L 272.175364 183.126388 
L 272.749697 183.21413 
L 273.32403 187.029667 
L 273.898363 184.197916 
L 275.621361 182.635116 
L 276.195694 182.460467 
L 276.770027 180.122564 
L 277.34436 177.269204 
L 277.918693 173.487247 
L 279.641692 173.325405 
L 280.216024 176.75673 
L 280.790357 182.647136 
L 281.36469 186.167132 
L 281.939023 187.587671 
L 283.662022 190.227197 
L 284.236355 188.463752 
L 285.38502 171.160839 
L 291.702682 165.021922 
L 292.277015 160.77278 
L 293.425681 160.326488 
L 294.000014 160.817569 
L 296.297345 160.634788 
L 296.871678 158.325981 
L 297.446011 161.109581 
L 298.020344 158.905734 
L 299.743342 156.23685 
L 300.317675 152.309435 
L 300.892008 149.291992 
L 301.466341 147.195993 
L 302.040674 147.499118 
L 303.763673 146.726089 
L 304.912338 135.635811 
L 305.486671 132.39602 
L 306.061004 131.650681 
L 307.784003 132.215433 
L 308.358336 129.131904 
L 308.932668 129.113731 
L 309.507001 129.667655 
L 310.081334 130.377841 
L 311.804333 131.455164 
L 312.378666 134.55181 
L 312.952999 136.549908 
L 313.527332 141.078398 
L 314.101664 142.588634 
L 315.824663 143.220641 
L 316.398996 140.224663 
L 316.973329 138.57882 
L 319.844993 138.806915 
L 320.419326 140.832225 
L 320.993659 141.285959 
L 321.567992 143.398677 
L 323.865323 148.116959 
L 324.439656 147.530265 
L 325.013989 148.525546 
L 325.588322 146.860695 
L 326.162655 146.873836 
L 327.885654 148.753021 
L 328.459986 150.075372 
L 329.034319 150.508357 
L 330.182985 148.258672 
L 331.905984 142.111146 
L 332.480317 134.207903 
L 335.926314 133.960442 
L 336.500647 131.845339 
L 337.07498 131.070092 
L 337.649313 132.054832 
L 338.223645 130.527472 
L 339.946644 131.145933 
L 341.669643 136.591931 
L 342.243976 137.3066 
L 343.966974 136.630161 
L 344.541307 135.49145 
L 345.11564 136.180863 
L 345.689973 136.435479 
L 346.264306 138.694083 
L 347.987304 143.062544 
L 348.561637 146.278055 
L 349.13597 150.528247 
L 349.710303 153.282608 
L 350.284636 155.325423 
L 352.007635 155.881137 
L 352.581967 155.010159 
L 353.1563 153.056659 
L 353.730633 153.008555 
L 354.304966 151.955463 
L 356.602298 154.582421 
L 357.17663 156.483667 
L 357.750963 161.59439 
L 358.325296 163.494348 
L 360.048295 163.330718 
L 360.622628 163.036989 
L 361.196961 162.341232 
L 362.345626 164.320847 
L 364.068625 165.34024 
L 364.642958 166.455411 
L 365.217291 168.621838 
L 365.791624 167.36233 
L 366.365957 168.004712 
L 368.088955 168.996296 
L 368.663288 171.21927 
L 370.386287 179.694134 
L 372.109285 181.550639 
L 372.683618 184.871636 
L 373.257951 185.028254 
L 373.832284 186.569065 
L 374.406617 184.455584 
L 376.129616 184.115516 
L 376.703948 185.769206 
L 377.852614 186.046693 
L 378.426947 184.975261 
L 380.149946 184.661809 
L 380.724279 185.209772 
L 381.872944 191.3816 
L 382.447277 193.859833 
L 384.170276 194.307724 
L 384.744609 195.782615 
L 385.318942 189.814794 
L 385.893275 177.239369 
L 386.467607 168.690071 
L 388.190606 163.521823 
L 389.339272 158.4515 
L 389.913605 157.826719 
L 390.487938 158.040409 
L 392.210936 158.400963 
L 392.785269 157.398766 
L 393.359602 155.654997 
L 393.933935 155.465514 
L 394.508268 152.871207 
L 396.231266 150.058033 
L 396.805599 147.78562 
L 397.379932 147.259432 
L 397.954265 148.30897 
L 398.528598 150.091661 
L 400.251597 151.862689 
L 400.825929 153.70579 
L 401.400262 157.004012 
L 401.974595 161.032643 
L 402.548928 163.906202 
L 404.271927 161.790909 
L 404.84626 164.15674 
L 406.569258 167.926224 
L 408.292257 169.715688 
L 408.86659 170.111611 
L 409.440923 171.277701 
L 410.015256 172.036062 
L 410.589588 173.163588 
L 413.461253 175.162854 
L 414.035586 177.22141 
L 414.609919 177.434289 
L 416.332917 177.689215 
L 416.90725 178.300545 
L 417.481583 170.577866 
L 418.055916 160.208815 
L 418.630249 147.317243 
L 420.353247 136.486302 
L 424.94791 116.444721 
L 425.522243 86.82541 
L 426.096576 81.867799 
L 426.670909 84.253831 
L 428.393908 93.665354 
L 429.542573 101.784958 
L 430.116906 106.876603 
L 430.691239 109.253142 
L 432.414238 101.895429 
L 432.988571 94.921881 
L 433.562904 89.936271 
L 434.137237 87.228273 
L 434.711569 88.480793 
L 436.434568 86.931778 
L 437.008901 87.094431 
L 437.583234 89.174904 
L 438.157567 92.512763 
L 438.7319 91.973672 
L 440.454898 92.112809 
L 441.603564 80.573543 
L 442.177897 78.18713 
L 442.75223 74.047933 
L 444.475228 72.524819 
L 445.049561 69.801558 
L 445.623894 68.307396 
L 446.198227 68.525236 
L 446.77256 72.737746 
L 448.495559 78.762996 
L 449.069891 84.481258 
L 449.644224 74.653802 
L 450.218557 74.535271 
L 450.79289 76.717056 
L 452.515889 82.37164 
L 453.090222 81.588428 
L 453.664555 75.631387 
L 454.238887 70.940268 
L 454.81322 75.636872 
L 456.536219 78.035257 
L 457.110552 79.549929 
L 457.684885 81.838989 
L 458.259218 85.248396 
L 458.83355 87.923529 
L 460.556549 87.163784 
L 461.130882 87.243871 
L 461.705215 85.416582 
L 462.279548 86.714892 
L 462.853881 86.90521 
L 464.576879 89.628805 
L 465.151212 93.681905 
L 465.725545 91.703364 
L 466.874211 72.946666 
L 468.597209 64.206263 
L 469.171542 57.979438 
L 469.745875 53.553191 
L 470.320208 52.630316 
L 470.894541 53.91904 
L 472.61754 55.641678 
L 474.340538 63.312819 
L 474.914871 70.501679 
L 476.63787 76.220179 
L 477.212203 80.556896 
L 478.935201 88.11089 
L 480.6582 90.953302 
L 481.232533 93.346965 
L 481.806866 87.164214 
L 482.381199 86.371509 
L 482.955531 84.499336 
L 484.67853 83.992156 
L 485.252863 82.57746 
L 485.827196 81.813423 
L 486.401529 83.336108 
L 486.975862 83.398832 
L 488.69886 81.76663 
L 493.867856 82.932339 
L 494.442189 82.221437 
L 495.016522 82.8409 
L 496.739521 86.902253 
L 497.313853 92.325832 
L 497.888186 93.325978 
L 498.462519 91.4995 
L 499.036852 95.454055 
L 500.759851 98.010704 
L 501.334184 99.097424 
L 501.908517 102.601369 
L 502.482849 98.800785 
L 503.057182 99.930386 
L 504.780181 98.200975 
L 505.354514 98.271235 
L 505.928847 100.267616 
L 506.50318 100.467425 
L 507.077512 101.183144 
L 508.800511 105.120575 
L 510.52351 79.470845 
L 511.097843 81.003165 
L 512.820841 86.989303 
L 513.395174 83.545934 
L 513.969507 79.017469 
L 514.54384 79.707001 
L 515.118173 82.386999 
L 516.841171 82.087165 
L 518.56417 68.595449 
L 519.138503 67.103768 
L 520.861502 73.016306 
L 521.435834 73.612063 
L 522.010167 74.696731 
L 522.5845 76.022087 
L 523.158833 76.700171 
L 524.881832 78.168575 
L 525.456165 82.949558 
L 526.60483 89.997277 
L 528.902162 94.192663 
L 529.476495 115.573409 
L 530.625161 131.799262 
L 531.199493 129.8481 
L 532.922492 123.087097 
L 533.496825 116.620109 
L 534.071158 112.849861 
L 534.645491 111.823672 
L 535.219824 111.351693 
L 536.942822 110.851954 
L 537.517155 108.214837 
L 538.091488 107.011924 
L 538.665821 103.222406 
L 539.240154 101.349899 
L 540.963152 99.750896 
L 542.111818 100.425975 
L 542.111818 100.425975 
" clip-path="url(#p82f5f2c2c9)" style="fill: none; stroke-dasharray: 5.55,2.4; stroke-dashoffset: 0; stroke: #ff0000; stroke-width: 1.5"/>
   </g>
   <g id="patch_3">
    <path d="M 57.26 246.04 
L 57.26 26.88 
" style="fill: none; stroke: #000000; stroke-width: 0.8; stroke-linejoin: miter; stroke-linecap: square"/>
   </g>
   <g id="patch_4">
    <path d="M 565.2 246.04 
L 565.2 26.88 
" style="fill: none; stroke: #000000; stroke-width: 0.8; stroke-linejoin: miter; stroke-linecap: square"/>
   </g>
   <g id="patch_5">
    <path d="M 57.26 246.04 
L 565.2 246.04 
" style="fill: none; stroke: #000000; stroke-width: 0.8; stroke-linejoin: miter; stroke-linecap: square"/>
   </g>
   <g id="patch_6">
    <path d="M 57.26 26.88 
L 565.2 26.88 
" style="fill: none; stroke: #000000; stroke-width: 0.8; stroke-linejoin: miter; stroke-linecap: square"/>
   </g>
   <g id="text_18">
    <!-- Real vs Predicted Stock Prices -->
    <g transform="translate(221.457812 20.88) scale(0.12 -0.12)">
     <defs>
      <path id="DejaVuSans-52" d="M 2841 2188 
Q 3044 2119 3236 1894 
Q 3428 1669 3622 1275 
L 4263 0 
L 3584 0 
L 2988 1197 
Q 2756 1666 2539 1819 
Q 2322 1972 1947 1972 
L 1259 1972 
L 1259 0 
L 628 0 
L 628 4666 
L 2053 4666 
Q 2853 4666 3247 4331 
Q 3641 3997 3641 3322 
Q 3641 2881 3436 2590 
Q 3231 2300 2841 2188 
z
M 1259 4147 
L 1259 2491 
L 2053 2491 
Q 2509 2491 2742 2702 
Q 2975 2913 2975 3322 
Q 2975 3731 2742 3939 
Q 2509 4147 2053 4147 
L 1259 4147 
z
" transform="scale(0.015625)"/>
      <path id="DejaVuSans-6c" d="M 603 4863 
L 1178 4863 
L 1178 0 
L 603 0 
L 603 4863 
z
" transform="scale(0.015625)"/>
      <path id="DejaVuSans-76" d="M 191 3500 
L 800 3500 
L 1894 563 
L 2988 3500 
L 3597 3500 
L 2284 0 
L 1503 0 
L 191 3500 
z
" transform="scale(0.015625)"/>
      <path id="DejaVuSans-73" d="M 2834 3397 
L 2834 2853 
Q 2591 2978 2328 3040 
Q 2066 3103 1784 3103 
Q 1356 3103 1142 2972 
Q 928 2841 928 2578 
Q 928 2378 1081 2264 
Q 1234 2150 1697 2047 
L 1894 2003 
Q 2506 1872 2764 1633 
Q 3022 1394 3022 966 
Q 3022 478 2636 193 
Q 2250 -91 1575 -91 
Q 1294 -91 989 -36 
Q 684 19 347 128 
L 347 722 
Q 666 556 975 473 
Q 1284 391 1588 391 
Q 1994 391 2212 530 
Q 2431 669 2431 922 
Q 2431 1156 2273 1281 
Q 2116 1406 1581 1522 
L 1381 1569 
Q 847 1681 609 1914 
Q 372 2147 372 2553 
Q 372 3047 722 3315 
Q 1072 3584 1716 3584 
Q 2034 3584 2315 3537 
Q 2597 3491 2834 3397 
z
" transform="scale(0.015625)"/>
      <path id="DejaVuSans-64" d="M 2906 2969 
L 2906 4863 
L 3481 4863 
L 3481 0 
L 2906 0 
L 2906 525 
Q 2725 213 2448 61 
Q 2172 -91 1784 -91 
Q 1150 -91 751 415 
Q 353 922 353 1747 
Q 353 2572 751 3078 
Q 1150 3584 1784 3584 
Q 2172 3584 2448 3432 
Q 2725 3281 2906 2969 
z
M 947 1747 
Q 947 1113 1208 752 
Q 1469 391 1925 391 
Q 2381 391 2643 752 
Q 2906 1113 2906 1747 
Q 2906 2381 2643 2742 
Q 2381 3103 1925 3103 
Q 1469 3103 1208 2742 
Q 947 2381 947 1747 
z
" transform="scale(0.015625)"/>
     </defs>
     <use xlink:href="#DejaVuSans-52"/>
     <use xlink:href="#DejaVuSans-65" transform="translate(64.982422 0)"/>
     <use xlink:href="#DejaVuSans-61" transform="translate(126.505859 0)"/>
     <use xlink:href="#DejaVuSans-6c" transform="translate(187.785156 0)"/>
     <use xlink:href="#DejaVuSans-20" transform="translate(215.568359 0)"/>
     <use xlink:href="#DejaVuSans-76" transform="translate(247.355469 0)"/>
     <use xlink:href="#DejaVuSans-73" transform="translate(306.535156 0)"/>
     <use xlink:href="#DejaVuSans-20" transform="translate(358.634766 0)"/>
     <use xlink:href="#DejaVuSans-50" transform="translate(390.421875 0)"/>
     <use xlink:href="#DejaVuSans-72" transform="translate(448.974609 0)"/>
     <use xlink:href="#DejaVuSans-65" transform="translate(487.837891 0)"/>
     <use xlink:href="#DejaVuSans-64" transform="translate(549.361328 0)"/>
     <use xlink:href="#DejaVuSans-69" transform="translate(612.837891 0)"/>
     <use xlink:href="#DejaVuSans-63" transform="translate(640.621094 0)"/>
     <use xlink:href="#DejaVuSans-74" transform="translate(695.601562 0)"/>
     <use xlink:href="#DejaVuSans-65" transform="translate(734.810547 0)"/>
     <use xlink:href="#DejaVuSans-64" transform="translate(796.333984 0)"/>
     <use xlink:href="#DejaVuSans-20" transform="translate(859.810547 0)"/>
     <use xlink:href="#DejaVuSans-53" transform="translate(891.597656 0)"/>
     <use xlink:href="#DejaVuSans-74" transform="translate(955.074219 0)"/>
     <use xlink:href="#DejaVuSans-6f" transform="translate(994.283203 0)"/>
     <use xlink:href="#DejaVuSans-63" transform="translate(1055.464844 0)"/>
     <use xlink:href="#DejaVuSans-6b" transform="translate(1110.445312 0)"/>
     <use xlink:href="#DejaVuSans-20" transform="translate(1168.355469 0)"/>
     <use xlink:href="#DejaVuSans-50" transform="translate(1200.142578 0)"/>
     <use xlink:href="#DejaVuSans-72" transform="translate(1258.695312 0)"/>
     <use xlink:href="#DejaVuSans-69" transform="translate(1299.808594 0)"/>
     <use xlink:href="#DejaVuSans-63" transform="translate(1327.591797 0)"/>
     <use xlink:href="#DejaVuSans-65" transform="translate(1382.572266 0)"/>
     <use xlink:href="#DejaVuSans-73" transform="translate(1444.095703 0)"/>
    </g>
   </g>
   <g id="legend_1">
    <g id="patch_7">
     <path d="M 64.26 241.04 
L 175.983438 241.04 
Q 177.983438 241.04 177.983438 239.04 
L 177.983438 210.68375 
Q 177.983438 208.68375 175.983438 208.68375 
L 64.26 208.68375 
Q 62.26 208.68375 62.26 210.68375 
L 62.26 239.04 
Q 62.26 241.04 64.26 241.04 
z
" style="fill: #ffffff; opacity: 0.8; stroke: #cccccc; stroke-linejoin: miter"/>
    </g>
    <g id="line2d_18">
     <path d="M 66.26 216.782187 
L 76.26 216.782187 
L 86.26 216.782187 
" style="fill: none; stroke: #0000ff; stroke-width: 1.5; stroke-linecap: square"/>
    </g>
    <g id="text_19">
     <!-- Real Prices -->
     <g transform="translate(94.26 220.282187) scale(0.1 -0.1)">
      <use xlink:href="#DejaVuSans-52"/>
      <use xlink:href="#DejaVuSans-65" transform="translate(64.982422 0)"/>
      <use xlink:href="#DejaVuSans-61" transform="translate(126.505859 0)"/>
      <use xlink:href="#DejaVuSans-6c" transform="translate(187.785156 0)"/>
      <use xlink:href="#DejaVuSans-20" transform="translate(215.568359 0)"/>
      <use xlink:href="#DejaVuSans-50" transform="translate(247.355469 0)"/>
      <use xlink:href="#DejaVuSans-72" transform="translate(305.908203 0)"/>
      <use xlink:href="#DejaVuSans-69" transform="translate(347.021484 0)"/>
      <use xlink:href="#DejaVuSans-63" transform="translate(374.804688 0)"/>
      <use xlink:href="#DejaVuSans-65" transform="translate(429.785156 0)"/>
      <use xlink:href="#DejaVuSans-73" transform="translate(491.308594 0)"/>
     </g>
    </g>
    <g id="line2d_19">
     <path d="M 66.26 231.460312 
L 76.26 231.460312 
L 86.26 231.460312 
" style="fill: none; stroke-dasharray: 5.55,2.4; stroke-dashoffset: 0; stroke: #ff0000; stroke-width: 1.5"/>
    </g>
    <g id="text_20">
     <!-- Predicted Prices -->
     <g transform="translate(94.26 234.960312) scale(0.1 -0.1)">
      <use xlink:href="#DejaVuSans-50"/>
      <use xlink:href="#DejaVuSans-72" transform="translate(58.552734 0)"/>
      <use xlink:href="#DejaVuSans-65" transform="translate(97.416016 0)"/>
      <use xlink:href="#DejaVuSans-64" transform="translate(158.939453 0)"/>
      <use xlink:href="#DejaVuSans-69" transform="translate(222.416016 0)"/>
      <use xlink:href="#DejaVuSans-63" transform="translate(250.199219 0)"/>
      <use xlink:href="#DejaVuSans-74" transform="translate(305.179688 0)"/>
      <use xlink:href="#DejaVuSans-65" transform="translate(344.388672 0)"/>
      <use xlink:href="#DejaVuSans-64" transform="translate(405.912109 0)"/>
      <use xlink:href="#DejaVuSans-20" transform="translate(469.388672 0)"/>
      <use xlink:href="#DejaVuSans-50" transform="translate(501.175781 0)"/>
      <use xlink:href="#DejaVuSans-72" transform="translate(559.728516 0)"/>
      <use xlink:href="#DejaVuSans-69" transform="translate(600.841797 0)"/>
      <use xlink:href="#DejaVuSans-63" transform="translate(628.625 0)"/>
      <use xlink:href="#DejaVuSans-65" transform="translate(683.605469 0)"/>
      <use xlink:href="#DejaVuSans-73" transform="translate(745.128906 0)"/>
     </g>
    </g>
   </g>
  </g>
 </g>
 <defs>
  <clipPath id="p82f5f2c2c9">
   <rect x="57.26" y="26.88" width="507.94" height="219.16"/>
  </clipPath>
 </defs>
</svg>
