<?xml version="1.0" encoding="utf-8" standalone="no"?>
<!DOCTYPE svg PUBLIC "-//W3C//DTD SVG 1.1//EN"
  "http://www.w3.org/Graphics/SVG/1.1/DTD/svg11.dtd">
<svg xmlns:xlink="http://www.w3.org/1999/xlink" width="864pt" height="432pt" viewBox="0 0 864 432" xmlns="http://www.w3.org/2000/svg" version="1.1">
 <metadata>
  <rdf:RDF xmlns:dc="http://purl.org/dc/elements/1.1/" xmlns:cc="http://creativecommons.org/ns#" xmlns:rdf="http://www.w3.org/1999/02/22-rdf-syntax-ns#">
   <cc:Work>
    <dc:type rdf:resource="http://purl.org/dc/dcmitype/StillImage"/>
    <dc:date>2025-05-02T01:06:50.327854</dc:date>
    <dc:format>image/svg+xml</dc:format>
    <dc:creator>
     <cc:Agent>
      <dc:title>Matplotlib v3.10.1, https://matplotlib.org/</dc:title>
     </cc:Agent>
    </dc:creator>
   </cc:Work>
  </rdf:RDF>
 </metadata>
 <defs>
  <style type="text/css">*{stroke-linejoin: round; stroke-linecap: butt}</style>
 </defs>
 <g id="figure_1">
  <g id="patch_1">
   <path d="M 0 432 
L 864 432 
L 864 0 
L 0 0 
z
" style="fill: #ffffff"/>
  </g>
  <g id="axes_1">
   <g id="patch_2">
    <path d="M 108 384.48 
L 777.6 384.48 
L 777.6 51.84 
L 108 51.84 
z
" style="fill: #ffffff"/>
   </g>
   <g id="matplotlib.axis_1">
    <g id="xtick_1">
     <g id="line2d_1">
      <defs>
       <path id="m4ec683e4db" d="M 0 0 
L 0 3.5 
" style="stroke: #000000; stroke-width: 0.8"/>
      </defs>
      <g>
       <use xlink:href="#m4ec683e4db" x="138.436364" y="384.48" style="stroke: #000000; stroke-width: 0.8"/>
      </g>
     </g>
     <g id="text_1">
      <!-- 0 -->
      <g transform="translate(135.255114 399.078438) scale(0.1 -0.1)">
       <defs>
        <path id="DejaVuSans-30" d="M 2034 4250 
Q 1547 4250 1301 3770 
Q 1056 3291 1056 2328 
Q 1056 1369 1301 889 
Q 1547 409 2034 409 
Q 2525 409 2770 889 
Q 3016 1369 3016 2328 
Q 3016 3291 2770 3770 
Q 2525 4250 2034 4250 
z
M 2034 4750 
Q 2819 4750 3233 4129 
Q 3647 3509 3647 2328 
Q 3647 1150 3233 529 
Q 2819 -91 2034 -91 
Q 1250 -91 836 529 
Q 422 1150 422 2328 
Q 422 3509 836 4129 
Q 1250 4750 2034 4750 
z
" transform="scale(0.015625)"/>
       </defs>
       <use xlink:href="#DejaVuSans-30"/>
      </g>
     </g>
    </g>
    <g id="xtick_2">
     <g id="line2d_2">
      <g>
       <use xlink:href="#m4ec683e4db" x="263.303497" y="384.48" style="stroke: #000000; stroke-width: 0.8"/>
      </g>
     </g>
     <g id="text_2">
      <!-- 200 -->
      <g transform="translate(253.759747 399.078438) scale(0.1 -0.1)">
       <defs>
        <path id="DejaVuSans-32" d="M 1228 531 
L 3431 531 
L 3431 0 
L 469 0 
L 469 531 
Q 828 903 1448 1529 
Q 2069 2156 2228 2338 
Q 2531 2678 2651 2914 
Q 2772 3150 2772 3378 
Q 2772 3750 2511 3984 
Q 2250 4219 1831 4219 
Q 1534 4219 1204 4116 
Q 875 4013 500 3803 
L 500 4441 
Q 881 4594 1212 4672 
Q 1544 4750 1819 4750 
Q 2544 4750 2975 4387 
Q 3406 4025 3406 3419 
Q 3406 3131 3298 2873 
Q 3191 2616 2906 2266 
Q 2828 2175 2409 1742 
Q 1991 1309 1228 531 
z
" transform="scale(0.015625)"/>
       </defs>
       <use xlink:href="#DejaVuSans-32"/>
       <use xlink:href="#DejaVuSans-30" transform="translate(63.623047 0)"/>
       <use xlink:href="#DejaVuSans-30" transform="translate(127.246094 0)"/>
      </g>
     </g>
    </g>
    <g id="xtick_3">
     <g id="line2d_3">
      <g>
       <use xlink:href="#m4ec683e4db" x="388.170629" y="384.48" style="stroke: #000000; stroke-width: 0.8"/>
      </g>
     </g>
     <g id="text_3">
      <!-- 400 -->
      <g transform="translate(378.626879 399.078438) scale(0.1 -0.1)">
       <defs>
        <path id="DejaVuSans-34" d="M 2419 4116 
L 825 1625 
L 2419 1625 
L 2419 4116 
z
M 2253 4666 
L 3047 4666 
L 3047 1625 
L 3713 1625 
L 3713 1100 
L 3047 1100 
L 3047 0 
L 2419 0 
L 2419 1100 
L 313 1100 
L 313 1709 
L 2253 4666 
z
" transform="scale(0.015625)"/>
       </defs>
       <use xlink:href="#DejaVuSans-34"/>
       <use xlink:href="#DejaVuSans-30" transform="translate(63.623047 0)"/>
       <use xlink:href="#DejaVuSans-30" transform="translate(127.246094 0)"/>
      </g>
     </g>
    </g>
    <g id="xtick_4">
     <g id="line2d_4">
      <g>
       <use xlink:href="#m4ec683e4db" x="513.037762" y="384.48" style="stroke: #000000; stroke-width: 0.8"/>
      </g>
     </g>
     <g id="text_4">
      <!-- 600 -->
      <g transform="translate(503.494012 399.078438) scale(0.1 -0.1)">
       <defs>
        <path id="DejaVuSans-36" d="M 2113 2584 
Q 1688 2584 1439 2293 
Q 1191 2003 1191 1497 
Q 1191 994 1439 701 
Q 1688 409 2113 409 
Q 2538 409 2786 701 
Q 3034 994 3034 1497 
Q 3034 2003 2786 2293 
Q 2538 2584 2113 2584 
z
M 3366 4563 
L 3366 3988 
Q 3128 4100 2886 4159 
Q 2644 4219 2406 4219 
Q 1781 4219 1451 3797 
Q 1122 3375 1075 2522 
Q 1259 2794 1537 2939 
Q 1816 3084 2150 3084 
Q 2853 3084 3261 2657 
Q 3669 2231 3669 1497 
Q 3669 778 3244 343 
Q 2819 -91 2113 -91 
Q 1303 -91 875 529 
Q 447 1150 447 2328 
Q 447 3434 972 4092 
Q 1497 4750 2381 4750 
Q 2619 4750 2861 4703 
Q 3103 4656 3366 4563 
z
" transform="scale(0.015625)"/>
       </defs>
       <use xlink:href="#DejaVuSans-36"/>
       <use xlink:href="#DejaVuSans-30" transform="translate(63.623047 0)"/>
       <use xlink:href="#DejaVuSans-30" transform="translate(127.246094 0)"/>
      </g>
     </g>
    </g>
    <g id="xtick_5">
     <g id="line2d_5">
      <g>
       <use xlink:href="#m4ec683e4db" x="637.904895" y="384.48" style="stroke: #000000; stroke-width: 0.8"/>
      </g>
     </g>
     <g id="text_5">
      <!-- 800 -->
      <g transform="translate(628.361145 399.078438) scale(0.1 -0.1)">
       <defs>
        <path id="DejaVuSans-38" d="M 2034 2216 
Q 1584 2216 1326 1975 
Q 1069 1734 1069 1313 
Q 1069 891 1326 650 
Q 1584 409 2034 409 
Q 2484 409 2743 651 
Q 3003 894 3003 1313 
Q 3003 1734 2745 1975 
Q 2488 2216 2034 2216 
z
M 1403 2484 
Q 997 2584 770 2862 
Q 544 3141 544 3541 
Q 544 4100 942 4425 
Q 1341 4750 2034 4750 
Q 2731 4750 3128 4425 
Q 3525 4100 3525 3541 
Q 3525 3141 3298 2862 
Q 3072 2584 2669 2484 
Q 3125 2378 3379 2068 
Q 3634 1759 3634 1313 
Q 3634 634 3220 271 
Q 2806 -91 2034 -91 
Q 1263 -91 848 271 
Q 434 634 434 1313 
Q 434 1759 690 2068 
Q 947 2378 1403 2484 
z
M 1172 3481 
Q 1172 3119 1398 2916 
Q 1625 2713 2034 2713 
Q 2441 2713 2670 2916 
Q 2900 3119 2900 3481 
Q 2900 3844 2670 4047 
Q 2441 4250 2034 4250 
Q 1625 4250 1398 4047 
Q 1172 3844 1172 3481 
z
" transform="scale(0.015625)"/>
       </defs>
       <use xlink:href="#DejaVuSans-38"/>
       <use xlink:href="#DejaVuSans-30" transform="translate(63.623047 0)"/>
       <use xlink:href="#DejaVuSans-30" transform="translate(127.246094 0)"/>
      </g>
     </g>
    </g>
    <g id="xtick_6">
     <g id="line2d_6">
      <g>
       <use xlink:href="#m4ec683e4db" x="762.772028" y="384.48" style="stroke: #000000; stroke-width: 0.8"/>
      </g>
     </g>
     <g id="text_6">
      <!-- 1000 -->
      <g transform="translate(750.047028 399.078438) scale(0.1 -0.1)">
       <defs>
        <path id="DejaVuSans-31" d="M 794 531 
L 1825 531 
L 1825 4091 
L 703 3866 
L 703 4441 
L 1819 4666 
L 2450 4666 
L 2450 531 
L 3481 531 
L 3481 0 
L 794 0 
L 794 531 
z
" transform="scale(0.015625)"/>
       </defs>
       <use xlink:href="#DejaVuSans-31"/>
       <use xlink:href="#DejaVuSans-30" transform="translate(63.623047 0)"/>
       <use xlink:href="#DejaVuSans-30" transform="translate(127.246094 0)"/>
       <use xlink:href="#DejaVuSans-30" transform="translate(190.869141 0)"/>
      </g>
     </g>
    </g>
   </g>
   <g id="matplotlib.axis_2">
    <g id="ytick_1">
     <g id="line2d_7">
      <defs>
       <path id="mf9af7ef02e" d="M 0 0 
L -3.5 0 
" style="stroke: #000000; stroke-width: 0.8"/>
      </defs>
      <g>
       <use xlink:href="#mf9af7ef02e" x="108" y="364.722517" style="stroke: #000000; stroke-width: 0.8"/>
      </g>
     </g>
     <g id="text_7">
      <!-- 4500 -->
      <g transform="translate(75.55 368.521736) scale(0.1 -0.1)">
       <defs>
        <path id="DejaVuSans-35" d="M 691 4666 
L 3169 4666 
L 3169 4134 
L 1269 4134 
L 1269 2991 
Q 1406 3038 1543 3061 
Q 1681 3084 1819 3084 
Q 2600 3084 3056 2656 
Q 3513 2228 3513 1497 
Q 3513 744 3044 326 
Q 2575 -91 1722 -91 
Q 1428 -91 1123 -41 
Q 819 9 494 109 
L 494 744 
Q 775 591 1075 516 
Q 1375 441 1709 441 
Q 2250 441 2565 725 
Q 2881 1009 2881 1497 
Q 2881 1984 2565 2268 
Q 2250 2553 1709 2553 
Q 1456 2553 1204 2497 
Q 953 2441 691 2322 
L 691 4666 
z
" transform="scale(0.015625)"/>
       </defs>
       <use xlink:href="#DejaVuSans-34"/>
       <use xlink:href="#DejaVuSans-35" transform="translate(63.623047 0)"/>
       <use xlink:href="#DejaVuSans-30" transform="translate(127.246094 0)"/>
       <use xlink:href="#DejaVuSans-30" transform="translate(190.869141 0)"/>
      </g>
     </g>
    </g>
    <g id="ytick_2">
     <g id="line2d_8">
      <g>
       <use xlink:href="#mf9af7ef02e" x="108" y="317.439863" style="stroke: #000000; stroke-width: 0.8"/>
      </g>
     </g>
     <g id="text_8">
      <!-- 5000 -->
      <g transform="translate(75.55 321.239081) scale(0.1 -0.1)">
       <use xlink:href="#DejaVuSans-35"/>
       <use xlink:href="#DejaVuSans-30" transform="translate(63.623047 0)"/>
       <use xlink:href="#DejaVuSans-30" transform="translate(127.246094 0)"/>
       <use xlink:href="#DejaVuSans-30" transform="translate(190.869141 0)"/>
      </g>
     </g>
    </g>
    <g id="ytick_3">
     <g id="line2d_9">
      <g>
       <use xlink:href="#mf9af7ef02e" x="108" y="270.157208" style="stroke: #000000; stroke-width: 0.8"/>
      </g>
     </g>
     <g id="text_9">
      <!-- 5500 -->
      <g transform="translate(75.55 273.956427) scale(0.1 -0.1)">
       <use xlink:href="#DejaVuSans-35"/>
       <use xlink:href="#DejaVuSans-35" transform="translate(63.623047 0)"/>
       <use xlink:href="#DejaVuSans-30" transform="translate(127.246094 0)"/>
       <use xlink:href="#DejaVuSans-30" transform="translate(190.869141 0)"/>
      </g>
     </g>
    </g>
    <g id="ytick_4">
     <g id="line2d_10">
      <g>
       <use xlink:href="#mf9af7ef02e" x="108" y="222.874553" style="stroke: #000000; stroke-width: 0.8"/>
      </g>
     </g>
     <g id="text_10">
      <!-- 6000 -->
      <g transform="translate(75.55 226.673772) scale(0.1 -0.1)">
       <use xlink:href="#DejaVuSans-36"/>
       <use xlink:href="#DejaVuSans-30" transform="translate(63.623047 0)"/>
       <use xlink:href="#DejaVuSans-30" transform="translate(127.246094 0)"/>
       <use xlink:href="#DejaVuSans-30" transform="translate(190.869141 0)"/>
      </g>
     </g>
    </g>
    <g id="ytick_5">
     <g id="line2d_11">
      <g>
       <use xlink:href="#mf9af7ef02e" x="108" y="175.591899" style="stroke: #000000; stroke-width: 0.8"/>
      </g>
     </g>
     <g id="text_11">
      <!-- 6500 -->
      <g transform="translate(75.55 179.391118) scale(0.1 -0.1)">
       <use xlink:href="#DejaVuSans-36"/>
       <use xlink:href="#DejaVuSans-35" transform="translate(63.623047 0)"/>
       <use xlink:href="#DejaVuSans-30" transform="translate(127.246094 0)"/>
       <use xlink:href="#DejaVuSans-30" transform="translate(190.869141 0)"/>
      </g>
     </g>
    </g>
    <g id="ytick_6">
     <g id="line2d_12">
      <g>
       <use xlink:href="#mf9af7ef02e" x="108" y="128.309244" style="stroke: #000000; stroke-width: 0.8"/>
      </g>
     </g>
     <g id="text_12">
      <!-- 7000 -->
      <g transform="translate(75.55 132.108463) scale(0.1 -0.1)">
       <defs>
        <path id="DejaVuSans-37" d="M 525 4666 
L 3525 4666 
L 3525 4397 
L 1831 0 
L 1172 0 
L 2766 4134 
L 525 4134 
L 525 4666 
z
" transform="scale(0.015625)"/>
       </defs>
       <use xlink:href="#DejaVuSans-37"/>
       <use xlink:href="#DejaVuSans-30" transform="translate(63.623047 0)"/>
       <use xlink:href="#DejaVuSans-30" transform="translate(127.246094 0)"/>
       <use xlink:href="#DejaVuSans-30" transform="translate(190.869141 0)"/>
      </g>
     </g>
    </g>
    <g id="ytick_7">
     <g id="line2d_13">
      <g>
       <use xlink:href="#mf9af7ef02e" x="108" y="81.02659" style="stroke: #000000; stroke-width: 0.8"/>
      </g>
     </g>
     <g id="text_13">
      <!-- 7500 -->
      <g transform="translate(75.55 84.825808) scale(0.1 -0.1)">
       <use xlink:href="#DejaVuSans-37"/>
       <use xlink:href="#DejaVuSans-35" transform="translate(63.623047 0)"/>
       <use xlink:href="#DejaVuSans-30" transform="translate(127.246094 0)"/>
       <use xlink:href="#DejaVuSans-30" transform="translate(190.869141 0)"/>
      </g>
     </g>
    </g>
   </g>
   <g id="line2d_14">
    <path d="M 138.436364 183.132537 
L 139.060699 180.748545 
L 139.685035 179.113511 
L 140.309371 181.015219 
L 140.933706 180.671947 
L 141.558042 176.562139 
L 142.182378 176.355041 
L 142.806713 176.943237 
L 143.431049 176.599019 
L 144.055385 180.845947 
L 144.67972 177.862412 
L 145.304056 179.74899 
L 145.928392 174.452387 
L 146.552727 181.357546 
L 147.177063 173.152114 
L 147.801399 168.202566 
L 148.425734 166.173194 
L 149.05007 167.611532 
L 149.674406 170.985623 
L 150.298741 172.957309 
L 150.923077 171.419677 
L 151.547413 164.275268 
L 152.171748 163.467681 
L 152.796084 158.058545 
L 153.42042 159.688851 
L 154.044755 153.937389 
L 154.669091 152.91892 
L 155.293427 158.434915 
L 155.917762 159.73046 
L 157.166434 154.645683 
L 157.790769 158.138925 
L 158.415105 157.350251 
L 159.039441 150.47157 
L 159.663776 154.227704 
L 160.288112 160.11534 
L 160.912448 169.323165 
L 162.785455 155.999858 
L 163.40979 152.916083 
L 164.034126 148.172688 
L 164.658462 151.490039 
L 165.282797 145.954185 
L 165.907133 144.525304 
L 166.531469 150.492375 
L 167.155804 146.448762 
L 167.78014 155.102433 
L 168.404476 160.645852 
L 169.028811 155.637673 
L 169.653147 155.780467 
L 170.277483 150.614364 
L 170.901818 152.078235 
L 171.526154 146.79298 
L 172.15049 137.351579 
L 172.774825 131.916911 
L 173.399161 137.883982 
L 174.023497 134.700914 
L 174.647832 135.390295 
L 175.272168 138.773841 
L 175.896503 137.658916 
L 176.520839 129.771224 
L 177.145175 125.798535 
L 177.76951 129.6568 
L 178.393846 140.772006 
L 179.018182 154.857509 
L 179.642517 164.056822 
L 180.266853 151.109886 
L 180.891189 150.3127 
L 181.515524 140.413604 
L 182.13986 145.708316 
L 182.764196 134.802098 
L 183.388531 136.647068 
L 184.012867 134.090022 
L 185.261538 126.490753 
L 185.885874 121.356803 
L 186.51021 119.306627 
L 187.134545 119.903334 
L 187.758881 123.345511 
L 188.383217 138.295341 
L 189.007552 133.887652 
L 189.631888 133.315532 
L 190.256224 135.872578 
L 190.880559 125.98672 
L 192.129231 113.840752 
L 192.753566 117.071103 
L 193.377902 111.277086 
L 194.002238 106.854267 
L 194.626573 104.162938 
L 195.250909 110.048683 
L 195.875245 99.276749 
L 196.49958 101.955784 
L 197.123916 94.700733 
L 197.748252 81.127775 
L 198.372587 76.861934 
L 198.996923 69.919894 
L 199.621259 70.844743 
L 200.245594 66.96 
L 200.86993 75.672302 
L 201.494266 72.297266 
L 202.118601 86.044225 
L 202.742937 90.902991 
L 203.991608 80.758024 
L 204.615944 92.338492 
L 205.24028 112.177348 
L 205.864615 109.500204 
L 206.488951 127.342787 
L 207.113287 118.511333 
L 207.737622 119.671649 
L 208.361958 119.753921 
L 208.986294 132.830412 
L 210.234965 127.521515 
L 210.859301 126.024546 
L 211.483636 121.869347 
L 212.107972 116.925472 
L 212.732308 117.074886 
L 213.356643 119.018203 
L 213.980979 125.843927 
L 214.605315 118.475398 
L 215.22965 118.62292 
L 215.853986 123.71337 
L 216.478322 133.011031 
L 217.102657 126.181525 
L 217.726993 122.563456 
L 218.351329 129.718267 
L 218.975664 126.621254 
L 219.6 121.325596 
L 220.224336 129.074278 
L 220.848671 125.758818 
L 221.473007 120.57853 
L 222.097343 122.414989 
L 222.721678 116.974646 
L 223.346014 113.499371 
L 224.594685 123.964914 
L 225.219021 118.424333 
L 225.843357 120.301454 
L 227.092028 104.188471 
L 227.716364 103.591764 
L 228.340699 104.090123 
L 228.965035 106.224462 
L 229.589371 107.518115 
L 230.213706 107.325202 
L 230.838042 104.406917 
L 231.462378 102.508045 
L 232.086713 106.560169 
L 232.711049 99.758086 
L 233.335385 105.57007 
L 233.95972 108.750301 
L 234.584056 99.656901 
L 235.208392 98.018084 
L 235.832727 99.310792 
L 236.457063 94.924853 
L 237.081399 97.657791 
L 237.705734 98.59115 
L 238.33007 92.279862 
L 238.954406 98.562781 
L 239.578741 109.777281 
L 240.203077 102.259339 
L 240.827413 99.707021 
L 241.451748 96.422768 
L 242.076084 101.948219 
L 242.70042 102.516556 
L 243.324755 101.260729 
L 243.949091 104.878798 
L 244.573427 98.903216 
L 245.197762 94.322472 
L 245.822098 94.789625 
L 246.446434 107.252387 
L 247.070769 106.563006 
L 247.695105 111.696011 
L 248.319441 110.204716 
L 248.943776 115.522123 
L 249.568112 109.686498 
L 250.192448 119.06454 
L 250.816783 120.636215 
L 251.441119 113.381165 
L 252.065455 112.879968 
L 252.68979 117.078668 
L 253.314126 122.93888 
L 253.938462 130.520181 
L 254.562797 130.271474 
L 255.187133 152.521746 
L 255.811469 148.869634 
L 256.435804 165.575541 
L 257.06014 167.976555 
L 257.684476 158.89072 
L 258.308811 152.689127 
L 258.933147 143.153161 
L 259.557483 143.393357 
L 260.181818 152.421507 
L 260.806154 157.085468 
L 261.43049 150.97844 
L 262.054825 149.867298 
L 262.679161 150.173689 
L 263.303497 143.910629 
L 263.927832 140.876028 
L 264.552168 148.663481 
L 265.176503 138.955407 
L 265.800839 150.54344 
L 266.425175 145.384902 
L 267.04951 142.18103 
L 267.673846 140.220691 
L 268.298182 140.107212 
L 268.922517 141.590942 
L 269.546853 146.860121 
L 270.171189 160.519134 
L 270.795524 182.221873 
L 271.41986 193.974449 
L 272.044196 183.635624 
L 272.668531 178.038303 
L 273.292867 192.275111 
L 273.917203 226.186231 
L 274.541538 208.096833 
L 275.165874 197.576442 
L 275.79021 191.458066 
L 276.414545 188.931281 
L 277.038881 189.009771 
L 277.663217 185.228104 
L 278.287552 190.332739 
L 278.911888 197.508355 
L 279.536224 196.086093 
L 280.160559 198.942911 
L 280.784895 187.14116 
L 281.409231 192.144611 
L 282.033566 188.403607 
L 282.657902 189.121358 
L 283.282238 201.919827 
L 283.906573 201.680576 
L 284.530909 220.047996 
L 285.155245 210.87327 
L 285.77958 218.682473 
L 286.403916 210.912988 
L 287.028252 216.184058 
L 287.652587 215.875775 
L 288.276923 214.136719 
L 288.901259 226.948427 
L 289.525594 245.589141 
L 290.14993 247.36886 
L 290.774266 282.477177 
L 291.398601 295.310635 
L 292.022937 276.11104 
L 292.647273 277.839694 
L 293.271608 258.062305 
L 293.895944 252.501865 
L 294.52028 264.126778 
L 295.144615 259.894981 
L 295.768951 252.181288 
L 296.393287 247.667686 
L 297.017622 247.168381 
L 297.641958 242.090224 
L 298.266294 242.631138 
L 298.890629 240.242418 
L 299.514965 242.024974 
L 300.139301 238.155362 
L 300.763636 229.542353 
L 301.387972 226.115307 
L 302.012308 246.924403 
L 302.636643 237.6031 
L 303.260979 231.237909 
L 303.885315 232.33865 
L 304.50965 228.280852 
L 305.133986 220.39316 
L 305.758322 220.63903 
L 306.382657 215.457796 
L 307.006993 205.149232 
L 307.631329 205.231504 
L 308.255664 202.275392 
L 308.88 210.515813 
L 309.504336 200.169423 
L 310.128671 200.782206 
L 310.753007 196.815191 
L 311.377343 198.187334 
L 312.001678 197.831768 
L 312.626014 192.962601 
L 313.25035 191.631121 
L 313.874685 196.679963 
L 314.499021 205.893461 
L 315.123357 194.460515 
L 315.747692 188.048041 
L 316.372028 184.316494 
L 316.996364 175.464236 
L 317.620699 187.478758 
L 318.245035 179.934338 
L 318.869371 181.403883 
L 319.493706 173.404603 
L 320.118042 174.501561 
L 320.742378 183.294243 
L 321.366713 180.037414 
L 321.991049 184.62856 
L 323.23972 200.038923 
L 323.864056 197.484714 
L 324.488392 194.275167 
L 325.112727 204.264101 
L 325.737063 193.336134 
L 326.361399 191.128034 
L 326.985734 184.035635 
L 328.858741 201.007271 
L 329.483077 193.752221 
L 330.107413 191.457121 
L 330.731748 189.94975 
L 331.356084 195.06195 
L 331.98042 190.039587 
L 332.604755 206.798451 
L 333.229091 211.11914 
L 333.853427 207.864202 
L 334.477762 197.293692 
L 335.102098 192.323339 
L 335.726434 190.582392 
L 336.350769 192.41885 
L 336.975105 181.326339 
L 337.599441 183.076743 
L 338.848112 178.883717 
L 339.472448 176.206573 
L 340.096783 178.541391 
L 340.721119 185.831431 
L 341.345455 178.175423 
L 341.96979 178.769293 
L 342.594126 195.963158 
L 343.218462 192.358328 
L 343.842797 194.659102 
L 344.467133 193.521482 
L 345.091469 195.835495 
L 345.715804 208.146007 
L 346.34014 210.886509 
L 346.964476 208.743659 
L 347.588811 205.6022 
L 348.213147 195.302146 
L 348.837483 194.357439 
L 349.461818 197.097942 
L 350.086154 192.900187 
L 350.71049 194.465243 
L 351.334825 199.237009 
L 352.583497 227.177275 
L 353.207832 231.087551 
L 353.832168 226.818873 
L 354.456503 224.900142 
L 355.080839 226.100176 
L 356.32951 241.189963 
L 356.953846 230.43505 
L 357.578182 244.669966 
L 358.202517 244.446792 
L 358.826853 249.914558 
L 359.451189 257.32375 
L 360.075524 252.708963 
L 360.69986 239.853755 
L 361.324196 238.918504 
L 361.948531 225.386208 
L 362.572867 221.399335 
L 363.197203 219.501409 
L 363.821538 225.454295 
L 364.445874 227.710623 
L 365.07021 226.95221 
L 365.694545 232.624237 
L 366.318881 235.188848 
L 366.943217 225.560208 
L 367.567552 226.37347 
L 368.191888 243.508704 
L 368.816224 241.115256 
L 369.440559 228.439722 
L 370.064895 223.082597 
L 370.689231 223.184728 
L 371.313566 210.253867 
L 371.937902 209.502073 
L 372.562238 210.178215 
L 373.186573 211.448227 
L 373.810909 214.392045 
L 374.435245 209.76591 
L 375.05958 210.6274 
L 375.683916 200.521206 
L 376.308252 203.590796 
L 376.932587 202.334023 
L 377.556923 204.751112 
L 378.181259 204.934569 
L 378.805594 211.016064 
L 379.42993 211.942804 
L 380.054266 211.520097 
L 381.302937 217.646983 
L 381.927273 207.382865 
L 382.551608 208.10818 
L 383.175944 205.275949 
L 383.80028 206.986636 
L 384.424615 202.531664 
L 385.048951 202.897632 
L 385.673287 203.582285 
L 386.297622 205.258928 
L 386.921958 204.689645 
L 388.170629 211.369738 
L 388.794965 213.759403 
L 389.419301 213.24024 
L 390.043636 215.984525 
L 390.667972 228.881342 
L 391.292308 234.408684 
L 391.916643 237.452742 
L 392.540979 243.767813 
L 393.165315 245.253434 
L 393.78965 237.69672 
L 394.413986 233.687151 
L 395.038322 235.91511 
L 395.662657 236.359567 
L 396.286993 235.69099 
L 396.911329 227.044884 
L 397.535664 227.371134 
L 398.16 221.8854 
L 398.784336 221.662226 
L 399.408671 219.09005 
L 400.033007 218.307049 
L 400.657343 221.535509 
L 401.281678 221.42865 
L 401.906014 217.419081 
L 402.53035 210.942303 
L 403.154685 210.331411 
L 403.779021 208.551692 
L 405.027692 199.097998 
L 405.652028 196.081364 
L 406.276364 195.530994 
L 406.900699 188.272161 
L 407.525035 187.87215 
L 408.149371 190.373402 
L 408.773706 194.284624 
L 409.398042 192.874655 
L 410.022378 197.504572 
L 410.646713 189.345477 
L 411.271049 191.266099 
L 411.895385 186.577551 
L 412.51972 185.312267 
L 413.144056 186.528377 
L 413.768392 195.499788 
L 414.392727 200.423803 
L 415.017063 190.148337 
L 415.641399 186.616323 
L 416.265734 187.405943 
L 416.89007 188.800781 
L 417.514406 190.642914 
L 418.138741 193.823145 
L 419.387413 184.84606 
L 420.011748 186.728855 
L 420.636084 185.963822 
L 421.26042 185.500452 
L 421.884755 195.989636 
L 422.509091 194.361221 
L 423.133427 195.833603 
L 423.757762 203.498122 
L 424.382098 199.706053 
L 425.006434 204.963884 
L 425.630769 201.631402 
L 426.255105 209.556921 
L 426.879441 205.55208 
L 427.503776 207.711006 
L 428.128112 200.681967 
L 429.376783 193.960265 
L 430.001119 193.549851 
L 430.625455 193.408003 
L 431.24979 196.403832 
L 431.874126 198.235562 
L 432.498462 195.811853 
L 433.122797 190.73937 
L 433.747133 183.742483 
L 434.371469 184.206799 
L 434.995804 183.455004 
L 435.62014 178.951804 
L 436.244476 184.053603 
L 436.868811 183.073906 
L 437.493147 180.940513 
L 438.117483 184.608701 
L 439.366154 179.446381 
L 439.99049 180.334349 
L 440.614825 183.443657 
L 441.239161 183.936342 
L 441.863497 199.182161 
L 442.487832 203.131208 
L 443.112168 211.701662 
L 443.736503 209.432095 
L 444.360839 207.938909 
L 444.985175 200.061618 
L 445.60951 198.061562 
L 446.233846 203.906644 
L 446.858182 199.367509 
L 447.482517 205.665559 
L 448.106853 206.438157 
L 448.731189 208.26705 
L 449.355524 214.207643 
L 449.97986 207.801789 
L 450.604196 212.39388 
L 451.228531 211.332858 
L 451.852867 210.753172 
L 452.477203 211.802847 
L 453.101538 211.969282 
L 453.725874 217.916494 
L 454.35021 222.32702 
L 454.974545 223.99137 
L 455.598881 219.566659 
L 456.223217 220.49529 
L 456.847552 217.076754 
L 457.471888 218.354332 
L 458.096224 218.008223 
L 458.720559 212.924392 
L 459.344895 213.691316 
L 459.969231 224.442446 
L 460.593566 224.102957 
L 461.217902 226.075589 
L 461.842238 221.968618 
L 463.090909 218.709897 
L 463.715245 218.706115 
L 464.963916 208.877942 
L 465.588252 210.450563 
L 466.212587 210.948922 
L 466.836923 223.739826 
L 467.461259 233.557596 
L 468.085594 227.79195 
L 468.70993 228.330026 
L 469.334266 228.493624 
L 469.958601 222.994651 
L 470.582937 218.873495 
L 471.207273 217.648875 
L 472.455944 223.957326 
L 473.08028 226.504916 
L 473.704615 224.36112 
L 474.328951 220.11041 
L 474.953287 226.393329 
L 475.577622 218.708006 
L 476.201958 219.98842 
L 476.826294 221.67452 
L 477.450629 222.704336 
L 478.074965 223.497739 
L 478.699301 229.92156 
L 479.323636 229.907376 
L 479.947972 230.750898 
L 480.572308 221.301932 
L 481.196643 222.728923 
L 481.820979 226.545579 
L 482.445315 218.78555 
L 483.06965 214.530111 
L 483.693986 213.523936 
L 484.318322 215.549525 
L 484.942657 213.541903 
L 485.566993 210.717237 
L 486.191329 214.294643 
L 486.815664 216.623787 
L 487.44 220.817758 
L 488.064336 219.875888 
L 488.688671 231.068638 
L 489.313007 230.742387 
L 489.937343 234.243195 
L 490.561678 238.646156 
L 491.186014 234.755739 
L 491.81035 243.886965 
L 492.434685 250.224732 
L 493.059021 247.361295 
L 493.683357 257.911001 
L 494.307692 255.719922 
L 494.932028 262.477559 
L 495.556364 256.526564 
L 496.180699 244.594314 
L 496.805035 244.137563 
L 497.429371 247.518273 
L 498.053706 246.440229 
L 498.678042 238.97146 
L 499.302378 242.855258 
L 499.926713 242.697334 
L 500.551049 250.98882 
L 501.175385 250.428993 
L 501.79972 244.177281 
L 502.424056 244.536629 
L 503.048392 249.78784 
L 503.672727 251.045559 
L 504.297063 250.803472 
L 504.921399 249.382155 
L 506.17007 255.876901 
L 506.794406 259.573459 
L 507.418741 251.355733 
L 508.043077 254.396954 
L 508.667413 256.289205 
L 509.291748 253.669746 
L 509.916084 252.116984 
L 511.164755 257.828729 
L 511.789091 257.883577 
L 512.413427 253.926018 
L 513.037762 257.544087 
L 513.662098 262.528625 
L 514.286434 261.141351 
L 515.535105 273.558722 
L 516.159441 277.375378 
L 516.783776 289.984716 
L 517.408112 284.151928 
L 518.656783 279.714924 
L 519.281119 270.910894 
L 519.905455 265.770323 
L 521.154126 269.214392 
L 521.778462 273.991831 
L 522.402797 269.177511 
L 523.027133 260.222177 
L 523.651469 259.651002 
L 524.275804 259.942263 
L 525.524476 263.244484 
L 526.148811 260.173948 
L 526.773147 257.811707 
L 527.397483 254.589867 
L 528.021818 259.815546 
L 528.646154 257.729435 
L 529.27049 255.048509 
L 529.894825 256.815934 
L 530.519161 263.263397 
L 531.143497 258.526621 
L 531.767832 263.497919 
L 532.392168 263.867669 
L 533.016503 261.504482 
L 533.640839 265.11404 
L 534.265175 265.897041 
L 534.88951 263.833626 
L 535.513846 264.571235 
L 536.138182 273.901049 
L 536.762517 271.876405 
L 537.386853 271.94071 
L 538.011189 270.347284 
L 538.635524 264.024648 
L 539.25986 263.898876 
L 539.884196 269.447023 
L 540.508531 271.16622 
L 541.132867 274.905332 
L 541.757203 281.006686 
L 542.381538 281.517339 
L 543.005874 288.191758 
L 543.63021 285.404919 
L 544.254545 287.964801 
L 544.878881 287.616801 
L 545.503217 293.015535 
L 546.127552 290.43863 
L 546.751888 281.240262 
L 547.376224 276.849595 
L 548.000559 278.719151 
L 548.624895 279.481348 
L 549.249231 283.838917 
L 549.873566 290.784739 
L 550.497902 301.58126 
L 551.122238 300.35664 
L 551.746573 302.490979 
L 552.370909 296.270473 
L 552.995245 297.942387 
L 553.61958 299.160388 
L 554.243916 299.434628 
L 554.868252 311.620314 
L 555.492587 311.10777 
L 556.116923 315.697024 
L 556.741259 338.152502 
L 557.365594 330.136201 
L 557.98993 323.709543 
L 558.614266 310.519573 
L 559.238601 314.878088 
L 560.487273 334.935391 
L 561.111608 346.095043 
L 561.735944 347.82086 
L 562.984615 368.480543 
L 564.233287 307.078342 
L 564.857622 303.233316 
L 565.481958 304.049415 
L 566.106294 304.109937 
L 566.730629 304.291502 
L 567.354965 300.764216 
L 567.979301 298.743355 
L 568.603636 298.956127 
L 569.227972 288.33266 
L 569.852308 300.035118 
L 570.476643 284.645559 
L 571.100979 281.594882 
L 571.725315 280.670979 
L 572.34965 284.16895 
L 572.973986 284.332548 
L 573.598322 291.216902 
L 574.222657 284.379831 
L 574.846993 275.731833 
L 575.471329 277.37065 
L 576.095664 278.184857 
L 576.72 280.282316 
L 577.344336 274.493027 
L 577.968671 267.466825 
L 578.593007 272.216841 
L 579.217343 270.780393 
L 579.841678 273.388505 
L 581.09035 289.566738 
L 581.714685 290.543597 
L 582.339021 302.62337 
L 583.587692 290.379054 
L 584.212028 279.498369 
L 584.836364 281.38873 
L 585.460699 282.015698 
L 586.085035 289.203607 
L 586.709371 285.013418 
L 587.333706 291.389957 
L 587.958042 288.899107 
L 588.582378 291.224468 
L 589.206713 285.314136 
L 589.831049 299.325878 
L 590.455385 285.311299 
L 591.07972 284.357135 
L 591.704056 287.664084 
L 592.328392 292.136077 
L 592.952727 297.744746 
L 593.577063 292.565404 
L 594.201399 292.915295 
L 595.45007 272.191308 
L 596.074406 275.723322 
L 596.698741 267.45264 
L 597.323077 267.596379 
L 597.947413 274.057081 
L 598.571748 264.788735 
L 599.196084 266.809596 
L 599.82042 269.659795 
L 600.444755 270.08723 
L 601.069091 275.201322 
L 601.693427 277.280813 
L 602.317762 270.924133 
L 602.942098 267.934923 
L 603.566434 272.15159 
L 604.190769 273.125613 
L 604.815105 283.177905 
L 605.439441 287.798366 
L 606.063776 282.321144 
L 606.688112 287.544931 
L 607.312448 286.393126 
L 607.936783 288.251334 
L 608.561119 288.262682 
L 609.185455 291.522348 
L 609.80979 285.103255 
L 610.434126 291.156381 
L 611.058462 295.80332 
L 611.682797 297.677604 
L 612.307133 296.874745 
L 612.931469 295.410874 
L 613.555804 299.038399 
L 614.18014 297.288941 
L 614.804476 297.85255 
L 615.428811 295.605678 
L 616.053147 301.475347 
L 616.677483 308.496821 
L 617.301818 307.762995 
L 617.926154 318.110331 
L 618.55049 322.297683 
L 619.174825 315.507893 
L 619.799161 324.243837 
L 620.423497 322.85089 
L 621.047832 317.141036 
L 621.672168 322.217302 
L 622.296503 325.86374 
L 622.920839 333.090421 
L 623.545175 330.087027 
L 624.16951 337.901904 
L 624.793846 329.080852 
L 625.418182 332.17692 
L 626.042517 323.139314 
L 626.666853 325.065609 
L 627.291189 328.418895 
L 627.915524 327.051481 
L 628.53986 331.002419 
L 629.164196 329.006146 
L 630.412867 330.113505 
L 631.037203 343.653366 
L 631.661538 348.829871 
L 632.285874 349.076687 
L 632.91021 342.369169 
L 633.534545 344.973498 
L 634.158881 345.877542 
L 634.783217 328.181536 
L 635.407552 331.3438 
L 636.031888 337.429078 
L 636.656224 346.391032 
L 637.280559 341.007429 
L 637.904895 340.897733 
L 638.529231 340.531766 
L 639.153566 343.888834 
L 639.777902 344.470411 
L 640.402238 342.798496 
L 641.026573 348.923491 
L 641.650909 345.962651 
L 642.275245 348.61048 
L 642.89958 347.420848 
L 643.523916 355.07591 
L 644.148252 356.483988 
L 644.772587 361.566873 
L 645.396923 361.21509 
L 646.021259 360.5276 
L 646.645594 365.16792 
L 647.26993 364.721572 
L 647.894266 359.247186 
L 648.518601 351.567537 
L 649.142937 360.289296 
L 649.767273 355.598856 
L 650.391608 356.960597 
L 651.015944 355.16291 
L 651.64028 361.181046 
L 652.264615 364.042593 
L 652.888951 363.993419 
L 653.513287 363.311603 
L 654.137622 365.044985 
L 654.761958 369.36 
L 655.386294 368.233727 
L 656.010629 362.794331 
L 656.634965 364.874767 
L 657.259301 365.224659 
L 657.883636 346.792935 
L 658.507972 342.832539 
L 659.132308 323.28589 
L 659.756643 298.368877 
L 660.380979 247.157034 
L 661.005315 208.162083 
L 661.62965 247.873839 
L 662.253986 252.106582 
L 662.878322 272.917569 
L 663.502657 259.92997 
L 664.126993 272.75208 
L 664.751329 273.836744 
L 665.375664 277.817944 
L 666 256.916173 
L 666.624336 250.844135 
L 667.248671 246.151804 
L 667.873007 244.021248 
L 668.497343 248.719252 
L 669.746014 233.870608 
L 670.37035 240.602712 
L 670.994685 238.200753 
L 671.619021 232.209095 
L 672.243357 238.778547 
L 672.867692 229.597201 
L 673.492028 212.286076 
L 674.116364 210.979183 
L 674.740699 200.220488 
L 675.365035 201.8385 
L 675.989371 191.609371 
L 676.613706 197.92066 
L 677.238042 198.302704 
L 678.486713 230.016126 
L 679.111049 238.663178 
L 679.735385 228.869994 
L 680.35972 223.594195 
L 680.984056 224.263718 
L 681.608392 246.492239 
L 682.232727 247.872893 
L 682.857063 252.144408 
L 683.481399 241.320463 
L 684.105734 245.797184 
L 685.354406 228.206146 
L 685.978741 229.293647 
L 686.603077 234.291423 
L 687.227413 232.142899 
L 687.851748 224.841512 
L 688.476084 227.876113 
L 689.10042 223.622565 
L 690.349091 213.381142 
L 690.973427 223.981913 
L 692.222098 237.23335 
L 692.846434 233.407238 
L 694.095105 230.706452 
L 694.719441 240.033429 
L 695.343776 232.779324 
L 695.968112 237.977579 
L 696.592448 233.55476 
L 697.216783 232.409574 
L 697.841119 232.436998 
L 699.08979 265.824226 
L 699.714126 276.984823 
L 700.338462 277.051019 
L 700.962797 271.605949 
L 701.587133 273.789462 
L 702.211469 274.262288 
L 702.835804 282.518785 
L 703.46014 281.344284 
L 704.084476 263.322973 
L 704.708811 268.033271 
L 705.333147 265.842193 
L 705.957483 261.902602 
L 706.581818 259.345556 
L 707.206154 257.493022 
L 708.454825 262.190081 
L 709.079161 255.97714 
L 709.703497 261.708743 
L 710.327832 259.339882 
L 710.952168 246.714468 
L 711.576503 238.57334 
L 712.200839 233.413857 
L 712.825175 236.276349 
L 713.44951 228.498352 
L 714.073846 232.495628 
L 714.698182 227.810863 
L 715.322517 227.723863 
L 715.946853 237.937862 
L 716.571189 228.181559 
L 717.195524 226.888851 
L 717.81986 217.478657 
L 718.444196 218.621952 
L 719.068531 224.768697 
L 719.692867 217.981744 
L 720.317203 220.133105 
L 720.941538 236.12599 
L 721.565874 233.676749 
L 722.19021 228.772592 
L 722.814545 227.536623 
L 723.438881 218.357169 
L 724.063217 221.572389 
L 724.687552 221.586574 
L 725.311888 218.621952 
L 725.936224 219.044658 
L 726.560559 223.444782 
L 727.184895 213.419914 
L 727.809231 212.659609 
L 728.433566 210.268998 
L 729.057902 213.281849 
L 729.682238 217.248863 
L 730.306573 225.529002 
L 730.930909 225.798513 
L 731.555245 227.891243 
L 732.17958 227.744667 
L 732.803916 226.884123 
L 733.428252 230.815202 
L 734.052587 236.324577 
L 734.676923 233.007226 
L 735.301259 232.417139 
L 735.925594 237.484894 
L 736.54993 290.296782 
L 737.174266 286.525517 
L 738.422937 265.990661 
L 739.047273 262.467157 
L 739.671608 258.134175 
L 740.295944 260.461427 
L 740.92028 264.780225 
L 741.544615 264.76604 
L 742.168951 264.415202 
L 742.793287 256.692999 
L 743.417622 258.411251 
L 744.041958 257.39562 
L 744.666294 260.144633 
L 745.290629 258.130392 
L 745.914965 260.861438 
L 746.539301 260.236361 
L 747.163636 257.691609 
L 747.163636 257.691609 
" clip-path="url(#pde251f743f)" style="fill: none; stroke: #1f77b4; stroke-width: 1.5; stroke-linecap: square"/>
   </g>
   <g id="line2d_15">
    <path d="M 138.436364 179.791282 
L 139.060699 179.766209 
L 139.685035 176.856387 
L 140.309371 175.104758 
L 140.933706 174.216823 
L 141.558042 174.975747 
L 142.182378 172.426362 
L 142.806713 171.38051 
L 143.431049 168.540965 
L 144.055385 167.471426 
L 144.67972 168.409368 
L 145.304056 163.809745 
L 145.928392 174.854677 
L 146.552727 172.549509 
L 147.177063 177.57597 
L 147.801399 170.245727 
L 148.425734 166.101845 
L 149.05007 164.901263 
L 149.674406 165.893691 
L 150.923077 169.419712 
L 151.547413 165.506287 
L 152.171748 158.01411 
L 152.796084 156.210489 
L 153.42042 151.798935 
L 154.044755 152.221893 
L 154.669091 147.68128 
L 155.293427 148.170822 
L 155.917762 153.129683 
L 156.542098 154.264974 
L 157.166434 153.6672 
L 157.790769 151.533662 
L 158.415105 153.290508 
L 159.039441 160.175306 
L 159.663776 153.28409 
L 160.288112 153.606665 
L 160.912448 156.400636 
L 161.536783 163.801618 
L 162.161119 160.71998 
L 163.40979 149.228864 
L 164.658462 139.876687 
L 165.282797 142.530149 
L 165.907133 138.196768 
L 166.531469 137.52239 
L 167.155804 142.595255 
L 167.78014 139.268339 
L 168.404476 147.33331 
L 169.028811 151.978322 
L 169.653147 148.344392 
L 170.277483 148.782726 
L 170.901818 144.223413 
L 171.526154 144.288611 
L 172.774825 127.683119 
L 173.399161 125.383307 
L 174.023497 130.845839 
L 174.647832 129.645533 
L 175.272168 129.688429 
L 175.896503 131.550507 
L 176.520839 131.244878 
L 177.145175 123.420661 
L 177.76951 119.066178 
L 178.393846 119.845234 
L 180.266853 148.899778 
L 180.891189 140.185133 
L 181.515524 140.158351 
L 182.13986 132.567315 
L 182.764196 138.108944 
L 183.388531 132.388897 
L 184.012867 138.392317 
L 184.637203 136.214128 
L 185.261538 137.196306 
L 186.51021 124.207566 
L 187.134545 120.555905 
L 187.758881 119.877648 
L 188.383217 121.889516 
L 189.007552 130.515876 
L 189.631888 127.25171 
L 190.256224 127.228577 
L 190.880559 128.886656 
L 191.504895 120.035057 
L 192.129231 115.970826 
L 192.753566 110.562734 
L 193.377902 117.557935 
L 194.002238 105.373832 
L 194.626573 105.210929 
L 195.250909 101.108558 
L 195.875245 100.475829 
L 196.49958 92.100058 
L 197.123916 93.965183 
L 197.748252 89.455046 
L 198.372587 82.618501 
L 198.996923 81.684945 
L 199.621259 77.018784 
L 200.245594 79.055956 
L 200.86993 75.316193 
L 201.494266 80.203022 
L 202.118601 75.08726 
L 202.742937 82.220985 
L 203.367273 81.400234 
L 203.991608 69.508923 
L 204.615944 73.144978 
L 205.24028 83.22925 
L 205.864615 96.426975 
L 206.488951 85.400374 
L 207.113287 101.208618 
L 207.737622 94.980514 
L 208.361958 101.762296 
L 208.986294 104.980657 
L 209.610629 120.659382 
L 210.234965 122.990361 
L 210.859301 124.860843 
L 211.483636 124.2832 
L 212.107972 120.7165 
L 212.732308 116.445408 
L 213.356643 116.412808 
L 213.980979 117.880464 
L 214.605315 122.552627 
L 215.22965 116.799612 
L 215.853986 114.206731 
L 216.478322 116.089679 
L 217.102657 120.948988 
L 217.726993 116.246349 
L 218.351329 115.683113 
L 218.975664 119.215368 
L 219.6 117.026144 
L 220.224336 112.095311 
L 220.848671 115.860608 
L 221.473007 113.070747 
L 222.097343 108.958033 
L 222.721678 125.981959 
L 223.346014 116.709018 
L 223.97035 109.955078 
L 224.594685 112.292107 
L 225.219021 115.091341 
L 225.843357 110.352317 
L 226.467692 109.997882 
L 227.716364 94.853303 
L 228.340699 93.663803 
L 228.965035 94.087638 
L 229.589371 97.519232 
L 230.213706 98.028998 
L 230.838042 100.917673 
L 232.711049 114.403342 
L 233.335385 108.497581 
L 233.95972 111.095865 
L 234.584056 111.425597 
L 235.832727 97.079467 
L 236.457063 100.539181 
L 237.081399 97.847256 
L 237.705734 101.571734 
L 238.33007 102.132708 
L 238.954406 95.903541 
L 239.578741 96.731634 
L 240.203077 105.245929 
L 240.827413 99.171816 
L 241.451748 98.188623 
L 242.076084 95.889966 
L 242.70042 99.664775 
L 243.324755 100.722355 
L 243.949091 99.728034 
L 244.573427 101.903544 
L 245.197762 96.701898 
L 245.822098 93.106246 
L 246.446434 90.169873 
L 247.070769 99.10491 
L 248.319441 104.417559 
L 248.943776 105.956739 
L 249.568112 110.016075 
L 250.192448 91.634804 
L 250.816783 106.042762 
L 251.441119 112.835857 
L 252.065455 112.556686 
L 252.68979 114.492458 
L 253.938462 124.325634 
L 254.562797 131.544874 
L 255.187133 132.089179 
L 255.811469 149.216397 
L 256.435804 146.192985 
L 257.06014 160.49391 
L 257.684476 162.61498 
L 258.308811 153.22531 
L 259.557483 140.563024 
L 260.181818 143.163432 
L 260.806154 152.06984 
L 261.43049 158.55172 
L 262.054825 154.970844 
L 262.679161 153.936535 
L 263.303497 152.039873 
L 263.927832 147.251904 
L 264.552168 145.921571 
L 265.176503 152.364202 
L 265.800839 144.976657 
L 266.425175 150.612943 
L 267.04951 147.050814 
L 267.673846 147.285611 
L 268.298182 147.261277 
L 268.922517 149.509328 
L 269.546853 149.483377 
L 270.171189 154.34952 
L 270.795524 164.851348 
L 271.41986 179.897622 
L 272.044196 188.354799 
L 272.668531 180.520654 
L 273.292867 178.142253 
L 273.917203 190.425169 
L 274.541538 216.470894 
L 275.165874 200.803574 
L 275.79021 191.69289 
L 277.038881 188.177673 
L 277.663217 189.463863 
L 278.287552 186.611805 
L 279.536224 196.857873 
L 280.160559 195.487553 
L 280.784895 197.919655 
L 281.409231 186.920851 
L 282.033566 188.19208 
L 283.282238 184.281333 
L 283.906573 192.762521 
L 284.530909 190.937614 
L 285.155245 201.735975 
L 285.77958 198.304473 
L 286.403916 209.018843 
L 287.028252 204.592697 
L 287.652587 209.752647 
L 288.276923 213.574785 
L 288.901259 216.324567 
L 290.14993 243.176543 
L 290.774266 247.00413 
L 291.398601 276.176465 
L 292.022937 286.061126 
L 292.647273 270.390574 
L 293.271608 275.485788 
L 293.895944 255.463015 
L 294.52028 253.921988 
L 295.144615 264.22342 
L 295.768951 258.818236 
L 296.393287 250.697256 
L 297.017622 245.03188 
L 297.641958 245.573598 
L 298.266294 243.095692 
L 298.890629 242.374308 
L 299.514965 241.846534 
L 300.139301 243.26723 
L 300.763636 241.540997 
L 301.387972 230.765216 
L 302.012308 227.542192 
L 302.636643 241.616031 
L 303.260979 234.832679 
L 303.885315 229.499574 
L 304.50965 228.683163 
L 305.133986 226.133594 
L 305.758322 221.096329 
L 306.382657 224.489875 
L 307.006993 219.407497 
L 307.631329 208.248791 
L 308.255664 206.925662 
L 308.88 203.21051 
L 309.504336 208.415665 
L 310.128671 191.556813 
L 310.753007 197.489447 
L 311.377343 198.619568 
L 312.001678 205.696174 
L 312.626014 199.927182 
L 313.874685 194.778729 
L 314.499021 198.63305 
L 315.123357 204.743318 
L 315.747692 194.068196 
L 316.996364 184.42295 
L 317.620699 178.002483 
L 318.245035 186.340345 
L 318.869371 184.366987 
L 319.493706 187.51978 
L 320.118042 180.558748 
L 320.742378 179.39432 
L 321.366713 186.707986 
L 321.991049 183.854681 
L 322.615385 188.268637 
L 323.23972 194.657567 
L 323.864056 199.525603 
L 325.112727 193.510547 
L 325.737063 201.568731 
L 326.361399 191.241719 
L 326.985734 191.209443 
L 327.61007 185.173424 
L 328.234406 188.890884 
L 329.483077 199.136629 
L 330.107413 194.099734 
L 330.731748 192.575468 
L 331.356084 190.041921 
L 331.98042 192.403515 
L 332.604755 189.280412 
L 333.229091 201.491296 
L 333.853427 205.394239 
L 334.477762 205.258302 
L 335.102098 197.177447 
L 335.726434 194.061086 
L 336.350769 192.539221 
L 336.975105 191.447842 
L 337.599441 178.598596 
L 338.223776 180.348977 
L 338.848112 178.938163 
L 340.096783 177.379359 
L 340.721119 181.063712 
L 341.345455 187.206486 
L 341.96979 182.300541 
L 342.594126 184.206254 
L 343.218462 196.25428 
L 343.842797 193.302024 
L 344.467133 196.180817 
L 345.091469 197.428497 
L 345.715804 198.986839 
L 346.964476 210.01007 
L 347.588811 207.939976 
L 348.213147 203.363071 
L 348.837483 192.872739 
L 349.461818 194.006923 
L 350.086154 196.209814 
L 350.71049 181.430245 
L 351.334825 190.076137 
L 352.583497 213.269387 
L 353.207832 225.945987 
L 353.832168 231.718211 
L 354.456503 229.463188 
L 355.080839 228.300746 
L 355.705175 229.368484 
L 356.953846 240.530469 
L 357.578182 231.340042 
L 358.202517 244.189703 
L 358.826853 242.172387 
L 359.451189 248.136143 
L 360.075524 251.3642 
L 360.69986 246.094123 
L 361.324196 236.859922 
L 361.948531 236.941928 
L 362.572867 221.055741 
L 363.197203 219.758193 
L 363.821538 219.015153 
L 364.445874 224.586472 
L 365.07021 226.503913 
L 365.694545 225.820392 
L 366.318881 228.932043 
L 366.943217 231.260021 
L 367.567552 223.279134 
L 368.191888 224.2705 
L 368.816224 236.659525 
L 369.440559 234.887303 
L 370.064895 219.538079 
L 370.689231 213.945058 
L 371.313566 217.034638 
L 371.937902 206.157919 
L 372.562238 206.642751 
L 373.186573 209.403199 
L 373.810909 204.238538 
L 374.435245 208.721063 
L 375.05958 201.124763 
L 375.683916 203.388744 
L 376.308252 196.075908 
L 376.932587 200.452232 
L 377.556923 202.770744 
L 378.805594 205.976453 
L 379.42993 210.467474 
L 380.054266 211.013025 
L 380.678601 210.91532 
L 381.927273 215.971147 
L 382.551608 204.370644 
L 383.175944 200.51623 
L 383.80028 193.815391 
L 384.424615 197.947544 
L 385.048951 191.809342 
L 386.297622 196.104029 
L 386.921958 198.926027 
L 387.546294 193.644869 
L 388.794965 204.179112 
L 389.419301 207.988321 
L 390.043636 208.934343 
L 390.667972 211.388655 
L 391.292308 222.855345 
L 393.165315 237.913116 
L 393.78965 239.69956 
L 394.413986 233.557986 
L 395.038322 230.494033 
L 396.286993 231.464805 
L 396.911329 230.635189 
L 397.535664 220.81351 
L 398.16 220.416917 
L 398.784336 215.513651 
L 399.408671 215.449838 
L 400.033007 211.634349 
L 400.657343 212.141114 
L 401.281678 213.680432 
L 401.906014 217.32212 
L 402.53035 212.215132 
L 403.154685 202.051069 
L 403.779021 201.546198 
L 404.403357 199.999353 
L 405.027692 197.461697 
L 405.652028 193.091837 
L 406.276364 187.808786 
L 406.900699 193.36616 
L 407.525035 187.709926 
L 408.149371 189.385367 
L 408.773706 195.542362 
L 409.398042 200.319157 
L 410.022378 200.164611 
L 410.646713 203.492498 
L 411.271049 196.439117 
L 411.895385 203.779703 
L 412.51972 194.389017 
L 413.144056 191.300222 
L 413.768392 191.16844 
L 414.392727 192.745113 
L 415.017063 197.44041 
L 415.641399 188.020957 
L 416.265734 184.809569 
L 416.89007 187.06847 
L 417.514406 187.499601 
L 418.763077 191.577453 
L 419.387413 186.838291 
L 420.011748 188.09262 
L 420.636084 191.595369 
L 421.26042 191.89421 
L 421.884755 191.761551 
L 422.509091 198.317171 
L 423.133427 198.007525 
L 423.757762 192.036843 
L 424.382098 202.948655 
L 425.006434 201.737406 
L 425.630769 207.015055 
L 426.255105 204.583923 
L 426.879441 210.162676 
L 427.503776 205.114468 
L 428.128112 205.766359 
L 428.752448 201.656693 
L 429.376783 199.457172 
L 430.001119 197.738097 
L 430.625455 197.130395 
L 431.24979 197.862583 
L 431.874126 199.730756 
L 432.498462 201.009974 
L 433.122797 199.732095 
L 434.371469 185.33425 
L 434.995804 184.766627 
L 435.62014 184.438003 
L 436.244476 183.758638 
L 436.868811 186.627827 
L 438.117483 180.999114 
L 438.741818 182.641493 
L 439.366154 182.24744 
L 439.99049 180.462197 
L 441.239161 186.21258 
L 441.863497 188.001656 
L 442.487832 199.777392 
L 443.112168 203.469179 
L 443.736503 210.157228 
L 444.360839 208.691927 
L 444.985175 208.257287 
L 446.233846 194.72018 
L 446.858182 199.993997 
L 447.482517 193.883545 
L 448.106853 196.531604 
L 448.731189 200.646303 
L 449.355524 202.427068 
L 449.97986 208.182438 
L 450.604196 204.265689 
L 451.228531 210.185071 
L 451.852867 209.500119 
L 452.477203 208.334306 
L 453.101538 209.404769 
L 453.725874 211.15866 
L 454.35021 216.733118 
L 454.974545 221.30199 
L 455.598881 223.273732 
L 456.223217 220.593258 
L 456.847552 220.464708 
L 457.471888 217.755652 
L 458.096224 214.258444 
L 458.720559 211.712846 
L 459.344895 206.663806 
L 459.969231 207.494439 
L 460.593566 215.989571 
L 461.217902 217.583237 
L 461.842238 220.756854 
L 462.466573 212.19777 
L 463.090909 212.59173 
L 463.715245 213.145455 
L 464.33958 213.868362 
L 464.963916 210.205249 
L 465.588252 207.39327 
L 466.212587 210.998573 
L 466.836923 212.819278 
L 467.461259 224.032932 
L 468.085594 231.976372 
L 468.70993 228.269301 
L 469.334266 229.648025 
L 469.958601 229.598064 
L 470.582937 225.258587 
L 471.207273 219.76969 
L 471.831608 217.009334 
L 472.455944 218.816141 
L 473.08028 222.303606 
L 473.704615 225.030255 
L 474.328951 220.296679 
L 474.953287 216.65513 
L 475.577622 221.47579 
L 476.201958 213.060817 
L 476.826294 214.848554 
L 477.450629 217.112811 
L 478.074965 216.473018 
L 479.323636 225.541406 
L 479.947972 225.977893 
L 480.572308 227.341287 
L 481.196643 215.824036 
L 481.820979 215.839135 
L 482.445315 217.988602 
L 483.06965 208.012609 
L 483.693986 200.918779 
L 484.318322 198.182711 
L 484.942657 203.64178 
L 485.566993 205.087133 
L 486.191329 201.17574 
L 486.815664 208.064832 
L 487.44 213.595009 
L 488.064336 223.756671 
L 488.688671 223.657765 
L 489.313007 230.912836 
L 489.937343 229.77385 
L 491.186014 237.015946 
L 491.81035 235.917317 
L 492.434685 242.584171 
L 493.059021 246.450405 
L 493.683357 242.856323 
L 494.307692 251.388441 
L 494.932028 248.189705 
L 495.556364 252.168975 
L 496.180699 238.930339 
L 496.805035 231.793383 
L 497.429371 235.679426 
L 498.053706 243.837392 
L 498.678042 247.168788 
L 499.302378 239.906929 
L 499.926713 243.144868 
L 500.551049 243.667978 
L 501.175385 250.170959 
L 501.79972 250.509418 
L 502.424056 244.427133 
L 503.048392 245.937453 
L 503.672727 250.552868 
L 504.297063 251.854111 
L 504.921399 251.061064 
L 505.545734 250.030312 
L 506.17007 250.49889 
L 506.794406 254.029344 
L 507.418741 258.349935 
L 508.043077 251.654453 
L 508.667413 255.351411 
L 509.291748 257.717991 
L 509.916084 255.570832 
L 510.54042 254.257769 
L 511.164755 255.081383 
L 511.789091 256.149121 
L 512.413427 253.259662 
L 513.037762 246.492101 
L 513.662098 255.829409 
L 514.286434 261.726258 
L 514.910769 260.959485 
L 515.535105 266.65746 
L 516.783776 274.425853 
L 517.408112 284.424564 
L 518.032448 277.230259 
L 518.656783 275.437397 
L 519.281119 274.947948 
L 519.905455 267.359728 
L 520.52979 262.828581 
L 521.154126 264.563356 
L 521.778462 266.851994 
L 522.402797 270.631374 
L 523.027133 265.559385 
L 523.651469 255.50568 
L 524.90014 256.696474 
L 525.524476 257.574481 
L 526.148811 261.356632 
L 526.773147 257.831303 
L 527.397483 256.013415 
L 528.021818 252.220782 
L 528.646154 258.199452 
L 529.27049 257.413517 
L 529.894825 254.933394 
L 530.519161 254.847509 
L 531.143497 259.587965 
L 531.767832 255.653623 
L 532.392168 259.987005 
L 533.016503 260.564093 
L 533.640839 259.554858 
L 534.265175 262.709636 
L 534.88951 262.252416 
L 535.513846 260.242442 
L 536.138182 260.237917 
L 536.762517 268.397961 
L 537.386853 266.288388 
L 538.011189 268.134628 
L 538.635524 265.183433 
L 539.25986 260.207811 
L 539.884196 263.345504 
L 540.508531 269.413291 
L 541.132867 270.803466 
L 541.757203 273.067769 
L 542.381538 277.673442 
L 543.005874 278.26429 
L 543.63021 283.815985 
L 544.254545 281.385315 
L 544.878881 283.036745 
L 545.503217 284.28267 
L 546.127552 289.163635 
L 546.751888 286.351009 
L 547.376224 276.141003 
L 548.000559 273.50047 
L 549.249231 275.186023 
L 549.873566 279.593284 
L 550.497902 284.795392 
L 551.122238 295.994732 
L 551.746573 296.741327 
L 552.370909 301.024886 
L 552.995245 295.951466 
L 553.61958 299.935445 
L 554.243916 300.372071 
L 554.868252 300.015466 
L 555.492587 310.059336 
L 556.116923 306.428545 
L 556.741259 312.668055 
L 557.365594 329.367697 
L 557.98993 320.852987 
L 558.614266 315.385561 
L 559.238601 302.564481 
L 559.862937 307.432747 
L 560.487273 314.903314 
L 561.111608 325.53891 
L 561.735944 333.48295 
L 562.36028 334.04711 
L 562.984615 341.438211 
L 563.608951 345.468457 
L 564.857622 285.965499 
L 565.481958 283.507863 
L 566.106294 287.465153 
L 566.730629 293.741464 
L 567.354965 294.53294 
L 567.979301 294.797566 
L 568.603636 293.17047 
L 569.227972 292.652854 
L 569.852308 285.647218 
L 570.476643 291.044505 
L 571.100979 279.493639 
L 571.725315 281.675106 
L 572.34965 281.039191 
L 572.973986 283.857357 
L 573.598322 284.741829 
L 574.222657 286.664673 
L 574.846993 281.372986 
L 575.471329 272.532884 
L 576.095664 272.136615 
L 576.72 272.529329 
L 577.344336 275.089057 
L 577.968671 270.03697 
L 578.593007 262.009631 
L 579.217343 264.926611 
L 579.841678 265.948359 
L 580.466014 269.765649 
L 581.714685 283.425303 
L 582.339021 284.926435 
L 582.963357 294.885667 
L 583.587692 287.641355 
L 584.212028 283.103928 
L 584.836364 273.571533 
L 585.460699 274.012222 
L 586.085035 272.542904 
L 586.709371 275.387944 
L 587.333706 271.447138 
L 587.958042 276.897942 
L 588.582378 266.617473 
L 589.206713 274.241709 
L 589.831049 269.718689 
L 590.455385 280.744598 
L 591.07972 271.415093 
L 591.704056 272.004325 
L 592.952727 279.102726 
L 593.577063 284.410435 
L 594.201399 280.644676 
L 594.825734 281.142622 
L 595.45007 266.773312 
L 596.074406 256.509375 
L 596.698741 264.451106 
L 597.323077 256.95796 
L 597.947413 260.312627 
L 598.571748 267.322003 
L 599.196084 259.754285 
L 600.444755 264.030872 
L 601.069091 265.363698 
L 601.693427 270.485185 
L 602.317762 270.862892 
L 602.942098 264.770495 
L 603.566434 260.549918 
L 604.190769 265.979804 
L 604.815105 266.990101 
L 605.439441 272.667344 
L 606.063776 276.422483 
L 606.688112 271.081944 
L 607.312448 276.389422 
L 607.936783 276.141142 
L 608.561119 278.25838 
L 609.185455 277.162567 
L 609.80979 277.953767 
L 610.434126 274.437535 
L 611.058462 280.030233 
L 611.682797 281.193737 
L 612.307133 283.89873 
L 612.931469 284.418238 
L 613.555804 293.403005 
L 614.18014 294.311488 
L 614.804476 291.099545 
L 615.428811 292.76746 
L 616.053147 291.998331 
L 616.677483 296.707527 
L 617.301818 303.207091 
L 617.926154 302.418801 
L 618.55049 309.069263 
L 619.174825 311.914672 
L 619.799161 306.518031 
L 620.423497 315.045578 
L 621.047832 309.78372 
L 621.672168 306.961398 
L 622.296503 313.642613 
L 622.920839 318.423656 
L 623.545175 325.048491 
L 624.16951 323.535585 
L 624.793846 329.812911 
L 625.418182 319.986477 
L 626.042517 325.153215 
L 626.666853 316.440555 
L 627.915524 323.056848 
L 628.53986 322.197033 
L 629.164196 324.675356 
L 629.788531 322.666351 
L 631.037203 323.261447 
L 631.661538 333.26159 
L 632.285874 336.025548 
L 632.91021 337.938556 
L 633.534545 333.217678 
L 634.158881 336.151789 
L 635.407552 250.401231 
L 636.031888 234.847778 
L 636.656224 227.731784 
L 637.280559 226.218185 
L 637.904895 216.612141 
L 639.153566 214.614819 
L 639.777902 225.735939 
L 640.402238 224.639942 
L 641.026573 222.825747 
L 641.650909 228.975632 
L 642.275245 226.788486 
L 642.89958 230.303194 
L 643.523916 231.034736 
L 644.148252 239.608596 
L 644.772587 243.699839 
L 645.396923 250.547466 
L 646.021259 253.05654 
L 646.645594 253.834211 
L 647.26993 258.208456 
L 647.894266 259.614469 
L 648.518601 255.806368 
L 649.142937 245.188365 
L 649.767273 252.673708 
L 650.391608 247.567089 
L 651.64028 240.730636 
L 652.264615 246.107052 
L 652.888951 247.78808 
L 653.513287 253.428568 
L 655.386294 272.936542 
L 656.010629 273.948132 
L 656.634965 267.854626 
L 657.259301 269.485693 
L 657.883636 268.596834 
L 658.507972 244.675413 
L 659.132308 232.588646 
L 659.756643 212.101173 
L 660.380979 187.632722 
L 661.005315 134.238831 
L 661.62965 97.028582 
L 662.253986 130.741715 
L 662.878322 133.740331 
L 663.502657 157.312766 
L 664.126993 148.550284 
L 664.751329 157.887592 
L 665.375664 151.134807 
L 666 151.968811 
L 666.624336 134.395686 
L 667.248671 129.155345 
L 667.873007 126.173491 
L 668.497343 120.748776 
L 669.121678 117.686854 
L 669.746014 129.990272 
L 670.994685 170.194473 
L 671.619021 180.675385 
L 672.243357 185.167791 
L 672.867692 190.678806 
L 673.492028 185.182567 
L 674.116364 173.749861 
L 674.740699 170.105726 
L 675.365035 160.630817 
L 675.989371 158.577208 
L 676.613706 149.925359 
L 677.238042 154.000487 
L 677.862378 153.185692 
L 678.486713 166.217051 
L 679.111049 174.583587 
L 679.735385 176.752448 
L 680.35972 166.743901 
L 680.984056 160.979388 
L 681.608392 162.035906 
L 682.232727 178.851355 
L 682.857063 184.399725 
L 683.481399 193.58064 
L 684.105734 186.23299 
L 684.73007 188.951188 
L 685.354406 179.206482 
L 685.978741 173.250807 
L 686.603077 169.373768 
L 687.227413 169.861093 
L 687.851748 169.470688 
L 688.476084 167.220237 
L 689.10042 155.095699 
L 689.724755 151.162604 
L 690.349091 149.511636 
L 690.973427 150.892899 
L 691.597762 159.554398 
L 692.222098 160.284278 
L 692.846434 168.978561 
L 693.470769 168.115098 
L 694.095105 169.251036 
L 694.719441 169.930817 
L 695.343776 177.990986 
L 695.968112 173.590328 
L 696.592448 180.955571 
L 697.216783 178.952938 
L 697.841119 176.223612 
L 698.465455 177.258936 
L 700.962797 219.140563 
L 701.587133 219.228848 
L 702.211469 221.255815 
L 703.46014 232.233795 
L 704.084476 231.605868 
L 704.708811 213.38196 
L 705.333147 217.530274 
L 705.957483 211.879443 
L 706.581818 211.436076 
L 707.206154 209.687356 
L 707.83049 208.528562 
L 708.454825 211.620404 
L 709.079161 209.063078 
L 709.703497 205.356515 
L 710.327832 208.420976 
L 710.952168 204.31939 
L 711.576503 192.362927 
L 712.200839 186.00872 
L 712.825175 176.132787 
L 713.44951 176.205742 
L 714.073846 168.757385 
L 714.698182 169.186992 
L 715.322517 167.815749 
L 715.946853 172.256532 
L 716.571189 178.946382 
L 717.195524 172.20043 
L 717.81986 172.588712 
L 718.444196 169.660188 
L 719.068531 171.95843 
L 719.692867 171.752908 
L 720.317203 164.077557 
L 720.941538 165.732958 
L 721.565874 178.789388 
L 722.19021 178.598088 
L 722.814545 179.716803 
L 723.438881 179.333508 
L 724.063217 167.946931 
L 724.687552 169.536118 
L 725.311888 171.657696 
L 725.936224 172.037342 
L 726.560559 171.928601 
L 727.184895 174.498903 
L 727.809231 165.835927 
L 728.433566 168.129782 
L 729.057902 167.658802 
L 730.930909 180.039654 
L 731.555245 180.159985 
L 732.17958 183.332633 
L 732.803916 184.301465 
L 733.428252 184.176748 
L 734.052587 186.537741 
L 734.676923 195.350877 
L 735.301259 193.829705 
L 735.925594 194.803802 
L 736.54993 197.705128 
L 737.174266 238.249543 
L 737.798601 227.496248 
L 738.422937 220.983155 
L 739.047273 208.801869 
L 739.671608 208.358224 
L 740.295944 203.541766 
L 740.92028 206.030893 
L 742.168951 212.420331 
L 742.793287 213.065758 
L 743.417622 207.766222 
L 744.041958 210.531103 
L 744.666294 209.493747 
L 745.290629 212.264815 
L 745.914965 208.790741 
L 746.539301 210.574737 
L 747.163636 210.480311 
L 747.163636 210.480311 
" clip-path="url(#pde251f743f)" style="fill: none; stroke-dasharray: 5.55,2.4; stroke-dashoffset: 0; stroke: #ff7f0e; stroke-width: 1.5"/>
   </g>
   <g id="patch_3">
    <path d="M 108 384.48 
L 108 51.84 
" style="fill: none; stroke: #000000; stroke-width: 0.8; stroke-linejoin: miter; stroke-linecap: square"/>
   </g>
   <g id="patch_4">
    <path d="M 777.6 384.48 
L 777.6 51.84 
" style="fill: none; stroke: #000000; stroke-width: 0.8; stroke-linejoin: miter; stroke-linecap: square"/>
   </g>
   <g id="patch_5">
    <path d="M 108 384.48 
L 777.6 384.48 
" style="fill: none; stroke: #000000; stroke-width: 0.8; stroke-linejoin: miter; stroke-linecap: square"/>
   </g>
   <g id="patch_6">
    <path d="M 108 51.84 
L 777.6 51.84 
" style="fill: none; stroke: #000000; stroke-width: 0.8; stroke-linejoin: miter; stroke-linecap: square"/>
   </g>
   <g id="text_14">
    <!-- Stock Price Prediction -->
    <g transform="translate(377.939063 45.84) scale(0.12 -0.12)">
     <defs>
      <path id="DejaVuSans-53" d="M 3425 4513 
L 3425 3897 
Q 3066 4069 2747 4153 
Q 2428 4238 2131 4238 
Q 1616 4238 1336 4038 
Q 1056 3838 1056 3469 
Q 1056 3159 1242 3001 
Q 1428 2844 1947 2747 
L 2328 2669 
Q 3034 2534 3370 2195 
Q 3706 1856 3706 1288 
Q 3706 609 3251 259 
Q 2797 -91 1919 -91 
Q 1588 -91 1214 -16 
Q 841 59 441 206 
L 441 856 
Q 825 641 1194 531 
Q 1563 422 1919 422 
Q 2459 422 2753 634 
Q 3047 847 3047 1241 
Q 3047 1584 2836 1778 
Q 2625 1972 2144 2069 
L 1759 2144 
Q 1053 2284 737 2584 
Q 422 2884 422 3419 
Q 422 4038 858 4394 
Q 1294 4750 2059 4750 
Q 2388 4750 2728 4690 
Q 3069 4631 3425 4513 
z
" transform="scale(0.015625)"/>
      <path id="DejaVuSans-74" d="M 1172 4494 
L 1172 3500 
L 2356 3500 
L 2356 3053 
L 1172 3053 
L 1172 1153 
Q 1172 725 1289 603 
Q 1406 481 1766 481 
L 2356 481 
L 2356 0 
L 1766 0 
Q 1100 0 847 248 
Q 594 497 594 1153 
L 594 3053 
L 172 3053 
L 172 3500 
L 594 3500 
L 594 4494 
L 1172 4494 
z
" transform="scale(0.015625)"/>
      <path id="DejaVuSans-6f" d="M 1959 3097 
Q 1497 3097 1228 2736 
Q 959 2375 959 1747 
Q 959 1119 1226 758 
Q 1494 397 1959 397 
Q 2419 397 2687 759 
Q 2956 1122 2956 1747 
Q 2956 2369 2687 2733 
Q 2419 3097 1959 3097 
z
M 1959 3584 
Q 2709 3584 3137 3096 
Q 3566 2609 3566 1747 
Q 3566 888 3137 398 
Q 2709 -91 1959 -91 
Q 1206 -91 779 398 
Q 353 888 353 1747 
Q 353 2609 779 3096 
Q 1206 3584 1959 3584 
z
" transform="scale(0.015625)"/>
      <path id="DejaVuSans-63" d="M 3122 3366 
L 3122 2828 
Q 2878 2963 2633 3030 
Q 2388 3097 2138 3097 
Q 1578 3097 1268 2742 
Q 959 2388 959 1747 
Q 959 1106 1268 751 
Q 1578 397 2138 397 
Q 2388 397 2633 464 
Q 2878 531 3122 666 
L 3122 134 
Q 2881 22 2623 -34 
Q 2366 -91 2075 -91 
Q 1284 -91 818 406 
Q 353 903 353 1747 
Q 353 2603 823 3093 
Q 1294 3584 2113 3584 
Q 2378 3584 2631 3529 
Q 2884 3475 3122 3366 
z
" transform="scale(0.015625)"/>
      <path id="DejaVuSans-6b" d="M 581 4863 
L 1159 4863 
L 1159 1991 
L 2875 3500 
L 3609 3500 
L 1753 1863 
L 3688 0 
L 2938 0 
L 1159 1709 
L 1159 0 
L 581 0 
L 581 4863 
z
" transform="scale(0.015625)"/>
      <path id="DejaVuSans-20" transform="scale(0.015625)"/>
      <path id="DejaVuSans-50" d="M 1259 4147 
L 1259 2394 
L 2053 2394 
Q 2494 2394 2734 2622 
Q 2975 2850 2975 3272 
Q 2975 3691 2734 3919 
Q 2494 4147 2053 4147 
L 1259 4147 
z
M 628 4666 
L 2053 4666 
Q 2838 4666 3239 4311 
Q 3641 3956 3641 3272 
Q 3641 2581 3239 2228 
Q 2838 1875 2053 1875 
L 1259 1875 
L 1259 0 
L 628 0 
L 628 4666 
z
" transform="scale(0.015625)"/>
      <path id="DejaVuSans-72" d="M 2631 2963 
Q 2534 3019 2420 3045 
Q 2306 3072 2169 3072 
Q 1681 3072 1420 2755 
Q 1159 2438 1159 1844 
L 1159 0 
L 581 0 
L 581 3500 
L 1159 3500 
L 1159 2956 
Q 1341 3275 1631 3429 
Q 1922 3584 2338 3584 
Q 2397 3584 2469 3576 
Q 2541 3569 2628 3553 
L 2631 2963 
z
" transform="scale(0.015625)"/>
      <path id="DejaVuSans-69" d="M 603 3500 
L 1178 3500 
L 1178 0 
L 603 0 
L 603 3500 
z
M 603 4863 
L 1178 4863 
L 1178 4134 
L 603 4134 
L 603 4863 
z
" transform="scale(0.015625)"/>
      <path id="DejaVuSans-65" d="M 3597 1894 
L 3597 1613 
L 953 1613 
Q 991 1019 1311 708 
Q 1631 397 2203 397 
Q 2534 397 2845 478 
Q 3156 559 3463 722 
L 3463 178 
Q 3153 47 2828 -22 
Q 2503 -91 2169 -91 
Q 1331 -91 842 396 
Q 353 884 353 1716 
Q 353 2575 817 3079 
Q 1281 3584 2069 3584 
Q 2775 3584 3186 3129 
Q 3597 2675 3597 1894 
z
M 3022 2063 
Q 3016 2534 2758 2815 
Q 2500 3097 2075 3097 
Q 1594 3097 1305 2825 
Q 1016 2553 972 2059 
L 3022 2063 
z
" transform="scale(0.015625)"/>
      <path id="DejaVuSans-64" d="M 2906 2969 
L 2906 4863 
L 3481 4863 
L 3481 0 
L 2906 0 
L 2906 525 
Q 2725 213 2448 61 
Q 2172 -91 1784 -91 
Q 1150 -91 751 415 
Q 353 922 353 1747 
Q 353 2572 751 3078 
Q 1150 3584 1784 3584 
Q 2172 3584 2448 3432 
Q 2725 3281 2906 2969 
z
M 947 1747 
Q 947 1113 1208 752 
Q 1469 391 1925 391 
Q 2381 391 2643 752 
Q 2906 1113 2906 1747 
Q 2906 2381 2643 2742 
Q 2381 3103 1925 3103 
Q 1469 3103 1208 2742 
Q 947 2381 947 1747 
z
" transform="scale(0.015625)"/>
      <path id="DejaVuSans-6e" d="M 3513 2113 
L 3513 0 
L 2938 0 
L 2938 2094 
Q 2938 2591 2744 2837 
Q 2550 3084 2163 3084 
Q 1697 3084 1428 2787 
Q 1159 2491 1159 1978 
L 1159 0 
L 581 0 
L 581 3500 
L 1159 3500 
L 1159 2956 
Q 1366 3272 1645 3428 
Q 1925 3584 2291 3584 
Q 2894 3584 3203 3211 
Q 3513 2838 3513 2113 
z
" transform="scale(0.015625)"/>
     </defs>
     <use xlink:href="#DejaVuSans-53"/>
     <use xlink:href="#DejaVuSans-74" transform="translate(63.476562 0)"/>
     <use xlink:href="#DejaVuSans-6f" transform="translate(102.685547 0)"/>
     <use xlink:href="#DejaVuSans-63" transform="translate(163.867188 0)"/>
     <use xlink:href="#DejaVuSans-6b" transform="translate(218.847656 0)"/>
     <use xlink:href="#DejaVuSans-20" transform="translate(276.757812 0)"/>
     <use xlink:href="#DejaVuSans-50" transform="translate(308.544922 0)"/>
     <use xlink:href="#DejaVuSans-72" transform="translate(367.097656 0)"/>
     <use xlink:href="#DejaVuSans-69" transform="translate(408.210938 0)"/>
     <use xlink:href="#DejaVuSans-63" transform="translate(435.994141 0)"/>
     <use xlink:href="#DejaVuSans-65" transform="translate(490.974609 0)"/>
     <use xlink:href="#DejaVuSans-20" transform="translate(552.498047 0)"/>
     <use xlink:href="#DejaVuSans-50" transform="translate(584.285156 0)"/>
     <use xlink:href="#DejaVuSans-72" transform="translate(642.837891 0)"/>
     <use xlink:href="#DejaVuSans-65" transform="translate(681.701172 0)"/>
     <use xlink:href="#DejaVuSans-64" transform="translate(743.224609 0)"/>
     <use xlink:href="#DejaVuSans-69" transform="translate(806.701172 0)"/>
     <use xlink:href="#DejaVuSans-63" transform="translate(834.484375 0)"/>
     <use xlink:href="#DejaVuSans-74" transform="translate(889.464844 0)"/>
     <use xlink:href="#DejaVuSans-69" transform="translate(928.673828 0)"/>
     <use xlink:href="#DejaVuSans-6f" transform="translate(956.457031 0)"/>
     <use xlink:href="#DejaVuSans-6e" transform="translate(1017.638672 0)"/>
    </g>
   </g>
   <g id="legend_1">
    <g id="patch_7">
     <path d="M 664.085938 89.19625 
L 770.6 89.19625 
Q 772.6 89.19625 772.6 87.19625 
L 772.6 58.84 
Q 772.6 56.84 770.6 56.84 
L 664.085938 56.84 
Q 662.085938 56.84 662.085938 58.84 
L 662.085938 87.19625 
Q 662.085938 89.19625 664.085938 89.19625 
z
" style="fill: #ffffff; opacity: 0.8; stroke: #cccccc; stroke-linejoin: miter"/>
    </g>
    <g id="line2d_16">
     <path d="M 666.085938 64.938437 
L 676.085938 64.938437 
L 686.085938 64.938437 
" style="fill: none; stroke: #1f77b4; stroke-width: 1.5; stroke-linecap: square"/>
    </g>
    <g id="text_15">
     <!-- True Price -->
     <g transform="translate(694.085938 68.438437) scale(0.1 -0.1)">
      <defs>
       <path id="DejaVuSans-54" d="M -19 4666 
L 3928 4666 
L 3928 4134 
L 2272 4134 
L 2272 0 
L 1638 0 
L 1638 4134 
L -19 4134 
L -19 4666 
z
" transform="scale(0.015625)"/>
       <path id="DejaVuSans-75" d="M 544 1381 
L 544 3500 
L 1119 3500 
L 1119 1403 
Q 1119 906 1312 657 
Q 1506 409 1894 409 
Q 2359 409 2629 706 
Q 2900 1003 2900 1516 
L 2900 3500 
L 3475 3500 
L 3475 0 
L 2900 0 
L 2900 538 
Q 2691 219 2414 64 
Q 2138 -91 1772 -91 
Q 1169 -91 856 284 
Q 544 659 544 1381 
z
M 1991 3584 
L 1991 3584 
z
" transform="scale(0.015625)"/>
      </defs>
      <use xlink:href="#DejaVuSans-54"/>
      <use xlink:href="#DejaVuSans-72" transform="translate(46.333984 0)"/>
      <use xlink:href="#DejaVuSans-75" transform="translate(87.447266 0)"/>
      <use xlink:href="#DejaVuSans-65" transform="translate(150.826172 0)"/>
      <use xlink:href="#DejaVuSans-20" transform="translate(212.349609 0)"/>
      <use xlink:href="#DejaVuSans-50" transform="translate(244.136719 0)"/>
      <use xlink:href="#DejaVuSans-72" transform="translate(302.689453 0)"/>
      <use xlink:href="#DejaVuSans-69" transform="translate(343.802734 0)"/>
      <use xlink:href="#DejaVuSans-63" transform="translate(371.585938 0)"/>
      <use xlink:href="#DejaVuSans-65" transform="translate(426.566406 0)"/>
     </g>
    </g>
    <g id="line2d_17">
     <path d="M 666.085938 79.616562 
L 676.085938 79.616562 
L 686.085938 79.616562 
" style="fill: none; stroke-dasharray: 5.55,2.4; stroke-dashoffset: 0; stroke: #ff7f0e; stroke-width: 1.5"/>
    </g>
    <g id="text_16">
     <!-- Predicted Price -->
     <g transform="translate(694.085938 83.116562) scale(0.1 -0.1)">
      <use xlink:href="#DejaVuSans-50"/>
      <use xlink:href="#DejaVuSans-72" transform="translate(58.552734 0)"/>
      <use xlink:href="#DejaVuSans-65" transform="translate(97.416016 0)"/>
      <use xlink:href="#DejaVuSans-64" transform="translate(158.939453 0)"/>
      <use xlink:href="#DejaVuSans-69" transform="translate(222.416016 0)"/>
      <use xlink:href="#DejaVuSans-63" transform="translate(250.199219 0)"/>
      <use xlink:href="#DejaVuSans-74" transform="translate(305.179688 0)"/>
      <use xlink:href="#DejaVuSans-65" transform="translate(344.388672 0)"/>
      <use xlink:href="#DejaVuSans-64" transform="translate(405.912109 0)"/>
      <use xlink:href="#DejaVuSans-20" transform="translate(469.388672 0)"/>
      <use xlink:href="#DejaVuSans-50" transform="translate(501.175781 0)"/>
      <use xlink:href="#DejaVuSans-72" transform="translate(559.728516 0)"/>
      <use xlink:href="#DejaVuSans-69" transform="translate(600.841797 0)"/>
      <use xlink:href="#DejaVuSans-63" transform="translate(628.625 0)"/>
      <use xlink:href="#DejaVuSans-65" transform="translate(683.605469 0)"/>
     </g>
    </g>
   </g>
  </g>
 </g>
 <defs>
  <clipPath id="pde251f743f">
   <rect x="108" y="51.84" width="669.6" height="332.64"/>
  </clipPath>
 </defs>
</svg>
