<?xml version="1.0" encoding="utf-8" standalone="no"?>
<!DOCTYPE svg PUBLIC "-//W3C//DTD SVG 1.1//EN"
  "http://www.w3.org/Graphics/SVG/1.1/DTD/svg11.dtd">
<svg xmlns:xlink="http://www.w3.org/1999/xlink" width="576pt" height="288pt" viewBox="0 0 576 288" xmlns="http://www.w3.org/2000/svg" version="1.1">
 <metadata>
  <rdf:RDF xmlns:dc="http://purl.org/dc/elements/1.1/" xmlns:cc="http://creativecommons.org/ns#" xmlns:rdf="http://www.w3.org/1999/02/22-rdf-syntax-ns#">
   <cc:Work>
    <dc:type rdf:resource="http://purl.org/dc/dcmitype/StillImage"/>
    <dc:date>2025-05-02T01:10:44.129812</dc:date>
    <dc:format>image/svg+xml</dc:format>
    <dc:creator>
     <cc:Agent>
      <dc:title>Matplotlib v3.10.1, https://matplotlib.org/</dc:title>
     </cc:Agent>
    </dc:creator>
   </cc:Work>
  </rdf:RDF>
 </metadata>
 <defs>
  <style type="text/css">*{stroke-linejoin: round; stroke-linecap: butt}</style>
 </defs>
 <g id="figure_1">
  <g id="patch_1">
   <path d="M 0 288 
L 576 288 
L 576 0 
L 0 0 
z
" style="fill: #ffffff"/>
  </g>
  <g id="axes_1">
   <g id="patch_2">
    <path d="M 57.17 246.04 
L 564.467319 246.04 
L 564.467319 26.88 
L 57.17 26.88 
z
" style="fill: #ffffff"/>
   </g>
   <g id="matplotlib.axis_1">
    <g id="xtick_1">
     <g id="line2d_1">
      <defs>
       <path id="m55cf556583" d="M 0 0 
L 0 3.5 
" style="stroke: #000000; stroke-width: 0.8"/>
      </defs>
      <g>
       <use xlink:href="#m55cf556583" x="82.742208" y="246.04" style="stroke: #000000; stroke-width: 0.8"/>
      </g>
     </g>
     <g id="text_1">
      <!-- 2022-05 -->
      <g transform="translate(61.850802 260.638438) scale(0.1 -0.1)">
       <defs>
        <path id="DejaVuSans-32" d="M 1228 531 
L 3431 531 
L 3431 0 
L 469 0 
L 469 531 
Q 828 903 1448 1529 
Q 2069 2156 2228 2338 
Q 2531 2678 2651 2914 
Q 2772 3150 2772 3378 
Q 2772 3750 2511 3984 
Q 2250 4219 1831 4219 
Q 1534 4219 1204 4116 
Q 875 4013 500 3803 
L 500 4441 
Q 881 4594 1212 4672 
Q 1544 4750 1819 4750 
Q 2544 4750 2975 4387 
Q 3406 4025 3406 3419 
Q 3406 3131 3298 2873 
Q 3191 2616 2906 2266 
Q 2828 2175 2409 1742 
Q 1991 1309 1228 531 
z
" transform="scale(0.015625)"/>
        <path id="DejaVuSans-30" d="M 2034 4250 
Q 1547 4250 1301 3770 
Q 1056 3291 1056 2328 
Q 1056 1369 1301 889 
Q 1547 409 2034 409 
Q 2525 409 2770 889 
Q 3016 1369 3016 2328 
Q 3016 3291 2770 3770 
Q 2525 4250 2034 4250 
z
M 2034 4750 
Q 2819 4750 3233 4129 
Q 3647 3509 3647 2328 
Q 3647 1150 3233 529 
Q 2819 -91 2034 -91 
Q 1250 -91 836 529 
Q 422 1150 422 2328 
Q 422 3509 836 4129 
Q 1250 4750 2034 4750 
z
" transform="scale(0.015625)"/>
        <path id="DejaVuSans-2d" d="M 313 2009 
L 1997 2009 
L 1997 1497 
L 313 1497 
L 313 2009 
z
" transform="scale(0.015625)"/>
        <path id="DejaVuSans-35" d="M 691 4666 
L 3169 4666 
L 3169 4134 
L 1269 4134 
L 1269 2991 
Q 1406 3038 1543 3061 
Q 1681 3084 1819 3084 
Q 2600 3084 3056 2656 
Q 3513 2228 3513 1497 
Q 3513 744 3044 326 
Q 2575 -91 1722 -91 
Q 1428 -91 1123 -41 
Q 819 9 494 109 
L 494 744 
Q 775 591 1075 516 
Q 1375 441 1709 441 
Q 2250 441 2565 725 
Q 2881 1009 2881 1497 
Q 2881 1984 2565 2268 
Q 2250 2553 1709 2553 
Q 1456 2553 1204 2497 
Q 953 2441 691 2322 
L 691 4666 
z
" transform="scale(0.015625)"/>
       </defs>
       <use xlink:href="#DejaVuSans-32"/>
       <use xlink:href="#DejaVuSans-30" transform="translate(63.623047 0)"/>
       <use xlink:href="#DejaVuSans-32" transform="translate(127.246094 0)"/>
       <use xlink:href="#DejaVuSans-32" transform="translate(190.869141 0)"/>
       <use xlink:href="#DejaVuSans-2d" transform="translate(254.492188 0)"/>
       <use xlink:href="#DejaVuSans-30" transform="translate(290.576172 0)"/>
       <use xlink:href="#DejaVuSans-35" transform="translate(354.199219 0)"/>
      </g>
     </g>
    </g>
    <g id="xtick_2">
     <g id="line2d_2">
      <g>
       <use xlink:href="#m55cf556583" x="134.26361" y="246.04" style="stroke: #000000; stroke-width: 0.8"/>
      </g>
     </g>
     <g id="text_2">
      <!-- 2022-09 -->
      <g transform="translate(113.372204 260.638438) scale(0.1 -0.1)">
       <defs>
        <path id="DejaVuSans-39" d="M 703 97 
L 703 672 
Q 941 559 1184 500 
Q 1428 441 1663 441 
Q 2288 441 2617 861 
Q 2947 1281 2994 2138 
Q 2813 1869 2534 1725 
Q 2256 1581 1919 1581 
Q 1219 1581 811 2004 
Q 403 2428 403 3163 
Q 403 3881 828 4315 
Q 1253 4750 1959 4750 
Q 2769 4750 3195 4129 
Q 3622 3509 3622 2328 
Q 3622 1225 3098 567 
Q 2575 -91 1691 -91 
Q 1453 -91 1209 -44 
Q 966 3 703 97 
z
M 1959 2075 
Q 2384 2075 2632 2365 
Q 2881 2656 2881 3163 
Q 2881 3666 2632 3958 
Q 2384 4250 1959 4250 
Q 1534 4250 1286 3958 
Q 1038 3666 1038 3163 
Q 1038 2656 1286 2365 
Q 1534 2075 1959 2075 
z
" transform="scale(0.015625)"/>
       </defs>
       <use xlink:href="#DejaVuSans-32"/>
       <use xlink:href="#DejaVuSans-30" transform="translate(63.623047 0)"/>
       <use xlink:href="#DejaVuSans-32" transform="translate(127.246094 0)"/>
       <use xlink:href="#DejaVuSans-32" transform="translate(190.869141 0)"/>
       <use xlink:href="#DejaVuSans-2d" transform="translate(254.492188 0)"/>
       <use xlink:href="#DejaVuSans-30" transform="translate(290.576172 0)"/>
       <use xlink:href="#DejaVuSans-39" transform="translate(354.199219 0)"/>
      </g>
     </g>
    </g>
    <g id="xtick_3">
     <g id="line2d_3">
      <g>
       <use xlink:href="#m55cf556583" x="185.366139" y="246.04" style="stroke: #000000; stroke-width: 0.8"/>
      </g>
     </g>
     <g id="text_3">
      <!-- 2023-01 -->
      <g transform="translate(164.474733 260.638438) scale(0.1 -0.1)">
       <defs>
        <path id="DejaVuSans-33" d="M 2597 2516 
Q 3050 2419 3304 2112 
Q 3559 1806 3559 1356 
Q 3559 666 3084 287 
Q 2609 -91 1734 -91 
Q 1441 -91 1130 -33 
Q 819 25 488 141 
L 488 750 
Q 750 597 1062 519 
Q 1375 441 1716 441 
Q 2309 441 2620 675 
Q 2931 909 2931 1356 
Q 2931 1769 2642 2001 
Q 2353 2234 1838 2234 
L 1294 2234 
L 1294 2753 
L 1863 2753 
Q 2328 2753 2575 2939 
Q 2822 3125 2822 3475 
Q 2822 3834 2567 4026 
Q 2313 4219 1838 4219 
Q 1578 4219 1281 4162 
Q 984 4106 628 3988 
L 628 4550 
Q 988 4650 1302 4700 
Q 1616 4750 1894 4750 
Q 2613 4750 3031 4423 
Q 3450 4097 3450 3541 
Q 3450 3153 3228 2886 
Q 3006 2619 2597 2516 
z
" transform="scale(0.015625)"/>
        <path id="DejaVuSans-31" d="M 794 531 
L 1825 531 
L 1825 4091 
L 703 3866 
L 703 4441 
L 1819 4666 
L 2450 4666 
L 2450 531 
L 3481 531 
L 3481 0 
L 794 0 
L 794 531 
z
" transform="scale(0.015625)"/>
       </defs>
       <use xlink:href="#DejaVuSans-32"/>
       <use xlink:href="#DejaVuSans-30" transform="translate(63.623047 0)"/>
       <use xlink:href="#DejaVuSans-32" transform="translate(127.246094 0)"/>
       <use xlink:href="#DejaVuSans-33" transform="translate(190.869141 0)"/>
       <use xlink:href="#DejaVuSans-2d" transform="translate(254.492188 0)"/>
       <use xlink:href="#DejaVuSans-30" transform="translate(290.576172 0)"/>
       <use xlink:href="#DejaVuSans-31" transform="translate(354.199219 0)"/>
      </g>
     </g>
    </g>
    <g id="xtick_4">
     <g id="line2d_4">
      <g>
       <use xlink:href="#m55cf556583" x="235.630922" y="246.04" style="stroke: #000000; stroke-width: 0.8"/>
      </g>
     </g>
     <g id="text_4">
      <!-- 2023-05 -->
      <g transform="translate(214.739516 260.638438) scale(0.1 -0.1)">
       <use xlink:href="#DejaVuSans-32"/>
       <use xlink:href="#DejaVuSans-30" transform="translate(63.623047 0)"/>
       <use xlink:href="#DejaVuSans-32" transform="translate(127.246094 0)"/>
       <use xlink:href="#DejaVuSans-33" transform="translate(190.869141 0)"/>
       <use xlink:href="#DejaVuSans-2d" transform="translate(254.492188 0)"/>
       <use xlink:href="#DejaVuSans-30" transform="translate(290.576172 0)"/>
       <use xlink:href="#DejaVuSans-35" transform="translate(354.199219 0)"/>
      </g>
     </g>
    </g>
    <g id="xtick_5">
     <g id="line2d_5">
      <g>
       <use xlink:href="#m55cf556583" x="287.152324" y="246.04" style="stroke: #000000; stroke-width: 0.8"/>
      </g>
     </g>
     <g id="text_5">
      <!-- 2023-09 -->
      <g transform="translate(266.260918 260.638438) scale(0.1 -0.1)">
       <use xlink:href="#DejaVuSans-32"/>
       <use xlink:href="#DejaVuSans-30" transform="translate(63.623047 0)"/>
       <use xlink:href="#DejaVuSans-32" transform="translate(127.246094 0)"/>
       <use xlink:href="#DejaVuSans-33" transform="translate(190.869141 0)"/>
       <use xlink:href="#DejaVuSans-2d" transform="translate(254.492188 0)"/>
       <use xlink:href="#DejaVuSans-30" transform="translate(290.576172 0)"/>
       <use xlink:href="#DejaVuSans-39" transform="translate(354.199219 0)"/>
      </g>
     </g>
    </g>
    <g id="xtick_6">
     <g id="line2d_6">
      <g>
       <use xlink:href="#m55cf556583" x="338.254853" y="246.04" style="stroke: #000000; stroke-width: 0.8"/>
      </g>
     </g>
     <g id="text_6">
      <!-- 2024-01 -->
      <g transform="translate(317.363447 260.638438) scale(0.1 -0.1)">
       <defs>
        <path id="DejaVuSans-34" d="M 2419 4116 
L 825 1625 
L 2419 1625 
L 2419 4116 
z
M 2253 4666 
L 3047 4666 
L 3047 1625 
L 3713 1625 
L 3713 1100 
L 3047 1100 
L 3047 0 
L 2419 0 
L 2419 1100 
L 313 1100 
L 313 1709 
L 2253 4666 
z
" transform="scale(0.015625)"/>
       </defs>
       <use xlink:href="#DejaVuSans-32"/>
       <use xlink:href="#DejaVuSans-30" transform="translate(63.623047 0)"/>
       <use xlink:href="#DejaVuSans-32" transform="translate(127.246094 0)"/>
       <use xlink:href="#DejaVuSans-34" transform="translate(190.869141 0)"/>
       <use xlink:href="#DejaVuSans-2d" transform="translate(254.492188 0)"/>
       <use xlink:href="#DejaVuSans-30" transform="translate(290.576172 0)"/>
       <use xlink:href="#DejaVuSans-31" transform="translate(354.199219 0)"/>
      </g>
     </g>
    </g>
    <g id="xtick_7">
     <g id="line2d_7">
      <g>
       <use xlink:href="#m55cf556583" x="388.938509" y="246.04" style="stroke: #000000; stroke-width: 0.8"/>
      </g>
     </g>
     <g id="text_7">
      <!-- 2024-05 -->
      <g transform="translate(368.047103 260.638438) scale(0.1 -0.1)">
       <use xlink:href="#DejaVuSans-32"/>
       <use xlink:href="#DejaVuSans-30" transform="translate(63.623047 0)"/>
       <use xlink:href="#DejaVuSans-32" transform="translate(127.246094 0)"/>
       <use xlink:href="#DejaVuSans-34" transform="translate(190.869141 0)"/>
       <use xlink:href="#DejaVuSans-2d" transform="translate(254.492188 0)"/>
       <use xlink:href="#DejaVuSans-30" transform="translate(290.576172 0)"/>
       <use xlink:href="#DejaVuSans-35" transform="translate(354.199219 0)"/>
      </g>
     </g>
    </g>
    <g id="xtick_8">
     <g id="line2d_8">
      <g>
       <use xlink:href="#m55cf556583" x="440.459911" y="246.04" style="stroke: #000000; stroke-width: 0.8"/>
      </g>
     </g>
     <g id="text_8">
      <!-- 2024-09 -->
      <g transform="translate(419.568505 260.638438) scale(0.1 -0.1)">
       <use xlink:href="#DejaVuSans-32"/>
       <use xlink:href="#DejaVuSans-30" transform="translate(63.623047 0)"/>
       <use xlink:href="#DejaVuSans-32" transform="translate(127.246094 0)"/>
       <use xlink:href="#DejaVuSans-34" transform="translate(190.869141 0)"/>
       <use xlink:href="#DejaVuSans-2d" transform="translate(254.492188 0)"/>
       <use xlink:href="#DejaVuSans-30" transform="translate(290.576172 0)"/>
       <use xlink:href="#DejaVuSans-39" transform="translate(354.199219 0)"/>
      </g>
     </g>
    </g>
    <g id="xtick_9">
     <g id="line2d_9">
      <g>
       <use xlink:href="#m55cf556583" x="491.56244" y="246.04" style="stroke: #000000; stroke-width: 0.8"/>
      </g>
     </g>
     <g id="text_9">
      <!-- 2025-01 -->
      <g transform="translate(470.671034 260.638438) scale(0.1 -0.1)">
       <use xlink:href="#DejaVuSans-32"/>
       <use xlink:href="#DejaVuSans-30" transform="translate(63.623047 0)"/>
       <use xlink:href="#DejaVuSans-32" transform="translate(127.246094 0)"/>
       <use xlink:href="#DejaVuSans-35" transform="translate(190.869141 0)"/>
       <use xlink:href="#DejaVuSans-2d" transform="translate(254.492188 0)"/>
       <use xlink:href="#DejaVuSans-30" transform="translate(290.576172 0)"/>
       <use xlink:href="#DejaVuSans-31" transform="translate(354.199219 0)"/>
      </g>
     </g>
    </g>
    <g id="xtick_10">
     <g id="line2d_10">
      <g>
       <use xlink:href="#m55cf556583" x="541.827223" y="246.04" style="stroke: #000000; stroke-width: 0.8"/>
      </g>
     </g>
     <g id="text_10">
      <!-- 2025-05 -->
      <g transform="translate(520.935816 260.638438) scale(0.1 -0.1)">
       <use xlink:href="#DejaVuSans-32"/>
       <use xlink:href="#DejaVuSans-30" transform="translate(63.623047 0)"/>
       <use xlink:href="#DejaVuSans-32" transform="translate(127.246094 0)"/>
       <use xlink:href="#DejaVuSans-35" transform="translate(190.869141 0)"/>
       <use xlink:href="#DejaVuSans-2d" transform="translate(254.492188 0)"/>
       <use xlink:href="#DejaVuSans-30" transform="translate(290.576172 0)"/>
       <use xlink:href="#DejaVuSans-35" transform="translate(354.199219 0)"/>
      </g>
     </g>
    </g>
    <g id="text_11">
     <!-- Date -->
     <g transform="translate(298.867878 274.316562) scale(0.1 -0.1)">
      <defs>
       <path id="DejaVuSans-44" d="M 1259 4147 
L 1259 519 
L 2022 519 
Q 2988 519 3436 956 
Q 3884 1394 3884 2338 
Q 3884 3275 3436 3711 
Q 2988 4147 2022 4147 
L 1259 4147 
z
M 628 4666 
L 1925 4666 
Q 3281 4666 3915 4102 
Q 4550 3538 4550 2338 
Q 4550 1131 3912 565 
Q 3275 0 1925 0 
L 628 0 
L 628 4666 
z
" transform="scale(0.015625)"/>
       <path id="DejaVuSans-61" d="M 2194 1759 
Q 1497 1759 1228 1600 
Q 959 1441 959 1056 
Q 959 750 1161 570 
Q 1363 391 1709 391 
Q 2188 391 2477 730 
Q 2766 1069 2766 1631 
L 2766 1759 
L 2194 1759 
z
M 3341 1997 
L 3341 0 
L 2766 0 
L 2766 531 
Q 2569 213 2275 61 
Q 1981 -91 1556 -91 
Q 1019 -91 701 211 
Q 384 513 384 1019 
Q 384 1609 779 1909 
Q 1175 2209 1959 2209 
L 2766 2209 
L 2766 2266 
Q 2766 2663 2505 2880 
Q 2244 3097 1772 3097 
Q 1472 3097 1187 3025 
Q 903 2953 641 2809 
L 641 3341 
Q 956 3463 1253 3523 
Q 1550 3584 1831 3584 
Q 2591 3584 2966 3190 
Q 3341 2797 3341 1997 
z
" transform="scale(0.015625)"/>
       <path id="DejaVuSans-74" d="M 1172 4494 
L 1172 3500 
L 2356 3500 
L 2356 3053 
L 1172 3053 
L 1172 1153 
Q 1172 725 1289 603 
Q 1406 481 1766 481 
L 2356 481 
L 2356 0 
L 1766 0 
Q 1100 0 847 248 
Q 594 497 594 1153 
L 594 3053 
L 172 3053 
L 172 3500 
L 594 3500 
L 594 4494 
L 1172 4494 
z
" transform="scale(0.015625)"/>
       <path id="DejaVuSans-65" d="M 3597 1894 
L 3597 1613 
L 953 1613 
Q 991 1019 1311 708 
Q 1631 397 2203 397 
Q 2534 397 2845 478 
Q 3156 559 3463 722 
L 3463 178 
Q 3153 47 2828 -22 
Q 2503 -91 2169 -91 
Q 1331 -91 842 396 
Q 353 884 353 1716 
Q 353 2575 817 3079 
Q 1281 3584 2069 3584 
Q 2775 3584 3186 3129 
Q 3597 2675 3597 1894 
z
M 3022 2063 
Q 3016 2534 2758 2815 
Q 2500 3097 2075 3097 
Q 1594 3097 1305 2825 
Q 1016 2553 972 2059 
L 3022 2063 
z
" transform="scale(0.015625)"/>
      </defs>
      <use xlink:href="#DejaVuSans-44"/>
      <use xlink:href="#DejaVuSans-61" transform="translate(77.001953 0)"/>
      <use xlink:href="#DejaVuSans-74" transform="translate(138.28125 0)"/>
      <use xlink:href="#DejaVuSans-65" transform="translate(177.490234 0)"/>
     </g>
    </g>
   </g>
   <g id="matplotlib.axis_2">
    <g id="ytick_1">
     <g id="line2d_11">
      <defs>
       <path id="m2436428801" d="M 0 0 
L -3.5 0 
" style="stroke: #000000; stroke-width: 0.8"/>
      </defs>
      <g>
       <use xlink:href="#m2436428801" x="57.17" y="231.685033" style="stroke: #000000; stroke-width: 0.8"/>
      </g>
     </g>
     <g id="text_12">
      <!-- 4500 -->
      <g transform="translate(24.72 235.484252) scale(0.1 -0.1)">
       <use xlink:href="#DejaVuSans-34"/>
       <use xlink:href="#DejaVuSans-35" transform="translate(63.623047 0)"/>
       <use xlink:href="#DejaVuSans-30" transform="translate(127.246094 0)"/>
       <use xlink:href="#DejaVuSans-30" transform="translate(190.869141 0)"/>
      </g>
     </g>
    </g>
    <g id="ytick_2">
     <g id="line2d_12">
      <g>
       <use xlink:href="#m2436428801" x="57.17" y="186.89355" style="stroke: #000000; stroke-width: 0.8"/>
      </g>
     </g>
     <g id="text_13">
      <!-- 5000 -->
      <g transform="translate(24.72 190.692769) scale(0.1 -0.1)">
       <use xlink:href="#DejaVuSans-35"/>
       <use xlink:href="#DejaVuSans-30" transform="translate(63.623047 0)"/>
       <use xlink:href="#DejaVuSans-30" transform="translate(127.246094 0)"/>
       <use xlink:href="#DejaVuSans-30" transform="translate(190.869141 0)"/>
      </g>
     </g>
    </g>
    <g id="ytick_3">
     <g id="line2d_13">
      <g>
       <use xlink:href="#m2436428801" x="57.17" y="142.102066" style="stroke: #000000; stroke-width: 0.8"/>
      </g>
     </g>
     <g id="text_14">
      <!-- 5500 -->
      <g transform="translate(24.72 145.901285) scale(0.1 -0.1)">
       <use xlink:href="#DejaVuSans-35"/>
       <use xlink:href="#DejaVuSans-35" transform="translate(63.623047 0)"/>
       <use xlink:href="#DejaVuSans-30" transform="translate(127.246094 0)"/>
       <use xlink:href="#DejaVuSans-30" transform="translate(190.869141 0)"/>
      </g>
     </g>
    </g>
    <g id="ytick_4">
     <g id="line2d_14">
      <g>
       <use xlink:href="#m2436428801" x="57.17" y="97.310583" style="stroke: #000000; stroke-width: 0.8"/>
      </g>
     </g>
     <g id="text_15">
      <!-- 6000 -->
      <g transform="translate(24.72 101.109802) scale(0.1 -0.1)">
       <defs>
        <path id="DejaVuSans-36" d="M 2113 2584 
Q 1688 2584 1439 2293 
Q 1191 2003 1191 1497 
Q 1191 994 1439 701 
Q 1688 409 2113 409 
Q 2538 409 2786 701 
Q 3034 994 3034 1497 
Q 3034 2003 2786 2293 
Q 2538 2584 2113 2584 
z
M 3366 4563 
L 3366 3988 
Q 3128 4100 2886 4159 
Q 2644 4219 2406 4219 
Q 1781 4219 1451 3797 
Q 1122 3375 1075 2522 
Q 1259 2794 1537 2939 
Q 1816 3084 2150 3084 
Q 2853 3084 3261 2657 
Q 3669 2231 3669 1497 
Q 3669 778 3244 343 
Q 2819 -91 2113 -91 
Q 1303 -91 875 529 
Q 447 1150 447 2328 
Q 447 3434 972 4092 
Q 1497 4750 2381 4750 
Q 2619 4750 2861 4703 
Q 3103 4656 3366 4563 
z
" transform="scale(0.015625)"/>
       </defs>
       <use xlink:href="#DejaVuSans-36"/>
       <use xlink:href="#DejaVuSans-30" transform="translate(63.623047 0)"/>
       <use xlink:href="#DejaVuSans-30" transform="translate(127.246094 0)"/>
       <use xlink:href="#DejaVuSans-30" transform="translate(190.869141 0)"/>
      </g>
     </g>
    </g>
    <g id="ytick_5">
     <g id="line2d_15">
      <g>
       <use xlink:href="#m2436428801" x="57.17" y="52.5191" style="stroke: #000000; stroke-width: 0.8"/>
      </g>
     </g>
     <g id="text_16">
      <!-- 6500 -->
      <g transform="translate(24.72 56.318319) scale(0.1 -0.1)">
       <use xlink:href="#DejaVuSans-36"/>
       <use xlink:href="#DejaVuSans-35" transform="translate(63.623047 0)"/>
       <use xlink:href="#DejaVuSans-30" transform="translate(127.246094 0)"/>
       <use xlink:href="#DejaVuSans-30" transform="translate(190.869141 0)"/>
      </g>
     </g>
    </g>
    <g id="text_17">
     <!-- Stock Price -->
     <g transform="translate(18.640313 164.085) rotate(-90) scale(0.1 -0.1)">
      <defs>
       <path id="DejaVuSans-53" d="M 3425 4513 
L 3425 3897 
Q 3066 4069 2747 4153 
Q 2428 4238 2131 4238 
Q 1616 4238 1336 4038 
Q 1056 3838 1056 3469 
Q 1056 3159 1242 3001 
Q 1428 2844 1947 2747 
L 2328 2669 
Q 3034 2534 3370 2195 
Q 3706 1856 3706 1288 
Q 3706 609 3251 259 
Q 2797 -91 1919 -91 
Q 1588 -91 1214 -16 
Q 841 59 441 206 
L 441 856 
Q 825 641 1194 531 
Q 1563 422 1919 422 
Q 2459 422 2753 634 
Q 3047 847 3047 1241 
Q 3047 1584 2836 1778 
Q 2625 1972 2144 2069 
L 1759 2144 
Q 1053 2284 737 2584 
Q 422 2884 422 3419 
Q 422 4038 858 4394 
Q 1294 4750 2059 4750 
Q 2388 4750 2728 4690 
Q 3069 4631 3425 4513 
z
" transform="scale(0.015625)"/>
       <path id="DejaVuSans-6f" d="M 1959 3097 
Q 1497 3097 1228 2736 
Q 959 2375 959 1747 
Q 959 1119 1226 758 
Q 1494 397 1959 397 
Q 2419 397 2687 759 
Q 2956 1122 2956 1747 
Q 2956 2369 2687 2733 
Q 2419 3097 1959 3097 
z
M 1959 3584 
Q 2709 3584 3137 3096 
Q 3566 2609 3566 1747 
Q 3566 888 3137 398 
Q 2709 -91 1959 -91 
Q 1206 -91 779 398 
Q 353 888 353 1747 
Q 353 2609 779 3096 
Q 1206 3584 1959 3584 
z
" transform="scale(0.015625)"/>
       <path id="DejaVuSans-63" d="M 3122 3366 
L 3122 2828 
Q 2878 2963 2633 3030 
Q 2388 3097 2138 3097 
Q 1578 3097 1268 2742 
Q 959 2388 959 1747 
Q 959 1106 1268 751 
Q 1578 397 2138 397 
Q 2388 397 2633 464 
Q 2878 531 3122 666 
L 3122 134 
Q 2881 22 2623 -34 
Q 2366 -91 2075 -91 
Q 1284 -91 818 406 
Q 353 903 353 1747 
Q 353 2603 823 3093 
Q 1294 3584 2113 3584 
Q 2378 3584 2631 3529 
Q 2884 3475 3122 3366 
z
" transform="scale(0.015625)"/>
       <path id="DejaVuSans-6b" d="M 581 4863 
L 1159 4863 
L 1159 1991 
L 2875 3500 
L 3609 3500 
L 1753 1863 
L 3688 0 
L 2938 0 
L 1159 1709 
L 1159 0 
L 581 0 
L 581 4863 
z
" transform="scale(0.015625)"/>
       <path id="DejaVuSans-20" transform="scale(0.015625)"/>
       <path id="DejaVuSans-50" d="M 1259 4147 
L 1259 2394 
L 2053 2394 
Q 2494 2394 2734 2622 
Q 2975 2850 2975 3272 
Q 2975 3691 2734 3919 
Q 2494 4147 2053 4147 
L 1259 4147 
z
M 628 4666 
L 2053 4666 
Q 2838 4666 3239 4311 
Q 3641 3956 3641 3272 
Q 3641 2581 3239 2228 
Q 2838 1875 2053 1875 
L 1259 1875 
L 1259 0 
L 628 0 
L 628 4666 
z
" transform="scale(0.015625)"/>
       <path id="DejaVuSans-72" d="M 2631 2963 
Q 2534 3019 2420 3045 
Q 2306 3072 2169 3072 
Q 1681 3072 1420 2755 
Q 1159 2438 1159 1844 
L 1159 0 
L 581 0 
L 581 3500 
L 1159 3500 
L 1159 2956 
Q 1341 3275 1631 3429 
Q 1922 3584 2338 3584 
Q 2397 3584 2469 3576 
Q 2541 3569 2628 3553 
L 2631 2963 
z
" transform="scale(0.015625)"/>
       <path id="DejaVuSans-69" d="M 603 3500 
L 1178 3500 
L 1178 0 
L 603 0 
L 603 3500 
z
M 603 4863 
L 1178 4863 
L 1178 4134 
L 603 4134 
L 603 4863 
z
" transform="scale(0.015625)"/>
      </defs>
      <use xlink:href="#DejaVuSans-53"/>
      <use xlink:href="#DejaVuSans-74" transform="translate(63.476562 0)"/>
      <use xlink:href="#DejaVuSans-6f" transform="translate(102.685547 0)"/>
      <use xlink:href="#DejaVuSans-63" transform="translate(163.867188 0)"/>
      <use xlink:href="#DejaVuSans-6b" transform="translate(218.847656 0)"/>
      <use xlink:href="#DejaVuSans-20" transform="translate(276.757812 0)"/>
      <use xlink:href="#DejaVuSans-50" transform="translate(308.544922 0)"/>
      <use xlink:href="#DejaVuSans-72" transform="translate(367.097656 0)"/>
      <use xlink:href="#DejaVuSans-69" transform="translate(408.210938 0)"/>
      <use xlink:href="#DejaVuSans-63" transform="translate(435.994141 0)"/>
      <use xlink:href="#DejaVuSans-65" transform="translate(490.974609 0)"/>
     </g>
    </g>
   </g>
   <g id="line2d_16">
    <path d="M 80.228969 153.772935 
L 80.647842 165.93024 
L 81.066715 147.74221 
L 81.485589 149.379787 
L 81.904462 130.644405 
L 84.417701 125.376927 
L 84.836574 136.389361 
L 86.093194 132.380523 
L 86.512067 125.07324 
L 86.93094 120.797445 
L 87.349813 120.324447 
L 87.768686 115.513842 
L 89.025306 116.026257 
L 89.444179 113.763391 
L 89.863052 115.45203 
L 90.281926 111.786295 
L 90.700799 103.627078 
L 91.957418 100.380591 
L 92.376291 120.093323 
L 92.795165 111.26313 
L 93.214038 105.233301 
L 93.632911 106.276046 
L 94.889531 102.432041 
L 95.308404 94.959926 
L 95.727277 95.192842 
L 96.14615 90.284591 
L 97.821643 80.519152 
L 98.240516 80.597089 
L 98.659389 77.796726 
L 99.078263 85.602985 
L 99.497136 75.801713 
L 100.753755 76.38221 
L 101.172628 72.624205 
L 101.591502 73.924054 
L 102.010375 73.587222 
L 102.429248 68.974595 
L 103.685868 67.713267 
L 104.104741 72.496101 
L 104.523614 81.22417 
L 104.942487 70.393589 
L 105.36136 64.318968 
L 106.61798 60.784024 
L 107.036853 52.398163 
L 107.455726 63.779679 
L 107.874599 56.63275 
L 108.293473 58.024869 
L 109.550092 50.447046 
L 109.968965 51.486208 
L 110.387839 59.815632 
L 110.806712 56.730395 
L 111.225585 61.079648 
L 112.482205 68.721075 
L 112.901078 75.678088 
L 113.738824 70.218007 
L 114.157697 79.680655 
L 115.414317 69.328448 
L 115.83319 67.236685 
L 116.252063 60.517963 
L 117.08981 71.373627 
L 118.346429 76.595418 
L 118.765302 69.722613 
L 119.184176 67.548434 
L 119.603049 66.120482 
L 120.021922 70.963337 
L 121.278541 66.205585 
L 121.697415 82.081479 
L 122.116288 86.174525 
L 122.535161 83.091079 
L 122.954034 73.077495 
L 124.629527 66.719792 
L 125.0484 68.459493 
L 125.467273 57.951411 
L 125.886147 59.609592 
L 127.142766 57.64235 
L 127.980513 53.101389 
L 128.399386 55.313193 
L 128.818259 62.219143 
L 130.074878 54.966506 
L 130.493752 55.529087 
L 130.912625 71.817062 
L 131.331498 68.40216 
L 131.750371 70.581713 
L 133.006991 69.50403 
L 133.425864 71.696125 
L 133.844737 83.358036 
L 134.26361 85.95415 
L 134.682484 83.9242 
L 135.939103 80.948254 
L 136.357976 71.190878 
L 136.776849 70.295944 
L 137.195723 72.892058 
L 137.614596 68.91547 
L 139.290089 70.398068 
L 139.708962 74.918425 
L 140.546708 101.386608 
L 141.803328 105.090864 
L 142.222201 101.047089 
L 142.641074 99.22945 
L 143.059947 100.366258 
L 143.47882 107.200543 
L 144.73544 114.661012 
L 145.154313 104.472741 
L 145.573186 117.957665 
L 145.99206 117.746249 
L 146.410933 122.925937 
L 150.599665 129.944762 
L 151.018538 125.573113 
L 151.437411 113.395205 
L 151.856284 112.509229 
L 152.275157 99.689907 
L 153.531777 95.913089 
L 153.95065 94.115159 
L 154.369523 99.754406 
L 154.788397 101.891856 
L 155.20727 101.173401 
L 156.463889 106.546587 
L 156.882763 108.976077 
L 157.301636 99.854739 
L 157.720509 100.625153 
L 158.139382 116.857586 
L 159.396002 114.590242 
L 159.814875 102.582541 
L 160.233748 97.507666 
L 160.652621 97.604415 
L 161.071494 85.35484 
L 162.328114 84.642656 
L 162.746987 85.283174 
L 163.16586 86.486273 
L 163.584734 89.274991 
L 164.003607 84.892592 
L 165.260226 85.708693 
L 165.679099 76.134961 
L 166.097973 79.042825 
L 166.516846 77.852267 
L 166.935719 80.142008 
L 168.192339 80.315799 
L 168.611212 86.076879 
L 169.030085 86.954792 
L 169.448958 86.554356 
L 169.867831 89.439824 
L 171.124451 92.358437 
L 171.543324 82.635102 
L 171.962197 83.322203 
L 172.38107 80.639193 
L 172.799944 82.259749 
L 174.056563 78.039495 
L 174.475436 78.386181 
L 174.89431 79.034762 
L 175.313183 80.623068 
L 175.732056 80.083779 
L 176.988676 83.442244 
L 177.826422 88.675681 
L 178.245295 88.18387 
L 178.664168 90.783568 
L 179.920788 103.000893 
L 180.339661 108.237018 
L 180.758534 111.120693 
L 181.177407 117.103044 
L 181.596281 118.510392 
L 182.8529 111.351817 
L 183.271773 107.5535 
L 183.690647 109.664074 
L 184.10952 110.085114 
L 184.528393 109.451763 
L 186.203886 101.261192 
L 186.622759 101.570253 
L 187.041632 96.373545 
L 187.460505 96.162129 
L 189.135998 92.983726 
L 189.554871 96.042088 
L 189.973744 95.94086 
L 190.392618 92.142542 
L 191.649237 86.007004 
L 192.06811 85.428298 
L 192.486984 83.742347 
L 193.32473 74.786738 
L 197.513462 71.929041 
L 197.932335 71.407668 
L 198.351208 64.53128 
L 198.770081 64.152344 
L 199.188955 66.521813 
L 200.445574 70.226965 
L 200.864447 68.891283 
L 201.28332 73.277265 
L 201.702194 65.548046 
L 202.121067 67.367477 
L 203.79656 61.727333 
L 204.215433 62.87937 
L 204.634306 71.378106 
L 205.053179 76.042691 
L 206.728672 62.962682 
L 207.147545 63.7107 
L 207.566418 65.032049 
L 207.985292 66.777125 
L 209.241911 69.7898 
L 210.079657 61.285689 
L 210.498531 63.069286 
L 210.917404 62.34456 
L 212.174023 61.905603 
L 212.592897 71.842146 
L 213.01177 70.299527 
L 213.430643 71.694334 
L 213.849516 78.955033 
L 215.106136 75.362756 
L 215.525009 80.343569 
L 215.943882 77.186666 
L 216.362755 84.694614 
L 216.781628 80.900775 
L 218.038248 82.945954 
L 218.457121 76.287253 
L 219.294868 69.919695 
L 219.713741 69.530905 
L 220.97036 69.396531 
L 221.389234 72.234519 
L 221.808107 73.969741 
L 222.22698 71.67373 
L 222.645853 66.868499 
L 223.902473 60.240256 
L 224.321346 60.680108 
L 225.159092 59.967923 
L 225.577965 55.701983 
L 226.834585 60.534984 
L 227.253458 59.606904 
L 227.672331 57.585912 
L 228.091205 61.060836 
L 228.510078 58.694054 
L 229.766697 56.170502 
L 230.18557 57.011686 
L 230.604444 59.957174 
L 231.023317 60.423901 
L 231.44219 74.866467 
L 232.69881 78.607451 
L 233.117683 86.726356 
L 233.536556 84.576364 
L 233.955429 83.161849 
L 234.374302 75.699588 
L 236.887542 73.804909 
L 237.306415 79.342032 
L 238.563034 75.042049 
L 238.981907 81.008275 
L 239.400781 81.740168 
L 239.819654 83.472702 
L 240.238527 89.100304 
L 241.495147 83.031954 
L 241.91402 87.382103 
L 242.332893 86.376982 
L 242.751766 85.827838 
L 243.170639 86.822209 
L 244.427259 86.979875 
L 245.265005 96.791898 
L 245.683878 98.368558 
L 246.102752 94.176971 
L 247.359371 95.056676 
L 247.778244 91.818251 
L 248.197118 93.028517 
L 248.615991 92.700644 
L 249.034864 87.884663 
L 250.291484 88.611181 
L 250.710357 98.795869 
L 251.12923 98.474266 
L 251.548103 100.342967 
L 251.966976 96.452378 
L 253.223596 94.828239 
L 253.642469 93.365349 
L 254.061342 93.361766 
L 254.899089 84.051408 
L 256.574581 86.013275 
L 256.993455 98.130267 
L 259.087821 107.430771 
L 259.506694 101.968897 
L 259.925567 102.478624 
L 260.34444 102.633603 
L 260.763313 97.424353 
L 262.438806 92.360228 
L 263.276552 98.336308 
L 263.695426 100.749673 
L 264.952045 98.718827 
L 265.370918 94.692073 
L 265.789792 100.643965 
L 266.208665 93.363558 
L 266.627538 94.576511 
L 267.884157 96.173775 
L 268.721904 97.900935 
L 269.140777 103.986306 
L 269.55965 103.972868 
L 270.81627 104.771948 
L 271.235143 95.820818 
L 271.654016 97.172625 
L 272.072889 100.788194 
L 272.491763 93.437016 
L 273.748382 89.405782 
L 274.167255 88.452619 
L 274.586128 90.371487 
L 275.005002 88.46964 
L 275.423875 85.793797 
L 276.680494 89.182721 
L 277.099368 91.389149 
L 277.518241 95.362154 
L 277.937114 94.469907 
L 278.355987 105.072947 
L 279.612607 104.763886 
L 280.450353 112.25123 
L 280.869226 108.565787 
L 281.288099 117.215918 
L 282.544719 123.219769 
L 282.963592 120.507197 
L 283.382465 130.501072 
L 283.801339 128.425435 
L 284.220212 134.827034 
L 285.476831 129.189578 
L 285.895705 117.885999 
L 286.314578 117.453313 
L 286.733451 120.655904 
L 287.152324 119.634658 
L 288.408944 112.559396 
L 288.827817 116.238568 
L 289.24669 116.088965 
L 289.665563 123.943599 
L 290.084436 123.413268 
L 291.341056 117.490938 
L 291.759929 117.831353 
L 292.178802 122.805895 
L 292.597676 123.997349 
L 293.016549 123.768017 
L 294.273168 122.421585 
L 295.110915 128.574143 
L 295.529788 132.075941 
L 295.948661 124.291181 
L 297.205281 127.172169 
L 297.624154 128.964724 
L 298.043027 126.483276 
L 298.4619 125.012324 
L 303.069505 127.940791 
L 303.488378 130.423135 
L 303.907252 130.475093 
L 304.326125 126.726046 
L 304.744998 130.15349 
L 306.001618 134.875409 
L 306.420491 133.561226 
L 307.258237 145.324366 
L 307.67711 148.939934 
L 308.93373 160.884927 
L 309.352603 155.35945 
L 310.190349 151.156217 
L 310.609223 142.816043 
L 311.865842 137.946313 
L 312.703589 141.208924 
L 313.122462 145.734656 
L 313.541335 141.173987 
L 314.797955 132.69048 
L 315.216828 132.149399 
L 315.635701 132.425314 
L 316.473447 135.553552 
L 317.730067 132.644793 
L 318.14894 130.40701 
L 318.567813 127.354918 
L 318.986686 132.305273 
L 319.40556 130.329073 
L 320.662179 127.789396 
L 321.081052 129.463702 
L 321.499926 135.571468 
L 321.918799 131.084257 
L 322.337672 135.793634 
L 323.594292 136.143903 
L 324.013165 133.905225 
L 324.432038 137.324607 
L 324.850911 138.066354 
L 325.269784 136.111653 
L 326.526404 136.810401 
L 326.945277 145.648656 
L 327.36415 143.730685 
L 327.783023 143.791601 
L 328.201897 142.282128 
L 329.458516 136.292611 
L 329.877389 136.173466 
L 330.296263 141.429298 
L 330.715136 143.057917 
L 331.134009 146.600027 
L 332.390628 152.37992 
L 332.809502 152.863668 
L 333.228375 159.186434 
L 333.647248 156.546424 
L 334.066121 158.971435 
L 335.322741 158.64177 
L 335.741614 163.756061 
L 336.160487 161.314925 
L 336.57936 152.60119 
L 336.998234 148.441853 
L 338.673726 150.212908 
L 339.092599 150.934947 
L 339.511473 155.06293 
L 339.930346 161.642799 
L 341.186965 171.870486 
L 341.605839 170.710387 
L 342.024712 172.732274 
L 342.443585 166.839507 
L 342.862458 168.423334 
L 344.537951 169.836953 
L 344.956824 181.380614 
L 345.375697 180.895074 
L 345.794571 185.242536 
L 347.05119 206.514907 
L 347.888936 192.8329 
L 348.30781 180.337868 
L 348.726683 184.466747 
L 349.983302 193.351586 
L 350.821049 214.03898 
L 351.239922 215.67387 
L 351.658795 226.021598 
L 352.915415 235.24506 
L 353.753161 177.077944 
L 354.172034 173.435501 
L 359.617386 174.437934 
L 360.036259 171.096489 
L 360.455132 169.182101 
L 361.711752 169.383663 
L 362.130625 159.319913 
L 362.549498 170.405805 
L 362.968371 155.827073 
L 363.387244 152.937126 
L 364.643864 152.061901 
L 365.062737 155.375575 
L 365.48161 155.530553 
L 365.900484 162.052193 
L 366.319357 155.575345 
L 367.575976 147.382982 
L 367.99485 148.935455 
L 368.413723 149.706765 
L 368.832596 151.693715 
L 369.251469 146.209445 
L 370.508089 139.553431 
L 370.926962 144.053183 
L 371.345835 142.692418 
L 371.764708 145.163116 
L 372.183581 152.442628 
L 373.440201 160.48897 
L 373.859074 161.414362 
L 374.277947 172.857691 
L 375.115694 161.258488 
L 376.372313 150.951072 
L 376.791186 152.741835 
L 377.21006 153.33577 
L 379.304426 160.144972 
L 379.723299 156.175551 
L 380.142172 162.21613 
L 380.561045 159.856515 
L 380.979918 162.05936 
L 382.236538 156.460424 
L 382.655411 169.733933 
L 383.074284 156.457737 
L 383.493157 155.553845 
L 383.912031 158.686561 
L 385.16865 162.92294 
L 385.587523 168.236105 
L 386.006397 163.329646 
L 386.42527 163.661103 
L 386.844143 153.557936 
L 388.100763 144.028996 
L 388.519636 147.37492 
L 391.032875 139.539994 
L 391.451748 139.67616 
L 391.870621 145.796468 
L 392.289494 137.016441 
L 392.708368 138.930829 
L 393.964987 141.63086 
L 394.38386 142.035775 
L 394.802734 146.880422 
L 395.221607 148.850351 
L 395.64048 142.828584 
L 396.8971 139.996867 
L 397.315973 143.991371 
L 397.734846 144.914076 
L 398.153719 154.436745 
L 398.572592 158.813769 
L 399.829212 153.625123 
L 400.248085 158.573687 
L 400.666958 157.482566 
L 401.085831 159.242871 
L 401.504705 159.253621 
L 402.761324 162.341546 
L 403.180197 156.260654 
L 404.017944 166.396967 
L 404.436817 168.172501 
L 406.11231 167.411942 
L 406.531183 166.025198 
L 406.950056 169.4616 
L 407.368929 167.804315 
L 408.625549 168.33823 
L 409.044422 166.209739 
L 409.882168 178.421689 
L 410.301042 177.726525 
L 411.976534 191.495427 
L 412.395407 185.06337 
L 412.814281 193.339044 
L 413.233154 192.019487 
L 414.489773 186.610468 
L 414.908647 191.419281 
L 415.32752 194.8736 
L 415.746393 201.719531 
L 416.165266 198.874376 
L 417.421886 206.277512 
L 417.840759 197.921213 
L 418.259632 200.854159 
L 418.678505 192.292715 
L 419.097378 194.11752 
L 420.353998 197.294132 
L 420.772871 195.998763 
L 421.191744 199.741539 
L 421.610618 197.850442 
L 422.029491 198.35569 
L 423.28611 198.899459 
L 423.704984 211.725948 
L 424.123857 216.62972 
L 424.54273 216.863531 
L 424.961603 210.509411 
L 426.637096 213.83294 
L 427.055969 197.069279 
L 427.474842 200.064933 
L 427.893715 205.829597 
L 429.150335 214.319375 
L 429.569208 209.219417 
L 429.988081 209.115501 
L 430.406955 208.768814 
L 430.825828 211.94901 
L 432.082447 212.499945 
L 432.501321 210.916118 
L 432.920194 216.718407 
L 433.339067 213.913564 
L 433.75794 216.421887 
L 435.01456 215.294934 
L 435.433433 222.546675 
L 435.852306 223.880565 
L 436.271179 228.69565 
L 436.690052 228.362401 
L 437.946672 227.711133 
L 438.365545 232.106969 
L 438.784418 231.684137 
L 439.203292 226.498179 
L 439.622165 219.223147 
L 440.878784 227.485384 
L 441.297657 223.042069 
L 441.716531 224.332063 
L 442.135404 222.629091 
L 442.554277 228.330151 
L 443.810897 231.040932 
L 444.22977 230.994348 
L 444.648643 230.348455 
L 445.067516 231.990511 
L 445.486389 236.078182 
L 447.580755 235.011249 
L 447.999628 229.858436 
L 448.418502 231.829262 
L 449.675121 232.160719 
L 450.093994 214.700103 
L 450.512868 210.948368 
L 450.931741 192.431569 
L 451.350614 168.827353 
L 452.607234 120.313697 
L 455.958219 83.373265 
L 456.377092 120.992736 
L 456.795965 125.00247 
L 457.214839 144.716993 
L 458.471458 132.413669 
L 458.890331 144.560223 
L 459.309205 145.58774 
L 459.728078 149.359183 
L 460.146951 129.558659 
L 461.403571 123.806537 
L 461.822444 119.36143 
L 462.241317 117.343126 
L 462.66019 121.793608 
L 463.079063 114.359118 
L 464.335683 107.72729 
L 464.754556 114.104702 
L 465.173429 111.829295 
L 465.592302 106.153318 
L 466.011176 112.376646 
L 467.267795 103.679036 
L 467.686668 87.279978 
L 468.105542 86.041942 
L 468.524415 75.850088 
L 468.943288 77.382852 
L 470.199907 67.692663 
L 470.618781 73.67143 
L 471.037654 74.033345 
L 471.8754 104.075889 
L 473.13202 112.267355 
L 473.550893 102.990143 
L 473.969766 97.99231 
L 474.388639 98.626557 
L 474.807513 119.683929 
L 476.064132 120.99184 
L 476.483005 125.038303 
L 476.901879 114.784637 
L 477.320752 119.025494 
L 477.739625 110.574237 
L 478.996244 102.361271 
L 479.415118 103.391475 
L 479.833991 108.125935 
L 480.252864 106.09061 
L 480.671737 99.173909 
L 481.928357 102.048626 
L 482.766103 93.09033 
L 483.184976 88.317349 
L 483.60385 98.3596 
L 484.860469 105.140134 
L 485.279342 110.912861 
L 485.698215 107.288334 
L 486.535962 104.729844 
L 487.792581 113.565412 
L 488.211455 106.693503 
L 488.630328 111.617879 
L 489.049201 107.428083 
L 489.468074 106.343234 
L 490.724694 106.369213 
L 491.143567 121.880503 
L 491.981313 137.997375 
L 492.400186 148.569957 
L 493.656806 148.632665 
L 494.075679 143.474478 
L 494.494552 145.542948 
L 494.913426 145.990863 
L 495.332299 153.812352 
L 496.588918 152.699731 
L 497.007792 135.627905 
L 497.426665 140.090033 
L 497.845538 138.014396 
L 498.264411 134.282369 
L 499.521031 131.860046 
L 499.939904 130.105116 
L 500.77765 134.554702 
L 501.196523 128.669101 
L 502.453143 134.098724 
L 506.223002 131.854671 
L 506.641875 119.894449 
L 507.060748 112.182251 
L 508.317368 107.294605 
L 508.736241 110.006281 
L 509.155114 102.638082 
L 509.573987 106.424754 
L 509.99286 101.986814 
L 511.24948 101.904398 
L 511.668353 111.580254 
L 512.087226 102.337979 
L 512.5061 101.11338 
L 512.924973 92.198979 
L 514.181592 93.282037 
L 514.600465 99.10493 
L 515.019339 92.67556 
L 515.438212 94.713573 
L 515.857085 109.863844 
L 517.113705 107.543645 
L 517.532578 102.897873 
L 517.951451 101.727023 
L 518.370324 93.031205 
L 518.789197 96.077026 
L 520.045817 96.090463 
L 520.46469 93.282037 
L 520.883563 93.682473 
L 521.302436 97.850768 
L 521.72131 88.354078 
L 522.977929 87.633831 
L 523.396802 85.369174 
L 523.815676 88.223287 
L 524.234549 91.981292 
L 524.653422 99.825177 
L 525.910042 100.080488 
L 526.328915 102.06296 
L 526.747788 101.924106 
L 527.166661 101.108901 
L 527.585534 104.832865 
L 528.842154 110.051968 
L 529.261027 106.909398 
L 529.6799 106.3504 
L 530.098773 111.151151 
L 531.774266 161.180551 
L 532.193139 157.607982 
L 533.030886 138.155041 
L 533.449759 134.81718 
L 534.706379 130.712488 
L 535.125252 132.917125 
L 535.544125 137.008379 
L 535.962998 136.994942 
L 536.381871 136.662589 
L 537.638491 129.347244 
L 538.057364 130.974966 
L 538.476237 130.012845 
L 538.89511 132.617022 
L 539.313984 130.708905 
L 540.570603 133.296061 
L 540.989476 132.703917 
L 541.40835 130.29324 
L 541.40835 130.29324 
" clip-path="url(#p22481564d8)" style="fill: none; stroke: #0000ff; stroke-width: 1.5; stroke-linecap: square"/>
   </g>
   <g id="line2d_17">
    <path d="M 80.228969 85.098649 
L 81.066715 107.834001 
L 81.485589 106.983706 
L 81.904462 109.673776 
L 84.417701 104.868359 
L 84.836574 103.327033 
L 86.093194 108.39267 
L 86.512067 111.327649 
L 86.93094 111.076178 
L 87.349813 110.65149 
L 87.768686 112.531245 
L 89.025306 113.650945 
L 89.863052 115.856532 
L 90.281926 117.833612 
L 90.700799 118.141729 
L 91.957418 113.840434 
L 92.376291 109.842969 
L 92.795165 112.297971 
L 93.214038 110.294296 
L 93.632911 106.862673 
L 94.889531 105.202108 
L 95.308404 103.54456 
L 95.727277 100.516892 
L 96.14615 99.441109 
L 97.821643 97.110334 
L 98.240516 91.806392 
L 99.078263 85.946625 
L 99.497136 86.502626 
L 100.753755 80.047009 
L 101.591502 70.921095 
L 102.010375 61.230431 
L 102.429248 56.660212 
L 103.685868 54.817375 
L 104.104741 53.691552 
L 104.523614 55.176538 
L 104.942487 59.149202 
L 105.36136 57.798065 
L 106.61798 56.107405 
L 107.036853 53.839617 
L 107.455726 50.399115 
L 107.874599 51.006994 
L 108.293473 50.171309 
L 109.550092 50.983242 
L 110.387839 45.862884 
L 110.806712 46.138807 
L 111.225585 44.927075 
L 112.482205 45.967952 
L 113.738824 53.862888 
L 114.157697 54.017909 
L 115.414317 56.837541 
L 115.83319 54.599323 
L 116.252063 53.43002 
L 116.670936 50.663359 
L 117.08981 50.743712 
L 118.346429 52.972351 
L 118.765302 56.14931 
L 119.603049 57.775713 
L 120.021922 57.254224 
L 121.278541 58.044199 
L 121.697415 57.197929 
L 122.954034 65.756777 
L 124.629527 65.246705 
L 125.0484 65.502287 
L 125.467273 67.150299 
L 125.886147 64.495135 
L 127.142766 63.89758 
L 128.399386 61.333486 
L 128.818259 62.211207 
L 130.074878 64.33994 
L 130.493752 63.157689 
L 130.912625 62.885791 
L 131.331498 66.354944 
L 131.750371 66.275947 
L 133.006991 66.626886 
L 133.425864 66.200667 
L 133.844737 66.068436 
L 134.26361 67.115962 
L 134.682484 68.834616 
L 136.357976 70.610135 
L 136.776849 67.693352 
L 137.195723 67.456053 
L 137.614596 69.46839 
L 139.290089 67.142338 
L 139.708962 67.11828 
L 140.127835 69.5784 
L 140.546708 74.053218 
L 141.803328 80.281115 
L 142.222201 85.95148 
L 142.641074 88.904088 
L 143.47882 92.591643 
L 144.73544 96.555077 
L 145.154313 101.396406 
L 145.573186 100.961789 
L 145.99206 106.317389 
L 146.410933 109.365222 
L 150.599665 116.420231 
L 151.018538 123.485431 
L 151.437411 125.691149 
L 152.275157 120.42675 
L 153.531777 113.271442 
L 153.95065 108.373773 
L 154.369523 105.147431 
L 155.20727 105.973667 
L 156.463889 105.689915 
L 157.301636 106.484308 
L 157.720509 102.433084 
L 158.139382 99.92323 
L 159.396002 102.441789 
L 159.814875 101.470767 
L 160.652621 89.970904 
L 161.071494 88.546543 
L 162.328114 83.555136 
L 162.746987 80.690625 
L 163.16586 80.509534 
L 163.584734 79.760851 
L 164.003607 80.025663 
L 165.260226 75.174492 
L 165.679099 71.629054 
L 166.097973 65.44363 
L 166.516846 63.479759 
L 166.935719 62.476413 
L 168.192339 62.260066 
L 168.611212 62.984166 
L 169.448958 67.104633 
L 169.867831 68.685851 
L 171.124451 70.836104 
L 171.543324 72.764282 
L 172.799944 59.44507 
L 174.056563 59.481245 
L 174.475436 56.515165 
L 174.89431 55.457272 
L 175.313183 55.811099 
L 175.732056 57.325523 
L 176.988676 56.085622 
L 177.407549 57.457055 
L 177.826422 61.235592 
L 178.664168 70.779765 
L 179.920788 75.155202 
L 180.758534 87.830623 
L 181.596281 98.019242 
L 182.8529 101.822494 
L 183.271773 101.857487 
L 183.690647 101.270693 
L 184.10952 101.592282 
L 184.528393 102.577869 
L 186.203886 103.533931 
L 186.622759 100.911573 
L 187.041632 99.898997 
L 187.460505 97.777132 
L 188.717125 96.747059 
L 189.135998 95.387917 
L 189.554871 94.765298 
L 189.973744 95.244314 
L 190.392618 96.692426 
L 191.649237 96.673267 
L 192.06811 93.329128 
L 192.486984 92.182527 
L 192.905857 91.474655 
L 193.32473 90.012108 
L 197.513462 87.21649 
L 197.932335 82.898442 
L 198.351208 80.491162 
L 198.770081 74.689047 
L 199.188955 70.630562 
L 200.445574 70.179542 
L 200.864447 71.320281 
L 201.28332 71.204147 
L 201.702194 72.439237 
L 202.121067 70.306874 
L 203.377686 72.257053 
L 203.79656 71.975707 
L 204.215433 72.525321 
L 206.309799 79.799082 
L 206.728672 78.363698 
L 207.147545 76.455424 
L 207.566418 76.595266 
L 207.985292 77.113911 
L 209.241911 79.14733 
L 209.660784 81.539038 
L 210.079657 81.05613 
L 210.498531 81.353092 
L 210.917404 81.877818 
L 212.174023 81.744012 
L 212.592897 81.287698 
L 213.01177 83.261148 
L 213.430643 84.532019 
L 213.849516 82.974072 
L 215.106136 83.380301 
L 215.525009 81.697296 
L 215.943882 81.535145 
L 216.362755 80.212965 
L 216.781628 81.207914 
L 218.038248 78.996028 
L 218.457121 77.371506 
L 219.294868 73.157694 
L 219.713741 71.568909 
L 220.97036 70.255259 
L 221.389234 70.131863 
L 222.645853 74.69259 
L 223.902473 73.275928 
L 224.321346 69.292548 
L 225.577965 66.210203 
L 226.834585 65.757083 
L 227.253458 66.793979 
L 227.672331 66.629117 
L 228.091205 65.429195 
L 228.510078 64.953723 
L 229.766697 63.875534 
L 230.18557 61.776196 
L 230.604444 61.846051 
L 231.023317 63.01811 
L 231.44219 63.80113 
L 232.69881 67.718066 
L 233.536556 74.13952 
L 233.955429 75.225932 
L 234.374302 75.876546 
L 236.887542 73.497611 
L 237.306415 70.096695 
L 238.563034 70.380054 
L 238.981907 67.693571 
L 239.400781 66.527811 
L 239.819654 67.509112 
L 240.238527 70.466575 
L 241.91402 77.462751 
L 242.751766 85.276065 
L 243.170639 87.483664 
L 244.427259 89.495913 
L 244.846132 90.907676 
L 246.102752 98.971761 
L 247.359371 99.093057 
L 247.778244 98.862057 
L 248.197118 97.42453 
L 249.034864 91.688727 
L 250.291484 88.790797 
L 250.710357 88.173777 
L 251.548103 93.465077 
L 251.966976 95.641925 
L 253.223596 94.406004 
L 253.642469 93.730064 
L 254.061342 94.197663 
L 254.480215 94.924081 
L 254.899089 94.012898 
L 256.155708 92.544314 
L 256.574581 92.427218 
L 256.993455 92.89591 
L 259.087821 96.957981 
L 259.506694 101.346628 
L 259.925567 102.258292 
L 260.763313 104.937033 
L 262.019933 104.737746 
L 262.438806 103.419547 
L 262.857679 102.765346 
L 263.276552 103.745466 
L 263.695426 105.153686 
L 264.952045 106.761105 
L 265.370918 106.861142 
L 265.789792 106.08394 
L 266.208665 107.330141 
L 266.627538 105.06056 
L 267.884157 104.141416 
L 268.303031 104.051395 
L 268.721904 104.261618 
L 269.140777 104.85025 
L 269.55965 106.344465 
L 270.81627 106.817619 
L 271.235143 107.477069 
L 271.654016 102.33519 
L 272.072889 99.105479 
L 272.491763 97.422737 
L 273.748382 91.449023 
L 274.586128 78.792673 
L 275.005002 76.655498 
L 275.423875 75.116403 
L 276.680494 71.161805 
L 277.099368 71.129174 
L 277.518241 73.060238 
L 278.355987 83.267228 
L 279.612607 89.960143 
L 280.450353 99.940114 
L 280.869226 105.161734 
L 281.288099 107.778187 
L 282.544719 113.162263 
L 282.963592 118.500892 
L 283.382465 120.274398 
L 283.801339 125.240304 
L 284.220212 126.757878 
L 285.476831 128.53274 
L 285.895705 122.380385 
L 286.314578 114.58881 
L 286.733451 110.773617 
L 287.152324 111.125344 
L 288.408944 113.247122 
L 288.827817 112.086174 
L 289.24669 114.168497 
L 289.665563 117.137594 
L 290.084436 121.896296 
L 291.341056 125.011491 
L 291.759929 123.738214 
L 292.178802 123.516225 
L 292.597676 124.709498 
L 293.016549 125.30736 
L 294.273168 124.924533 
L 294.692042 124.158222 
L 295.110915 124.130009 
L 295.529788 125.003793 
L 295.948661 126.668995 
L 297.205281 124.271732 
L 297.624154 124.338569 
L 298.043027 125.81507 
L 298.4619 126.32431 
L 303.069505 126.926983 
L 303.907252 129.375817 
L 304.326125 129.39362 
L 304.744998 126.64988 
L 306.001618 127.437842 
L 306.420491 129.917165 
L 306.839364 130.678838 
L 307.67711 135.758779 
L 308.93373 138.829751 
L 309.352603 144.376721 
L 309.771476 144.599629 
L 311.865842 140.132204 
L 312.284715 137.121857 
L 312.703589 137.090276 
L 313.122462 139.098456 
L 313.541335 142.508558 
L 314.797955 143.242412 
L 315.216828 139.859299 
L 315.635701 137.924561 
L 316.054574 137.05865 
L 316.473447 137.236417 
L 317.730067 138.409437 
L 318.14894 137.681051 
L 318.567813 136.56087 
L 318.986686 134.419583 
L 319.40556 135.276177 
L 320.662179 135.208508 
L 321.499926 132.395831 
L 321.918799 133.176401 
L 322.337672 132.010117 
L 323.594292 132.957518 
L 324.013165 133.694434 
L 324.432038 133.946692 
L 324.850911 135.690979 
L 325.269784 136.937792 
L 326.526404 137.149983 
L 326.945277 137.573796 
L 327.36415 140.933245 
L 327.783023 141.960956 
L 328.201897 142.499241 
L 329.458516 141.274168 
L 329.877389 138.224366 
L 330.296263 137.703184 
L 331.134009 142.435641 
L 332.390628 145.445112 
L 332.809502 149.335891 
L 333.228375 151.916782 
L 333.647248 155.536712 
L 334.066121 156.393174 
L 335.322741 157.503994 
L 335.741614 158.924199 
L 336.160487 162.049411 
L 336.57936 163.238223 
L 336.998234 160.19717 
L 339.092599 156.53446 
L 339.511473 156.807189 
L 339.930346 158.631699 
L 341.186965 161.202135 
L 341.605839 166.320918 
L 342.443585 172.123733 
L 342.862458 171.92742 
L 344.119078 173.680718 
L 344.956824 178.093292 
L 345.375697 183.417005 
L 345.794571 184.422232 
L 347.05119 186.872379 
L 347.470063 194.571965 
L 347.888936 194.847362 
L 348.30781 192.318131 
L 348.726683 185.511006 
L 349.983302 183.463939 
L 350.402176 185.485111 
L 351.239922 196.731973 
L 351.658795 199.496622 
L 352.915415 203.110822 
L 353.334288 205.877746 
L 353.753161 193.34641 
L 354.172034 174.599119 
L 358.779639 163.515589 
L 359.198513 160.388452 
L 360.036259 164.395934 
L 360.455132 166.661797 
L 361.711752 168.187594 
L 362.130625 169.504656 
L 362.549498 167.860275 
L 362.968371 169.009413 
L 363.387244 164.549555 
L 364.643864 164.66792 
L 365.062737 166.442738 
L 366.319357 177.862205 
L 367.575976 178.633633 
L 367.99485 176.536657 
L 368.832596 173.901133 
L 369.251469 174.764812 
L 370.508089 173.494772 
L 371.345835 166.342132 
L 371.764708 163.518782 
L 372.183581 162.135801 
L 373.440201 162.67273 
L 373.859074 164.765813 
L 374.277947 166.099585 
L 374.696821 170.90369 
L 375.115694 170.85938 
L 376.372313 169.398276 
L 376.791186 165.815658 
L 377.21006 165.099125 
L 379.304426 165.427931 
L 380.142172 170.351451 
L 380.561045 175.180358 
L 380.979918 172.739135 
L 382.236538 171.940849 
L 382.655411 166.849361 
L 383.074284 165.900516 
L 383.493157 159.739938 
L 383.912031 155.734031 
L 385.16865 154.69486 
L 385.587523 155.969361 
L 386.006397 159.242639 
L 386.42527 160.363082 
L 386.844143 162.323278 
L 388.100763 158.342347 
L 388.519636 152.143932 
L 391.032875 151.770159 
L 391.451748 148.168426 
L 391.870621 147.140234 
L 392.289494 149.440609 
L 392.708368 148.098133 
L 393.964987 148.369069 
L 394.802734 150.232902 
L 395.221607 152.836888 
L 395.64048 154.196554 
L 396.8971 152.420904 
L 397.315973 149.33366 
L 397.734846 150.080987 
L 398.153719 151.573584 
L 398.572592 155.836692 
L 400.248085 161.565366 
L 400.666958 164.943623 
L 401.504705 169.825633 
L 403.180197 171.24037 
L 403.599071 169.282492 
L 404.436817 170.85155 
L 406.531183 171.887091 
L 407.368929 177.781851 
L 408.625549 178.671294 
L 409.044422 180.192936 
L 409.463295 181.253891 
L 409.882168 184.581189 
L 410.301042 190.703625 
L 411.557661 195.227653 
L 412.395407 207.279755 
L 412.814281 208.51935 
L 413.233154 212.726994 
L 414.489773 211.951979 
L 414.908647 208.96639 
L 415.32752 208.418744 
L 415.746393 208.992023 
L 416.165266 211.178757 
L 417.421886 211.197785 
L 417.840759 213.437578 
L 418.259632 210.55745 
L 418.678505 209.724084 
L 419.097378 205.46828 
L 420.353998 204.332921 
L 420.772871 205.395844 
L 421.191744 205.737073 
L 421.610618 207.010918 
L 422.029491 206.726904 
L 423.28611 206.69121 
L 423.704984 206.864296 
L 424.123857 210.787838 
L 424.54273 213.43854 
L 424.961603 214.949815 
L 426.218223 213.785893 
L 426.637096 214.590696 
L 427.055969 209.771587 
L 427.893715 181.439093 
L 429.150335 172.573004 
L 429.569208 166.949617 
L 430.406955 152.879623 
L 430.825828 148.208624 
L 432.082447 148.36277 
L 432.501321 149.860485 
L 432.920194 151.795836 
L 433.339067 156.634235 
L 433.75794 158.860293 
L 435.01456 161.579451 
L 435.433433 163.081015 
L 436.690052 173.567821 
L 438.365545 176.225784 
L 438.784418 175.595204 
L 439.203292 173.904238 
L 439.622165 169.734169 
L 440.878784 161.841638 
L 441.297657 162.315579 
L 441.716531 162.036201 
L 442.554277 170.164193 
L 443.810897 177.098475 
L 444.22977 180.892628 
L 445.486389 186.995031 
L 447.580755 189.901184 
L 447.999628 191.452264 
L 448.418502 189.569097 
L 449.675121 189.714057 
L 450.093994 190.376 
L 450.931741 171.206689 
L 451.350614 152.120662 
L 452.607234 126.752235 
L 455.958219 98.77851 
L 456.377092 73.576958 
L 457.214839 81.016194 
L 458.471458 82.016304 
L 459.309205 59.519606 
L 459.728078 52.682825 
L 460.146951 50.347806 
L 461.403571 46.843966 
L 461.822444 46.984508 
L 462.241317 39.946865 
L 462.66019 38.868502 
L 463.079063 37.096526 
L 464.335683 36.841818 
L 464.754556 45.329935 
L 465.173429 60.754609 
L 466.011176 73.741427 
L 467.267795 83.380563 
L 467.686668 90.412563 
L 468.105542 93.175726 
L 468.524415 96.794038 
L 470.199907 98.704062 
L 470.618781 97.354981 
L 471.037654 98.524196 
L 471.456527 99.273972 
L 471.8754 96.385971 
L 473.13202 91.52627 
L 473.550893 93.324797 
L 474.388639 77.470099 
L 474.807513 73.397049 
L 476.064132 77.051098 
L 476.483005 80.747795 
L 476.901879 87.637985 
L 477.320752 90.128199 
L 477.739625 95.056093 
L 478.996244 95.353843 
L 479.415118 88.224998 
L 479.833991 85.735615 
L 480.252864 85.487294 
L 480.671737 85.54477 
L 481.928357 86.289385 
L 482.34723 89.55129 
L 483.184976 94.35054 
L 483.60385 87.517914 
L 484.860469 88.710268 
L 485.279342 87.175985 
L 485.698215 86.494009 
L 486.117089 85.258831 
L 486.535962 84.885189 
L 487.792581 86.130253 
L 488.211455 91.110593 
L 488.630328 94.206323 
L 489.049201 100.181306 
L 489.468074 104.450626 
L 490.724694 106.639241 
L 491.981313 114.138009 
L 492.400186 119.902288 
L 493.656806 125.193019 
L 494.075679 128.322649 
L 494.494552 129.290259 
L 494.913426 130.976807 
L 495.332299 135.204572 
L 496.588918 141.789357 
L 497.007792 147.243333 
L 497.426665 145.368914 
L 497.845538 147.027861 
L 498.264411 147.31835 
L 499.939904 148.252803 
L 500.358777 148.680378 
L 500.77765 150.727226 
L 501.196523 150.779716 
L 502.453143 148.785796 
L 506.223002 147.905188 
L 506.641875 145.060054 
L 507.060748 138.237095 
L 508.317368 126.645987 
L 508.736241 117.315886 
L 509.99286 102.620911 
L 511.24948 98.015043 
L 511.668353 90.520955 
L 512.087226 88.756591 
L 512.5061 85.65185 
L 512.924973 85.198642 
L 514.181592 79.84243 
L 514.600465 75.634261 
L 515.019339 76.397772 
L 515.438212 75.804766 
L 515.857085 77.2999 
L 517.113705 83.353749 
L 518.370324 92.96909 
L 518.789197 91.582347 
L 520.045817 91.874542 
L 520.883563 94.572966 
L 521.302436 96.369262 
L 521.72131 99.180365 
L 522.977929 97.839245 
L 523.396802 99.023595 
L 523.815676 100.83262 
L 524.653422 110.346961 
L 525.910042 115.397288 
L 527.585534 126.413893 
L 528.842154 129.735112 
L 529.6799 139.496024 
L 530.098773 144.372129 
L 531.774266 149.211052 
L 532.193139 160.960462 
L 532.612013 162.149492 
L 533.449759 145.327666 
L 534.706379 140.74953 
L 535.125252 137.791411 
L 535.544125 138.085574 
L 535.962998 139.234624 
L 536.381871 140.979217 
L 537.638491 141.868486 
L 538.057364 140.401259 
L 538.476237 140.620055 
L 538.89511 140.620011 
L 539.313984 141.728819 
L 540.570603 141.39122 
L 540.989476 142.562973 
L 541.40835 143.27758 
L 541.40835 143.27758 
" clip-path="url(#p22481564d8)" style="fill: none; stroke-dasharray: 5.55,2.4; stroke-dashoffset: 0; stroke: #ff0000; stroke-width: 1.5"/>
   </g>
   <g id="patch_3">
    <path d="M 57.17 246.04 
L 57.17 26.88 
" style="fill: none; stroke: #000000; stroke-width: 0.8; stroke-linejoin: miter; stroke-linecap: square"/>
   </g>
   <g id="patch_4">
    <path d="M 564.467319 246.04 
L 564.467319 26.88 
" style="fill: none; stroke: #000000; stroke-width: 0.8; stroke-linejoin: miter; stroke-linecap: square"/>
   </g>
   <g id="patch_5">
    <path d="M 57.17 246.04 
L 564.467319 246.04 
" style="fill: none; stroke: #000000; stroke-width: 0.8; stroke-linejoin: miter; stroke-linecap: square"/>
   </g>
   <g id="patch_6">
    <path d="M 57.17 26.88 
L 564.467319 26.88 
" style="fill: none; stroke: #000000; stroke-width: 0.8; stroke-linejoin: miter; stroke-linecap: square"/>
   </g>
   <g id="text_18">
    <!-- Real vs Predicted Stock Prices -->
    <g transform="translate(221.046472 20.88) scale(0.12 -0.12)">
     <defs>
      <path id="DejaVuSans-52" d="M 2841 2188 
Q 3044 2119 3236 1894 
Q 3428 1669 3622 1275 
L 4263 0 
L 3584 0 
L 2988 1197 
Q 2756 1666 2539 1819 
Q 2322 1972 1947 1972 
L 1259 1972 
L 1259 0 
L 628 0 
L 628 4666 
L 2053 4666 
Q 2853 4666 3247 4331 
Q 3641 3997 3641 3322 
Q 3641 2881 3436 2590 
Q 3231 2300 2841 2188 
z
M 1259 4147 
L 1259 2491 
L 2053 2491 
Q 2509 2491 2742 2702 
Q 2975 2913 2975 3322 
Q 2975 3731 2742 3939 
Q 2509 4147 2053 4147 
L 1259 4147 
z
" transform="scale(0.015625)"/>
      <path id="DejaVuSans-6c" d="M 603 4863 
L 1178 4863 
L 1178 0 
L 603 0 
L 603 4863 
z
" transform="scale(0.015625)"/>
      <path id="DejaVuSans-76" d="M 191 3500 
L 800 3500 
L 1894 563 
L 2988 3500 
L 3597 3500 
L 2284 0 
L 1503 0 
L 191 3500 
z
" transform="scale(0.015625)"/>
      <path id="DejaVuSans-73" d="M 2834 3397 
L 2834 2853 
Q 2591 2978 2328 3040 
Q 2066 3103 1784 3103 
Q 1356 3103 1142 2972 
Q 928 2841 928 2578 
Q 928 2378 1081 2264 
Q 1234 2150 1697 2047 
L 1894 2003 
Q 2506 1872 2764 1633 
Q 3022 1394 3022 966 
Q 3022 478 2636 193 
Q 2250 -91 1575 -91 
Q 1294 -91 989 -36 
Q 684 19 347 128 
L 347 722 
Q 666 556 975 473 
Q 1284 391 1588 391 
Q 1994 391 2212 530 
Q 2431 669 2431 922 
Q 2431 1156 2273 1281 
Q 2116 1406 1581 1522 
L 1381 1569 
Q 847 1681 609 1914 
Q 372 2147 372 2553 
Q 372 3047 722 3315 
Q 1072 3584 1716 3584 
Q 2034 3584 2315 3537 
Q 2597 3491 2834 3397 
z
" transform="scale(0.015625)"/>
      <path id="DejaVuSans-64" d="M 2906 2969 
L 2906 4863 
L 3481 4863 
L 3481 0 
L 2906 0 
L 2906 525 
Q 2725 213 2448 61 
Q 2172 -91 1784 -91 
Q 1150 -91 751 415 
Q 353 922 353 1747 
Q 353 2572 751 3078 
Q 1150 3584 1784 3584 
Q 2172 3584 2448 3432 
Q 2725 3281 2906 2969 
z
M 947 1747 
Q 947 1113 1208 752 
Q 1469 391 1925 391 
Q 2381 391 2643 752 
Q 2906 1113 2906 1747 
Q 2906 2381 2643 2742 
Q 2381 3103 1925 3103 
Q 1469 3103 1208 2742 
Q 947 2381 947 1747 
z
" transform="scale(0.015625)"/>
     </defs>
     <use xlink:href="#DejaVuSans-52"/>
     <use xlink:href="#DejaVuSans-65" transform="translate(64.982422 0)"/>
     <use xlink:href="#DejaVuSans-61" transform="translate(126.505859 0)"/>
     <use xlink:href="#DejaVuSans-6c" transform="translate(187.785156 0)"/>
     <use xlink:href="#DejaVuSans-20" transform="translate(215.568359 0)"/>
     <use xlink:href="#DejaVuSans-76" transform="translate(247.355469 0)"/>
     <use xlink:href="#DejaVuSans-73" transform="translate(306.535156 0)"/>
     <use xlink:href="#DejaVuSans-20" transform="translate(358.634766 0)"/>
     <use xlink:href="#DejaVuSans-50" transform="translate(390.421875 0)"/>
     <use xlink:href="#DejaVuSans-72" transform="translate(448.974609 0)"/>
     <use xlink:href="#DejaVuSans-65" transform="translate(487.837891 0)"/>
     <use xlink:href="#DejaVuSans-64" transform="translate(549.361328 0)"/>
     <use xlink:href="#DejaVuSans-69" transform="translate(612.837891 0)"/>
     <use xlink:href="#DejaVuSans-63" transform="translate(640.621094 0)"/>
     <use xlink:href="#DejaVuSans-74" transform="translate(695.601562 0)"/>
     <use xlink:href="#DejaVuSans-65" transform="translate(734.810547 0)"/>
     <use xlink:href="#DejaVuSans-64" transform="translate(796.333984 0)"/>
     <use xlink:href="#DejaVuSans-20" transform="translate(859.810547 0)"/>
     <use xlink:href="#DejaVuSans-53" transform="translate(891.597656 0)"/>
     <use xlink:href="#DejaVuSans-74" transform="translate(955.074219 0)"/>
     <use xlink:href="#DejaVuSans-6f" transform="translate(994.283203 0)"/>
     <use xlink:href="#DejaVuSans-63" transform="translate(1055.464844 0)"/>
     <use xlink:href="#DejaVuSans-6b" transform="translate(1110.445312 0)"/>
     <use xlink:href="#DejaVuSans-20" transform="translate(1168.355469 0)"/>
     <use xlink:href="#DejaVuSans-50" transform="translate(1200.142578 0)"/>
     <use xlink:href="#DejaVuSans-72" transform="translate(1258.695312 0)"/>
     <use xlink:href="#DejaVuSans-69" transform="translate(1299.808594 0)"/>
     <use xlink:href="#DejaVuSans-63" transform="translate(1327.591797 0)"/>
     <use xlink:href="#DejaVuSans-65" transform="translate(1382.572266 0)"/>
     <use xlink:href="#DejaVuSans-73" transform="translate(1444.095703 0)"/>
    </g>
   </g>
   <g id="legend_1">
    <g id="patch_7">
     <path d="M 64.17 241.04 
L 175.893438 241.04 
Q 177.893438 241.04 177.893438 239.04 
L 177.893438 210.68375 
Q 177.893438 208.68375 175.893438 208.68375 
L 64.17 208.68375 
Q 62.17 208.68375 62.17 210.68375 
L 62.17 239.04 
Q 62.17 241.04 64.17 241.04 
z
" style="fill: #ffffff; opacity: 0.8; stroke: #cccccc; stroke-linejoin: miter"/>
    </g>
    <g id="line2d_18">
     <path d="M 66.17 216.782187 
L 76.17 216.782187 
L 86.17 216.782187 
" style="fill: none; stroke: #0000ff; stroke-width: 1.5; stroke-linecap: square"/>
    </g>
    <g id="text_19">
     <!-- Real Prices -->
     <g transform="translate(94.17 220.282187) scale(0.1 -0.1)">
      <use xlink:href="#DejaVuSans-52"/>
      <use xlink:href="#DejaVuSans-65" transform="translate(64.982422 0)"/>
      <use xlink:href="#DejaVuSans-61" transform="translate(126.505859 0)"/>
      <use xlink:href="#DejaVuSans-6c" transform="translate(187.785156 0)"/>
      <use xlink:href="#DejaVuSans-20" transform="translate(215.568359 0)"/>
      <use xlink:href="#DejaVuSans-50" transform="translate(247.355469 0)"/>
      <use xlink:href="#DejaVuSans-72" transform="translate(305.908203 0)"/>
      <use xlink:href="#DejaVuSans-69" transform="translate(347.021484 0)"/>
      <use xlink:href="#DejaVuSans-63" transform="translate(374.804688 0)"/>
      <use xlink:href="#DejaVuSans-65" transform="translate(429.785156 0)"/>
      <use xlink:href="#DejaVuSans-73" transform="translate(491.308594 0)"/>
     </g>
    </g>
    <g id="line2d_19">
     <path d="M 66.17 231.460312 
L 76.17 231.460312 
L 86.17 231.460312 
" style="fill: none; stroke-dasharray: 5.55,2.4; stroke-dashoffset: 0; stroke: #ff0000; stroke-width: 1.5"/>
    </g>
    <g id="text_20">
     <!-- Predicted Prices -->
     <g transform="translate(94.17 234.960312) scale(0.1 -0.1)">
      <use xlink:href="#DejaVuSans-50"/>
      <use xlink:href="#DejaVuSans-72" transform="translate(58.552734 0)"/>
      <use xlink:href="#DejaVuSans-65" transform="translate(97.416016 0)"/>
      <use xlink:href="#DejaVuSans-64" transform="translate(158.939453 0)"/>
      <use xlink:href="#DejaVuSans-69" transform="translate(222.416016 0)"/>
      <use xlink:href="#DejaVuSans-63" transform="translate(250.199219 0)"/>
      <use xlink:href="#DejaVuSans-74" transform="translate(305.179688 0)"/>
      <use xlink:href="#DejaVuSans-65" transform="translate(344.388672 0)"/>
      <use xlink:href="#DejaVuSans-64" transform="translate(405.912109 0)"/>
      <use xlink:href="#DejaVuSans-20" transform="translate(469.388672 0)"/>
      <use xlink:href="#DejaVuSans-50" transform="translate(501.175781 0)"/>
      <use xlink:href="#DejaVuSans-72" transform="translate(559.728516 0)"/>
      <use xlink:href="#DejaVuSans-69" transform="translate(600.841797 0)"/>
      <use xlink:href="#DejaVuSans-63" transform="translate(628.625 0)"/>
      <use xlink:href="#DejaVuSans-65" transform="translate(683.605469 0)"/>
      <use xlink:href="#DejaVuSans-73" transform="translate(745.128906 0)"/>
     </g>
    </g>
   </g>
  </g>
 </g>
 <defs>
  <clipPath id="p22481564d8">
   <rect x="57.17" y="26.88" width="507.297319" height="219.16"/>
  </clipPath>
 </defs>
</svg>
