<?xml version="1.0" encoding="utf-8" standalone="no"?>
<!DOCTYPE svg PUBLIC "-//W3C//DTD SVG 1.1//EN"
  "http://www.w3.org/Graphics/SVG/1.1/DTD/svg11.dtd">
<svg xmlns:xlink="http://www.w3.org/1999/xlink" width="576pt" height="288pt" viewBox="0 0 576 288" xmlns="http://www.w3.org/2000/svg" version="1.1">
 <metadata>
  <rdf:RDF xmlns:dc="http://purl.org/dc/elements/1.1/" xmlns:cc="http://creativecommons.org/ns#" xmlns:rdf="http://www.w3.org/1999/02/22-rdf-syntax-ns#">
   <cc:Work>
    <dc:type rdf:resource="http://purl.org/dc/dcmitype/StillImage"/>
    <dc:date>2025-05-01T22:52:46.300053</dc:date>
    <dc:format>image/svg+xml</dc:format>
    <dc:creator>
     <cc:Agent>
      <dc:title>Matplotlib v3.10.1, https://matplotlib.org/</dc:title>
     </cc:Agent>
    </dc:creator>
   </cc:Work>
  </rdf:RDF>
 </metadata>
 <defs>
  <style type="text/css">*{stroke-linejoin: round; stroke-linecap: butt}</style>
 </defs>
 <g id="figure_1">
  <g id="patch_1">
   <path d="M 0 288 
L 576 288 
L 576 0 
L 0 0 
z
" style="fill: #ffffff"/>
  </g>
  <g id="axes_1">
   <g id="patch_2">
    <path d="M 57.17 246.04 
L 564.467319 246.04 
L 564.467319 26.88 
L 57.17 26.88 
z
" style="fill: #ffffff"/>
   </g>
   <g id="matplotlib.axis_1">
    <g id="xtick_1">
     <g id="line2d_1">
      <defs>
       <path id="m62fdbec4a5" d="M 0 0 
L 0 3.5 
" style="stroke: #000000; stroke-width: 0.8"/>
      </defs>
      <g>
       <use xlink:href="#m62fdbec4a5" x="82.742208" y="246.04" style="stroke: #000000; stroke-width: 0.8"/>
      </g>
     </g>
     <g id="text_1">
      <!-- 2022-05 -->
      <g transform="translate(61.850802 260.638438) scale(0.1 -0.1)">
       <defs>
        <path id="DejaVuSans-32" d="M 1228 531 
L 3431 531 
L 3431 0 
L 469 0 
L 469 531 
Q 828 903 1448 1529 
Q 2069 2156 2228 2338 
Q 2531 2678 2651 2914 
Q 2772 3150 2772 3378 
Q 2772 3750 2511 3984 
Q 2250 4219 1831 4219 
Q 1534 4219 1204 4116 
Q 875 4013 500 3803 
L 500 4441 
Q 881 4594 1212 4672 
Q 1544 4750 1819 4750 
Q 2544 4750 2975 4387 
Q 3406 4025 3406 3419 
Q 3406 3131 3298 2873 
Q 3191 2616 2906 2266 
Q 2828 2175 2409 1742 
Q 1991 1309 1228 531 
z
" transform="scale(0.015625)"/>
        <path id="DejaVuSans-30" d="M 2034 4250 
Q 1547 4250 1301 3770 
Q 1056 3291 1056 2328 
Q 1056 1369 1301 889 
Q 1547 409 2034 409 
Q 2525 409 2770 889 
Q 3016 1369 3016 2328 
Q 3016 3291 2770 3770 
Q 2525 4250 2034 4250 
z
M 2034 4750 
Q 2819 4750 3233 4129 
Q 3647 3509 3647 2328 
Q 3647 1150 3233 529 
Q 2819 -91 2034 -91 
Q 1250 -91 836 529 
Q 422 1150 422 2328 
Q 422 3509 836 4129 
Q 1250 4750 2034 4750 
z
" transform="scale(0.015625)"/>
        <path id="DejaVuSans-2d" d="M 313 2009 
L 1997 2009 
L 1997 1497 
L 313 1497 
L 313 2009 
z
" transform="scale(0.015625)"/>
        <path id="DejaVuSans-35" d="M 691 4666 
L 3169 4666 
L 3169 4134 
L 1269 4134 
L 1269 2991 
Q 1406 3038 1543 3061 
Q 1681 3084 1819 3084 
Q 2600 3084 3056 2656 
Q 3513 2228 3513 1497 
Q 3513 744 3044 326 
Q 2575 -91 1722 -91 
Q 1428 -91 1123 -41 
Q 819 9 494 109 
L 494 744 
Q 775 591 1075 516 
Q 1375 441 1709 441 
Q 2250 441 2565 725 
Q 2881 1009 2881 1497 
Q 2881 1984 2565 2268 
Q 2250 2553 1709 2553 
Q 1456 2553 1204 2497 
Q 953 2441 691 2322 
L 691 4666 
z
" transform="scale(0.015625)"/>
       </defs>
       <use xlink:href="#DejaVuSans-32"/>
       <use xlink:href="#DejaVuSans-30" transform="translate(63.623047 0)"/>
       <use xlink:href="#DejaVuSans-32" transform="translate(127.246094 0)"/>
       <use xlink:href="#DejaVuSans-32" transform="translate(190.869141 0)"/>
       <use xlink:href="#DejaVuSans-2d" transform="translate(254.492188 0)"/>
       <use xlink:href="#DejaVuSans-30" transform="translate(290.576172 0)"/>
       <use xlink:href="#DejaVuSans-35" transform="translate(354.199219 0)"/>
      </g>
     </g>
    </g>
    <g id="xtick_2">
     <g id="line2d_2">
      <g>
       <use xlink:href="#m62fdbec4a5" x="134.26361" y="246.04" style="stroke: #000000; stroke-width: 0.8"/>
      </g>
     </g>
     <g id="text_2">
      <!-- 2022-09 -->
      <g transform="translate(113.372204 260.638438) scale(0.1 -0.1)">
       <defs>
        <path id="DejaVuSans-39" d="M 703 97 
L 703 672 
Q 941 559 1184 500 
Q 1428 441 1663 441 
Q 2288 441 2617 861 
Q 2947 1281 2994 2138 
Q 2813 1869 2534 1725 
Q 2256 1581 1919 1581 
Q 1219 1581 811 2004 
Q 403 2428 403 3163 
Q 403 3881 828 4315 
Q 1253 4750 1959 4750 
Q 2769 4750 3195 4129 
Q 3622 3509 3622 2328 
Q 3622 1225 3098 567 
Q 2575 -91 1691 -91 
Q 1453 -91 1209 -44 
Q 966 3 703 97 
z
M 1959 2075 
Q 2384 2075 2632 2365 
Q 2881 2656 2881 3163 
Q 2881 3666 2632 3958 
Q 2384 4250 1959 4250 
Q 1534 4250 1286 3958 
Q 1038 3666 1038 3163 
Q 1038 2656 1286 2365 
Q 1534 2075 1959 2075 
z
" transform="scale(0.015625)"/>
       </defs>
       <use xlink:href="#DejaVuSans-32"/>
       <use xlink:href="#DejaVuSans-30" transform="translate(63.623047 0)"/>
       <use xlink:href="#DejaVuSans-32" transform="translate(127.246094 0)"/>
       <use xlink:href="#DejaVuSans-32" transform="translate(190.869141 0)"/>
       <use xlink:href="#DejaVuSans-2d" transform="translate(254.492188 0)"/>
       <use xlink:href="#DejaVuSans-30" transform="translate(290.576172 0)"/>
       <use xlink:href="#DejaVuSans-39" transform="translate(354.199219 0)"/>
      </g>
     </g>
    </g>
    <g id="xtick_3">
     <g id="line2d_3">
      <g>
       <use xlink:href="#m62fdbec4a5" x="185.366139" y="246.04" style="stroke: #000000; stroke-width: 0.8"/>
      </g>
     </g>
     <g id="text_3">
      <!-- 2023-01 -->
      <g transform="translate(164.474733 260.638438) scale(0.1 -0.1)">
       <defs>
        <path id="DejaVuSans-33" d="M 2597 2516 
Q 3050 2419 3304 2112 
Q 3559 1806 3559 1356 
Q 3559 666 3084 287 
Q 2609 -91 1734 -91 
Q 1441 -91 1130 -33 
Q 819 25 488 141 
L 488 750 
Q 750 597 1062 519 
Q 1375 441 1716 441 
Q 2309 441 2620 675 
Q 2931 909 2931 1356 
Q 2931 1769 2642 2001 
Q 2353 2234 1838 2234 
L 1294 2234 
L 1294 2753 
L 1863 2753 
Q 2328 2753 2575 2939 
Q 2822 3125 2822 3475 
Q 2822 3834 2567 4026 
Q 2313 4219 1838 4219 
Q 1578 4219 1281 4162 
Q 984 4106 628 3988 
L 628 4550 
Q 988 4650 1302 4700 
Q 1616 4750 1894 4750 
Q 2613 4750 3031 4423 
Q 3450 4097 3450 3541 
Q 3450 3153 3228 2886 
Q 3006 2619 2597 2516 
z
" transform="scale(0.015625)"/>
        <path id="DejaVuSans-31" d="M 794 531 
L 1825 531 
L 1825 4091 
L 703 3866 
L 703 4441 
L 1819 4666 
L 2450 4666 
L 2450 531 
L 3481 531 
L 3481 0 
L 794 0 
L 794 531 
z
" transform="scale(0.015625)"/>
       </defs>
       <use xlink:href="#DejaVuSans-32"/>
       <use xlink:href="#DejaVuSans-30" transform="translate(63.623047 0)"/>
       <use xlink:href="#DejaVuSans-32" transform="translate(127.246094 0)"/>
       <use xlink:href="#DejaVuSans-33" transform="translate(190.869141 0)"/>
       <use xlink:href="#DejaVuSans-2d" transform="translate(254.492188 0)"/>
       <use xlink:href="#DejaVuSans-30" transform="translate(290.576172 0)"/>
       <use xlink:href="#DejaVuSans-31" transform="translate(354.199219 0)"/>
      </g>
     </g>
    </g>
    <g id="xtick_4">
     <g id="line2d_4">
      <g>
       <use xlink:href="#m62fdbec4a5" x="235.630922" y="246.04" style="stroke: #000000; stroke-width: 0.8"/>
      </g>
     </g>
     <g id="text_4">
      <!-- 2023-05 -->
      <g transform="translate(214.739516 260.638438) scale(0.1 -0.1)">
       <use xlink:href="#DejaVuSans-32"/>
       <use xlink:href="#DejaVuSans-30" transform="translate(63.623047 0)"/>
       <use xlink:href="#DejaVuSans-32" transform="translate(127.246094 0)"/>
       <use xlink:href="#DejaVuSans-33" transform="translate(190.869141 0)"/>
       <use xlink:href="#DejaVuSans-2d" transform="translate(254.492188 0)"/>
       <use xlink:href="#DejaVuSans-30" transform="translate(290.576172 0)"/>
       <use xlink:href="#DejaVuSans-35" transform="translate(354.199219 0)"/>
      </g>
     </g>
    </g>
    <g id="xtick_5">
     <g id="line2d_5">
      <g>
       <use xlink:href="#m62fdbec4a5" x="287.152324" y="246.04" style="stroke: #000000; stroke-width: 0.8"/>
      </g>
     </g>
     <g id="text_5">
      <!-- 2023-09 -->
      <g transform="translate(266.260918 260.638438) scale(0.1 -0.1)">
       <use xlink:href="#DejaVuSans-32"/>
       <use xlink:href="#DejaVuSans-30" transform="translate(63.623047 0)"/>
       <use xlink:href="#DejaVuSans-32" transform="translate(127.246094 0)"/>
       <use xlink:href="#DejaVuSans-33" transform="translate(190.869141 0)"/>
       <use xlink:href="#DejaVuSans-2d" transform="translate(254.492188 0)"/>
       <use xlink:href="#DejaVuSans-30" transform="translate(290.576172 0)"/>
       <use xlink:href="#DejaVuSans-39" transform="translate(354.199219 0)"/>
      </g>
     </g>
    </g>
    <g id="xtick_6">
     <g id="line2d_6">
      <g>
       <use xlink:href="#m62fdbec4a5" x="338.254853" y="246.04" style="stroke: #000000; stroke-width: 0.8"/>
      </g>
     </g>
     <g id="text_6">
      <!-- 2024-01 -->
      <g transform="translate(317.363447 260.638438) scale(0.1 -0.1)">
       <defs>
        <path id="DejaVuSans-34" d="M 2419 4116 
L 825 1625 
L 2419 1625 
L 2419 4116 
z
M 2253 4666 
L 3047 4666 
L 3047 1625 
L 3713 1625 
L 3713 1100 
L 3047 1100 
L 3047 0 
L 2419 0 
L 2419 1100 
L 313 1100 
L 313 1709 
L 2253 4666 
z
" transform="scale(0.015625)"/>
       </defs>
       <use xlink:href="#DejaVuSans-32"/>
       <use xlink:href="#DejaVuSans-30" transform="translate(63.623047 0)"/>
       <use xlink:href="#DejaVuSans-32" transform="translate(127.246094 0)"/>
       <use xlink:href="#DejaVuSans-34" transform="translate(190.869141 0)"/>
       <use xlink:href="#DejaVuSans-2d" transform="translate(254.492188 0)"/>
       <use xlink:href="#DejaVuSans-30" transform="translate(290.576172 0)"/>
       <use xlink:href="#DejaVuSans-31" transform="translate(354.199219 0)"/>
      </g>
     </g>
    </g>
    <g id="xtick_7">
     <g id="line2d_7">
      <g>
       <use xlink:href="#m62fdbec4a5" x="388.938509" y="246.04" style="stroke: #000000; stroke-width: 0.8"/>
      </g>
     </g>
     <g id="text_7">
      <!-- 2024-05 -->
      <g transform="translate(368.047103 260.638438) scale(0.1 -0.1)">
       <use xlink:href="#DejaVuSans-32"/>
       <use xlink:href="#DejaVuSans-30" transform="translate(63.623047 0)"/>
       <use xlink:href="#DejaVuSans-32" transform="translate(127.246094 0)"/>
       <use xlink:href="#DejaVuSans-34" transform="translate(190.869141 0)"/>
       <use xlink:href="#DejaVuSans-2d" transform="translate(254.492188 0)"/>
       <use xlink:href="#DejaVuSans-30" transform="translate(290.576172 0)"/>
       <use xlink:href="#DejaVuSans-35" transform="translate(354.199219 0)"/>
      </g>
     </g>
    </g>
    <g id="xtick_8">
     <g id="line2d_8">
      <g>
       <use xlink:href="#m62fdbec4a5" x="440.459911" y="246.04" style="stroke: #000000; stroke-width: 0.8"/>
      </g>
     </g>
     <g id="text_8">
      <!-- 2024-09 -->
      <g transform="translate(419.568505 260.638438) scale(0.1 -0.1)">
       <use xlink:href="#DejaVuSans-32"/>
       <use xlink:href="#DejaVuSans-30" transform="translate(63.623047 0)"/>
       <use xlink:href="#DejaVuSans-32" transform="translate(127.246094 0)"/>
       <use xlink:href="#DejaVuSans-34" transform="translate(190.869141 0)"/>
       <use xlink:href="#DejaVuSans-2d" transform="translate(254.492188 0)"/>
       <use xlink:href="#DejaVuSans-30" transform="translate(290.576172 0)"/>
       <use xlink:href="#DejaVuSans-39" transform="translate(354.199219 0)"/>
      </g>
     </g>
    </g>
    <g id="xtick_9">
     <g id="line2d_9">
      <g>
       <use xlink:href="#m62fdbec4a5" x="491.56244" y="246.04" style="stroke: #000000; stroke-width: 0.8"/>
      </g>
     </g>
     <g id="text_9">
      <!-- 2025-01 -->
      <g transform="translate(470.671034 260.638438) scale(0.1 -0.1)">
       <use xlink:href="#DejaVuSans-32"/>
       <use xlink:href="#DejaVuSans-30" transform="translate(63.623047 0)"/>
       <use xlink:href="#DejaVuSans-32" transform="translate(127.246094 0)"/>
       <use xlink:href="#DejaVuSans-35" transform="translate(190.869141 0)"/>
       <use xlink:href="#DejaVuSans-2d" transform="translate(254.492188 0)"/>
       <use xlink:href="#DejaVuSans-30" transform="translate(290.576172 0)"/>
       <use xlink:href="#DejaVuSans-31" transform="translate(354.199219 0)"/>
      </g>
     </g>
    </g>
    <g id="xtick_10">
     <g id="line2d_10">
      <g>
       <use xlink:href="#m62fdbec4a5" x="541.827223" y="246.04" style="stroke: #000000; stroke-width: 0.8"/>
      </g>
     </g>
     <g id="text_10">
      <!-- 2025-05 -->
      <g transform="translate(520.935816 260.638438) scale(0.1 -0.1)">
       <use xlink:href="#DejaVuSans-32"/>
       <use xlink:href="#DejaVuSans-30" transform="translate(63.623047 0)"/>
       <use xlink:href="#DejaVuSans-32" transform="translate(127.246094 0)"/>
       <use xlink:href="#DejaVuSans-35" transform="translate(190.869141 0)"/>
       <use xlink:href="#DejaVuSans-2d" transform="translate(254.492188 0)"/>
       <use xlink:href="#DejaVuSans-30" transform="translate(290.576172 0)"/>
       <use xlink:href="#DejaVuSans-35" transform="translate(354.199219 0)"/>
      </g>
     </g>
    </g>
    <g id="text_11">
     <!-- Date -->
     <g transform="translate(298.867878 274.316562) scale(0.1 -0.1)">
      <defs>
       <path id="DejaVuSans-44" d="M 1259 4147 
L 1259 519 
L 2022 519 
Q 2988 519 3436 956 
Q 3884 1394 3884 2338 
Q 3884 3275 3436 3711 
Q 2988 4147 2022 4147 
L 1259 4147 
z
M 628 4666 
L 1925 4666 
Q 3281 4666 3915 4102 
Q 4550 3538 4550 2338 
Q 4550 1131 3912 565 
Q 3275 0 1925 0 
L 628 0 
L 628 4666 
z
" transform="scale(0.015625)"/>
       <path id="DejaVuSans-61" d="M 2194 1759 
Q 1497 1759 1228 1600 
Q 959 1441 959 1056 
Q 959 750 1161 570 
Q 1363 391 1709 391 
Q 2188 391 2477 730 
Q 2766 1069 2766 1631 
L 2766 1759 
L 2194 1759 
z
M 3341 1997 
L 3341 0 
L 2766 0 
L 2766 531 
Q 2569 213 2275 61 
Q 1981 -91 1556 -91 
Q 1019 -91 701 211 
Q 384 513 384 1019 
Q 384 1609 779 1909 
Q 1175 2209 1959 2209 
L 2766 2209 
L 2766 2266 
Q 2766 2663 2505 2880 
Q 2244 3097 1772 3097 
Q 1472 3097 1187 3025 
Q 903 2953 641 2809 
L 641 3341 
Q 956 3463 1253 3523 
Q 1550 3584 1831 3584 
Q 2591 3584 2966 3190 
Q 3341 2797 3341 1997 
z
" transform="scale(0.015625)"/>
       <path id="DejaVuSans-74" d="M 1172 4494 
L 1172 3500 
L 2356 3500 
L 2356 3053 
L 1172 3053 
L 1172 1153 
Q 1172 725 1289 603 
Q 1406 481 1766 481 
L 2356 481 
L 2356 0 
L 1766 0 
Q 1100 0 847 248 
Q 594 497 594 1153 
L 594 3053 
L 172 3053 
L 172 3500 
L 594 3500 
L 594 4494 
L 1172 4494 
z
" transform="scale(0.015625)"/>
       <path id="DejaVuSans-65" d="M 3597 1894 
L 3597 1613 
L 953 1613 
Q 991 1019 1311 708 
Q 1631 397 2203 397 
Q 2534 397 2845 478 
Q 3156 559 3463 722 
L 3463 178 
Q 3153 47 2828 -22 
Q 2503 -91 2169 -91 
Q 1331 -91 842 396 
Q 353 884 353 1716 
Q 353 2575 817 3079 
Q 1281 3584 2069 3584 
Q 2775 3584 3186 3129 
Q 3597 2675 3597 1894 
z
M 3022 2063 
Q 3016 2534 2758 2815 
Q 2500 3097 2075 3097 
Q 1594 3097 1305 2825 
Q 1016 2553 972 2059 
L 3022 2063 
z
" transform="scale(0.015625)"/>
      </defs>
      <use xlink:href="#DejaVuSans-44"/>
      <use xlink:href="#DejaVuSans-61" transform="translate(77.001953 0)"/>
      <use xlink:href="#DejaVuSans-74" transform="translate(138.28125 0)"/>
      <use xlink:href="#DejaVuSans-65" transform="translate(177.490234 0)"/>
     </g>
    </g>
   </g>
   <g id="matplotlib.axis_2">
    <g id="ytick_1">
     <g id="line2d_11">
      <defs>
       <path id="ma8c088d2de" d="M 0 0 
L -3.5 0 
" style="stroke: #000000; stroke-width: 0.8"/>
      </defs>
      <g>
       <use xlink:href="#ma8c088d2de" x="57.17" y="231.677756" style="stroke: #000000; stroke-width: 0.8"/>
      </g>
     </g>
     <g id="text_12">
      <!-- 4500 -->
      <g transform="translate(24.72 235.476974) scale(0.1 -0.1)">
       <use xlink:href="#DejaVuSans-34"/>
       <use xlink:href="#DejaVuSans-35" transform="translate(63.623047 0)"/>
       <use xlink:href="#DejaVuSans-30" transform="translate(127.246094 0)"/>
       <use xlink:href="#DejaVuSans-30" transform="translate(190.869141 0)"/>
      </g>
     </g>
    </g>
    <g id="ytick_2">
     <g id="line2d_12">
      <g>
       <use xlink:href="#ma8c088d2de" x="57.17" y="186.812071" style="stroke: #000000; stroke-width: 0.8"/>
      </g>
     </g>
     <g id="text_13">
      <!-- 5000 -->
      <g transform="translate(24.72 190.61129) scale(0.1 -0.1)">
       <use xlink:href="#DejaVuSans-35"/>
       <use xlink:href="#DejaVuSans-30" transform="translate(63.623047 0)"/>
       <use xlink:href="#DejaVuSans-30" transform="translate(127.246094 0)"/>
       <use xlink:href="#DejaVuSans-30" transform="translate(190.869141 0)"/>
      </g>
     </g>
    </g>
    <g id="ytick_3">
     <g id="line2d_13">
      <g>
       <use xlink:href="#ma8c088d2de" x="57.17" y="141.946387" style="stroke: #000000; stroke-width: 0.8"/>
      </g>
     </g>
     <g id="text_14">
      <!-- 5500 -->
      <g transform="translate(24.72 145.745606) scale(0.1 -0.1)">
       <use xlink:href="#DejaVuSans-35"/>
       <use xlink:href="#DejaVuSans-35" transform="translate(63.623047 0)"/>
       <use xlink:href="#DejaVuSans-30" transform="translate(127.246094 0)"/>
       <use xlink:href="#DejaVuSans-30" transform="translate(190.869141 0)"/>
      </g>
     </g>
    </g>
    <g id="ytick_4">
     <g id="line2d_14">
      <g>
       <use xlink:href="#ma8c088d2de" x="57.17" y="97.080703" style="stroke: #000000; stroke-width: 0.8"/>
      </g>
     </g>
     <g id="text_15">
      <!-- 6000 -->
      <g transform="translate(24.72 100.879922) scale(0.1 -0.1)">
       <defs>
        <path id="DejaVuSans-36" d="M 2113 2584 
Q 1688 2584 1439 2293 
Q 1191 2003 1191 1497 
Q 1191 994 1439 701 
Q 1688 409 2113 409 
Q 2538 409 2786 701 
Q 3034 994 3034 1497 
Q 3034 2003 2786 2293 
Q 2538 2584 2113 2584 
z
M 3366 4563 
L 3366 3988 
Q 3128 4100 2886 4159 
Q 2644 4219 2406 4219 
Q 1781 4219 1451 3797 
Q 1122 3375 1075 2522 
Q 1259 2794 1537 2939 
Q 1816 3084 2150 3084 
Q 2853 3084 3261 2657 
Q 3669 2231 3669 1497 
Q 3669 778 3244 343 
Q 2819 -91 2113 -91 
Q 1303 -91 875 529 
Q 447 1150 447 2328 
Q 447 3434 972 4092 
Q 1497 4750 2381 4750 
Q 2619 4750 2861 4703 
Q 3103 4656 3366 4563 
z
" transform="scale(0.015625)"/>
       </defs>
       <use xlink:href="#DejaVuSans-36"/>
       <use xlink:href="#DejaVuSans-30" transform="translate(63.623047 0)"/>
       <use xlink:href="#DejaVuSans-30" transform="translate(127.246094 0)"/>
       <use xlink:href="#DejaVuSans-30" transform="translate(190.869141 0)"/>
      </g>
     </g>
    </g>
    <g id="ytick_5">
     <g id="line2d_15">
      <g>
       <use xlink:href="#ma8c088d2de" x="57.17" y="52.215019" style="stroke: #000000; stroke-width: 0.8"/>
      </g>
     </g>
     <g id="text_16">
      <!-- 6500 -->
      <g transform="translate(24.72 56.014237) scale(0.1 -0.1)">
       <use xlink:href="#DejaVuSans-36"/>
       <use xlink:href="#DejaVuSans-35" transform="translate(63.623047 0)"/>
       <use xlink:href="#DejaVuSans-30" transform="translate(127.246094 0)"/>
       <use xlink:href="#DejaVuSans-30" transform="translate(190.869141 0)"/>
      </g>
     </g>
    </g>
    <g id="text_17">
     <!-- Stock Price -->
     <g transform="translate(18.640313 164.085) rotate(-90) scale(0.1 -0.1)">
      <defs>
       <path id="DejaVuSans-53" d="M 3425 4513 
L 3425 3897 
Q 3066 4069 2747 4153 
Q 2428 4238 2131 4238 
Q 1616 4238 1336 4038 
Q 1056 3838 1056 3469 
Q 1056 3159 1242 3001 
Q 1428 2844 1947 2747 
L 2328 2669 
Q 3034 2534 3370 2195 
Q 3706 1856 3706 1288 
Q 3706 609 3251 259 
Q 2797 -91 1919 -91 
Q 1588 -91 1214 -16 
Q 841 59 441 206 
L 441 856 
Q 825 641 1194 531 
Q 1563 422 1919 422 
Q 2459 422 2753 634 
Q 3047 847 3047 1241 
Q 3047 1584 2836 1778 
Q 2625 1972 2144 2069 
L 1759 2144 
Q 1053 2284 737 2584 
Q 422 2884 422 3419 
Q 422 4038 858 4394 
Q 1294 4750 2059 4750 
Q 2388 4750 2728 4690 
Q 3069 4631 3425 4513 
z
" transform="scale(0.015625)"/>
       <path id="DejaVuSans-6f" d="M 1959 3097 
Q 1497 3097 1228 2736 
Q 959 2375 959 1747 
Q 959 1119 1226 758 
Q 1494 397 1959 397 
Q 2419 397 2687 759 
Q 2956 1122 2956 1747 
Q 2956 2369 2687 2733 
Q 2419 3097 1959 3097 
z
M 1959 3584 
Q 2709 3584 3137 3096 
Q 3566 2609 3566 1747 
Q 3566 888 3137 398 
Q 2709 -91 1959 -91 
Q 1206 -91 779 398 
Q 353 888 353 1747 
Q 353 2609 779 3096 
Q 1206 3584 1959 3584 
z
" transform="scale(0.015625)"/>
       <path id="DejaVuSans-63" d="M 3122 3366 
L 3122 2828 
Q 2878 2963 2633 3030 
Q 2388 3097 2138 3097 
Q 1578 3097 1268 2742 
Q 959 2388 959 1747 
Q 959 1106 1268 751 
Q 1578 397 2138 397 
Q 2388 397 2633 464 
Q 2878 531 3122 666 
L 3122 134 
Q 2881 22 2623 -34 
Q 2366 -91 2075 -91 
Q 1284 -91 818 406 
Q 353 903 353 1747 
Q 353 2603 823 3093 
Q 1294 3584 2113 3584 
Q 2378 3584 2631 3529 
Q 2884 3475 3122 3366 
z
" transform="scale(0.015625)"/>
       <path id="DejaVuSans-6b" d="M 581 4863 
L 1159 4863 
L 1159 1991 
L 2875 3500 
L 3609 3500 
L 1753 1863 
L 3688 0 
L 2938 0 
L 1159 1709 
L 1159 0 
L 581 0 
L 581 4863 
z
" transform="scale(0.015625)"/>
       <path id="DejaVuSans-20" transform="scale(0.015625)"/>
       <path id="DejaVuSans-50" d="M 1259 4147 
L 1259 2394 
L 2053 2394 
Q 2494 2394 2734 2622 
Q 2975 2850 2975 3272 
Q 2975 3691 2734 3919 
Q 2494 4147 2053 4147 
L 1259 4147 
z
M 628 4666 
L 2053 4666 
Q 2838 4666 3239 4311 
Q 3641 3956 3641 3272 
Q 3641 2581 3239 2228 
Q 2838 1875 2053 1875 
L 1259 1875 
L 1259 0 
L 628 0 
L 628 4666 
z
" transform="scale(0.015625)"/>
       <path id="DejaVuSans-72" d="M 2631 2963 
Q 2534 3019 2420 3045 
Q 2306 3072 2169 3072 
Q 1681 3072 1420 2755 
Q 1159 2438 1159 1844 
L 1159 0 
L 581 0 
L 581 3500 
L 1159 3500 
L 1159 2956 
Q 1341 3275 1631 3429 
Q 1922 3584 2338 3584 
Q 2397 3584 2469 3576 
Q 2541 3569 2628 3553 
L 2631 2963 
z
" transform="scale(0.015625)"/>
       <path id="DejaVuSans-69" d="M 603 3500 
L 1178 3500 
L 1178 0 
L 603 0 
L 603 3500 
z
M 603 4863 
L 1178 4863 
L 1178 4134 
L 603 4134 
L 603 4863 
z
" transform="scale(0.015625)"/>
      </defs>
      <use xlink:href="#DejaVuSans-53"/>
      <use xlink:href="#DejaVuSans-74" transform="translate(63.476562 0)"/>
      <use xlink:href="#DejaVuSans-6f" transform="translate(102.685547 0)"/>
      <use xlink:href="#DejaVuSans-63" transform="translate(163.867188 0)"/>
      <use xlink:href="#DejaVuSans-6b" transform="translate(218.847656 0)"/>
      <use xlink:href="#DejaVuSans-20" transform="translate(276.757812 0)"/>
      <use xlink:href="#DejaVuSans-50" transform="translate(308.544922 0)"/>
      <use xlink:href="#DejaVuSans-72" transform="translate(367.097656 0)"/>
      <use xlink:href="#DejaVuSans-69" transform="translate(408.210938 0)"/>
      <use xlink:href="#DejaVuSans-63" transform="translate(435.994141 0)"/>
      <use xlink:href="#DejaVuSans-65" transform="translate(490.974609 0)"/>
     </g>
    </g>
   </g>
   <g id="line2d_16">
    <path d="M 80.228969 153.63659 
L 80.647842 165.814034 
L 81.066715 147.595874 
L 81.485589 149.236163 
L 81.904462 130.469745 
L 84.417701 125.193541 
L 84.836574 136.224218 
L 86.093194 132.208739 
L 86.512067 124.889351 
L 86.93094 120.606473 
L 87.349813 120.132691 
L 87.768686 115.314117 
L 89.025306 115.82738 
L 89.444179 113.560766 
L 89.863052 115.252202 
L 90.281926 111.580395 
L 90.700799 103.407662 
L 91.957418 100.155797 
L 92.376291 119.901184 
L 92.795165 111.056363 
L 93.214038 105.016545 
L 93.632911 106.061018 
L 94.889531 102.210645 
L 95.308404 94.726152 
L 95.727277 94.959453 
L 96.14615 90.043072 
L 97.821643 80.261455 
L 98.240516 80.339521 
L 98.659389 77.534519 
L 99.078263 85.35371 
L 99.497136 75.536201 
L 100.753755 76.117661 
L 101.172628 72.35343 
L 101.591502 73.655432 
L 102.010375 73.318042 
L 102.429248 68.697774 
L 103.685868 67.434356 
L 104.104741 72.225114 
L 104.523614 80.967641 
L 104.942487 70.119119 
L 105.36136 64.034434 
L 106.61798 60.493635 
L 107.036853 52.093881 
L 107.455726 63.494252 
L 107.874599 56.335483 
L 108.293473 57.729908 
L 109.550092 50.139532 
L 109.968965 51.180416 
L 110.387839 59.523639 
L 110.806712 56.43329 
L 111.225585 60.789748 
L 112.482205 68.443834 
L 112.901078 75.412372 
L 113.738824 69.943245 
L 114.157697 79.42157 
L 115.414317 69.052213 
L 115.83319 66.956985 
L 116.252063 60.227132 
L 117.08981 71.10078 
L 118.346429 76.331221 
L 118.765302 69.447031 
L 119.184176 67.26925 
L 119.603049 65.838932 
L 120.021922 70.68981 
L 121.278541 65.924177 
L 121.697415 81.82637 
L 122.116288 85.926196 
L 122.535161 82.837643 
L 122.954034 72.80747 
L 124.629527 66.439235 
L 125.0484 68.181818 
L 125.467273 57.656329 
L 125.886147 59.317256 
L 127.142766 57.346756 
L 127.980513 52.798272 
L 128.399386 55.01374 
L 128.818259 61.931131 
L 130.074878 54.66648 
L 130.493752 55.229993 
L 130.912625 71.54495 
L 131.331498 68.12439 
L 131.750371 70.307554 
L 133.006991 69.228086 
L 133.425864 71.423813 
L 133.844737 83.105042 
L 134.26361 85.705457 
L 134.682484 83.672144 
L 135.939103 80.691268 
L 136.357976 70.917728 
L 136.776849 70.021311 
L 137.195723 72.621726 
L 137.614596 68.638551 
L 139.290089 70.123605 
L 139.708962 74.65145 
L 140.546708 101.16348 
L 141.803328 104.873872 
L 142.222201 100.823398 
L 142.641074 99.002749 
L 143.059947 100.14144 
L 143.47882 106.987046 
L 144.73544 114.459874 
L 145.154313 104.254726 
L 145.573186 117.761989 
L 145.99206 117.550223 
L 146.410933 122.73849 
L 150.599665 129.768943 
L 151.018538 125.390052 
L 151.437411 113.19197 
L 151.856284 112.304527 
L 152.275157 99.463968 
L 153.531777 95.680893 
L 153.95065 93.879985 
L 154.369523 99.528575 
L 154.788397 101.669565 
L 155.20727 100.949919 
L 156.463889 106.332007 
L 156.882763 108.765522 
L 157.301636 99.629074 
L 157.720509 100.400763 
L 158.139382 116.660087 
L 159.396002 114.388986 
L 159.814875 102.361394 
L 160.233748 97.278112 
L 160.652621 97.375022 
L 161.071494 85.105154 
L 162.328114 84.39179 
L 162.746987 85.033369 
L 163.16586 86.238462 
L 163.584734 89.031799 
L 164.003607 84.642141 
L 165.260226 85.459593 
L 165.679099 75.870002 
L 166.097973 78.782682 
L 166.516846 77.590152 
L 166.935719 79.883686 
L 168.192339 80.057765 
L 168.611212 85.828389 
L 169.030085 86.707757 
L 169.448958 86.306657 
L 169.867831 89.196905 
L 171.124451 92.120353 
L 171.543324 82.38091 
L 171.962197 83.06915 
L 172.38107 80.381695 
L 172.799944 82.004936 
L 174.056563 77.777691 
L 174.475436 78.124951 
L 174.89431 78.774606 
L 175.313183 80.365544 
L 175.732056 79.825361 
L 176.988676 83.18939 
L 177.826422 88.431496 
L 178.245295 87.938871 
L 178.664168 90.542875 
L 179.920788 102.780439 
L 180.339661 108.025238 
L 180.758534 110.913691 
L 181.177407 116.905951 
L 181.596281 118.315631 
L 182.8529 111.145198 
L 183.271773 107.340587 
L 183.690647 109.454659 
L 184.10952 109.876396 
L 184.528393 109.241995 
L 186.203886 101.037856 
L 186.622759 101.347429 
L 187.041632 96.142113 
L 187.460505 95.930347 
L 189.135998 92.746678 
L 189.554871 95.810107 
L 189.973744 95.70871 
L 190.392618 91.9041 
L 191.649237 85.758399 
L 192.06811 85.178734 
L 192.486984 83.48999 
L 193.32473 74.519545 
L 197.513462 71.657114 
L 197.932335 71.134878 
L 198.351208 64.247098 
L 198.770081 63.867534 
L 199.188955 66.240929 
L 200.445574 69.952218 
L 200.864447 68.614323 
L 201.28332 73.007571 
L 201.702194 65.265549 
L 202.121067 67.087993 
L 203.79656 61.438506 
L 204.215433 62.592451 
L 204.634306 71.105266 
L 205.053179 75.777579 
L 206.728672 62.675902 
L 207.147545 63.425158 
L 207.566418 64.748696 
L 207.985292 66.496663 
L 209.241911 69.514329 
L 210.079657 60.99613 
L 210.498531 62.782682 
L 210.917404 62.056755 
L 212.174023 61.617071 
L 212.592897 71.570075 
L 213.01177 70.024901 
L 213.430643 71.422018 
L 213.849516 78.694745 
L 215.106136 75.096518 
L 215.525009 80.085582 
L 215.943882 76.923448 
L 216.362755 84.443834 
L 216.781628 80.643711 
L 218.038248 82.692278 
L 218.457121 76.022545 
L 219.294868 69.64444 
L 219.713741 69.255005 
L 220.97036 69.120408 
L 221.389234 71.963098 
L 221.808107 73.701195 
L 222.22698 71.40138 
L 222.645853 66.588189 
L 223.902473 59.948965 
L 224.321346 60.389546 
L 225.159092 59.676182 
L 225.577965 55.403174 
L 226.834585 60.244181 
L 227.253458 59.314564 
L 227.672331 57.290225 
L 228.091205 60.770905 
L 228.510078 58.400202 
L 229.766697 55.872469 
L 230.18557 56.715047 
L 230.604444 59.665414 
L 231.023317 60.132915 
L 231.44219 74.599406 
L 232.69881 78.346588 
L 233.117683 86.478942 
L 233.536556 84.325389 
L 233.955429 82.90853 
L 234.374302 75.433907 
L 236.887542 73.536089 
L 237.306415 79.082385 
L 238.563034 74.775279 
L 238.981907 80.751388 
L 239.400781 81.484494 
L 239.819654 83.219898 
L 240.238527 88.856823 
L 241.495147 82.77842 
L 241.91402 87.135775 
L 242.332893 86.128989 
L 242.751766 85.578936 
L 243.170639 86.574954 
L 244.427259 86.732881 
L 245.265005 96.561158 
L 245.683878 98.14043 
L 246.102752 93.9419 
L 247.359371 94.823062 
L 247.778244 91.579273 
L 248.197118 92.791543 
L 248.615991 92.463127 
L 249.034864 87.639168 
L 250.291484 88.36689 
L 250.710357 98.568449 
L 251.12923 98.246313 
L 251.548103 100.11811 
L 251.966976 96.221076 
L 253.223596 94.594247 
L 253.642469 93.128933 
L 254.061342 93.125344 
L 254.899089 83.799563 
L 256.574581 85.76468 
L 256.993455 97.901745 
L 259.087821 107.217656 
L 259.506694 101.746734 
L 259.925567 102.257305 
L 260.34444 102.412541 
L 260.763313 97.194662 
L 262.438806 92.122147 
L 263.276552 98.108127 
L 263.695426 100.52549 
L 264.952045 98.49128 
L 265.370918 94.457855 
L 265.789792 100.419607 
L 266.208665 93.127139 
L 266.627538 94.342101 
L 267.884157 95.942012 
L 268.721904 97.672033 
L 269.140777 103.767484 
L 269.55965 103.754025 
L 270.81627 104.554429 
L 271.235143 95.58847 
L 271.654016 96.942517 
L 272.072889 100.564075 
L 272.491763 93.200718 
L 273.748382 89.162807 
L 274.167255 88.208065 
L 274.586128 90.130111 
L 275.005002 88.225114 
L 275.423875 85.544838 
L 276.680494 88.939376 
L 277.099368 91.149459 
L 277.518241 95.129046 
L 277.937114 94.235321 
L 278.355987 104.855926 
L 279.612607 104.546353 
L 280.450353 112.0461 
L 280.869226 108.354552 
L 281.288099 117.019013 
L 282.544719 123.032809 
L 282.963592 120.315743 
L 283.382465 130.326175 
L 283.801339 128.247099 
L 284.220212 134.659303 
L 285.476831 129.012508 
L 285.895705 117.690204 
L 286.314578 117.256801 
L 286.733451 120.464697 
L 287.152324 119.44176 
L 288.408944 112.354776 
L 288.827817 116.040044 
L 289.24669 115.890192 
L 289.665563 123.757839 
L 290.084436 123.226629 
L 291.341056 117.294488 
L 291.759929 117.635467 
L 292.178802 122.61825 
L 292.597676 123.811677 
L 293.016549 123.581965 
L 294.273168 122.233303 
L 295.110915 128.396053 
L 295.529788 131.903652 
L 295.948661 124.105996 
L 297.205281 126.991757 
L 297.624154 128.787282 
L 298.043027 126.301723 
L 298.4619 124.828334 
L 303.069505 127.761652 
L 303.488378 130.248109 
L 303.907252 130.300153 
L 304.326125 126.544895 
L 304.744998 129.978017 
L 306.001618 134.707758 
L 306.420491 133.391398 
L 307.258237 145.174024 
L 307.67711 148.795582 
L 308.93373 160.760363 
L 309.352603 155.225732 
L 310.190349 151.015536 
L 310.609223 142.661546 
L 311.865842 137.783749 
L 312.703589 141.051765 
L 313.122462 145.584994 
L 313.541335 141.01677 
L 314.797955 132.519209 
L 315.216828 131.977232 
L 315.635701 132.253605 
L 316.473447 135.387024 
L 317.730067 132.473446 
L 318.14894 130.231957 
L 318.567813 127.174809 
L 318.986686 132.133365 
L 319.40556 130.153891 
L 320.662179 127.610006 
L 321.081052 129.287086 
L 321.499926 135.40497 
L 321.918799 130.910326 
L 322.337672 135.627504 
L 323.594292 135.978354 
L 324.013165 133.735967 
L 324.432038 137.161013 
L 324.850911 137.903989 
L 325.269784 135.94605 
L 326.526404 136.645955 
L 326.945277 145.498852 
L 327.36415 143.577703 
L 327.783023 143.638721 
L 328.201897 142.126747 
L 329.458516 136.127308 
L 329.877389 136.007965 
L 330.296263 141.272504 
L 330.715136 142.903821 
L 331.134009 146.451799 
L 332.390628 152.241267 
L 332.809502 152.725816 
L 333.228375 159.059056 
L 333.647248 156.414673 
L 334.066121 158.843701 
L 335.322741 158.51349 
L 335.741614 163.636253 
L 336.160487 161.191074 
L 336.57936 152.462903 
L 336.998234 148.296676 
L 338.673726 150.070665 
L 339.092599 150.7939 
L 339.511473 154.928721 
L 339.930346 161.51949 
L 341.186965 171.764121 
L 341.605839 170.6021 
L 342.024712 172.627337 
L 342.443585 166.724807 
L 342.862458 168.311258 
L 344.537951 169.727219 
L 344.956824 181.290003 
L 345.375697 180.803659 
L 345.794571 185.158322 
L 347.05119 206.465933 
L 347.888936 192.761261 
L 348.30781 180.24553 
L 348.726683 184.381249 
L 349.983302 193.280806 
L 350.821049 214.002471 
L 351.239922 215.640068 
L 351.658795 226.004938 
L 352.915415 235.24368 
L 353.753161 176.980205 
L 354.172034 173.331728 
L 359.617386 174.335822 
L 360.036259 170.988842 
L 360.455132 169.071282 
L 361.711752 169.273178 
L 362.130625 159.192756 
L 362.549498 170.297013 
L 362.968371 155.69413 
L 363.387244 152.799396 
L 364.643864 151.922721 
L 365.062737 155.241884 
L 365.48161 155.397119 
L 365.900484 161.929563 
L 366.319357 155.441985 
L 367.575976 147.236051 
L 367.99485 148.791096 
L 368.413723 149.563683 
L 368.832596 151.553925 
L 369.251469 146.06057 
L 370.508089 139.39353 
L 370.926962 143.900736 
L 371.345835 142.537717 
L 371.764708 145.012508 
L 372.183581 152.304079 
L 373.440201 160.36375 
L 373.859074 161.290675 
L 374.277947 172.75296 
L 375.115694 161.134543 
L 376.372313 150.810052 
L 376.791186 152.603782 
L 377.21006 153.198701 
L 379.304426 160.019182 
L 379.723299 156.043185 
L 380.142172 162.093771 
L 380.561045 159.730247 
L 380.979918 161.936741 
L 382.236538 156.328531 
L 382.655411 169.624028 
L 383.074284 156.325839 
L 383.493157 155.420449 
L 383.912031 158.558355 
L 385.16865 162.801752 
L 385.587523 168.123719 
L 386.006397 163.209132 
L 386.42527 163.541138 
L 386.844143 153.421234 
L 388.100763 143.876509 
L 388.519636 147.227975 
L 391.032875 139.38007 
L 391.451748 139.516462 
L 391.870621 145.646909 
L 392.289494 136.852337 
L 392.708368 138.769897 
L 393.964987 141.4744 
L 394.38386 141.879986 
L 394.802734 146.732658 
L 395.221607 148.705851 
L 395.64048 142.674108 
L 396.8971 139.8377 
L 397.315973 143.838822 
L 397.734846 144.763055 
L 398.153719 154.301499 
L 398.572592 158.685774 
L 399.829212 153.488533 
L 400.248085 158.445294 
L 400.666958 157.352366 
L 401.085831 159.115587 
L 401.504705 159.126355 
L 402.761324 162.219395 
L 403.180197 156.12843 
L 404.017944 166.281534 
L 404.436817 168.06001 
L 406.11231 167.298191 
L 406.531183 165.909149 
L 406.950056 169.351244 
L 407.368929 167.691214 
L 408.625549 168.226013 
L 409.044422 166.093996 
L 409.882168 178.326176 
L 410.301042 177.62986 
L 411.976534 191.421572 
L 412.395407 184.978859 
L 412.814281 193.268243 
L 413.233154 191.9465 
L 414.489773 186.52852 
L 414.908647 191.3453 
L 415.32752 194.805342 
L 415.746393 201.662613 
L 416.165266 198.812744 
L 417.421886 206.228145 
L 417.840759 197.858003 
L 418.259632 200.795808 
L 418.678505 192.220181 
L 419.097378 194.048009 
L 420.353998 197.229883 
L 420.772871 195.932368 
L 421.191744 199.681344 
L 421.610618 197.787115 
L 422.029491 198.2932 
L 423.28611 198.837869 
L 423.704984 211.685607 
L 424.123857 216.597502 
L 424.54273 216.831701 
L 424.961603 210.467055 
L 426.637096 213.796088 
L 427.055969 197.004657 
L 427.474842 200.005274 
L 427.893715 205.779488 
L 429.150335 214.28333 
L 429.569208 209.174923 
L 429.988081 209.070835 
L 430.406955 208.723574 
L 430.825828 211.909038 
L 432.082447 212.460886 
L 432.501321 210.874435 
L 432.920194 216.686336 
L 433.339067 213.876847 
L 433.75794 216.389325 
L 435.01456 215.260504 
L 435.433433 222.524259 
L 435.852306 223.860359 
L 436.271179 228.68342 
L 436.690052 228.349619 
L 437.946672 227.697272 
L 438.365545 232.10039 
L 438.784418 231.676858 
L 439.203292 226.482309 
L 439.622165 219.195225 
L 440.878784 227.471149 
L 441.297657 223.020473 
L 441.716531 224.312605 
L 442.135404 222.606811 
L 442.554277 228.317316 
L 443.810897 231.032587 
L 444.22977 230.985927 
L 444.648643 230.338963 
L 445.067516 231.983739 
L 445.486389 236.078182 
L 447.580755 235.009481 
L 447.999628 229.848133 
L 448.418502 231.822223 
L 449.675121 232.154229 
L 450.093994 214.664688 
L 450.512868 210.906738 
L 450.931741 192.359264 
L 451.350614 168.715946 
L 452.607234 120.121924 
L 455.958219 83.120297 
L 456.377092 120.802087 
L 456.795965 124.818463 
L 457.214839 144.565646 
L 458.471458 132.24194 
L 458.890331 144.408616 
L 459.309205 145.437835 
L 459.728078 149.215525 
L 460.146951 129.382201 
L 461.403571 123.62055 
L 461.822444 119.168079 
L 462.241317 117.146431 
L 462.66019 121.604286 
L 463.079063 114.15748 
L 464.335683 107.514666 
L 464.754556 113.902642 
L 465.173429 111.623466 
L 465.592302 105.938086 
L 466.011176 112.171724 
L 467.267795 103.459706 
L 467.686668 87.033481 
L 468.105542 85.793394 
L 468.524415 75.584656 
L 468.943288 77.11996 
L 470.199907 67.413718 
L 470.618781 73.402389 
L 471.037654 73.764904 
L 471.8754 103.857216 
L 473.13202 112.062252 
L 473.550893 102.769672 
L 473.969766 97.763559 
L 474.388639 98.398857 
L 474.807513 119.491112 
L 476.064132 120.80119 
L 476.483005 124.854356 
L 476.901879 114.583704 
L 477.320752 118.831587 
L 477.739625 110.366329 
L 478.996244 102.139757 
L 479.415118 103.171668 
L 479.833991 107.913971 
L 480.252864 105.875274 
L 480.671737 98.947115 
L 481.928357 101.826595 
L 482.766103 92.853458 
L 483.184976 88.072571 
L 483.60385 98.131457 
L 484.860469 104.923224 
L 485.279342 110.705514 
L 485.698215 107.074983 
L 486.535962 104.512255 
L 487.792581 113.36246 
L 488.211455 106.479166 
L 488.630328 111.4117 
L 489.049201 107.214964 
L 489.468074 106.128317 
L 490.724694 106.154339 
L 491.143567 121.691325 
L 491.981313 137.834896 
L 492.400186 148.424992 
L 493.656806 148.487804 
L 494.075679 143.321072 
L 494.494552 145.392969 
L 494.913426 145.841626 
L 495.332299 153.676072 
L 496.588918 152.561608 
L 497.007792 135.461501 
L 497.426665 139.931021 
L 497.845538 137.851945 
L 498.264411 134.113736 
L 499.521031 131.6874 
L 499.939904 129.929562 
L 500.77765 134.386519 
L 501.196523 128.491168 
L 502.453143 133.929787 
L 506.223002 131.682016 
L 506.641875 119.701981 
L 507.060748 111.977007 
L 508.317368 107.081264 
L 508.736241 109.797432 
L 509.155114 102.417027 
L 509.573987 106.209972 
L 509.99286 101.76468 
L 511.24948 101.682127 
L 511.668353 111.374013 
L 512.087226 102.116427 
L 512.5061 100.889799 
L 512.924973 91.960631 
L 514.181592 93.045483 
L 514.600465 98.878022 
L 515.019339 92.438002 
L 515.438212 94.47939 
L 515.857085 109.654759 
L 517.113705 107.330717 
L 517.532578 102.677248 
L 517.951451 101.504459 
L 518.370324 92.794235 
L 518.789197 95.845102 
L 520.045817 95.858562 
L 520.46469 93.045483 
L 520.883563 93.446582 
L 521.302436 97.621783 
L 521.72131 88.109361 
L 522.977929 87.38792 
L 523.396802 85.119511 
L 523.815676 87.978353 
L 524.234549 91.742584 
L 524.653422 99.599462 
L 525.910042 99.855197 
L 526.328915 101.840952 
L 526.747788 101.701868 
L 527.166661 100.885313 
L 527.585534 104.615446 
L 528.842154 109.843195 
L 529.261027 106.695419 
L 529.6799 106.135495 
L 530.098773 110.944199 
L 531.774266 161.056477 
L 532.193139 157.47799 
L 533.030886 137.992823 
L 533.449759 134.649432 
L 534.706379 130.537941 
L 535.125252 132.74623 
L 535.544125 136.844261 
L 535.962998 136.830802 
L 536.381871 136.497898 
L 537.638491 129.170435 
L 538.057364 130.800854 
L 538.476237 129.837139 
L 538.89511 132.44563 
L 539.313984 130.534352 
L 540.570603 133.125794 
L 540.989476 132.532669 
L 541.40835 130.117998 
L 541.40835 130.117998 
" clip-path="url(#p4bcadefaf6)" style="fill: none; stroke: #0000ff; stroke-width: 1.5; stroke-linecap: square"/>
   </g>
   <g id="line2d_17">
    <path d="M 80.228969 93.37499 
L 80.647842 110.812056 
L 81.066715 121.341033 
L 81.485589 114.032834 
L 81.904462 114.850712 
L 84.417701 104.789232 
L 84.836574 106.627586 
L 86.512067 121.920081 
L 86.93094 121.798453 
L 87.349813 120.932422 
L 87.768686 122.319797 
L 89.025306 122.305119 
L 89.444179 123.298079 
L 89.863052 123.470619 
L 90.281926 124.687645 
L 90.700799 124.020706 
L 91.957418 118.242146 
L 92.376291 114.502609 
L 92.795165 121.186939 
L 93.214038 118.538374 
L 93.632911 114.733159 
L 94.889531 108.861319 
L 95.727277 95.542213 
L 96.14615 98.045446 
L 97.821643 98.820606 
L 98.240516 95.271792 
L 98.659389 94.594206 
L 99.078263 93.117933 
L 99.497136 94.492163 
L 100.753755 81.695147 
L 101.591502 66.457376 
L 102.429248 58.255938 
L 103.685868 55.091987 
L 104.104741 52.687817 
L 104.523614 53.967146 
L 104.942487 58.24367 
L 105.36136 54.270954 
L 106.61798 50.729456 
L 107.036853 47.661371 
L 107.455726 43.007301 
L 107.874599 45.659853 
L 108.293473 43.105138 
L 109.550092 43.128359 
L 109.968965 39.220926 
L 110.387839 36.841818 
L 110.806712 39.20156 
L 111.225585 37.926656 
L 112.482205 39.707964 
L 113.319951 47.536325 
L 113.738824 47.312873 
L 114.157697 45.49704 
L 115.414317 49.093392 
L 115.83319 44.153435 
L 116.252063 41.980911 
L 116.670936 37.714552 
L 118.346429 41.42434 
L 118.765302 44.739537 
L 119.184176 43.120736 
L 119.603049 42.20042 
L 120.021922 40.518044 
L 121.278541 42.271793 
L 121.697415 40.941289 
L 122.116288 46.523123 
L 122.535161 49.427212 
L 122.954034 49.570572 
L 124.210654 45.732409 
L 124.629527 42.89058 
L 125.0484 41.277475 
L 125.467273 42.610082 
L 125.886147 39.611748 
L 127.142766 40.628631 
L 127.980513 41.753778 
L 128.399386 41.386835 
L 128.818259 43.315095 
L 130.074878 47.367071 
L 130.493752 45.822097 
L 130.912625 46.05199 
L 131.331498 52.80318 
L 131.750371 52.632611 
L 133.006991 53.910188 
L 133.425864 53.530232 
L 133.844737 53.826897 
L 134.26361 57.83852 
L 134.682484 64.506025 
L 136.357976 69.947129 
L 136.776849 67.320909 
L 137.195723 66.995633 
L 137.614596 69.020241 
L 139.290089 62.265501 
L 139.708962 60.03431 
L 140.127835 61.219877 
L 140.546708 66.622292 
L 141.803328 74.157887 
L 142.222201 78.665574 
L 143.059947 79.153225 
L 143.47882 80.292437 
L 144.73544 84.800562 
L 145.154313 90.601204 
L 145.573186 87.776156 
L 145.99206 94.373427 
L 146.410933 96.732074 
L 150.599665 102.887698 
L 151.018538 108.595849 
L 151.437411 108.090978 
L 151.856284 101.632204 
L 153.531777 90.928496 
L 153.95065 87.081483 
L 154.369523 85.140823 
L 155.20727 89.166335 
L 156.463889 89.210631 
L 156.882763 91.057309 
L 157.301636 92.376422 
L 157.720509 87.716174 
L 158.139382 86.110649 
L 159.396002 92.355435 
L 159.814875 96.829823 
L 160.652621 81.918818 
L 162.746987 70.046368 
L 163.16586 69.752156 
L 163.584734 69.944982 
L 164.003607 72.500048 
L 165.679099 68.98037 
L 166.097973 63.323525 
L 166.516846 62.6618 
L 168.192339 64.521141 
L 168.611212 66.024054 
L 169.030085 69.418117 
L 169.448958 71.460425 
L 169.867831 72.476914 
L 171.124451 74.734788 
L 171.543324 77.078713 
L 171.962197 71.719323 
L 172.38107 68.086517 
L 172.799944 63.052929 
L 174.056563 62.579868 
L 174.475436 58.852029 
L 174.89431 57.792472 
L 175.313183 58.010797 
L 175.732056 59.443213 
L 176.988676 58.272631 
L 177.407549 59.90186 
L 178.664168 68.59796 
L 179.920788 70.51255 
L 180.758534 83.702141 
L 181.596281 92.71344 
L 182.8529 95.507205 
L 183.690647 91.213814 
L 184.10952 91.529056 
L 184.528393 92.757254 
L 186.203886 93.363949 
L 186.622759 88.446118 
L 187.041632 86.355701 
L 187.460505 82.627994 
L 188.717125 80.567064 
L 189.135998 78.088805 
L 189.554871 76.902186 
L 189.973744 77.752487 
L 190.392618 81.715783 
L 191.649237 82.353761 
L 192.06811 79.161419 
L 193.32473 75.187695 
L 197.513462 72.310946 
L 198.351208 64.552162 
L 198.770081 56.040037 
L 199.188955 51.581028 
L 200.445574 52.225972 
L 200.864447 55.067714 
L 201.28332 55.909252 
L 201.702194 58.54108 
L 202.121067 55.808918 
L 203.377686 57.477798 
L 203.79656 56.319177 
L 204.215433 56.375478 
L 204.634306 57.681753 
L 205.053179 60.269198 
L 206.309799 64.882301 
L 207.147545 59.602478 
L 207.566418 59.916976 
L 207.985292 60.834575 
L 209.241911 62.988435 
L 209.660784 65.4107 
L 210.498531 62.770021 
L 210.917404 63.480073 
L 212.174023 63.27993 
L 212.592897 62.92876 
L 213.01177 66.582772 
L 213.430643 67.437717 
L 213.849516 67.276175 
L 215.106136 70.618712 
L 215.525009 69.577294 
L 215.943882 71.178219 
L 216.362755 69.912428 
L 216.781628 72.313969 
L 218.457121 69.799519 
L 219.294868 65.102467 
L 219.713741 63.604944 
L 220.97036 62.856423 
L 221.389234 62.844944 
L 222.22698 65.830308 
L 222.645853 65.607513 
L 223.902473 63.067519 
L 224.321346 57.85127 
L 225.159092 56.770813 
L 225.577965 56.926704 
L 226.834585 56.313569 
L 227.253458 58.351452 
L 227.672331 58.15534 
L 228.091205 56.989052 
L 228.510078 58.156392 
L 229.766697 57.509651 
L 230.18557 55.781884 
L 230.604444 56.040519 
L 231.44219 58.927608 
L 232.69881 65.465906 
L 233.117683 69.184982 
L 233.536556 73.958883 
L 233.955429 74.227771 
L 234.374302 73.8975 
L 236.887542 69.871111 
L 237.306415 65.435323 
L 238.563034 66.595259 
L 238.981907 62.876314 
L 239.400781 62.643311 
L 239.819654 63.799435 
L 240.238527 66.037242 
L 241.495147 70.887556 
L 241.91402 70.471935 
L 242.332893 73.030462 
L 242.751766 73.96826 
L 244.427259 75.48493 
L 244.846132 76.542735 
L 245.683878 84.197679 
L 246.102752 86.418312 
L 247.778244 85.201505 
L 249.034864 79.419572 
L 250.291484 75.800961 
L 250.710357 75.057392 
L 251.12923 79.40577 
L 251.548103 81.050465 
L 251.966976 83.619201 
L 253.223596 82.002372 
L 253.642469 81.272077 
L 254.061342 81.166923 
L 254.480215 81.546661 
L 254.899089 79.82069 
L 256.155708 77.527063 
L 256.574581 78.723014 
L 256.993455 80.482985 
L 259.087821 87.556296 
L 259.506694 94.459303 
L 259.925567 94.391172 
L 260.763313 95.648594 
L 262.019933 94.039651 
L 262.857679 88.387232 
L 263.276552 88.300743 
L 264.952045 88.930571 
L 265.370918 86.92546 
L 265.789792 84.044461 
L 266.208665 85.410192 
L 266.627538 81.487117 
L 267.884157 80.404514 
L 268.303031 80.698156 
L 268.721904 80.531531 
L 269.140777 81.807793 
L 269.55965 85.523627 
L 270.81627 87.333589 
L 271.235143 88.999271 
L 271.654016 83.631031 
L 272.072889 81.629382 
L 272.491763 81.935511 
L 273.748382 76.185781 
L 274.167255 69.410011 
L 274.586128 64.928262 
L 275.423875 63.725915 
L 276.680494 61.101623 
L 277.099368 62.70487 
L 277.518241 65.326796 
L 277.937114 70.477148 
L 278.355987 73.868758 
L 279.612607 81.13288 
L 280.450353 88.431133 
L 281.288099 97.288338 
L 282.544719 105.523995 
L 282.963592 112.388883 
L 283.382465 113.799742 
L 283.801339 119.773713 
L 284.220212 120.829152 
L 285.476831 121.27334 
L 286.314578 102.079415 
L 286.733451 98.06214 
L 287.152324 99.380595 
L 288.408944 104.102971 
L 288.827817 103.84587 
L 289.665563 109.397166 
L 290.084436 114.240644 
L 291.341056 116.186956 
L 291.759929 113.803247 
L 292.178802 113.588602 
L 292.597676 116.26236 
L 293.016549 117.978823 
L 294.273168 118.590074 
L 294.692042 118.530618 
L 295.110915 117.75283 
L 295.529788 118.14352 
L 295.948661 119.898452 
L 297.205281 116.409225 
L 297.624154 117.073754 
L 298.043027 118.768617 
L 298.4619 118.757181 
L 303.069505 118.900454 
L 303.907252 121.299891 
L 304.326125 121.38546 
L 304.744998 118.549415 
L 306.001618 120.409807 
L 306.420491 123.192181 
L 306.839364 122.873608 
L 307.67711 128.594465 
L 308.93373 131.373289 
L 309.352603 138.04465 
L 310.609223 132.198134 
L 311.865842 127.590639 
L 312.284715 123.656085 
L 312.703589 124.0296 
L 313.122462 125.861601 
L 313.541335 129.330542 
L 314.797955 128.492421 
L 315.216828 123.169923 
L 315.635701 120.868979 
L 316.054574 119.391347 
L 316.473447 119.720041 
L 317.730067 121.32044 
L 318.567813 118.719589 
L 318.986686 116.335267 
L 319.40556 118.380161 
L 320.662179 118.557739 
L 321.081052 117.142367 
L 321.499926 116.750581 
L 321.918799 119.333337 
L 322.337672 118.122052 
L 324.013165 120.946925 
L 324.432038 120.227715 
L 324.850911 121.907725 
L 325.269784 122.89109 
L 326.526404 122.375748 
L 326.945277 122.861033 
L 327.36415 127.743462 
L 327.783023 127.147678 
L 328.201897 126.336196 
L 329.458516 124.466909 
L 329.877389 120.208525 
L 330.296263 119.458821 
L 331.134009 124.910002 
L 332.390628 127.762916 
L 332.809502 131.770727 
L 333.228375 133.553218 
L 333.647248 137.908651 
L 334.066121 138.144765 
L 335.322741 139.721899 
L 335.741614 140.902384 
L 336.160487 144.663696 
L 336.57936 145.354383 
L 336.998234 140.414119 
L 339.092599 135.662913 
L 339.511473 135.908141 
L 339.930346 138.2451 
L 341.186965 142.114896 
L 341.605839 149.950574 
L 342.443585 154.694857 
L 342.862458 152.593049 
L 344.119078 153.706717 
L 344.956824 157.066867 
L 345.375697 164.035858 
L 345.794571 164.699905 
L 347.05119 167.431147 
L 347.470063 179.49914 
L 347.888936 177.907065 
L 348.30781 172.987438 
L 348.726683 163.518062 
L 349.983302 162.196759 
L 350.402176 167.28104 
L 351.239922 184.813708 
L 351.658795 188.155851 
L 352.915415 194.204569 
L 353.334288 199.600851 
L 353.753161 179.575114 
L 354.172034 153.878863 
L 358.779639 142.088301 
L 359.198513 140.572551 
L 360.036259 146.653341 
L 360.455132 147.557007 
L 361.711752 147.808939 
L 362.130625 148.900831 
L 362.549498 144.970264 
L 362.968371 148.867313 
L 363.387244 141.967067 
L 364.643864 143.745571 
L 365.062737 147.043374 
L 365.48161 151.295931 
L 365.900484 153.655805 
L 366.319357 157.257196 
L 367.575976 155.048525 
L 367.99485 150.129467 
L 368.413723 147.686128 
L 368.832596 146.248848 
L 369.251469 146.758013 
L 370.508089 143.948212 
L 370.926962 138.643545 
L 371.764708 131.710088 
L 372.183581 130.817069 
L 373.440201 133.28674 
L 373.859074 137.415084 
L 374.277947 138.918216 
L 374.696821 145.367264 
L 375.115694 143.709775 
L 376.372313 140.00323 
L 376.791186 136.810931 
L 377.21006 137.987516 
L 379.304426 139.358899 
L 379.723299 143.009143 
L 380.142172 143.737728 
L 380.561045 147.745058 
L 380.979918 143.844065 
L 382.236538 142.513605 
L 382.655411 137.265459 
L 383.074284 140.293192 
L 383.493157 133.121473 
L 383.912031 129.52902 
L 385.16865 130.452447 
L 385.587523 133.757261 
L 386.006397 138.718161 
L 386.42527 138.730254 
L 386.844143 139.80186 
L 388.100763 133.622401 
L 388.519636 124.953509 
L 391.032875 124.765327 
L 391.451748 120.038745 
L 391.870621 119.665361 
L 392.289494 123.95884 
L 392.708368 121.304799 
L 393.964987 122.15085 
L 394.802734 125.617688 
L 395.221607 129.300048 
L 395.64048 131.360933 
L 396.8971 128.511612 
L 397.315973 124.921262 
L 397.734846 126.902538 
L 398.153719 128.301698 
L 398.572592 133.667135 
L 399.829212 137.635601 
L 400.248085 135.881765 
L 400.666958 137.91864 
L 401.085831 138.049119 
L 401.504705 139.038793 
L 402.761324 138.81924 
L 403.180197 139.748845 
L 403.599071 137.292536 
L 404.436817 142.497788 
L 406.531183 144.697258 
L 406.950056 145.663842 
L 407.368929 148.042731 
L 408.625549 147.902613 
L 409.044422 149.015405 
L 409.463295 149.015843 
L 409.882168 152.95123 
L 410.301042 160.860384 
L 411.557661 164.090888 
L 411.976534 170.40144 
L 412.395407 174.096155 
L 412.814281 171.447809 
L 413.233154 174.602822 
L 414.489773 171.057381 
L 414.908647 166.249304 
L 415.32752 167.513255 
L 415.746393 170.340406 
L 416.165266 175.892403 
L 417.421886 176.846456 
L 417.840759 181.921405 
L 418.259632 178.383632 
L 418.678505 178.79141 
L 419.097378 173.537787 
L 420.353998 173.354119 
L 420.772871 176.07857 
L 421.191744 176.792083 
L 421.610618 179.470792 
L 422.029491 179.373569 
L 423.28611 179.633518 
L 423.704984 180.046379 
L 424.123857 186.706961 
L 424.54273 190.634067 
L 424.961603 191.830543 
L 426.218223 188.503516 
L 426.637096 188.829012 
L 427.055969 182.202779 
L 427.474842 162.229181 
L 427.893715 150.091174 
L 429.569208 142.64623 
L 429.988081 135.883868 
L 430.406955 131.030662 
L 430.825828 127.841869 
L 432.082447 130.884761 
L 432.501321 134.069436 
L 432.920194 135.837644 
L 433.339067 140.72774 
L 433.75794 142.035111 
L 435.01456 144.707116 
L 435.433433 145.906967 
L 435.852306 150.729195 
L 436.271179 154.159142 
L 436.690052 158.740086 
L 437.946672 160.921198 
L 438.784418 162.908607 
L 439.203292 162.638318 
L 439.622165 159.104663 
L 440.878784 151.006276 
L 441.297657 155.032358 
L 441.716531 156.058178 
L 442.554277 167.097108 
L 444.22977 175.926622 
L 444.648643 176.175837 
L 445.067516 176.07432 
L 445.486389 177.027277 
L 447.999628 180.143296 
L 448.418502 176.443542 
L 450.093994 175.927981 
L 451.350614 139.69009 
L 452.607234 121.112674 
L 455.958219 83.055357 
L 456.377092 48.122339 
L 457.214839 66.989017 
L 458.471458 84.205347 
L 458.890331 84.308222 
L 459.309205 90.35177 
L 459.728078 86.227238 
L 460.146951 83.518735 
L 461.403571 69.641569 
L 461.822444 57.949063 
L 462.66019 47.350553 
L 463.079063 44.926842 
L 464.335683 56.145586 
L 464.754556 64.341065 
L 465.592302 87.49982 
L 466.011176 92.350747 
L 467.267795 98.884487 
L 467.686668 98.556407 
L 468.105542 92.499934 
L 468.524415 91.135342 
L 468.943288 87.029738 
L 470.199907 87.211611 
L 470.618781 83.190217 
L 471.037654 85.221265 
L 471.456527 85.383947 
L 471.8754 97.50145 
L 473.550893 117.907757 
L 473.969766 115.258096 
L 474.388639 105.606103 
L 474.807513 99.434793 
L 476.064132 104.976581 
L 476.483005 105.713316 
L 476.901879 107.23726 
L 477.320752 101.542297 
L 477.739625 100.795047 
L 478.996244 95.185215 
L 479.415118 92.6815 
L 479.833991 88.055953 
L 480.252864 86.993986 
L 481.928357 78.871413 
L 483.184976 62.813748 
L 483.60385 63.222665 
L 484.860469 67.590059 
L 485.279342 70.55781 
L 485.698215 75.68424 
L 486.117089 77.240957 
L 486.535962 78.2992 
L 487.792581 79.071512 
L 488.211455 84.591875 
L 488.630328 84.502976 
L 489.049201 87.617417 
L 489.468074 87.281275 
L 490.724694 86.502566 
L 491.143567 86.783765 
L 491.981313 94.281943 
L 492.400186 104.662302 
L 494.075679 115.853968 
L 494.494552 114.228113 
L 494.913426 114.832266 
L 495.332299 116.106031 
L 496.588918 121.199645 
L 497.007792 123.74954 
L 497.426665 116.187832 
L 497.845538 116.010867 
L 498.264411 114.514176 
L 499.521031 113.310163 
L 499.939904 111.782101 
L 500.358777 110.681665 
L 500.77765 112.229662 
L 501.196523 113.152826 
L 502.453143 110.696343 
L 506.223002 112.111934 
L 506.641875 110.97005 
L 507.060748 103.638059 
L 508.317368 101.333523 
L 508.736241 93.232769 
L 509.155114 89.080985 
L 509.573987 82.249089 
L 509.99286 79.640176 
L 511.24948 75.027861 
L 512.087226 79.222233 
L 512.5061 74.888795 
L 512.924973 72.783744 
L 514.181592 73.264385 
L 514.600465 76.574062 
L 515.019339 76.255971 
L 515.438212 71.842047 
L 515.857085 70.47062 
L 517.113705 76.263814 
L 517.532578 76.815434 
L 517.951451 75.659661 
L 518.370324 75.098971 
L 518.789197 70.205632 
L 520.045817 69.406988 
L 520.46469 69.59736 
L 520.883563 70.380976 
L 521.302436 71.969502 
L 521.72131 75.180378 
L 522.977929 72.092401 
L 523.396802 71.613863 
L 523.815676 71.53859 
L 524.234549 73.980615 
L 524.653422 77.330031 
L 527.166661 86.65596 
L 528.842154 89.563729 
L 529.261027 96.125335 
L 530.098773 100.792462 
L 531.774266 104.659016 
L 532.193139 135.566084 
L 532.612013 138.532214 
L 533.030886 135.752513 
L 533.449759 121.668368 
L 534.706379 113.041144 
L 535.125252 107.706947 
L 535.544125 107.184683 
L 535.962998 108.928486 
L 536.381871 109.414516 
L 537.638491 109.299723 
L 538.057364 105.568905 
L 538.476237 105.078581 
L 538.89511 104.388683 
L 539.313984 105.452622 
L 540.570603 104.366206 
L 540.989476 104.975179 
L 541.40835 104.833309 
L 541.40835 104.833309 
" clip-path="url(#p4bcadefaf6)" style="fill: none; stroke-dasharray: 5.55,2.4; stroke-dashoffset: 0; stroke: #ff0000; stroke-width: 1.5"/>
   </g>
   <g id="patch_3">
    <path d="M 57.17 246.04 
L 57.17 26.88 
" style="fill: none; stroke: #000000; stroke-width: 0.8; stroke-linejoin: miter; stroke-linecap: square"/>
   </g>
   <g id="patch_4">
    <path d="M 564.467319 246.04 
L 564.467319 26.88 
" style="fill: none; stroke: #000000; stroke-width: 0.8; stroke-linejoin: miter; stroke-linecap: square"/>
   </g>
   <g id="patch_5">
    <path d="M 57.17 246.04 
L 564.467319 246.04 
" style="fill: none; stroke: #000000; stroke-width: 0.8; stroke-linejoin: miter; stroke-linecap: square"/>
   </g>
   <g id="patch_6">
    <path d="M 57.17 26.88 
L 564.467319 26.88 
" style="fill: none; stroke: #000000; stroke-width: 0.8; stroke-linejoin: miter; stroke-linecap: square"/>
   </g>
   <g id="text_18">
    <!-- Real vs Predicted Stock Prices -->
    <g transform="translate(221.046472 20.88) scale(0.12 -0.12)">
     <defs>
      <path id="DejaVuSans-52" d="M 2841 2188 
Q 3044 2119 3236 1894 
Q 3428 1669 3622 1275 
L 4263 0 
L 3584 0 
L 2988 1197 
Q 2756 1666 2539 1819 
Q 2322 1972 1947 1972 
L 1259 1972 
L 1259 0 
L 628 0 
L 628 4666 
L 2053 4666 
Q 2853 4666 3247 4331 
Q 3641 3997 3641 3322 
Q 3641 2881 3436 2590 
Q 3231 2300 2841 2188 
z
M 1259 4147 
L 1259 2491 
L 2053 2491 
Q 2509 2491 2742 2702 
Q 2975 2913 2975 3322 
Q 2975 3731 2742 3939 
Q 2509 4147 2053 4147 
L 1259 4147 
z
" transform="scale(0.015625)"/>
      <path id="DejaVuSans-6c" d="M 603 4863 
L 1178 4863 
L 1178 0 
L 603 0 
L 603 4863 
z
" transform="scale(0.015625)"/>
      <path id="DejaVuSans-76" d="M 191 3500 
L 800 3500 
L 1894 563 
L 2988 3500 
L 3597 3500 
L 2284 0 
L 1503 0 
L 191 3500 
z
" transform="scale(0.015625)"/>
      <path id="DejaVuSans-73" d="M 2834 3397 
L 2834 2853 
Q 2591 2978 2328 3040 
Q 2066 3103 1784 3103 
Q 1356 3103 1142 2972 
Q 928 2841 928 2578 
Q 928 2378 1081 2264 
Q 1234 2150 1697 2047 
L 1894 2003 
Q 2506 1872 2764 1633 
Q 3022 1394 3022 966 
Q 3022 478 2636 193 
Q 2250 -91 1575 -91 
Q 1294 -91 989 -36 
Q 684 19 347 128 
L 347 722 
Q 666 556 975 473 
Q 1284 391 1588 391 
Q 1994 391 2212 530 
Q 2431 669 2431 922 
Q 2431 1156 2273 1281 
Q 2116 1406 1581 1522 
L 1381 1569 
Q 847 1681 609 1914 
Q 372 2147 372 2553 
Q 372 3047 722 3315 
Q 1072 3584 1716 3584 
Q 2034 3584 2315 3537 
Q 2597 3491 2834 3397 
z
" transform="scale(0.015625)"/>
      <path id="DejaVuSans-64" d="M 2906 2969 
L 2906 4863 
L 3481 4863 
L 3481 0 
L 2906 0 
L 2906 525 
Q 2725 213 2448 61 
Q 2172 -91 1784 -91 
Q 1150 -91 751 415 
Q 353 922 353 1747 
Q 353 2572 751 3078 
Q 1150 3584 1784 3584 
Q 2172 3584 2448 3432 
Q 2725 3281 2906 2969 
z
M 947 1747 
Q 947 1113 1208 752 
Q 1469 391 1925 391 
Q 2381 391 2643 752 
Q 2906 1113 2906 1747 
Q 2906 2381 2643 2742 
Q 2381 3103 1925 3103 
Q 1469 3103 1208 2742 
Q 947 2381 947 1747 
z
" transform="scale(0.015625)"/>
     </defs>
     <use xlink:href="#DejaVuSans-52"/>
     <use xlink:href="#DejaVuSans-65" transform="translate(64.982422 0)"/>
     <use xlink:href="#DejaVuSans-61" transform="translate(126.505859 0)"/>
     <use xlink:href="#DejaVuSans-6c" transform="translate(187.785156 0)"/>
     <use xlink:href="#DejaVuSans-20" transform="translate(215.568359 0)"/>
     <use xlink:href="#DejaVuSans-76" transform="translate(247.355469 0)"/>
     <use xlink:href="#DejaVuSans-73" transform="translate(306.535156 0)"/>
     <use xlink:href="#DejaVuSans-20" transform="translate(358.634766 0)"/>
     <use xlink:href="#DejaVuSans-50" transform="translate(390.421875 0)"/>
     <use xlink:href="#DejaVuSans-72" transform="translate(448.974609 0)"/>
     <use xlink:href="#DejaVuSans-65" transform="translate(487.837891 0)"/>
     <use xlink:href="#DejaVuSans-64" transform="translate(549.361328 0)"/>
     <use xlink:href="#DejaVuSans-69" transform="translate(612.837891 0)"/>
     <use xlink:href="#DejaVuSans-63" transform="translate(640.621094 0)"/>
     <use xlink:href="#DejaVuSans-74" transform="translate(695.601562 0)"/>
     <use xlink:href="#DejaVuSans-65" transform="translate(734.810547 0)"/>
     <use xlink:href="#DejaVuSans-64" transform="translate(796.333984 0)"/>
     <use xlink:href="#DejaVuSans-20" transform="translate(859.810547 0)"/>
     <use xlink:href="#DejaVuSans-53" transform="translate(891.597656 0)"/>
     <use xlink:href="#DejaVuSans-74" transform="translate(955.074219 0)"/>
     <use xlink:href="#DejaVuSans-6f" transform="translate(994.283203 0)"/>
     <use xlink:href="#DejaVuSans-63" transform="translate(1055.464844 0)"/>
     <use xlink:href="#DejaVuSans-6b" transform="translate(1110.445312 0)"/>
     <use xlink:href="#DejaVuSans-20" transform="translate(1168.355469 0)"/>
     <use xlink:href="#DejaVuSans-50" transform="translate(1200.142578 0)"/>
     <use xlink:href="#DejaVuSans-72" transform="translate(1258.695312 0)"/>
     <use xlink:href="#DejaVuSans-69" transform="translate(1299.808594 0)"/>
     <use xlink:href="#DejaVuSans-63" transform="translate(1327.591797 0)"/>
     <use xlink:href="#DejaVuSans-65" transform="translate(1382.572266 0)"/>
     <use xlink:href="#DejaVuSans-73" transform="translate(1444.095703 0)"/>
    </g>
   </g>
   <g id="legend_1">
    <g id="patch_7">
     <path d="M 64.17 241.04 
L 175.893438 241.04 
Q 177.893438 241.04 177.893438 239.04 
L 177.893438 210.68375 
Q 177.893438 208.68375 175.893438 208.68375 
L 64.17 208.68375 
Q 62.17 208.68375 62.17 210.68375 
L 62.17 239.04 
Q 62.17 241.04 64.17 241.04 
z
" style="fill: #ffffff; opacity: 0.8; stroke: #cccccc; stroke-linejoin: miter"/>
    </g>
    <g id="line2d_18">
     <path d="M 66.17 216.782187 
L 76.17 216.782187 
L 86.17 216.782187 
" style="fill: none; stroke: #0000ff; stroke-width: 1.5; stroke-linecap: square"/>
    </g>
    <g id="text_19">
     <!-- Real Prices -->
     <g transform="translate(94.17 220.282187) scale(0.1 -0.1)">
      <use xlink:href="#DejaVuSans-52"/>
      <use xlink:href="#DejaVuSans-65" transform="translate(64.982422 0)"/>
      <use xlink:href="#DejaVuSans-61" transform="translate(126.505859 0)"/>
      <use xlink:href="#DejaVuSans-6c" transform="translate(187.785156 0)"/>
      <use xlink:href="#DejaVuSans-20" transform="translate(215.568359 0)"/>
      <use xlink:href="#DejaVuSans-50" transform="translate(247.355469 0)"/>
      <use xlink:href="#DejaVuSans-72" transform="translate(305.908203 0)"/>
      <use xlink:href="#DejaVuSans-69" transform="translate(347.021484 0)"/>
      <use xlink:href="#DejaVuSans-63" transform="translate(374.804688 0)"/>
      <use xlink:href="#DejaVuSans-65" transform="translate(429.785156 0)"/>
      <use xlink:href="#DejaVuSans-73" transform="translate(491.308594 0)"/>
     </g>
    </g>
    <g id="line2d_19">
     <path d="M 66.17 231.460312 
L 76.17 231.460312 
L 86.17 231.460312 
" style="fill: none; stroke-dasharray: 5.55,2.4; stroke-dashoffset: 0; stroke: #ff0000; stroke-width: 1.5"/>
    </g>
    <g id="text_20">
     <!-- Predicted Prices -->
     <g transform="translate(94.17 234.960312) scale(0.1 -0.1)">
      <use xlink:href="#DejaVuSans-50"/>
      <use xlink:href="#DejaVuSans-72" transform="translate(58.552734 0)"/>
      <use xlink:href="#DejaVuSans-65" transform="translate(97.416016 0)"/>
      <use xlink:href="#DejaVuSans-64" transform="translate(158.939453 0)"/>
      <use xlink:href="#DejaVuSans-69" transform="translate(222.416016 0)"/>
      <use xlink:href="#DejaVuSans-63" transform="translate(250.199219 0)"/>
      <use xlink:href="#DejaVuSans-74" transform="translate(305.179688 0)"/>
      <use xlink:href="#DejaVuSans-65" transform="translate(344.388672 0)"/>
      <use xlink:href="#DejaVuSans-64" transform="translate(405.912109 0)"/>
      <use xlink:href="#DejaVuSans-20" transform="translate(469.388672 0)"/>
      <use xlink:href="#DejaVuSans-50" transform="translate(501.175781 0)"/>
      <use xlink:href="#DejaVuSans-72" transform="translate(559.728516 0)"/>
      <use xlink:href="#DejaVuSans-69" transform="translate(600.841797 0)"/>
      <use xlink:href="#DejaVuSans-63" transform="translate(628.625 0)"/>
      <use xlink:href="#DejaVuSans-65" transform="translate(683.605469 0)"/>
      <use xlink:href="#DejaVuSans-73" transform="translate(745.128906 0)"/>
     </g>
    </g>
   </g>
  </g>
 </g>
 <defs>
  <clipPath id="p4bcadefaf6">
   <rect x="57.17" y="26.88" width="507.297319" height="219.16"/>
  </clipPath>
 </defs>
</svg>
