<?xml version="1.0" encoding="utf-8" standalone="no"?>
<!DOCTYPE svg PUBLIC "-//W3C//DTD SVG 1.1//EN"
  "http://www.w3.org/Graphics/SVG/1.1/DTD/svg11.dtd">
<svg xmlns:xlink="http://www.w3.org/1999/xlink" width="576pt" height="288pt" viewBox="0 0 576 288" xmlns="http://www.w3.org/2000/svg" version="1.1">
 <metadata>
  <rdf:RDF xmlns:dc="http://purl.org/dc/elements/1.1/" xmlns:cc="http://creativecommons.org/ns#" xmlns:rdf="http://www.w3.org/1999/02/22-rdf-syntax-ns#">
   <cc:Work>
    <dc:type rdf:resource="http://purl.org/dc/dcmitype/StillImage"/>
    <dc:date>2025-05-01T21:32:47.715532</dc:date>
    <dc:format>image/svg+xml</dc:format>
    <dc:creator>
     <cc:Agent>
      <dc:title>Matplotlib v3.10.1, https://matplotlib.org/</dc:title>
     </cc:Agent>
    </dc:creator>
   </cc:Work>
  </rdf:RDF>
 </metadata>
 <defs>
  <style type="text/css">*{stroke-linejoin: round; stroke-linecap: butt}</style>
 </defs>
 <g id="figure_1">
  <g id="patch_1">
   <path d="M 0 288 
L 576 288 
L 576 0 
L 0 0 
z
" style="fill: #ffffff"/>
  </g>
  <g id="axes_1">
   <g id="patch_2">
    <path d="M 57.26 246.04 
L 564.102061 246.04 
L 564.102061 26.88 
L 57.26 26.88 
z
" style="fill: #ffffff"/>
   </g>
   <g id="matplotlib.axis_1">
    <g id="xtick_1">
     <g id="line2d_1">
      <defs>
       <path id="m8b8722330b" d="M 0 0 
L 0 3.5 
" style="stroke: #000000; stroke-width: 0.8"/>
      </defs>
      <g>
       <use xlink:href="#m8b8722330b" x="86.13075" y="246.04" style="stroke: #000000; stroke-width: 0.8"/>
      </g>
     </g>
     <g id="text_1">
      <!-- 2023-11 -->
      <g transform="translate(65.239344 260.638438) scale(0.1 -0.1)">
       <defs>
        <path id="DejaVuSans-32" d="M 1228 531 
L 3431 531 
L 3431 0 
L 469 0 
L 469 531 
Q 828 903 1448 1529 
Q 2069 2156 2228 2338 
Q 2531 2678 2651 2914 
Q 2772 3150 2772 3378 
Q 2772 3750 2511 3984 
Q 2250 4219 1831 4219 
Q 1534 4219 1204 4116 
Q 875 4013 500 3803 
L 500 4441 
Q 881 4594 1212 4672 
Q 1544 4750 1819 4750 
Q 2544 4750 2975 4387 
Q 3406 4025 3406 3419 
Q 3406 3131 3298 2873 
Q 3191 2616 2906 2266 
Q 2828 2175 2409 1742 
Q 1991 1309 1228 531 
z
" transform="scale(0.015625)"/>
        <path id="DejaVuSans-30" d="M 2034 4250 
Q 1547 4250 1301 3770 
Q 1056 3291 1056 2328 
Q 1056 1369 1301 889 
Q 1547 409 2034 409 
Q 2525 409 2770 889 
Q 3016 1369 3016 2328 
Q 3016 3291 2770 3770 
Q 2525 4250 2034 4250 
z
M 2034 4750 
Q 2819 4750 3233 4129 
Q 3647 3509 3647 2328 
Q 3647 1150 3233 529 
Q 2819 -91 2034 -91 
Q 1250 -91 836 529 
Q 422 1150 422 2328 
Q 422 3509 836 4129 
Q 1250 4750 2034 4750 
z
" transform="scale(0.015625)"/>
        <path id="DejaVuSans-33" d="M 2597 2516 
Q 3050 2419 3304 2112 
Q 3559 1806 3559 1356 
Q 3559 666 3084 287 
Q 2609 -91 1734 -91 
Q 1441 -91 1130 -33 
Q 819 25 488 141 
L 488 750 
Q 750 597 1062 519 
Q 1375 441 1716 441 
Q 2309 441 2620 675 
Q 2931 909 2931 1356 
Q 2931 1769 2642 2001 
Q 2353 2234 1838 2234 
L 1294 2234 
L 1294 2753 
L 1863 2753 
Q 2328 2753 2575 2939 
Q 2822 3125 2822 3475 
Q 2822 3834 2567 4026 
Q 2313 4219 1838 4219 
Q 1578 4219 1281 4162 
Q 984 4106 628 3988 
L 628 4550 
Q 988 4650 1302 4700 
Q 1616 4750 1894 4750 
Q 2613 4750 3031 4423 
Q 3450 4097 3450 3541 
Q 3450 3153 3228 2886 
Q 3006 2619 2597 2516 
z
" transform="scale(0.015625)"/>
        <path id="DejaVuSans-2d" d="M 313 2009 
L 1997 2009 
L 1997 1497 
L 313 1497 
L 313 2009 
z
" transform="scale(0.015625)"/>
        <path id="DejaVuSans-31" d="M 794 531 
L 1825 531 
L 1825 4091 
L 703 3866 
L 703 4441 
L 1819 4666 
L 2450 4666 
L 2450 531 
L 3481 531 
L 3481 0 
L 794 0 
L 794 531 
z
" transform="scale(0.015625)"/>
       </defs>
       <use xlink:href="#DejaVuSans-32"/>
       <use xlink:href="#DejaVuSans-30" transform="translate(63.623047 0)"/>
       <use xlink:href="#DejaVuSans-32" transform="translate(127.246094 0)"/>
       <use xlink:href="#DejaVuSans-33" transform="translate(190.869141 0)"/>
       <use xlink:href="#DejaVuSans-2d" transform="translate(254.492188 0)"/>
       <use xlink:href="#DejaVuSans-31" transform="translate(290.576172 0)"/>
       <use xlink:href="#DejaVuSans-31" transform="translate(354.199219 0)"/>
      </g>
     </g>
    </g>
    <g id="xtick_2">
     <g id="line2d_2">
      <g>
       <use xlink:href="#m8b8722330b" x="136.956602" y="246.04" style="stroke: #000000; stroke-width: 0.8"/>
      </g>
     </g>
     <g id="text_2">
      <!-- 2024-01 -->
      <g transform="translate(116.065196 260.638438) scale(0.1 -0.1)">
       <defs>
        <path id="DejaVuSans-34" d="M 2419 4116 
L 825 1625 
L 2419 1625 
L 2419 4116 
z
M 2253 4666 
L 3047 4666 
L 3047 1625 
L 3713 1625 
L 3713 1100 
L 3047 1100 
L 3047 0 
L 2419 0 
L 2419 1100 
L 313 1100 
L 313 1709 
L 2253 4666 
z
" transform="scale(0.015625)"/>
       </defs>
       <use xlink:href="#DejaVuSans-32"/>
       <use xlink:href="#DejaVuSans-30" transform="translate(63.623047 0)"/>
       <use xlink:href="#DejaVuSans-32" transform="translate(127.246094 0)"/>
       <use xlink:href="#DejaVuSans-34" transform="translate(190.869141 0)"/>
       <use xlink:href="#DejaVuSans-2d" transform="translate(254.492188 0)"/>
       <use xlink:href="#DejaVuSans-30" transform="translate(290.576172 0)"/>
       <use xlink:href="#DejaVuSans-31" transform="translate(354.199219 0)"/>
      </g>
     </g>
    </g>
    <g id="xtick_3">
     <g id="line2d_3">
      <g>
       <use xlink:href="#m8b8722330b" x="186.949243" y="246.04" style="stroke: #000000; stroke-width: 0.8"/>
      </g>
     </g>
     <g id="text_3">
      <!-- 2024-03 -->
      <g transform="translate(166.057837 260.638438) scale(0.1 -0.1)">
       <use xlink:href="#DejaVuSans-32"/>
       <use xlink:href="#DejaVuSans-30" transform="translate(63.623047 0)"/>
       <use xlink:href="#DejaVuSans-32" transform="translate(127.246094 0)"/>
       <use xlink:href="#DejaVuSans-34" transform="translate(190.869141 0)"/>
       <use xlink:href="#DejaVuSans-2d" transform="translate(254.492188 0)"/>
       <use xlink:href="#DejaVuSans-30" transform="translate(290.576172 0)"/>
       <use xlink:href="#DejaVuSans-33" transform="translate(354.199219 0)"/>
      </g>
     </g>
    </g>
    <g id="xtick_4">
     <g id="line2d_4">
      <g>
       <use xlink:href="#m8b8722330b" x="237.775095" y="246.04" style="stroke: #000000; stroke-width: 0.8"/>
      </g>
     </g>
     <g id="text_4">
      <!-- 2024-05 -->
      <g transform="translate(216.883689 260.638438) scale(0.1 -0.1)">
       <defs>
        <path id="DejaVuSans-35" d="M 691 4666 
L 3169 4666 
L 3169 4134 
L 1269 4134 
L 1269 2991 
Q 1406 3038 1543 3061 
Q 1681 3084 1819 3084 
Q 2600 3084 3056 2656 
Q 3513 2228 3513 1497 
Q 3513 744 3044 326 
Q 2575 -91 1722 -91 
Q 1428 -91 1123 -41 
Q 819 9 494 109 
L 494 744 
Q 775 591 1075 516 
Q 1375 441 1709 441 
Q 2250 441 2565 725 
Q 2881 1009 2881 1497 
Q 2881 1984 2565 2268 
Q 2250 2553 1709 2553 
Q 1456 2553 1204 2497 
Q 953 2441 691 2322 
L 691 4666 
z
" transform="scale(0.015625)"/>
       </defs>
       <use xlink:href="#DejaVuSans-32"/>
       <use xlink:href="#DejaVuSans-30" transform="translate(63.623047 0)"/>
       <use xlink:href="#DejaVuSans-32" transform="translate(127.246094 0)"/>
       <use xlink:href="#DejaVuSans-34" transform="translate(190.869141 0)"/>
       <use xlink:href="#DejaVuSans-2d" transform="translate(254.492188 0)"/>
       <use xlink:href="#DejaVuSans-30" transform="translate(290.576172 0)"/>
       <use xlink:href="#DejaVuSans-35" transform="translate(354.199219 0)"/>
      </g>
     </g>
    </g>
    <g id="xtick_5">
     <g id="line2d_5">
      <g>
       <use xlink:href="#m8b8722330b" x="288.600947" y="246.04" style="stroke: #000000; stroke-width: 0.8"/>
      </g>
     </g>
     <g id="text_5">
      <!-- 2024-07 -->
      <g transform="translate(267.709541 260.638438) scale(0.1 -0.1)">
       <defs>
        <path id="DejaVuSans-37" d="M 525 4666 
L 3525 4666 
L 3525 4397 
L 1831 0 
L 1172 0 
L 2766 4134 
L 525 4134 
L 525 4666 
z
" transform="scale(0.015625)"/>
       </defs>
       <use xlink:href="#DejaVuSans-32"/>
       <use xlink:href="#DejaVuSans-30" transform="translate(63.623047 0)"/>
       <use xlink:href="#DejaVuSans-32" transform="translate(127.246094 0)"/>
       <use xlink:href="#DejaVuSans-34" transform="translate(190.869141 0)"/>
       <use xlink:href="#DejaVuSans-2d" transform="translate(254.492188 0)"/>
       <use xlink:href="#DejaVuSans-30" transform="translate(290.576172 0)"/>
       <use xlink:href="#DejaVuSans-37" transform="translate(354.199219 0)"/>
      </g>
     </g>
    </g>
    <g id="xtick_6">
     <g id="line2d_6">
      <g>
       <use xlink:href="#m8b8722330b" x="340.26001" y="246.04" style="stroke: #000000; stroke-width: 0.8"/>
      </g>
     </g>
     <g id="text_6">
      <!-- 2024-09 -->
      <g transform="translate(319.368603 260.638438) scale(0.1 -0.1)">
       <defs>
        <path id="DejaVuSans-39" d="M 703 97 
L 703 672 
Q 941 559 1184 500 
Q 1428 441 1663 441 
Q 2288 441 2617 861 
Q 2947 1281 2994 2138 
Q 2813 1869 2534 1725 
Q 2256 1581 1919 1581 
Q 1219 1581 811 2004 
Q 403 2428 403 3163 
Q 403 3881 828 4315 
Q 1253 4750 1959 4750 
Q 2769 4750 3195 4129 
Q 3622 3509 3622 2328 
Q 3622 1225 3098 567 
Q 2575 -91 1691 -91 
Q 1453 -91 1209 -44 
Q 966 3 703 97 
z
M 1959 2075 
Q 2384 2075 2632 2365 
Q 2881 2656 2881 3163 
Q 2881 3666 2632 3958 
Q 2384 4250 1959 4250 
Q 1534 4250 1286 3958 
Q 1038 3666 1038 3163 
Q 1038 2656 1286 2365 
Q 1534 2075 1959 2075 
z
" transform="scale(0.015625)"/>
       </defs>
       <use xlink:href="#DejaVuSans-32"/>
       <use xlink:href="#DejaVuSans-30" transform="translate(63.623047 0)"/>
       <use xlink:href="#DejaVuSans-32" transform="translate(127.246094 0)"/>
       <use xlink:href="#DejaVuSans-34" transform="translate(190.869141 0)"/>
       <use xlink:href="#DejaVuSans-2d" transform="translate(254.492188 0)"/>
       <use xlink:href="#DejaVuSans-30" transform="translate(290.576172 0)"/>
       <use xlink:href="#DejaVuSans-39" transform="translate(354.199219 0)"/>
      </g>
     </g>
    </g>
    <g id="xtick_7">
     <g id="line2d_7">
      <g>
       <use xlink:href="#m8b8722330b" x="391.085862" y="246.04" style="stroke: #000000; stroke-width: 0.8"/>
      </g>
     </g>
     <g id="text_7">
      <!-- 2024-11 -->
      <g transform="translate(370.194455 260.638438) scale(0.1 -0.1)">
       <use xlink:href="#DejaVuSans-32"/>
       <use xlink:href="#DejaVuSans-30" transform="translate(63.623047 0)"/>
       <use xlink:href="#DejaVuSans-32" transform="translate(127.246094 0)"/>
       <use xlink:href="#DejaVuSans-34" transform="translate(190.869141 0)"/>
       <use xlink:href="#DejaVuSans-2d" transform="translate(254.492188 0)"/>
       <use xlink:href="#DejaVuSans-31" transform="translate(290.576172 0)"/>
       <use xlink:href="#DejaVuSans-31" transform="translate(354.199219 0)"/>
      </g>
     </g>
    </g>
    <g id="xtick_8">
     <g id="line2d_8">
      <g>
       <use xlink:href="#m8b8722330b" x="441.911713" y="246.04" style="stroke: #000000; stroke-width: 0.8"/>
      </g>
     </g>
     <g id="text_8">
      <!-- 2025-01 -->
      <g transform="translate(421.020307 260.638438) scale(0.1 -0.1)">
       <use xlink:href="#DejaVuSans-32"/>
       <use xlink:href="#DejaVuSans-30" transform="translate(63.623047 0)"/>
       <use xlink:href="#DejaVuSans-32" transform="translate(127.246094 0)"/>
       <use xlink:href="#DejaVuSans-35" transform="translate(190.869141 0)"/>
       <use xlink:href="#DejaVuSans-2d" transform="translate(254.492188 0)"/>
       <use xlink:href="#DejaVuSans-30" transform="translate(290.576172 0)"/>
       <use xlink:href="#DejaVuSans-31" transform="translate(354.199219 0)"/>
      </g>
     </g>
    </g>
    <g id="xtick_9">
     <g id="line2d_9">
      <g>
       <use xlink:href="#m8b8722330b" x="491.071144" y="246.04" style="stroke: #000000; stroke-width: 0.8"/>
      </g>
     </g>
     <g id="text_9">
      <!-- 2025-03 -->
      <g transform="translate(470.179738 260.638438) scale(0.1 -0.1)">
       <use xlink:href="#DejaVuSans-32"/>
       <use xlink:href="#DejaVuSans-30" transform="translate(63.623047 0)"/>
       <use xlink:href="#DejaVuSans-32" transform="translate(127.246094 0)"/>
       <use xlink:href="#DejaVuSans-35" transform="translate(190.869141 0)"/>
       <use xlink:href="#DejaVuSans-2d" transform="translate(254.492188 0)"/>
       <use xlink:href="#DejaVuSans-30" transform="translate(290.576172 0)"/>
       <use xlink:href="#DejaVuSans-33" transform="translate(354.199219 0)"/>
      </g>
     </g>
    </g>
    <g id="xtick_10">
     <g id="line2d_10">
      <g>
       <use xlink:href="#m8b8722330b" x="541.896996" y="246.04" style="stroke: #000000; stroke-width: 0.8"/>
      </g>
     </g>
     <g id="text_10">
      <!-- 2025-05 -->
      <g transform="translate(521.00559 260.638438) scale(0.1 -0.1)">
       <use xlink:href="#DejaVuSans-32"/>
       <use xlink:href="#DejaVuSans-30" transform="translate(63.623047 0)"/>
       <use xlink:href="#DejaVuSans-32" transform="translate(127.246094 0)"/>
       <use xlink:href="#DejaVuSans-35" transform="translate(190.869141 0)"/>
       <use xlink:href="#DejaVuSans-2d" transform="translate(254.492188 0)"/>
       <use xlink:href="#DejaVuSans-30" transform="translate(290.576172 0)"/>
       <use xlink:href="#DejaVuSans-35" transform="translate(354.199219 0)"/>
      </g>
     </g>
    </g>
    <g id="text_11">
     <!-- Date -->
     <g transform="translate(298.730249 274.316562) scale(0.1 -0.1)">
      <defs>
       <path id="DejaVuSans-44" d="M 1259 4147 
L 1259 519 
L 2022 519 
Q 2988 519 3436 956 
Q 3884 1394 3884 2338 
Q 3884 3275 3436 3711 
Q 2988 4147 2022 4147 
L 1259 4147 
z
M 628 4666 
L 1925 4666 
Q 3281 4666 3915 4102 
Q 4550 3538 4550 2338 
Q 4550 1131 3912 565 
Q 3275 0 1925 0 
L 628 0 
L 628 4666 
z
" transform="scale(0.015625)"/>
       <path id="DejaVuSans-61" d="M 2194 1759 
Q 1497 1759 1228 1600 
Q 959 1441 959 1056 
Q 959 750 1161 570 
Q 1363 391 1709 391 
Q 2188 391 2477 730 
Q 2766 1069 2766 1631 
L 2766 1759 
L 2194 1759 
z
M 3341 1997 
L 3341 0 
L 2766 0 
L 2766 531 
Q 2569 213 2275 61 
Q 1981 -91 1556 -91 
Q 1019 -91 701 211 
Q 384 513 384 1019 
Q 384 1609 779 1909 
Q 1175 2209 1959 2209 
L 2766 2209 
L 2766 2266 
Q 2766 2663 2505 2880 
Q 2244 3097 1772 3097 
Q 1472 3097 1187 3025 
Q 903 2953 641 2809 
L 641 3341 
Q 956 3463 1253 3523 
Q 1550 3584 1831 3584 
Q 2591 3584 2966 3190 
Q 3341 2797 3341 1997 
z
" transform="scale(0.015625)"/>
       <path id="DejaVuSans-74" d="M 1172 4494 
L 1172 3500 
L 2356 3500 
L 2356 3053 
L 1172 3053 
L 1172 1153 
Q 1172 725 1289 603 
Q 1406 481 1766 481 
L 2356 481 
L 2356 0 
L 1766 0 
Q 1100 0 847 248 
Q 594 497 594 1153 
L 594 3053 
L 172 3053 
L 172 3500 
L 594 3500 
L 594 4494 
L 1172 4494 
z
" transform="scale(0.015625)"/>
       <path id="DejaVuSans-65" d="M 3597 1894 
L 3597 1613 
L 953 1613 
Q 991 1019 1311 708 
Q 1631 397 2203 397 
Q 2534 397 2845 478 
Q 3156 559 3463 722 
L 3463 178 
Q 3153 47 2828 -22 
Q 2503 -91 2169 -91 
Q 1331 -91 842 396 
Q 353 884 353 1716 
Q 353 2575 817 3079 
Q 1281 3584 2069 3584 
Q 2775 3584 3186 3129 
Q 3597 2675 3597 1894 
z
M 3022 2063 
Q 3016 2534 2758 2815 
Q 2500 3097 2075 3097 
Q 1594 3097 1305 2825 
Q 1016 2553 972 2059 
L 3022 2063 
z
" transform="scale(0.015625)"/>
      </defs>
      <use xlink:href="#DejaVuSans-44"/>
      <use xlink:href="#DejaVuSans-61" transform="translate(77.001953 0)"/>
      <use xlink:href="#DejaVuSans-74" transform="translate(138.28125 0)"/>
      <use xlink:href="#DejaVuSans-65" transform="translate(177.490234 0)"/>
     </g>
    </g>
   </g>
   <g id="matplotlib.axis_2">
    <g id="ytick_1">
     <g id="line2d_11">
      <defs>
       <path id="m6cf52749c7" d="M 0 0 
L -3.5 0 
" style="stroke: #000000; stroke-width: 0.8"/>
      </defs>
      <g>
       <use xlink:href="#m6cf52749c7" x="57.26" y="219.004557" style="stroke: #000000; stroke-width: 0.8"/>
      </g>
     </g>
     <g id="text_12">
      <!-- 1300 -->
      <g transform="translate(24.81 222.803775) scale(0.1 -0.1)">
       <use xlink:href="#DejaVuSans-31"/>
       <use xlink:href="#DejaVuSans-33" transform="translate(63.623047 0)"/>
       <use xlink:href="#DejaVuSans-30" transform="translate(127.246094 0)"/>
       <use xlink:href="#DejaVuSans-30" transform="translate(190.869141 0)"/>
      </g>
     </g>
    </g>
    <g id="ytick_2">
     <g id="line2d_12">
      <g>
       <use xlink:href="#m6cf52749c7" x="57.26" y="175.725217" style="stroke: #000000; stroke-width: 0.8"/>
      </g>
     </g>
     <g id="text_13">
      <!-- 1400 -->
      <g transform="translate(24.81 179.524436) scale(0.1 -0.1)">
       <use xlink:href="#DejaVuSans-31"/>
       <use xlink:href="#DejaVuSans-34" transform="translate(63.623047 0)"/>
       <use xlink:href="#DejaVuSans-30" transform="translate(127.246094 0)"/>
       <use xlink:href="#DejaVuSans-30" transform="translate(190.869141 0)"/>
      </g>
     </g>
    </g>
    <g id="ytick_3">
     <g id="line2d_13">
      <g>
       <use xlink:href="#m6cf52749c7" x="57.26" y="132.445878" style="stroke: #000000; stroke-width: 0.8"/>
      </g>
     </g>
     <g id="text_14">
      <!-- 1500 -->
      <g transform="translate(24.81 136.245097) scale(0.1 -0.1)">
       <use xlink:href="#DejaVuSans-31"/>
       <use xlink:href="#DejaVuSans-35" transform="translate(63.623047 0)"/>
       <use xlink:href="#DejaVuSans-30" transform="translate(127.246094 0)"/>
       <use xlink:href="#DejaVuSans-30" transform="translate(190.869141 0)"/>
      </g>
     </g>
    </g>
    <g id="ytick_4">
     <g id="line2d_14">
      <g>
       <use xlink:href="#m6cf52749c7" x="57.26" y="89.166539" style="stroke: #000000; stroke-width: 0.8"/>
      </g>
     </g>
     <g id="text_15">
      <!-- 1600 -->
      <g transform="translate(24.81 92.965758) scale(0.1 -0.1)">
       <defs>
        <path id="DejaVuSans-36" d="M 2113 2584 
Q 1688 2584 1439 2293 
Q 1191 2003 1191 1497 
Q 1191 994 1439 701 
Q 1688 409 2113 409 
Q 2538 409 2786 701 
Q 3034 994 3034 1497 
Q 3034 2003 2786 2293 
Q 2538 2584 2113 2584 
z
M 3366 4563 
L 3366 3988 
Q 3128 4100 2886 4159 
Q 2644 4219 2406 4219 
Q 1781 4219 1451 3797 
Q 1122 3375 1075 2522 
Q 1259 2794 1537 2939 
Q 1816 3084 2150 3084 
Q 2853 3084 3261 2657 
Q 3669 2231 3669 1497 
Q 3669 778 3244 343 
Q 2819 -91 2113 -91 
Q 1303 -91 875 529 
Q 447 1150 447 2328 
Q 447 3434 972 4092 
Q 1497 4750 2381 4750 
Q 2619 4750 2861 4703 
Q 3103 4656 3366 4563 
z
" transform="scale(0.015625)"/>
       </defs>
       <use xlink:href="#DejaVuSans-31"/>
       <use xlink:href="#DejaVuSans-36" transform="translate(63.623047 0)"/>
       <use xlink:href="#DejaVuSans-30" transform="translate(127.246094 0)"/>
       <use xlink:href="#DejaVuSans-30" transform="translate(190.869141 0)"/>
      </g>
     </g>
    </g>
    <g id="ytick_5">
     <g id="line2d_15">
      <g>
       <use xlink:href="#m6cf52749c7" x="57.26" y="45.8872" style="stroke: #000000; stroke-width: 0.8"/>
      </g>
     </g>
     <g id="text_16">
      <!-- 1700 -->
      <g transform="translate(24.81 49.686419) scale(0.1 -0.1)">
       <use xlink:href="#DejaVuSans-31"/>
       <use xlink:href="#DejaVuSans-37" transform="translate(63.623047 0)"/>
       <use xlink:href="#DejaVuSans-30" transform="translate(127.246094 0)"/>
       <use xlink:href="#DejaVuSans-30" transform="translate(190.869141 0)"/>
      </g>
     </g>
    </g>
    <g id="text_17">
     <!-- Stock Price -->
     <g transform="translate(18.730313 164.085) rotate(-90) scale(0.1 -0.1)">
      <defs>
       <path id="DejaVuSans-53" d="M 3425 4513 
L 3425 3897 
Q 3066 4069 2747 4153 
Q 2428 4238 2131 4238 
Q 1616 4238 1336 4038 
Q 1056 3838 1056 3469 
Q 1056 3159 1242 3001 
Q 1428 2844 1947 2747 
L 2328 2669 
Q 3034 2534 3370 2195 
Q 3706 1856 3706 1288 
Q 3706 609 3251 259 
Q 2797 -91 1919 -91 
Q 1588 -91 1214 -16 
Q 841 59 441 206 
L 441 856 
Q 825 641 1194 531 
Q 1563 422 1919 422 
Q 2459 422 2753 634 
Q 3047 847 3047 1241 
Q 3047 1584 2836 1778 
Q 2625 1972 2144 2069 
L 1759 2144 
Q 1053 2284 737 2584 
Q 422 2884 422 3419 
Q 422 4038 858 4394 
Q 1294 4750 2059 4750 
Q 2388 4750 2728 4690 
Q 3069 4631 3425 4513 
z
" transform="scale(0.015625)"/>
       <path id="DejaVuSans-6f" d="M 1959 3097 
Q 1497 3097 1228 2736 
Q 959 2375 959 1747 
Q 959 1119 1226 758 
Q 1494 397 1959 397 
Q 2419 397 2687 759 
Q 2956 1122 2956 1747 
Q 2956 2369 2687 2733 
Q 2419 3097 1959 3097 
z
M 1959 3584 
Q 2709 3584 3137 3096 
Q 3566 2609 3566 1747 
Q 3566 888 3137 398 
Q 2709 -91 1959 -91 
Q 1206 -91 779 398 
Q 353 888 353 1747 
Q 353 2609 779 3096 
Q 1206 3584 1959 3584 
z
" transform="scale(0.015625)"/>
       <path id="DejaVuSans-63" d="M 3122 3366 
L 3122 2828 
Q 2878 2963 2633 3030 
Q 2388 3097 2138 3097 
Q 1578 3097 1268 2742 
Q 959 2388 959 1747 
Q 959 1106 1268 751 
Q 1578 397 2138 397 
Q 2388 397 2633 464 
Q 2878 531 3122 666 
L 3122 134 
Q 2881 22 2623 -34 
Q 2366 -91 2075 -91 
Q 1284 -91 818 406 
Q 353 903 353 1747 
Q 353 2603 823 3093 
Q 1294 3584 2113 3584 
Q 2378 3584 2631 3529 
Q 2884 3475 3122 3366 
z
" transform="scale(0.015625)"/>
       <path id="DejaVuSans-6b" d="M 581 4863 
L 1159 4863 
L 1159 1991 
L 2875 3500 
L 3609 3500 
L 1753 1863 
L 3688 0 
L 2938 0 
L 1159 1709 
L 1159 0 
L 581 0 
L 581 4863 
z
" transform="scale(0.015625)"/>
       <path id="DejaVuSans-20" transform="scale(0.015625)"/>
       <path id="DejaVuSans-50" d="M 1259 4147 
L 1259 2394 
L 2053 2394 
Q 2494 2394 2734 2622 
Q 2975 2850 2975 3272 
Q 2975 3691 2734 3919 
Q 2494 4147 2053 4147 
L 1259 4147 
z
M 628 4666 
L 2053 4666 
Q 2838 4666 3239 4311 
Q 3641 3956 3641 3272 
Q 3641 2581 3239 2228 
Q 2838 1875 2053 1875 
L 1259 1875 
L 1259 0 
L 628 0 
L 628 4666 
z
" transform="scale(0.015625)"/>
       <path id="DejaVuSans-72" d="M 2631 2963 
Q 2534 3019 2420 3045 
Q 2306 3072 2169 3072 
Q 1681 3072 1420 2755 
Q 1159 2438 1159 1844 
L 1159 0 
L 581 0 
L 581 3500 
L 1159 3500 
L 1159 2956 
Q 1341 3275 1631 3429 
Q 1922 3584 2338 3584 
Q 2397 3584 2469 3576 
Q 2541 3569 2628 3553 
L 2631 2963 
z
" transform="scale(0.015625)"/>
       <path id="DejaVuSans-69" d="M 603 3500 
L 1178 3500 
L 1178 0 
L 603 0 
L 603 3500 
z
M 603 4863 
L 1178 4863 
L 1178 4134 
L 603 4134 
L 603 4863 
z
" transform="scale(0.015625)"/>
      </defs>
      <use xlink:href="#DejaVuSans-53"/>
      <use xlink:href="#DejaVuSans-74" transform="translate(63.476562 0)"/>
      <use xlink:href="#DejaVuSans-6f" transform="translate(102.685547 0)"/>
      <use xlink:href="#DejaVuSans-63" transform="translate(163.867188 0)"/>
      <use xlink:href="#DejaVuSans-6b" transform="translate(218.847656 0)"/>
      <use xlink:href="#DejaVuSans-20" transform="translate(276.757812 0)"/>
      <use xlink:href="#DejaVuSans-50" transform="translate(308.544922 0)"/>
      <use xlink:href="#DejaVuSans-72" transform="translate(367.097656 0)"/>
      <use xlink:href="#DejaVuSans-69" transform="translate(408.210938 0)"/>
      <use xlink:href="#DejaVuSans-63" transform="translate(435.994141 0)"/>
      <use xlink:href="#DejaVuSans-65" transform="translate(490.974609 0)"/>
     </g>
    </g>
   </g>
   <g id="line2d_16">
    <path d="M 80.298275 177.465047 
L 81.131486 175.556428 
L 81.964697 166.017662 
L 84.464329 161.456019 
L 85.29754 164.628395 
L 86.13075 164.567804 
L 86.963961 166.459111 
L 87.797172 161.200671 
L 90.296804 152.527492 
L 91.130014 157.015559 
L 91.963225 158.106198 
L 92.796436 159.599336 
L 93.629646 165.273257 
L 96.129279 167.108301 
L 96.962489 168.11671 
L 97.7957 163.061683 
L 98.628911 168.999608 
L 99.462121 170.280677 
L 101.961753 168.164317 
L 102.794964 165.87484 
L 103.628175 172.790878 
L 104.461385 170.224413 
L 105.294596 174.643234 
L 107.794228 180.901426 
L 108.627439 179.61603 
L 109.46065 185.056243 
L 110.29386 184.004555 
L 111.127071 187.778513 
L 113.626703 192.465666 
L 114.459914 204.155415 
L 115.293124 202.398274 
L 116.126335 204.047217 
L 116.959546 203.125367 
L 119.459178 198.966222 
L 120.292388 198.399263 
L 121.125599 209.245066 
L 121.95881 211.85481 
L 122.792021 213.265716 
L 125.291653 215.797557 
L 126.124863 214.992562 
L 126.958074 219.298856 
L 127.791285 211.928385 
L 128.624495 210.179899 
L 131.124127 209.34028 
L 131.957338 212.971417 
L 132.790549 211.261883 
L 133.623759 196.0189 
L 134.45697 194.395924 
L 137.789813 203.164318 
L 138.623024 203.878427 
L 139.456234 209.63458 
L 140.289445 212.586231 
L 142.789077 219.03918 
L 143.622288 218.38999 
L 144.455498 221.380592 
L 145.288709 217.165185 
L 146.12192 219.610467 
L 148.621552 220.225034 
L 149.454762 216.161104 
L 150.287973 228.915525 
L 151.121184 219.614795 
L 151.954395 219.203641 
L 154.454027 224.894875 
L 155.287237 223.986008 
L 156.120448 216.728063 
L 156.953659 206.747848 
L 157.786869 209.032997 
L 160.286501 214.875708 
L 161.119712 225.232453 
L 161.952923 227.353141 
L 162.786133 227.638785 
L 163.619344 234.849123 
L 166.118976 226.764542 
L 166.952187 208.085179 
L 167.785398 200.883497 
L 168.618608 197.356231 
L 177.783926 194.144904 
L 178.617137 194.335333 
L 179.450347 185.194737 
L 180.283558 182.398891 
L 181.116769 182.918244 
L 183.616401 189.284634 
L 184.449611 183.108673 
L 185.282822 189.327914 
L 186.116033 179.07071 
L 186.949243 175.97191 
L 189.448875 176.188306 
L 190.282086 170.968818 
L 191.948507 176.305161 
L 192.781718 177.369832 
L 196.114561 161.858517 
L 196.947772 167.181876 
L 197.780982 168.614422 
L 198.614193 168.956329 
L 201.113825 164.437966 
L 201.947036 170.436482 
L 202.780246 168.791867 
L 203.613457 169.960409 
L 204.446668 176.235914 
L 206.9463 178.135877 
L 207.779511 174.374902 
L 208.612721 180.057479 
L 210.279143 174.439821 
L 212.778775 163.728185 
L 213.611985 166.203763 
L 214.445196 168.147005 
L 218.611249 173.098162 
L 219.44446 173.686761 
L 220.277671 177.698755 
L 221.110882 178.733131 
L 221.944092 185.151457 
L 224.443724 172.098409 
L 225.276935 175.439574 
L 226.110146 168.380714 
L 226.943356 167.125613 
L 227.776567 171.730534 
L 230.276199 171.964243 
L 231.10941 176.37008 
L 231.94262 174.933205 
L 232.775831 172.985635 
L 233.609042 163.035715 
L 236.108674 155.877312 
L 236.941885 160.46925 
L 241.941149 148.679958 
L 242.774359 147.978833 
L 243.60757 154.176434 
L 244.440781 148.307756 
L 245.273991 148.628023 
L 247.773623 150.315917 
L 248.606834 152.605394 
L 249.440045 158.534664 
L 250.273256 155.383928 
L 251.106466 147.009376 
L 253.606098 145.82785 
L 254.439309 149.277213 
L 255.27252 148.666975 
L 256.938941 162.382197 
L 259.438573 157.534911 
L 260.271784 162.152817 
L 261.104994 160.456267 
L 262.771416 167.84405 
L 265.271048 164.862103 
L 266.104259 159.69455 
L 266.937469 163.221816 
L 267.77068 162.918861 
L 268.603891 168.294155 
L 272.769944 174.876942 
L 273.603155 178.958184 
L 274.436365 175.781481 
L 276.935998 177.456391 
L 277.769208 177.317897 
L 278.602419 180.28686 
L 279.43563 184.021867 
L 280.26884 186.328655 
L 282.768472 186.523412 
L 283.601683 188.618133 
L 284.434894 185.843927 
L 285.268104 190.102614 
L 286.101315 189.635197 
L 288.600947 189.185092 
L 289.434158 189.617885 
L 290.267369 188.341145 
L 291.100579 189.834282 
L 291.93379 192.396419 
L 294.433422 198.018405 
L 295.266633 192.781605 
L 296.099843 193.621224 
L 296.933054 186.995157 
L 297.766265 183.515498 
L 300.265897 185.077883 
L 301.099107 182.98749 
L 301.932318 180.330139 
L 302.765529 175.396294 
L 303.598739 172.007522 
L 306.098372 175.863711 
L 306.931582 189.752051 
L 308.598004 197.040292 
L 309.431214 195.789519 
L 311.930846 202.078007 
L 312.764057 205.4235 
L 313.597268 192.158382 
L 315.263689 203.5798 
L 317.763321 208.388135 
L 318.596532 211.486935 
L 319.429743 211.906745 
L 320.262953 210.422264 
L 321.096164 212.352522 
L 323.595796 213.30034 
L 324.429007 213.157518 
L 325.262217 218.2212 
L 326.095428 211.785563 
L 326.928639 210.331377 
L 329.428271 209.483102 
L 330.261481 212.802627 
L 331.094692 213.945202 
L 331.927903 214.131303 
L 332.761114 210.089013 
L 335.260746 210.906992 
L 336.093956 213.040664 
L 336.927167 215.620112 
L 337.760378 215.537881 
L 338.593588 205.934196 
L 341.09322 215.412371 
L 341.926431 212.23134 
L 342.759642 215.39506 
L 343.592852 214.620359 
L 344.426063 218.961277 
L 346.925695 226.09804 
L 347.758906 227.309862 
L 348.592117 225.907611 
L 350.258538 230.378367 
L 354.424591 226.920348 
L 355.257802 223.661413 
L 356.091013 223.492624 
L 358.590645 221.951879 
L 359.423855 197.235049 
L 360.257066 186.891287 
L 361.090277 161.611825 
L 361.923488 131.255696 
L 364.42312 79.186324 
L 371.088805 36.841818 
L 371.922016 91.21798 
L 372.755226 80.84825 
L 373.588437 102.518215 
L 376.088069 90.603413 
L 376.92128 108.482108 
L 377.754491 114.272884 
L 378.587701 123.218723 
L 379.420912 99.912799 
L 381.920544 96.679832 
L 382.753755 93.41657 
L 383.586965 89.538741 
L 384.420176 97.428565 
L 385.253387 91.966712 
L 387.753019 92.317275 
L 389.41944 105.114976 
L 390.252651 106.556178 
L 391.085862 104.271029 
L 393.585494 94.156647 
L 394.418704 78.498182 
L 395.251915 83.726326 
L 396.085126 62.947916 
L 396.918336 69.677853 
L 399.417968 66.245801 
L 400.251179 73.966835 
L 401.08439 69.695165 
L 402.750811 92.979449 
L 405.250443 96.640881 
L 406.083654 93.0184 
L 406.916865 91.32185 
L 407.750075 91.932089 
L 408.583286 113.519823 
L 411.082918 116.562361 
L 411.916129 118.21996 
L 412.749339 109.204873 
L 413.58255 115.757365 
L 414.415761 109.412614 
L 416.915393 104.816348 
L 417.748604 104.902907 
L 418.581814 107.729048 
L 419.415025 111.039917 
L 420.248236 99.834896 
L 422.747868 99.960406 
L 423.581078 94.031137 
L 424.414289 95.719031 
L 425.2475 88.538989 
L 426.08071 106.707655 
L 428.580342 109.27412 
L 429.413553 104.227749 
L 430.246764 101.098653 
L 431.079975 100.89524 
L 431.913185 106.270534 
L 434.412817 104.517721 
L 435.246028 95.290566 
L 436.079239 96.07825 
L 436.912449 97.761816 
L 437.74566 98.636059 
L 440.245292 95.11312 
L 441.078503 103.141438 
L 442.744924 121.846768 
L 443.578135 127.49905 
L 446.077767 129.459604 
L 446.910978 128.243454 
L 447.744188 130.991692 
L 448.577399 131.169138 
L 449.41061 137.141687 
L 451.910242 137.423002 
L 452.743452 122.275234 
L 453.576663 127.278325 
L 454.409874 127.533673 
L 455.243084 124.932585 
L 457.742717 119.418797 
L 458.575927 118.21996 
L 459.409138 127.486066 
L 460.242349 127.473082 
L 461.075559 121.993918 
L 463.575191 123.764043 
L 471.074088 127.278325 
L 472.740509 109.382318 
L 475.240141 108.650898 
L 476.073352 113.351034 
L 476.906562 106.240238 
L 477.739773 106.716311 
L 478.572984 98.705306 
L 481.072616 100.544677 
L 481.905826 104.946186 
L 482.739037 99.518957 
L 483.572248 101.613677 
L 484.405458 92.806332 
L 486.905091 94.247534 
L 487.738301 102.899073 
L 488.571512 97.956573 
L 489.404723 95.853197 
L 490.237933 107.03225 
L 492.737565 107.313566 
L 493.570776 111.057229 
L 494.403987 108.027675 
L 495.237197 99.021245 
L 496.070408 100.778386 
L 498.57004 103.790628 
L 499.403251 101.977224 
L 500.236462 104.119551 
L 501.069672 105.75551 
L 501.902883 84.561617 
L 504.402515 87.413726 
L 505.235726 84.462075 
L 506.068936 79.541214 
L 506.902147 86.877062 
L 507.735358 99.510301 
L 510.23499 94.658687 
L 511.0682 94.152319 
L 511.901411 97.264104 
L 512.734622 92.923186 
L 513.567833 95.38578 
L 516.900675 102.323458 
L 517.733886 105.283765 
L 518.567097 109.594387 
L 521.899939 153.977349 
L 522.73315 142.941118 
L 523.566361 139.993795 
L 524.399571 130.944085 
L 525.232782 127.447115 
L 527.732414 126.880155 
L 528.565625 126.568544 
L 529.398836 125.594759 
L 530.232046 125.296131 
L 531.065257 125.482233 
L 533.564889 123.274986 
L 534.3981 123.153804 
L 535.23131 121.491878 
L 536.897732 120.003068 
L 539.397364 121.920343 
L 540.230574 123.339905 
L 541.063785 123.396168 
L 541.063785 123.396168 
" clip-path="url(#pe37a876633)" style="fill: none; stroke: #0000ff; stroke-width: 1.5; stroke-linecap: square"/>
   </g>
   <g id="line2d_17">
    <path d="M 80.298275 157.836036 
L 81.131486 158.067807 
L 81.964697 158.635426 
L 84.464329 157.415236 
L 85.29754 155.504119 
L 86.963961 154.316737 
L 87.797172 154.510205 
L 90.296804 154.02849 
L 91.130014 151.554879 
L 91.963225 151.580555 
L 92.796436 152.105222 
L 96.129279 155.546014 
L 96.962489 157.49406 
L 97.7957 158.942322 
L 98.628911 158.845958 
L 99.462121 160.812495 
L 101.961753 162.615677 
L 102.794964 164.205263 
L 103.628175 165.137787 
L 104.461385 168.107959 
L 105.294596 170.427619 
L 107.794228 173.427693 
L 108.627439 176.807571 
L 109.46065 178.967681 
L 110.29386 181.82025 
L 111.127071 183.381096 
L 113.626703 185.517643 
L 114.459914 188.440742 
L 115.293124 193.046463 
L 116.959546 198.300951 
L 119.459178 199.949232 
L 120.292388 200.189456 
L 121.125599 200.82491 
L 121.95881 203.930012 
L 122.792021 206.570781 
L 125.291653 208.708438 
L 126.124863 210.790833 
L 126.958074 212.171419 
L 127.791285 214.37987 
L 128.624495 214.26063 
L 131.124127 214.215248 
L 131.957338 214.611587 
L 132.790549 216.250729 
L 133.623759 217.426118 
L 134.45697 214.658924 
L 137.789813 212.766985 
L 138.623024 213.576571 
L 139.456234 214.680955 
L 140.289445 216.977317 
L 142.789077 218.953891 
L 143.622288 221.665454 
L 144.455498 223.344694 
L 145.288709 225.318733 
L 148.621552 227.268205 
L 149.454762 228.695388 
L 150.287973 229.34965 
L 151.121184 232.43679 
L 151.954395 231.557044 
L 154.454027 231.212585 
L 155.287237 231.986668 
L 156.120448 232.521372 
L 156.953659 231.329183 
L 157.786869 228.28938 
L 160.286501 226.858235 
L 161.119712 227.212363 
L 161.952923 230.136782 
L 162.786133 232.277028 
L 163.619344 233.577733 
L 166.118976 236.078182 
L 166.952187 235.50528 
L 168.618608 226.944931 
L 177.783926 224.506242 
L 178.617137 223.139445 
L 179.450347 223.42447 
L 180.283558 221.18041 
L 181.116769 219.350231 
L 183.616401 218.234277 
L 184.449611 218.665908 
L 185.282822 217.517093 
L 186.116033 217.351098 
L 186.949243 214.822173 
L 189.448875 210.711428 
L 190.282086 207.065809 
L 191.115297 202.893146 
L 191.948507 200.718719 
L 192.781718 199.633777 
L 195.28135 199.246999 
L 196.947772 193.631146 
L 197.780982 193.748325 
L 198.614193 194.279174 
L 201.113825 195.228551 
L 201.947036 194.646456 
L 202.780246 196.205611 
L 204.446668 198.393511 
L 206.9463 200.40786 
L 207.779511 201.708565 
L 208.612721 201.577596 
L 209.445932 202.499976 
L 210.279143 202.10818 
L 212.778775 201.246608 
L 213.611985 196.754264 
L 214.445196 194.033191 
L 218.611249 192.38137 
L 219.44446 191.925595 
L 220.277671 191.866794 
L 221.110882 192.484497 
L 221.944092 192.915336 
L 224.443724 195.116813 
L 225.276935 192.983805 
L 226.110146 191.507436 
L 226.943356 188.638912 
L 227.776567 186.2791 
L 230.276199 186.590857 
L 231.10941 187.086836 
L 231.94262 188.327948 
L 232.775831 188.702045 
L 233.609042 188.321079 
L 236.108674 185.007981 
L 236.941885 179.853978 
L 241.941149 181.068884 
L 242.774359 178.26566 
L 243.60757 177.117796 
L 244.440781 177.986658 
L 245.273991 176.678874 
L 247.773623 175.260725 
L 248.606834 174.072498 
L 249.440045 173.363714 
L 250.273256 173.747111 
L 251.106466 172.266938 
L 253.606098 168.797406 
L 254.439309 165.620823 
L 255.27252 165.305738 
L 256.938941 163.482426 
L 259.438573 163.669502 
L 260.271784 162.077433 
L 261.104994 161.798114 
L 261.938205 161.18823 
L 262.771416 161.587265 
L 265.271048 160.568309 
L 266.104259 159.439623 
L 266.937469 157.899487 
L 267.77068 157.607753 
L 268.603891 157.122339 
L 271.936733 158.02961 
L 272.769944 159.72396 
L 274.436365 165.884345 
L 276.935998 167.603737 
L 279.43563 173.93276 
L 280.26884 175.954399 
L 282.768472 177.524279 
L 283.601683 178.764386 
L 284.434894 180.203984 
L 285.268104 180.972203 
L 286.101315 182.764503 
L 288.600947 183.682656 
L 291.100579 187.922838 
L 291.93379 189.158983 
L 294.433422 190.558165 
L 295.266633 192.840421 
L 296.099843 192.903237 
L 296.933054 193.671984 
L 297.766265 192.585193 
L 300.265897 191.703546 
L 303.598739 191.371766 
L 306.098372 191.693138 
L 306.931582 193.372643 
L 307.764793 197.713467 
L 309.431214 204.697385 
L 311.930846 206.689492 
L 312.764057 209.62189 
L 313.597268 210.684008 
L 314.430478 206.399502 
L 315.263689 204.337024 
L 317.763321 203.576465 
L 318.596532 202.754623 
L 319.429743 202.095712 
L 320.262953 201.273394 
L 321.096164 200.011626 
L 325.262217 200.304628 
L 326.095428 201.901768 
L 326.928639 201.442718 
L 330.261481 201.403781 
L 331.094692 202.682297 
L 332.761114 205.805943 
L 335.260746 206.612306 
L 336.093956 207.737981 
L 336.927167 209.574024 
L 337.760378 212.535109 
L 338.593588 214.694691 
L 341.09322 212.917977 
L 341.926431 214.33845 
L 342.759642 214.123585 
L 343.592852 214.606833 
L 344.426063 214.296026 
L 346.925695 214.442633 
L 348.592117 213.929906 
L 349.425327 213.238557 
L 350.258538 215.312499 
L 354.424591 218.413058 
L 355.257802 220.139318 
L 356.091013 220.009354 
L 358.590645 220.137681 
L 359.423855 219.833743 
L 360.257066 211.789185 
L 361.090277 202.48867 
L 361.923488 190.467401 
L 364.42312 175.482458 
L 371.088805 152.83424 
L 371.922016 125.705776 
L 373.588437 114.709802 
L 376.088069 115.748781 
L 376.92128 112.84523 
L 378.587701 116.153468 
L 379.420912 118.1703 
L 381.920544 114.556909 
L 382.753755 106.455082 
L 384.420176 87.740307 
L 385.253387 83.064163 
L 387.753019 82.276291 
L 388.58623 84.33132 
L 390.252651 93.046042 
L 391.085862 98.611283 
L 393.585494 102.870695 
L 394.418704 105.668425 
L 395.251915 104.419812 
L 396.085126 104.075141 
L 396.918336 100.236688 
L 399.417968 98.774954 
L 400.251179 97.979527 
L 401.08439 98.482005 
L 401.917601 98.782403 
L 402.750811 101.095037 
L 405.250443 104.566788 
L 406.083654 107.828799 
L 407.750075 112.208349 
L 408.583286 114.299568 
L 411.082918 119.170026 
L 412.749339 126.609666 
L 413.58255 127.577956 
L 414.415761 130.143177 
L 416.915393 130.345097 
L 417.748604 130.13055 
L 418.581814 130.92286 
L 419.415025 132.920778 
L 420.248236 136.103014 
L 422.747868 136.177717 
L 423.581078 132.588734 
L 424.414289 125.676402 
L 426.08071 117.650652 
L 428.580342 116.524343 
L 429.413553 116.898124 
L 430.246764 116.241749 
L 431.079975 115.084587 
L 431.913185 114.312881 
L 434.412817 114.687402 
L 435.246028 114.083541 
L 436.079239 112.436052 
L 436.912449 111.825006 
L 437.74566 111.885286 
L 440.245292 111.73514 
L 441.078503 110.851749 
L 442.744924 111.281954 
L 443.578135 114.71144 
L 446.077767 118.568172 
L 446.910978 122.519842 
L 448.577399 128.295035 
L 449.41061 131.994171 
L 451.910242 136.100848 
L 452.743452 139.930478 
L 453.576663 139.819796 
L 454.409874 141.554404 
L 455.243084 142.000934 
L 457.742717 141.638511 
L 458.575927 139.447336 
L 459.409138 136.859663 
L 460.242349 137.094603 
L 461.075559 136.350159 
L 463.575191 135.135199 
L 471.074088 132.738669 
L 471.907298 130.960476 
L 472.740509 127.995957 
L 475.240141 122.946454 
L 476.073352 119.179852 
L 476.906562 117.643784 
L 478.572984 112.474513 
L 481.072616 108.865771 
L 481.905826 106.334204 
L 482.739037 105.262576 
L 483.572248 103.782826 
L 484.405458 103.379301 
L 486.905091 100.413409 
L 487.738301 98.628664 
L 488.571512 99.666058 
L 489.404723 99.318587 
L 490.237933 98.186625 
L 492.737565 99.148365 
L 493.570776 99.757773 
L 494.403987 101.577175 
L 495.237197 101.941869 
L 496.070408 99.704572 
L 499.403251 98.11245 
L 500.236462 98.206279 
L 501.069672 98.57129 
L 501.902883 99.153965 
L 505.235726 93.164225 
L 506.068936 92.307408 
L 506.902147 91.859294 
L 507.735358 93.746689 
L 510.23499 97.078068 
L 511.0682 98.72096 
L 512.734622 101.499249 
L 513.567833 101.927657 
L 516.067465 102.673476 
L 517.733886 111.367382 
L 518.567097 115.167215 
L 521.899939 118.34776 
L 522.73315 128.180074 
L 523.566361 131.437119 
L 524.399571 132.766986 
L 525.232782 129.671658 
L 527.732414 127.451584 
L 528.565625 126.092659 
L 530.232046 125.945841 
L 531.065257 125.749151 
L 533.564889 125.51104 
L 534.3981 124.656865 
L 536.064521 123.465997 
L 536.897732 123.655661 
L 539.397364 123.501446 
L 540.230574 124.282239 
L 541.063785 125.34832 
L 541.063785 125.34832 
" clip-path="url(#pe37a876633)" style="fill: none; stroke-dasharray: 5.55,2.4; stroke-dashoffset: 0; stroke: #ff0000; stroke-width: 1.5"/>
   </g>
   <g id="patch_3">
    <path d="M 57.26 246.04 
L 57.26 26.88 
" style="fill: none; stroke: #000000; stroke-width: 0.8; stroke-linejoin: miter; stroke-linecap: square"/>
   </g>
   <g id="patch_4">
    <path d="M 564.102061 246.04 
L 564.102061 26.88 
" style="fill: none; stroke: #000000; stroke-width: 0.8; stroke-linejoin: miter; stroke-linecap: square"/>
   </g>
   <g id="patch_5">
    <path d="M 57.26 246.04 
L 564.102061 246.04 
" style="fill: none; stroke: #000000; stroke-width: 0.8; stroke-linejoin: miter; stroke-linecap: square"/>
   </g>
   <g id="patch_6">
    <path d="M 57.26 26.88 
L 564.102061 26.88 
" style="fill: none; stroke: #000000; stroke-width: 0.8; stroke-linejoin: miter; stroke-linecap: square"/>
   </g>
   <g id="text_18">
    <!-- Real vs Predicted Stock Prices -->
    <g transform="translate(220.908843 20.88) scale(0.12 -0.12)">
     <defs>
      <path id="DejaVuSans-52" d="M 2841 2188 
Q 3044 2119 3236 1894 
Q 3428 1669 3622 1275 
L 4263 0 
L 3584 0 
L 2988 1197 
Q 2756 1666 2539 1819 
Q 2322 1972 1947 1972 
L 1259 1972 
L 1259 0 
L 628 0 
L 628 4666 
L 2053 4666 
Q 2853 4666 3247 4331 
Q 3641 3997 3641 3322 
Q 3641 2881 3436 2590 
Q 3231 2300 2841 2188 
z
M 1259 4147 
L 1259 2491 
L 2053 2491 
Q 2509 2491 2742 2702 
Q 2975 2913 2975 3322 
Q 2975 3731 2742 3939 
Q 2509 4147 2053 4147 
L 1259 4147 
z
" transform="scale(0.015625)"/>
      <path id="DejaVuSans-6c" d="M 603 4863 
L 1178 4863 
L 1178 0 
L 603 0 
L 603 4863 
z
" transform="scale(0.015625)"/>
      <path id="DejaVuSans-76" d="M 191 3500 
L 800 3500 
L 1894 563 
L 2988 3500 
L 3597 3500 
L 2284 0 
L 1503 0 
L 191 3500 
z
" transform="scale(0.015625)"/>
      <path id="DejaVuSans-73" d="M 2834 3397 
L 2834 2853 
Q 2591 2978 2328 3040 
Q 2066 3103 1784 3103 
Q 1356 3103 1142 2972 
Q 928 2841 928 2578 
Q 928 2378 1081 2264 
Q 1234 2150 1697 2047 
L 1894 2003 
Q 2506 1872 2764 1633 
Q 3022 1394 3022 966 
Q 3022 478 2636 193 
Q 2250 -91 1575 -91 
Q 1294 -91 989 -36 
Q 684 19 347 128 
L 347 722 
Q 666 556 975 473 
Q 1284 391 1588 391 
Q 1994 391 2212 530 
Q 2431 669 2431 922 
Q 2431 1156 2273 1281 
Q 2116 1406 1581 1522 
L 1381 1569 
Q 847 1681 609 1914 
Q 372 2147 372 2553 
Q 372 3047 722 3315 
Q 1072 3584 1716 3584 
Q 2034 3584 2315 3537 
Q 2597 3491 2834 3397 
z
" transform="scale(0.015625)"/>
      <path id="DejaVuSans-64" d="M 2906 2969 
L 2906 4863 
L 3481 4863 
L 3481 0 
L 2906 0 
L 2906 525 
Q 2725 213 2448 61 
Q 2172 -91 1784 -91 
Q 1150 -91 751 415 
Q 353 922 353 1747 
Q 353 2572 751 3078 
Q 1150 3584 1784 3584 
Q 2172 3584 2448 3432 
Q 2725 3281 2906 2969 
z
M 947 1747 
Q 947 1113 1208 752 
Q 1469 391 1925 391 
Q 2381 391 2643 752 
Q 2906 1113 2906 1747 
Q 2906 2381 2643 2742 
Q 2381 3103 1925 3103 
Q 1469 3103 1208 2742 
Q 947 2381 947 1747 
z
" transform="scale(0.015625)"/>
     </defs>
     <use xlink:href="#DejaVuSans-52"/>
     <use xlink:href="#DejaVuSans-65" transform="translate(64.982422 0)"/>
     <use xlink:href="#DejaVuSans-61" transform="translate(126.505859 0)"/>
     <use xlink:href="#DejaVuSans-6c" transform="translate(187.785156 0)"/>
     <use xlink:href="#DejaVuSans-20" transform="translate(215.568359 0)"/>
     <use xlink:href="#DejaVuSans-76" transform="translate(247.355469 0)"/>
     <use xlink:href="#DejaVuSans-73" transform="translate(306.535156 0)"/>
     <use xlink:href="#DejaVuSans-20" transform="translate(358.634766 0)"/>
     <use xlink:href="#DejaVuSans-50" transform="translate(390.421875 0)"/>
     <use xlink:href="#DejaVuSans-72" transform="translate(448.974609 0)"/>
     <use xlink:href="#DejaVuSans-65" transform="translate(487.837891 0)"/>
     <use xlink:href="#DejaVuSans-64" transform="translate(549.361328 0)"/>
     <use xlink:href="#DejaVuSans-69" transform="translate(612.837891 0)"/>
     <use xlink:href="#DejaVuSans-63" transform="translate(640.621094 0)"/>
     <use xlink:href="#DejaVuSans-74" transform="translate(695.601562 0)"/>
     <use xlink:href="#DejaVuSans-65" transform="translate(734.810547 0)"/>
     <use xlink:href="#DejaVuSans-64" transform="translate(796.333984 0)"/>
     <use xlink:href="#DejaVuSans-20" transform="translate(859.810547 0)"/>
     <use xlink:href="#DejaVuSans-53" transform="translate(891.597656 0)"/>
     <use xlink:href="#DejaVuSans-74" transform="translate(955.074219 0)"/>
     <use xlink:href="#DejaVuSans-6f" transform="translate(994.283203 0)"/>
     <use xlink:href="#DejaVuSans-63" transform="translate(1055.464844 0)"/>
     <use xlink:href="#DejaVuSans-6b" transform="translate(1110.445312 0)"/>
     <use xlink:href="#DejaVuSans-20" transform="translate(1168.355469 0)"/>
     <use xlink:href="#DejaVuSans-50" transform="translate(1200.142578 0)"/>
     <use xlink:href="#DejaVuSans-72" transform="translate(1258.695312 0)"/>
     <use xlink:href="#DejaVuSans-69" transform="translate(1299.808594 0)"/>
     <use xlink:href="#DejaVuSans-63" transform="translate(1327.591797 0)"/>
     <use xlink:href="#DejaVuSans-65" transform="translate(1382.572266 0)"/>
     <use xlink:href="#DejaVuSans-73" transform="translate(1444.095703 0)"/>
    </g>
   </g>
   <g id="legend_1">
    <g id="patch_7">
     <path d="M 445.378623 64.23625 
L 557.102061 64.23625 
Q 559.102061 64.23625 559.102061 62.23625 
L 559.102061 33.88 
Q 559.102061 31.88 557.102061 31.88 
L 445.378623 31.88 
Q 443.378623 31.88 443.378623 33.88 
L 443.378623 62.23625 
Q 443.378623 64.23625 445.378623 64.23625 
z
" style="fill: #ffffff; opacity: 0.8; stroke: #cccccc; stroke-linejoin: miter"/>
    </g>
    <g id="line2d_18">
     <path d="M 447.378623 39.978438 
L 457.378623 39.978438 
L 467.378623 39.978438 
" style="fill: none; stroke: #0000ff; stroke-width: 1.5; stroke-linecap: square"/>
    </g>
    <g id="text_19">
     <!-- Real Prices -->
     <g transform="translate(475.378623 43.478438) scale(0.1 -0.1)">
      <use xlink:href="#DejaVuSans-52"/>
      <use xlink:href="#DejaVuSans-65" transform="translate(64.982422 0)"/>
      <use xlink:href="#DejaVuSans-61" transform="translate(126.505859 0)"/>
      <use xlink:href="#DejaVuSans-6c" transform="translate(187.785156 0)"/>
      <use xlink:href="#DejaVuSans-20" transform="translate(215.568359 0)"/>
      <use xlink:href="#DejaVuSans-50" transform="translate(247.355469 0)"/>
      <use xlink:href="#DejaVuSans-72" transform="translate(305.908203 0)"/>
      <use xlink:href="#DejaVuSans-69" transform="translate(347.021484 0)"/>
      <use xlink:href="#DejaVuSans-63" transform="translate(374.804688 0)"/>
      <use xlink:href="#DejaVuSans-65" transform="translate(429.785156 0)"/>
      <use xlink:href="#DejaVuSans-73" transform="translate(491.308594 0)"/>
     </g>
    </g>
    <g id="line2d_19">
     <path d="M 447.378623 54.656563 
L 457.378623 54.656563 
L 467.378623 54.656563 
" style="fill: none; stroke-dasharray: 5.55,2.4; stroke-dashoffset: 0; stroke: #ff0000; stroke-width: 1.5"/>
    </g>
    <g id="text_20">
     <!-- Predicted Prices -->
     <g transform="translate(475.378623 58.156563) scale(0.1 -0.1)">
      <use xlink:href="#DejaVuSans-50"/>
      <use xlink:href="#DejaVuSans-72" transform="translate(58.552734 0)"/>
      <use xlink:href="#DejaVuSans-65" transform="translate(97.416016 0)"/>
      <use xlink:href="#DejaVuSans-64" transform="translate(158.939453 0)"/>
      <use xlink:href="#DejaVuSans-69" transform="translate(222.416016 0)"/>
      <use xlink:href="#DejaVuSans-63" transform="translate(250.199219 0)"/>
      <use xlink:href="#DejaVuSans-74" transform="translate(305.179688 0)"/>
      <use xlink:href="#DejaVuSans-65" transform="translate(344.388672 0)"/>
      <use xlink:href="#DejaVuSans-64" transform="translate(405.912109 0)"/>
      <use xlink:href="#DejaVuSans-20" transform="translate(469.388672 0)"/>
      <use xlink:href="#DejaVuSans-50" transform="translate(501.175781 0)"/>
      <use xlink:href="#DejaVuSans-72" transform="translate(559.728516 0)"/>
      <use xlink:href="#DejaVuSans-69" transform="translate(600.841797 0)"/>
      <use xlink:href="#DejaVuSans-63" transform="translate(628.625 0)"/>
      <use xlink:href="#DejaVuSans-65" transform="translate(683.605469 0)"/>
      <use xlink:href="#DejaVuSans-73" transform="translate(745.128906 0)"/>
     </g>
    </g>
   </g>
  </g>
 </g>
 <defs>
  <clipPath id="pe37a876633">
   <rect x="57.26" y="26.88" width="506.842061" height="219.16"/>
  </clipPath>
 </defs>
</svg>
