<?xml version="1.0" encoding="utf-8" standalone="no"?>
<!DOCTYPE svg PUBLIC "-//W3C//DTD SVG 1.1//EN"
  "http://www.w3.org/Graphics/SVG/1.1/DTD/svg11.dtd">
<svg xmlns:xlink="http://www.w3.org/1999/xlink" width="1144.558125pt" height="725.114375pt" viewBox="0 0 1144.558125 725.114375" xmlns="http://www.w3.org/2000/svg" version="1.1">
 <metadata>
  <rdf:RDF xmlns:dc="http://purl.org/dc/elements/1.1/" xmlns:cc="http://creativecommons.org/ns#" xmlns:rdf="http://www.w3.org/1999/02/22-rdf-syntax-ns#">
   <cc:Work>
    <dc:type rdf:resource="http://purl.org/dc/dcmitype/StillImage"/>
    <dc:date>2025-05-07T00:55:37.523643</dc:date>
    <dc:format>image/svg+xml</dc:format>
    <dc:creator>
     <cc:Agent>
      <dc:title>Matplotlib v3.10.1, https://matplotlib.org/</dc:title>
     </cc:Agent>
    </dc:creator>
   </cc:Work>
  </rdf:RDF>
 </metadata>
 <defs>
  <style type="text/css">*{stroke-linejoin: round; stroke-linecap: butt}</style>
 </defs>
 <g id="figure_1">
  <g id="patch_1">
   <path d="M 0 725.114375 
L 1144.558125 725.114375 
L 1144.558125 0 
L 0 0 
z
" style="fill: #ffffff"/>
  </g>
  <g id="axes_1">
   <g id="patch_2">
    <path d="M 53.328125 155.658125 
L 1137.358125 155.658125 
L 1137.358125 22.318125 
L 53.328125 22.318125 
z
" style="fill: #ffffff"/>
   </g>
   <g id="matplotlib.axis_1">
    <g id="xtick_1">
     <g id="line2d_1">
      <path d="M 96.168867 155.658125 
L 96.168867 22.318125 
" clip-path="url(#p2fc0688674)" style="fill: none; stroke: #b0b0b0; stroke-width: 0.8; stroke-linecap: square"/>
     </g>
     <g id="line2d_2">
      <defs>
       <path id="m8d124b3455" d="M 0 0 
L 0 3.5 
" style="stroke: #000000; stroke-width: 0.8"/>
      </defs>
      <g>
       <use xlink:href="#m8d124b3455" x="96.168867" y="155.658125" style="stroke: #000000; stroke-width: 0.8"/>
      </g>
     </g>
     <g id="text_1">
      <!-- 2000 -->
      <g transform="translate(83.443867 170.256562) scale(0.1 -0.1)">
       <defs>
        <path id="DejaVuSans-32" d="M 1228 531 
L 3431 531 
L 3431 0 
L 469 0 
L 469 531 
Q 828 903 1448 1529 
Q 2069 2156 2228 2338 
Q 2531 2678 2651 2914 
Q 2772 3150 2772 3378 
Q 2772 3750 2511 3984 
Q 2250 4219 1831 4219 
Q 1534 4219 1204 4116 
Q 875 4013 500 3803 
L 500 4441 
Q 881 4594 1212 4672 
Q 1544 4750 1819 4750 
Q 2544 4750 2975 4387 
Q 3406 4025 3406 3419 
Q 3406 3131 3298 2873 
Q 3191 2616 2906 2266 
Q 2828 2175 2409 1742 
Q 1991 1309 1228 531 
z
" transform="scale(0.015625)"/>
        <path id="DejaVuSans-30" d="M 2034 4250 
Q 1547 4250 1301 3770 
Q 1056 3291 1056 2328 
Q 1056 1369 1301 889 
Q 1547 409 2034 409 
Q 2525 409 2770 889 
Q 3016 1369 3016 2328 
Q 3016 3291 2770 3770 
Q 2525 4250 2034 4250 
z
M 2034 4750 
Q 2819 4750 3233 4129 
Q 3647 3509 3647 2328 
Q 3647 1150 3233 529 
Q 2819 -91 2034 -91 
Q 1250 -91 836 529 
Q 422 1150 422 2328 
Q 422 3509 836 4129 
Q 1250 4750 2034 4750 
z
" transform="scale(0.015625)"/>
       </defs>
       <use xlink:href="#DejaVuSans-32"/>
       <use xlink:href="#DejaVuSans-30" transform="translate(63.623047 0)"/>
       <use xlink:href="#DejaVuSans-30" transform="translate(127.246094 0)"/>
       <use xlink:href="#DejaVuSans-30" transform="translate(190.869141 0)"/>
      </g>
     </g>
    </g>
    <g id="xtick_2">
     <g id="line2d_3">
      <path d="M 292.064339 155.658125 
L 292.064339 22.318125 
" clip-path="url(#p2fc0688674)" style="fill: none; stroke: #b0b0b0; stroke-width: 0.8; stroke-linecap: square"/>
     </g>
     <g id="line2d_4">
      <g>
       <use xlink:href="#m8d124b3455" x="292.064339" y="155.658125" style="stroke: #000000; stroke-width: 0.8"/>
      </g>
     </g>
     <g id="text_2">
      <!-- 2005 -->
      <g transform="translate(279.339339 170.256562) scale(0.1 -0.1)">
       <defs>
        <path id="DejaVuSans-35" d="M 691 4666 
L 3169 4666 
L 3169 4134 
L 1269 4134 
L 1269 2991 
Q 1406 3038 1543 3061 
Q 1681 3084 1819 3084 
Q 2600 3084 3056 2656 
Q 3513 2228 3513 1497 
Q 3513 744 3044 326 
Q 2575 -91 1722 -91 
Q 1428 -91 1123 -41 
Q 819 9 494 109 
L 494 744 
Q 775 591 1075 516 
Q 1375 441 1709 441 
Q 2250 441 2565 725 
Q 2881 1009 2881 1497 
Q 2881 1984 2565 2268 
Q 2250 2553 1709 2553 
Q 1456 2553 1204 2497 
Q 953 2441 691 2322 
L 691 4666 
z
" transform="scale(0.015625)"/>
       </defs>
       <use xlink:href="#DejaVuSans-32"/>
       <use xlink:href="#DejaVuSans-30" transform="translate(63.623047 0)"/>
       <use xlink:href="#DejaVuSans-30" transform="translate(127.246094 0)"/>
       <use xlink:href="#DejaVuSans-35" transform="translate(190.869141 0)"/>
      </g>
     </g>
    </g>
    <g id="xtick_3">
     <g id="line2d_5">
      <path d="M 487.852588 155.658125 
L 487.852588 22.318125 
" clip-path="url(#p2fc0688674)" style="fill: none; stroke: #b0b0b0; stroke-width: 0.8; stroke-linecap: square"/>
     </g>
     <g id="line2d_6">
      <g>
       <use xlink:href="#m8d124b3455" x="487.852588" y="155.658125" style="stroke: #000000; stroke-width: 0.8"/>
      </g>
     </g>
     <g id="text_3">
      <!-- 2010 -->
      <g transform="translate(475.127588 170.256562) scale(0.1 -0.1)">
       <defs>
        <path id="DejaVuSans-31" d="M 794 531 
L 1825 531 
L 1825 4091 
L 703 3866 
L 703 4441 
L 1819 4666 
L 2450 4666 
L 2450 531 
L 3481 531 
L 3481 0 
L 794 0 
L 794 531 
z
" transform="scale(0.015625)"/>
       </defs>
       <use xlink:href="#DejaVuSans-32"/>
       <use xlink:href="#DejaVuSans-30" transform="translate(63.623047 0)"/>
       <use xlink:href="#DejaVuSans-31" transform="translate(127.246094 0)"/>
       <use xlink:href="#DejaVuSans-30" transform="translate(190.869141 0)"/>
      </g>
     </g>
    </g>
    <g id="xtick_4">
     <g id="line2d_7">
      <path d="M 683.640838 155.658125 
L 683.640838 22.318125 
" clip-path="url(#p2fc0688674)" style="fill: none; stroke: #b0b0b0; stroke-width: 0.8; stroke-linecap: square"/>
     </g>
     <g id="line2d_8">
      <g>
       <use xlink:href="#m8d124b3455" x="683.640838" y="155.658125" style="stroke: #000000; stroke-width: 0.8"/>
      </g>
     </g>
     <g id="text_4">
      <!-- 2015 -->
      <g transform="translate(670.915838 170.256562) scale(0.1 -0.1)">
       <use xlink:href="#DejaVuSans-32"/>
       <use xlink:href="#DejaVuSans-30" transform="translate(63.623047 0)"/>
       <use xlink:href="#DejaVuSans-31" transform="translate(127.246094 0)"/>
       <use xlink:href="#DejaVuSans-35" transform="translate(190.869141 0)"/>
      </g>
     </g>
    </g>
    <g id="xtick_5">
     <g id="line2d_9">
      <path d="M 879.429087 155.658125 
L 879.429087 22.318125 
" clip-path="url(#p2fc0688674)" style="fill: none; stroke: #b0b0b0; stroke-width: 0.8; stroke-linecap: square"/>
     </g>
     <g id="line2d_10">
      <g>
       <use xlink:href="#m8d124b3455" x="879.429087" y="155.658125" style="stroke: #000000; stroke-width: 0.8"/>
      </g>
     </g>
     <g id="text_5">
      <!-- 2020 -->
      <g transform="translate(866.704087 170.256562) scale(0.1 -0.1)">
       <use xlink:href="#DejaVuSans-32"/>
       <use xlink:href="#DejaVuSans-30" transform="translate(63.623047 0)"/>
       <use xlink:href="#DejaVuSans-32" transform="translate(127.246094 0)"/>
       <use xlink:href="#DejaVuSans-30" transform="translate(190.869141 0)"/>
      </g>
     </g>
    </g>
    <g id="xtick_6">
     <g id="line2d_11">
      <path d="M 1075.324559 155.658125 
L 1075.324559 22.318125 
" clip-path="url(#p2fc0688674)" style="fill: none; stroke: #b0b0b0; stroke-width: 0.8; stroke-linecap: square"/>
     </g>
     <g id="line2d_12">
      <g>
       <use xlink:href="#m8d124b3455" x="1075.324559" y="155.658125" style="stroke: #000000; stroke-width: 0.8"/>
      </g>
     </g>
     <g id="text_6">
      <!-- 2025 -->
      <g transform="translate(1062.599559 170.256562) scale(0.1 -0.1)">
       <use xlink:href="#DejaVuSans-32"/>
       <use xlink:href="#DejaVuSans-30" transform="translate(63.623047 0)"/>
       <use xlink:href="#DejaVuSans-32" transform="translate(127.246094 0)"/>
       <use xlink:href="#DejaVuSans-35" transform="translate(190.869141 0)"/>
      </g>
     </g>
    </g>
    <g id="text_7">
     <!-- Date -->
     <g transform="translate(583.392344 183.934687) scale(0.1 -0.1)">
      <defs>
       <path id="DejaVuSans-44" d="M 1259 4147 
L 1259 519 
L 2022 519 
Q 2988 519 3436 956 
Q 3884 1394 3884 2338 
Q 3884 3275 3436 3711 
Q 2988 4147 2022 4147 
L 1259 4147 
z
M 628 4666 
L 1925 4666 
Q 3281 4666 3915 4102 
Q 4550 3538 4550 2338 
Q 4550 1131 3912 565 
Q 3275 0 1925 0 
L 628 0 
L 628 4666 
z
" transform="scale(0.015625)"/>
       <path id="DejaVuSans-61" d="M 2194 1759 
Q 1497 1759 1228 1600 
Q 959 1441 959 1056 
Q 959 750 1161 570 
Q 1363 391 1709 391 
Q 2188 391 2477 730 
Q 2766 1069 2766 1631 
L 2766 1759 
L 2194 1759 
z
M 3341 1997 
L 3341 0 
L 2766 0 
L 2766 531 
Q 2569 213 2275 61 
Q 1981 -91 1556 -91 
Q 1019 -91 701 211 
Q 384 513 384 1019 
Q 384 1609 779 1909 
Q 1175 2209 1959 2209 
L 2766 2209 
L 2766 2266 
Q 2766 2663 2505 2880 
Q 2244 3097 1772 3097 
Q 1472 3097 1187 3025 
Q 903 2953 641 2809 
L 641 3341 
Q 956 3463 1253 3523 
Q 1550 3584 1831 3584 
Q 2591 3584 2966 3190 
Q 3341 2797 3341 1997 
z
" transform="scale(0.015625)"/>
       <path id="DejaVuSans-74" d="M 1172 4494 
L 1172 3500 
L 2356 3500 
L 2356 3053 
L 1172 3053 
L 1172 1153 
Q 1172 725 1289 603 
Q 1406 481 1766 481 
L 2356 481 
L 2356 0 
L 1766 0 
Q 1100 0 847 248 
Q 594 497 594 1153 
L 594 3053 
L 172 3053 
L 172 3500 
L 594 3500 
L 594 4494 
L 1172 4494 
z
" transform="scale(0.015625)"/>
       <path id="DejaVuSans-65" d="M 3597 1894 
L 3597 1613 
L 953 1613 
Q 991 1019 1311 708 
Q 1631 397 2203 397 
Q 2534 397 2845 478 
Q 3156 559 3463 722 
L 3463 178 
Q 3153 47 2828 -22 
Q 2503 -91 2169 -91 
Q 1331 -91 842 396 
Q 353 884 353 1716 
Q 353 2575 817 3079 
Q 1281 3584 2069 3584 
Q 2775 3584 3186 3129 
Q 3597 2675 3597 1894 
z
M 3022 2063 
Q 3016 2534 2758 2815 
Q 2500 3097 2075 3097 
Q 1594 3097 1305 2825 
Q 1016 2553 972 2059 
L 3022 2063 
z
" transform="scale(0.015625)"/>
      </defs>
      <use xlink:href="#DejaVuSans-44"/>
      <use xlink:href="#DejaVuSans-61" transform="translate(77.001953 0)"/>
      <use xlink:href="#DejaVuSans-74" transform="translate(138.28125 0)"/>
      <use xlink:href="#DejaVuSans-65" transform="translate(177.490234 0)"/>
     </g>
    </g>
   </g>
   <g id="matplotlib.axis_2">
    <g id="ytick_1">
     <g id="line2d_13">
      <path d="M 53.328125 150.571666 
L 1137.358125 150.571666 
" clip-path="url(#p2fc0688674)" style="fill: none; stroke: #b0b0b0; stroke-width: 0.8; stroke-linecap: square"/>
     </g>
     <g id="line2d_14">
      <defs>
       <path id="m539a1b2365" d="M 0 0 
L -3.5 0 
" style="stroke: #000000; stroke-width: 0.8"/>
      </defs>
      <g>
       <use xlink:href="#m539a1b2365" x="53.328125" y="150.571666" style="stroke: #000000; stroke-width: 0.8"/>
      </g>
     </g>
     <g id="text_8">
      <!-- 1000 -->
      <g transform="translate(20.878125 154.370885) scale(0.1 -0.1)">
       <use xlink:href="#DejaVuSans-31"/>
       <use xlink:href="#DejaVuSans-30" transform="translate(63.623047 0)"/>
       <use xlink:href="#DejaVuSans-30" transform="translate(127.246094 0)"/>
       <use xlink:href="#DejaVuSans-30" transform="translate(190.869141 0)"/>
      </g>
     </g>
    </g>
    <g id="ytick_2">
     <g id="line2d_15">
      <path d="M 53.328125 125.706908 
L 1137.358125 125.706908 
" clip-path="url(#p2fc0688674)" style="fill: none; stroke: #b0b0b0; stroke-width: 0.8; stroke-linecap: square"/>
     </g>
     <g id="line2d_16">
      <g>
       <use xlink:href="#m539a1b2365" x="53.328125" y="125.706908" style="stroke: #000000; stroke-width: 0.8"/>
      </g>
     </g>
     <g id="text_9">
      <!-- 2000 -->
      <g transform="translate(20.878125 129.506127) scale(0.1 -0.1)">
       <use xlink:href="#DejaVuSans-32"/>
       <use xlink:href="#DejaVuSans-30" transform="translate(63.623047 0)"/>
       <use xlink:href="#DejaVuSans-30" transform="translate(127.246094 0)"/>
       <use xlink:href="#DejaVuSans-30" transform="translate(190.869141 0)"/>
      </g>
     </g>
    </g>
    <g id="ytick_3">
     <g id="line2d_17">
      <path d="M 53.328125 100.84215 
L 1137.358125 100.84215 
" clip-path="url(#p2fc0688674)" style="fill: none; stroke: #b0b0b0; stroke-width: 0.8; stroke-linecap: square"/>
     </g>
     <g id="line2d_18">
      <g>
       <use xlink:href="#m539a1b2365" x="53.328125" y="100.84215" style="stroke: #000000; stroke-width: 0.8"/>
      </g>
     </g>
     <g id="text_10">
      <!-- 3000 -->
      <g transform="translate(20.878125 104.641368) scale(0.1 -0.1)">
       <defs>
        <path id="DejaVuSans-33" d="M 2597 2516 
Q 3050 2419 3304 2112 
Q 3559 1806 3559 1356 
Q 3559 666 3084 287 
Q 2609 -91 1734 -91 
Q 1441 -91 1130 -33 
Q 819 25 488 141 
L 488 750 
Q 750 597 1062 519 
Q 1375 441 1716 441 
Q 2309 441 2620 675 
Q 2931 909 2931 1356 
Q 2931 1769 2642 2001 
Q 2353 2234 1838 2234 
L 1294 2234 
L 1294 2753 
L 1863 2753 
Q 2328 2753 2575 2939 
Q 2822 3125 2822 3475 
Q 2822 3834 2567 4026 
Q 2313 4219 1838 4219 
Q 1578 4219 1281 4162 
Q 984 4106 628 3988 
L 628 4550 
Q 988 4650 1302 4700 
Q 1616 4750 1894 4750 
Q 2613 4750 3031 4423 
Q 3450 4097 3450 3541 
Q 3450 3153 3228 2886 
Q 3006 2619 2597 2516 
z
" transform="scale(0.015625)"/>
       </defs>
       <use xlink:href="#DejaVuSans-33"/>
       <use xlink:href="#DejaVuSans-30" transform="translate(63.623047 0)"/>
       <use xlink:href="#DejaVuSans-30" transform="translate(127.246094 0)"/>
       <use xlink:href="#DejaVuSans-30" transform="translate(190.869141 0)"/>
      </g>
     </g>
    </g>
    <g id="ytick_4">
     <g id="line2d_19">
      <path d="M 53.328125 75.977392 
L 1137.358125 75.977392 
" clip-path="url(#p2fc0688674)" style="fill: none; stroke: #b0b0b0; stroke-width: 0.8; stroke-linecap: square"/>
     </g>
     <g id="line2d_20">
      <g>
       <use xlink:href="#m539a1b2365" x="53.328125" y="75.977392" style="stroke: #000000; stroke-width: 0.8"/>
      </g>
     </g>
     <g id="text_11">
      <!-- 4000 -->
      <g transform="translate(20.878125 79.77661) scale(0.1 -0.1)">
       <defs>
        <path id="DejaVuSans-34" d="M 2419 4116 
L 825 1625 
L 2419 1625 
L 2419 4116 
z
M 2253 4666 
L 3047 4666 
L 3047 1625 
L 3713 1625 
L 3713 1100 
L 3047 1100 
L 3047 0 
L 2419 0 
L 2419 1100 
L 313 1100 
L 313 1709 
L 2253 4666 
z
" transform="scale(0.015625)"/>
       </defs>
       <use xlink:href="#DejaVuSans-34"/>
       <use xlink:href="#DejaVuSans-30" transform="translate(63.623047 0)"/>
       <use xlink:href="#DejaVuSans-30" transform="translate(127.246094 0)"/>
       <use xlink:href="#DejaVuSans-30" transform="translate(190.869141 0)"/>
      </g>
     </g>
    </g>
    <g id="ytick_5">
     <g id="line2d_21">
      <path d="M 53.328125 51.112634 
L 1137.358125 51.112634 
" clip-path="url(#p2fc0688674)" style="fill: none; stroke: #b0b0b0; stroke-width: 0.8; stroke-linecap: square"/>
     </g>
     <g id="line2d_22">
      <g>
       <use xlink:href="#m539a1b2365" x="53.328125" y="51.112634" style="stroke: #000000; stroke-width: 0.8"/>
      </g>
     </g>
     <g id="text_12">
      <!-- 5000 -->
      <g transform="translate(20.878125 54.911852) scale(0.1 -0.1)">
       <use xlink:href="#DejaVuSans-35"/>
       <use xlink:href="#DejaVuSans-30" transform="translate(63.623047 0)"/>
       <use xlink:href="#DejaVuSans-30" transform="translate(127.246094 0)"/>
       <use xlink:href="#DejaVuSans-30" transform="translate(190.869141 0)"/>
      </g>
     </g>
    </g>
    <g id="ytick_6">
     <g id="line2d_23">
      <path d="M 53.328125 26.247876 
L 1137.358125 26.247876 
" clip-path="url(#p2fc0688674)" style="fill: none; stroke: #b0b0b0; stroke-width: 0.8; stroke-linecap: square"/>
     </g>
     <g id="line2d_24">
      <g>
       <use xlink:href="#m539a1b2365" x="53.328125" y="26.247876" style="stroke: #000000; stroke-width: 0.8"/>
      </g>
     </g>
     <g id="text_13">
      <!-- 6000 -->
      <g transform="translate(20.878125 30.047094) scale(0.1 -0.1)">
       <defs>
        <path id="DejaVuSans-36" d="M 2113 2584 
Q 1688 2584 1439 2293 
Q 1191 2003 1191 1497 
Q 1191 994 1439 701 
Q 1688 409 2113 409 
Q 2538 409 2786 701 
Q 3034 994 3034 1497 
Q 3034 2003 2786 2293 
Q 2538 2584 2113 2584 
z
M 3366 4563 
L 3366 3988 
Q 3128 4100 2886 4159 
Q 2644 4219 2406 4219 
Q 1781 4219 1451 3797 
Q 1122 3375 1075 2522 
Q 1259 2794 1537 2939 
Q 1816 3084 2150 3084 
Q 2853 3084 3261 2657 
Q 3669 2231 3669 1497 
Q 3669 778 3244 343 
Q 2819 -91 2113 -91 
Q 1303 -91 875 529 
Q 447 1150 447 2328 
Q 447 3434 972 4092 
Q 1497 4750 2381 4750 
Q 2619 4750 2861 4703 
Q 3103 4656 3366 4563 
z
" transform="scale(0.015625)"/>
       </defs>
       <use xlink:href="#DejaVuSans-36"/>
       <use xlink:href="#DejaVuSans-30" transform="translate(63.623047 0)"/>
       <use xlink:href="#DejaVuSans-30" transform="translate(127.246094 0)"/>
       <use xlink:href="#DejaVuSans-30" transform="translate(190.869141 0)"/>
      </g>
     </g>
    </g>
    <g id="text_14">
     <!-- Closing Price -->
     <g transform="translate(14.798438 121.051406) rotate(-90) scale(0.1 -0.1)">
      <defs>
       <path id="DejaVuSans-43" d="M 4122 4306 
L 4122 3641 
Q 3803 3938 3442 4084 
Q 3081 4231 2675 4231 
Q 1875 4231 1450 3742 
Q 1025 3253 1025 2328 
Q 1025 1406 1450 917 
Q 1875 428 2675 428 
Q 3081 428 3442 575 
Q 3803 722 4122 1019 
L 4122 359 
Q 3791 134 3420 21 
Q 3050 -91 2638 -91 
Q 1578 -91 968 557 
Q 359 1206 359 2328 
Q 359 3453 968 4101 
Q 1578 4750 2638 4750 
Q 3056 4750 3426 4639 
Q 3797 4528 4122 4306 
z
" transform="scale(0.015625)"/>
       <path id="DejaVuSans-6c" d="M 603 4863 
L 1178 4863 
L 1178 0 
L 603 0 
L 603 4863 
z
" transform="scale(0.015625)"/>
       <path id="DejaVuSans-6f" d="M 1959 3097 
Q 1497 3097 1228 2736 
Q 959 2375 959 1747 
Q 959 1119 1226 758 
Q 1494 397 1959 397 
Q 2419 397 2687 759 
Q 2956 1122 2956 1747 
Q 2956 2369 2687 2733 
Q 2419 3097 1959 3097 
z
M 1959 3584 
Q 2709 3584 3137 3096 
Q 3566 2609 3566 1747 
Q 3566 888 3137 398 
Q 2709 -91 1959 -91 
Q 1206 -91 779 398 
Q 353 888 353 1747 
Q 353 2609 779 3096 
Q 1206 3584 1959 3584 
z
" transform="scale(0.015625)"/>
       <path id="DejaVuSans-73" d="M 2834 3397 
L 2834 2853 
Q 2591 2978 2328 3040 
Q 2066 3103 1784 3103 
Q 1356 3103 1142 2972 
Q 928 2841 928 2578 
Q 928 2378 1081 2264 
Q 1234 2150 1697 2047 
L 1894 2003 
Q 2506 1872 2764 1633 
Q 3022 1394 3022 966 
Q 3022 478 2636 193 
Q 2250 -91 1575 -91 
Q 1294 -91 989 -36 
Q 684 19 347 128 
L 347 722 
Q 666 556 975 473 
Q 1284 391 1588 391 
Q 1994 391 2212 530 
Q 2431 669 2431 922 
Q 2431 1156 2273 1281 
Q 2116 1406 1581 1522 
L 1381 1569 
Q 847 1681 609 1914 
Q 372 2147 372 2553 
Q 372 3047 722 3315 
Q 1072 3584 1716 3584 
Q 2034 3584 2315 3537 
Q 2597 3491 2834 3397 
z
" transform="scale(0.015625)"/>
       <path id="DejaVuSans-69" d="M 603 3500 
L 1178 3500 
L 1178 0 
L 603 0 
L 603 3500 
z
M 603 4863 
L 1178 4863 
L 1178 4134 
L 603 4134 
L 603 4863 
z
" transform="scale(0.015625)"/>
       <path id="DejaVuSans-6e" d="M 3513 2113 
L 3513 0 
L 2938 0 
L 2938 2094 
Q 2938 2591 2744 2837 
Q 2550 3084 2163 3084 
Q 1697 3084 1428 2787 
Q 1159 2491 1159 1978 
L 1159 0 
L 581 0 
L 581 3500 
L 1159 3500 
L 1159 2956 
Q 1366 3272 1645 3428 
Q 1925 3584 2291 3584 
Q 2894 3584 3203 3211 
Q 3513 2838 3513 2113 
z
" transform="scale(0.015625)"/>
       <path id="DejaVuSans-67" d="M 2906 1791 
Q 2906 2416 2648 2759 
Q 2391 3103 1925 3103 
Q 1463 3103 1205 2759 
Q 947 2416 947 1791 
Q 947 1169 1205 825 
Q 1463 481 1925 481 
Q 2391 481 2648 825 
Q 2906 1169 2906 1791 
z
M 3481 434 
Q 3481 -459 3084 -895 
Q 2688 -1331 1869 -1331 
Q 1566 -1331 1297 -1286 
Q 1028 -1241 775 -1147 
L 775 -588 
Q 1028 -725 1275 -790 
Q 1522 -856 1778 -856 
Q 2344 -856 2625 -561 
Q 2906 -266 2906 331 
L 2906 616 
Q 2728 306 2450 153 
Q 2172 0 1784 0 
Q 1141 0 747 490 
Q 353 981 353 1791 
Q 353 2603 747 3093 
Q 1141 3584 1784 3584 
Q 2172 3584 2450 3431 
Q 2728 3278 2906 2969 
L 2906 3500 
L 3481 3500 
L 3481 434 
z
" transform="scale(0.015625)"/>
       <path id="DejaVuSans-20" transform="scale(0.015625)"/>
       <path id="DejaVuSans-50" d="M 1259 4147 
L 1259 2394 
L 2053 2394 
Q 2494 2394 2734 2622 
Q 2975 2850 2975 3272 
Q 2975 3691 2734 3919 
Q 2494 4147 2053 4147 
L 1259 4147 
z
M 628 4666 
L 2053 4666 
Q 2838 4666 3239 4311 
Q 3641 3956 3641 3272 
Q 3641 2581 3239 2228 
Q 2838 1875 2053 1875 
L 1259 1875 
L 1259 0 
L 628 0 
L 628 4666 
z
" transform="scale(0.015625)"/>
       <path id="DejaVuSans-72" d="M 2631 2963 
Q 2534 3019 2420 3045 
Q 2306 3072 2169 3072 
Q 1681 3072 1420 2755 
Q 1159 2438 1159 1844 
L 1159 0 
L 581 0 
L 581 3500 
L 1159 3500 
L 1159 2956 
Q 1341 3275 1631 3429 
Q 1922 3584 2338 3584 
Q 2397 3584 2469 3576 
Q 2541 3569 2628 3553 
L 2631 2963 
z
" transform="scale(0.015625)"/>
       <path id="DejaVuSans-63" d="M 3122 3366 
L 3122 2828 
Q 2878 2963 2633 3030 
Q 2388 3097 2138 3097 
Q 1578 3097 1268 2742 
Q 959 2388 959 1747 
Q 959 1106 1268 751 
Q 1578 397 2138 397 
Q 2388 397 2633 464 
Q 2878 531 3122 666 
L 3122 134 
Q 2881 22 2623 -34 
Q 2366 -91 2075 -91 
Q 1284 -91 818 406 
Q 353 903 353 1747 
Q 353 2603 823 3093 
Q 1294 3584 2113 3584 
Q 2378 3584 2631 3529 
Q 2884 3475 3122 3366 
z
" transform="scale(0.015625)"/>
      </defs>
      <use xlink:href="#DejaVuSans-43"/>
      <use xlink:href="#DejaVuSans-6c" transform="translate(69.824219 0)"/>
      <use xlink:href="#DejaVuSans-6f" transform="translate(97.607422 0)"/>
      <use xlink:href="#DejaVuSans-73" transform="translate(158.789062 0)"/>
      <use xlink:href="#DejaVuSans-69" transform="translate(210.888672 0)"/>
      <use xlink:href="#DejaVuSans-6e" transform="translate(238.671875 0)"/>
      <use xlink:href="#DejaVuSans-67" transform="translate(302.050781 0)"/>
      <use xlink:href="#DejaVuSans-20" transform="translate(365.527344 0)"/>
      <use xlink:href="#DejaVuSans-50" transform="translate(397.314453 0)"/>
      <use xlink:href="#DejaVuSans-72" transform="translate(455.867188 0)"/>
      <use xlink:href="#DejaVuSans-69" transform="translate(496.980469 0)"/>
      <use xlink:href="#DejaVuSans-63" transform="translate(524.763672 0)"/>
      <use xlink:href="#DejaVuSans-65" transform="translate(579.744141 0)"/>
     </g>
    </g>
   </g>
   <g id="line2d_25">
    <path d="M 102.602216 133.22253 
L 112.466684 128.106854 
L 119.007255 125.006965 
L 122.331152 125.710637 
L 128.871724 126.269846 
L 132.088398 123.671976 
L 141.738421 126.574191 
L 151.602889 120.246856 
L 158.143461 126.032139 
L 168.007929 132.973633 
L 177.872397 138.493112 
L 180.874627 138.07613 
L 184.198524 135.441212 
L 193.955769 132.825688 
L 197.279666 134.33473 
L 207.144134 137.871742 
L 223.334729 137.578586 
L 233.091975 138.519718 
L 236.415872 138.711922 
L 239.739768 139.387 
L 249.497014 139.812685 
L 259.25426 133.42095 
L 262.578157 131.720449 
L 269.118728 136.15856 
L 272.335403 139.604567 
L 278.983196 142.578641 
L 285.523768 142.980704 
L 288.740442 142.243464 
L 295.388236 145.873967 
L 298.390465 143.02745 
L 301.714362 145.012652 
L 308.254933 149.597216 
L 311.471608 149.189434 
L 314.795505 148.359946 
L 318.119402 145.973426 
L 324.659973 148.335081 
L 327.876647 148.116271 
L 337.526671 142.94838 
L 347.391139 133.559447 
L 353.93171 135.637643 
L 357.255607 134.740523 
L 363.796178 129.294644 
L 367.012853 123.169459 
L 373.660647 106.177381 
L 376.662876 105.884971 
L 386.527344 75.958992 
L 393.067916 68.50404 
L 402.932384 28.379034 
L 412.796852 68.001523 
L 419.230201 92.657666 
L 428.987447 109.505031 
L 432.311343 105.769847 
L 435.63524 117.62238 
L 445.392486 128.327405 
L 458.366406 115.561589 
L 464.906977 107.772455 
L 468.123652 100.639502 
L 474.771446 108.706375 
L 484.528691 94.98998 
L 491.176485 102.300219 
L 494.178715 98.658029 
L 497.502612 97.176587 
L 504.043183 111.576763 
L 507.259857 116.41271 
L 513.907651 110.219147 
L 520.448222 99.498956 
L 523.664897 105.232023 
L 529.026021 108.857304 
L 530.312691 105.840961 
L 531.813805 103.347523 
L 534.387145 102.488197 
L 536.638817 101.652492 
L 538.139932 99.585734 
L 543.179388 107.21822 
L 544.57328 107.55464 
L 546.396063 106.825605 
L 549.71996 108.207588 
L 550.577739 112.626305 
L 553.043856 111.881108 
L 553.901636 113.330474 
L 557.654423 114.980748 
L 559.584428 114.019974 
L 560.442208 112.654899 
L 562.801102 116.087727 
L 563.658882 117.867795 
L 567.304446 118.868851 
L 569.448896 119.041163 
L 570.306676 117.014437 
L 572.558348 115.111786 
L 573.416128 114.779841 
L 576.740025 118.601057 
L 580.171144 115.885826 
L 582.422816 116.421413 
L 586.49727 121.459758 
L 588.963387 122.639591 
L 589.821167 121.377953 
L 597.005073 123.252756 
L 598.827856 123.110281 
L 599.685635 123.989499 
L 606.440652 119.664772 
L 608.692324 115.288077 
L 609.442881 114.955386 
L 611.694553 116.767779 
L 615.01845 119.878608 
L 615.87623 120.093191 
L 619.092904 119.914165 
L 625.633476 126.565985 
L 628.957373 124.407973 
L 632.28127 120.422649 
L 636.034056 119.794814 
L 637.964061 121.988135 
L 642.038515 119.784122 
L 645.362412 125.020143 
L 649.222421 122.826326 
L 654.154656 124.526826 
L 655.22688 122.461062 
L 658.22911 125.429914 
L 661.660229 124.400762 
L 663.911901 124.454221 
L 664.769681 124.746879 
L 667.235798 121.099468 
L 670.559695 119.851009 
L 671.63192 117.95706 
L 675.277484 116.415694 
L 678.065269 113.929218 
L 680.316941 108.794894 
L 681.281943 102.333787 
L 684.498618 93.745499 
L 687.929737 97.321549 
L 690.931966 93.729088 
L 694.255863 75.124282 
L 699.831432 55.370972 
L 700.689212 48.289738 
L 703.905886 83.204831 
L 709.6959 96.699184 
L 710.660903 95.921663 
L 714.306467 94.316643 
L 717.201474 84.916521 
L 719.453146 89.496112 
L 720.310926 89.095043 
L 726.10094 108.578819 
L 727.923722 104.251357 
L 729.210392 107.476813 
L 730.175394 105.697491 
L 732.534289 100.605189 
L 733.606514 99.997743 
L 736.715966 105.004759 
L 739.07486 102.992703 
L 745.615431 102.001096 
L 746.473211 100.203623 
L 749.797108 98.881564 
L 753.549895 99.25553 
L 755.4799 97.797709 
L 756.337679 97.650261 
L 758.696574 94.046363 
L 759.554354 95.051645 
L 762.985473 96.822264 
L 766.73826 95.423373 
L 768.346597 94.702295 
L 769.204377 95.452713 
L 771.563272 95.309492 
L 772.849941 94.033433 
L 775.852171 99.529788 
L 778.103843 97.928497 
L 779.068845 96.903572 
L 782.392742 95.555156 
L 784.644414 94.053325 
L 785.609417 93.990168 
L 787.968311 91.870696 
L 792.900545 91.431585 
L 794.508883 91.061846 
L 795.473885 90.205255 
L 797.725557 92.955297 
L 802.121679 90.353449 
L 804.373351 88.886428 
L 805.338353 97.613461 
L 807.37558 94.391983 
L 808.340582 93.204442 
L 811.878924 95.668291 
L 814.988376 96.505487 
L 817.240048 98.468311 
L 821.528948 105.128337 
L 823.78062 103.915434 
L 824.745622 105.954841 
L 827.104517 107.673742 
L 828.176741 109.06045 
L 832.036751 112.122545 
L 833.645088 110.718929 
L 836.861762 111.081706 
L 841.257884 112.401776 
L 843.509556 111.171716 
L 845.117893 108.739446 
L 846.511786 102.310414 
L 851.01513 96.11884 
L 853.052357 98.894245 
L 854.017359 104.548242 
L 856.376254 103.36095 
L 857.662924 103.095394 
L 860.665153 102.948195 
L 862.916825 102.520272 
L 863.881827 106.442936 
L 867.312947 100.315017 
L 869.457396 103.199577 
L 871.065734 101.064689 
L 872.781293 102.606056 
L 877.070192 102.897968 
L 879.321865 99.595928 
L 880.286867 98.482981 
L 883.717986 103.565089 
L 886.827438 100.922712 
L 889.07911 107.05088 
L 890.151335 105.898896 
L 892.295785 104.321227 
L 893.582454 103.538484 
L 896.691906 102.240792 
L 898.836356 101.223326 
L 899.801358 89.638338 
L 902.160253 93.133826 
L 903.232478 91.41219 
L 905.48415 91.003662 
L 906.449152 94.510836 
L 908.700824 95.420389 
L 910.309161 92.582574 
L 913.096946 91.887107 
L 915.241396 91.101132 
L 916.206398 91.593454 
L 918.565292 89.079379 
L 919.74474 87.626531 
L 922.961414 84.553495 
L 925.963644 91.947031 
L 928.215316 89.854165 
L 929.180318 89.636101 
L 932.611437 89.855656 
L 934.755887 85.538388 
L 935.720889 86.137132 
L 937.972561 86.142105 
L 938.937564 87.810779 
L 942.261461 88.543294 
L 944.620355 87.317213 
L 945.585358 83.60764 
L 947.83703 86.71474 
L 949.338144 86.960653 
L 952.233151 88.597251 
L 954.377601 86.821161 
L 955.342603 84.107173 
L 957.701498 84.934175 
L 958.988168 85.987197 
L 962.740954 89.2594 
L 964.134847 88.68751 
L 964.992626 94.467074 
L 967.351521 94.571258 
L 968.530968 96.686503 
L 971.747643 99.382588 
L 973.892092 96.206613 
L 974.964317 93.759921 
L 977.108767 90.93056 
L 981.504888 95.122758 
L 983.756561 95.815988 
L 984.721563 94.32634 
L 986.973235 100.235698 
L 988.47435 99.052136 
L 990.297132 103.490744 
L 991.262134 99.644414 
L 993.513806 97.079117 
L 994.478809 95.696388 
L 998.124373 96.778005 
L 1000.1616 94.484977 
L 1001.233825 94.360653 
L 1003.271052 93.075643 
L 1004.128832 93.977239 
L 1006.487726 94.057552 
L 1007.667174 93.045308 
L 1010.883848 93.145264 
L 1013.028298 95.755815 
L 1013.9933 95.088196 
L 1016.244972 95.817977 
L 1017.317197 95.777199 
L 1019.568869 93.605511 
L 1020.533871 94.762965 
L 1022.892766 97.861363 
L 1027.503333 98.651565 
L 1029.433337 100.375438 
L 1030.39834 99.517355 
L 1032.650012 100.104412 
L 1037.260578 103.776688 
L 1039.297805 106.099803 
L 1040.155585 104.176514 
L 1042.51448 100.170304 
L 1046.910602 99.990532 
L 1048.947829 98.235826 
L 1052.271726 98.68364 
L 1053.558395 99.910467 
L 1056.560625 102.349949 
L 1058.812297 102.365116 
L 1059.777299 104.268762 
L 1063.101196 107.394262 
L 1065.352868 92.475159 
L 1068.676765 93.884493 
L 1072.858442 90.833339 
L 1075.217336 92.095722 
L 1076.182339 95.585989 
L 1078.112343 94.611041 
L 1084.86736 92.493807 
L 1085.939584 95.281395 
L 1088.084034 93.904136 
L 1088.084034 93.904136 
" clip-path="url(#p2fc0688674)" style="fill: none; stroke: #0000ff; stroke-width: 1.5; stroke-linecap: square"/>
   </g>
   <g id="patch_3">
    <path d="M 53.328125 155.658125 
L 53.328125 22.318125 
" style="fill: none; stroke: #000000; stroke-width: 0.8; stroke-linejoin: miter; stroke-linecap: square"/>
   </g>
   <g id="patch_4">
    <path d="M 1137.358125 155.658125 
L 1137.358125 22.318125 
" style="fill: none; stroke: #000000; stroke-width: 0.8; stroke-linejoin: miter; stroke-linecap: square"/>
   </g>
   <g id="patch_5">
    <path d="M 53.328125 155.658125 
L 1137.358125 155.658125 
" style="fill: none; stroke: #000000; stroke-width: 0.8; stroke-linejoin: miter; stroke-linecap: square"/>
   </g>
   <g id="patch_6">
    <path d="M 53.328125 22.318125 
L 1137.358125 22.318125 
" style="fill: none; stroke: #000000; stroke-width: 0.8; stroke-linejoin: miter; stroke-linecap: square"/>
   </g>
   <g id="text_15">
    <!-- 000001 Closing Price -->
    <g transform="translate(532.055313 16.318125) scale(0.12 -0.12)">
     <use xlink:href="#DejaVuSans-30"/>
     <use xlink:href="#DejaVuSans-30" transform="translate(63.623047 0)"/>
     <use xlink:href="#DejaVuSans-30" transform="translate(127.246094 0)"/>
     <use xlink:href="#DejaVuSans-30" transform="translate(190.869141 0)"/>
     <use xlink:href="#DejaVuSans-30" transform="translate(254.492188 0)"/>
     <use xlink:href="#DejaVuSans-31" transform="translate(318.115234 0)"/>
     <use xlink:href="#DejaVuSans-20" transform="translate(381.738281 0)"/>
     <use xlink:href="#DejaVuSans-43" transform="translate(413.525391 0)"/>
     <use xlink:href="#DejaVuSans-6c" transform="translate(483.349609 0)"/>
     <use xlink:href="#DejaVuSans-6f" transform="translate(511.132812 0)"/>
     <use xlink:href="#DejaVuSans-73" transform="translate(572.314453 0)"/>
     <use xlink:href="#DejaVuSans-69" transform="translate(624.414062 0)"/>
     <use xlink:href="#DejaVuSans-6e" transform="translate(652.197266 0)"/>
     <use xlink:href="#DejaVuSans-67" transform="translate(715.576172 0)"/>
     <use xlink:href="#DejaVuSans-20" transform="translate(779.052734 0)"/>
     <use xlink:href="#DejaVuSans-50" transform="translate(810.839844 0)"/>
     <use xlink:href="#DejaVuSans-72" transform="translate(869.392578 0)"/>
     <use xlink:href="#DejaVuSans-69" transform="translate(910.505859 0)"/>
     <use xlink:href="#DejaVuSans-63" transform="translate(938.289062 0)"/>
     <use xlink:href="#DejaVuSans-65" transform="translate(993.269531 0)"/>
    </g>
   </g>
   <g id="legend_1">
    <g id="patch_7">
     <path d="M 1034.231563 44.99625 
L 1130.358125 44.99625 
Q 1132.358125 44.99625 1132.358125 42.99625 
L 1132.358125 29.318125 
Q 1132.358125 27.318125 1130.358125 27.318125 
L 1034.231563 27.318125 
Q 1032.231563 27.318125 1032.231563 29.318125 
L 1032.231563 42.99625 
Q 1032.231563 44.99625 1034.231563 44.99625 
z
" style="fill: #ffffff; opacity: 0.8; stroke: #cccccc; stroke-linejoin: miter"/>
    </g>
    <g id="line2d_26">
     <path d="M 1036.231563 35.416562 
L 1046.231563 35.416562 
L 1056.231563 35.416562 
" style="fill: none; stroke: #0000ff; stroke-width: 1.5; stroke-linecap: square"/>
    </g>
    <g id="text_16">
     <!-- Closing Price -->
     <g transform="translate(1064.231563 38.916562) scale(0.1 -0.1)">
      <use xlink:href="#DejaVuSans-43"/>
      <use xlink:href="#DejaVuSans-6c" transform="translate(69.824219 0)"/>
      <use xlink:href="#DejaVuSans-6f" transform="translate(97.607422 0)"/>
      <use xlink:href="#DejaVuSans-73" transform="translate(158.789062 0)"/>
      <use xlink:href="#DejaVuSans-69" transform="translate(210.888672 0)"/>
      <use xlink:href="#DejaVuSans-6e" transform="translate(238.671875 0)"/>
      <use xlink:href="#DejaVuSans-67" transform="translate(302.050781 0)"/>
      <use xlink:href="#DejaVuSans-20" transform="translate(365.527344 0)"/>
      <use xlink:href="#DejaVuSans-50" transform="translate(397.314453 0)"/>
      <use xlink:href="#DejaVuSans-72" transform="translate(455.867188 0)"/>
      <use xlink:href="#DejaVuSans-69" transform="translate(496.980469 0)"/>
      <use xlink:href="#DejaVuSans-63" transform="translate(524.763672 0)"/>
      <use xlink:href="#DejaVuSans-65" transform="translate(579.744141 0)"/>
     </g>
    </g>
   </g>
  </g>
  <g id="axes_2">
   <g id="patch_8">
    <path d="M 53.328125 332.958125 
L 1137.358125 332.958125 
L 1137.358125 199.618125 
L 53.328125 199.618125 
z
" style="fill: #ffffff"/>
   </g>
   <g id="matplotlib.axis_3">
    <g id="xtick_7">
     <g id="line2d_27">
      <path d="M 96.168867 332.958125 
L 96.168867 199.618125 
" clip-path="url(#p5b5f796e57)" style="fill: none; stroke: #b0b0b0; stroke-width: 0.8; stroke-linecap: square"/>
     </g>
     <g id="line2d_28">
      <g>
       <use xlink:href="#m8d124b3455" x="96.168867" y="332.958125" style="stroke: #000000; stroke-width: 0.8"/>
      </g>
     </g>
     <g id="text_17">
      <!-- 2000 -->
      <g transform="translate(83.443867 347.556562) scale(0.1 -0.1)">
       <use xlink:href="#DejaVuSans-32"/>
       <use xlink:href="#DejaVuSans-30" transform="translate(63.623047 0)"/>
       <use xlink:href="#DejaVuSans-30" transform="translate(127.246094 0)"/>
       <use xlink:href="#DejaVuSans-30" transform="translate(190.869141 0)"/>
      </g>
     </g>
    </g>
    <g id="xtick_8">
     <g id="line2d_29">
      <path d="M 292.064339 332.958125 
L 292.064339 199.618125 
" clip-path="url(#p5b5f796e57)" style="fill: none; stroke: #b0b0b0; stroke-width: 0.8; stroke-linecap: square"/>
     </g>
     <g id="line2d_30">
      <g>
       <use xlink:href="#m8d124b3455" x="292.064339" y="332.958125" style="stroke: #000000; stroke-width: 0.8"/>
      </g>
     </g>
     <g id="text_18">
      <!-- 2005 -->
      <g transform="translate(279.339339 347.556562) scale(0.1 -0.1)">
       <use xlink:href="#DejaVuSans-32"/>
       <use xlink:href="#DejaVuSans-30" transform="translate(63.623047 0)"/>
       <use xlink:href="#DejaVuSans-30" transform="translate(127.246094 0)"/>
       <use xlink:href="#DejaVuSans-35" transform="translate(190.869141 0)"/>
      </g>
     </g>
    </g>
    <g id="xtick_9">
     <g id="line2d_31">
      <path d="M 487.852588 332.958125 
L 487.852588 199.618125 
" clip-path="url(#p5b5f796e57)" style="fill: none; stroke: #b0b0b0; stroke-width: 0.8; stroke-linecap: square"/>
     </g>
     <g id="line2d_32">
      <g>
       <use xlink:href="#m8d124b3455" x="487.852588" y="332.958125" style="stroke: #000000; stroke-width: 0.8"/>
      </g>
     </g>
     <g id="text_19">
      <!-- 2010 -->
      <g transform="translate(475.127588 347.556562) scale(0.1 -0.1)">
       <use xlink:href="#DejaVuSans-32"/>
       <use xlink:href="#DejaVuSans-30" transform="translate(63.623047 0)"/>
       <use xlink:href="#DejaVuSans-31" transform="translate(127.246094 0)"/>
       <use xlink:href="#DejaVuSans-30" transform="translate(190.869141 0)"/>
      </g>
     </g>
    </g>
    <g id="xtick_10">
     <g id="line2d_33">
      <path d="M 683.640838 332.958125 
L 683.640838 199.618125 
" clip-path="url(#p5b5f796e57)" style="fill: none; stroke: #b0b0b0; stroke-width: 0.8; stroke-linecap: square"/>
     </g>
     <g id="line2d_34">
      <g>
       <use xlink:href="#m8d124b3455" x="683.640838" y="332.958125" style="stroke: #000000; stroke-width: 0.8"/>
      </g>
     </g>
     <g id="text_20">
      <!-- 2015 -->
      <g transform="translate(670.915838 347.556562) scale(0.1 -0.1)">
       <use xlink:href="#DejaVuSans-32"/>
       <use xlink:href="#DejaVuSans-30" transform="translate(63.623047 0)"/>
       <use xlink:href="#DejaVuSans-31" transform="translate(127.246094 0)"/>
       <use xlink:href="#DejaVuSans-35" transform="translate(190.869141 0)"/>
      </g>
     </g>
    </g>
    <g id="xtick_11">
     <g id="line2d_35">
      <path d="M 879.429087 332.958125 
L 879.429087 199.618125 
" clip-path="url(#p5b5f796e57)" style="fill: none; stroke: #b0b0b0; stroke-width: 0.8; stroke-linecap: square"/>
     </g>
     <g id="line2d_36">
      <g>
       <use xlink:href="#m8d124b3455" x="879.429087" y="332.958125" style="stroke: #000000; stroke-width: 0.8"/>
      </g>
     </g>
     <g id="text_21">
      <!-- 2020 -->
      <g transform="translate(866.704087 347.556562) scale(0.1 -0.1)">
       <use xlink:href="#DejaVuSans-32"/>
       <use xlink:href="#DejaVuSans-30" transform="translate(63.623047 0)"/>
       <use xlink:href="#DejaVuSans-32" transform="translate(127.246094 0)"/>
       <use xlink:href="#DejaVuSans-30" transform="translate(190.869141 0)"/>
      </g>
     </g>
    </g>
    <g id="xtick_12">
     <g id="line2d_37">
      <path d="M 1075.324559 332.958125 
L 1075.324559 199.618125 
" clip-path="url(#p5b5f796e57)" style="fill: none; stroke: #b0b0b0; stroke-width: 0.8; stroke-linecap: square"/>
     </g>
     <g id="line2d_38">
      <g>
       <use xlink:href="#m8d124b3455" x="1075.324559" y="332.958125" style="stroke: #000000; stroke-width: 0.8"/>
      </g>
     </g>
     <g id="text_22">
      <!-- 2025 -->
      <g transform="translate(1062.599559 347.556562) scale(0.1 -0.1)">
       <use xlink:href="#DejaVuSans-32"/>
       <use xlink:href="#DejaVuSans-30" transform="translate(63.623047 0)"/>
       <use xlink:href="#DejaVuSans-32" transform="translate(127.246094 0)"/>
       <use xlink:href="#DejaVuSans-35" transform="translate(190.869141 0)"/>
      </g>
     </g>
    </g>
    <g id="text_23">
     <!-- Date -->
     <g transform="translate(583.392344 361.234687) scale(0.1 -0.1)">
      <use xlink:href="#DejaVuSans-44"/>
      <use xlink:href="#DejaVuSans-61" transform="translate(77.001953 0)"/>
      <use xlink:href="#DejaVuSans-74" transform="translate(138.28125 0)"/>
      <use xlink:href="#DejaVuSans-65" transform="translate(177.490234 0)"/>
     </g>
    </g>
   </g>
   <g id="matplotlib.axis_4">
    <g id="ytick_7">
     <g id="line2d_39">
      <path d="M 53.328125 315.533011 
L 1137.358125 315.533011 
" clip-path="url(#p5b5f796e57)" style="fill: none; stroke: #b0b0b0; stroke-width: 0.8; stroke-linecap: square"/>
     </g>
     <g id="line2d_40">
      <g>
       <use xlink:href="#m539a1b2365" x="53.328125" y="315.533011" style="stroke: #000000; stroke-width: 0.8"/>
      </g>
     </g>
     <g id="text_24">
      <!-- −1 -->
      <g transform="translate(31.585938 319.33223) scale(0.1 -0.1)">
       <defs>
        <path id="DejaVuSans-2212" d="M 678 2272 
L 4684 2272 
L 4684 1741 
L 678 1741 
L 678 2272 
z
" transform="scale(0.015625)"/>
       </defs>
       <use xlink:href="#DejaVuSans-2212"/>
       <use xlink:href="#DejaVuSans-31" transform="translate(83.789062 0)"/>
      </g>
     </g>
    </g>
    <g id="ytick_8">
     <g id="line2d_41">
      <path d="M 53.328125 277.65233 
L 1137.358125 277.65233 
" clip-path="url(#p5b5f796e57)" style="fill: none; stroke: #b0b0b0; stroke-width: 0.8; stroke-linecap: square"/>
     </g>
     <g id="line2d_42">
      <g>
       <use xlink:href="#m539a1b2365" x="53.328125" y="277.65233" style="stroke: #000000; stroke-width: 0.8"/>
      </g>
     </g>
     <g id="text_25">
      <!-- 0 -->
      <g transform="translate(39.965625 281.451548) scale(0.1 -0.1)">
       <use xlink:href="#DejaVuSans-30"/>
      </g>
     </g>
    </g>
    <g id="ytick_9">
     <g id="line2d_43">
      <path d="M 53.328125 239.771648 
L 1137.358125 239.771648 
" clip-path="url(#p5b5f796e57)" style="fill: none; stroke: #b0b0b0; stroke-width: 0.8; stroke-linecap: square"/>
     </g>
     <g id="line2d_44">
      <g>
       <use xlink:href="#m539a1b2365" x="53.328125" y="239.771648" style="stroke: #000000; stroke-width: 0.8"/>
      </g>
     </g>
     <g id="text_26">
      <!-- 1 -->
      <g transform="translate(39.965625 243.570866) scale(0.1 -0.1)">
       <use xlink:href="#DejaVuSans-31"/>
      </g>
     </g>
    </g>
    <g id="ytick_10">
     <g id="line2d_45">
      <path d="M 53.328125 201.890966 
L 1137.358125 201.890966 
" clip-path="url(#p5b5f796e57)" style="fill: none; stroke: #b0b0b0; stroke-width: 0.8; stroke-linecap: square"/>
     </g>
     <g id="line2d_46">
      <g>
       <use xlink:href="#m539a1b2365" x="53.328125" y="201.890966" style="stroke: #000000; stroke-width: 0.8"/>
      </g>
     </g>
     <g id="text_27">
      <!-- 2 -->
      <g transform="translate(39.965625 205.690185) scale(0.1 -0.1)">
       <use xlink:href="#DejaVuSans-32"/>
      </g>
     </g>
    </g>
    <g id="text_28">
     <!-- Inflation Rate -->
     <g transform="translate(25.50625 299.774062) rotate(-90) scale(0.1 -0.1)">
      <defs>
       <path id="DejaVuSans-49" d="M 628 4666 
L 1259 4666 
L 1259 0 
L 628 0 
L 628 4666 
z
" transform="scale(0.015625)"/>
       <path id="DejaVuSans-66" d="M 2375 4863 
L 2375 4384 
L 1825 4384 
Q 1516 4384 1395 4259 
Q 1275 4134 1275 3809 
L 1275 3500 
L 2222 3500 
L 2222 3053 
L 1275 3053 
L 1275 0 
L 697 0 
L 697 3053 
L 147 3053 
L 147 3500 
L 697 3500 
L 697 3744 
Q 697 4328 969 4595 
Q 1241 4863 1831 4863 
L 2375 4863 
z
" transform="scale(0.015625)"/>
       <path id="DejaVuSans-52" d="M 2841 2188 
Q 3044 2119 3236 1894 
Q 3428 1669 3622 1275 
L 4263 0 
L 3584 0 
L 2988 1197 
Q 2756 1666 2539 1819 
Q 2322 1972 1947 1972 
L 1259 1972 
L 1259 0 
L 628 0 
L 628 4666 
L 2053 4666 
Q 2853 4666 3247 4331 
Q 3641 3997 3641 3322 
Q 3641 2881 3436 2590 
Q 3231 2300 2841 2188 
z
M 1259 4147 
L 1259 2491 
L 2053 2491 
Q 2509 2491 2742 2702 
Q 2975 2913 2975 3322 
Q 2975 3731 2742 3939 
Q 2509 4147 2053 4147 
L 1259 4147 
z
" transform="scale(0.015625)"/>
      </defs>
      <use xlink:href="#DejaVuSans-49"/>
      <use xlink:href="#DejaVuSans-6e" transform="translate(29.492188 0)"/>
      <use xlink:href="#DejaVuSans-66" transform="translate(92.871094 0)"/>
      <use xlink:href="#DejaVuSans-6c" transform="translate(128.076172 0)"/>
      <use xlink:href="#DejaVuSans-61" transform="translate(155.859375 0)"/>
      <use xlink:href="#DejaVuSans-74" transform="translate(217.138672 0)"/>
      <use xlink:href="#DejaVuSans-69" transform="translate(256.347656 0)"/>
      <use xlink:href="#DejaVuSans-6f" transform="translate(284.130859 0)"/>
      <use xlink:href="#DejaVuSans-6e" transform="translate(345.3125 0)"/>
      <use xlink:href="#DejaVuSans-20" transform="translate(408.691406 0)"/>
      <use xlink:href="#DejaVuSans-52" transform="translate(440.478516 0)"/>
      <use xlink:href="#DejaVuSans-61" transform="translate(507.710938 0)"/>
      <use xlink:href="#DejaVuSans-74" transform="translate(568.990234 0)"/>
      <use xlink:href="#DejaVuSans-65" transform="translate(608.199219 0)"/>
     </g>
    </g>
   </g>
   <g id="line2d_47">
    <path d="M 102.602216 205.679034 
L 112.466684 315.533011 
L 119.007255 307.956875 
L 122.331152 239.771648 
L 128.871724 281.440398 
L 132.088398 251.135852 
L 141.738421 273.864261 
L 151.602889 296.59267 
L 158.143461 296.59267 
L 168.007929 266.288125 
L 177.872397 266.288125 
L 180.874627 235.98358 
L 184.198524 326.897216 
L 193.955769 311.744943 
L 197.279666 304.168807 
L 207.144134 270.076193 
L 223.334729 300.380739 
L 233.091975 323.109148 
L 236.415872 296.59267 
L 239.739768 251.135852 
L 249.497014 239.771648 
L 259.25426 285.228466 
L 262.578157 266.288125 
L 269.118728 281.440398 
L 272.335403 304.168807 
L 278.983196 251.135852 
L 285.523768 277.65233 
L 288.740442 289.016534 
L 295.388236 254.92392 
L 298.390465 209.467102 
L 301.714362 311.744943 
L 308.254933 285.228466 
L 311.471608 307.956875 
L 314.795505 277.65233 
L 318.119402 270.076193 
L 324.659973 262.500057 
L 327.876647 289.016534 
L 337.526671 258.711989 
L 347.391139 281.440398 
L 353.93171 289.016534 
L 357.255607 266.288125 
L 363.796178 273.864261 
L 367.012853 266.288125 
L 373.660647 251.135852 
L 376.662876 239.771648 
L 386.527344 266.288125 
L 393.067916 243.559716 
L 402.932384 266.288125 
L 412.796852 232.195511 
L 419.230201 304.168807 
L 428.987447 285.228466 
L 432.311343 273.864261 
L 435.63524 281.440398 
L 445.392486 307.956875 
L 458.366406 289.016534 
L 464.906977 289.016534 
L 468.123652 296.59267 
L 474.771446 258.711989 
L 484.528691 266.288125 
L 491.176485 254.92392 
L 494.178715 232.195511 
L 497.502612 304.168807 
L 504.043183 281.440398 
L 507.259857 300.380739 
L 513.907651 254.92392 
L 520.448222 251.135852 
L 523.664897 235.98358 
L 529.026021 249.241818 
L 530.312691 239.771648 
L 533.31492 232.195511 
L 534.387145 258.711989 
L 536.638817 285.228466 
L 538.139932 279.546364 
L 540.927716 273.864261 
L 543.179388 273.864261 
L 544.57328 270.076193 
L 546.396063 266.288125 
L 549.71996 258.711989 
L 550.577739 262.500057 
L 553.043856 266.288125 
L 553.901636 262.500057 
L 557.654423 266.288125 
L 559.584428 273.864261 
L 560.442208 279.546364 
L 562.801102 285.228466 
L 563.658882 275.758295 
L 567.304446 243.559716 
L 569.448896 220.831307 
L 570.306676 251.135852 
L 572.558348 281.440398 
L 573.416128 275.758295 
L 576.740025 275.758295 
L 582.422816 285.228466 
L 586.49727 300.380739 
L 588.963387 287.1225 
L 589.821167 273.864261 
L 597.005073 266.288125 
L 598.827856 273.864261 
L 599.685635 281.440398 
L 606.440652 247.347784 
L 608.692324 243.559716 
L 609.442881 239.771648 
L 611.694553 237.877614 
L 615.01845 273.864261 
L 615.87623 311.744943 
L 619.092904 270.076193 
L 624.775696 289.016534 
L 625.633476 277.65233 
L 628.099593 275.758295 
L 628.957373 273.864261 
L 632.28127 258.711989 
L 636.034056 247.347784 
L 637.964061 260.606023 
L 642.038515 281.440398 
L 645.362412 266.288125 
L 649.222421 239.771648 
L 654.154656 277.65233 
L 655.22688 296.59267 
L 658.22911 289.016534 
L 661.660229 273.864261 
L 663.911901 277.65233 
L 664.769681 281.440398 
L 667.235798 277.65233 
L 671.63192 270.076193 
L 675.277484 258.711989 
L 678.065269 277.65233 
L 680.316941 281.440398 
L 681.281943 285.228466 
L 684.498618 266.288125 
L 687.929737 266.288125 
L 690.931966 232.195511 
L 693.290861 264.394091 
L 694.255863 296.59267 
L 699.831432 285.228466 
L 700.689212 285.228466 
L 703.048107 281.440398 
L 703.905886 277.65233 
L 709.6959 262.500057 
L 710.660903 258.711989 
L 714.306467 273.864261 
L 717.201474 289.016534 
L 719.453146 283.334432 
L 720.310926 277.65233 
L 726.10094 258.711989 
L 727.923722 258.711989 
L 729.210392 237.877614 
L 730.175394 217.043239 
L 732.534289 254.92392 
L 733.606514 292.804602 
L 736.715966 285.228466 
L 739.07486 290.910568 
L 742.291535 289.016534 
L 745.615431 275.758295 
L 746.473211 270.076193 
L 748.939328 271.970227 
L 749.797108 273.864261 
L 753.549895 251.135852 
L 755.4799 266.288125 
L 756.337679 281.440398 
L 758.696574 277.65233 
L 759.554354 273.864261 
L 762.985473 270.076193 
L 766.73826 239.771648 
L 768.346597 262.500057 
L 769.204377 285.228466 
L 771.563272 287.1225 
L 772.849941 289.016534 
L 775.852171 273.864261 
L 778.103843 277.65233 
L 779.068845 281.440398 
L 781.320517 283.334432 
L 782.392742 285.228466 
L 784.644414 279.546364 
L 785.609417 273.864261 
L 787.968311 268.182159 
L 792.900545 258.711989 
L 794.508883 266.288125 
L 795.473885 273.864261 
L 797.725557 275.758295 
L 802.121679 266.288125 
L 804.373351 260.606023 
L 807.37558 243.559716 
L 808.340582 232.195511 
L 811.878924 319.32108 
L 814.988376 285.228466 
L 817.240048 285.228466 
L 821.528948 281.440398 
L 823.78062 273.864261 
L 824.745622 266.288125 
L 827.104517 258.711989 
L 828.176741 251.135852 
L 832.036751 251.135852 
L 833.645088 260.606023 
L 834.61009 270.076193 
L 836.861762 279.546364 
L 841.257884 277.65233 
L 843.509556 268.182159 
L 845.117893 258.711989 
L 846.511786 249.241818 
L 851.01513 292.804602 
L 853.052357 283.334432 
L 854.017359 273.864261 
L 856.376254 275.758295 
L 857.662924 277.65233 
L 860.665153 281.440398 
L 862.916825 271.970227 
L 863.881827 262.500057 
L 867.312947 251.135852 
L 869.457396 247.347784 
L 871.065734 243.559716 
L 872.781293 243.559716 
L 877.070192 262.500057 
L 879.321865 270.076193 
L 880.286867 277.65233 
L 883.717986 224.619375 
L 886.827438 247.347784 
L 889.07911 285.228466 
L 890.151335 323.109148 
L 892.295785 317.427045 
L 893.582454 311.744943 
L 896.691906 307.956875 
L 898.836356 294.698636 
L 899.801358 281.440398 
L 902.160253 268.182159 
L 903.232478 254.92392 
L 905.48415 258.711989 
L 906.449152 262.500057 
L 908.700824 266.288125 
L 910.309161 270.076193 
L 913.096946 289.016534 
L 915.241396 294.698636 
L 916.206398 300.380739 
L 918.565292 275.758295 
L 919.74474 251.135852 
L 922.961414 239.771648 
L 925.963644 254.92392 
L 928.215316 275.758295 
L 929.180318 296.59267 
L 931.43199 292.804602 
L 932.611437 289.016534 
L 934.755887 287.1225 
L 935.720889 285.228466 
L 937.972561 289.016534 
L 938.937564 292.804602 
L 942.261461 266.288125 
L 944.620355 270.076193 
L 945.585358 273.864261 
L 947.83703 275.758295 
L 949.338144 277.65233 
L 952.233151 251.135852 
L 954.377601 256.817955 
L 957.701498 275.758295 
L 958.988168 289.016534 
L 962.740954 262.500057 
L 964.134847 258.711989 
L 964.992626 254.92392 
L 967.351521 266.288125 
L 968.530968 277.65233 
L 971.747643 262.500057 
L 973.892092 273.864261 
L 974.964317 285.228466 
L 977.108767 281.440398 
L 981.504888 258.711989 
L 983.756561 270.076193 
L 984.721563 281.440398 
L 986.973235 276.38964 
L 988.47435 266.288125 
L 990.297132 270.076193 
L 991.262134 273.864261 
L 993.513806 279.546364 
L 994.478809 285.228466 
L 998.124373 277.65233 
L 1000.1616 262.500057 
L 1001.233825 247.347784 
L 1003.271052 271.970227 
L 1004.128832 296.59267 
L 1006.487726 292.804602 
L 1007.667174 289.016534 
L 1010.883848 281.440398 
L 1013.028298 283.334432 
L 1013.9933 285.228466 
L 1017.317197 285.228466 
L 1019.568869 277.65233 
L 1020.533871 270.076193 
L 1022.892766 268.182159 
L 1027.503333 270.076193 
L 1029.433337 275.758295 
L 1030.39834 281.440398 
L 1032.650012 289.016534 
L 1037.260578 273.864261 
L 1039.297805 270.076193 
L 1040.155585 266.288125 
L 1042.51448 253.029886 
L 1046.910602 315.533011 
L 1048.947829 294.698636 
L 1052.271726 277.65233 
L 1053.558395 281.440398 
L 1056.560625 285.228466 
L 1058.812297 271.970227 
L 1059.777299 258.711989 
L 1063.101196 262.500057 
L 1065.352868 270.076193 
L 1072.858442 300.380739 
L 1075.217336 289.016534 
L 1076.182339 277.65233 
L 1078.112343 264.394091 
L 1085.939584 292.804602 
L 1088.084034 292.804602 
L 1088.084034 292.804602 
" clip-path="url(#p5b5f796e57)" style="fill: none; stroke: #ff0000; stroke-width: 1.5; stroke-linecap: square"/>
   </g>
   <g id="patch_9">
    <path d="M 53.328125 332.958125 
L 53.328125 199.618125 
" style="fill: none; stroke: #000000; stroke-width: 0.8; stroke-linejoin: miter; stroke-linecap: square"/>
   </g>
   <g id="patch_10">
    <path d="M 1137.358125 332.958125 
L 1137.358125 199.618125 
" style="fill: none; stroke: #000000; stroke-width: 0.8; stroke-linejoin: miter; stroke-linecap: square"/>
   </g>
   <g id="patch_11">
    <path d="M 53.328125 332.958125 
L 1137.358125 332.958125 
" style="fill: none; stroke: #000000; stroke-width: 0.8; stroke-linejoin: miter; stroke-linecap: square"/>
   </g>
   <g id="patch_12">
    <path d="M 53.328125 199.618125 
L 1137.358125 199.618125 
" style="fill: none; stroke: #000000; stroke-width: 0.8; stroke-linejoin: miter; stroke-linecap: square"/>
   </g>
   <g id="text_29">
    <!-- CPI Inflation Rate (MOM) -->
    <g transform="translate(522.01 193.618125) scale(0.12 -0.12)">
     <defs>
      <path id="DejaVuSans-28" d="M 1984 4856 
Q 1566 4138 1362 3434 
Q 1159 2731 1159 2009 
Q 1159 1288 1364 580 
Q 1569 -128 1984 -844 
L 1484 -844 
Q 1016 -109 783 600 
Q 550 1309 550 2009 
Q 550 2706 781 3412 
Q 1013 4119 1484 4856 
L 1984 4856 
z
" transform="scale(0.015625)"/>
      <path id="DejaVuSans-4d" d="M 628 4666 
L 1569 4666 
L 2759 1491 
L 3956 4666 
L 4897 4666 
L 4897 0 
L 4281 0 
L 4281 4097 
L 3078 897 
L 2444 897 
L 1241 4097 
L 1241 0 
L 628 0 
L 628 4666 
z
" transform="scale(0.015625)"/>
      <path id="DejaVuSans-4f" d="M 2522 4238 
Q 1834 4238 1429 3725 
Q 1025 3213 1025 2328 
Q 1025 1447 1429 934 
Q 1834 422 2522 422 
Q 3209 422 3611 934 
Q 4013 1447 4013 2328 
Q 4013 3213 3611 3725 
Q 3209 4238 2522 4238 
z
M 2522 4750 
Q 3503 4750 4090 4092 
Q 4678 3434 4678 2328 
Q 4678 1225 4090 567 
Q 3503 -91 2522 -91 
Q 1538 -91 948 565 
Q 359 1222 359 2328 
Q 359 3434 948 4092 
Q 1538 4750 2522 4750 
z
" transform="scale(0.015625)"/>
      <path id="DejaVuSans-29" d="M 513 4856 
L 1013 4856 
Q 1481 4119 1714 3412 
Q 1947 2706 1947 2009 
Q 1947 1309 1714 600 
Q 1481 -109 1013 -844 
L 513 -844 
Q 928 -128 1133 580 
Q 1338 1288 1338 2009 
Q 1338 2731 1133 3434 
Q 928 4138 513 4856 
z
" transform="scale(0.015625)"/>
     </defs>
     <use xlink:href="#DejaVuSans-43"/>
     <use xlink:href="#DejaVuSans-50" transform="translate(69.824219 0)"/>
     <use xlink:href="#DejaVuSans-49" transform="translate(130.126953 0)"/>
     <use xlink:href="#DejaVuSans-20" transform="translate(159.619141 0)"/>
     <use xlink:href="#DejaVuSans-49" transform="translate(191.40625 0)"/>
     <use xlink:href="#DejaVuSans-6e" transform="translate(220.898438 0)"/>
     <use xlink:href="#DejaVuSans-66" transform="translate(284.277344 0)"/>
     <use xlink:href="#DejaVuSans-6c" transform="translate(319.482422 0)"/>
     <use xlink:href="#DejaVuSans-61" transform="translate(347.265625 0)"/>
     <use xlink:href="#DejaVuSans-74" transform="translate(408.544922 0)"/>
     <use xlink:href="#DejaVuSans-69" transform="translate(447.753906 0)"/>
     <use xlink:href="#DejaVuSans-6f" transform="translate(475.537109 0)"/>
     <use xlink:href="#DejaVuSans-6e" transform="translate(536.71875 0)"/>
     <use xlink:href="#DejaVuSans-20" transform="translate(600.097656 0)"/>
     <use xlink:href="#DejaVuSans-52" transform="translate(631.884766 0)"/>
     <use xlink:href="#DejaVuSans-61" transform="translate(699.117188 0)"/>
     <use xlink:href="#DejaVuSans-74" transform="translate(760.396484 0)"/>
     <use xlink:href="#DejaVuSans-65" transform="translate(799.605469 0)"/>
     <use xlink:href="#DejaVuSans-20" transform="translate(861.128906 0)"/>
     <use xlink:href="#DejaVuSans-28" transform="translate(892.916016 0)"/>
     <use xlink:href="#DejaVuSans-4d" transform="translate(931.929688 0)"/>
     <use xlink:href="#DejaVuSans-4f" transform="translate(1018.208984 0)"/>
     <use xlink:href="#DejaVuSans-4d" transform="translate(1096.919922 0)"/>
     <use xlink:href="#DejaVuSans-29" transform="translate(1183.199219 0)"/>
    </g>
   </g>
   <g id="legend_2">
    <g id="patch_13">
     <path d="M 1012.245625 222.29625 
L 1130.358125 222.29625 
Q 1132.358125 222.29625 1132.358125 220.29625 
L 1132.358125 206.618125 
Q 1132.358125 204.618125 1130.358125 204.618125 
L 1012.245625 204.618125 
Q 1010.245625 204.618125 1010.245625 206.618125 
L 1010.245625 220.29625 
Q 1010.245625 222.29625 1012.245625 222.29625 
z
" style="fill: #ffffff; opacity: 0.8; stroke: #cccccc; stroke-linejoin: miter"/>
    </g>
    <g id="line2d_48">
     <path d="M 1014.245625 212.716562 
L 1024.245625 212.716562 
L 1034.245625 212.716562 
" style="fill: none; stroke: #ff0000; stroke-width: 1.5; stroke-linecap: square"/>
    </g>
    <g id="text_30">
     <!-- CPI Inflation Rate -->
     <g transform="translate(1042.245625 216.216562) scale(0.1 -0.1)">
      <use xlink:href="#DejaVuSans-43"/>
      <use xlink:href="#DejaVuSans-50" transform="translate(69.824219 0)"/>
      <use xlink:href="#DejaVuSans-49" transform="translate(130.126953 0)"/>
      <use xlink:href="#DejaVuSans-20" transform="translate(159.619141 0)"/>
      <use xlink:href="#DejaVuSans-49" transform="translate(191.40625 0)"/>
      <use xlink:href="#DejaVuSans-6e" transform="translate(220.898438 0)"/>
      <use xlink:href="#DejaVuSans-66" transform="translate(284.277344 0)"/>
      <use xlink:href="#DejaVuSans-6c" transform="translate(319.482422 0)"/>
      <use xlink:href="#DejaVuSans-61" transform="translate(347.265625 0)"/>
      <use xlink:href="#DejaVuSans-74" transform="translate(408.544922 0)"/>
      <use xlink:href="#DejaVuSans-69" transform="translate(447.753906 0)"/>
      <use xlink:href="#DejaVuSans-6f" transform="translate(475.537109 0)"/>
      <use xlink:href="#DejaVuSans-6e" transform="translate(536.71875 0)"/>
      <use xlink:href="#DejaVuSans-20" transform="translate(600.097656 0)"/>
      <use xlink:href="#DejaVuSans-52" transform="translate(631.884766 0)"/>
      <use xlink:href="#DejaVuSans-61" transform="translate(699.117188 0)"/>
      <use xlink:href="#DejaVuSans-74" transform="translate(760.396484 0)"/>
      <use xlink:href="#DejaVuSans-65" transform="translate(799.605469 0)"/>
     </g>
    </g>
   </g>
  </g>
  <g id="axes_3">
   <g id="patch_14">
    <path d="M 53.328125 510.258125 
L 1137.358125 510.258125 
L 1137.358125 376.918125 
L 53.328125 376.918125 
z
" style="fill: #ffffff"/>
   </g>
   <g id="matplotlib.axis_5">
    <g id="xtick_13">
     <g id="line2d_49">
      <path d="M 96.168867 510.258125 
L 96.168867 376.918125 
" clip-path="url(#pfa154c06fb)" style="fill: none; stroke: #b0b0b0; stroke-width: 0.8; stroke-linecap: square"/>
     </g>
     <g id="line2d_50">
      <g>
       <use xlink:href="#m8d124b3455" x="96.168867" y="510.258125" style="stroke: #000000; stroke-width: 0.8"/>
      </g>
     </g>
     <g id="text_31">
      <!-- 2000 -->
      <g transform="translate(83.443867 524.856562) scale(0.1 -0.1)">
       <use xlink:href="#DejaVuSans-32"/>
       <use xlink:href="#DejaVuSans-30" transform="translate(63.623047 0)"/>
       <use xlink:href="#DejaVuSans-30" transform="translate(127.246094 0)"/>
       <use xlink:href="#DejaVuSans-30" transform="translate(190.869141 0)"/>
      </g>
     </g>
    </g>
    <g id="xtick_14">
     <g id="line2d_51">
      <path d="M 292.064339 510.258125 
L 292.064339 376.918125 
" clip-path="url(#pfa154c06fb)" style="fill: none; stroke: #b0b0b0; stroke-width: 0.8; stroke-linecap: square"/>
     </g>
     <g id="line2d_52">
      <g>
       <use xlink:href="#m8d124b3455" x="292.064339" y="510.258125" style="stroke: #000000; stroke-width: 0.8"/>
      </g>
     </g>
     <g id="text_32">
      <!-- 2005 -->
      <g transform="translate(279.339339 524.856562) scale(0.1 -0.1)">
       <use xlink:href="#DejaVuSans-32"/>
       <use xlink:href="#DejaVuSans-30" transform="translate(63.623047 0)"/>
       <use xlink:href="#DejaVuSans-30" transform="translate(127.246094 0)"/>
       <use xlink:href="#DejaVuSans-35" transform="translate(190.869141 0)"/>
      </g>
     </g>
    </g>
    <g id="xtick_15">
     <g id="line2d_53">
      <path d="M 487.852588 510.258125 
L 487.852588 376.918125 
" clip-path="url(#pfa154c06fb)" style="fill: none; stroke: #b0b0b0; stroke-width: 0.8; stroke-linecap: square"/>
     </g>
     <g id="line2d_54">
      <g>
       <use xlink:href="#m8d124b3455" x="487.852588" y="510.258125" style="stroke: #000000; stroke-width: 0.8"/>
      </g>
     </g>
     <g id="text_33">
      <!-- 2010 -->
      <g transform="translate(475.127588 524.856562) scale(0.1 -0.1)">
       <use xlink:href="#DejaVuSans-32"/>
       <use xlink:href="#DejaVuSans-30" transform="translate(63.623047 0)"/>
       <use xlink:href="#DejaVuSans-31" transform="translate(127.246094 0)"/>
       <use xlink:href="#DejaVuSans-30" transform="translate(190.869141 0)"/>
      </g>
     </g>
    </g>
    <g id="xtick_16">
     <g id="line2d_55">
      <path d="M 683.640838 510.258125 
L 683.640838 376.918125 
" clip-path="url(#pfa154c06fb)" style="fill: none; stroke: #b0b0b0; stroke-width: 0.8; stroke-linecap: square"/>
     </g>
     <g id="line2d_56">
      <g>
       <use xlink:href="#m8d124b3455" x="683.640838" y="510.258125" style="stroke: #000000; stroke-width: 0.8"/>
      </g>
     </g>
     <g id="text_34">
      <!-- 2015 -->
      <g transform="translate(670.915838 524.856562) scale(0.1 -0.1)">
       <use xlink:href="#DejaVuSans-32"/>
       <use xlink:href="#DejaVuSans-30" transform="translate(63.623047 0)"/>
       <use xlink:href="#DejaVuSans-31" transform="translate(127.246094 0)"/>
       <use xlink:href="#DejaVuSans-35" transform="translate(190.869141 0)"/>
      </g>
     </g>
    </g>
    <g id="xtick_17">
     <g id="line2d_57">
      <path d="M 879.429087 510.258125 
L 879.429087 376.918125 
" clip-path="url(#pfa154c06fb)" style="fill: none; stroke: #b0b0b0; stroke-width: 0.8; stroke-linecap: square"/>
     </g>
     <g id="line2d_58">
      <g>
       <use xlink:href="#m8d124b3455" x="879.429087" y="510.258125" style="stroke: #000000; stroke-width: 0.8"/>
      </g>
     </g>
     <g id="text_35">
      <!-- 2020 -->
      <g transform="translate(866.704087 524.856562) scale(0.1 -0.1)">
       <use xlink:href="#DejaVuSans-32"/>
       <use xlink:href="#DejaVuSans-30" transform="translate(63.623047 0)"/>
       <use xlink:href="#DejaVuSans-32" transform="translate(127.246094 0)"/>
       <use xlink:href="#DejaVuSans-30" transform="translate(190.869141 0)"/>
      </g>
     </g>
    </g>
    <g id="xtick_18">
     <g id="line2d_59">
      <path d="M 1075.324559 510.258125 
L 1075.324559 376.918125 
" clip-path="url(#pfa154c06fb)" style="fill: none; stroke: #b0b0b0; stroke-width: 0.8; stroke-linecap: square"/>
     </g>
     <g id="line2d_60">
      <g>
       <use xlink:href="#m8d124b3455" x="1075.324559" y="510.258125" style="stroke: #000000; stroke-width: 0.8"/>
      </g>
     </g>
     <g id="text_36">
      <!-- 2025 -->
      <g transform="translate(1062.599559 524.856562) scale(0.1 -0.1)">
       <use xlink:href="#DejaVuSans-32"/>
       <use xlink:href="#DejaVuSans-30" transform="translate(63.623047 0)"/>
       <use xlink:href="#DejaVuSans-32" transform="translate(127.246094 0)"/>
       <use xlink:href="#DejaVuSans-35" transform="translate(190.869141 0)"/>
      </g>
     </g>
    </g>
    <g id="text_37">
     <!-- Date -->
     <g transform="translate(583.392344 538.534687) scale(0.1 -0.1)">
      <use xlink:href="#DejaVuSans-44"/>
      <use xlink:href="#DejaVuSans-61" transform="translate(77.001953 0)"/>
      <use xlink:href="#DejaVuSans-74" transform="translate(138.28125 0)"/>
      <use xlink:href="#DejaVuSans-65" transform="translate(177.490234 0)"/>
     </g>
    </g>
   </g>
   <g id="matplotlib.axis_6">
    <g id="ytick_11">
     <g id="line2d_61">
      <path d="M 53.328125 487.770453 
L 1137.358125 487.770453 
" clip-path="url(#pfa154c06fb)" style="fill: none; stroke: #b0b0b0; stroke-width: 0.8; stroke-linecap: square"/>
     </g>
     <g id="line2d_62">
      <g>
       <use xlink:href="#m539a1b2365" x="53.328125" y="487.770453" style="stroke: #000000; stroke-width: 0.8"/>
      </g>
     </g>
     <g id="text_38">
      <!-- −5 -->
      <g transform="translate(31.585938 491.569672) scale(0.1 -0.1)">
       <use xlink:href="#DejaVuSans-2212"/>
       <use xlink:href="#DejaVuSans-35" transform="translate(83.789062 0)"/>
      </g>
     </g>
    </g>
    <g id="ytick_12">
     <g id="line2d_63">
      <path d="M 53.328125 459.448448 
L 1137.358125 459.448448 
" clip-path="url(#pfa154c06fb)" style="fill: none; stroke: #b0b0b0; stroke-width: 0.8; stroke-linecap: square"/>
     </g>
     <g id="line2d_64">
      <g>
       <use xlink:href="#m539a1b2365" x="53.328125" y="459.448448" style="stroke: #000000; stroke-width: 0.8"/>
      </g>
     </g>
     <g id="text_39">
      <!-- 0 -->
      <g transform="translate(39.965625 463.247667) scale(0.1 -0.1)">
       <use xlink:href="#DejaVuSans-30"/>
      </g>
     </g>
    </g>
    <g id="ytick_13">
     <g id="line2d_65">
      <path d="M 53.328125 431.126443 
L 1137.358125 431.126443 
" clip-path="url(#pfa154c06fb)" style="fill: none; stroke: #b0b0b0; stroke-width: 0.8; stroke-linecap: square"/>
     </g>
     <g id="line2d_66">
      <g>
       <use xlink:href="#m539a1b2365" x="53.328125" y="431.126443" style="stroke: #000000; stroke-width: 0.8"/>
      </g>
     </g>
     <g id="text_40">
      <!-- 5 -->
      <g transform="translate(39.965625 434.925662) scale(0.1 -0.1)">
       <use xlink:href="#DejaVuSans-35"/>
      </g>
     </g>
    </g>
    <g id="ytick_14">
     <g id="line2d_67">
      <path d="M 53.328125 402.804438 
L 1137.358125 402.804438 
" clip-path="url(#pfa154c06fb)" style="fill: none; stroke: #b0b0b0; stroke-width: 0.8; stroke-linecap: square"/>
     </g>
     <g id="line2d_68">
      <g>
       <use xlink:href="#m539a1b2365" x="53.328125" y="402.804438" style="stroke: #000000; stroke-width: 0.8"/>
      </g>
     </g>
     <g id="text_41">
      <!-- 10 -->
      <g transform="translate(33.603125 406.603656) scale(0.1 -0.1)">
       <use xlink:href="#DejaVuSans-31"/>
       <use xlink:href="#DejaVuSans-30" transform="translate(63.623047 0)"/>
      </g>
     </g>
    </g>
    <g id="text_42">
     <!-- Inflation Rate -->
     <g transform="translate(25.50625 477.074062) rotate(-90) scale(0.1 -0.1)">
      <use xlink:href="#DejaVuSans-49"/>
      <use xlink:href="#DejaVuSans-6e" transform="translate(29.492188 0)"/>
      <use xlink:href="#DejaVuSans-66" transform="translate(92.871094 0)"/>
      <use xlink:href="#DejaVuSans-6c" transform="translate(128.076172 0)"/>
      <use xlink:href="#DejaVuSans-61" transform="translate(155.859375 0)"/>
      <use xlink:href="#DejaVuSans-74" transform="translate(217.138672 0)"/>
      <use xlink:href="#DejaVuSans-69" transform="translate(256.347656 0)"/>
      <use xlink:href="#DejaVuSans-6f" transform="translate(284.130859 0)"/>
      <use xlink:href="#DejaVuSans-6e" transform="translate(345.3125 0)"/>
      <use xlink:href="#DejaVuSans-20" transform="translate(408.691406 0)"/>
      <use xlink:href="#DejaVuSans-52" transform="translate(440.478516 0)"/>
      <use xlink:href="#DejaVuSans-61" transform="translate(507.710938 0)"/>
      <use xlink:href="#DejaVuSans-74" transform="translate(568.990234 0)"/>
      <use xlink:href="#DejaVuSans-65" transform="translate(608.199219 0)"/>
     </g>
    </g>
   </g>
   <g id="line2d_69">
    <path d="M 102.602216 453.784047 
L 112.466684 445.287445 
L 119.007255 433.958643 
L 122.331152 437.357284 
L 128.871724 439.056604 
L 132.088398 439.623044 
L 141.738421 454.350487 
L 151.602889 460.581328 
L 158.143461 466.812169 
L 168.007929 477.008091 
L 177.872397 483.238932 
L 180.874627 483.238932 
L 184.198524 482.106052 
L 193.955769 473.60945 
L 197.279666 472.47657 
L 207.144134 465.112849 
L 223.334729 433.392203 
L 233.091975 452.084727 
L 236.415872 451.518286 
L 239.739768 451.518286 
L 249.497014 448.686086 
L 259.25426 439.623044 
L 262.578157 437.357284 
L 269.118728 427.161362 
L 272.335403 423.196281 
L 278.983196 420.930521 
L 285.523768 411.867479 
L 288.740442 413.5668 
L 295.388236 426.594922 
L 298.390465 428.860682 
L 301.714362 427.727802 
L 308.254933 426.028482 
L 311.471608 429.993563 
L 314.795505 429.993563 
L 318.119402 429.427122 
L 324.659973 436.790844 
L 327.876647 441.322365 
L 337.526671 442.455245 
L 347.391139 445.853885 
L 353.93171 439.056604 
L 357.255607 440.189484 
L 363.796178 443.021685 
L 367.012853 443.588125 
L 373.660647 440.755924 
L 376.662876 444.721005 
L 386.527344 443.588125 
L 393.067916 445.853885 
L 402.932384 441.322365 
L 419.230201 414.13324 
L 428.987447 409.601719 
L 432.311343 402.804438 
L 435.63524 402.237998 
L 445.392486 448.119646 
L 458.366406 493.434854 
L 468.123652 503.630776 
L 474.771446 504.197216 
L 484.528691 471.34369 
L 491.176485 435.091523 
L 494.178715 428.860682 
L 497.502612 426.028482 
L 504.043183 419.231201 
L 507.259857 423.196281 
L 513.907651 435.091523 
L 520.448222 431.126443 
L 523.664897 428.011022 
L 529.026021 426.028482 
L 530.312691 424.045941 
L 531.813805 422.063401 
L 533.31492 420.364081 
L 534.387145 418.664761 
L 538.139932 418.09832 
L 540.927716 420.930521 
L 544.57328 420.930521 
L 546.396063 420.080861 
L 549.71996 418.09832 
L 550.577739 416.96544 
L 553.043856 417.53188 
L 553.901636 418.09832 
L 557.654423 422.629841 
L 559.584428 426.878142 
L 560.442208 431.126443 
L 562.801102 437.640504 
L 563.658882 444.154565 
L 567.304446 449.818966 
L 569.448896 452.651167 
L 570.306676 455.483367 
L 572.558348 457.465907 
L 573.416128 459.448448 
L 576.740025 461.147768 
L 580.171144 463.413529 
L 582.422816 465.396069 
L 586.49727 471.34369 
L 588.963387 473.60945 
L 589.821167 475.875211 
L 597.005073 479.840292 
L 598.827856 477.574531 
L 599.685635 475.308771 
L 606.440652 470.21081 
L 608.692324 469.36115 
L 609.442881 468.511489 
L 611.694553 468.511489 
L 615.01845 469.36115 
L 615.87623 470.21081 
L 619.092904 474.175891 
L 624.775696 475.308771 
L 625.633476 474.742331 
L 628.099593 473.60945 
L 628.957373 472.47657 
L 632.28127 468.511489 
L 636.034056 466.812169 
L 637.964061 467.378609 
L 645.362412 467.378609 
L 649.222421 468.511489 
L 654.154656 471.62691 
L 655.22688 472.47657 
L 658.22911 470.77725 
L 661.660229 467.378609 
L 663.911901 466.528949 
L 664.769681 465.679289 
L 667.235798 465.112849 
L 670.559695 465.396069 
L 671.63192 466.245729 
L 675.277484 469.64437 
L 678.065269 471.91013 
L 680.316941 473.32623 
L 681.281943 474.742331 
L 684.498618 478.140971 
L 687.929737 483.805372 
L 690.931966 486.637573 
L 693.290861 486.071133 
L 694.255863 485.504693 
L 700.689212 485.504693 
L 703.048107 486.071133 
L 703.905886 486.637573 
L 709.6959 491.452314 
L 710.660903 492.868414 
L 720.310926 492.868414 
L 726.10094 491.169094 
L 729.210392 488.336893 
L 730.175394 487.204013 
L 732.534289 485.504693 
L 736.715966 478.707411 
L 742.291535 474.742331 
L 745.615431 471.62691 
L 746.473211 469.07793 
L 748.939328 466.528949 
L 749.797108 463.979969 
L 753.549895 458.882008 
L 755.4799 455.766587 
L 756.337679 452.651167 
L 758.696574 446.703546 
L 759.554354 440.755924 
L 762.985473 428.294242 
L 766.73826 420.364081 
L 768.346597 417.8151 
L 769.204377 415.26612 
L 771.563272 415.83256 
L 772.849941 416.399 
L 775.852171 423.196281 
L 778.103843 425.745262 
L 779.068845 428.294242 
L 785.609417 428.294242 
L 787.968311 426.028482 
L 792.900545 420.364081 
L 795.473885 420.364081 
L 797.725557 423.479501 
L 802.121679 431.692883 
L 804.373351 433.392203 
L 805.338353 435.091523 
L 807.37558 436.790844 
L 808.340582 438.490164 
L 811.878924 441.888805 
L 814.988376 440.189484 
L 817.240048 438.206944 
L 821.528948 432.825763 
L 823.78062 433.108983 
L 824.745622 433.392203 
L 827.104517 434.808303 
L 828.176741 436.224404 
L 832.036751 439.056604 
L 833.645088 439.906264 
L 834.61009 440.755924 
L 836.861762 442.455245 
L 841.257884 454.350487 
L 843.509556 456.616247 
L 845.117893 458.882008 
L 846.511786 458.882008 
L 851.01513 457.182687 
L 853.052357 455.766587 
L 854.017359 454.350487 
L 856.376254 455.200147 
L 857.662924 456.049807 
L 860.665153 459.448448 
L 862.916825 460.298108 
L 863.881827 461.147768 
L 867.312947 463.979969 
L 869.457396 465.112849 
L 872.781293 467.378609 
L 877.070192 467.378609 
L 879.321865 464.829629 
L 880.286867 462.280648 
L 883.717986 458.882008 
L 886.827438 461.714208 
L 889.07911 464.829629 
L 890.151335 467.945049 
L 892.295785 472.47657 
L 893.582454 477.008091 
L 896.691906 480.406732 
L 898.836356 478.424191 
L 899.801358 476.441651 
L 902.160253 474.742331 
L 903.232478 473.04301 
L 905.48415 471.91013 
L 906.449152 470.77725 
L 910.309161 471.34369 
L 913.096946 471.34369 
L 915.241396 469.64437 
L 916.206398 467.945049 
L 918.565292 464.829629 
L 919.74474 461.714208 
L 922.961414 457.749128 
L 925.963644 449.818966 
L 928.215316 442.172025 
L 929.180318 434.525083 
L 931.43199 427.727802 
L 932.611437 420.930521 
L 934.755887 414.69968 
L 935.720889 408.468839 
L 937.972561 409.035279 
L 938.937564 409.601719 
L 942.261461 408.468839 
L 944.620355 407.052738 
L 947.83703 402.237998 
L 949.338144 398.839357 
L 952.233151 382.979034 
L 954.377601 384.678354 
L 955.342603 386.377675 
L 957.701498 393.741396 
L 958.988168 401.105117 
L 962.740954 407.902399 
L 964.134847 408.752059 
L 964.992626 409.601719 
L 967.351521 411.017819 
L 968.530968 412.433919 
L 971.747643 414.13324 
L 973.892092 418.664761 
L 974.964317 423.196281 
L 977.108767 424.045941 
L 981.504888 435.657964 
L 983.756561 441.039145 
L 984.721563 446.420326 
L 986.973235 449.063713 
L 990.297132 460.581328 
L 991.262134 466.812169 
L 994.478809 466.812169 
L 998.124373 463.413529 
L 1000.1616 463.696749 
L 1001.233825 463.979969 
L 1003.271052 465.679289 
L 1004.128832 467.378609 
L 1006.487726 470.49403 
L 1007.667174 473.60945 
L 1010.883848 479.840292 
L 1013.028298 482.672492 
L 1013.9933 485.504693 
L 1016.244972 487.770453 
L 1017.317197 490.036213 
L 1019.568869 487.204013 
L 1020.533871 484.371812 
L 1022.892766 480.406732 
L 1027.503333 473.60945 
L 1029.433337 473.89267 
L 1030.39834 474.175891 
L 1032.650012 475.308771 
L 1037.260578 474.742331 
L 1039.297805 474.175891 
L 1040.155585 473.60945 
L 1046.910602 475.308771 
L 1048.947829 474.459111 
L 1052.271726 470.49403 
L 1053.558395 467.378609 
L 1056.560625 463.979969 
L 1059.777299 463.979969 
L 1063.101196 469.64437 
L 1065.352868 472.47657 
L 1068.676765 475.591991 
L 1072.858442 473.60945 
L 1075.217336 473.04301 
L 1076.182339 472.47657 
L 1078.112343 472.47657 
L 1084.86736 472.75979 
L 1085.939584 473.60945 
L 1088.084034 473.60945 
L 1088.084034 473.60945 
" clip-path="url(#pfa154c06fb)" style="fill: none; stroke: #008000; stroke-width: 1.5; stroke-linecap: square"/>
   </g>
   <g id="patch_15">
    <path d="M 53.328125 510.258125 
L 53.328125 376.918125 
" style="fill: none; stroke: #000000; stroke-width: 0.8; stroke-linejoin: miter; stroke-linecap: square"/>
   </g>
   <g id="patch_16">
    <path d="M 1137.358125 510.258125 
L 1137.358125 376.918125 
" style="fill: none; stroke: #000000; stroke-width: 0.8; stroke-linejoin: miter; stroke-linecap: square"/>
   </g>
   <g id="patch_17">
    <path d="M 53.328125 510.258125 
L 1137.358125 510.258125 
" style="fill: none; stroke: #000000; stroke-width: 0.8; stroke-linejoin: miter; stroke-linecap: square"/>
   </g>
   <g id="patch_18">
    <path d="M 53.328125 376.918125 
L 1137.358125 376.918125 
" style="fill: none; stroke: #000000; stroke-width: 0.8; stroke-linejoin: miter; stroke-linecap: square"/>
   </g>
   <g id="text_43">
    <!-- PPI Inflation Rate (YOY) -->
    <g transform="translate(526.26625 370.918125) scale(0.12 -0.12)">
     <defs>
      <path id="DejaVuSans-59" d="M -13 4666 
L 666 4666 
L 1959 2747 
L 3244 4666 
L 3922 4666 
L 2272 2222 
L 2272 0 
L 1638 0 
L 1638 2222 
L -13 4666 
z
" transform="scale(0.015625)"/>
     </defs>
     <use xlink:href="#DejaVuSans-50"/>
     <use xlink:href="#DejaVuSans-50" transform="translate(60.302734 0)"/>
     <use xlink:href="#DejaVuSans-49" transform="translate(120.605469 0)"/>
     <use xlink:href="#DejaVuSans-20" transform="translate(150.097656 0)"/>
     <use xlink:href="#DejaVuSans-49" transform="translate(181.884766 0)"/>
     <use xlink:href="#DejaVuSans-6e" transform="translate(211.376953 0)"/>
     <use xlink:href="#DejaVuSans-66" transform="translate(274.755859 0)"/>
     <use xlink:href="#DejaVuSans-6c" transform="translate(309.960938 0)"/>
     <use xlink:href="#DejaVuSans-61" transform="translate(337.744141 0)"/>
     <use xlink:href="#DejaVuSans-74" transform="translate(399.023438 0)"/>
     <use xlink:href="#DejaVuSans-69" transform="translate(438.232422 0)"/>
     <use xlink:href="#DejaVuSans-6f" transform="translate(466.015625 0)"/>
     <use xlink:href="#DejaVuSans-6e" transform="translate(527.197266 0)"/>
     <use xlink:href="#DejaVuSans-20" transform="translate(590.576172 0)"/>
     <use xlink:href="#DejaVuSans-52" transform="translate(622.363281 0)"/>
     <use xlink:href="#DejaVuSans-61" transform="translate(689.595703 0)"/>
     <use xlink:href="#DejaVuSans-74" transform="translate(750.875 0)"/>
     <use xlink:href="#DejaVuSans-65" transform="translate(790.083984 0)"/>
     <use xlink:href="#DejaVuSans-20" transform="translate(851.607422 0)"/>
     <use xlink:href="#DejaVuSans-28" transform="translate(883.394531 0)"/>
     <use xlink:href="#DejaVuSans-59" transform="translate(922.408203 0)"/>
     <use xlink:href="#DejaVuSans-4f" transform="translate(977.992188 0)"/>
     <use xlink:href="#DejaVuSans-59" transform="translate(1051.203125 0)"/>
     <use xlink:href="#DejaVuSans-29" transform="translate(1112.287109 0)"/>
    </g>
   </g>
   <g id="legend_3">
    <g id="patch_19">
     <path d="M 1013.19875 399.59625 
L 1130.358125 399.59625 
Q 1132.358125 399.59625 1132.358125 397.59625 
L 1132.358125 383.918125 
Q 1132.358125 381.918125 1130.358125 381.918125 
L 1013.19875 381.918125 
Q 1011.19875 381.918125 1011.19875 383.918125 
L 1011.19875 397.59625 
Q 1011.19875 399.59625 1013.19875 399.59625 
z
" style="fill: #ffffff; opacity: 0.8; stroke: #cccccc; stroke-linejoin: miter"/>
    </g>
    <g id="line2d_70">
     <path d="M 1015.19875 390.016562 
L 1025.19875 390.016562 
L 1035.19875 390.016562 
" style="fill: none; stroke: #008000; stroke-width: 1.5; stroke-linecap: square"/>
    </g>
    <g id="text_44">
     <!-- PPI Inflation Rate -->
     <g transform="translate(1043.19875 393.516562) scale(0.1 -0.1)">
      <use xlink:href="#DejaVuSans-50"/>
      <use xlink:href="#DejaVuSans-50" transform="translate(60.302734 0)"/>
      <use xlink:href="#DejaVuSans-49" transform="translate(120.605469 0)"/>
      <use xlink:href="#DejaVuSans-20" transform="translate(150.097656 0)"/>
      <use xlink:href="#DejaVuSans-49" transform="translate(181.884766 0)"/>
      <use xlink:href="#DejaVuSans-6e" transform="translate(211.376953 0)"/>
      <use xlink:href="#DejaVuSans-66" transform="translate(274.755859 0)"/>
      <use xlink:href="#DejaVuSans-6c" transform="translate(309.960938 0)"/>
      <use xlink:href="#DejaVuSans-61" transform="translate(337.744141 0)"/>
      <use xlink:href="#DejaVuSans-74" transform="translate(399.023438 0)"/>
      <use xlink:href="#DejaVuSans-69" transform="translate(438.232422 0)"/>
      <use xlink:href="#DejaVuSans-6f" transform="translate(466.015625 0)"/>
      <use xlink:href="#DejaVuSans-6e" transform="translate(527.197266 0)"/>
      <use xlink:href="#DejaVuSans-20" transform="translate(590.576172 0)"/>
      <use xlink:href="#DejaVuSans-52" transform="translate(622.363281 0)"/>
      <use xlink:href="#DejaVuSans-61" transform="translate(689.595703 0)"/>
      <use xlink:href="#DejaVuSans-74" transform="translate(750.875 0)"/>
      <use xlink:href="#DejaVuSans-65" transform="translate(790.083984 0)"/>
     </g>
    </g>
   </g>
  </g>
  <g id="axes_4">
   <g id="patch_20">
    <path d="M 53.328125 687.558125 
L 1137.358125 687.558125 
L 1137.358125 554.218125 
L 53.328125 554.218125 
z
" style="fill: #ffffff"/>
   </g>
   <g id="matplotlib.axis_7">
    <g id="xtick_19">
     <g id="line2d_71">
      <g>
       <use xlink:href="#m8d124b3455" x="94.707657" y="687.558125" style="stroke: #000000; stroke-width: 0.8"/>
      </g>
     </g>
     <g id="text_45">
      <!-- 2005 -->
      <g transform="translate(81.982657 702.156562) scale(0.1 -0.1)">
       <use xlink:href="#DejaVuSans-32"/>
       <use xlink:href="#DejaVuSans-30" transform="translate(63.623047 0)"/>
       <use xlink:href="#DejaVuSans-30" transform="translate(127.246094 0)"/>
       <use xlink:href="#DejaVuSans-35" transform="translate(190.869141 0)"/>
      </g>
     </g>
    </g>
    <g id="xtick_20">
     <g id="line2d_72">
      <g>
       <use xlink:href="#m8d124b3455" x="339.037569" y="687.558125" style="stroke: #000000; stroke-width: 0.8"/>
      </g>
     </g>
     <g id="text_46">
      <!-- 2010 -->
      <g transform="translate(326.312569 702.156562) scale(0.1 -0.1)">
       <use xlink:href="#DejaVuSans-32"/>
       <use xlink:href="#DejaVuSans-30" transform="translate(63.623047 0)"/>
       <use xlink:href="#DejaVuSans-31" transform="translate(127.246094 0)"/>
       <use xlink:href="#DejaVuSans-30" transform="translate(190.869141 0)"/>
      </g>
     </g>
    </g>
    <g id="xtick_21">
     <g id="line2d_73">
      <g>
       <use xlink:href="#m8d124b3455" x="583.36748" y="687.558125" style="stroke: #000000; stroke-width: 0.8"/>
      </g>
     </g>
     <g id="text_47">
      <!-- 2015 -->
      <g transform="translate(570.64248 702.156562) scale(0.1 -0.1)">
       <use xlink:href="#DejaVuSans-32"/>
       <use xlink:href="#DejaVuSans-30" transform="translate(63.623047 0)"/>
       <use xlink:href="#DejaVuSans-31" transform="translate(127.246094 0)"/>
       <use xlink:href="#DejaVuSans-35" transform="translate(190.869141 0)"/>
      </g>
     </g>
    </g>
    <g id="xtick_22">
     <g id="line2d_74">
      <g>
       <use xlink:href="#m8d124b3455" x="827.697392" y="687.558125" style="stroke: #000000; stroke-width: 0.8"/>
      </g>
     </g>
     <g id="text_48">
      <!-- 2020 -->
      <g transform="translate(814.972392 702.156562) scale(0.1 -0.1)">
       <use xlink:href="#DejaVuSans-32"/>
       <use xlink:href="#DejaVuSans-30" transform="translate(63.623047 0)"/>
       <use xlink:href="#DejaVuSans-32" transform="translate(127.246094 0)"/>
       <use xlink:href="#DejaVuSans-30" transform="translate(190.869141 0)"/>
      </g>
     </g>
    </g>
    <g id="xtick_23">
     <g id="line2d_75">
      <g>
       <use xlink:href="#m8d124b3455" x="1072.16111" y="687.558125" style="stroke: #000000; stroke-width: 0.8"/>
      </g>
     </g>
     <g id="text_49">
      <!-- 2025 -->
      <g transform="translate(1059.43611 702.156562) scale(0.1 -0.1)">
       <use xlink:href="#DejaVuSans-32"/>
       <use xlink:href="#DejaVuSans-30" transform="translate(63.623047 0)"/>
       <use xlink:href="#DejaVuSans-32" transform="translate(127.246094 0)"/>
       <use xlink:href="#DejaVuSans-35" transform="translate(190.869141 0)"/>
      </g>
     </g>
    </g>
    <g id="text_50">
     <!-- Date -->
     <g transform="translate(583.392344 715.834687) scale(0.1 -0.1)">
      <use xlink:href="#DejaVuSans-44"/>
      <use xlink:href="#DejaVuSans-61" transform="translate(77.001953 0)"/>
      <use xlink:href="#DejaVuSans-74" transform="translate(138.28125 0)"/>
      <use xlink:href="#DejaVuSans-65" transform="translate(177.490234 0)"/>
     </g>
    </g>
   </g>
   <g id="matplotlib.axis_8">
    <g id="ytick_15">
     <g id="line2d_76">
      <g>
       <use xlink:href="#m539a1b2365" x="53.328125" y="652.281108" style="stroke: #000000; stroke-width: 0.8"/>
      </g>
     </g>
     <g id="text_51">
      <!-- 0.0 -->
      <g transform="translate(30.425 656.080326) scale(0.1 -0.1)">
       <defs>
        <path id="DejaVuSans-2e" d="M 684 794 
L 1344 794 
L 1344 0 
L 684 0 
L 684 794 
z
" transform="scale(0.015625)"/>
       </defs>
       <use xlink:href="#DejaVuSans-30"/>
       <use xlink:href="#DejaVuSans-2e" transform="translate(63.623047 0)"/>
       <use xlink:href="#DejaVuSans-30" transform="translate(95.410156 0)"/>
      </g>
     </g>
    </g>
    <g id="ytick_16">
     <g id="line2d_77">
      <g>
       <use xlink:href="#m539a1b2365" x="53.328125" y="611.980813" style="stroke: #000000; stroke-width: 0.8"/>
      </g>
     </g>
     <g id="text_52">
      <!-- 0.2 -->
      <g transform="translate(30.425 615.780032) scale(0.1 -0.1)">
       <use xlink:href="#DejaVuSans-30"/>
       <use xlink:href="#DejaVuSans-2e" transform="translate(63.623047 0)"/>
       <use xlink:href="#DejaVuSans-32" transform="translate(95.410156 0)"/>
      </g>
     </g>
    </g>
    <g id="ytick_17">
     <g id="line2d_78">
      <g>
       <use xlink:href="#m539a1b2365" x="53.328125" y="571.680518" style="stroke: #000000; stroke-width: 0.8"/>
      </g>
     </g>
     <g id="text_53">
      <!-- 0.4 -->
      <g transform="translate(30.425 575.479737) scale(0.1 -0.1)">
       <use xlink:href="#DejaVuSans-30"/>
       <use xlink:href="#DejaVuSans-2e" transform="translate(63.623047 0)"/>
       <use xlink:href="#DejaVuSans-34" transform="translate(95.410156 0)"/>
      </g>
     </g>
    </g>
    <g id="text_54">
     <!-- Value -->
     <g transform="translate(24.345313 634.619375) rotate(-90) scale(0.1 -0.1)">
      <defs>
       <path id="DejaVuSans-56" d="M 1831 0 
L 50 4666 
L 709 4666 
L 2188 738 
L 3669 4666 
L 4325 4666 
L 2547 0 
L 1831 0 
z
" transform="scale(0.015625)"/>
       <path id="DejaVuSans-75" d="M 544 1381 
L 544 3500 
L 1119 3500 
L 1119 1403 
Q 1119 906 1312 657 
Q 1506 409 1894 409 
Q 2359 409 2629 706 
Q 2900 1003 2900 1516 
L 2900 3500 
L 3475 3500 
L 3475 0 
L 2900 0 
L 2900 538 
Q 2691 219 2414 64 
Q 2138 -91 1772 -91 
Q 1169 -91 856 284 
Q 544 659 544 1381 
z
M 1991 3584 
L 1991 3584 
z
" transform="scale(0.015625)"/>
      </defs>
      <use xlink:href="#DejaVuSans-56"/>
      <use xlink:href="#DejaVuSans-61" transform="translate(60.658203 0)"/>
      <use xlink:href="#DejaVuSans-6c" transform="translate(121.9375 0)"/>
      <use xlink:href="#DejaVuSans-75" transform="translate(149.720703 0)"/>
      <use xlink:href="#DejaVuSans-65" transform="translate(213.099609 0)"/>
     </g>
    </g>
   </g>
   <g id="line2d_79">
    <path d="M 102.602216 653.017859 
L 106.750205 639.710374 
L 114.912376 665.785616 
L 118.926558 656.85203 
L 123.074547 654.619616 
L 127.222536 646.366192 
L 135.384707 655.938122 
L 139.398889 652.281108 
L 151.441437 652.281108 
L 163.751597 663.726114 
L 171.913768 658.612947 
L 176.061757 649.589294 
L 184.223928 660.411869 
L 188.23811 650.070854 
L 196.534088 651.177997 
L 200.280658 659.595136 
L 212.590818 662.253024 
L 220.752989 656.717837 
L 233.063149 662.697405 
L 245.373309 660.66182 
L 253.401674 633.413929 
L 265.578028 657.195778 
L 269.726016 666.23121 
L 273.874005 652.281108 
L 286.050359 678.485335 
L 302.240895 638.299373 
L 310.403066 653.787661 
L 314.417249 651.901632 
L 322.713226 649.634747 
L 334.88958 652.281108 
L 343.185557 655.129185 
L 346.932128 666.00343 
L 351.080116 640.26852 
L 359.242288 658.792825 
L 363.25647 659.010285 
L 371.552447 650.31332 
L 379.714619 648.910265 
L 383.728801 650.43923 
L 390.419105 656.523077 
L 395.771349 654.947479 
L 397.10941 651.298184 
L 399.919337 647.64889 
L 401.792623 650.908358 
L 405.271581 654.938562 
L 409.820988 656.126469 
L 412.095691 656.543639 
L 417.314129 652.279546 
L 421.462117 651.289853 
L 426.14533 653.261522 
L 428.55384 655.429568 
L 429.624288 656.65397 
L 432.568022 657.878371 
L 433.638471 652.406761 
L 438.187878 649.20753 
L 440.864 651.479909 
L 441.934448 650.882976 
L 444.744376 650.286044 
L 445.814825 647.135016 
L 449.962813 647.753073 
L 454.244608 657.38338 
L 457.054536 663.244603 
L 462.139167 652.881611 
L 465.216707 652.682505 
L 466.287156 654.2917 
L 475.252163 650.243197 
L 477.526867 650.662622 
L 478.597316 650.66907 
L 487.027099 652.679332 
L 490.773669 653.279039 
L 493.583597 653.480521 
L 497.731586 649.063519 
L 498.802034 651.266129 
L 502.816217 652.476699 
L 509.90794 655.057703 
L 510.978388 653.267207 
L 514.055928 651.476711 
L 515.126377 650.476811 
L 519.274366 650.68146 
L 523.957578 651.492066 
L 526.366088 651.098125 
L 531.450719 653.06516 
L 535.598708 654.052912 
L 540.415727 653.867379 
L 546.570807 651.87971 
L 547.908868 651.880109 
L 551.655438 651.281199 
L 555.937233 651.084842 
L 558.747161 651.487795 
L 559.817609 650.501598 
L 562.895149 649.515401 
L 567.043138 654.619616 
L 568.381199 653.450362 
L 572.930606 652.872599 
L 576.409564 653.86424 
L 579.219492 654.26439 
L 580.423746 653.673348 
L 584.437929 653.285005 
L 588.719724 652.682095 
L 592.466294 651.674986 
L 595.410028 651.473487 
L 596.614283 651.877297 
L 603.572199 651.878909 
L 604.642648 652.080008 
L 607.586382 652.281108 
L 608.65683 652.682505 
L 615.882359 653.490117 
L 617.086614 652.682894 
L 621.636021 652.07839 
L 628.058713 653.090351 
L 629.129162 652.482603 
L 638.629394 653.705057 
L 640.235067 653.912699 
L 641.439321 650.629538 
L 644.383055 647.346378 
L 645.721116 650.014441 
L 649.601493 652.481806 
L 652.545226 652.281108 
L 656.559409 652.683306 
L 660.707398 652.684111 
L 661.777846 651.473083 
L 664.855386 650.262055 
L 665.925835 651.271581 
L 670.609048 650.68189 
L 673.017558 649.082672 
L 674.088006 649.697996 
L 677.03174 650.31332 
L 678.102189 651.881841 
L 682.383983 653.061748 
L 687.067196 651.887935 
L 689.074288 651.102737 
L 690.144736 651.301415 
L 693.08847 651.500094 
L 694.694143 653.057598 
L 698.440714 653.448105 
L 701.250642 652.281108 
L 702.454896 651.297214 
L 705.264824 650.31332 
L 706.602885 651.881841 
L 709.412813 653.450362 
L 710.617067 652.277696 
L 713.560801 651.105029 
L 719.715881 652.455157 
L 721.722973 655.357466 
L 722.927227 653.42878 
L 725.737155 651.500094 
L 731.223205 653.255867 
L 734.033132 653.452628 
L 735.237387 654.83082 
L 737.779703 656.209012 
L 738.983958 651.841464 
L 743.399558 650.073144 
L 747.279935 651.496675 
L 750.089863 650.320977 
L 755.442106 653.644504 
L 758.252034 653.454903 
L 759.456289 652.671226 
L 762.400022 651.88755 
L 763.738083 653.066305 
L 768.555102 654.453053 
L 770.562194 654.661046 
L 771.766448 653.872474 
L 774.576376 653.083902 
L 780.062426 653.286168 
L 782.872354 651.87321 
L 786.618924 653.502329 
L 792.23878 650.41702 
L 794.781095 653.877159 
L 795.98535 654.486828 
L 798.929084 655.096498 
L 800.534757 653.688803 
L 804.281327 651.669261 
L 807.091255 651.057415 
L 808.29551 652.074697 
L 812.577304 652.075933 
L 815.253426 651.059887 
L 819.401415 654.304215 
L 824.753658 650.441845 
L 827.563586 652.281108 
L 828.767841 652.682505 
L 833.049636 681.497216 
L 836.930012 635.094782 
L 839.73994 560.279034 
L 841.078001 608.605088 
L 843.754122 656.931142 
L 845.359795 655.002781 
L 849.240172 652.080428 
L 851.916294 651.086435 
L 853.120548 651.287894 
L 856.064282 651.489353 
L 857.402343 652.082394 
L 860.212271 652.675435 
L 861.416526 651.490519 
L 864.226453 650.305603 
L 866.233545 651.488988 
L 869.712503 651.104648 
L 872.388625 649.536924 
L 873.592879 651.295775 
L 878.00848 653.832615 
L 882.022663 654.820623 
L 885.769233 651.067416 
L 888.579161 647.104192 
L 889.783416 651.245648 
L 892.593343 655.387103 
L 894.06521 654.031269 
L 896.741332 652.675435 
L 900.755515 652.676209 
L 901.959769 653.468351 
L 906.107758 653.870507 
L 909.051492 653.480521 
L 910.255747 653.886311 
L 913.065675 654.2921 
L 914.93896 654.09911 
L 918.551724 651.250612 
L 921.227846 648.595105 
L 922.4321 650.035908 
L 926.981507 652.279509 
L 931.66472 652.080008 
L 933.404199 651.878909 
L 934.474648 653.484899 
L 937.418382 655.090889 
L 938.890249 657.960272 
L 942.904432 651.879187 
L 945.580553 642.928719 
L 946.918614 646.386154 
L 949.594736 649.84359 
L 955.080785 653.867037 
L 957.890713 650.636198 
L 959.094968 650.031011 
L 961.904896 649.425824 
L 963.778181 654.091001 
L 966.052884 655.900895 
L 967.257139 656.548336 
L 970.067067 657.195778 
L 971.271322 656.837416 
L 975.820729 647.73482 
L 978.363044 638.990585 
L 979.701105 640.608364 
L 982.243421 642.226144 
L 983.313869 648.594415 
L 986.257603 654.962686 
L 987.72947 658.863265 
L 991.743653 658.341587 
L 994.419774 653.919331 
L 995.624029 652.687307 
L 998.433957 651.455282 
L 999.772018 651.251354 
L 1002.581946 651.047425 
L 1003.7862 650.846816 
L 1006.729934 650.646207 
L 1012.483596 652.67241 
L 1014.892105 655.090889 
L 1016.09636 653.889535 
L 1018.906288 652.688181 
L 1024.65995 652.685676 
L 1027.202265 651.458653 
L 1028.272714 652.074658 
L 1031.216448 652.690664 
L 1036.702497 649.586106 
L 1039.244813 653.867734 
L 1043.392802 655.879348 
L 1044.998475 654.080228 
L 1048.745045 652.484645 
L 1051.554973 652.688181 
L 1052.759228 653.096491 
L 1056.907216 651.456589 
L 1059.717144 649.408378 
L 1063.865133 651.067243 
L 1069.08357 652.279509 
L 1072.027304 653.082306 
L 1075.640068 656.303093 
L 1084.069852 651.076916 
L 1085.407912 651.679012 
L 1088.084034 652.281108 
L 1088.084034 652.281108 
" clip-path="url(#pa6b8f2b252)" style="fill: none; stroke: #800080; stroke-width: 1.5; stroke-linecap: square"/>
   </g>
   <g id="patch_21">
    <path d="M 53.328125 687.558125 
L 53.328125 554.218125 
" style="fill: none; stroke: #000000; stroke-width: 0.8; stroke-linejoin: miter; stroke-linecap: square"/>
   </g>
   <g id="patch_22">
    <path d="M 1137.358125 687.558125 
L 1137.358125 554.218125 
" style="fill: none; stroke: #000000; stroke-width: 0.8; stroke-linejoin: miter; stroke-linecap: square"/>
   </g>
   <g id="patch_23">
    <path d="M 53.328125 687.558125 
L 1137.358125 687.558125 
" style="fill: none; stroke: #000000; stroke-width: 0.8; stroke-linejoin: miter; stroke-linecap: square"/>
   </g>
   <g id="patch_24">
    <path d="M 53.328125 554.218125 
L 1137.358125 554.218125 
" style="fill: none; stroke: #000000; stroke-width: 0.8; stroke-linejoin: miter; stroke-linecap: square"/>
   </g>
   <g id="text_55">
    <!-- PMI Change(MOM) -->
    <g transform="translate(540.140312 548.218125) scale(0.12 -0.12)">
     <defs>
      <path id="DejaVuSans-68" d="M 3513 2113 
L 3513 0 
L 2938 0 
L 2938 2094 
Q 2938 2591 2744 2837 
Q 2550 3084 2163 3084 
Q 1697 3084 1428 2787 
Q 1159 2491 1159 1978 
L 1159 0 
L 581 0 
L 581 4863 
L 1159 4863 
L 1159 2956 
Q 1366 3272 1645 3428 
Q 1925 3584 2291 3584 
Q 2894 3584 3203 3211 
Q 3513 2838 3513 2113 
z
" transform="scale(0.015625)"/>
     </defs>
     <use xlink:href="#DejaVuSans-50"/>
     <use xlink:href="#DejaVuSans-4d" transform="translate(60.302734 0)"/>
     <use xlink:href="#DejaVuSans-49" transform="translate(146.582031 0)"/>
     <use xlink:href="#DejaVuSans-20" transform="translate(176.074219 0)"/>
     <use xlink:href="#DejaVuSans-43" transform="translate(207.861328 0)"/>
     <use xlink:href="#DejaVuSans-68" transform="translate(277.685547 0)"/>
     <use xlink:href="#DejaVuSans-61" transform="translate(341.064453 0)"/>
     <use xlink:href="#DejaVuSans-6e" transform="translate(402.34375 0)"/>
     <use xlink:href="#DejaVuSans-67" transform="translate(465.722656 0)"/>
     <use xlink:href="#DejaVuSans-65" transform="translate(529.199219 0)"/>
     <use xlink:href="#DejaVuSans-28" transform="translate(590.722656 0)"/>
     <use xlink:href="#DejaVuSans-4d" transform="translate(629.736328 0)"/>
     <use xlink:href="#DejaVuSans-4f" transform="translate(716.015625 0)"/>
     <use xlink:href="#DejaVuSans-4d" transform="translate(794.726562 0)"/>
     <use xlink:href="#DejaVuSans-29" transform="translate(881.005859 0)"/>
    </g>
   </g>
   <g id="legend_4">
    <g id="patch_25">
     <path d="M 1080.750313 576.89625 
L 1130.358125 576.89625 
Q 1132.358125 576.89625 1132.358125 574.89625 
L 1132.358125 561.218125 
Q 1132.358125 559.218125 1130.358125 559.218125 
L 1080.750313 559.218125 
Q 1078.750313 559.218125 1078.750313 561.218125 
L 1078.750313 574.89625 
Q 1078.750313 576.89625 1080.750313 576.89625 
z
" style="fill: #ffffff; opacity: 0.8; stroke: #cccccc; stroke-linejoin: miter"/>
    </g>
    <g id="line2d_80">
     <path d="M 1082.750313 567.316562 
L 1092.750313 567.316562 
L 1102.750313 567.316562 
" style="fill: none; stroke: #800080; stroke-width: 1.5; stroke-linecap: square"/>
    </g>
    <g id="text_56">
     <!-- PMI -->
     <g transform="translate(1110.750313 570.816562) scale(0.1 -0.1)">
      <use xlink:href="#DejaVuSans-50"/>
      <use xlink:href="#DejaVuSans-4d" transform="translate(60.302734 0)"/>
      <use xlink:href="#DejaVuSans-49" transform="translate(146.582031 0)"/>
     </g>
    </g>
   </g>
  </g>
 </g>
 <defs>
  <clipPath id="p2fc0688674">
   <rect x="53.328125" y="22.318125" width="1084.03" height="133.34"/>
  </clipPath>
  <clipPath id="p5b5f796e57">
   <rect x="53.328125" y="199.618125" width="1084.03" height="133.34"/>
  </clipPath>
  <clipPath id="pfa154c06fb">
   <rect x="53.328125" y="376.918125" width="1084.03" height="133.34"/>
  </clipPath>
  <clipPath id="pa6b8f2b252">
   <rect x="53.328125" y="554.218125" width="1084.03" height="133.34"/>
  </clipPath>
 </defs>
</svg>
