<?xml version="1.0" encoding="utf-8" standalone="no"?>
<!DOCTYPE svg PUBLIC "-//W3C//DTD SVG 1.1//EN"
  "http://www.w3.org/Graphics/SVG/1.1/DTD/svg11.dtd">
<svg xmlns:xlink="http://www.w3.org/1999/xlink" width="576pt" height="288pt" viewBox="0 0 576 288" xmlns="http://www.w3.org/2000/svg" version="1.1">
 <metadata>
  <rdf:RDF xmlns:dc="http://purl.org/dc/elements/1.1/" xmlns:cc="http://creativecommons.org/ns#" xmlns:rdf="http://www.w3.org/1999/02/22-rdf-syntax-ns#">
   <cc:Work>
    <dc:type rdf:resource="http://purl.org/dc/dcmitype/StillImage"/>
    <dc:date>2025-04-30T11:47:25.459048</dc:date>
    <dc:format>image/svg+xml</dc:format>
    <dc:creator>
     <cc:Agent>
      <dc:title>Matplotlib v3.10.1, https://matplotlib.org/</dc:title>
     </cc:Agent>
    </dc:creator>
   </cc:Work>
  </rdf:RDF>
 </metadata>
 <defs>
  <style type="text/css">*{stroke-linejoin: round; stroke-linecap: butt}</style>
 </defs>
 <g id="figure_1">
  <g id="patch_1">
   <path d="M 0 288 
L 576 288 
L 576 0 
L 0 0 
z
" style="fill: #ffffff"/>
  </g>
  <g id="axes_1">
   <g id="patch_2">
    <path d="M 57.17 246.04 
L 565.2 246.04 
L 565.2 26.88 
L 57.17 26.88 
z
" style="fill: #ffffff"/>
   </g>
   <g id="matplotlib.axis_1">
    <g id="xtick_1">
     <g id="line2d_1">
      <defs>
       <path id="mc6fb8bc273" d="M 0 0 
L 0 3.5 
" style="stroke: #000000; stroke-width: 0.8"/>
      </defs>
      <g>
       <use xlink:href="#mc6fb8bc273" x="75.552996" y="246.04" style="stroke: #000000; stroke-width: 0.8"/>
      </g>
     </g>
     <g id="text_1">
      <!-- 2021-07 -->
      <g transform="translate(54.66159 260.638438) scale(0.1 -0.1)">
       <defs>
        <path id="DejaVuSans-32" d="M 1228 531 
L 3431 531 
L 3431 0 
L 469 0 
L 469 531 
Q 828 903 1448 1529 
Q 2069 2156 2228 2338 
Q 2531 2678 2651 2914 
Q 2772 3150 2772 3378 
Q 2772 3750 2511 3984 
Q 2250 4219 1831 4219 
Q 1534 4219 1204 4116 
Q 875 4013 500 3803 
L 500 4441 
Q 881 4594 1212 4672 
Q 1544 4750 1819 4750 
Q 2544 4750 2975 4387 
Q 3406 4025 3406 3419 
Q 3406 3131 3298 2873 
Q 3191 2616 2906 2266 
Q 2828 2175 2409 1742 
Q 1991 1309 1228 531 
z
" transform="scale(0.015625)"/>
        <path id="DejaVuSans-30" d="M 2034 4250 
Q 1547 4250 1301 3770 
Q 1056 3291 1056 2328 
Q 1056 1369 1301 889 
Q 1547 409 2034 409 
Q 2525 409 2770 889 
Q 3016 1369 3016 2328 
Q 3016 3291 2770 3770 
Q 2525 4250 2034 4250 
z
M 2034 4750 
Q 2819 4750 3233 4129 
Q 3647 3509 3647 2328 
Q 3647 1150 3233 529 
Q 2819 -91 2034 -91 
Q 1250 -91 836 529 
Q 422 1150 422 2328 
Q 422 3509 836 4129 
Q 1250 4750 2034 4750 
z
" transform="scale(0.015625)"/>
        <path id="DejaVuSans-31" d="M 794 531 
L 1825 531 
L 1825 4091 
L 703 3866 
L 703 4441 
L 1819 4666 
L 2450 4666 
L 2450 531 
L 3481 531 
L 3481 0 
L 794 0 
L 794 531 
z
" transform="scale(0.015625)"/>
        <path id="DejaVuSans-2d" d="M 313 2009 
L 1997 2009 
L 1997 1497 
L 313 1497 
L 313 2009 
z
" transform="scale(0.015625)"/>
        <path id="DejaVuSans-37" d="M 525 4666 
L 3525 4666 
L 3525 4397 
L 1831 0 
L 1172 0 
L 2766 4134 
L 525 4134 
L 525 4666 
z
" transform="scale(0.015625)"/>
       </defs>
       <use xlink:href="#DejaVuSans-32"/>
       <use xlink:href="#DejaVuSans-30" transform="translate(63.623047 0)"/>
       <use xlink:href="#DejaVuSans-32" transform="translate(127.246094 0)"/>
       <use xlink:href="#DejaVuSans-31" transform="translate(190.869141 0)"/>
       <use xlink:href="#DejaVuSans-2d" transform="translate(254.492188 0)"/>
       <use xlink:href="#DejaVuSans-30" transform="translate(290.576172 0)"/>
       <use xlink:href="#DejaVuSans-37" transform="translate(354.199219 0)"/>
      </g>
     </g>
    </g>
    <g id="xtick_2">
     <g id="line2d_2">
      <g>
       <use xlink:href="#mc6fb8bc273" x="137.446342" y="246.04" style="stroke: #000000; stroke-width: 0.8"/>
      </g>
     </g>
     <g id="text_2">
      <!-- 2022-01 -->
      <g transform="translate(116.554936 260.638438) scale(0.1 -0.1)">
       <use xlink:href="#DejaVuSans-32"/>
       <use xlink:href="#DejaVuSans-30" transform="translate(63.623047 0)"/>
       <use xlink:href="#DejaVuSans-32" transform="translate(127.246094 0)"/>
       <use xlink:href="#DejaVuSans-32" transform="translate(190.869141 0)"/>
       <use xlink:href="#DejaVuSans-2d" transform="translate(254.492188 0)"/>
       <use xlink:href="#DejaVuSans-30" transform="translate(290.576172 0)"/>
       <use xlink:href="#DejaVuSans-31" transform="translate(354.199219 0)"/>
      </g>
     </g>
    </g>
    <g id="xtick_3">
     <g id="line2d_3">
      <g>
       <use xlink:href="#mc6fb8bc273" x="198.330557" y="246.04" style="stroke: #000000; stroke-width: 0.8"/>
      </g>
     </g>
     <g id="text_3">
      <!-- 2022-07 -->
      <g transform="translate(177.439151 260.638438) scale(0.1 -0.1)">
       <use xlink:href="#DejaVuSans-32"/>
       <use xlink:href="#DejaVuSans-30" transform="translate(63.623047 0)"/>
       <use xlink:href="#DejaVuSans-32" transform="translate(127.246094 0)"/>
       <use xlink:href="#DejaVuSans-32" transform="translate(190.869141 0)"/>
       <use xlink:href="#DejaVuSans-2d" transform="translate(254.492188 0)"/>
       <use xlink:href="#DejaVuSans-30" transform="translate(290.576172 0)"/>
       <use xlink:href="#DejaVuSans-37" transform="translate(354.199219 0)"/>
      </g>
     </g>
    </g>
    <g id="xtick_4">
     <g id="line2d_4">
      <g>
       <use xlink:href="#mc6fb8bc273" x="260.223903" y="246.04" style="stroke: #000000; stroke-width: 0.8"/>
      </g>
     </g>
     <g id="text_4">
      <!-- 2023-01 -->
      <g transform="translate(239.332497 260.638438) scale(0.1 -0.1)">
       <defs>
        <path id="DejaVuSans-33" d="M 2597 2516 
Q 3050 2419 3304 2112 
Q 3559 1806 3559 1356 
Q 3559 666 3084 287 
Q 2609 -91 1734 -91 
Q 1441 -91 1130 -33 
Q 819 25 488 141 
L 488 750 
Q 750 597 1062 519 
Q 1375 441 1716 441 
Q 2309 441 2620 675 
Q 2931 909 2931 1356 
Q 2931 1769 2642 2001 
Q 2353 2234 1838 2234 
L 1294 2234 
L 1294 2753 
L 1863 2753 
Q 2328 2753 2575 2939 
Q 2822 3125 2822 3475 
Q 2822 3834 2567 4026 
Q 2313 4219 1838 4219 
Q 1578 4219 1281 4162 
Q 984 4106 628 3988 
L 628 4550 
Q 988 4650 1302 4700 
Q 1616 4750 1894 4750 
Q 2613 4750 3031 4423 
Q 3450 4097 3450 3541 
Q 3450 3153 3228 2886 
Q 3006 2619 2597 2516 
z
" transform="scale(0.015625)"/>
       </defs>
       <use xlink:href="#DejaVuSans-32"/>
       <use xlink:href="#DejaVuSans-30" transform="translate(63.623047 0)"/>
       <use xlink:href="#DejaVuSans-32" transform="translate(127.246094 0)"/>
       <use xlink:href="#DejaVuSans-33" transform="translate(190.869141 0)"/>
       <use xlink:href="#DejaVuSans-2d" transform="translate(254.492188 0)"/>
       <use xlink:href="#DejaVuSans-30" transform="translate(290.576172 0)"/>
       <use xlink:href="#DejaVuSans-31" transform="translate(354.199219 0)"/>
      </g>
     </g>
    </g>
    <g id="xtick_5">
     <g id="line2d_5">
      <g>
       <use xlink:href="#mc6fb8bc273" x="321.108118" y="246.04" style="stroke: #000000; stroke-width: 0.8"/>
      </g>
     </g>
     <g id="text_5">
      <!-- 2023-07 -->
      <g transform="translate(300.216712 260.638438) scale(0.1 -0.1)">
       <use xlink:href="#DejaVuSans-32"/>
       <use xlink:href="#DejaVuSans-30" transform="translate(63.623047 0)"/>
       <use xlink:href="#DejaVuSans-32" transform="translate(127.246094 0)"/>
       <use xlink:href="#DejaVuSans-33" transform="translate(190.869141 0)"/>
       <use xlink:href="#DejaVuSans-2d" transform="translate(254.492188 0)"/>
       <use xlink:href="#DejaVuSans-30" transform="translate(290.576172 0)"/>
       <use xlink:href="#DejaVuSans-37" transform="translate(354.199219 0)"/>
      </g>
     </g>
    </g>
    <g id="xtick_6">
     <g id="line2d_6">
      <g>
       <use xlink:href="#mc6fb8bc273" x="383.001464" y="246.04" style="stroke: #000000; stroke-width: 0.8"/>
      </g>
     </g>
     <g id="text_6">
      <!-- 2024-01 -->
      <g transform="translate(362.110057 260.638438) scale(0.1 -0.1)">
       <defs>
        <path id="DejaVuSans-34" d="M 2419 4116 
L 825 1625 
L 2419 1625 
L 2419 4116 
z
M 2253 4666 
L 3047 4666 
L 3047 1625 
L 3713 1625 
L 3713 1100 
L 3047 1100 
L 3047 0 
L 2419 0 
L 2419 1100 
L 313 1100 
L 313 1709 
L 2253 4666 
z
" transform="scale(0.015625)"/>
       </defs>
       <use xlink:href="#DejaVuSans-32"/>
       <use xlink:href="#DejaVuSans-30" transform="translate(63.623047 0)"/>
       <use xlink:href="#DejaVuSans-32" transform="translate(127.246094 0)"/>
       <use xlink:href="#DejaVuSans-34" transform="translate(190.869141 0)"/>
       <use xlink:href="#DejaVuSans-2d" transform="translate(254.492188 0)"/>
       <use xlink:href="#DejaVuSans-30" transform="translate(290.576172 0)"/>
       <use xlink:href="#DejaVuSans-31" transform="translate(354.199219 0)"/>
      </g>
     </g>
    </g>
    <g id="xtick_7">
     <g id="line2d_7">
      <g>
       <use xlink:href="#mc6fb8bc273" x="444.222056" y="246.04" style="stroke: #000000; stroke-width: 0.8"/>
      </g>
     </g>
     <g id="text_7">
      <!-- 2024-07 -->
      <g transform="translate(423.330649 260.638438) scale(0.1 -0.1)">
       <use xlink:href="#DejaVuSans-32"/>
       <use xlink:href="#DejaVuSans-30" transform="translate(63.623047 0)"/>
       <use xlink:href="#DejaVuSans-32" transform="translate(127.246094 0)"/>
       <use xlink:href="#DejaVuSans-34" transform="translate(190.869141 0)"/>
       <use xlink:href="#DejaVuSans-2d" transform="translate(254.492188 0)"/>
       <use xlink:href="#DejaVuSans-30" transform="translate(290.576172 0)"/>
       <use xlink:href="#DejaVuSans-37" transform="translate(354.199219 0)"/>
      </g>
     </g>
    </g>
    <g id="xtick_8">
     <g id="line2d_8">
      <g>
       <use xlink:href="#mc6fb8bc273" x="506.115401" y="246.04" style="stroke: #000000; stroke-width: 0.8"/>
      </g>
     </g>
     <g id="text_8">
      <!-- 2025-01 -->
      <g transform="translate(485.223995 260.638438) scale(0.1 -0.1)">
       <defs>
        <path id="DejaVuSans-35" d="M 691 4666 
L 3169 4666 
L 3169 4134 
L 1269 4134 
L 1269 2991 
Q 1406 3038 1543 3061 
Q 1681 3084 1819 3084 
Q 2600 3084 3056 2656 
Q 3513 2228 3513 1497 
Q 3513 744 3044 326 
Q 2575 -91 1722 -91 
Q 1428 -91 1123 -41 
Q 819 9 494 109 
L 494 744 
Q 775 591 1075 516 
Q 1375 441 1709 441 
Q 2250 441 2565 725 
Q 2881 1009 2881 1497 
Q 2881 1984 2565 2268 
Q 2250 2553 1709 2553 
Q 1456 2553 1204 2497 
Q 953 2441 691 2322 
L 691 4666 
z
" transform="scale(0.015625)"/>
       </defs>
       <use xlink:href="#DejaVuSans-32"/>
       <use xlink:href="#DejaVuSans-30" transform="translate(63.623047 0)"/>
       <use xlink:href="#DejaVuSans-32" transform="translate(127.246094 0)"/>
       <use xlink:href="#DejaVuSans-35" transform="translate(190.869141 0)"/>
       <use xlink:href="#DejaVuSans-2d" transform="translate(254.492188 0)"/>
       <use xlink:href="#DejaVuSans-30" transform="translate(290.576172 0)"/>
       <use xlink:href="#DejaVuSans-31" transform="translate(354.199219 0)"/>
      </g>
     </g>
    </g>
    <g id="text_9">
     <!-- Date -->
     <g transform="translate(299.234219 274.316562) scale(0.1 -0.1)">
      <defs>
       <path id="DejaVuSans-44" d="M 1259 4147 
L 1259 519 
L 2022 519 
Q 2988 519 3436 956 
Q 3884 1394 3884 2338 
Q 3884 3275 3436 3711 
Q 2988 4147 2022 4147 
L 1259 4147 
z
M 628 4666 
L 1925 4666 
Q 3281 4666 3915 4102 
Q 4550 3538 4550 2338 
Q 4550 1131 3912 565 
Q 3275 0 1925 0 
L 628 0 
L 628 4666 
z
" transform="scale(0.015625)"/>
       <path id="DejaVuSans-61" d="M 2194 1759 
Q 1497 1759 1228 1600 
Q 959 1441 959 1056 
Q 959 750 1161 570 
Q 1363 391 1709 391 
Q 2188 391 2477 730 
Q 2766 1069 2766 1631 
L 2766 1759 
L 2194 1759 
z
M 3341 1997 
L 3341 0 
L 2766 0 
L 2766 531 
Q 2569 213 2275 61 
Q 1981 -91 1556 -91 
Q 1019 -91 701 211 
Q 384 513 384 1019 
Q 384 1609 779 1909 
Q 1175 2209 1959 2209 
L 2766 2209 
L 2766 2266 
Q 2766 2663 2505 2880 
Q 2244 3097 1772 3097 
Q 1472 3097 1187 3025 
Q 903 2953 641 2809 
L 641 3341 
Q 956 3463 1253 3523 
Q 1550 3584 1831 3584 
Q 2591 3584 2966 3190 
Q 3341 2797 3341 1997 
z
" transform="scale(0.015625)"/>
       <path id="DejaVuSans-74" d="M 1172 4494 
L 1172 3500 
L 2356 3500 
L 2356 3053 
L 1172 3053 
L 1172 1153 
Q 1172 725 1289 603 
Q 1406 481 1766 481 
L 2356 481 
L 2356 0 
L 1766 0 
Q 1100 0 847 248 
Q 594 497 594 1153 
L 594 3053 
L 172 3053 
L 172 3500 
L 594 3500 
L 594 4494 
L 1172 4494 
z
" transform="scale(0.015625)"/>
       <path id="DejaVuSans-65" d="M 3597 1894 
L 3597 1613 
L 953 1613 
Q 991 1019 1311 708 
Q 1631 397 2203 397 
Q 2534 397 2845 478 
Q 3156 559 3463 722 
L 3463 178 
Q 3153 47 2828 -22 
Q 2503 -91 2169 -91 
Q 1331 -91 842 396 
Q 353 884 353 1716 
Q 353 2575 817 3079 
Q 1281 3584 2069 3584 
Q 2775 3584 3186 3129 
Q 3597 2675 3597 1894 
z
M 3022 2063 
Q 3016 2534 2758 2815 
Q 2500 3097 2075 3097 
Q 1594 3097 1305 2825 
Q 1016 2553 972 2059 
L 3022 2063 
z
" transform="scale(0.015625)"/>
      </defs>
      <use xlink:href="#DejaVuSans-44"/>
      <use xlink:href="#DejaVuSans-61" transform="translate(77.001953 0)"/>
      <use xlink:href="#DejaVuSans-74" transform="translate(138.28125 0)"/>
      <use xlink:href="#DejaVuSans-65" transform="translate(177.490234 0)"/>
     </g>
    </g>
   </g>
   <g id="matplotlib.axis_2">
    <g id="ytick_1">
     <g id="line2d_9">
      <defs>
       <path id="mae54793502" d="M 0 0 
L -3.5 0 
" style="stroke: #000000; stroke-width: 0.8"/>
      </defs>
      <g>
       <use xlink:href="#mae54793502" x="57.17" y="218.493519" style="stroke: #000000; stroke-width: 0.8"/>
      </g>
     </g>
     <g id="text_10">
      <!-- 2800 -->
      <g transform="translate(24.72 222.292738) scale(0.1 -0.1)">
       <defs>
        <path id="DejaVuSans-38" d="M 2034 2216 
Q 1584 2216 1326 1975 
Q 1069 1734 1069 1313 
Q 1069 891 1326 650 
Q 1584 409 2034 409 
Q 2484 409 2743 651 
Q 3003 894 3003 1313 
Q 3003 1734 2745 1975 
Q 2488 2216 2034 2216 
z
M 1403 2484 
Q 997 2584 770 2862 
Q 544 3141 544 3541 
Q 544 4100 942 4425 
Q 1341 4750 2034 4750 
Q 2731 4750 3128 4425 
Q 3525 4100 3525 3541 
Q 3525 3141 3298 2862 
Q 3072 2584 2669 2484 
Q 3125 2378 3379 2068 
Q 3634 1759 3634 1313 
Q 3634 634 3220 271 
Q 2806 -91 2034 -91 
Q 1263 -91 848 271 
Q 434 634 434 1313 
Q 434 1759 690 2068 
Q 947 2378 1403 2484 
z
M 1172 3481 
Q 1172 3119 1398 2916 
Q 1625 2713 2034 2713 
Q 2441 2713 2670 2916 
Q 2900 3119 2900 3481 
Q 2900 3844 2670 4047 
Q 2441 4250 2034 4250 
Q 1625 4250 1398 4047 
Q 1172 3844 1172 3481 
z
" transform="scale(0.015625)"/>
       </defs>
       <use xlink:href="#DejaVuSans-32"/>
       <use xlink:href="#DejaVuSans-38" transform="translate(63.623047 0)"/>
       <use xlink:href="#DejaVuSans-30" transform="translate(127.246094 0)"/>
       <use xlink:href="#DejaVuSans-30" transform="translate(190.869141 0)"/>
      </g>
     </g>
    </g>
    <g id="ytick_2">
     <g id="line2d_10">
      <g>
       <use xlink:href="#mae54793502" x="57.17" y="182.536739" style="stroke: #000000; stroke-width: 0.8"/>
      </g>
     </g>
     <g id="text_11">
      <!-- 3000 -->
      <g transform="translate(24.72 186.335958) scale(0.1 -0.1)">
       <use xlink:href="#DejaVuSans-33"/>
       <use xlink:href="#DejaVuSans-30" transform="translate(63.623047 0)"/>
       <use xlink:href="#DejaVuSans-30" transform="translate(127.246094 0)"/>
       <use xlink:href="#DejaVuSans-30" transform="translate(190.869141 0)"/>
      </g>
     </g>
    </g>
    <g id="ytick_3">
     <g id="line2d_11">
      <g>
       <use xlink:href="#mae54793502" x="57.17" y="146.57996" style="stroke: #000000; stroke-width: 0.8"/>
      </g>
     </g>
     <g id="text_12">
      <!-- 3200 -->
      <g transform="translate(24.72 150.379179) scale(0.1 -0.1)">
       <use xlink:href="#DejaVuSans-33"/>
       <use xlink:href="#DejaVuSans-32" transform="translate(63.623047 0)"/>
       <use xlink:href="#DejaVuSans-30" transform="translate(127.246094 0)"/>
       <use xlink:href="#DejaVuSans-30" transform="translate(190.869141 0)"/>
      </g>
     </g>
    </g>
    <g id="ytick_4">
     <g id="line2d_12">
      <g>
       <use xlink:href="#mae54793502" x="57.17" y="110.623181" style="stroke: #000000; stroke-width: 0.8"/>
      </g>
     </g>
     <g id="text_13">
      <!-- 3400 -->
      <g transform="translate(24.72 114.422399) scale(0.1 -0.1)">
       <use xlink:href="#DejaVuSans-33"/>
       <use xlink:href="#DejaVuSans-34" transform="translate(63.623047 0)"/>
       <use xlink:href="#DejaVuSans-30" transform="translate(127.246094 0)"/>
       <use xlink:href="#DejaVuSans-30" transform="translate(190.869141 0)"/>
      </g>
     </g>
    </g>
    <g id="ytick_5">
     <g id="line2d_13">
      <g>
       <use xlink:href="#mae54793502" x="57.17" y="74.666401" style="stroke: #000000; stroke-width: 0.8"/>
      </g>
     </g>
     <g id="text_14">
      <!-- 3600 -->
      <g transform="translate(24.72 78.46562) scale(0.1 -0.1)">
       <defs>
        <path id="DejaVuSans-36" d="M 2113 2584 
Q 1688 2584 1439 2293 
Q 1191 2003 1191 1497 
Q 1191 994 1439 701 
Q 1688 409 2113 409 
Q 2538 409 2786 701 
Q 3034 994 3034 1497 
Q 3034 2003 2786 2293 
Q 2538 2584 2113 2584 
z
M 3366 4563 
L 3366 3988 
Q 3128 4100 2886 4159 
Q 2644 4219 2406 4219 
Q 1781 4219 1451 3797 
Q 1122 3375 1075 2522 
Q 1259 2794 1537 2939 
Q 1816 3084 2150 3084 
Q 2853 3084 3261 2657 
Q 3669 2231 3669 1497 
Q 3669 778 3244 343 
Q 2819 -91 2113 -91 
Q 1303 -91 875 529 
Q 447 1150 447 2328 
Q 447 3434 972 4092 
Q 1497 4750 2381 4750 
Q 2619 4750 2861 4703 
Q 3103 4656 3366 4563 
z
" transform="scale(0.015625)"/>
       </defs>
       <use xlink:href="#DejaVuSans-33"/>
       <use xlink:href="#DejaVuSans-36" transform="translate(63.623047 0)"/>
       <use xlink:href="#DejaVuSans-30" transform="translate(127.246094 0)"/>
       <use xlink:href="#DejaVuSans-30" transform="translate(190.869141 0)"/>
      </g>
     </g>
    </g>
    <g id="ytick_6">
     <g id="line2d_14">
      <g>
       <use xlink:href="#mae54793502" x="57.17" y="38.709622" style="stroke: #000000; stroke-width: 0.8"/>
      </g>
     </g>
     <g id="text_15">
      <!-- 3800 -->
      <g transform="translate(24.72 42.508841) scale(0.1 -0.1)">
       <use xlink:href="#DejaVuSans-33"/>
       <use xlink:href="#DejaVuSans-38" transform="translate(63.623047 0)"/>
       <use xlink:href="#DejaVuSans-30" transform="translate(127.246094 0)"/>
       <use xlink:href="#DejaVuSans-30" transform="translate(190.869141 0)"/>
      </g>
     </g>
    </g>
    <g id="text_16">
     <!-- Stock Price -->
     <g transform="translate(18.640313 164.085) rotate(-90) scale(0.1 -0.1)">
      <defs>
       <path id="DejaVuSans-53" d="M 3425 4513 
L 3425 3897 
Q 3066 4069 2747 4153 
Q 2428 4238 2131 4238 
Q 1616 4238 1336 4038 
Q 1056 3838 1056 3469 
Q 1056 3159 1242 3001 
Q 1428 2844 1947 2747 
L 2328 2669 
Q 3034 2534 3370 2195 
Q 3706 1856 3706 1288 
Q 3706 609 3251 259 
Q 2797 -91 1919 -91 
Q 1588 -91 1214 -16 
Q 841 59 441 206 
L 441 856 
Q 825 641 1194 531 
Q 1563 422 1919 422 
Q 2459 422 2753 634 
Q 3047 847 3047 1241 
Q 3047 1584 2836 1778 
Q 2625 1972 2144 2069 
L 1759 2144 
Q 1053 2284 737 2584 
Q 422 2884 422 3419 
Q 422 4038 858 4394 
Q 1294 4750 2059 4750 
Q 2388 4750 2728 4690 
Q 3069 4631 3425 4513 
z
" transform="scale(0.015625)"/>
       <path id="DejaVuSans-6f" d="M 1959 3097 
Q 1497 3097 1228 2736 
Q 959 2375 959 1747 
Q 959 1119 1226 758 
Q 1494 397 1959 397 
Q 2419 397 2687 759 
Q 2956 1122 2956 1747 
Q 2956 2369 2687 2733 
Q 2419 3097 1959 3097 
z
M 1959 3584 
Q 2709 3584 3137 3096 
Q 3566 2609 3566 1747 
Q 3566 888 3137 398 
Q 2709 -91 1959 -91 
Q 1206 -91 779 398 
Q 353 888 353 1747 
Q 353 2609 779 3096 
Q 1206 3584 1959 3584 
z
" transform="scale(0.015625)"/>
       <path id="DejaVuSans-63" d="M 3122 3366 
L 3122 2828 
Q 2878 2963 2633 3030 
Q 2388 3097 2138 3097 
Q 1578 3097 1268 2742 
Q 959 2388 959 1747 
Q 959 1106 1268 751 
Q 1578 397 2138 397 
Q 2388 397 2633 464 
Q 2878 531 3122 666 
L 3122 134 
Q 2881 22 2623 -34 
Q 2366 -91 2075 -91 
Q 1284 -91 818 406 
Q 353 903 353 1747 
Q 353 2603 823 3093 
Q 1294 3584 2113 3584 
Q 2378 3584 2631 3529 
Q 2884 3475 3122 3366 
z
" transform="scale(0.015625)"/>
       <path id="DejaVuSans-6b" d="M 581 4863 
L 1159 4863 
L 1159 1991 
L 2875 3500 
L 3609 3500 
L 1753 1863 
L 3688 0 
L 2938 0 
L 1159 1709 
L 1159 0 
L 581 0 
L 581 4863 
z
" transform="scale(0.015625)"/>
       <path id="DejaVuSans-20" transform="scale(0.015625)"/>
       <path id="DejaVuSans-50" d="M 1259 4147 
L 1259 2394 
L 2053 2394 
Q 2494 2394 2734 2622 
Q 2975 2850 2975 3272 
Q 2975 3691 2734 3919 
Q 2494 4147 2053 4147 
L 1259 4147 
z
M 628 4666 
L 2053 4666 
Q 2838 4666 3239 4311 
Q 3641 3956 3641 3272 
Q 3641 2581 3239 2228 
Q 2838 1875 2053 1875 
L 1259 1875 
L 1259 0 
L 628 0 
L 628 4666 
z
" transform="scale(0.015625)"/>
       <path id="DejaVuSans-72" d="M 2631 2963 
Q 2534 3019 2420 3045 
Q 2306 3072 2169 3072 
Q 1681 3072 1420 2755 
Q 1159 2438 1159 1844 
L 1159 0 
L 581 0 
L 581 3500 
L 1159 3500 
L 1159 2956 
Q 1341 3275 1631 3429 
Q 1922 3584 2338 3584 
Q 2397 3584 2469 3576 
Q 2541 3569 2628 3553 
L 2631 2963 
z
" transform="scale(0.015625)"/>
       <path id="DejaVuSans-69" d="M 603 3500 
L 1178 3500 
L 1178 0 
L 603 0 
L 603 3500 
z
M 603 4863 
L 1178 4863 
L 1178 4134 
L 603 4134 
L 603 4863 
z
" transform="scale(0.015625)"/>
      </defs>
      <use xlink:href="#DejaVuSans-53"/>
      <use xlink:href="#DejaVuSans-74" transform="translate(63.476562 0)"/>
      <use xlink:href="#DejaVuSans-6f" transform="translate(102.685547 0)"/>
      <use xlink:href="#DejaVuSans-63" transform="translate(163.867188 0)"/>
      <use xlink:href="#DejaVuSans-6b" transform="translate(218.847656 0)"/>
      <use xlink:href="#DejaVuSans-20" transform="translate(276.757812 0)"/>
      <use xlink:href="#DejaVuSans-50" transform="translate(308.544922 0)"/>
      <use xlink:href="#DejaVuSans-72" transform="translate(367.097656 0)"/>
      <use xlink:href="#DejaVuSans-69" transform="translate(408.210938 0)"/>
      <use xlink:href="#DejaVuSans-63" transform="translate(435.994141 0)"/>
      <use xlink:href="#DejaVuSans-65" transform="translate(490.974609 0)"/>
     </g>
    </g>
   </g>
   <g id="line2d_15">
    <path d="M 80.262273 81.032549 
L 80.59865 85.579284 
L 81.60778 85.611645 
L 81.944157 86.030541 
L 82.280534 81.379532 
L 82.616911 79.20954 
L 82.953288 83.583683 
L 83.962418 98.498555 
L 84.298795 114.006714 
L 84.635172 117.52868 
L 84.971549 108.516113 
L 85.307926 111.09781 
L 86.317057 99.064874 
L 86.653433 101.995351 
L 86.98981 96.740268 
L 87.662564 100.154364 
L 88.671695 93.61023 
L 89.008072 87.263859 
L 89.344448 86.78024 
L 90.017202 89.714313 
L 91.026333 89.527338 
L 91.36271 102.176933 
L 91.699087 95.289412 
L 92.035463 98.838346 
L 92.37184 105.709687 
L 93.380971 96.756449 
L 94.053725 85.385117 
L 94.390102 92.34635 
L 94.726479 88.66078 
L 95.735609 87.583874 
L 96.071986 84.745087 
L 96.74474 75.198562 
L 97.081117 77.951053 
L 98.090247 70.736325 
L 98.426624 60.896753 
L 98.763001 61.14845 
L 99.099378 57.923127 
L 99.435755 56.128884 
L 100.444885 53.924733 
L 100.781262 63.411929 
L 101.117639 64.558951 
L 101.454016 73.391733 
L 101.790393 72.15482 
L 103.472277 69.544358 
L 103.808654 67.075925 
L 104.145031 72.316626 
L 105.154162 77.753291 
L 105.490539 74.267281 
L 105.826916 86.120433 
L 106.163292 80.388923 
L 108.854307 76.074109 
L 109.863438 76.15681 
L 110.199815 84.205735 
L 110.536192 81.541337 
L 110.872569 82.166985 
L 111.208946 79.63383 
L 112.218076 80.394316 
L 112.554453 75.897921 
L 112.89083 77.003592 
L 113.227207 75.604873 
L 113.563584 77.794641 
L 114.572714 72.893732 
L 114.909091 75.090691 
L 115.581845 89.333172 
L 115.918222 84.133821 
L 116.927353 84.648003 
L 117.263729 91.632608 
L 117.600106 92.907275 
L 117.936483 87.813998 
L 118.27286 94.160369 
L 119.281991 92.891095 
L 119.618368 91.386304 
L 119.954744 94.000362 
L 120.291121 86.749677 
L 120.627498 85.615241 
L 121.636629 86.657987 
L 121.973006 88.7273 
L 122.309383 85.926267 
L 122.645759 88.921466 
L 122.982136 81.791237 
L 124.327644 76.627844 
L 124.664021 75.978824 
L 125.000398 77.510583 
L 125.336774 81.122441 
L 126.345905 81.372341 
L 126.682282 81.158398 
L 127.018659 78.821207 
L 127.355036 79.369548 
L 127.691413 73.330607 
L 128.700543 76.588291 
L 129.03692 75.54914 
L 129.709674 61.534985 
L 130.046051 62.73774 
L 131.055181 60.089523 
L 131.727935 66.103294 
L 132.064312 61.179013 
L 132.400689 68.848594 
L 133.40982 75.817018 
L 133.746196 70.148432 
L 134.082573 70.59969 
L 134.41895 66.874567 
L 134.755327 71.421302 
L 135.764458 71.795252 
L 136.100835 69.253108 
L 136.437211 75.205753 
L 137.109965 67.514598 
L 138.455473 68.853988 
L 138.79185 75.53296 
L 139.464603 78.34478 
L 140.473734 75.831401 
L 140.810111 80.520165 
L 141.146488 75.128446 
L 141.819242 88.822585 
L 142.828372 85.153196 
L 143.164749 80.076099 
L 143.501126 82.184964 
L 143.837503 82.74589 
L 144.17388 88.587068 
L 145.18301 88.310201 
L 145.519387 104.679525 
L 145.855764 100.614611 
L 146.192141 111.656938 
L 146.528518 117.555648 
L 149.892287 105.305173 
L 150.56504 96.249458 
L 150.901417 95.177946 
L 151.237794 99.305784 
L 152.246925 105.431022 
L 152.919679 98.788007 
L 153.256055 98.390684 
L 153.592432 94.305994 
L 154.601563 94.332962 
L 154.93794 100.348531 
L 155.274317 94.595446 
L 155.610694 105.236855 
L 155.94707 101.380491 
L 156.956201 99.420846 
L 157.292578 94.652977 
L 157.965332 96.040909 
L 158.301709 102.056478 
L 159.310839 115.502516 
L 159.647216 129.764772 
L 159.983593 136.441946 
L 160.31997 129.304525 
L 160.656347 126.848677 
L 161.665477 142.349645 
L 162.001854 171.035964 
L 162.338231 151.84583 
L 163.010985 137.398396 
L 164.020116 136.927363 
L 164.356492 135.818096 
L 164.692869 133.80991 
L 165.029246 137.544021 
L 165.365623 144.379405 
L 166.374754 143.973094 
L 166.711131 145.871612 
L 167.047507 134.606353 
L 167.383884 137.195241 
L 167.720261 131.708236 
L 169.402146 131.58059 
L 169.738522 139.981891 
L 170.074899 137.258165 
L 171.08403 152.489457 
L 171.420407 144.183441 
L 171.756784 148.949512 
L 172.093161 141.970301 
L 172.429538 144.559189 
L 173.438668 147.385392 
L 173.775045 147.65327 
L 174.111422 155.380382 
L 174.447799 168.188187 
L 174.784176 166.909923 
L 176.129683 202.954797 
L 176.46606 190.037324 
L 176.802437 186.945041 
L 177.138814 174.076109 
L 179.157075 170.354583 
L 179.493452 182.256277 
L 180.502583 181.792434 
L 181.175336 171.983425 
L 181.511713 172.650423 
L 181.84809 167.384553 
L 182.857221 169.277677 
L 183.193598 165.690988 
L 183.529975 167.07892 
L 183.866351 165.104893 
L 184.202728 156.185814 
L 185.211859 156.133676 
L 185.548236 169.784668 
L 185.884613 163.217162 
L 186.22099 160.403544 
L 186.557366 159.121685 
L 187.566497 155.738152 
L 187.902874 149.019628 
L 188.239251 149.787305 
L 188.575628 147.396179 
L 189.921135 140.04122 
L 190.257512 139.072185 
L 190.593889 135.111545 
L 190.930266 139.577377 
L 191.266643 131.328892 
L 192.275773 136.592965 
L 192.61215 130.595374 
L 192.948527 127.628939 
L 193.284904 131.230011 
L 193.621281 125.582999 
L 194.630412 125.827505 
L 194.966788 127.393423 
L 195.303165 134.498482 
L 195.639542 124.978925 
L 195.975919 119.657321 
L 196.98505 114.364484 
L 197.321427 108.967371 
L 197.657803 117.541265 
L 197.99418 110.871282 
L 198.330557 112.84531 
L 199.339688 109.646954 
L 199.676065 109.898652 
L 200.012442 118.650532 
L 200.348818 117.023487 
L 200.685195 118.519289 
L 201.694326 126.160105 
L 202.030703 131.932966 
L 202.36708 131.425975 
L 202.703457 131.884424 
L 203.039833 141.535224 
L 204.048964 132.538838 
L 204.385341 132.299725 
L 204.721718 127.75299 
L 205.058095 133.635519 
L 205.394472 134.000481 
L 206.403602 137.520649 
L 206.739979 132.657495 
L 207.076356 132.959532 
L 207.412733 131.733406 
L 207.74911 137.008265 
L 208.75824 135.800118 
L 209.094617 149.048393 
L 209.430994 153.111509 
L 209.767371 148.550392 
L 210.103748 141.720401 
L 211.112879 139.940541 
L 211.449255 138.05281 
L 211.785632 141.182847 
L 212.122009 131.897009 
L 212.458386 132.756376 
L 213.467517 132.900203 
L 213.803894 132.57839 
L 214.14027 129.944556 
L 214.813024 136.138111 
L 215.822155 132.594571 
L 216.158532 132.876831 
L 216.494909 143.847245 
L 216.831286 138.264955 
L 217.167662 140.068187 
L 218.176793 139.257362 
L 218.51317 141.686242 
L 219.185924 149.280314 
L 219.522301 149.010638 
L 220.531431 146.596141 
L 220.867808 138.76835 
L 221.204185 138.257763 
L 221.540562 140.181451 
L 221.876939 135.424369 
L 223.222446 135.109747 
L 223.558823 139.830873 
L 223.8952 146.594343 
L 224.231577 159.812055 
L 225.240707 161.753721 
L 225.577084 160.529393 
L 225.913461 161.469662 
L 226.249838 162.956475 
L 226.586215 166.649236 
L 227.595346 173.32641 
L 227.931723 165.662223 
L 228.268099 174.433879 
L 228.604476 175.129643 
L 228.940853 178.15181 
L 232.304622 187.184153 
L 232.640999 186.170172 
L 232.977376 177.950452 
L 233.313753 179.595475 
L 233.650129 169.594097 
L 234.65926 167.265895 
L 234.995637 167.981435 
L 235.332014 174.55793 
L 235.668391 176.235314 
L 236.004768 175.537752 
L 237.013898 186.57109 
L 237.350275 186.801213 
L 237.686652 182.626631 
L 238.023029 185.611044 
L 238.359406 197.651172 
L 239.368536 201.68732 
L 239.704913 188.074083 
L 240.04129 181.930868 
L 240.377667 182.930466 
L 240.714044 169.80804 
L 241.723175 168.545957 
L 242.732305 176.041147 
L 243.068682 166.843403 
L 244.077813 167.542762 
L 244.41419 158.431315 
L 244.750566 160.966268 
L 245.086943 161.784284 
L 245.42332 165.054553 
L 246.432451 167.247917 
L 246.768828 166.54676 
L 247.105205 165.113882 
L 247.441581 166.48024 
L 247.777958 164.254515 
L 248.787089 168.414714 
L 249.123466 155.614101 
L 249.459843 155.328244 
L 249.79622 152.787898 
L 250.132597 154.465282 
L 251.141727 144.456712 
L 251.478104 144.327268 
L 251.814481 146.648278 
L 252.150858 147.056387 
L 252.487235 145.330462 
L 253.496365 150.348231 
L 253.832742 150.835445 
L 254.169119 150.799488 
L 254.505496 152.216185 
L 254.841873 152.358215 
L 255.851003 163.278288 
L 256.18738 169.274081 
L 256.523757 170.237723 
L 256.860134 172.751102 
L 257.196511 174.290052 
L 258.205642 170.750107 
L 258.542018 165.354792 
L 258.878395 166.823627 
L 259.214772 169.286666 
L 259.551149 166.489229 
L 261.233034 160.329833 
L 261.56941 154.630683 
L 261.905787 154.195606 
L 262.914918 150.880391 
L 263.587672 153.440514 
L 263.924049 153.151061 
L 264.260425 147.423147 
L 265.269556 141.619722 
L 265.605933 142.221998 
L 265.94231 142.191435 
L 266.278687 139.338265 
L 266.615064 134.928166 
L 269.978832 134.11734 
L 270.315209 136.571391 
L 270.651586 131.312712 
L 270.987963 131.177874 
L 271.32434 135.179863 
L 272.333471 139.622323 
L 272.669847 137.934152 
L 273.006224 140.807099 
L 273.342601 133.926769 
L 273.678978 135.672471 
L 275.024486 129.809718 
L 275.360862 132.109154 
L 276.033616 142.261551 
L 277.379124 127.429379 
L 277.715501 130.192658 
L 278.051877 130.852465 
L 278.388254 134.505674 
L 279.397385 136.147101 
L 279.733762 132.267364 
L 280.070139 126.381239 
L 280.406516 126.686872 
L 280.742892 123.497506 
L 281.752023 124.640931 
L 282.0884 131.28035 
L 282.424777 131.612951 
L 282.761154 132.900203 
L 283.097531 141.17206 
L 284.106661 134.228806 
L 284.443038 138.433952 
L 284.779415 135.197842 
L 285.115792 141.745571 
L 285.452169 137.491884 
L 286.461299 140.303704 
L 286.797676 136.574986 
L 287.134053 134.759169 
L 287.47043 131.001685 
L 287.806807 134.777147 
L 289.152314 138.421367 
L 289.488691 139.377817 
L 289.825068 135.568196 
L 290.161445 133.480905 
L 291.170576 129.248792 
L 291.506953 126.343485 
L 292.179706 126.3309 
L 292.516083 123.630546 
L 293.525214 125.84009 
L 293.861591 126.161903 
L 294.197968 123.715044 
L 294.534345 125.300738 
L 294.870721 121.742815 
L 295.879852 113.210271 
L 296.216229 111.822339 
L 296.552606 115.993326 
L 296.888983 116.550656 
L 297.22536 128.375043 
L 298.570867 134.917379 
L 298.907244 135.055812 
L 299.243621 131.140119 
L 299.579998 124.417999 
L 301.598259 119.529675 
L 301.934636 122.399026 
L 302.943766 111.5221 
L 303.61652 125.158709 
L 303.952897 126.884634 
L 304.289274 133.570797 
L 305.298405 126.670691 
L 305.634782 130.221423 
L 305.971158 131.436762 
L 306.307535 129.083391 
L 306.643912 131.560813 
L 307.653043 129.236208 
L 308.325797 145.725987 
L 308.662173 146.353432 
L 308.99855 144.332661 
L 310.344058 142.227392 
L 310.680435 145.760145 
L 311.016812 145.747561 
L 311.353188 141.173858 
L 312.362319 140.74777 
L 312.698696 147.417753 
L 313.035073 146.982676 
L 313.707827 140.932948 
L 314.716957 141.39679 
L 315.053334 140.526636 
L 315.389711 141.368025 
L 316.062465 133.396407 
L 317.071595 136.546221 
L 317.407972 139.323882 
L 317.744349 146.957506 
L 319.426234 155.457689 
L 319.76261 148.478478 
L 320.098987 148.489265 
L 320.435364 149.747752 
L 320.771741 146.209605 
L 321.780872 138.673064 
L 322.117249 138.42676 
L 322.790002 145.578564 
L 323.126379 147.189427 
L 324.13551 145.91476 
L 324.471887 142.737978 
L 324.808264 147.275724 
L 325.14464 140.021444 
L 325.481017 139.802107 
L 326.826525 146.971889 
L 327.162902 146.788509 
L 327.499279 152.059773 
L 327.835655 152.377991 
L 328.844786 153.023415 
L 329.181163 140.913172 
L 329.853917 143.582963 
L 330.190294 132.928969 
L 331.199424 130.212434 
L 331.535801 130.228615 
L 331.872178 135.489091 
L 332.208555 132.114548 
L 332.544932 130.744594 
L 333.890439 135.68146 
L 334.226816 138.581374 
L 334.563193 136.770951 
L 334.89957 148.512637 
L 335.908701 150.457899 
L 336.245077 150.862412 
L 336.581454 155.545783 
L 336.917831 153.098924 
L 337.254208 158.814254 
L 338.263339 165.820433 
L 338.599716 160.903343 
L 338.936092 168.441682 
L 339.272469 167.751312 
L 339.608846 171.017985 
L 340.617977 164.802856 
L 340.954354 158.105906 
L 341.290731 157.881176 
L 341.627108 160.984246 
L 342.972615 150.704203 
L 343.308992 154.783499 
L 343.645369 154.116501 
L 343.981746 160.54018 
L 344.318123 161.552363 
L 345.327253 156.867195 
L 345.66363 157.895559 
L 346.000007 160.410735 
L 346.336384 159.785087 
L 346.672761 161.368983 
L 347.681891 159.896553 
L 348.018268 160.070944 
L 348.354645 163.017602 
L 348.691022 167.309043 
L 349.027399 158.727958 
L 350.036529 161.751923 
L 350.372906 164.15024 
L 350.709283 163.242332 
L 351.04566 162.674215 
L 354.745806 165.112084 
L 355.082183 169.009799 
L 355.41856 168.341003 
L 355.754936 163.138057 
L 356.091313 166.697778 
L 357.100444 169.26689 
L 357.436821 167.524784 
L 357.773198 171.981627 
L 358.109575 181.567704 
L 358.445951 185.582279 
L 359.455082 193.45142 
L 359.791459 189.325379 
L 360.464213 184.640211 
L 360.80059 179.340182 
L 361.80972 178.662396 
L 362.146097 179.162196 
L 362.482474 178.387327 
L 362.818851 180.844973 
L 363.155228 176.999395 
L 364.164358 172.035562 
L 364.500735 172.240516 
L 364.837112 173.121457 
L 365.173489 172.957853 
L 365.509866 175.530561 
L 366.518997 174.171395 
L 366.855373 172.456256 
L 367.19175 169.443078 
L 367.528127 173.380346 
L 367.864504 172.761889 
L 368.873635 170.253904 
L 369.210012 170.324019 
L 369.546388 174.696364 
L 369.882765 171.415308 
L 370.219142 175.170993 
L 371.228273 176.83759 
L 371.56465 175.60607 
L 371.901027 178.637227 
L 372.237403 177.202551 
L 372.57378 176.848377 
L 373.582911 178.41789 
L 373.919288 187.516753 
L 374.592042 188.611637 
L 374.928419 188.009361 
L 375.937549 184.07569 
L 376.273926 181.918283 
L 376.610303 188.153188 
L 376.94668 189.909677 
L 377.283057 192.863527 
L 378.292187 194.977785 
L 378.628564 194.691929 
L 378.964941 200.135785 
L 379.301318 197.151372 
L 379.637695 197.857923 
L 380.646825 197.133394 
L 380.983202 200.716487 
L 381.319579 197.888486 
L 381.655956 190.68095 
L 381.992333 187.043922 
L 383.33784 189.318188 
L 383.674217 188.424662 
L 384.010594 190.743874 
L 384.346971 195.269035 
L 385.356102 202.755237 
L 385.692479 201.72867 
L 386.028856 204.52431 
L 386.365232 202.915244 
L 386.701609 203.754835 
L 387.71074 202.979966 
L 388.047117 201.59563 
L 388.383494 212.449184 
L 388.719871 210.263012 
L 389.056247 212.690095 
L 390.065378 226.342884 
L 390.401755 223.710848 
L 390.738132 214.759407 
L 391.074509 199.41665 
L 391.410886 198.677738 
L 392.420016 203.506733 
L 393.09277 220.552044 
L 393.429147 223.753996 
L 393.765524 231.051424 
L 394.774654 236.078182 
L 395.111031 220.383048 
L 395.783785 206.64576 
L 399.483931 198.620207 
L 399.820308 196.428641 
L 400.829438 181.659394 
L 401.838569 186.668173 
L 402.174946 179.753685 
L 402.511323 190.114631 
L 402.847699 179.809418 
L 403.184076 177.678979 
L 404.193207 175.469434 
L 404.529584 173.944867 
L 404.865961 175.357968 
L 405.202338 177.610661 
L 405.538714 174.263085 
L 406.547845 170.228734 
L 407.220599 174.656811 
L 407.556976 175.663601 
L 407.893353 172.713347 
L 408.902483 167.267693 
L 409.23886 171.253502 
L 409.575237 168.209761 
L 409.911614 168.673603 
L 410.247991 173.901719 
L 411.257121 177.806625 
L 411.593498 176.877142 
L 411.929875 183.770057 
L 412.266252 180.620243 
L 412.602629 175.135036 
L 413.61176 168.625062 
L 413.948136 169.060139 
L 414.284513 170.077715 
L 415.966398 174.077907 
L 416.302775 173.810029 
L 416.639151 177.623246 
L 416.975528 176.379141 
L 417.311905 179.036347 
L 418.321036 172.220739 
L 418.657413 181.265667 
L 418.99379 169.703765 
L 419.330167 169.193179 
L 419.666543 170.804042 
L 420.675674 174.518378 
L 421.012051 178.585089 
L 421.348428 174.478825 
L 421.684805 173.026171 
L 422.021182 166.600695 
L 423.030312 162.213968 
L 423.366689 163.691791 
L 425.721327 155.975467 
L 426.057704 159.438104 
L 426.394081 154.792488 
L 426.730458 154.751138 
L 428.075965 156.329641 
L 428.412342 160.98065 
L 428.748719 160.53119 
L 429.085096 154.844626 
L 430.094227 151.766725 
L 430.430604 154.136277 
L 430.76698 154.0338 
L 431.103357 161.611692 
L 431.439734 166.559345 
L 432.448865 160.236345 
L 432.785242 162.837818 
L 433.121619 162.577131 
L 433.457995 166.054152 
L 433.794372 166.929699 
L 434.803503 168.425501 
L 435.13988 166.140448 
L 435.476257 170.778873 
L 435.812634 173.765083 
L 436.14901 173.317421 
L 437.494518 177.493801 
L 437.830895 175.800237 
L 438.167272 177.337389 
L 438.503649 176.670391 
L 439.512779 179.679973 
L 439.849156 177.098277 
L 440.52191 181.558715 
L 440.858287 182.871138 
L 442.203794 191.525934 
L 442.540171 187.475403 
L 442.876548 192.272037 
L 443.212925 188.397695 
L 444.222056 183.484201 
L 444.558432 183.074293 
L 444.894809 185.704532 
L 445.231186 190.16497 
L 445.567563 191.538519 
L 446.576694 196.478981 
L 446.913071 189.841359 
L 447.249447 193.438835 
L 447.585824 187.860141 
L 448.931332 187.209323 
L 449.267709 186.797618 
L 449.604086 189.215711 
L 449.940462 186.648397 
L 450.276839 185.717117 
L 451.28597 188.969407 
L 451.622347 197.751851 
L 452.295101 202.899064 
L 452.631478 202.151163 
L 453.640608 201.980368 
L 453.976985 204.236656 
L 454.313362 193.548503 
L 454.649739 194.691929 
L 454.986116 199.555083 
L 455.995246 207.580636 
L 456.331623 206.397658 
L 456.668 205.939209 
L 457.004377 205.926624 
L 457.340754 207.312758 
L 458.349884 208.030096 
L 458.686261 206.277203 
L 459.022638 209.387464 
L 459.359015 204.585437 
L 459.695392 204.213284 
L 460.704523 201.653161 
L 461.040899 206.509124 
L 461.713653 209.725458 
L 462.05003 208.718668 
L 463.059161 208.511917 
L 463.395538 209.73265 
L 464.068291 214.338713 
L 464.404668 210.904841 
L 465.750176 217.957763 
L 466.086553 221.319722 
L 466.42293 220.595193 
L 466.759306 224.64033 
L 467.768437 229.911594 
L 468.104814 228.527258 
L 468.441191 232.55262 
L 468.777568 233.394008 
L 469.113945 235.736592 
L 470.795829 233.365243 
L 471.132206 229.996093 
L 471.468583 229.854063 
L 472.477713 227.67688 
L 472.81409 207.143761 
L 473.150467 201.178532 
L 473.823221 166.800255 
L 474.832352 122.039458 
L 477.523367 94.482182 
L 477.859743 135.99788 
L 478.19612 128.254587 
L 478.532497 143.390594 
L 479.541628 131.420582 
L 479.878005 146.348039 
L 480.214382 146.049598 
L 480.550758 152.084943 
L 480.887135 135.512463 
L 481.896266 134.334879 
L 482.56902 128.098175 
L 482.905397 132.150504 
L 483.241773 128.655506 
L 484.250904 124.610368 
L 484.587281 131.044834 
L 484.923658 134.671075 
L 485.260035 132.229609 
L 485.596412 133.633722 
L 486.605542 126.765977 
L 486.941919 112.962169 
L 487.278296 113.533882 
L 487.614673 97.919651 
L 487.95105 101.220483 
L 488.96018 98.025723 
L 489.296557 106.673328 
L 489.632934 103.561269 
L 490.305688 123.076811 
L 491.314819 124.313724 
L 491.987572 116.378063 
L 492.323949 115.944784 
L 492.660326 134.50028 
L 493.669457 135.116939 
L 494.005834 135.836074 
L 494.34221 126.843284 
L 494.678587 129.374641 
L 495.014964 123.844488 
L 496.360472 114.432801 
L 496.696849 116.978541 
L 497.033226 116.221651 
L 497.369602 109.889662 
L 498.378733 110.168327 
L 498.71511 106.549278 
L 499.051487 104.782002 
L 499.387864 99.566471 
L 499.724241 112.083026 
L 500.733371 113.080827 
L 501.069748 117.546659 
L 501.406125 113.821536 
L 501.742502 116.011304 
L 502.078879 116.363681 
L 503.088009 119.385848 
L 503.424386 111.786382 
L 503.760763 111.818744 
L 504.09714 110.968366 
L 504.433517 110.598011 
L 505.442647 109.305365 
L 505.779024 119.295956 
L 506.788155 144.52503 
L 507.797286 145.335855 
L 508.133663 141.251165 
L 508.470039 141.15588 
L 508.806416 144.532221 
L 509.142793 152.239557 
L 510.151924 153.63468 
L 510.488301 139.219607 
L 510.824678 141.704221 
L 511.161054 140.102346 
L 511.497431 139.061397 
L 512.506562 138.601151 
L 512.842939 138.91757 
L 513.179316 144.131303 
L 513.515693 141.157678 
L 513.852069 137.117934 
L 514.8612 137.482895 
L 517.888592 141.278133 
L 518.561346 127.941763 
L 519.570476 124.615761 
L 519.906853 125.354673 
L 520.24323 120.261395 
L 520.579607 122.762189 
L 520.915984 120.202067 
L 521.925115 118.564235 
L 522.261491 124.198663 
L 522.597868 119.335508 
L 522.934245 119.472144 
L 523.270622 114.378866 
L 524.279753 115.471952 
L 524.61613 120.32432 
L 524.952506 114.181104 
L 525.288883 112.7698 
L 525.62526 124.844087 
L 526.634391 125.557829 
L 526.970768 124.249002 
L 527.307145 121.057838 
L 527.643521 114.021096 
L 527.979898 115.558249 
L 528.989029 116.707068 
L 529.325406 114.249422 
L 529.661783 115.671512 
L 529.99816 118.042862 
L 530.334537 107.106608 
L 531.343667 105.925427 
L 531.680044 105.272812 
L 532.016421 105.871492 
L 532.352798 109.014115 
L 532.689175 116.94618 
L 533.698305 116.011304 
L 534.034682 116.020293 
L 534.371059 116.250417 
L 534.707436 115.342508 
L 535.043813 119.376859 
L 536.052943 122.174296 
L 536.38932 119.892838 
L 536.725697 119.589004 
L 537.062074 121.048849 
L 538.407582 165.173211 
L 539.080335 148.95131 
L 539.416712 142.329869 
L 539.753089 139.706822 
L 540.76222 135.287733 
L 541.098597 134.415782 
L 541.434974 132.916384 
L 541.77135 132.136122 
L 542.107727 132.785142 
L 542.107727 132.785142 
" clip-path="url(#p63fa7bffc8)" style="fill: none; stroke: #0000ff; stroke-width: 1.5; stroke-linecap: square"/>
   </g>
   <g id="line2d_16">
    <path d="M 80.262273 79.810082 
L 80.59865 77.573142 
L 81.60778 79.33376 
L 81.944157 77.449145 
L 82.280534 76.26905 
L 82.953288 67.824518 
L 83.962418 67.211734 
L 84.298795 74.285238 
L 84.635172 83.719767 
L 84.971549 89.776193 
L 85.307926 87.051607 
L 86.317057 87.482193 
L 86.653433 83.322803 
L 86.98981 85.996298 
L 87.326187 86.2029 
L 87.662564 90.241323 
L 88.671695 94.303183 
L 89.008072 94.085125 
L 89.344448 92.69992 
L 89.680825 92.630701 
L 90.017202 93.919211 
L 91.026333 95.124457 
L 91.36271 95.181868 
L 91.699087 100.774526 
L 92.035463 95.463659 
L 92.37184 94.508469 
L 93.380971 96.980761 
L 94.390102 81.76905 
L 94.726479 83.426828 
L 95.735609 82.860483 
L 96.071986 81.873383 
L 96.408363 79.529169 
L 96.74474 73.891434 
L 97.081117 74.915096 
L 98.090247 71.878697 
L 98.426624 68.065883 
L 98.763001 68.647898 
L 99.099378 74.085352 
L 99.435755 69.325336 
L 100.444885 62.207676 
L 100.781262 63.74747 
L 101.117639 73.074945 
L 101.454016 74.564483 
L 101.790393 82.777569 
L 103.472277 78.518851 
L 104.145031 66.532936 
L 105.154162 65.785533 
L 105.490539 67.219679 
L 105.826916 66.333312 
L 106.163292 72.056418 
L 108.854307 69.242072 
L 110.199815 66.394586 
L 110.536192 70.471151 
L 110.872569 70.705362 
L 111.208946 71.150652 
L 112.554453 68.973757 
L 112.89083 66.174597 
L 113.227207 65.617688 
L 113.563584 63.993269 
L 114.572714 64.413364 
L 115.245468 59.066286 
L 115.581845 59.440689 
L 115.918222 61.964335 
L 116.927353 58.615948 
L 117.263729 60.350977 
L 117.936483 65.893465 
L 118.27286 63.440486 
L 119.618368 65.873933 
L 119.954744 65.260578 
L 120.291121 71.157631 
L 120.627498 70.509996 
L 121.636629 71.484498 
L 122.309383 75.090052 
L 122.645759 71.215262 
L 122.982136 68.737439 
L 123.991267 62.175766 
L 124.664021 52.466865 
L 125.000398 50.6304 
L 125.336774 51.189416 
L 126.345905 51.338738 
L 126.682282 51.085039 
L 127.018659 47.729585 
L 127.355036 48.585754 
L 127.691413 50.715113 
L 128.700543 48.919951 
L 129.03692 51.31012 
L 129.373297 52.428283 
L 129.709674 50.275749 
L 130.046051 45.259795 
L 131.055181 45.144885 
L 131.391558 43.674484 
L 132.064312 49.169349 
L 132.400689 47.790508 
L 133.40982 47.54866 
L 133.746196 48.333723 
L 134.082573 43.38194 
L 134.41895 40.667098 
L 134.755327 36.841818 
L 135.764458 37.728492 
L 136.100835 38.707032 
L 136.437211 38.285444 
L 136.773588 41.794873 
L 137.109965 41.05704 
L 138.455473 38.848103 
L 138.79185 41.216984 
L 139.464603 52.492849 
L 140.473734 55.463409 
L 140.810111 57.642675 
L 141.146488 62.229754 
L 141.482865 58.287325 
L 141.819242 61.694484 
L 143.164749 68.824215 
L 143.501126 67.59417 
L 143.837503 69.919466 
L 144.17388 67.815739 
L 145.519387 70.864209 
L 145.855764 79.098583 
L 146.192141 79.429533 
L 146.528518 85.123363 
L 149.892287 89.905413 
L 150.228664 86.311447 
L 150.56504 87.192458 
L 150.901417 87.148741 
L 152.246925 93.032143 
L 152.583302 99.887764 
L 152.919679 101.123428 
L 153.256055 99.735765 
L 153.592432 99.443133 
L 154.601563 97.46156 
L 154.93794 97.237796 
L 155.274317 100.30075 
L 155.610694 94.789557 
L 155.94707 95.1069 
L 156.956201 92.029725 
L 157.292578 90.070273 
L 157.628955 89.031337 
L 157.965332 90.363168 
L 158.301709 90.349079 
L 159.310839 94.20166 
L 160.31997 118.459845 
L 160.656347 117.009942 
L 161.665477 117.287914 
L 162.001854 127.71854 
L 162.338231 146.205996 
L 163.010985 131.929284 
L 164.020116 127.922421 
L 164.356492 127.545208 
L 164.692869 127.741276 
L 165.029246 127.549598 
L 165.365623 130.617424 
L 166.711131 136.884973 
L 167.047507 137.958848 
L 167.383884 131.181223 
L 167.720261 129.628261 
L 169.402146 127.993439 
L 169.738522 126.513031 
L 170.074899 130.282919 
L 171.08403 129.032683 
L 171.420407 135.285704 
L 171.756784 130.703234 
L 172.093161 131.973221 
L 172.429538 127.741671 
L 173.438668 127.479062 
L 173.775045 129.873138 
L 174.111422 131.398799 
L 174.784176 144.601635 
L 175.793306 147.545684 
L 176.129683 165.019397 
L 176.46606 174.497072 
L 176.802437 169.697158 
L 177.138814 168.124225 
L 179.157075 160.061031 
L 179.493452 157.687278 
L 180.838959 166.307951 
L 181.511713 157.717125 
L 181.84809 157.461495 
L 182.857221 154.818548 
L 183.193598 155.167319 
L 183.529975 153.300788 
L 183.866351 154.155112 
L 184.202728 153.723693 
L 185.548236 144.371287 
L 185.884613 149.482048 
L 186.557366 144.539966 
L 187.566497 142.195709 
L 187.902874 140.707532 
L 188.239251 137.628381 
L 188.575628 138.776259 
L 189.921135 137.303488 
L 190.257512 131.449583 
L 190.593889 128.5798 
L 190.930266 124.626573 
L 191.266643 124.686618 
L 192.275773 116.053655 
L 192.61215 116.465631 
L 192.948527 113.477294 
L 193.621281 117.217203 
L 194.966788 114.929874 
L 195.303165 115.524091 
L 195.639542 119.10309 
L 195.975919 114.065322 
L 196.98505 109.346566 
L 197.657803 99.485182 
L 197.99418 102.263976 
L 198.330557 98.077153 
L 199.339688 97.614262 
L 199.676065 95.669339 
L 200.012442 94.451277 
L 200.348818 99.2443 
L 200.685195 100.166702 
L 201.694326 101.614849 
L 202.36708 110.585038 
L 202.703457 111.3949 
L 203.039833 111.255497 
L 204.048964 116.191214 
L 204.385341 113.344124 
L 204.721718 114.185412 
L 205.058095 112.327002 
L 205.394472 114.636321 
L 206.403602 116.289226 
L 206.739979 119.680102 
L 207.076356 119.01965 
L 207.412733 119.92037 
L 207.74911 119.069205 
L 209.094617 124.175138 
L 209.430994 131.22257 
L 209.767371 135.685214 
L 210.103748 135.259193 
L 211.112879 131.570112 
L 211.785632 127.728504 
L 212.122009 128.095796 
L 212.458386 123.31581 
L 213.467517 122.569548 
L 213.803894 122.102707 
L 214.14027 121.212215 
L 214.476647 119.396556 
L 214.813024 120.710479 
L 215.822155 122.607998 
L 216.158532 121.255581 
L 216.494909 121.169727 
L 216.831286 126.364499 
L 217.167662 124.73174 
L 218.176793 126.305156 
L 218.51317 127.2251 
L 219.522301 133.724226 
L 220.531431 133.667166 
L 220.867808 131.62129 
L 221.204185 126.351594 
L 221.540562 125.571711 
L 221.876939 127.492844 
L 223.222446 122.516921 
L 223.558823 122.181933 
L 224.231577 132.379227 
L 225.240707 142.092517 
L 225.577084 146.948482 
L 226.586215 154.150153 
L 227.595346 157.64479 
L 227.931723 162.434565 
L 228.268099 159.914825 
L 228.604476 164.703151 
L 228.940853 166.632273 
L 232.304622 168.631052 
L 232.640999 174.075923 
L 232.977376 174.257331 
L 233.313753 168.446484 
L 233.650129 167.243169 
L 234.995637 155.664138 
L 235.332014 156.536898 
L 235.668391 161.196839 
L 236.004768 163.439221 
L 237.013898 163.347179 
L 237.350275 168.301594 
L 237.686652 169.527601 
L 238.023029 168.124751 
L 238.359406 170.210833 
L 239.368536 178.380817 
L 239.704913 183.350859 
L 240.377667 166.924158 
L 240.714044 166.096476 
L 242.059551 154.768686 
L 243.068682 159.958191 
L 244.077813 152.925638 
L 244.41419 151.612636 
L 244.750566 146.198929 
L 245.086943 146.446044 
L 245.42332 149.874579 
L 246.432451 153.846372 
L 246.768828 158.296024 
L 247.105205 159.032892 
L 247.441581 159.172909 
L 247.777958 161.129376 
L 248.787089 161.328648 
L 249.123466 164.791507 
L 249.459843 157.406585 
L 249.79622 154.107094 
L 250.132597 147.957308 
L 251.141727 146.599097 
L 251.478104 137.563069 
L 251.814481 134.950014 
L 252.487235 136.80048 
L 253.496365 135.28566 
L 253.832742 137.530545 
L 254.169119 138.470284 
L 254.505496 138.781965 
L 254.841873 139.703358 
L 255.851003 139.094173 
L 256.523757 154.06206 
L 257.196511 160.704189 
L 258.205642 163.327251 
L 258.542018 162.40384 
L 258.878395 159.364456 
L 259.214772 160.16589 
L 259.551149 162.879635 
L 260.896657 162.285374 
L 261.905787 145.426464 
L 262.914918 142.07834 
L 263.251295 138.09373 
L 263.587672 137.174664 
L 264.260425 136.017568 
L 265.269556 130.555096 
L 265.605933 122.412413 
L 265.94231 119.299861 
L 266.278687 117.509264 
L 266.615064 116.977111 
L 269.978832 114.27706 
L 270.315209 111.894441 
L 270.651586 111.632578 
L 270.987963 106.856322 
L 271.32434 105.871153 
L 272.333471 109.698979 
L 272.669847 115.330525 
L 273.006224 117.388954 
L 273.342601 120.430533 
L 273.678978 117.681937 
L 274.688109 120.282615 
L 275.024486 120.301181 
L 275.360862 121.075402 
L 276.033616 126.022268 
L 277.042747 131.749632 
L 277.379124 127.705723 
L 277.715501 125.421423 
L 278.051877 127.147015 
L 279.733762 133.019795 
L 280.070139 131.003854 
L 280.406516 126.325259 
L 280.742892 124.226756 
L 281.752023 121.367288 
L 282.0884 121.151907 
L 282.761154 125.447495 
L 283.097531 124.987809 
L 284.106661 128.458612 
L 284.443038 125.421599 
L 284.779415 127.068755 
L 285.115792 126.01327 
L 285.452169 129.172305 
L 286.461299 129.722103 
L 286.797676 132.279503 
L 287.47043 134.406053 
L 287.806807 134.306988 
L 288.815938 137.271315 
L 289.488691 142.966462 
L 289.825068 144.563492 
L 290.161445 143.377428 
L 291.170576 143.782205 
L 291.506953 140.058712 
L 292.179706 136.472778 
L 292.516083 135.694607 
L 293.861591 133.59268 
L 294.197968 132.275816 
L 294.870721 127.028549 
L 295.879852 122.915685 
L 296.216229 115.525013 
L 296.552606 112.535052 
L 296.888983 113.769048 
L 298.23449 123.850904 
L 298.570867 129.52643 
L 298.907244 132.660403 
L 299.243621 134.296673 
L 299.579998 133.504939 
L 301.598259 129.586475 
L 301.934636 123.020106 
L 302.943766 122.467147 
L 303.280143 113.898838 
L 303.952897 122.644956 
L 304.289274 124.706677 
L 305.298405 128.816907 
L 305.634782 125.732051 
L 306.307535 128.848334 
L 306.643912 127.488367 
L 307.653043 128.879103 
L 307.98942 130.14852 
L 308.662173 144.048808 
L 308.99855 147.284611 
L 310.007681 148.15522 
L 310.344058 147.886422 
L 311.016812 148.740703 
L 311.353188 145.718569 
L 312.698696 138.837884 
L 313.035073 141.093084 
L 313.37145 141.81178 
L 314.716957 137.854647 
L 315.053334 137.409489 
L 315.389711 137.41796 
L 315.726088 137.733416 
L 316.062465 135.545197 
L 317.071595 132.791466 
L 317.407972 136.135508 
L 317.744349 140.641473 
L 319.426234 147.522772 
L 319.76261 154.93719 
L 320.098987 153.837506 
L 320.435364 154.56643 
L 320.771741 156.583205 
L 321.780872 156.202612 
L 322.117249 149.997346 
L 322.453625 147.189628 
L 322.790002 147.833751 
L 323.126379 148.759181 
L 324.13551 148.548936 
L 324.808264 141.999289 
L 325.14464 142.317247 
L 325.481017 137.646992 
L 326.490148 135.643999 
L 326.826525 137.960911 
L 327.162902 139.080215 
L 327.499279 141.831049 
L 327.835655 146.633772 
L 328.844786 149.254904 
L 329.181163 151.402918 
L 329.51754 143.886889 
L 329.853917 143.239386 
L 330.190294 143.748671 
L 331.199424 137.450485 
L 331.872178 130.448262 
L 332.208555 131.88548 
L 332.544932 130.407178 
L 333.554062 128.081795 
L 334.226816 133.097967 
L 334.563193 137.584401 
L 334.89957 139.035401 
L 335.908701 145.578815 
L 336.245077 149.081089 
L 336.581454 151.271986 
L 336.917831 154.860817 
L 337.254208 156.615553 
L 338.263339 160.412084 
L 338.599716 165.116531 
L 338.936092 162.940865 
L 339.272469 166.774792 
L 339.608846 167.576402 
L 340.617977 169.106101 
L 340.954354 162.572168 
L 341.290731 158.395572 
L 341.627108 158.724196 
L 341.963484 162.055026 
L 342.972615 161.753045 
L 343.308992 155.445641 
L 343.645369 155.283766 
L 343.981746 154.690338 
L 344.318123 157.398816 
L 345.327253 158.588436 
L 345.66363 155.208797 
L 346.000007 154.779045 
L 346.336384 155.716063 
L 346.672761 155.314929 
L 347.681891 155.221263 
L 348.018268 154.764165 
L 348.354645 156.094768 
L 348.691022 160.286288 
L 349.027399 165.877453 
L 350.036529 163.954344 
L 350.709283 170.092762 
L 351.04566 171.183053 
L 354.745806 171.856101 
L 355.082183 172.086976 
L 355.41856 173.052524 
L 355.754936 171.920667 
L 356.091313 167.468689 
L 357.100444 169.924829 
L 357.436821 172.331063 
L 357.773198 172.143817 
L 358.109575 174.695949 
L 358.445951 180.512152 
L 359.455082 184.811252 
L 359.791459 190.242911 
L 360.80059 185.944206 
L 362.146097 182.294321 
L 362.482474 183.017407 
L 362.818851 183.111469 
L 363.155228 184.301615 
L 364.164358 182.140477 
L 364.500735 177.376248 
L 364.837112 175.886535 
L 365.509866 175.232931 
L 366.518997 177.298339 
L 366.855373 176.993329 
L 367.19175 175.726064 
L 367.528127 173.328214 
L 367.864504 174.627082 
L 368.873635 174.872573 
L 369.210012 173.079957 
L 369.546388 171.937741 
L 369.882765 174.197154 
L 370.219142 173.512738 
L 371.228273 175.461392 
L 371.56465 176.928149 
L 371.901027 177.030111 
L 372.237403 178.843532 
L 372.57378 178.531281 
L 373.582911 178.13616 
L 373.919288 179.045306 
L 374.255665 184.136096 
L 374.592042 185.181222 
L 374.928419 185.278839 
L 375.937549 184.145094 
L 376.273926 181.753828 
L 376.610303 180.746143 
L 376.94668 184.320752 
L 377.283057 186.509586 
L 378.292187 188.809556 
L 378.628564 190.576933 
L 378.964941 191.438325 
L 379.301318 195.263692 
L 379.637695 195.117311 
L 380.646825 195.770695 
L 380.983202 196.485354 
L 381.319579 198.946585 
L 381.655956 198.144141 
L 381.992333 192.761115 
L 383.33784 189.098369 
L 384.010594 188.188301 
L 384.346971 189.174215 
L 385.356102 191.244188 
L 385.692479 196.42803 
L 386.028856 197.8178 
L 386.365232 200.292287 
L 386.701609 200.669104 
L 387.71074 202.237253 
L 388.047117 202.965694 
L 388.383494 202.569915 
L 388.719871 208.532894 
L 389.056247 207.368249 
L 390.065378 207.926387 
L 390.401755 213.683861 
L 390.738132 212.961301 
L 391.074509 206.123281 
L 391.410886 193.807294 
L 392.420016 189.493226 
L 392.756393 191.334782 
L 393.765524 213.011471 
L 394.774654 218.547682 
L 395.111031 221.775892 
L 395.447408 212.037714 
L 395.783785 207.086195 
L 399.483931 200.552833 
L 399.820308 194.805191 
L 400.156684 194.095404 
L 400.829438 187.405565 
L 401.838569 184.674043 
L 402.174946 186.33147 
L 402.511323 183.724428 
L 402.847699 191.545203 
L 403.184076 186.991395 
L 404.193207 183.447422 
L 404.865961 176.086422 
L 405.538714 173.298718 
L 406.547845 170.939405 
L 406.884222 167.573154 
L 407.220599 167.2929 
L 407.556976 167.996278 
L 407.893353 169.559336 
L 408.902483 168.685523 
L 409.23886 164.716846 
L 409.575237 164.852693 
L 409.911614 164.374835 
L 410.247991 164.845495 
L 411.257121 167.845112 
L 411.593498 170.891036 
L 411.929875 171.754666 
L 412.266252 175.483426 
L 413.61176 170.632816 
L 413.948136 166.018918 
L 414.284513 164.198958 
L 415.966398 163.912515 
L 416.639151 165.686388 
L 416.975528 168.234922 
L 417.311905 167.046619 
L 418.321036 169.531815 
L 418.657413 165.871 
L 418.99379 169.821725 
L 419.330167 165.562085 
L 419.666543 165.293199 
L 420.675674 167.966519 
L 421.348428 177.122242 
L 421.684805 177.307468 
L 422.021182 177.137824 
L 423.030312 171.82564 
L 423.366689 166.365274 
L 425.38495 164.951451 
L 425.721327 160.695103 
L 426.057704 159.890552 
L 426.394081 162.889204 
L 426.730458 161.844693 
L 427.739588 161.792329 
L 428.412342 163.38102 
L 428.748719 166.357242 
L 429.085096 166.168197 
L 430.094227 162.409678 
L 430.430604 158.577814 
L 430.76698 159.651821 
L 431.103357 159.283387 
L 431.439734 164.637269 
L 432.448865 169.264334 
L 432.785242 166.34109 
L 433.121619 166.545453 
L 433.457995 166.216962 
L 433.794372 167.616344 
L 434.803503 167.65734 
L 435.13988 167.477248 
L 435.476257 166.709085 
L 436.14901 171.116687 
L 437.494518 171.878223 
L 438.503649 180.840512 
L 439.512779 181.87879 
L 439.849156 184.879548 
L 440.185533 184.774996 
L 440.52191 186.392305 
L 440.858287 187.148662 
L 441.867417 187.00983 
L 442.203794 188.692758 
L 442.540171 189.479576 
L 442.876548 186.619625 
L 443.212925 188.128826 
L 444.222056 184.836007 
L 444.558432 182.757343 
L 444.894809 183.610659 
L 445.567563 190.27864 
L 446.576694 192.640059 
L 446.913071 196.062186 
L 447.249447 192.566144 
L 447.585824 193.835122 
L 447.922201 190.649049 
L 448.931332 190.704485 
L 449.940462 193.597312 
L 450.276839 182.468662 
L 451.28597 169.708351 
L 451.622347 160.522078 
L 452.295101 152.691427 
L 452.631478 150.545345 
L 453.640608 147.203893 
L 453.976985 144.641972 
L 454.313362 144.683495 
L 454.649739 135.71133 
L 454.986116 134.377743 
L 455.995246 138.134331 
L 456.331623 144.351272 
L 457.004377 148.118657 
L 458.349884 152.087598 
L 458.686261 154.309834 
L 459.022638 154.489925 
L 459.359015 156.778614 
L 459.695392 154.232495 
L 460.704523 153.067367 
L 461.040899 150.703753 
L 462.05003 156.081952 
L 463.059161 156.093715 
L 463.731915 155.273363 
L 464.404668 161.803478 
L 465.413799 160.547536 
L 465.750176 165.735197 
L 466.086553 169.036575 
L 466.42293 169.044651 
L 466.759306 167.044468 
L 467.768437 167.587814 
L 468.104814 169.244538 
L 468.441191 170.25275 
L 469.113945 178.028886 
L 471.132206 181.821247 
L 471.468583 179.63452 
L 472.477713 178.904016 
L 472.81409 177.784229 
L 473.150467 161.707967 
L 473.486844 155.426899 
L 473.823221 145.363785 
L 474.832352 131.149621 
L 477.523367 95.776437 
L 477.859743 65.838643 
L 478.19612 80.954492 
L 478.532497 81.944752 
L 479.541628 91.439106 
L 479.878005 83.574439 
L 480.214382 102.342324 
L 480.887135 120.101514 
L 481.896266 109.492333 
L 482.232643 102.497308 
L 482.56902 104.921275 
L 482.905397 99.98446 
L 484.250904 104.652872 
L 484.587281 99.478379 
L 485.260035 96.275627 
L 485.596412 90.473953 
L 486.605542 87.276293 
L 486.941919 82.249015 
L 487.278296 73.583704 
L 487.614673 71.472252 
L 487.95105 63.823273 
L 488.96018 62.959643 
L 489.296557 61.581856 
L 489.632934 65.615098 
L 489.969311 65.412139 
L 490.305688 70.430507 
L 491.314819 75.683962 
L 491.651195 76.75832 
L 491.987572 74.827224 
L 492.323949 79.946588 
L 492.660326 82.146702 
L 493.669457 89.89207 
L 494.005834 99.560458 
L 494.34221 103.786696 
L 494.678587 101.034019 
L 495.014964 101.302685 
L 496.024095 103.55389 
L 496.696849 87.713463 
L 497.033226 83.266269 
L 497.369602 87.853348 
L 498.378733 82.813474 
L 499.387864 70.258228 
L 499.724241 64.986557 
L 500.733371 68.259713 
L 501.069748 68.626435 
L 501.406125 78.022163 
L 501.742502 79.886806 
L 502.078879 82.683157 
L 503.088009 84.653537 
L 503.424386 91.965817 
L 504.09714 88.663649 
L 504.433517 87.142508 
L 505.442647 84.727672 
L 505.779024 82.672622 
L 506.451778 86.251314 
L 506.788155 100.016019 
L 507.797286 107.964916 
L 508.133663 111.889217 
L 508.806416 110.355831 
L 509.142793 112.945755 
L 510.151924 118.046245 
L 510.488301 121.463983 
L 510.824678 114.479888 
L 511.161054 113.534442 
L 511.497431 111.203309 
L 512.506562 110.36281 
L 512.842939 109.008637 
L 513.179316 108.410425 
L 513.515693 111.12202 
L 513.852069 108.947275 
L 514.8612 106.441932 
L 517.888592 105.903985 
L 518.224969 107.769375 
L 518.561346 104.196477 
L 519.570476 104.403299 
L 519.906853 106.010161 
L 520.24323 103.968762 
L 520.579607 98.308203 
L 520.915984 100.595839 
L 521.925115 97.176653 
L 522.261491 98.25167 
L 522.597868 104.195072 
L 523.270622 99.900318 
L 524.279753 91.13796 
L 524.952506 96.329395 
L 525.288883 98.102084 
L 526.634391 110.660489 
L 526.970768 111.189702 
L 527.307145 110.056967 
L 527.643521 107.013852 
L 527.979898 105.791269 
L 529.325406 102.563235 
L 529.661783 99.410565 
L 529.99816 97.539293 
L 530.334537 97.339363 
L 531.343667 95.90175 
L 531.680044 93.550514 
L 532.016421 92.381875 
L 532.352798 92.137876 
L 533.698305 95.715777 
L 534.034682 95.201664 
L 534.707436 94.825241 
L 535.043813 94.233394 
L 536.052943 95.567991 
L 536.38932 95.502855 
L 536.725697 93.393642 
L 537.062074 93.152277 
L 538.407582 94.075995 
L 538.743958 112.958133 
L 539.080335 111.845413 
L 539.416712 107.670397 
L 539.753089 108.847946 
L 540.76222 108.560801 
L 541.098597 107.641691 
L 541.434974 108.15282 
L 541.77135 107.852683 
L 542.107727 108.546273 
L 542.107727 108.546273 
" clip-path="url(#p63fa7bffc8)" style="fill: none; stroke-dasharray: 5.55,2.4; stroke-dashoffset: 0; stroke: #ff0000; stroke-width: 1.5"/>
   </g>
   <g id="patch_3">
    <path d="M 57.17 246.04 
L 57.17 26.88 
" style="fill: none; stroke: #000000; stroke-width: 0.8; stroke-linejoin: miter; stroke-linecap: square"/>
   </g>
   <g id="patch_4">
    <path d="M 565.2 246.04 
L 565.2 26.88 
" style="fill: none; stroke: #000000; stroke-width: 0.8; stroke-linejoin: miter; stroke-linecap: square"/>
   </g>
   <g id="patch_5">
    <path d="M 57.17 246.04 
L 565.2 246.04 
" style="fill: none; stroke: #000000; stroke-width: 0.8; stroke-linejoin: miter; stroke-linecap: square"/>
   </g>
   <g id="patch_6">
    <path d="M 57.17 26.88 
L 565.2 26.88 
" style="fill: none; stroke: #000000; stroke-width: 0.8; stroke-linejoin: miter; stroke-linecap: square"/>
   </g>
   <g id="text_17">
    <!-- Real vs Predicted Stock Prices -->
    <g transform="translate(221.412812 20.88) scale(0.12 -0.12)">
     <defs>
      <path id="DejaVuSans-52" d="M 2841 2188 
Q 3044 2119 3236 1894 
Q 3428 1669 3622 1275 
L 4263 0 
L 3584 0 
L 2988 1197 
Q 2756 1666 2539 1819 
Q 2322 1972 1947 1972 
L 1259 1972 
L 1259 0 
L 628 0 
L 628 4666 
L 2053 4666 
Q 2853 4666 3247 4331 
Q 3641 3997 3641 3322 
Q 3641 2881 3436 2590 
Q 3231 2300 2841 2188 
z
M 1259 4147 
L 1259 2491 
L 2053 2491 
Q 2509 2491 2742 2702 
Q 2975 2913 2975 3322 
Q 2975 3731 2742 3939 
Q 2509 4147 2053 4147 
L 1259 4147 
z
" transform="scale(0.015625)"/>
      <path id="DejaVuSans-6c" d="M 603 4863 
L 1178 4863 
L 1178 0 
L 603 0 
L 603 4863 
z
" transform="scale(0.015625)"/>
      <path id="DejaVuSans-76" d="M 191 3500 
L 800 3500 
L 1894 563 
L 2988 3500 
L 3597 3500 
L 2284 0 
L 1503 0 
L 191 3500 
z
" transform="scale(0.015625)"/>
      <path id="DejaVuSans-73" d="M 2834 3397 
L 2834 2853 
Q 2591 2978 2328 3040 
Q 2066 3103 1784 3103 
Q 1356 3103 1142 2972 
Q 928 2841 928 2578 
Q 928 2378 1081 2264 
Q 1234 2150 1697 2047 
L 1894 2003 
Q 2506 1872 2764 1633 
Q 3022 1394 3022 966 
Q 3022 478 2636 193 
Q 2250 -91 1575 -91 
Q 1294 -91 989 -36 
Q 684 19 347 128 
L 347 722 
Q 666 556 975 473 
Q 1284 391 1588 391 
Q 1994 391 2212 530 
Q 2431 669 2431 922 
Q 2431 1156 2273 1281 
Q 2116 1406 1581 1522 
L 1381 1569 
Q 847 1681 609 1914 
Q 372 2147 372 2553 
Q 372 3047 722 3315 
Q 1072 3584 1716 3584 
Q 2034 3584 2315 3537 
Q 2597 3491 2834 3397 
z
" transform="scale(0.015625)"/>
      <path id="DejaVuSans-64" d="M 2906 2969 
L 2906 4863 
L 3481 4863 
L 3481 0 
L 2906 0 
L 2906 525 
Q 2725 213 2448 61 
Q 2172 -91 1784 -91 
Q 1150 -91 751 415 
Q 353 922 353 1747 
Q 353 2572 751 3078 
Q 1150 3584 1784 3584 
Q 2172 3584 2448 3432 
Q 2725 3281 2906 2969 
z
M 947 1747 
Q 947 1113 1208 752 
Q 1469 391 1925 391 
Q 2381 391 2643 752 
Q 2906 1113 2906 1747 
Q 2906 2381 2643 2742 
Q 2381 3103 1925 3103 
Q 1469 3103 1208 2742 
Q 947 2381 947 1747 
z
" transform="scale(0.015625)"/>
     </defs>
     <use xlink:href="#DejaVuSans-52"/>
     <use xlink:href="#DejaVuSans-65" transform="translate(64.982422 0)"/>
     <use xlink:href="#DejaVuSans-61" transform="translate(126.505859 0)"/>
     <use xlink:href="#DejaVuSans-6c" transform="translate(187.785156 0)"/>
     <use xlink:href="#DejaVuSans-20" transform="translate(215.568359 0)"/>
     <use xlink:href="#DejaVuSans-76" transform="translate(247.355469 0)"/>
     <use xlink:href="#DejaVuSans-73" transform="translate(306.535156 0)"/>
     <use xlink:href="#DejaVuSans-20" transform="translate(358.634766 0)"/>
     <use xlink:href="#DejaVuSans-50" transform="translate(390.421875 0)"/>
     <use xlink:href="#DejaVuSans-72" transform="translate(448.974609 0)"/>
     <use xlink:href="#DejaVuSans-65" transform="translate(487.837891 0)"/>
     <use xlink:href="#DejaVuSans-64" transform="translate(549.361328 0)"/>
     <use xlink:href="#DejaVuSans-69" transform="translate(612.837891 0)"/>
     <use xlink:href="#DejaVuSans-63" transform="translate(640.621094 0)"/>
     <use xlink:href="#DejaVuSans-74" transform="translate(695.601562 0)"/>
     <use xlink:href="#DejaVuSans-65" transform="translate(734.810547 0)"/>
     <use xlink:href="#DejaVuSans-64" transform="translate(796.333984 0)"/>
     <use xlink:href="#DejaVuSans-20" transform="translate(859.810547 0)"/>
     <use xlink:href="#DejaVuSans-53" transform="translate(891.597656 0)"/>
     <use xlink:href="#DejaVuSans-74" transform="translate(955.074219 0)"/>
     <use xlink:href="#DejaVuSans-6f" transform="translate(994.283203 0)"/>
     <use xlink:href="#DejaVuSans-63" transform="translate(1055.464844 0)"/>
     <use xlink:href="#DejaVuSans-6b" transform="translate(1110.445312 0)"/>
     <use xlink:href="#DejaVuSans-20" transform="translate(1168.355469 0)"/>
     <use xlink:href="#DejaVuSans-50" transform="translate(1200.142578 0)"/>
     <use xlink:href="#DejaVuSans-72" transform="translate(1258.695312 0)"/>
     <use xlink:href="#DejaVuSans-69" transform="translate(1299.808594 0)"/>
     <use xlink:href="#DejaVuSans-63" transform="translate(1327.591797 0)"/>
     <use xlink:href="#DejaVuSans-65" transform="translate(1382.572266 0)"/>
     <use xlink:href="#DejaVuSans-73" transform="translate(1444.095703 0)"/>
    </g>
   </g>
   <g id="legend_1">
    <g id="patch_7">
     <path d="M 64.17 241.04 
L 175.893438 241.04 
Q 177.893438 241.04 177.893438 239.04 
L 177.893438 210.68375 
Q 177.893438 208.68375 175.893438 208.68375 
L 64.17 208.68375 
Q 62.17 208.68375 62.17 210.68375 
L 62.17 239.04 
Q 62.17 241.04 64.17 241.04 
z
" style="fill: #ffffff; opacity: 0.8; stroke: #cccccc; stroke-linejoin: miter"/>
    </g>
    <g id="line2d_17">
     <path d="M 66.17 216.782187 
L 76.17 216.782187 
L 86.17 216.782187 
" style="fill: none; stroke: #0000ff; stroke-width: 1.5; stroke-linecap: square"/>
    </g>
    <g id="text_18">
     <!-- Real Prices -->
     <g transform="translate(94.17 220.282187) scale(0.1 -0.1)">
      <use xlink:href="#DejaVuSans-52"/>
      <use xlink:href="#DejaVuSans-65" transform="translate(64.982422 0)"/>
      <use xlink:href="#DejaVuSans-61" transform="translate(126.505859 0)"/>
      <use xlink:href="#DejaVuSans-6c" transform="translate(187.785156 0)"/>
      <use xlink:href="#DejaVuSans-20" transform="translate(215.568359 0)"/>
      <use xlink:href="#DejaVuSans-50" transform="translate(247.355469 0)"/>
      <use xlink:href="#DejaVuSans-72" transform="translate(305.908203 0)"/>
      <use xlink:href="#DejaVuSans-69" transform="translate(347.021484 0)"/>
      <use xlink:href="#DejaVuSans-63" transform="translate(374.804688 0)"/>
      <use xlink:href="#DejaVuSans-65" transform="translate(429.785156 0)"/>
      <use xlink:href="#DejaVuSans-73" transform="translate(491.308594 0)"/>
     </g>
    </g>
    <g id="line2d_18">
     <path d="M 66.17 231.460312 
L 76.17 231.460312 
L 86.17 231.460312 
" style="fill: none; stroke-dasharray: 5.55,2.4; stroke-dashoffset: 0; stroke: #ff0000; stroke-width: 1.5"/>
    </g>
    <g id="text_19">
     <!-- Predicted Prices -->
     <g transform="translate(94.17 234.960312) scale(0.1 -0.1)">
      <use xlink:href="#DejaVuSans-50"/>
      <use xlink:href="#DejaVuSans-72" transform="translate(58.552734 0)"/>
      <use xlink:href="#DejaVuSans-65" transform="translate(97.416016 0)"/>
      <use xlink:href="#DejaVuSans-64" transform="translate(158.939453 0)"/>
      <use xlink:href="#DejaVuSans-69" transform="translate(222.416016 0)"/>
      <use xlink:href="#DejaVuSans-63" transform="translate(250.199219 0)"/>
      <use xlink:href="#DejaVuSans-74" transform="translate(305.179688 0)"/>
      <use xlink:href="#DejaVuSans-65" transform="translate(344.388672 0)"/>
      <use xlink:href="#DejaVuSans-64" transform="translate(405.912109 0)"/>
      <use xlink:href="#DejaVuSans-20" transform="translate(469.388672 0)"/>
      <use xlink:href="#DejaVuSans-50" transform="translate(501.175781 0)"/>
      <use xlink:href="#DejaVuSans-72" transform="translate(559.728516 0)"/>
      <use xlink:href="#DejaVuSans-69" transform="translate(600.841797 0)"/>
      <use xlink:href="#DejaVuSans-63" transform="translate(628.625 0)"/>
      <use xlink:href="#DejaVuSans-65" transform="translate(683.605469 0)"/>
      <use xlink:href="#DejaVuSans-73" transform="translate(745.128906 0)"/>
     </g>
    </g>
   </g>
  </g>
 </g>
 <defs>
  <clipPath id="p63fa7bffc8">
   <rect x="57.17" y="26.88" width="508.03" height="219.16"/>
  </clipPath>
 </defs>
</svg>
