<?xml version="1.0" encoding="utf-8" standalone="no"?>
<!DOCTYPE svg PUBLIC "-//W3C//DTD SVG 1.1//EN"
  "http://www.w3.org/Graphics/SVG/1.1/DTD/svg11.dtd">
<svg xmlns:xlink="http://www.w3.org/1999/xlink" width="1144.558125pt" height="855.034375pt" viewBox="0 0 1144.558125 855.034375" xmlns="http://www.w3.org/2000/svg" version="1.1">
 <metadata>
  <rdf:RDF xmlns:dc="http://purl.org/dc/elements/1.1/" xmlns:cc="http://creativecommons.org/ns#" xmlns:rdf="http://www.w3.org/1999/02/22-rdf-syntax-ns#">
   <cc:Work>
    <dc:type rdf:resource="http://purl.org/dc/dcmitype/StillImage"/>
    <dc:date>2025-05-10T17:01:18.644816</dc:date>
    <dc:format>image/svg+xml</dc:format>
    <dc:creator>
     <cc:Agent>
      <dc:title>Matplotlib v3.10.1, https://matplotlib.org/</dc:title>
     </cc:Agent>
    </dc:creator>
   </cc:Work>
  </rdf:RDF>
 </metadata>
 <defs>
  <style type="text/css">*{stroke-linejoin: round; stroke-linecap: butt}</style>
 </defs>
 <g id="figure_1">
  <g id="patch_1">
   <path d="M 0 855.034375 
L 1144.558125 855.034375 
L 1144.558125 0 
L 0 0 
z
" style="fill: #ffffff"/>
  </g>
  <g id="axes_1">
   <g id="patch_2">
    <path d="M 53.328125 177.578125 
L 1137.358125 177.578125 
L 1137.358125 22.318125 
L 53.328125 22.318125 
z
" style="fill: #ffffff"/>
   </g>
   <g id="matplotlib.axis_1">
    <g id="xtick_1">
     <g id="line2d_1">
      <path d="M 98.453664 177.578125 
L 98.453664 22.318125 
" clip-path="url(#p27c311d133)" style="fill: none; stroke: #b0b0b0; stroke-width: 0.8; stroke-linecap: square"/>
     </g>
     <g id="line2d_2">
      <defs>
       <path id="m6285fc6979" d="M 0 0 
L 0 3.5 
" style="stroke: #000000; stroke-width: 0.8"/>
      </defs>
      <g>
       <use xlink:href="#m6285fc6979" x="98.453664" y="177.578125" style="stroke: #000000; stroke-width: 0.8"/>
      </g>
     </g>
     <g id="text_1">
      <!-- 2005 -->
      <g transform="translate(85.728664 192.176562) scale(0.1 -0.1)">
       <defs>
        <path id="DejaVuSans-32" d="M 1228 531 
L 3431 531 
L 3431 0 
L 469 0 
L 469 531 
Q 828 903 1448 1529 
Q 2069 2156 2228 2338 
Q 2531 2678 2651 2914 
Q 2772 3150 2772 3378 
Q 2772 3750 2511 3984 
Q 2250 4219 1831 4219 
Q 1534 4219 1204 4116 
Q 875 4013 500 3803 
L 500 4441 
Q 881 4594 1212 4672 
Q 1544 4750 1819 4750 
Q 2544 4750 2975 4387 
Q 3406 4025 3406 3419 
Q 3406 3131 3298 2873 
Q 3191 2616 2906 2266 
Q 2828 2175 2409 1742 
Q 1991 1309 1228 531 
z
" transform="scale(0.015625)"/>
        <path id="DejaVuSans-30" d="M 2034 4250 
Q 1547 4250 1301 3770 
Q 1056 3291 1056 2328 
Q 1056 1369 1301 889 
Q 1547 409 2034 409 
Q 2525 409 2770 889 
Q 3016 1369 3016 2328 
Q 3016 3291 2770 3770 
Q 2525 4250 2034 4250 
z
M 2034 4750 
Q 2819 4750 3233 4129 
Q 3647 3509 3647 2328 
Q 3647 1150 3233 529 
Q 2819 -91 2034 -91 
Q 1250 -91 836 529 
Q 422 1150 422 2328 
Q 422 3509 836 4129 
Q 1250 4750 2034 4750 
z
" transform="scale(0.015625)"/>
        <path id="DejaVuSans-35" d="M 691 4666 
L 3169 4666 
L 3169 4134 
L 1269 4134 
L 1269 2991 
Q 1406 3038 1543 3061 
Q 1681 3084 1819 3084 
Q 2600 3084 3056 2656 
Q 3513 2228 3513 1497 
Q 3513 744 3044 326 
Q 2575 -91 1722 -91 
Q 1428 -91 1123 -41 
Q 819 9 494 109 
L 494 744 
Q 775 591 1075 516 
Q 1375 441 1709 441 
Q 2250 441 2565 725 
Q 2881 1009 2881 1497 
Q 2881 1984 2565 2268 
Q 2250 2553 1709 2553 
Q 1456 2553 1204 2497 
Q 953 2441 691 2322 
L 691 4666 
z
" transform="scale(0.015625)"/>
       </defs>
       <use xlink:href="#DejaVuSans-32"/>
       <use xlink:href="#DejaVuSans-30" transform="translate(63.623047 0)"/>
       <use xlink:href="#DejaVuSans-30" transform="translate(127.246094 0)"/>
       <use xlink:href="#DejaVuSans-35" transform="translate(190.869141 0)"/>
      </g>
     </g>
    </g>
    <g id="xtick_2">
     <g id="line2d_3">
      <path d="M 342.816755 177.578125 
L 342.816755 22.318125 
" clip-path="url(#p27c311d133)" style="fill: none; stroke: #b0b0b0; stroke-width: 0.8; stroke-linecap: square"/>
     </g>
     <g id="line2d_4">
      <g>
       <use xlink:href="#m6285fc6979" x="342.816755" y="177.578125" style="stroke: #000000; stroke-width: 0.8"/>
      </g>
     </g>
     <g id="text_2">
      <!-- 2010 -->
      <g transform="translate(330.091755 192.176562) scale(0.1 -0.1)">
       <defs>
        <path id="DejaVuSans-31" d="M 794 531 
L 1825 531 
L 1825 4091 
L 703 3866 
L 703 4441 
L 1819 4666 
L 2450 4666 
L 2450 531 
L 3481 531 
L 3481 0 
L 794 0 
L 794 531 
z
" transform="scale(0.015625)"/>
       </defs>
       <use xlink:href="#DejaVuSans-32"/>
       <use xlink:href="#DejaVuSans-30" transform="translate(63.623047 0)"/>
       <use xlink:href="#DejaVuSans-31" transform="translate(127.246094 0)"/>
       <use xlink:href="#DejaVuSans-30" transform="translate(190.869141 0)"/>
      </g>
     </g>
    </g>
    <g id="xtick_3">
     <g id="line2d_5">
      <path d="M 587.179845 177.578125 
L 587.179845 22.318125 
" clip-path="url(#p27c311d133)" style="fill: none; stroke: #b0b0b0; stroke-width: 0.8; stroke-linecap: square"/>
     </g>
     <g id="line2d_6">
      <g>
       <use xlink:href="#m6285fc6979" x="587.179845" y="177.578125" style="stroke: #000000; stroke-width: 0.8"/>
      </g>
     </g>
     <g id="text_3">
      <!-- 2015 -->
      <g transform="translate(574.454845 192.176562) scale(0.1 -0.1)">
       <use xlink:href="#DejaVuSans-32"/>
       <use xlink:href="#DejaVuSans-30" transform="translate(63.623047 0)"/>
       <use xlink:href="#DejaVuSans-31" transform="translate(127.246094 0)"/>
       <use xlink:href="#DejaVuSans-35" transform="translate(190.869141 0)"/>
      </g>
     </g>
    </g>
    <g id="xtick_4">
     <g id="line2d_7">
      <path d="M 831.542936 177.578125 
L 831.542936 22.318125 
" clip-path="url(#p27c311d133)" style="fill: none; stroke: #b0b0b0; stroke-width: 0.8; stroke-linecap: square"/>
     </g>
     <g id="line2d_8">
      <g>
       <use xlink:href="#m6285fc6979" x="831.542936" y="177.578125" style="stroke: #000000; stroke-width: 0.8"/>
      </g>
     </g>
     <g id="text_4">
      <!-- 2020 -->
      <g transform="translate(818.817936 192.176562) scale(0.1 -0.1)">
       <use xlink:href="#DejaVuSans-32"/>
       <use xlink:href="#DejaVuSans-30" transform="translate(63.623047 0)"/>
       <use xlink:href="#DejaVuSans-32" transform="translate(127.246094 0)"/>
       <use xlink:href="#DejaVuSans-30" transform="translate(190.869141 0)"/>
      </g>
     </g>
    </g>
    <g id="xtick_5">
     <g id="line2d_9">
      <path d="M 1076.039851 177.578125 
L 1076.039851 22.318125 
" clip-path="url(#p27c311d133)" style="fill: none; stroke: #b0b0b0; stroke-width: 0.8; stroke-linecap: square"/>
     </g>
     <g id="line2d_10">
      <g>
       <use xlink:href="#m6285fc6979" x="1076.039851" y="177.578125" style="stroke: #000000; stroke-width: 0.8"/>
      </g>
     </g>
     <g id="text_5">
      <!-- 2025 -->
      <g transform="translate(1063.314851 192.176562) scale(0.1 -0.1)">
       <use xlink:href="#DejaVuSans-32"/>
       <use xlink:href="#DejaVuSans-30" transform="translate(63.623047 0)"/>
       <use xlink:href="#DejaVuSans-32" transform="translate(127.246094 0)"/>
       <use xlink:href="#DejaVuSans-35" transform="translate(190.869141 0)"/>
      </g>
     </g>
    </g>
    <g id="text_6">
     <!-- Date -->
     <g transform="translate(583.392344 205.854687) scale(0.1 -0.1)">
      <defs>
       <path id="DejaVuSans-44" d="M 1259 4147 
L 1259 519 
L 2022 519 
Q 2988 519 3436 956 
Q 3884 1394 3884 2338 
Q 3884 3275 3436 3711 
Q 2988 4147 2022 4147 
L 1259 4147 
z
M 628 4666 
L 1925 4666 
Q 3281 4666 3915 4102 
Q 4550 3538 4550 2338 
Q 4550 1131 3912 565 
Q 3275 0 1925 0 
L 628 0 
L 628 4666 
z
" transform="scale(0.015625)"/>
       <path id="DejaVuSans-61" d="M 2194 1759 
Q 1497 1759 1228 1600 
Q 959 1441 959 1056 
Q 959 750 1161 570 
Q 1363 391 1709 391 
Q 2188 391 2477 730 
Q 2766 1069 2766 1631 
L 2766 1759 
L 2194 1759 
z
M 3341 1997 
L 3341 0 
L 2766 0 
L 2766 531 
Q 2569 213 2275 61 
Q 1981 -91 1556 -91 
Q 1019 -91 701 211 
Q 384 513 384 1019 
Q 384 1609 779 1909 
Q 1175 2209 1959 2209 
L 2766 2209 
L 2766 2266 
Q 2766 2663 2505 2880 
Q 2244 3097 1772 3097 
Q 1472 3097 1187 3025 
Q 903 2953 641 2809 
L 641 3341 
Q 956 3463 1253 3523 
Q 1550 3584 1831 3584 
Q 2591 3584 2966 3190 
Q 3341 2797 3341 1997 
z
" transform="scale(0.015625)"/>
       <path id="DejaVuSans-74" d="M 1172 4494 
L 1172 3500 
L 2356 3500 
L 2356 3053 
L 1172 3053 
L 1172 1153 
Q 1172 725 1289 603 
Q 1406 481 1766 481 
L 2356 481 
L 2356 0 
L 1766 0 
Q 1100 0 847 248 
Q 594 497 594 1153 
L 594 3053 
L 172 3053 
L 172 3500 
L 594 3500 
L 594 4494 
L 1172 4494 
z
" transform="scale(0.015625)"/>
       <path id="DejaVuSans-65" d="M 3597 1894 
L 3597 1613 
L 953 1613 
Q 991 1019 1311 708 
Q 1631 397 2203 397 
Q 2534 397 2845 478 
Q 3156 559 3463 722 
L 3463 178 
Q 3153 47 2828 -22 
Q 2503 -91 2169 -91 
Q 1331 -91 842 396 
Q 353 884 353 1716 
Q 353 2575 817 3079 
Q 1281 3584 2069 3584 
Q 2775 3584 3186 3129 
Q 3597 2675 3597 1894 
z
M 3022 2063 
Q 3016 2534 2758 2815 
Q 2500 3097 2075 3097 
Q 1594 3097 1305 2825 
Q 1016 2553 972 2059 
L 3022 2063 
z
" transform="scale(0.015625)"/>
      </defs>
      <use xlink:href="#DejaVuSans-44"/>
      <use xlink:href="#DejaVuSans-61" transform="translate(77.001953 0)"/>
      <use xlink:href="#DejaVuSans-74" transform="translate(138.28125 0)"/>
      <use xlink:href="#DejaVuSans-65" transform="translate(177.490234 0)"/>
     </g>
    </g>
   </g>
   <g id="matplotlib.axis_2">
    <g id="ytick_1">
     <g id="line2d_11">
      <path d="M 53.328125 166.323059 
L 1137.358125 166.323059 
" clip-path="url(#p27c311d133)" style="fill: none; stroke: #b0b0b0; stroke-width: 0.8; stroke-linecap: square"/>
     </g>
     <g id="line2d_12">
      <defs>
       <path id="m0a0ed96bd3" d="M 0 0 
L -3.5 0 
" style="stroke: #000000; stroke-width: 0.8"/>
      </defs>
      <g>
       <use xlink:href="#m0a0ed96bd3" x="53.328125" y="166.323059" style="stroke: #000000; stroke-width: 0.8"/>
      </g>
     </g>
     <g id="text_7">
      <!-- 1000 -->
      <g transform="translate(20.878125 170.122277) scale(0.1 -0.1)">
       <use xlink:href="#DejaVuSans-31"/>
       <use xlink:href="#DejaVuSans-30" transform="translate(63.623047 0)"/>
       <use xlink:href="#DejaVuSans-30" transform="translate(127.246094 0)"/>
       <use xlink:href="#DejaVuSans-30" transform="translate(190.869141 0)"/>
      </g>
     </g>
    </g>
    <g id="ytick_2">
     <g id="line2d_13">
      <path d="M 53.328125 136.480263 
L 1137.358125 136.480263 
" clip-path="url(#p27c311d133)" style="fill: none; stroke: #b0b0b0; stroke-width: 0.8; stroke-linecap: square"/>
     </g>
     <g id="line2d_14">
      <g>
       <use xlink:href="#m0a0ed96bd3" x="53.328125" y="136.480263" style="stroke: #000000; stroke-width: 0.8"/>
      </g>
     </g>
     <g id="text_8">
      <!-- 2000 -->
      <g transform="translate(20.878125 140.279482) scale(0.1 -0.1)">
       <use xlink:href="#DejaVuSans-32"/>
       <use xlink:href="#DejaVuSans-30" transform="translate(63.623047 0)"/>
       <use xlink:href="#DejaVuSans-30" transform="translate(127.246094 0)"/>
       <use xlink:href="#DejaVuSans-30" transform="translate(190.869141 0)"/>
      </g>
     </g>
    </g>
    <g id="ytick_3">
     <g id="line2d_15">
      <path d="M 53.328125 106.637467 
L 1137.358125 106.637467 
" clip-path="url(#p27c311d133)" style="fill: none; stroke: #b0b0b0; stroke-width: 0.8; stroke-linecap: square"/>
     </g>
     <g id="line2d_16">
      <g>
       <use xlink:href="#m0a0ed96bd3" x="53.328125" y="106.637467" style="stroke: #000000; stroke-width: 0.8"/>
      </g>
     </g>
     <g id="text_9">
      <!-- 3000 -->
      <g transform="translate(20.878125 110.436686) scale(0.1 -0.1)">
       <defs>
        <path id="DejaVuSans-33" d="M 2597 2516 
Q 3050 2419 3304 2112 
Q 3559 1806 3559 1356 
Q 3559 666 3084 287 
Q 2609 -91 1734 -91 
Q 1441 -91 1130 -33 
Q 819 25 488 141 
L 488 750 
Q 750 597 1062 519 
Q 1375 441 1716 441 
Q 2309 441 2620 675 
Q 2931 909 2931 1356 
Q 2931 1769 2642 2001 
Q 2353 2234 1838 2234 
L 1294 2234 
L 1294 2753 
L 1863 2753 
Q 2328 2753 2575 2939 
Q 2822 3125 2822 3475 
Q 2822 3834 2567 4026 
Q 2313 4219 1838 4219 
Q 1578 4219 1281 4162 
Q 984 4106 628 3988 
L 628 4550 
Q 988 4650 1302 4700 
Q 1616 4750 1894 4750 
Q 2613 4750 3031 4423 
Q 3450 4097 3450 3541 
Q 3450 3153 3228 2886 
Q 3006 2619 2597 2516 
z
" transform="scale(0.015625)"/>
       </defs>
       <use xlink:href="#DejaVuSans-33"/>
       <use xlink:href="#DejaVuSans-30" transform="translate(63.623047 0)"/>
       <use xlink:href="#DejaVuSans-30" transform="translate(127.246094 0)"/>
       <use xlink:href="#DejaVuSans-30" transform="translate(190.869141 0)"/>
      </g>
     </g>
    </g>
    <g id="ytick_4">
     <g id="line2d_17">
      <path d="M 53.328125 76.794672 
L 1137.358125 76.794672 
" clip-path="url(#p27c311d133)" style="fill: none; stroke: #b0b0b0; stroke-width: 0.8; stroke-linecap: square"/>
     </g>
     <g id="line2d_18">
      <g>
       <use xlink:href="#m0a0ed96bd3" x="53.328125" y="76.794672" style="stroke: #000000; stroke-width: 0.8"/>
      </g>
     </g>
     <g id="text_10">
      <!-- 4000 -->
      <g transform="translate(20.878125 80.59389) scale(0.1 -0.1)">
       <defs>
        <path id="DejaVuSans-34" d="M 2419 4116 
L 825 1625 
L 2419 1625 
L 2419 4116 
z
M 2253 4666 
L 3047 4666 
L 3047 1625 
L 3713 1625 
L 3713 1100 
L 3047 1100 
L 3047 0 
L 2419 0 
L 2419 1100 
L 313 1100 
L 313 1709 
L 2253 4666 
z
" transform="scale(0.015625)"/>
       </defs>
       <use xlink:href="#DejaVuSans-34"/>
       <use xlink:href="#DejaVuSans-30" transform="translate(63.623047 0)"/>
       <use xlink:href="#DejaVuSans-30" transform="translate(127.246094 0)"/>
       <use xlink:href="#DejaVuSans-30" transform="translate(190.869141 0)"/>
      </g>
     </g>
    </g>
    <g id="ytick_5">
     <g id="line2d_19">
      <path d="M 53.328125 46.951876 
L 1137.358125 46.951876 
" clip-path="url(#p27c311d133)" style="fill: none; stroke: #b0b0b0; stroke-width: 0.8; stroke-linecap: square"/>
     </g>
     <g id="line2d_20">
      <g>
       <use xlink:href="#m0a0ed96bd3" x="53.328125" y="46.951876" style="stroke: #000000; stroke-width: 0.8"/>
      </g>
     </g>
     <g id="text_11">
      <!-- 5000 -->
      <g transform="translate(20.878125 50.751095) scale(0.1 -0.1)">
       <use xlink:href="#DejaVuSans-35"/>
       <use xlink:href="#DejaVuSans-30" transform="translate(63.623047 0)"/>
       <use xlink:href="#DejaVuSans-30" transform="translate(127.246094 0)"/>
       <use xlink:href="#DejaVuSans-30" transform="translate(190.869141 0)"/>
      </g>
     </g>
    </g>
    <g id="text_12">
     <!-- Closing Price -->
     <g transform="translate(14.798438 132.011406) rotate(-90) scale(0.1 -0.1)">
      <defs>
       <path id="DejaVuSans-43" d="M 4122 4306 
L 4122 3641 
Q 3803 3938 3442 4084 
Q 3081 4231 2675 4231 
Q 1875 4231 1450 3742 
Q 1025 3253 1025 2328 
Q 1025 1406 1450 917 
Q 1875 428 2675 428 
Q 3081 428 3442 575 
Q 3803 722 4122 1019 
L 4122 359 
Q 3791 134 3420 21 
Q 3050 -91 2638 -91 
Q 1578 -91 968 557 
Q 359 1206 359 2328 
Q 359 3453 968 4101 
Q 1578 4750 2638 4750 
Q 3056 4750 3426 4639 
Q 3797 4528 4122 4306 
z
" transform="scale(0.015625)"/>
       <path id="DejaVuSans-6c" d="M 603 4863 
L 1178 4863 
L 1178 0 
L 603 0 
L 603 4863 
z
" transform="scale(0.015625)"/>
       <path id="DejaVuSans-6f" d="M 1959 3097 
Q 1497 3097 1228 2736 
Q 959 2375 959 1747 
Q 959 1119 1226 758 
Q 1494 397 1959 397 
Q 2419 397 2687 759 
Q 2956 1122 2956 1747 
Q 2956 2369 2687 2733 
Q 2419 3097 1959 3097 
z
M 1959 3584 
Q 2709 3584 3137 3096 
Q 3566 2609 3566 1747 
Q 3566 888 3137 398 
Q 2709 -91 1959 -91 
Q 1206 -91 779 398 
Q 353 888 353 1747 
Q 353 2609 779 3096 
Q 1206 3584 1959 3584 
z
" transform="scale(0.015625)"/>
       <path id="DejaVuSans-73" d="M 2834 3397 
L 2834 2853 
Q 2591 2978 2328 3040 
Q 2066 3103 1784 3103 
Q 1356 3103 1142 2972 
Q 928 2841 928 2578 
Q 928 2378 1081 2264 
Q 1234 2150 1697 2047 
L 1894 2003 
Q 2506 1872 2764 1633 
Q 3022 1394 3022 966 
Q 3022 478 2636 193 
Q 2250 -91 1575 -91 
Q 1294 -91 989 -36 
Q 684 19 347 128 
L 347 722 
Q 666 556 975 473 
Q 1284 391 1588 391 
Q 1994 391 2212 530 
Q 2431 669 2431 922 
Q 2431 1156 2273 1281 
Q 2116 1406 1581 1522 
L 1381 1569 
Q 847 1681 609 1914 
Q 372 2147 372 2553 
Q 372 3047 722 3315 
Q 1072 3584 1716 3584 
Q 2034 3584 2315 3537 
Q 2597 3491 2834 3397 
z
" transform="scale(0.015625)"/>
       <path id="DejaVuSans-69" d="M 603 3500 
L 1178 3500 
L 1178 0 
L 603 0 
L 603 3500 
z
M 603 4863 
L 1178 4863 
L 1178 4134 
L 603 4134 
L 603 4863 
z
" transform="scale(0.015625)"/>
       <path id="DejaVuSans-6e" d="M 3513 2113 
L 3513 0 
L 2938 0 
L 2938 2094 
Q 2938 2591 2744 2837 
Q 2550 3084 2163 3084 
Q 1697 3084 1428 2787 
Q 1159 2491 1159 1978 
L 1159 0 
L 581 0 
L 581 3500 
L 1159 3500 
L 1159 2956 
Q 1366 3272 1645 3428 
Q 1925 3584 2291 3584 
Q 2894 3584 3203 3211 
Q 3513 2838 3513 2113 
z
" transform="scale(0.015625)"/>
       <path id="DejaVuSans-67" d="M 2906 1791 
Q 2906 2416 2648 2759 
Q 2391 3103 1925 3103 
Q 1463 3103 1205 2759 
Q 947 2416 947 1791 
Q 947 1169 1205 825 
Q 1463 481 1925 481 
Q 2391 481 2648 825 
Q 2906 1169 2906 1791 
z
M 3481 434 
Q 3481 -459 3084 -895 
Q 2688 -1331 1869 -1331 
Q 1566 -1331 1297 -1286 
Q 1028 -1241 775 -1147 
L 775 -588 
Q 1028 -725 1275 -790 
Q 1522 -856 1778 -856 
Q 2344 -856 2625 -561 
Q 2906 -266 2906 331 
L 2906 616 
Q 2728 306 2450 153 
Q 2172 0 1784 0 
Q 1141 0 747 490 
Q 353 981 353 1791 
Q 353 2603 747 3093 
Q 1141 3584 1784 3584 
Q 2172 3584 2450 3431 
Q 2728 3278 2906 2969 
L 2906 3500 
L 3481 3500 
L 3481 434 
z
" transform="scale(0.015625)"/>
       <path id="DejaVuSans-20" transform="scale(0.015625)"/>
       <path id="DejaVuSans-50" d="M 1259 4147 
L 1259 2394 
L 2053 2394 
Q 2494 2394 2734 2622 
Q 2975 2850 2975 3272 
Q 2975 3691 2734 3919 
Q 2494 4147 2053 4147 
L 1259 4147 
z
M 628 4666 
L 2053 4666 
Q 2838 4666 3239 4311 
Q 3641 3956 3641 3272 
Q 3641 2581 3239 2228 
Q 2838 1875 2053 1875 
L 1259 1875 
L 1259 0 
L 628 0 
L 628 4666 
z
" transform="scale(0.015625)"/>
       <path id="DejaVuSans-72" d="M 2631 2963 
Q 2534 3019 2420 3045 
Q 2306 3072 2169 3072 
Q 1681 3072 1420 2755 
Q 1159 2438 1159 1844 
L 1159 0 
L 581 0 
L 581 3500 
L 1159 3500 
L 1159 2956 
Q 1341 3275 1631 3429 
Q 1922 3584 2338 3584 
Q 2397 3584 2469 3576 
Q 2541 3569 2628 3553 
L 2631 2963 
z
" transform="scale(0.015625)"/>
       <path id="DejaVuSans-63" d="M 3122 3366 
L 3122 2828 
Q 2878 2963 2633 3030 
Q 2388 3097 2138 3097 
Q 1578 3097 1268 2742 
Q 959 2388 959 1747 
Q 959 1106 1268 751 
Q 1578 397 2138 397 
Q 2388 397 2633 464 
Q 2878 531 3122 666 
L 3122 134 
Q 2881 22 2623 -34 
Q 2366 -91 2075 -91 
Q 1284 -91 818 406 
Q 353 903 353 1747 
Q 353 2603 823 3093 
Q 1294 3584 2113 3584 
Q 2378 3584 2631 3529 
Q 2884 3475 3122 3366 
z
" transform="scale(0.015625)"/>
      </defs>
      <use xlink:href="#DejaVuSans-43"/>
      <use xlink:href="#DejaVuSans-6c" transform="translate(69.824219 0)"/>
      <use xlink:href="#DejaVuSans-6f" transform="translate(97.607422 0)"/>
      <use xlink:href="#DejaVuSans-73" transform="translate(158.789062 0)"/>
      <use xlink:href="#DejaVuSans-69" transform="translate(210.888672 0)"/>
      <use xlink:href="#DejaVuSans-6e" transform="translate(238.671875 0)"/>
      <use xlink:href="#DejaVuSans-67" transform="translate(302.050781 0)"/>
      <use xlink:href="#DejaVuSans-20" transform="translate(365.527344 0)"/>
      <use xlink:href="#DejaVuSans-50" transform="translate(397.314453 0)"/>
      <use xlink:href="#DejaVuSans-72" transform="translate(455.867188 0)"/>
      <use xlink:href="#DejaVuSans-69" transform="translate(496.980469 0)"/>
      <use xlink:href="#DejaVuSans-63" transform="translate(524.763672 0)"/>
      <use xlink:href="#DejaVuSans-65" transform="translate(579.744141 0)"/>
     </g>
    </g>
   </g>
   <g id="line2d_21">
    <path d="M 102.602216 165.356634 
L 106.349295 166.946664 
L 110.497847 167.702331 
L 114.512575 170.245783 
L 118.661127 169.573863 
L 122.675854 170.520852 
L 126.824406 168.426745 
L 130.972958 168.252701 
L 134.987686 169.585743 
L 139.136238 170.083743 
L 143.150965 169.066786 
L 147.299517 166.733647 
L 151.448069 165.192994 
L 155.195148 165.074562 
L 159.3437 162.232986 
L 163.358428 156.225759 
L 167.50698 156.024277 
L 171.521708 155.567472 
L 175.670259 157.598676 
L 183.833539 153.188367 
L 187.982091 148.425229 
L 191.996819 139.18445 
L 196.145371 123.946745 
L 200.293922 120.593108 
L 204.041002 115.561265 
L 208.189554 97.111825 
L 212.204281 79.769405 
L 216.352833 76.94611 
L 220.367561 74.835137 
L 224.516113 46.504312 
L 228.664665 34.157691 
L 232.679392 29.375398 
L 236.827944 49.570762 
L 240.842672 43.567737 
L 244.991224 43.891816 
L 249.139776 55.068857 
L 253.020679 76.653876 
L 257.169231 88.029922 
L 261.183959 84.787178 
L 265.332511 108.159002 
L 269.347238 110.065536 
L 273.49579 123.892607 
L 277.644342 132.902662 
L 281.65907 142.740928 
L 285.807622 140.733922 
L 289.822349 138.324295 
L 293.970901 136.893921 
L 298.119453 127.616644 
L 301.866532 125.05089 
L 306.015084 118.421036 
L 310.029812 113.428869 
L 314.178364 104.815906 
L 318.193092 89.329209 
L 322.341644 100.743735 
L 326.490196 103.032925 
L 330.504923 97.168465 
L 334.653475 90.223744 
L 338.668203 91.93109 
L 346.965307 99.793266 
L 350.712386 98.068027 
L 354.860938 100.415734 
L 358.875665 112.193536 
L 363.024217 115.218355 
L 367.038945 114.185901 
L 371.187497 109.925798 
L 375.336049 109.508605 
L 379.350776 95.45759 
L 383.499328 99.541557 
L 387.514056 101.930994 
L 391.662608 105.829491 
L 395.81116 100.597089 
L 399.558239 99.095013 
L 403.706791 98.490538 
L 407.721519 105.12035 
L 411.870071 107.379978 
L 415.884798 105.201019 
L 420.03335 110.979188 
L 424.181902 116.412939 
L 428.19663 117.746233 
L 432.345182 117.67362 
L 436.359909 125.423255 
L 440.508461 123.499271 
L 444.657013 119.114916 
L 448.537917 119.681161 
L 452.686469 118.684735 
L 456.701196 117.941986 
L 460.849748 121.290787 
L 464.864476 124.976013 
L 469.013028 127.93523 
L 473.16158 129.114473 
L 477.176307 127.934836 
L 481.324859 131.086399 
L 485.339587 124.90531 
L 489.488139 118.224338 
L 493.636691 116.885931 
L 497.38377 119.640612 
L 501.532322 122.274122 
L 505.547049 118.837587 
L 509.695601 127.768211 
L 513.710329 129.603712 
L 517.858881 127.012027 
L 522.007433 123.586793 
L 526.022161 124.286286 
L 530.170713 124.837315 
L 534.18544 126.430368 
L 538.333992 130.05036 
L 542.482544 129.671092 
L 546.229623 132.129132 
L 550.378175 130.620232 
L 554.392903 132.055004 
L 558.541455 131.977748 
L 562.556182 129.559479 
L 566.704734 126.131617 
L 570.853286 123.787039 
L 574.868014 123.401441 
L 579.016566 117.689082 
L 583.031293 96.612392 
L 587.179845 90.944102 
L 591.328397 92.449324 
L 595.075476 81.201102 
L 599.224028 58.511276 
L 603.238756 51.388631 
L 607.387308 51.648589 
L 611.402036 76.772628 
L 615.550588 89.514613 
L 619.69914 98.80497 
L 623.713867 90.825346 
L 627.862419 84.943485 
L 631.877147 83.992382 
L 636.025699 104.038561 
L 640.174251 106.462068 
L 644.055154 101.931664 
L 648.203706 100.824766 
L 652.218434 104.091474 
L 656.366986 102.943996 
L 660.381713 99.540404 
L 664.530265 97.179726 
L 668.678817 98.79299 
L 672.693545 96.647681 
L 676.842097 92.734109 
L 680.856824 96.335524 
L 685.005376 96.153086 
L 689.153928 93.23578 
L 692.901007 92.944557 
L 697.049559 92.852987 
L 701.064287 93.998168 
L 705.212839 88.668871 
L 709.227567 85.53143 
L 713.376118 83.861062 
L 717.52467 81.819714 
L 721.539398 77.835581 
L 725.68795 74.000166 
L 729.702678 75.975245 
L 733.85123 68.182371 
L 737.999781 75.854703 
L 741.746861 77.220577 
L 745.895413 82.545193 
L 749.91014 81.406681 
L 754.058692 88.16805 
L 758.07342 91.874193 
L 762.221972 96.487581 
L 766.370524 96.848815 
L 770.385251 102.092504 
L 774.533803 100.829895 
L 778.548531 104.216867 
L 782.697083 102.226013 
L 786.845635 90.341319 
L 790.592714 83.393861 
L 794.741266 76.787708 
L 798.755994 87.256265 
L 802.904545 84.012084 
L 806.919273 82.01873 
L 811.067825 83.962612 
L 815.216377 79.91607 
L 819.231105 79.861244 
L 823.379657 80.006911 
L 827.394384 76.781879 
L 831.542936 72.685931 
L 835.691488 75.539238 
L 839.572391 84.451161 
L 843.720943 81.94661 
L 847.735671 80.085644 
L 851.884223 74.780134 
L 855.898951 57.252828 
L 860.047503 54.492108 
L 864.196054 57.913145 
L 868.210782 54.47874 
L 872.359334 49.026634 
L 876.374062 46.090765 
L 880.522614 32.300835 
L 884.671166 30.193831 
L 888.418245 45.231569 
L 892.566797 44.59564 
L 896.581524 40.362471 
L 900.730076 41.489921 
L 904.744804 46.996407 
L 908.893356 50.779357 
L 913.041908 50.516757 
L 917.056635 49.308522 
L 921.205187 50.700417 
L 925.219915 48.469367 
L 929.368467 54.769548 
L 933.517019 58.957262 
L 937.264098 70.013177 
L 941.41265 76.299181 
L 945.427378 76.591247 
L 949.57593 66.573831 
L 953.590657 68.785648 
L 957.739209 72.800809 
L 961.887761 79.425078 
L 965.902489 86.610884 
L 970.051041 83.174883 
L 974.065768 80.183368 
L 978.21432 73.47935 
L 982.362872 73.877229 
L 986.109951 76.531789 
L 990.258503 75.262442 
L 994.273231 79.729281 
L 998.421783 80.934478 
L 1002.436511 80.080385 
L 1006.585062 82.754688 
L 1010.733614 85.142391 
L 1014.748342 89.963929 
L 1018.896894 90.162483 
L 1022.911622 95.811677 
L 1027.060174 98.386699 
L 1031.208725 93.524222 
L 1035.089629 90.132938 
L 1039.238181 90.204732 
L 1043.252908 87.726287 
L 1047.40146 91.594905 
L 1051.416188 93.311856 
L 1055.56474 97.052424 
L 1059.713292 95.058028 
L 1063.72802 79.141319 
L 1067.876571 78.204432 
L 1071.891299 77.940413 
L 1076.039851 82.655746 
L 1080.188403 78.765432 
L 1083.935482 78.560718 
L 1088.084034 83.673994 
L 1088.084034 83.673994 
" clip-path="url(#p27c311d133)" style="fill: none; stroke: #0000ff; stroke-width: 1.5; stroke-linecap: square"/>
   </g>
   <g id="patch_3">
    <path d="M 53.328125 177.578125 
L 53.328125 22.318125 
" style="fill: none; stroke: #000000; stroke-width: 0.8; stroke-linejoin: miter; stroke-linecap: square"/>
   </g>
   <g id="patch_4">
    <path d="M 1137.358125 177.578125 
L 1137.358125 22.318125 
" style="fill: none; stroke: #000000; stroke-width: 0.8; stroke-linejoin: miter; stroke-linecap: square"/>
   </g>
   <g id="patch_5">
    <path d="M 53.328125 177.578125 
L 1137.358125 177.578125 
" style="fill: none; stroke: #000000; stroke-width: 0.8; stroke-linejoin: miter; stroke-linecap: square"/>
   </g>
   <g id="patch_6">
    <path d="M 53.328125 22.318125 
L 1137.358125 22.318125 
" style="fill: none; stroke: #000000; stroke-width: 0.8; stroke-linejoin: miter; stroke-linecap: square"/>
   </g>
   <g id="text_13">
    <!-- 000300 Closing Price -->
    <g transform="translate(532.055312 16.318125) scale(0.12 -0.12)">
     <use xlink:href="#DejaVuSans-30"/>
     <use xlink:href="#DejaVuSans-30" transform="translate(63.623047 0)"/>
     <use xlink:href="#DejaVuSans-30" transform="translate(127.246094 0)"/>
     <use xlink:href="#DejaVuSans-33" transform="translate(190.869141 0)"/>
     <use xlink:href="#DejaVuSans-30" transform="translate(254.492188 0)"/>
     <use xlink:href="#DejaVuSans-30" transform="translate(318.115234 0)"/>
     <use xlink:href="#DejaVuSans-20" transform="translate(381.738281 0)"/>
     <use xlink:href="#DejaVuSans-43" transform="translate(413.525391 0)"/>
     <use xlink:href="#DejaVuSans-6c" transform="translate(483.349609 0)"/>
     <use xlink:href="#DejaVuSans-6f" transform="translate(511.132812 0)"/>
     <use xlink:href="#DejaVuSans-73" transform="translate(572.314453 0)"/>
     <use xlink:href="#DejaVuSans-69" transform="translate(624.414062 0)"/>
     <use xlink:href="#DejaVuSans-6e" transform="translate(652.197266 0)"/>
     <use xlink:href="#DejaVuSans-67" transform="translate(715.576172 0)"/>
     <use xlink:href="#DejaVuSans-20" transform="translate(779.052734 0)"/>
     <use xlink:href="#DejaVuSans-50" transform="translate(810.839844 0)"/>
     <use xlink:href="#DejaVuSans-72" transform="translate(869.392578 0)"/>
     <use xlink:href="#DejaVuSans-69" transform="translate(910.505859 0)"/>
     <use xlink:href="#DejaVuSans-63" transform="translate(938.289062 0)"/>
     <use xlink:href="#DejaVuSans-65" transform="translate(993.269531 0)"/>
    </g>
   </g>
   <g id="legend_1">
    <g id="patch_7">
     <path d="M 1034.231562 44.99625 
L 1130.358125 44.99625 
Q 1132.358125 44.99625 1132.358125 42.99625 
L 1132.358125 29.318125 
Q 1132.358125 27.318125 1130.358125 27.318125 
L 1034.231562 27.318125 
Q 1032.231562 27.318125 1032.231562 29.318125 
L 1032.231562 42.99625 
Q 1032.231562 44.99625 1034.231562 44.99625 
z
" style="fill: #ffffff; opacity: 0.8; stroke: #cccccc; stroke-linejoin: miter"/>
    </g>
    <g id="line2d_22">
     <path d="M 1036.231562 35.416562 
L 1046.231562 35.416562 
L 1056.231562 35.416562 
" style="fill: none; stroke: #0000ff; stroke-width: 1.5; stroke-linecap: square"/>
    </g>
    <g id="text_14">
     <!-- Closing Price -->
     <g transform="translate(1064.231562 38.916562) scale(0.1 -0.1)">
      <use xlink:href="#DejaVuSans-43"/>
      <use xlink:href="#DejaVuSans-6c" transform="translate(69.824219 0)"/>
      <use xlink:href="#DejaVuSans-6f" transform="translate(97.607422 0)"/>
      <use xlink:href="#DejaVuSans-73" transform="translate(158.789062 0)"/>
      <use xlink:href="#DejaVuSans-69" transform="translate(210.888672 0)"/>
      <use xlink:href="#DejaVuSans-6e" transform="translate(238.671875 0)"/>
      <use xlink:href="#DejaVuSans-67" transform="translate(302.050781 0)"/>
      <use xlink:href="#DejaVuSans-20" transform="translate(365.527344 0)"/>
      <use xlink:href="#DejaVuSans-50" transform="translate(397.314453 0)"/>
      <use xlink:href="#DejaVuSans-72" transform="translate(455.867188 0)"/>
      <use xlink:href="#DejaVuSans-69" transform="translate(496.980469 0)"/>
      <use xlink:href="#DejaVuSans-63" transform="translate(524.763672 0)"/>
      <use xlink:href="#DejaVuSans-65" transform="translate(579.744141 0)"/>
     </g>
    </g>
   </g>
  </g>
  <g id="axes_2">
   <g id="patch_8">
    <path d="M 53.328125 390.878125 
L 1137.358125 390.878125 
L 1137.358125 235.618125 
L 53.328125 235.618125 
z
" style="fill: #ffffff"/>
   </g>
   <g id="matplotlib.axis_3">
    <g id="xtick_6">
     <g id="line2d_23">
      <path d="M 98.453664 390.878125 
L 98.453664 235.618125 
" clip-path="url(#pe3200e4d50)" style="fill: none; stroke: #b0b0b0; stroke-width: 0.8; stroke-linecap: square"/>
     </g>
     <g id="line2d_24">
      <g>
       <use xlink:href="#m6285fc6979" x="98.453664" y="390.878125" style="stroke: #000000; stroke-width: 0.8"/>
      </g>
     </g>
     <g id="text_15">
      <!-- 2005 -->
      <g transform="translate(85.728664 405.476562) scale(0.1 -0.1)">
       <use xlink:href="#DejaVuSans-32"/>
       <use xlink:href="#DejaVuSans-30" transform="translate(63.623047 0)"/>
       <use xlink:href="#DejaVuSans-30" transform="translate(127.246094 0)"/>
       <use xlink:href="#DejaVuSans-35" transform="translate(190.869141 0)"/>
      </g>
     </g>
    </g>
    <g id="xtick_7">
     <g id="line2d_25">
      <path d="M 342.816755 390.878125 
L 342.816755 235.618125 
" clip-path="url(#pe3200e4d50)" style="fill: none; stroke: #b0b0b0; stroke-width: 0.8; stroke-linecap: square"/>
     </g>
     <g id="line2d_26">
      <g>
       <use xlink:href="#m6285fc6979" x="342.816755" y="390.878125" style="stroke: #000000; stroke-width: 0.8"/>
      </g>
     </g>
     <g id="text_16">
      <!-- 2010 -->
      <g transform="translate(330.091755 405.476562) scale(0.1 -0.1)">
       <use xlink:href="#DejaVuSans-32"/>
       <use xlink:href="#DejaVuSans-30" transform="translate(63.623047 0)"/>
       <use xlink:href="#DejaVuSans-31" transform="translate(127.246094 0)"/>
       <use xlink:href="#DejaVuSans-30" transform="translate(190.869141 0)"/>
      </g>
     </g>
    </g>
    <g id="xtick_8">
     <g id="line2d_27">
      <path d="M 587.179845 390.878125 
L 587.179845 235.618125 
" clip-path="url(#pe3200e4d50)" style="fill: none; stroke: #b0b0b0; stroke-width: 0.8; stroke-linecap: square"/>
     </g>
     <g id="line2d_28">
      <g>
       <use xlink:href="#m6285fc6979" x="587.179845" y="390.878125" style="stroke: #000000; stroke-width: 0.8"/>
      </g>
     </g>
     <g id="text_17">
      <!-- 2015 -->
      <g transform="translate(574.454845 405.476562) scale(0.1 -0.1)">
       <use xlink:href="#DejaVuSans-32"/>
       <use xlink:href="#DejaVuSans-30" transform="translate(63.623047 0)"/>
       <use xlink:href="#DejaVuSans-31" transform="translate(127.246094 0)"/>
       <use xlink:href="#DejaVuSans-35" transform="translate(190.869141 0)"/>
      </g>
     </g>
    </g>
    <g id="xtick_9">
     <g id="line2d_29">
      <path d="M 831.542936 390.878125 
L 831.542936 235.618125 
" clip-path="url(#pe3200e4d50)" style="fill: none; stroke: #b0b0b0; stroke-width: 0.8; stroke-linecap: square"/>
     </g>
     <g id="line2d_30">
      <g>
       <use xlink:href="#m6285fc6979" x="831.542936" y="390.878125" style="stroke: #000000; stroke-width: 0.8"/>
      </g>
     </g>
     <g id="text_18">
      <!-- 2020 -->
      <g transform="translate(818.817936 405.476562) scale(0.1 -0.1)">
       <use xlink:href="#DejaVuSans-32"/>
       <use xlink:href="#DejaVuSans-30" transform="translate(63.623047 0)"/>
       <use xlink:href="#DejaVuSans-32" transform="translate(127.246094 0)"/>
       <use xlink:href="#DejaVuSans-30" transform="translate(190.869141 0)"/>
      </g>
     </g>
    </g>
    <g id="xtick_10">
     <g id="line2d_31">
      <path d="M 1076.039851 390.878125 
L 1076.039851 235.618125 
" clip-path="url(#pe3200e4d50)" style="fill: none; stroke: #b0b0b0; stroke-width: 0.8; stroke-linecap: square"/>
     </g>
     <g id="line2d_32">
      <g>
       <use xlink:href="#m6285fc6979" x="1076.039851" y="390.878125" style="stroke: #000000; stroke-width: 0.8"/>
      </g>
     </g>
     <g id="text_19">
      <!-- 2025 -->
      <g transform="translate(1063.314851 405.476562) scale(0.1 -0.1)">
       <use xlink:href="#DejaVuSans-32"/>
       <use xlink:href="#DejaVuSans-30" transform="translate(63.623047 0)"/>
       <use xlink:href="#DejaVuSans-32" transform="translate(127.246094 0)"/>
       <use xlink:href="#DejaVuSans-35" transform="translate(190.869141 0)"/>
      </g>
     </g>
    </g>
    <g id="text_20">
     <!-- Date -->
     <g transform="translate(583.392344 419.154687) scale(0.1 -0.1)">
      <use xlink:href="#DejaVuSans-44"/>
      <use xlink:href="#DejaVuSans-61" transform="translate(77.001953 0)"/>
      <use xlink:href="#DejaVuSans-74" transform="translate(138.28125 0)"/>
      <use xlink:href="#DejaVuSans-65" transform="translate(177.490234 0)"/>
     </g>
    </g>
   </g>
   <g id="matplotlib.axis_4">
    <g id="ytick_6">
     <g id="line2d_33">
      <path d="M 53.328125 389.592357 
L 1137.358125 389.592357 
" clip-path="url(#pe3200e4d50)" style="fill: none; stroke: #b0b0b0; stroke-width: 0.8; stroke-linecap: square"/>
     </g>
     <g id="line2d_34">
      <g>
       <use xlink:href="#m0a0ed96bd3" x="53.328125" y="389.592357" style="stroke: #000000; stroke-width: 0.8"/>
      </g>
     </g>
     <g id="text_21">
      <!-- −0.5 -->
      <g transform="translate(22.045313 393.391575) scale(0.1 -0.1)">
       <defs>
        <path id="DejaVuSans-2212" d="M 678 2272 
L 4684 2272 
L 4684 1741 
L 678 1741 
L 678 2272 
z
" transform="scale(0.015625)"/>
        <path id="DejaVuSans-2e" d="M 684 794 
L 1344 794 
L 1344 0 
L 684 0 
L 684 794 
z
" transform="scale(0.015625)"/>
       </defs>
       <use xlink:href="#DejaVuSans-2212"/>
       <use xlink:href="#DejaVuSans-30" transform="translate(83.789062 0)"/>
       <use xlink:href="#DejaVuSans-2e" transform="translate(147.412109 0)"/>
       <use xlink:href="#DejaVuSans-35" transform="translate(179.199219 0)"/>
      </g>
     </g>
    </g>
    <g id="ytick_7">
     <g id="line2d_35">
      <path d="M 53.328125 351.884181 
L 1137.358125 351.884181 
" clip-path="url(#pe3200e4d50)" style="fill: none; stroke: #b0b0b0; stroke-width: 0.8; stroke-linecap: square"/>
     </g>
     <g id="line2d_36">
      <g>
       <use xlink:href="#m0a0ed96bd3" x="53.328125" y="351.884181" style="stroke: #000000; stroke-width: 0.8"/>
      </g>
     </g>
     <g id="text_22">
      <!-- 0.0 -->
      <g transform="translate(30.425 355.6834) scale(0.1 -0.1)">
       <use xlink:href="#DejaVuSans-30"/>
       <use xlink:href="#DejaVuSans-2e" transform="translate(63.623047 0)"/>
       <use xlink:href="#DejaVuSans-30" transform="translate(95.410156 0)"/>
      </g>
     </g>
    </g>
    <g id="ytick_8">
     <g id="line2d_37">
      <path d="M 53.328125 314.176005 
L 1137.358125 314.176005 
" clip-path="url(#pe3200e4d50)" style="fill: none; stroke: #b0b0b0; stroke-width: 0.8; stroke-linecap: square"/>
     </g>
     <g id="line2d_38">
      <g>
       <use xlink:href="#m0a0ed96bd3" x="53.328125" y="314.176005" style="stroke: #000000; stroke-width: 0.8"/>
      </g>
     </g>
     <g id="text_23">
      <!-- 0.5 -->
      <g transform="translate(30.425 317.975224) scale(0.1 -0.1)">
       <use xlink:href="#DejaVuSans-30"/>
       <use xlink:href="#DejaVuSans-2e" transform="translate(63.623047 0)"/>
       <use xlink:href="#DejaVuSans-35" transform="translate(95.410156 0)"/>
      </g>
     </g>
    </g>
    <g id="ytick_9">
     <g id="line2d_39">
      <path d="M 53.328125 276.467829 
L 1137.358125 276.467829 
" clip-path="url(#pe3200e4d50)" style="fill: none; stroke: #b0b0b0; stroke-width: 0.8; stroke-linecap: square"/>
     </g>
     <g id="line2d_40">
      <g>
       <use xlink:href="#m0a0ed96bd3" x="53.328125" y="276.467829" style="stroke: #000000; stroke-width: 0.8"/>
      </g>
     </g>
     <g id="text_24">
      <!-- 1.0 -->
      <g transform="translate(30.425 280.267048) scale(0.1 -0.1)">
       <use xlink:href="#DejaVuSans-31"/>
       <use xlink:href="#DejaVuSans-2e" transform="translate(63.623047 0)"/>
       <use xlink:href="#DejaVuSans-30" transform="translate(95.410156 0)"/>
      </g>
     </g>
    </g>
    <g id="ytick_10">
     <g id="line2d_41">
      <path d="M 53.328125 238.759654 
L 1137.358125 238.759654 
" clip-path="url(#pe3200e4d50)" style="fill: none; stroke: #b0b0b0; stroke-width: 0.8; stroke-linecap: square"/>
     </g>
     <g id="line2d_42">
      <g>
       <use xlink:href="#m0a0ed96bd3" x="53.328125" y="238.759654" style="stroke: #000000; stroke-width: 0.8"/>
      </g>
     </g>
     <g id="text_25">
      <!-- 1.5 -->
      <g transform="translate(30.425 242.558872) scale(0.1 -0.1)">
       <use xlink:href="#DejaVuSans-31"/>
       <use xlink:href="#DejaVuSans-2e" transform="translate(63.623047 0)"/>
       <use xlink:href="#DejaVuSans-35" transform="translate(95.410156 0)"/>
      </g>
     </g>
    </g>
    <g id="text_26">
     <!-- Rate -->
     <g transform="translate(15.965625 324.710625) rotate(-90) scale(0.1 -0.1)">
      <defs>
       <path id="DejaVuSans-52" d="M 2841 2188 
Q 3044 2119 3236 1894 
Q 3428 1669 3622 1275 
L 4263 0 
L 3584 0 
L 2988 1197 
Q 2756 1666 2539 1819 
Q 2322 1972 1947 1972 
L 1259 1972 
L 1259 0 
L 628 0 
L 628 4666 
L 2053 4666 
Q 2853 4666 3247 4331 
Q 3641 3997 3641 3322 
Q 3641 2881 3436 2590 
Q 3231 2300 2841 2188 
z
M 1259 4147 
L 1259 2491 
L 2053 2491 
Q 2509 2491 2742 2702 
Q 2975 2913 2975 3322 
Q 2975 3731 2742 3939 
Q 2509 4147 2053 4147 
L 1259 4147 
z
" transform="scale(0.015625)"/>
      </defs>
      <use xlink:href="#DejaVuSans-52"/>
      <use xlink:href="#DejaVuSans-61" transform="translate(67.232422 0)"/>
      <use xlink:href="#DejaVuSans-74" transform="translate(128.511719 0)"/>
      <use xlink:href="#DejaVuSans-65" transform="translate(167.720703 0)"/>
     </g>
    </g>
   </g>
   <g id="line2d_43">
    <path d="M 102.602216 306.63437 
L 106.349295 276.467829 
L 110.497847 324.231519 
L 114.512575 340.990708 
L 118.661127 349.649622 
L 122.675854 370.505502 
L 126.824406 364.298395 
L 130.972958 355.132567 
L 134.987686 336.452623 
L 139.136238 331.540962 
L 143.150965 345.86367 
L 147.299517 337.814994 
L 151.448069 309.824304 
L 155.195148 311.274871 
L 159.3437 347.436213 
L 163.358428 343.891112 
L 167.50698 349.069347 
L 171.521708 362.577017 
L 175.670259 366.554373 
L 179.818811 354.122674 
L 183.833539 340.807118 
L 187.982091 341.985594 
L 191.996819 337.743488 
L 196.145371 307.262755 
L 200.293922 304.539415 
L 204.041002 295.18222 
L 208.189554 321.624509 
L 212.204281 334.224944 
L 216.352833 332.569721 
L 220.367561 328.952361 
L 224.516113 313.971396 
L 228.664665 296.44245 
L 232.679392 307.381392 
L 236.827944 314.67402 
L 240.842672 309.480258 
L 244.991224 298.476115 
L 249.139776 286.112263 
L 253.020679 242.675398 
L 257.169231 296.675474 
L 261.183959 312.564498 
L 265.332511 335.726572 
L 269.347238 346.140199 
L 273.49579 345.540981 
L 277.644342 350.169259 
L 281.65907 350.7409 
L 285.807622 358.663629 
L 289.822349 376.51484 
L 293.970901 373.332377 
L 298.119453 343.558073 
L 301.866532 346.333442 
L 306.015084 355.725324 
L 310.029812 359.472699 
L 314.178364 364.484828 
L 318.193092 372.854004 
L 322.341644 365.864063 
L 326.490196 348.634711 
L 330.504923 339.662354 
L 334.653475 346.250175 
L 338.668203 340.586541 
L 342.816755 319.213637 
L 346.965307 315.020548 
L 350.712386 297.141885 
L 354.860938 332.986466 
L 358.875665 334.257947 
L 363.024217 342.647237 
L 367.038945 360.809489 
L 371.187497 347.778872 
L 375.336049 334.064038 
L 379.350776 324.920816 
L 383.499328 316.311455 
L 387.514056 300.516368 
L 391.662608 305.069581 
L 395.81116 295.535663 
L 399.558239 284.151962 
L 403.706791 311.757125 
L 407.721519 322.618932 
L 411.870071 329.860137 
L 415.884798 329.659849 
L 420.03335 324.498568 
L 424.181902 326.08547 
L 428.19663 322.115649 
L 432.345182 329.524614 
L 436.359909 342.00556 
L 440.508461 337.756798 
L 444.657013 304.75775 
L 448.537917 322.980439 
L 452.686469 327.587263 
L 456.701196 338.200114 
L 460.849748 350.303105 
L 464.864476 365.9134 
L 469.013028 358.723115 
L 473.16158 341.3602 
L 477.176307 337.326559 
L 481.324859 344.692978 
L 485.339587 344.576167 
L 489.488139 326.901145 
L 493.636691 310.09004 
L 497.38377 296.368758 
L 501.532322 337.498804 
L 505.547049 337.266173 
L 509.695601 357.222113 
L 513.710329 355.442802 
L 517.858881 351.742717 
L 522.007433 339.220479 
L 526.022161 323.330686 
L 530.170713 330.334639 
L 534.18544 340.031698 
L 538.333992 336.440891 
L 542.482544 316.44987 
L 546.229623 315.691915 
L 550.378175 340.325396 
L 554.392903 351.719959 
L 558.541455 349.260821 
L 562.556182 352.649153 
L 566.704734 349.880284 
L 570.853286 345.520493 
L 574.868014 335.07233 
L 579.016566 340.67628 
L 583.031293 349.440004 
L 587.179845 342.713094 
L 591.328397 338.228488 
L 595.075476 312.613845 
L 599.224028 338.273349 
L 603.238756 347.83805 
L 607.387308 354.214517 
L 611.402036 353.437738 
L 615.550588 345.378251 
L 619.69914 334.977502 
L 623.713867 338.099183 
L 627.862419 350.235818 
L 631.877147 350.785272 
L 636.025699 338.582183 
L 640.174251 330.44679 
L 644.055154 297.370533 
L 648.203706 325.597263 
L 652.218434 339.387325 
L 656.366986 356.122336 
L 660.381713 357.223496 
L 664.530265 350.415967 
L 668.678817 348.391494 
L 672.693545 331.958574 
L 676.842097 341.114321 
L 680.856824 342.190396 
L 685.005376 340.393901 
L 689.153928 319.08521 
L 692.901007 335.045957 
L 697.049559 348.200334 
L 701.064287 346.914404 
L 705.212839 351.084875 
L 709.227567 356.379067 
L 713.376118 352.366893 
L 717.52467 342.150476 
L 721.539398 332.825652 
L 725.68795 336.664617 
L 729.702678 341.737805 
L 733.85123 337.578295 
L 737.999781 327.263653 
L 741.746861 305.303955 
L 745.895413 348.483359 
L 749.91014 354.644723 
L 754.058692 358.752299 
L 758.07342 358.976805 
L 762.221972 349.070962 
L 766.370524 332.411553 
L 770.385251 321.30528 
L 774.533803 326.47049 
L 778.548531 342.483356 
L 782.697083 345.616964 
L 786.845635 335.136644 
L 790.592714 315.580373 
L 794.741266 337.737156 
L 798.755994 339.938952 
L 802.904545 343.920695 
L 806.919273 349.089069 
L 811.067825 339.965259 
L 815.216377 326.341084 
L 819.231105 312.230544 
L 823.379657 302.823518 
L 827.394384 309.121559 
L 831.542936 323.375766 
L 835.691488 297.684274 
L 839.572391 295.639882 
L 843.720943 344.554522 
L 847.735671 369.622647 
L 851.884223 383.820852 
L 855.898951 375.689174 
L 860.047503 352.670906 
L 864.196054 342.353151 
L 868.210782 340.502404 
L 872.359334 351.837965 
L 876.374062 366.93664 
L 884.671166 321.703947 
L 888.418245 316.680754 
L 892.566797 340.984622 
L 896.581524 352.159443 
L 900.730076 357.095446 
L 904.744804 365.413871 
L 908.893356 353.362339 
L 913.041908 350.355741 
L 917.056635 350.865221 
L 921.205187 333.607726 
L 925.219915 329.644364 
L 929.368467 344.599271 
L 933.517019 336.972061 
L 937.264098 326.859497 
L 941.41265 335.201059 
L 945.427378 330.706586 
L 949.57593 342.793541 
L 953.590657 345.823754 
L 957.739209 335.274505 
L 961.887761 343.324942 
L 965.902489 338.636386 
L 970.051041 340.538439 
L 974.065768 349.34811 
L 978.21432 350.193467 
L 982.362872 330.646011 
L 986.109951 350.294793 
L 990.258503 358.366224 
L 994.273231 358.719421 
L 998.421783 361.468765 
L 1002.436511 363.30166 
L 1006.585062 354.468077 
L 1010.733614 346.065143 
L 1014.748342 342.977066 
L 1018.896894 348.459982 
L 1022.911622 362.170774 
L 1027.060174 356.228031 
L 1031.208725 347.238446 
L 1035.089629 323.64824 
L 1039.238181 358.199004 
L 1043.252908 353.580185 
L 1047.40146 355.528729 
L 1051.416188 359.341636 
L 1055.56474 344.286426 
L 1059.713292 336.763497 
L 1063.72802 341.803725 
L 1067.876571 352.705512 
L 1071.891299 367.515005 
L 1076.039851 362.304731 
L 1080.188403 341.234065 
L 1083.935482 349.811861 
L 1088.084034 360.558148 
L 1088.084034 360.558148 
" clip-path="url(#pe3200e4d50)" style="fill: none; stroke: #ff0000; stroke-width: 1.5; stroke-linecap: square"/>
   </g>
   <g id="patch_9">
    <path d="M 53.328125 390.878125 
L 53.328125 235.618125 
" style="fill: none; stroke: #000000; stroke-width: 0.8; stroke-linejoin: miter; stroke-linecap: square"/>
   </g>
   <g id="patch_10">
    <path d="M 1137.358125 390.878125 
L 1137.358125 235.618125 
" style="fill: none; stroke: #000000; stroke-width: 0.8; stroke-linejoin: miter; stroke-linecap: square"/>
   </g>
   <g id="patch_11">
    <path d="M 53.328125 390.878125 
L 1137.358125 390.878125 
" style="fill: none; stroke: #000000; stroke-width: 0.8; stroke-linejoin: miter; stroke-linecap: square"/>
   </g>
   <g id="patch_12">
    <path d="M 53.328125 235.618125 
L 1137.358125 235.618125 
" style="fill: none; stroke: #000000; stroke-width: 0.8; stroke-linejoin: miter; stroke-linecap: square"/>
   </g>
   <g id="text_27">
    <!-- CPI  (MOM) -->
    <g transform="translate(562.193125 229.618125) scale(0.12 -0.12)">
     <defs>
      <path id="DejaVuSans-49" d="M 628 4666 
L 1259 4666 
L 1259 0 
L 628 0 
L 628 4666 
z
" transform="scale(0.015625)"/>
      <path id="DejaVuSans-28" d="M 1984 4856 
Q 1566 4138 1362 3434 
Q 1159 2731 1159 2009 
Q 1159 1288 1364 580 
Q 1569 -128 1984 -844 
L 1484 -844 
Q 1016 -109 783 600 
Q 550 1309 550 2009 
Q 550 2706 781 3412 
Q 1013 4119 1484 4856 
L 1984 4856 
z
" transform="scale(0.015625)"/>
      <path id="DejaVuSans-4d" d="M 628 4666 
L 1569 4666 
L 2759 1491 
L 3956 4666 
L 4897 4666 
L 4897 0 
L 4281 0 
L 4281 4097 
L 3078 897 
L 2444 897 
L 1241 4097 
L 1241 0 
L 628 0 
L 628 4666 
z
" transform="scale(0.015625)"/>
      <path id="DejaVuSans-4f" d="M 2522 4238 
Q 1834 4238 1429 3725 
Q 1025 3213 1025 2328 
Q 1025 1447 1429 934 
Q 1834 422 2522 422 
Q 3209 422 3611 934 
Q 4013 1447 4013 2328 
Q 4013 3213 3611 3725 
Q 3209 4238 2522 4238 
z
M 2522 4750 
Q 3503 4750 4090 4092 
Q 4678 3434 4678 2328 
Q 4678 1225 4090 567 
Q 3503 -91 2522 -91 
Q 1538 -91 948 565 
Q 359 1222 359 2328 
Q 359 3434 948 4092 
Q 1538 4750 2522 4750 
z
" transform="scale(0.015625)"/>
      <path id="DejaVuSans-29" d="M 513 4856 
L 1013 4856 
Q 1481 4119 1714 3412 
Q 1947 2706 1947 2009 
Q 1947 1309 1714 600 
Q 1481 -109 1013 -844 
L 513 -844 
Q 928 -128 1133 580 
Q 1338 1288 1338 2009 
Q 1338 2731 1133 3434 
Q 928 4138 513 4856 
z
" transform="scale(0.015625)"/>
     </defs>
     <use xlink:href="#DejaVuSans-43"/>
     <use xlink:href="#DejaVuSans-50" transform="translate(69.824219 0)"/>
     <use xlink:href="#DejaVuSans-49" transform="translate(130.126953 0)"/>
     <use xlink:href="#DejaVuSans-20" transform="translate(159.619141 0)"/>
     <use xlink:href="#DejaVuSans-20" transform="translate(191.40625 0)"/>
     <use xlink:href="#DejaVuSans-28" transform="translate(223.193359 0)"/>
     <use xlink:href="#DejaVuSans-4d" transform="translate(262.207031 0)"/>
     <use xlink:href="#DejaVuSans-4f" transform="translate(348.486328 0)"/>
     <use xlink:href="#DejaVuSans-4d" transform="translate(427.197266 0)"/>
     <use xlink:href="#DejaVuSans-29" transform="translate(513.476562 0)"/>
    </g>
   </g>
   <g id="legend_2">
    <g id="patch_13">
     <path d="M 1054.089375 258.29625 
L 1130.358125 258.29625 
Q 1132.358125 258.29625 1132.358125 256.29625 
L 1132.358125 242.618125 
Q 1132.358125 240.618125 1130.358125 240.618125 
L 1054.089375 240.618125 
Q 1052.089375 240.618125 1052.089375 242.618125 
L 1052.089375 256.29625 
Q 1052.089375 258.29625 1054.089375 258.29625 
z
" style="fill: #ffffff; opacity: 0.8; stroke: #cccccc; stroke-linejoin: miter"/>
    </g>
    <g id="line2d_44">
     <path d="M 1056.089375 248.716563 
L 1066.089375 248.716563 
L 1076.089375 248.716563 
" style="fill: none; stroke: #ff0000; stroke-width: 1.5; stroke-linecap: square"/>
    </g>
    <g id="text_28">
     <!-- CPI MOM -->
     <g transform="translate(1084.089375 252.216563) scale(0.1 -0.1)">
      <use xlink:href="#DejaVuSans-43"/>
      <use xlink:href="#DejaVuSans-50" transform="translate(69.824219 0)"/>
      <use xlink:href="#DejaVuSans-49" transform="translate(130.126953 0)"/>
      <use xlink:href="#DejaVuSans-20" transform="translate(159.619141 0)"/>
      <use xlink:href="#DejaVuSans-4d" transform="translate(191.40625 0)"/>
      <use xlink:href="#DejaVuSans-4f" transform="translate(277.685547 0)"/>
      <use xlink:href="#DejaVuSans-4d" transform="translate(356.396484 0)"/>
     </g>
    </g>
   </g>
  </g>
  <g id="axes_3">
   <g id="patch_14">
    <path d="M 53.328125 604.178125 
L 1137.358125 604.178125 
L 1137.358125 448.918125 
L 53.328125 448.918125 
z
" style="fill: #ffffff"/>
   </g>
   <g id="matplotlib.axis_5">
    <g id="xtick_11">
     <g id="line2d_45">
      <path d="M 98.453664 604.178125 
L 98.453664 448.918125 
" clip-path="url(#p9ec26fb296)" style="fill: none; stroke: #b0b0b0; stroke-width: 0.8; stroke-linecap: square"/>
     </g>
     <g id="line2d_46">
      <g>
       <use xlink:href="#m6285fc6979" x="98.453664" y="604.178125" style="stroke: #000000; stroke-width: 0.8"/>
      </g>
     </g>
     <g id="text_29">
      <!-- 2005 -->
      <g transform="translate(85.728664 618.776562) scale(0.1 -0.1)">
       <use xlink:href="#DejaVuSans-32"/>
       <use xlink:href="#DejaVuSans-30" transform="translate(63.623047 0)"/>
       <use xlink:href="#DejaVuSans-30" transform="translate(127.246094 0)"/>
       <use xlink:href="#DejaVuSans-35" transform="translate(190.869141 0)"/>
      </g>
     </g>
    </g>
    <g id="xtick_12">
     <g id="line2d_47">
      <path d="M 342.816755 604.178125 
L 342.816755 448.918125 
" clip-path="url(#p9ec26fb296)" style="fill: none; stroke: #b0b0b0; stroke-width: 0.8; stroke-linecap: square"/>
     </g>
     <g id="line2d_48">
      <g>
       <use xlink:href="#m6285fc6979" x="342.816755" y="604.178125" style="stroke: #000000; stroke-width: 0.8"/>
      </g>
     </g>
     <g id="text_30">
      <!-- 2010 -->
      <g transform="translate(330.091755 618.776562) scale(0.1 -0.1)">
       <use xlink:href="#DejaVuSans-32"/>
       <use xlink:href="#DejaVuSans-30" transform="translate(63.623047 0)"/>
       <use xlink:href="#DejaVuSans-31" transform="translate(127.246094 0)"/>
       <use xlink:href="#DejaVuSans-30" transform="translate(190.869141 0)"/>
      </g>
     </g>
    </g>
    <g id="xtick_13">
     <g id="line2d_49">
      <path d="M 587.179845 604.178125 
L 587.179845 448.918125 
" clip-path="url(#p9ec26fb296)" style="fill: none; stroke: #b0b0b0; stroke-width: 0.8; stroke-linecap: square"/>
     </g>
     <g id="line2d_50">
      <g>
       <use xlink:href="#m6285fc6979" x="587.179845" y="604.178125" style="stroke: #000000; stroke-width: 0.8"/>
      </g>
     </g>
     <g id="text_31">
      <!-- 2015 -->
      <g transform="translate(574.454845 618.776562) scale(0.1 -0.1)">
       <use xlink:href="#DejaVuSans-32"/>
       <use xlink:href="#DejaVuSans-30" transform="translate(63.623047 0)"/>
       <use xlink:href="#DejaVuSans-31" transform="translate(127.246094 0)"/>
       <use xlink:href="#DejaVuSans-35" transform="translate(190.869141 0)"/>
      </g>
     </g>
    </g>
    <g id="xtick_14">
     <g id="line2d_51">
      <path d="M 831.542936 604.178125 
L 831.542936 448.918125 
" clip-path="url(#p9ec26fb296)" style="fill: none; stroke: #b0b0b0; stroke-width: 0.8; stroke-linecap: square"/>
     </g>
     <g id="line2d_52">
      <g>
       <use xlink:href="#m6285fc6979" x="831.542936" y="604.178125" style="stroke: #000000; stroke-width: 0.8"/>
      </g>
     </g>
     <g id="text_32">
      <!-- 2020 -->
      <g transform="translate(818.817936 618.776562) scale(0.1 -0.1)">
       <use xlink:href="#DejaVuSans-32"/>
       <use xlink:href="#DejaVuSans-30" transform="translate(63.623047 0)"/>
       <use xlink:href="#DejaVuSans-32" transform="translate(127.246094 0)"/>
       <use xlink:href="#DejaVuSans-30" transform="translate(190.869141 0)"/>
      </g>
     </g>
    </g>
    <g id="xtick_15">
     <g id="line2d_53">
      <path d="M 1076.039851 604.178125 
L 1076.039851 448.918125 
" clip-path="url(#p9ec26fb296)" style="fill: none; stroke: #b0b0b0; stroke-width: 0.8; stroke-linecap: square"/>
     </g>
     <g id="line2d_54">
      <g>
       <use xlink:href="#m6285fc6979" x="1076.039851" y="604.178125" style="stroke: #000000; stroke-width: 0.8"/>
      </g>
     </g>
     <g id="text_33">
      <!-- 2025 -->
      <g transform="translate(1063.314851 618.776562) scale(0.1 -0.1)">
       <use xlink:href="#DejaVuSans-32"/>
       <use xlink:href="#DejaVuSans-30" transform="translate(63.623047 0)"/>
       <use xlink:href="#DejaVuSans-32" transform="translate(127.246094 0)"/>
       <use xlink:href="#DejaVuSans-35" transform="translate(190.869141 0)"/>
      </g>
     </g>
    </g>
    <g id="text_34">
     <!-- Date -->
     <g transform="translate(583.392344 632.454687) scale(0.1 -0.1)">
      <use xlink:href="#DejaVuSans-44"/>
      <use xlink:href="#DejaVuSans-61" transform="translate(77.001953 0)"/>
      <use xlink:href="#DejaVuSans-74" transform="translate(138.28125 0)"/>
      <use xlink:href="#DejaVuSans-65" transform="translate(177.490234 0)"/>
     </g>
    </g>
   </g>
   <g id="matplotlib.axis_6">
    <g id="ytick_11">
     <g id="line2d_55">
      <path d="M 53.328125 576.306776 
L 1137.358125 576.306776 
" clip-path="url(#p9ec26fb296)" style="fill: none; stroke: #b0b0b0; stroke-width: 0.8; stroke-linecap: square"/>
     </g>
     <g id="line2d_56">
      <g>
       <use xlink:href="#m0a0ed96bd3" x="53.328125" y="576.306776" style="stroke: #000000; stroke-width: 0.8"/>
      </g>
     </g>
     <g id="text_35">
      <!-- −5 -->
      <g transform="translate(31.585938 580.105995) scale(0.1 -0.1)">
       <use xlink:href="#DejaVuSans-2212"/>
       <use xlink:href="#DejaVuSans-35" transform="translate(83.789062 0)"/>
      </g>
     </g>
    </g>
    <g id="ytick_12">
     <g id="line2d_57">
      <path d="M 53.328125 543.784782 
L 1137.358125 543.784782 
" clip-path="url(#p9ec26fb296)" style="fill: none; stroke: #b0b0b0; stroke-width: 0.8; stroke-linecap: square"/>
     </g>
     <g id="line2d_58">
      <g>
       <use xlink:href="#m0a0ed96bd3" x="53.328125" y="543.784782" style="stroke: #000000; stroke-width: 0.8"/>
      </g>
     </g>
     <g id="text_36">
      <!-- 0 -->
      <g transform="translate(39.965625 547.584001) scale(0.1 -0.1)">
       <use xlink:href="#DejaVuSans-30"/>
      </g>
     </g>
    </g>
    <g id="ytick_13">
     <g id="line2d_59">
      <path d="M 53.328125 511.262788 
L 1137.358125 511.262788 
" clip-path="url(#p9ec26fb296)" style="fill: none; stroke: #b0b0b0; stroke-width: 0.8; stroke-linecap: square"/>
     </g>
     <g id="line2d_60">
      <g>
       <use xlink:href="#m0a0ed96bd3" x="53.328125" y="511.262788" style="stroke: #000000; stroke-width: 0.8"/>
      </g>
     </g>
     <g id="text_37">
      <!-- 5 -->
      <g transform="translate(39.965625 515.062007) scale(0.1 -0.1)">
       <use xlink:href="#DejaVuSans-35"/>
      </g>
     </g>
    </g>
    <g id="ytick_14">
     <g id="line2d_61">
      <path d="M 53.328125 478.740794 
L 1137.358125 478.740794 
" clip-path="url(#p9ec26fb296)" style="fill: none; stroke: #b0b0b0; stroke-width: 0.8; stroke-linecap: square"/>
     </g>
     <g id="line2d_62">
      <g>
       <use xlink:href="#m0a0ed96bd3" x="53.328125" y="478.740794" style="stroke: #000000; stroke-width: 0.8"/>
      </g>
     </g>
     <g id="text_38">
      <!-- 10 -->
      <g transform="translate(33.603125 482.540012) scale(0.1 -0.1)">
       <use xlink:href="#DejaVuSans-31"/>
       <use xlink:href="#DejaVuSans-30" transform="translate(63.623047 0)"/>
      </g>
     </g>
    </g>
    <g id="text_39">
     <!-- Rate -->
     <g transform="translate(25.50625 538.010625) rotate(-90) scale(0.1 -0.1)">
      <use xlink:href="#DejaVuSans-52"/>
      <use xlink:href="#DejaVuSans-61" transform="translate(67.232422 0)"/>
      <use xlink:href="#DejaVuSans-74" transform="translate(128.511719 0)"/>
      <use xlink:href="#DejaVuSans-65" transform="translate(167.720703 0)"/>
     </g>
    </g>
   </g>
   <g id="line2d_63">
    <path d="M 102.602216 506.059269 
L 106.349295 508.661028 
L 114.512575 506.059269 
L 118.661127 505.408829 
L 122.675854 509.961908 
L 126.824406 509.961908 
L 130.972958 509.311468 
L 134.987686 514.514987 
L 139.136238 517.767187 
L 143.150965 522.970706 
L 147.299517 522.970706 
L 151.448069 524.271585 
L 155.195148 524.271585 
L 159.3437 527.523785 
L 163.358428 531.426424 
L 167.50698 528.174225 
L 171.521708 521.019386 
L 175.670259 520.368946 
L 179.818811 521.669826 
L 183.833539 521.669826 
L 187.982091 524.922025 
L 191.996819 525.572465 
L 196.145371 524.271585 
L 200.293922 522.320266 
L 204.041002 526.873345 
L 208.189554 526.873345 
L 212.204281 524.922025 
L 216.352833 525.572465 
L 220.367561 527.523785 
L 224.516113 528.174225 
L 228.664665 526.873345 
L 232.679392 526.222905 
L 236.827944 522.970706 
L 240.842672 513.864547 
L 244.991224 508.661028 
L 249.139776 504.107949 
L 253.020679 500.85575 
L 257.169231 491.749591 
L 265.332511 490.448712 
L 269.347238 486.546072 
L 273.49579 478.740794 
L 277.644342 478.090354 
L 281.65907 484.594753 
L 285.807622 500.85575 
L 289.822349 530.775984 
L 293.970901 550.939621 
L 298.119453 565.899738 
L 301.866532 573.054577 
L 306.015084 582.811175 
L 318.193092 594.519093 
L 322.341644 597.120852 
L 326.490196 595.169533 
L 330.504923 589.315574 
L 334.653475 581.510295 
L 342.816755 532.727304 
L 346.965307 515.815867 
L 350.712386 508.661028 
L 354.860938 505.408829 
L 358.875665 499.55487 
L 363.024217 497.60355 
L 367.038945 502.156629 
L 371.187497 512.563668 
L 375.336049 515.815867 
L 379.350776 515.815867 
L 383.499328 511.262788 
L 387.514056 504.107949 
L 391.662608 505.408829 
L 395.81116 500.85575 
L 399.558239 496.95311 
L 403.706791 496.30267 
L 407.721519 499.55487 
L 411.870071 499.55487 
L 415.884798 497.60355 
L 420.03335 495.001791 
L 424.181902 496.30267 
L 428.19663 501.50619 
L 432.345182 511.262788 
L 436.359909 526.222905 
L 444.657013 539.231703 
L 448.537917 543.784782 
L 452.686469 545.736102 
L 456.701196 548.337861 
L 464.864476 557.444019 
L 469.013028 562.647538 
L 473.16158 566.550178 
L 477.176307 567.200618 
L 481.324859 561.997099 
L 485.339587 558.094459 
L 493.636691 554.19182 
L 497.38377 554.19182 
L 501.532322 556.14314 
L 505.547049 560.696219 
L 509.695601 562.647538 
L 513.710329 561.346659 
L 517.858881 558.744899 
L 522.007433 554.19182 
L 526.022161 552.2405 
L 530.170713 553.54138 
L 534.18544 552.89094 
L 538.333992 552.89094 
L 542.482544 554.19182 
L 546.229623 556.79358 
L 550.378175 558.744899 
L 554.392903 556.79358 
L 558.541455 552.89094 
L 562.556182 550.939621 
L 566.704734 549.638741 
L 570.853286 551.59006 
L 574.868014 555.4927 
L 579.016566 558.094459 
L 583.031293 561.346659 
L 587.179845 565.249298 
L 591.328397 571.753697 
L 595.075476 575.005896 
L 599.224028 573.705016 
L 607.387308 573.705016 
L 611.402036 575.005896 
L 615.550588 578.908536 
L 619.69914 582.160735 
L 636.025699 582.160735 
L 640.174251 578.258096 
L 644.055154 575.656336 
L 648.203706 571.753697 
L 652.218434 565.899738 
L 656.366986 561.997099 
L 660.381713 560.696219 
L 672.693545 543.134342 
L 676.842097 535.979503 
L 685.005376 508.010588 
L 689.153928 498.90443 
L 692.901007 493.050471 
L 697.049559 494.351351 
L 701.064287 502.156629 
L 705.212839 508.010588 
L 713.376118 508.010588 
L 717.52467 502.807069 
L 721.539398 498.90443 
L 725.68795 498.90443 
L 729.702678 506.059269 
L 733.85123 511.913228 
L 737.999781 515.815867 
L 741.746861 519.718506 
L 745.895413 523.621146 
L 749.91014 521.669826 
L 754.058692 517.116747 
L 758.07342 513.214107 
L 762.221972 513.864547 
L 770.385251 520.368946 
L 774.533803 522.320266 
L 778.548531 526.222905 
L 782.697083 537.930823 
L 786.845635 543.134342 
L 790.592714 543.134342 
L 794.741266 541.183022 
L 798.755994 537.930823 
L 802.904545 539.882143 
L 806.919273 543.784782 
L 811.067825 545.736102 
L 815.216377 548.988301 
L 823.379657 554.19182 
L 827.394384 552.89094 
L 831.542936 547.036981 
L 835.691488 543.134342 
L 839.572391 546.386541 
L 843.720943 553.54138 
L 847.735671 563.948418 
L 851.884223 567.851058 
L 855.898951 563.297978 
L 860.047503 559.395339 
L 864.196054 556.79358 
L 868.210782 557.444019 
L 872.359334 557.444019 
L 876.374062 553.54138 
L 880.522614 546.386541 
L 884.671166 541.833462 
L 888.418245 532.727304 
L 892.566797 515.165427 
L 896.581524 499.55487 
L 900.730076 485.245192 
L 904.744804 486.546072 
L 908.893356 485.245192 
L 913.041908 481.992993 
L 917.056635 474.187714 
L 921.205187 455.975398 
L 925.219915 459.878037 
L 929.368467 476.789474 
L 933.517019 484.594753 
L 937.264098 486.546072 
L 941.41265 489.798272 
L 945.427378 491.749591 
L 949.57593 502.156629 
L 953.590657 504.107949 
L 961.887761 528.824665 
L 965.902489 537.930823 
L 970.051041 552.2405 
L 974.065768 552.2405 
L 978.21432 548.337861 
L 982.362872 548.988301 
L 986.109951 552.89094 
L 990.258503 560.045779 
L 994.273231 567.200618 
L 998.421783 573.705016 
L 1002.436511 578.908536 
L 1006.585062 572.404137 
L 1010.733614 563.297978 
L 1014.748342 560.045779 
L 1018.896894 560.696219 
L 1022.911622 563.297978 
L 1027.060174 561.346659 
L 1031.208725 560.045779 
L 1035.089629 561.346659 
L 1039.238181 561.997099 
L 1043.252908 560.045779 
L 1047.40146 552.89094 
L 1051.416188 548.988301 
L 1055.56474 548.988301 
L 1059.713292 555.4927 
L 1063.72802 561.997099 
L 1067.876571 562.647538 
L 1071.891299 560.045779 
L 1076.039851 558.744899 
L 1080.188403 558.744899 
L 1083.935482 558.094459 
L 1088.084034 560.045779 
L 1088.084034 560.045779 
" clip-path="url(#p9ec26fb296)" style="fill: none; stroke: #008000; stroke-width: 1.5; stroke-linecap: square"/>
   </g>
   <g id="patch_15">
    <path d="M 53.328125 604.178125 
L 53.328125 448.918125 
" style="fill: none; stroke: #000000; stroke-width: 0.8; stroke-linejoin: miter; stroke-linecap: square"/>
   </g>
   <g id="patch_16">
    <path d="M 1137.358125 604.178125 
L 1137.358125 448.918125 
" style="fill: none; stroke: #000000; stroke-width: 0.8; stroke-linejoin: miter; stroke-linecap: square"/>
   </g>
   <g id="patch_17">
    <path d="M 53.328125 604.178125 
L 1137.358125 604.178125 
" style="fill: none; stroke: #000000; stroke-width: 0.8; stroke-linejoin: miter; stroke-linecap: square"/>
   </g>
   <g id="patch_18">
    <path d="M 53.328125 448.918125 
L 1137.358125 448.918125 
" style="fill: none; stroke: #000000; stroke-width: 0.8; stroke-linejoin: miter; stroke-linecap: square"/>
   </g>
   <g id="text_40">
    <!-- PPI (MOM) -->
    <g transform="translate(564.671875 442.918125) scale(0.12 -0.12)">
     <use xlink:href="#DejaVuSans-50"/>
     <use xlink:href="#DejaVuSans-50" transform="translate(60.302734 0)"/>
     <use xlink:href="#DejaVuSans-49" transform="translate(120.605469 0)"/>
     <use xlink:href="#DejaVuSans-20" transform="translate(150.097656 0)"/>
     <use xlink:href="#DejaVuSans-28" transform="translate(181.884766 0)"/>
     <use xlink:href="#DejaVuSans-4d" transform="translate(220.898438 0)"/>
     <use xlink:href="#DejaVuSans-4f" transform="translate(307.177734 0)"/>
     <use xlink:href="#DejaVuSans-4d" transform="translate(385.888672 0)"/>
     <use xlink:href="#DejaVuSans-29" transform="translate(472.167969 0)"/>
    </g>
   </g>
   <g id="legend_3">
    <g id="patch_19">
     <path d="M 1055.0425 471.59625 
L 1130.358125 471.59625 
Q 1132.358125 471.59625 1132.358125 469.59625 
L 1132.358125 455.918125 
Q 1132.358125 453.918125 1130.358125 453.918125 
L 1055.0425 453.918125 
Q 1053.0425 453.918125 1053.0425 455.918125 
L 1053.0425 469.59625 
Q 1053.0425 471.59625 1055.0425 471.59625 
z
" style="fill: #ffffff; opacity: 0.8; stroke: #cccccc; stroke-linejoin: miter"/>
    </g>
    <g id="line2d_64">
     <path d="M 1057.0425 462.016562 
L 1067.0425 462.016562 
L 1077.0425 462.016562 
" style="fill: none; stroke: #008000; stroke-width: 1.5; stroke-linecap: square"/>
    </g>
    <g id="text_41">
     <!-- PPI MOM -->
     <g transform="translate(1085.0425 465.516562) scale(0.1 -0.1)">
      <use xlink:href="#DejaVuSans-50"/>
      <use xlink:href="#DejaVuSans-50" transform="translate(60.302734 0)"/>
      <use xlink:href="#DejaVuSans-49" transform="translate(120.605469 0)"/>
      <use xlink:href="#DejaVuSans-20" transform="translate(150.097656 0)"/>
      <use xlink:href="#DejaVuSans-4d" transform="translate(181.884766 0)"/>
      <use xlink:href="#DejaVuSans-4f" transform="translate(268.164062 0)"/>
      <use xlink:href="#DejaVuSans-4d" transform="translate(346.875 0)"/>
     </g>
    </g>
   </g>
  </g>
  <g id="axes_4">
   <g id="patch_20">
    <path d="M 53.328125 817.478125 
L 1137.358125 817.478125 
L 1137.358125 662.218125 
L 53.328125 662.218125 
z
" style="fill: #ffffff"/>
   </g>
   <g id="matplotlib.axis_7">
    <g id="xtick_16">
     <g id="line2d_65">
      <path d="M 98.453664 817.478125 
L 98.453664 662.218125 
" clip-path="url(#pc919c0ea19)" style="fill: none; stroke: #b0b0b0; stroke-width: 0.8; stroke-linecap: square"/>
     </g>
     <g id="line2d_66">
      <g>
       <use xlink:href="#m6285fc6979" x="98.453664" y="817.478125" style="stroke: #000000; stroke-width: 0.8"/>
      </g>
     </g>
     <g id="text_42">
      <!-- 2005 -->
      <g transform="translate(85.728664 832.076562) scale(0.1 -0.1)">
       <use xlink:href="#DejaVuSans-32"/>
       <use xlink:href="#DejaVuSans-30" transform="translate(63.623047 0)"/>
       <use xlink:href="#DejaVuSans-30" transform="translate(127.246094 0)"/>
       <use xlink:href="#DejaVuSans-35" transform="translate(190.869141 0)"/>
      </g>
     </g>
    </g>
    <g id="xtick_17">
     <g id="line2d_67">
      <path d="M 342.816755 817.478125 
L 342.816755 662.218125 
" clip-path="url(#pc919c0ea19)" style="fill: none; stroke: #b0b0b0; stroke-width: 0.8; stroke-linecap: square"/>
     </g>
     <g id="line2d_68">
      <g>
       <use xlink:href="#m6285fc6979" x="342.816755" y="817.478125" style="stroke: #000000; stroke-width: 0.8"/>
      </g>
     </g>
     <g id="text_43">
      <!-- 2010 -->
      <g transform="translate(330.091755 832.076562) scale(0.1 -0.1)">
       <use xlink:href="#DejaVuSans-32"/>
       <use xlink:href="#DejaVuSans-30" transform="translate(63.623047 0)"/>
       <use xlink:href="#DejaVuSans-31" transform="translate(127.246094 0)"/>
       <use xlink:href="#DejaVuSans-30" transform="translate(190.869141 0)"/>
      </g>
     </g>
    </g>
    <g id="xtick_18">
     <g id="line2d_69">
      <path d="M 587.179845 817.478125 
L 587.179845 662.218125 
" clip-path="url(#pc919c0ea19)" style="fill: none; stroke: #b0b0b0; stroke-width: 0.8; stroke-linecap: square"/>
     </g>
     <g id="line2d_70">
      <g>
       <use xlink:href="#m6285fc6979" x="587.179845" y="817.478125" style="stroke: #000000; stroke-width: 0.8"/>
      </g>
     </g>
     <g id="text_44">
      <!-- 2015 -->
      <g transform="translate(574.454845 832.076562) scale(0.1 -0.1)">
       <use xlink:href="#DejaVuSans-32"/>
       <use xlink:href="#DejaVuSans-30" transform="translate(63.623047 0)"/>
       <use xlink:href="#DejaVuSans-31" transform="translate(127.246094 0)"/>
       <use xlink:href="#DejaVuSans-35" transform="translate(190.869141 0)"/>
      </g>
     </g>
    </g>
    <g id="xtick_19">
     <g id="line2d_71">
      <path d="M 831.542936 817.478125 
L 831.542936 662.218125 
" clip-path="url(#pc919c0ea19)" style="fill: none; stroke: #b0b0b0; stroke-width: 0.8; stroke-linecap: square"/>
     </g>
     <g id="line2d_72">
      <g>
       <use xlink:href="#m6285fc6979" x="831.542936" y="817.478125" style="stroke: #000000; stroke-width: 0.8"/>
      </g>
     </g>
     <g id="text_45">
      <!-- 2020 -->
      <g transform="translate(818.817936 832.076562) scale(0.1 -0.1)">
       <use xlink:href="#DejaVuSans-32"/>
       <use xlink:href="#DejaVuSans-30" transform="translate(63.623047 0)"/>
       <use xlink:href="#DejaVuSans-32" transform="translate(127.246094 0)"/>
       <use xlink:href="#DejaVuSans-30" transform="translate(190.869141 0)"/>
      </g>
     </g>
    </g>
    <g id="xtick_20">
     <g id="line2d_73">
      <path d="M 1076.039851 817.478125 
L 1076.039851 662.218125 
" clip-path="url(#pc919c0ea19)" style="fill: none; stroke: #b0b0b0; stroke-width: 0.8; stroke-linecap: square"/>
     </g>
     <g id="line2d_74">
      <g>
       <use xlink:href="#m6285fc6979" x="1076.039851" y="817.478125" style="stroke: #000000; stroke-width: 0.8"/>
      </g>
     </g>
     <g id="text_46">
      <!-- 2025 -->
      <g transform="translate(1063.314851 832.076562) scale(0.1 -0.1)">
       <use xlink:href="#DejaVuSans-32"/>
       <use xlink:href="#DejaVuSans-30" transform="translate(63.623047 0)"/>
       <use xlink:href="#DejaVuSans-32" transform="translate(127.246094 0)"/>
       <use xlink:href="#DejaVuSans-35" transform="translate(190.869141 0)"/>
      </g>
     </g>
    </g>
    <g id="text_47">
     <!-- Date -->
     <g transform="translate(583.392344 845.754687) scale(0.1 -0.1)">
      <use xlink:href="#DejaVuSans-44"/>
      <use xlink:href="#DejaVuSans-61" transform="translate(77.001953 0)"/>
      <use xlink:href="#DejaVuSans-74" transform="translate(138.28125 0)"/>
      <use xlink:href="#DejaVuSans-65" transform="translate(177.490234 0)"/>
     </g>
    </g>
   </g>
   <g id="matplotlib.axis_8">
    <g id="ytick_15">
     <g id="line2d_75">
      <path d="M 53.328125 814.625185 
L 1137.358125 814.625185 
" clip-path="url(#pc919c0ea19)" style="fill: none; stroke: #b0b0b0; stroke-width: 0.8; stroke-linecap: square"/>
     </g>
     <g id="line2d_76">
      <g>
       <use xlink:href="#m0a0ed96bd3" x="53.328125" y="814.625185" style="stroke: #000000; stroke-width: 0.8"/>
      </g>
     </g>
     <g id="text_48">
      <!-- 35 -->
      <g transform="translate(33.603125 818.424404) scale(0.1 -0.1)">
       <use xlink:href="#DejaVuSans-33"/>
       <use xlink:href="#DejaVuSans-35" transform="translate(63.623047 0)"/>
      </g>
     </g>
    </g>
    <g id="ytick_16">
     <g id="line2d_77">
      <path d="M 53.328125 784.594237 
L 1137.358125 784.594237 
" clip-path="url(#pc919c0ea19)" style="fill: none; stroke: #b0b0b0; stroke-width: 0.8; stroke-linecap: square"/>
     </g>
     <g id="line2d_78">
      <g>
       <use xlink:href="#m0a0ed96bd3" x="53.328125" y="784.594237" style="stroke: #000000; stroke-width: 0.8"/>
      </g>
     </g>
     <g id="text_49">
      <!-- 40 -->
      <g transform="translate(33.603125 788.393456) scale(0.1 -0.1)">
       <use xlink:href="#DejaVuSans-34"/>
       <use xlink:href="#DejaVuSans-30" transform="translate(63.623047 0)"/>
      </g>
     </g>
    </g>
    <g id="ytick_17">
     <g id="line2d_79">
      <path d="M 53.328125 754.563289 
L 1137.358125 754.563289 
" clip-path="url(#pc919c0ea19)" style="fill: none; stroke: #b0b0b0; stroke-width: 0.8; stroke-linecap: square"/>
     </g>
     <g id="line2d_80">
      <g>
       <use xlink:href="#m0a0ed96bd3" x="53.328125" y="754.563289" style="stroke: #000000; stroke-width: 0.8"/>
      </g>
     </g>
     <g id="text_50">
      <!-- 45 -->
      <g transform="translate(33.603125 758.362508) scale(0.1 -0.1)">
       <use xlink:href="#DejaVuSans-34"/>
       <use xlink:href="#DejaVuSans-35" transform="translate(63.623047 0)"/>
      </g>
     </g>
    </g>
    <g id="ytick_18">
     <g id="line2d_81">
      <path d="M 53.328125 724.532342 
L 1137.358125 724.532342 
" clip-path="url(#pc919c0ea19)" style="fill: none; stroke: #b0b0b0; stroke-width: 0.8; stroke-linecap: square"/>
     </g>
     <g id="line2d_82">
      <g>
       <use xlink:href="#m0a0ed96bd3" x="53.328125" y="724.532342" style="stroke: #000000; stroke-width: 0.8"/>
      </g>
     </g>
     <g id="text_51">
      <!-- 50 -->
      <g transform="translate(33.603125 728.33156) scale(0.1 -0.1)">
       <use xlink:href="#DejaVuSans-35"/>
       <use xlink:href="#DejaVuSans-30" transform="translate(63.623047 0)"/>
      </g>
     </g>
    </g>
    <g id="ytick_19">
     <g id="line2d_83">
      <path d="M 53.328125 694.501394 
L 1137.358125 694.501394 
" clip-path="url(#pc919c0ea19)" style="fill: none; stroke: #b0b0b0; stroke-width: 0.8; stroke-linecap: square"/>
     </g>
     <g id="line2d_84">
      <g>
       <use xlink:href="#m0a0ed96bd3" x="53.328125" y="694.501394" style="stroke: #000000; stroke-width: 0.8"/>
      </g>
     </g>
     <g id="text_52">
      <!-- 55 -->
      <g transform="translate(33.603125 698.300613) scale(0.1 -0.1)">
       <use xlink:href="#DejaVuSans-35"/>
       <use xlink:href="#DejaVuSans-35" transform="translate(63.623047 0)"/>
      </g>
     </g>
    </g>
    <g id="ytick_20">
     <g id="line2d_85">
      <path d="M 53.328125 664.470446 
L 1137.358125 664.470446 
" clip-path="url(#pc919c0ea19)" style="fill: none; stroke: #b0b0b0; stroke-width: 0.8; stroke-linecap: square"/>
     </g>
     <g id="line2d_86">
      <g>
       <use xlink:href="#m0a0ed96bd3" x="53.328125" y="664.470446" style="stroke: #000000; stroke-width: 0.8"/>
      </g>
     </g>
     <g id="text_53">
      <!-- 60 -->
      <g transform="translate(33.603125 668.269665) scale(0.1 -0.1)">
       <defs>
        <path id="DejaVuSans-36" d="M 2113 2584 
Q 1688 2584 1439 2293 
Q 1191 2003 1191 1497 
Q 1191 994 1439 701 
Q 1688 409 2113 409 
Q 2538 409 2786 701 
Q 3034 994 3034 1497 
Q 3034 2003 2786 2293 
Q 2538 2584 2113 2584 
z
M 3366 4563 
L 3366 3988 
Q 3128 4100 2886 4159 
Q 2644 4219 2406 4219 
Q 1781 4219 1451 3797 
Q 1122 3375 1075 2522 
Q 1259 2794 1537 2939 
Q 1816 3084 2150 3084 
Q 2853 3084 3261 2657 
Q 3669 2231 3669 1497 
Q 3669 778 3244 343 
Q 2819 -91 2113 -91 
Q 1303 -91 875 529 
Q 447 1150 447 2328 
Q 447 3434 972 4092 
Q 1497 4750 2381 4750 
Q 2619 4750 2861 4703 
Q 3103 4656 3366 4563 
z
" transform="scale(0.015625)"/>
       </defs>
       <use xlink:href="#DejaVuSans-36"/>
       <use xlink:href="#DejaVuSans-30" transform="translate(63.623047 0)"/>
      </g>
     </g>
    </g>
    <g id="text_54">
     <!-- Value -->
     <g transform="translate(27.523438 753.579375) rotate(-90) scale(0.1 -0.1)">
      <defs>
       <path id="DejaVuSans-56" d="M 1831 0 
L 50 4666 
L 709 4666 
L 2188 738 
L 3669 4666 
L 4325 4666 
L 2547 0 
L 1831 0 
z
" transform="scale(0.015625)"/>
       <path id="DejaVuSans-75" d="M 544 1381 
L 544 3500 
L 1119 3500 
L 1119 1403 
Q 1119 906 1312 657 
Q 1506 409 1894 409 
Q 2359 409 2629 706 
Q 2900 1003 2900 1516 
L 2900 3500 
L 3475 3500 
L 3475 0 
L 2900 0 
L 2900 538 
Q 2691 219 2414 64 
Q 2138 -91 1772 -91 
Q 1169 -91 856 284 
Q 544 659 544 1381 
z
M 1991 3584 
L 1991 3584 
z
" transform="scale(0.015625)"/>
      </defs>
      <use xlink:href="#DejaVuSans-56"/>
      <use xlink:href="#DejaVuSans-61" transform="translate(60.658203 0)"/>
      <use xlink:href="#DejaVuSans-6c" transform="translate(121.9375 0)"/>
      <use xlink:href="#DejaVuSans-75" transform="translate(149.720703 0)"/>
      <use xlink:href="#DejaVuSans-65" transform="translate(213.099609 0)"/>
     </g>
    </g>
   </g>
   <g id="line2d_87">
    <path d="M 102.602216 696.303251 
L 106.349295 697.504489 
L 110.497847 677.083444 
L 114.512575 684.290872 
L 118.661127 707.114392 
L 122.675854 714.321819 
L 126.824406 717.925533 
L 130.972958 708.916249 
L 134.987686 693.900775 
L 139.136238 699.906964 
L 143.150965 699.906964 
L 147.299517 698.705727 
L 151.448069 711.919344 
L 155.195148 711.919344 
L 159.3437 692.699537 
L 163.358428 675.882206 
L 167.50698 695.702632 
L 171.521708 699.906964 
L 175.670259 710.117487 
L 179.818811 705.913154 
L 183.833539 682.489015 
L 187.982091 696.303251 
L 191.996819 692.699537 
L 196.145371 695.702632 
L 200.293922 693.900775 
L 204.041002 705.913154 
L 208.189554 687.894585 
L 212.204281 672.879111 
L 216.352833 690.297061 
L 220.367561 697.504489 
L 224.516113 704.711916 
L 228.664665 700.507583 
L 232.679392 687.894585 
L 236.827944 705.312535 
L 240.842672 692.098918 
L 244.991224 692.699537 
L 249.139776 706.513773 
L 253.020679 704.111297 
L 257.169231 674.080349 
L 261.183959 669.275398 
L 265.332511 704.711916 
L 269.347238 712.519963 
L 273.49579 734.142245 
L 277.644342 734.142245 
L 281.65907 717.324914 
L 285.807622 756.965765 
L 289.822349 791.801665 
L 293.970901 777.38681 
L 301.866532 730.538531 
L 306.015084 710.117487 
L 310.029812 703.510678 
L 314.178364 705.913154 
L 322.341644 704.711916 
L 326.490196 700.507583 
L 330.504923 698.705727 
L 334.653475 693.300156 
L 338.668203 693.300156 
L 342.816755 684.891491 
L 346.965307 689.696442 
L 350.712386 712.519963 
L 354.860938 693.900775 
L 358.875665 690.297061 
L 363.024217 701.108202 
L 367.038945 711.919344 
L 371.187497 717.324914 
L 375.336049 714.321819 
L 379.350776 701.708821 
L 383.499328 696.303251 
L 387.514056 693.300156 
L 391.662608 701.108202 
L 395.81116 707.114392 
L 399.558239 711.318725 
L 403.706791 704.111297 
L 407.721519 707.114392 
L 411.870071 712.519963 
L 415.884798 719.126771 
L 420.03335 720.328009 
L 424.181902 719.126771 
L 428.19663 717.324914 
L 432.345182 722.129866 
L 436.359909 730.538531 
L 440.508461 722.730485 
L 444.657013 721.529247 
L 448.537917 718.526152 
L 452.686469 705.913154 
L 456.701196 704.711916 
L 460.849748 722.129866 
L 464.864476 723.331104 
L 469.013028 723.931723 
L 473.16158 729.337293 
L 477.176307 725.73358 
L 485.339587 720.928628 
L 489.488139 720.928628 
L 493.636691 722.129866 
L 497.38377 723.931723 
L 501.532322 719.126771 
L 505.547049 720.928628 
L 509.695601 719.72739 
L 513.710329 723.931723 
L 517.858881 722.730485 
L 522.007433 718.526152 
L 526.022161 717.925533 
L 530.170713 716.123676 
L 534.18544 716.123676 
L 538.333992 718.526152 
L 542.482544 721.529247 
L 546.229623 723.331104 
L 554.392903 722.129866 
L 558.541455 719.72739 
L 562.556182 718.526152 
L 566.704734 714.321819 
L 570.853286 717.925533 
L 574.868014 717.925533 
L 579.016566 719.72739 
L 583.031293 722.730485 
L 587.179845 723.931723 
L 591.328397 725.73358 
L 595.075476 725.132961 
L 599.224028 723.931723 
L 603.238756 723.931723 
L 607.387308 723.331104 
L 611.402036 723.331104 
L 615.550588 724.532342 
L 619.69914 726.334199 
L 623.713867 725.73358 
L 627.862419 725.73358 
L 631.877147 726.934817 
L 636.025699 726.334199 
L 640.174251 728.136055 
L 644.055154 730.538531 
L 648.203706 723.331104 
L 652.218434 723.931723 
L 656.366986 723.931723 
L 664.530265 725.132961 
L 668.678817 722.129866 
L 672.693545 722.129866 
L 676.842097 717.324914 
L 680.856824 714.321819 
L 685.005376 716.123676 
L 689.153928 716.724295 
L 692.901007 714.922438 
L 697.049559 717.324914 
L 701.064287 717.324914 
L 705.212839 714.321819 
L 709.227567 716.123676 
L 713.376118 714.321819 
L 717.52467 710.117487 
L 721.539398 714.922438 
L 725.68795 713.7212 
L 729.702678 714.922438 
L 733.85123 716.724295 
L 737.999781 722.730485 
L 741.746861 715.523057 
L 745.895413 716.123676 
L 749.91014 713.120581 
L 754.058692 715.523057 
L 758.07342 717.324914 
L 762.221972 716.724295 
L 766.370524 719.72739 
L 770.385251 723.331104 
L 774.533803 724.532342 
L 778.548531 728.136055 
L 782.697083 727.535436 
L 786.845635 729.337293 
L 790.592714 721.529247 
L 794.741266 723.931723 
L 798.755994 728.136055 
L 802.904545 728.136055 
L 806.919273 726.334199 
L 811.067825 727.535436 
L 815.216377 725.73358 
L 819.231105 728.736674 
L 823.379657 723.331104 
L 827.394384 723.331104 
L 831.542936 724.532342 
L 835.691488 810.420852 
L 839.572391 712.519963 
L 843.720943 719.72739 
L 847.735671 720.928628 
L 851.884223 719.126771 
L 855.898951 717.925533 
L 860.047503 718.526152 
L 864.196054 715.523057 
L 868.210782 716.123676 
L 872.359334 711.919344 
L 876.374062 713.120581 
L 880.522614 716.724295 
L 884.671166 720.928628 
L 888.418245 713.120581 
L 892.566797 717.925533 
L 900.730076 719.126771 
L 904.744804 722.129866 
L 908.893356 723.931723 
L 913.041908 726.934817 
L 917.056635 729.337293 
L 921.205187 723.931723 
L 925.219915 722.730485 
L 929.368467 723.931723 
L 937.264098 723.331104 
L 941.41265 740.148434 
L 945.427378 726.934817 
L 949.57593 723.331104 
L 953.590657 730.538531 
L 957.739209 728.136055 
L 961.887761 723.931723 
L 965.902489 723.931723 
L 970.051041 736.544721 
L 974.065768 742.55091 
L 978.21432 723.931723 
L 982.362872 716.423986 
L 986.109951 708.916249 
L 990.258503 729.337293 
L 994.273231 731.739769 
L 998.421783 730.538531 
L 1002.436511 728.736674 
L 1006.585062 726.334199 
L 1010.733614 723.331104 
L 1014.748342 727.535436 
L 1018.896894 728.136055 
L 1022.911622 730.538531 
L 1027.060174 729.337293 
L 1035.089629 729.937912 
L 1039.238181 722.129866 
L 1043.252908 727.535436 
L 1047.40146 727.535436 
L 1051.416188 728.136055 
L 1055.56474 729.937912 
L 1059.713292 725.73358 
L 1063.72802 723.931723 
L 1067.876571 722.730485 
L 1071.891299 723.931723 
L 1076.039851 729.937912 
L 1080.188403 726.634508 
L 1083.935482 723.331104 
L 1088.084034 721.529247 
L 1088.084034 721.529247 
" clip-path="url(#pc919c0ea19)" style="fill: none; stroke: #800080; stroke-width: 1.5; stroke-linecap: square"/>
   </g>
   <g id="patch_21">
    <path d="M 53.328125 817.478125 
L 53.328125 662.218125 
" style="fill: none; stroke: #000000; stroke-width: 0.8; stroke-linejoin: miter; stroke-linecap: square"/>
   </g>
   <g id="patch_22">
    <path d="M 1137.358125 817.478125 
L 1137.358125 662.218125 
" style="fill: none; stroke: #000000; stroke-width: 0.8; stroke-linejoin: miter; stroke-linecap: square"/>
   </g>
   <g id="patch_23">
    <path d="M 53.328125 817.478125 
L 1137.358125 817.478125 
" style="fill: none; stroke: #000000; stroke-width: 0.8; stroke-linejoin: miter; stroke-linecap: square"/>
   </g>
   <g id="patch_24">
    <path d="M 53.328125 662.218125 
L 1137.358125 662.218125 
" style="fill: none; stroke: #000000; stroke-width: 0.8; stroke-linejoin: miter; stroke-linecap: square"/>
   </g>
   <g id="text_55">
    <!-- PMI (MOM) -->
    <g transform="translate(563.112812 656.218125) scale(0.12 -0.12)">
     <use xlink:href="#DejaVuSans-50"/>
     <use xlink:href="#DejaVuSans-4d" transform="translate(60.302734 0)"/>
     <use xlink:href="#DejaVuSans-49" transform="translate(146.582031 0)"/>
     <use xlink:href="#DejaVuSans-20" transform="translate(176.074219 0)"/>
     <use xlink:href="#DejaVuSans-28" transform="translate(207.861328 0)"/>
     <use xlink:href="#DejaVuSans-4d" transform="translate(246.875 0)"/>
     <use xlink:href="#DejaVuSans-4f" transform="translate(333.154297 0)"/>
     <use xlink:href="#DejaVuSans-4d" transform="translate(411.865234 0)"/>
     <use xlink:href="#DejaVuSans-29" transform="translate(498.144531 0)"/>
    </g>
   </g>
   <g id="legend_4">
    <g id="patch_25">
     <path d="M 1080.750312 684.89625 
L 1130.358125 684.89625 
Q 1132.358125 684.89625 1132.358125 682.89625 
L 1132.358125 669.218125 
Q 1132.358125 667.218125 1130.358125 667.218125 
L 1080.750312 667.218125 
Q 1078.750312 667.218125 1078.750312 669.218125 
L 1078.750312 682.89625 
Q 1078.750312 684.89625 1080.750312 684.89625 
z
" style="fill: #ffffff; opacity: 0.8; stroke: #cccccc; stroke-linejoin: miter"/>
    </g>
    <g id="line2d_88">
     <path d="M 1082.750312 675.316562 
L 1092.750312 675.316562 
L 1102.750312 675.316562 
" style="fill: none; stroke: #800080; stroke-width: 1.5; stroke-linecap: square"/>
    </g>
    <g id="text_56">
     <!-- PMI -->
     <g transform="translate(1110.750312 678.816562) scale(0.1 -0.1)">
      <use xlink:href="#DejaVuSans-50"/>
      <use xlink:href="#DejaVuSans-4d" transform="translate(60.302734 0)"/>
      <use xlink:href="#DejaVuSans-49" transform="translate(146.582031 0)"/>
     </g>
    </g>
   </g>
  </g>
 </g>
 <defs>
  <clipPath id="p27c311d133">
   <rect x="53.328125" y="22.318125" width="1084.03" height="155.26"/>
  </clipPath>
  <clipPath id="pe3200e4d50">
   <rect x="53.328125" y="235.618125" width="1084.03" height="155.26"/>
  </clipPath>
  <clipPath id="p9ec26fb296">
   <rect x="53.328125" y="448.918125" width="1084.03" height="155.26"/>
  </clipPath>
  <clipPath id="pc919c0ea19">
   <rect x="53.328125" y="662.218125" width="1084.03" height="155.26"/>
  </clipPath>
 </defs>
</svg>
