<?xml version="1.0" encoding="utf-8" standalone="no"?>
<!DOCTYPE svg PUBLIC "-//W3C//DTD SVG 1.1//EN"
  "http://www.w3.org/Graphics/SVG/1.1/DTD/svg11.dtd">
<svg xmlns:xlink="http://www.w3.org/1999/xlink" width="576pt" height="288pt" viewBox="0 0 576 288" xmlns="http://www.w3.org/2000/svg" version="1.1">
 <metadata>
  <rdf:RDF xmlns:dc="http://purl.org/dc/elements/1.1/" xmlns:cc="http://creativecommons.org/ns#" xmlns:rdf="http://www.w3.org/1999/02/22-rdf-syntax-ns#">
   <cc:Work>
    <dc:type rdf:resource="http://purl.org/dc/dcmitype/StillImage"/>
    <dc:date>2025-05-04T15:53:19.399511</dc:date>
    <dc:format>image/svg+xml</dc:format>
    <dc:creator>
     <cc:Agent>
      <dc:title>Matplotlib v3.10.1, https://matplotlib.org/</dc:title>
     </cc:Agent>
    </dc:creator>
   </cc:Work>
  </rdf:RDF>
 </metadata>
 <defs>
  <style type="text/css">*{stroke-linejoin: round; stroke-linecap: butt}</style>
 </defs>
 <g id="figure_1">
  <g id="patch_1">
   <path d="M 0 288 
L 576 288 
L 576 0 
L 0 0 
z
" style="fill: #ffffff"/>
  </g>
  <g id="axes_1">
   <g id="patch_2">
    <path d="M 57.17 246.04 
L 564.467319 246.04 
L 564.467319 26.88 
L 57.17 26.88 
z
" style="fill: #ffffff"/>
   </g>
   <g id="matplotlib.axis_1">
    <g id="xtick_1">
     <g id="line2d_1">
      <defs>
       <path id="m56e9c03b62" d="M 0 0 
L 0 3.5 
" style="stroke: #000000; stroke-width: 0.8"/>
      </defs>
      <g>
       <use xlink:href="#m56e9c03b62" x="82.742208" y="246.04" style="stroke: #000000; stroke-width: 0.8"/>
      </g>
     </g>
     <g id="text_1">
      <!-- 2022-05 -->
      <g transform="translate(61.850802 260.638438) scale(0.1 -0.1)">
       <defs>
        <path id="DejaVuSans-32" d="M 1228 531 
L 3431 531 
L 3431 0 
L 469 0 
L 469 531 
Q 828 903 1448 1529 
Q 2069 2156 2228 2338 
Q 2531 2678 2651 2914 
Q 2772 3150 2772 3378 
Q 2772 3750 2511 3984 
Q 2250 4219 1831 4219 
Q 1534 4219 1204 4116 
Q 875 4013 500 3803 
L 500 4441 
Q 881 4594 1212 4672 
Q 1544 4750 1819 4750 
Q 2544 4750 2975 4387 
Q 3406 4025 3406 3419 
Q 3406 3131 3298 2873 
Q 3191 2616 2906 2266 
Q 2828 2175 2409 1742 
Q 1991 1309 1228 531 
z
" transform="scale(0.015625)"/>
        <path id="DejaVuSans-30" d="M 2034 4250 
Q 1547 4250 1301 3770 
Q 1056 3291 1056 2328 
Q 1056 1369 1301 889 
Q 1547 409 2034 409 
Q 2525 409 2770 889 
Q 3016 1369 3016 2328 
Q 3016 3291 2770 3770 
Q 2525 4250 2034 4250 
z
M 2034 4750 
Q 2819 4750 3233 4129 
Q 3647 3509 3647 2328 
Q 3647 1150 3233 529 
Q 2819 -91 2034 -91 
Q 1250 -91 836 529 
Q 422 1150 422 2328 
Q 422 3509 836 4129 
Q 1250 4750 2034 4750 
z
" transform="scale(0.015625)"/>
        <path id="DejaVuSans-2d" d="M 313 2009 
L 1997 2009 
L 1997 1497 
L 313 1497 
L 313 2009 
z
" transform="scale(0.015625)"/>
        <path id="DejaVuSans-35" d="M 691 4666 
L 3169 4666 
L 3169 4134 
L 1269 4134 
L 1269 2991 
Q 1406 3038 1543 3061 
Q 1681 3084 1819 3084 
Q 2600 3084 3056 2656 
Q 3513 2228 3513 1497 
Q 3513 744 3044 326 
Q 2575 -91 1722 -91 
Q 1428 -91 1123 -41 
Q 819 9 494 109 
L 494 744 
Q 775 591 1075 516 
Q 1375 441 1709 441 
Q 2250 441 2565 725 
Q 2881 1009 2881 1497 
Q 2881 1984 2565 2268 
Q 2250 2553 1709 2553 
Q 1456 2553 1204 2497 
Q 953 2441 691 2322 
L 691 4666 
z
" transform="scale(0.015625)"/>
       </defs>
       <use xlink:href="#DejaVuSans-32"/>
       <use xlink:href="#DejaVuSans-30" transform="translate(63.623047 0)"/>
       <use xlink:href="#DejaVuSans-32" transform="translate(127.246094 0)"/>
       <use xlink:href="#DejaVuSans-32" transform="translate(190.869141 0)"/>
       <use xlink:href="#DejaVuSans-2d" transform="translate(254.492188 0)"/>
       <use xlink:href="#DejaVuSans-30" transform="translate(290.576172 0)"/>
       <use xlink:href="#DejaVuSans-35" transform="translate(354.199219 0)"/>
      </g>
     </g>
    </g>
    <g id="xtick_2">
     <g id="line2d_2">
      <g>
       <use xlink:href="#m56e9c03b62" x="134.26361" y="246.04" style="stroke: #000000; stroke-width: 0.8"/>
      </g>
     </g>
     <g id="text_2">
      <!-- 2022-09 -->
      <g transform="translate(113.372204 260.638438) scale(0.1 -0.1)">
       <defs>
        <path id="DejaVuSans-39" d="M 703 97 
L 703 672 
Q 941 559 1184 500 
Q 1428 441 1663 441 
Q 2288 441 2617 861 
Q 2947 1281 2994 2138 
Q 2813 1869 2534 1725 
Q 2256 1581 1919 1581 
Q 1219 1581 811 2004 
Q 403 2428 403 3163 
Q 403 3881 828 4315 
Q 1253 4750 1959 4750 
Q 2769 4750 3195 4129 
Q 3622 3509 3622 2328 
Q 3622 1225 3098 567 
Q 2575 -91 1691 -91 
Q 1453 -91 1209 -44 
Q 966 3 703 97 
z
M 1959 2075 
Q 2384 2075 2632 2365 
Q 2881 2656 2881 3163 
Q 2881 3666 2632 3958 
Q 2384 4250 1959 4250 
Q 1534 4250 1286 3958 
Q 1038 3666 1038 3163 
Q 1038 2656 1286 2365 
Q 1534 2075 1959 2075 
z
" transform="scale(0.015625)"/>
       </defs>
       <use xlink:href="#DejaVuSans-32"/>
       <use xlink:href="#DejaVuSans-30" transform="translate(63.623047 0)"/>
       <use xlink:href="#DejaVuSans-32" transform="translate(127.246094 0)"/>
       <use xlink:href="#DejaVuSans-32" transform="translate(190.869141 0)"/>
       <use xlink:href="#DejaVuSans-2d" transform="translate(254.492188 0)"/>
       <use xlink:href="#DejaVuSans-30" transform="translate(290.576172 0)"/>
       <use xlink:href="#DejaVuSans-39" transform="translate(354.199219 0)"/>
      </g>
     </g>
    </g>
    <g id="xtick_3">
     <g id="line2d_3">
      <g>
       <use xlink:href="#m56e9c03b62" x="185.366139" y="246.04" style="stroke: #000000; stroke-width: 0.8"/>
      </g>
     </g>
     <g id="text_3">
      <!-- 2023-01 -->
      <g transform="translate(164.474733 260.638438) scale(0.1 -0.1)">
       <defs>
        <path id="DejaVuSans-33" d="M 2597 2516 
Q 3050 2419 3304 2112 
Q 3559 1806 3559 1356 
Q 3559 666 3084 287 
Q 2609 -91 1734 -91 
Q 1441 -91 1130 -33 
Q 819 25 488 141 
L 488 750 
Q 750 597 1062 519 
Q 1375 441 1716 441 
Q 2309 441 2620 675 
Q 2931 909 2931 1356 
Q 2931 1769 2642 2001 
Q 2353 2234 1838 2234 
L 1294 2234 
L 1294 2753 
L 1863 2753 
Q 2328 2753 2575 2939 
Q 2822 3125 2822 3475 
Q 2822 3834 2567 4026 
Q 2313 4219 1838 4219 
Q 1578 4219 1281 4162 
Q 984 4106 628 3988 
L 628 4550 
Q 988 4650 1302 4700 
Q 1616 4750 1894 4750 
Q 2613 4750 3031 4423 
Q 3450 4097 3450 3541 
Q 3450 3153 3228 2886 
Q 3006 2619 2597 2516 
z
" transform="scale(0.015625)"/>
        <path id="DejaVuSans-31" d="M 794 531 
L 1825 531 
L 1825 4091 
L 703 3866 
L 703 4441 
L 1819 4666 
L 2450 4666 
L 2450 531 
L 3481 531 
L 3481 0 
L 794 0 
L 794 531 
z
" transform="scale(0.015625)"/>
       </defs>
       <use xlink:href="#DejaVuSans-32"/>
       <use xlink:href="#DejaVuSans-30" transform="translate(63.623047 0)"/>
       <use xlink:href="#DejaVuSans-32" transform="translate(127.246094 0)"/>
       <use xlink:href="#DejaVuSans-33" transform="translate(190.869141 0)"/>
       <use xlink:href="#DejaVuSans-2d" transform="translate(254.492188 0)"/>
       <use xlink:href="#DejaVuSans-30" transform="translate(290.576172 0)"/>
       <use xlink:href="#DejaVuSans-31" transform="translate(354.199219 0)"/>
      </g>
     </g>
    </g>
    <g id="xtick_4">
     <g id="line2d_4">
      <g>
       <use xlink:href="#m56e9c03b62" x="235.630922" y="246.04" style="stroke: #000000; stroke-width: 0.8"/>
      </g>
     </g>
     <g id="text_4">
      <!-- 2023-05 -->
      <g transform="translate(214.739516 260.638438) scale(0.1 -0.1)">
       <use xlink:href="#DejaVuSans-32"/>
       <use xlink:href="#DejaVuSans-30" transform="translate(63.623047 0)"/>
       <use xlink:href="#DejaVuSans-32" transform="translate(127.246094 0)"/>
       <use xlink:href="#DejaVuSans-33" transform="translate(190.869141 0)"/>
       <use xlink:href="#DejaVuSans-2d" transform="translate(254.492188 0)"/>
       <use xlink:href="#DejaVuSans-30" transform="translate(290.576172 0)"/>
       <use xlink:href="#DejaVuSans-35" transform="translate(354.199219 0)"/>
      </g>
     </g>
    </g>
    <g id="xtick_5">
     <g id="line2d_5">
      <g>
       <use xlink:href="#m56e9c03b62" x="287.152324" y="246.04" style="stroke: #000000; stroke-width: 0.8"/>
      </g>
     </g>
     <g id="text_5">
      <!-- 2023-09 -->
      <g transform="translate(266.260918 260.638438) scale(0.1 -0.1)">
       <use xlink:href="#DejaVuSans-32"/>
       <use xlink:href="#DejaVuSans-30" transform="translate(63.623047 0)"/>
       <use xlink:href="#DejaVuSans-32" transform="translate(127.246094 0)"/>
       <use xlink:href="#DejaVuSans-33" transform="translate(190.869141 0)"/>
       <use xlink:href="#DejaVuSans-2d" transform="translate(254.492188 0)"/>
       <use xlink:href="#DejaVuSans-30" transform="translate(290.576172 0)"/>
       <use xlink:href="#DejaVuSans-39" transform="translate(354.199219 0)"/>
      </g>
     </g>
    </g>
    <g id="xtick_6">
     <g id="line2d_6">
      <g>
       <use xlink:href="#m56e9c03b62" x="338.254853" y="246.04" style="stroke: #000000; stroke-width: 0.8"/>
      </g>
     </g>
     <g id="text_6">
      <!-- 2024-01 -->
      <g transform="translate(317.363447 260.638438) scale(0.1 -0.1)">
       <defs>
        <path id="DejaVuSans-34" d="M 2419 4116 
L 825 1625 
L 2419 1625 
L 2419 4116 
z
M 2253 4666 
L 3047 4666 
L 3047 1625 
L 3713 1625 
L 3713 1100 
L 3047 1100 
L 3047 0 
L 2419 0 
L 2419 1100 
L 313 1100 
L 313 1709 
L 2253 4666 
z
" transform="scale(0.015625)"/>
       </defs>
       <use xlink:href="#DejaVuSans-32"/>
       <use xlink:href="#DejaVuSans-30" transform="translate(63.623047 0)"/>
       <use xlink:href="#DejaVuSans-32" transform="translate(127.246094 0)"/>
       <use xlink:href="#DejaVuSans-34" transform="translate(190.869141 0)"/>
       <use xlink:href="#DejaVuSans-2d" transform="translate(254.492188 0)"/>
       <use xlink:href="#DejaVuSans-30" transform="translate(290.576172 0)"/>
       <use xlink:href="#DejaVuSans-31" transform="translate(354.199219 0)"/>
      </g>
     </g>
    </g>
    <g id="xtick_7">
     <g id="line2d_7">
      <g>
       <use xlink:href="#m56e9c03b62" x="388.938509" y="246.04" style="stroke: #000000; stroke-width: 0.8"/>
      </g>
     </g>
     <g id="text_7">
      <!-- 2024-05 -->
      <g transform="translate(368.047103 260.638438) scale(0.1 -0.1)">
       <use xlink:href="#DejaVuSans-32"/>
       <use xlink:href="#DejaVuSans-30" transform="translate(63.623047 0)"/>
       <use xlink:href="#DejaVuSans-32" transform="translate(127.246094 0)"/>
       <use xlink:href="#DejaVuSans-34" transform="translate(190.869141 0)"/>
       <use xlink:href="#DejaVuSans-2d" transform="translate(254.492188 0)"/>
       <use xlink:href="#DejaVuSans-30" transform="translate(290.576172 0)"/>
       <use xlink:href="#DejaVuSans-35" transform="translate(354.199219 0)"/>
      </g>
     </g>
    </g>
    <g id="xtick_8">
     <g id="line2d_8">
      <g>
       <use xlink:href="#m56e9c03b62" x="440.459911" y="246.04" style="stroke: #000000; stroke-width: 0.8"/>
      </g>
     </g>
     <g id="text_8">
      <!-- 2024-09 -->
      <g transform="translate(419.568505 260.638438) scale(0.1 -0.1)">
       <use xlink:href="#DejaVuSans-32"/>
       <use xlink:href="#DejaVuSans-30" transform="translate(63.623047 0)"/>
       <use xlink:href="#DejaVuSans-32" transform="translate(127.246094 0)"/>
       <use xlink:href="#DejaVuSans-34" transform="translate(190.869141 0)"/>
       <use xlink:href="#DejaVuSans-2d" transform="translate(254.492188 0)"/>
       <use xlink:href="#DejaVuSans-30" transform="translate(290.576172 0)"/>
       <use xlink:href="#DejaVuSans-39" transform="translate(354.199219 0)"/>
      </g>
     </g>
    </g>
    <g id="xtick_9">
     <g id="line2d_9">
      <g>
       <use xlink:href="#m56e9c03b62" x="491.56244" y="246.04" style="stroke: #000000; stroke-width: 0.8"/>
      </g>
     </g>
     <g id="text_9">
      <!-- 2025-01 -->
      <g transform="translate(470.671034 260.638438) scale(0.1 -0.1)">
       <use xlink:href="#DejaVuSans-32"/>
       <use xlink:href="#DejaVuSans-30" transform="translate(63.623047 0)"/>
       <use xlink:href="#DejaVuSans-32" transform="translate(127.246094 0)"/>
       <use xlink:href="#DejaVuSans-35" transform="translate(190.869141 0)"/>
       <use xlink:href="#DejaVuSans-2d" transform="translate(254.492188 0)"/>
       <use xlink:href="#DejaVuSans-30" transform="translate(290.576172 0)"/>
       <use xlink:href="#DejaVuSans-31" transform="translate(354.199219 0)"/>
      </g>
     </g>
    </g>
    <g id="xtick_10">
     <g id="line2d_10">
      <g>
       <use xlink:href="#m56e9c03b62" x="541.827223" y="246.04" style="stroke: #000000; stroke-width: 0.8"/>
      </g>
     </g>
     <g id="text_10">
      <!-- 2025-05 -->
      <g transform="translate(520.935816 260.638438) scale(0.1 -0.1)">
       <use xlink:href="#DejaVuSans-32"/>
       <use xlink:href="#DejaVuSans-30" transform="translate(63.623047 0)"/>
       <use xlink:href="#DejaVuSans-32" transform="translate(127.246094 0)"/>
       <use xlink:href="#DejaVuSans-35" transform="translate(190.869141 0)"/>
       <use xlink:href="#DejaVuSans-2d" transform="translate(254.492188 0)"/>
       <use xlink:href="#DejaVuSans-30" transform="translate(290.576172 0)"/>
       <use xlink:href="#DejaVuSans-35" transform="translate(354.199219 0)"/>
      </g>
     </g>
    </g>
    <g id="text_11">
     <!-- Date -->
     <g transform="translate(298.867878 274.316562) scale(0.1 -0.1)">
      <defs>
       <path id="DejaVuSans-44" d="M 1259 4147 
L 1259 519 
L 2022 519 
Q 2988 519 3436 956 
Q 3884 1394 3884 2338 
Q 3884 3275 3436 3711 
Q 2988 4147 2022 4147 
L 1259 4147 
z
M 628 4666 
L 1925 4666 
Q 3281 4666 3915 4102 
Q 4550 3538 4550 2338 
Q 4550 1131 3912 565 
Q 3275 0 1925 0 
L 628 0 
L 628 4666 
z
" transform="scale(0.015625)"/>
       <path id="DejaVuSans-61" d="M 2194 1759 
Q 1497 1759 1228 1600 
Q 959 1441 959 1056 
Q 959 750 1161 570 
Q 1363 391 1709 391 
Q 2188 391 2477 730 
Q 2766 1069 2766 1631 
L 2766 1759 
L 2194 1759 
z
M 3341 1997 
L 3341 0 
L 2766 0 
L 2766 531 
Q 2569 213 2275 61 
Q 1981 -91 1556 -91 
Q 1019 -91 701 211 
Q 384 513 384 1019 
Q 384 1609 779 1909 
Q 1175 2209 1959 2209 
L 2766 2209 
L 2766 2266 
Q 2766 2663 2505 2880 
Q 2244 3097 1772 3097 
Q 1472 3097 1187 3025 
Q 903 2953 641 2809 
L 641 3341 
Q 956 3463 1253 3523 
Q 1550 3584 1831 3584 
Q 2591 3584 2966 3190 
Q 3341 2797 3341 1997 
z
" transform="scale(0.015625)"/>
       <path id="DejaVuSans-74" d="M 1172 4494 
L 1172 3500 
L 2356 3500 
L 2356 3053 
L 1172 3053 
L 1172 1153 
Q 1172 725 1289 603 
Q 1406 481 1766 481 
L 2356 481 
L 2356 0 
L 1766 0 
Q 1100 0 847 248 
Q 594 497 594 1153 
L 594 3053 
L 172 3053 
L 172 3500 
L 594 3500 
L 594 4494 
L 1172 4494 
z
" transform="scale(0.015625)"/>
       <path id="DejaVuSans-65" d="M 3597 1894 
L 3597 1613 
L 953 1613 
Q 991 1019 1311 708 
Q 1631 397 2203 397 
Q 2534 397 2845 478 
Q 3156 559 3463 722 
L 3463 178 
Q 3153 47 2828 -22 
Q 2503 -91 2169 -91 
Q 1331 -91 842 396 
Q 353 884 353 1716 
Q 353 2575 817 3079 
Q 1281 3584 2069 3584 
Q 2775 3584 3186 3129 
Q 3597 2675 3597 1894 
z
M 3022 2063 
Q 3016 2534 2758 2815 
Q 2500 3097 2075 3097 
Q 1594 3097 1305 2825 
Q 1016 2553 972 2059 
L 3022 2063 
z
" transform="scale(0.015625)"/>
      </defs>
      <use xlink:href="#DejaVuSans-44"/>
      <use xlink:href="#DejaVuSans-61" transform="translate(77.001953 0)"/>
      <use xlink:href="#DejaVuSans-74" transform="translate(138.28125 0)"/>
      <use xlink:href="#DejaVuSans-65" transform="translate(177.490234 0)"/>
     </g>
    </g>
   </g>
   <g id="matplotlib.axis_2">
    <g id="ytick_1">
     <g id="line2d_11">
      <defs>
       <path id="m92ead24667" d="M 0 0 
L -3.5 0 
" style="stroke: #000000; stroke-width: 0.8"/>
      </defs>
      <g>
       <use xlink:href="#m92ead24667" x="57.17" y="230.00472" style="stroke: #000000; stroke-width: 0.8"/>
      </g>
     </g>
     <g id="text_12">
      <!-- 3200 -->
      <g transform="translate(24.72 233.803939) scale(0.1 -0.1)">
       <use xlink:href="#DejaVuSans-33"/>
       <use xlink:href="#DejaVuSans-32" transform="translate(63.623047 0)"/>
       <use xlink:href="#DejaVuSans-30" transform="translate(127.246094 0)"/>
       <use xlink:href="#DejaVuSans-30" transform="translate(190.869141 0)"/>
      </g>
     </g>
    </g>
    <g id="ytick_2">
     <g id="line2d_12">
      <g>
       <use xlink:href="#m92ead24667" x="57.17" y="200.196321" style="stroke: #000000; stroke-width: 0.8"/>
      </g>
     </g>
     <g id="text_13">
      <!-- 3400 -->
      <g transform="translate(24.72 203.995539) scale(0.1 -0.1)">
       <use xlink:href="#DejaVuSans-33"/>
       <use xlink:href="#DejaVuSans-34" transform="translate(63.623047 0)"/>
       <use xlink:href="#DejaVuSans-30" transform="translate(127.246094 0)"/>
       <use xlink:href="#DejaVuSans-30" transform="translate(190.869141 0)"/>
      </g>
     </g>
    </g>
    <g id="ytick_3">
     <g id="line2d_13">
      <g>
       <use xlink:href="#m92ead24667" x="57.17" y="170.387921" style="stroke: #000000; stroke-width: 0.8"/>
      </g>
     </g>
     <g id="text_14">
      <!-- 3600 -->
      <g transform="translate(24.72 174.187139) scale(0.1 -0.1)">
       <defs>
        <path id="DejaVuSans-36" d="M 2113 2584 
Q 1688 2584 1439 2293 
Q 1191 2003 1191 1497 
Q 1191 994 1439 701 
Q 1688 409 2113 409 
Q 2538 409 2786 701 
Q 3034 994 3034 1497 
Q 3034 2003 2786 2293 
Q 2538 2584 2113 2584 
z
M 3366 4563 
L 3366 3988 
Q 3128 4100 2886 4159 
Q 2644 4219 2406 4219 
Q 1781 4219 1451 3797 
Q 1122 3375 1075 2522 
Q 1259 2794 1537 2939 
Q 1816 3084 2150 3084 
Q 2853 3084 3261 2657 
Q 3669 2231 3669 1497 
Q 3669 778 3244 343 
Q 2819 -91 2113 -91 
Q 1303 -91 875 529 
Q 447 1150 447 2328 
Q 447 3434 972 4092 
Q 1497 4750 2381 4750 
Q 2619 4750 2861 4703 
Q 3103 4656 3366 4563 
z
" transform="scale(0.015625)"/>
       </defs>
       <use xlink:href="#DejaVuSans-33"/>
       <use xlink:href="#DejaVuSans-36" transform="translate(63.623047 0)"/>
       <use xlink:href="#DejaVuSans-30" transform="translate(127.246094 0)"/>
       <use xlink:href="#DejaVuSans-30" transform="translate(190.869141 0)"/>
      </g>
     </g>
    </g>
    <g id="ytick_4">
     <g id="line2d_14">
      <g>
       <use xlink:href="#m92ead24667" x="57.17" y="140.579521" style="stroke: #000000; stroke-width: 0.8"/>
      </g>
     </g>
     <g id="text_15">
      <!-- 3800 -->
      <g transform="translate(24.72 144.37874) scale(0.1 -0.1)">
       <defs>
        <path id="DejaVuSans-38" d="M 2034 2216 
Q 1584 2216 1326 1975 
Q 1069 1734 1069 1313 
Q 1069 891 1326 650 
Q 1584 409 2034 409 
Q 2484 409 2743 651 
Q 3003 894 3003 1313 
Q 3003 1734 2745 1975 
Q 2488 2216 2034 2216 
z
M 1403 2484 
Q 997 2584 770 2862 
Q 544 3141 544 3541 
Q 544 4100 942 4425 
Q 1341 4750 2034 4750 
Q 2731 4750 3128 4425 
Q 3525 4100 3525 3541 
Q 3525 3141 3298 2862 
Q 3072 2584 2669 2484 
Q 3125 2378 3379 2068 
Q 3634 1759 3634 1313 
Q 3634 634 3220 271 
Q 2806 -91 2034 -91 
Q 1263 -91 848 271 
Q 434 634 434 1313 
Q 434 1759 690 2068 
Q 947 2378 1403 2484 
z
M 1172 3481 
Q 1172 3119 1398 2916 
Q 1625 2713 2034 2713 
Q 2441 2713 2670 2916 
Q 2900 3119 2900 3481 
Q 2900 3844 2670 4047 
Q 2441 4250 2034 4250 
Q 1625 4250 1398 4047 
Q 1172 3844 1172 3481 
z
" transform="scale(0.015625)"/>
       </defs>
       <use xlink:href="#DejaVuSans-33"/>
       <use xlink:href="#DejaVuSans-38" transform="translate(63.623047 0)"/>
       <use xlink:href="#DejaVuSans-30" transform="translate(127.246094 0)"/>
       <use xlink:href="#DejaVuSans-30" transform="translate(190.869141 0)"/>
      </g>
     </g>
    </g>
    <g id="ytick_5">
     <g id="line2d_15">
      <g>
       <use xlink:href="#m92ead24667" x="57.17" y="110.771121" style="stroke: #000000; stroke-width: 0.8"/>
      </g>
     </g>
     <g id="text_16">
      <!-- 4000 -->
      <g transform="translate(24.72 114.57034) scale(0.1 -0.1)">
       <use xlink:href="#DejaVuSans-34"/>
       <use xlink:href="#DejaVuSans-30" transform="translate(63.623047 0)"/>
       <use xlink:href="#DejaVuSans-30" transform="translate(127.246094 0)"/>
       <use xlink:href="#DejaVuSans-30" transform="translate(190.869141 0)"/>
      </g>
     </g>
    </g>
    <g id="ytick_6">
     <g id="line2d_16">
      <g>
       <use xlink:href="#m92ead24667" x="57.17" y="80.962721" style="stroke: #000000; stroke-width: 0.8"/>
      </g>
     </g>
     <g id="text_17">
      <!-- 4200 -->
      <g transform="translate(24.72 84.76194) scale(0.1 -0.1)">
       <use xlink:href="#DejaVuSans-34"/>
       <use xlink:href="#DejaVuSans-32" transform="translate(63.623047 0)"/>
       <use xlink:href="#DejaVuSans-30" transform="translate(127.246094 0)"/>
       <use xlink:href="#DejaVuSans-30" transform="translate(190.869141 0)"/>
      </g>
     </g>
    </g>
    <g id="ytick_7">
     <g id="line2d_17">
      <g>
       <use xlink:href="#m92ead24667" x="57.17" y="51.154321" style="stroke: #000000; stroke-width: 0.8"/>
      </g>
     </g>
     <g id="text_18">
      <!-- 4400 -->
      <g transform="translate(24.72 54.95354) scale(0.1 -0.1)">
       <use xlink:href="#DejaVuSans-34"/>
       <use xlink:href="#DejaVuSans-34" transform="translate(63.623047 0)"/>
       <use xlink:href="#DejaVuSans-30" transform="translate(127.246094 0)"/>
       <use xlink:href="#DejaVuSans-30" transform="translate(190.869141 0)"/>
      </g>
     </g>
    </g>
    <g id="text_19">
     <!-- Stock Price -->
     <g transform="translate(18.640313 164.085) rotate(-90) scale(0.1 -0.1)">
      <defs>
       <path id="DejaVuSans-53" d="M 3425 4513 
L 3425 3897 
Q 3066 4069 2747 4153 
Q 2428 4238 2131 4238 
Q 1616 4238 1336 4038 
Q 1056 3838 1056 3469 
Q 1056 3159 1242 3001 
Q 1428 2844 1947 2747 
L 2328 2669 
Q 3034 2534 3370 2195 
Q 3706 1856 3706 1288 
Q 3706 609 3251 259 
Q 2797 -91 1919 -91 
Q 1588 -91 1214 -16 
Q 841 59 441 206 
L 441 856 
Q 825 641 1194 531 
Q 1563 422 1919 422 
Q 2459 422 2753 634 
Q 3047 847 3047 1241 
Q 3047 1584 2836 1778 
Q 2625 1972 2144 2069 
L 1759 2144 
Q 1053 2284 737 2584 
Q 422 2884 422 3419 
Q 422 4038 858 4394 
Q 1294 4750 2059 4750 
Q 2388 4750 2728 4690 
Q 3069 4631 3425 4513 
z
" transform="scale(0.015625)"/>
       <path id="DejaVuSans-6f" d="M 1959 3097 
Q 1497 3097 1228 2736 
Q 959 2375 959 1747 
Q 959 1119 1226 758 
Q 1494 397 1959 397 
Q 2419 397 2687 759 
Q 2956 1122 2956 1747 
Q 2956 2369 2687 2733 
Q 2419 3097 1959 3097 
z
M 1959 3584 
Q 2709 3584 3137 3096 
Q 3566 2609 3566 1747 
Q 3566 888 3137 398 
Q 2709 -91 1959 -91 
Q 1206 -91 779 398 
Q 353 888 353 1747 
Q 353 2609 779 3096 
Q 1206 3584 1959 3584 
z
" transform="scale(0.015625)"/>
       <path id="DejaVuSans-63" d="M 3122 3366 
L 3122 2828 
Q 2878 2963 2633 3030 
Q 2388 3097 2138 3097 
Q 1578 3097 1268 2742 
Q 959 2388 959 1747 
Q 959 1106 1268 751 
Q 1578 397 2138 397 
Q 2388 397 2633 464 
Q 2878 531 3122 666 
L 3122 134 
Q 2881 22 2623 -34 
Q 2366 -91 2075 -91 
Q 1284 -91 818 406 
Q 353 903 353 1747 
Q 353 2603 823 3093 
Q 1294 3584 2113 3584 
Q 2378 3584 2631 3529 
Q 2884 3475 3122 3366 
z
" transform="scale(0.015625)"/>
       <path id="DejaVuSans-6b" d="M 581 4863 
L 1159 4863 
L 1159 1991 
L 2875 3500 
L 3609 3500 
L 1753 1863 
L 3688 0 
L 2938 0 
L 1159 1709 
L 1159 0 
L 581 0 
L 581 4863 
z
" transform="scale(0.015625)"/>
       <path id="DejaVuSans-20" transform="scale(0.015625)"/>
       <path id="DejaVuSans-50" d="M 1259 4147 
L 1259 2394 
L 2053 2394 
Q 2494 2394 2734 2622 
Q 2975 2850 2975 3272 
Q 2975 3691 2734 3919 
Q 2494 4147 2053 4147 
L 1259 4147 
z
M 628 4666 
L 2053 4666 
Q 2838 4666 3239 4311 
Q 3641 3956 3641 3272 
Q 3641 2581 3239 2228 
Q 2838 1875 2053 1875 
L 1259 1875 
L 1259 0 
L 628 0 
L 628 4666 
z
" transform="scale(0.015625)"/>
       <path id="DejaVuSans-72" d="M 2631 2963 
Q 2534 3019 2420 3045 
Q 2306 3072 2169 3072 
Q 1681 3072 1420 2755 
Q 1159 2438 1159 1844 
L 1159 0 
L 581 0 
L 581 3500 
L 1159 3500 
L 1159 2956 
Q 1341 3275 1631 3429 
Q 1922 3584 2338 3584 
Q 2397 3584 2469 3576 
Q 2541 3569 2628 3553 
L 2631 2963 
z
" transform="scale(0.015625)"/>
       <path id="DejaVuSans-69" d="M 603 3500 
L 1178 3500 
L 1178 0 
L 603 0 
L 603 3500 
z
M 603 4863 
L 1178 4863 
L 1178 4134 
L 603 4134 
L 603 4863 
z
" transform="scale(0.015625)"/>
      </defs>
      <use xlink:href="#DejaVuSans-53"/>
      <use xlink:href="#DejaVuSans-74" transform="translate(63.476562 0)"/>
      <use xlink:href="#DejaVuSans-6f" transform="translate(102.685547 0)"/>
      <use xlink:href="#DejaVuSans-63" transform="translate(163.867188 0)"/>
      <use xlink:href="#DejaVuSans-6b" transform="translate(218.847656 0)"/>
      <use xlink:href="#DejaVuSans-20" transform="translate(276.757812 0)"/>
      <use xlink:href="#DejaVuSans-50" transform="translate(308.544922 0)"/>
      <use xlink:href="#DejaVuSans-72" transform="translate(367.097656 0)"/>
      <use xlink:href="#DejaVuSans-69" transform="translate(408.210938 0)"/>
      <use xlink:href="#DejaVuSans-63" transform="translate(435.994141 0)"/>
      <use xlink:href="#DejaVuSans-65" transform="translate(490.974609 0)"/>
     </g>
    </g>
   </g>
   <g id="line2d_18">
    <path d="M 80.228969 138.357305 
L 80.647842 142.946308 
L 81.066715 126.340048 
L 81.485589 122.529044 
L 81.904462 108.350679 
L 84.417701 109.249402 
L 84.836574 124.360771 
L 86.093194 129.037708 
L 86.512067 122.713856 
L 86.93094 114.285531 
L 87.349813 116.920594 
L 87.768686 112.4702 
L 89.025306 117.248486 
L 89.444179 109.893264 
L 89.863052 111.976871 
L 90.281926 110.830738 
L 90.700799 99.205462 
L 91.957418 102.725834 
L 92.376291 116.859487 
L 92.795165 113.278007 
L 93.632911 110.577366 
L 94.889531 106.445922 
L 95.308404 97.130797 
L 95.727277 98.373808 
L 96.14615 97.421429 
L 97.821643 86.016735 
L 98.240516 84.073228 
L 98.659389 78.010199 
L 99.078263 84.588913 
L 99.497136 75.151574 
L 100.753755 82.550018 
L 101.172628 77.637594 
L 101.591502 69.304656 
L 102.010375 73.501679 
L 102.429248 64.711182 
L 103.685868 61.523173 
L 104.104741 62.247517 
L 104.523614 70.437375 
L 104.942487 59.518558 
L 105.36136 51.933811 
L 106.61798 44.557722 
L 107.036853 37.66304 
L 107.455726 47.970784 
L 107.874599 38.484261 
L 108.293473 41.210239 
L 109.550092 36.841818 
L 109.968965 37.809101 
L 110.387839 47.581785 
L 110.806712 44.675466 
L 111.225585 46.864893 
L 112.482205 57.917847 
L 112.901078 64.028569 
L 113.319951 62.86008 
L 113.738824 62.769164 
L 114.157697 73.729713 
L 115.414317 67.162922 
L 115.83319 70.628149 
L 116.252063 68.473002 
L 116.670936 75.588267 
L 117.08981 75.264846 
L 118.346429 79.07883 
L 118.765302 74.10977 
L 119.184176 77.23071 
L 119.603049 77.136813 
L 120.021922 85.419077 
L 121.278541 82.649877 
L 121.697415 94.820646 
L 122.116288 100.788288 
L 122.535161 95.637396 
L 122.954034 87.384941 
L 124.210654 88.702472 
L 124.629527 87.477347 
L 125.0484 94.415252 
L 125.467273 81.925533 
L 125.886147 82.281743 
L 127.142766 83.097003 
L 127.561639 84.265492 
L 127.980513 78.434969 
L 128.818259 88.255346 
L 130.074878 83.734902 
L 130.493752 86.763436 
L 130.912625 98.487079 
L 131.331498 93.446479 
L 131.750371 94.741654 
L 133.006991 97.428881 
L 133.425864 99.475228 
L 133.844737 99.02065 
L 134.26361 104.252024 
L 134.682484 107.252239 
L 135.939103 108.471403 
L 136.357976 102.979205 
L 136.776849 102.576792 
L 137.195723 105.155218 
L 137.614596 96.792472 
L 139.290089 94.211064 
L 140.127835 106.729102 
L 140.546708 120.804628 
L 141.803328 121.502145 
L 142.222201 120.780782 
L 143.059947 130.244949 
L 143.47882 132.230188 
L 144.73544 135.11266 
L 145.154313 126.822944 
L 145.573186 136.300525 
L 145.99206 136.534521 
L 146.410933 139.850705 
L 150.599665 152.362781 
L 151.018538 151.356748 
L 151.437411 142.91799 
L 151.856284 147.633679 
L 152.275157 134.249707 
L 153.531777 133.662482 
L 153.95065 134.875684 
L 154.369523 144.077537 
L 154.788397 147.296844 
L 155.20727 149.091309 
L 156.463889 165.414389 
L 156.882763 166.296718 
L 157.301636 161.907431 
L 157.720509 165.746753 
L 158.139382 179.132215 
L 159.396002 183.995455 
L 159.814875 165.295156 
L 160.233748 158.790963 
L 160.652621 163.248809 
L 161.071494 145.47257 
L 162.328114 144.260858 
L 162.746987 148.131479 
L 163.584734 157.616512 
L 164.003607 142.302446 
L 165.260226 141.470792 
L 165.679099 130.74722 
L 166.097973 135.453967 
L 166.935719 140.345525 
L 168.192339 145.180447 
L 168.611212 145.114869 
L 169.030085 144.524663 
L 169.448958 147.016645 
L 169.867831 144.189318 
L 171.124451 150.529565 
L 171.543324 133.362907 
L 171.962197 132.674333 
L 172.38107 126.454811 
L 172.799944 130.004991 
L 174.475436 115.510657 
L 174.89431 116.965307 
L 175.313183 116.855015 
L 175.732056 111.033435 
L 176.988676 117.710517 
L 177.407549 118.867082 
L 177.826422 117.494406 
L 178.245295 117.926627 
L 178.664168 117.592773 
L 179.920788 126.685826 
L 180.339661 136.254322 
L 180.758534 136.027778 
L 181.177407 135.209538 
L 181.596281 136.373556 
L 182.8529 134.097684 
L 183.271773 127.486181 
L 184.10952 132.12884 
L 184.528393 129.903642 
L 186.622759 126.726067 
L 187.041632 115.454021 
L 187.460505 113.619314 
L 188.717125 108.81569 
L 189.135998 108.167357 
L 189.554871 109.27623 
L 189.973744 108.10774 
L 190.392618 99.685377 
L 191.649237 90.209287 
L 192.06811 90.316597 
L 192.486984 91.349458 
L 193.32473 83.715527 
L 197.513462 80.761514 
L 197.932335 87.392393 
L 198.351208 81.569322 
L 198.770081 83.772163 
L 199.188955 89.662303 
L 200.445574 97.822352 
L 200.864447 96.726893 
L 201.28332 99.423063 
L 201.702194 91.267485 
L 202.121067 94.926466 
L 203.377686 89.373161 
L 203.79656 89.116809 
L 204.215433 92.336116 
L 204.634306 96.837185 
L 205.053179 105.627682 
L 206.309799 90.875505 
L 206.728672 89.256908 
L 207.147545 94.831079 
L 207.566418 95.322918 
L 207.985292 101.672107 
L 209.241911 104.23712 
L 209.660784 100.418664 
L 210.079657 91.85173 
L 210.498531 93.222916 
L 210.917404 91.313688 
L 212.174023 94.524053 
L 212.592897 103.490419 
L 213.430643 107.812637 
L 213.849516 115.668641 
L 215.106136 109.475946 
L 215.525009 113.051464 
L 215.943882 112.723571 
L 216.362755 119.840327 
L 216.781628 116.908671 
L 218.038248 119.85076 
L 218.457121 113.397241 
L 218.875994 110.854585 
L 219.294868 104.945069 
L 219.713741 106.739535 
L 220.97036 108.911077 
L 221.389234 110.844152 
L 221.808107 109.856003 
L 222.22698 105.028533 
L 224.321346 95.4034 
L 225.159092 96.367702 
L 225.577965 92.397223 
L 227.253458 95.844565 
L 227.672331 96.270825 
L 228.091205 100.490204 
L 228.510078 97.059257 
L 229.766697 88.507227 
L 230.18557 86.621846 
L 230.604444 92.20645 
L 231.023317 93.926394 
L 231.44219 105.916823 
L 233.117683 116.334859 
L 233.536556 116.847563 
L 233.955429 112.497027 
L 234.374302 106.435489 
L 236.887542 106.262601 
L 237.306415 108.255292 
L 238.563034 101.432149 
L 239.400781 111.237622 
L 239.819654 112.163173 
L 240.238527 120.047495 
L 241.495147 110.936558 
L 242.332893 116.707464 
L 242.751766 117.318536 
L 243.170639 119.03699 
L 244.427259 115.342239 
L 245.265005 131.772629 
L 245.683878 133.0529 
L 246.102752 132.985831 
L 247.359371 135.521035 
L 247.778244 134.953185 
L 248.197118 140.797122 
L 248.615991 139.555602 
L 249.034864 131.364254 
L 250.291484 133.984412 
L 250.710357 139.363338 
L 251.12923 142.168309 
L 251.548103 137.570363 
L 251.966976 135.109679 
L 253.223596 133.957585 
L 253.642469 130.905205 
L 254.061342 131.037852 
L 254.480215 121.87475 
L 254.899089 116.23351 
L 256.155708 121.068433 
L 256.574581 122.062543 
L 256.993455 131.036362 
L 259.087821 139.133813 
L 259.506694 133.808543 
L 259.925567 134.498607 
L 260.34444 137.324444 
L 260.763313 134.252688 
L 262.019933 126.7365 
L 262.438806 125.822873 
L 263.276552 134.207975 
L 263.695426 136.749141 
L 264.952045 133.972489 
L 265.370918 130.222592 
L 265.789792 134.105136 
L 266.208665 125.910807 
L 266.627538 125.809459 
L 268.303031 132.391153 
L 268.721904 132.997754 
L 269.140777 137.048716 
L 269.55965 137.314011 
L 270.81627 139.801522 
L 271.235143 123.421806 
L 271.654016 124.630537 
L 272.072889 125.325072 
L 272.491763 111.853166 
L 273.748382 108.590637 
L 274.167255 111.069205 
L 274.586128 115.257285 
L 275.005002 110.028892 
L 275.423875 107.703837 
L 277.518241 115.604553 
L 277.937114 114.389861 
L 278.355987 128.022732 
L 280.03148 133.643106 
L 280.450353 137.847581 
L 280.869226 135.944315 
L 281.288099 142.964193 
L 282.544719 151.078039 
L 282.963592 146.805005 
L 283.382465 155.985992 
L 283.801339 151.991667 
L 284.220212 154.119986 
L 285.476831 147.641131 
L 285.895705 142.053546 
L 286.314578 142.292013 
L 286.733451 145.755749 
L 287.152324 141.847868 
L 288.408944 133.283915 
L 288.827817 137.550987 
L 289.24669 138.786546 
L 289.665563 146.769235 
L 290.084436 149.523531 
L 291.341056 145.417424 
L 291.759929 146.451776 
L 292.178802 150.021332 
L 292.597676 150.489323 
L 293.016549 154.175132 
L 294.273168 151.353767 
L 294.692042 152.42836 
L 295.110915 154.635672 
L 295.529788 159.591318 
L 295.948661 149.681516 
L 297.205281 153.307708 
L 297.624154 156.543409 
L 298.043027 155.4092 
L 298.4619 157.045681 
L 303.069505 157.759592 
L 303.488378 161.873151 
L 303.907252 160.320134 
L 304.326125 155.129001 
L 304.744998 160.937168 
L 306.001618 166.423404 
L 306.420491 164.515666 
L 306.839364 168.811056 
L 307.258237 180.293252 
L 307.67711 183.713766 
L 308.93373 189.131443 
L 309.352603 187.210291 
L 309.771476 184.627393 
L 310.190349 183.184667 
L 310.609223 175.99339 
L 311.865842 172.806872 
L 312.284715 174.485085 
L 312.703589 174.705667 
L 313.122462 177.215535 
L 313.541335 172.751727 
L 314.797955 165.527661 
L 315.216828 167.442851 
L 315.635701 168.738026 
L 316.054574 168.475712 
L 316.473447 172.401478 
L 317.730067 173.456695 
L 318.14894 173.061734 
L 318.567813 169.307366 
L 318.986686 174.507442 
L 319.40556 175.146832 
L 320.662179 173.917235 
L 321.081052 173.209286 
L 321.499926 178.671675 
L 321.918799 176.123057 
L 322.337672 179.627034 
L 323.594292 183.512559 
L 324.013165 182.531863 
L 324.432038 187.034422 
L 324.850911 185.85848 
L 325.269784 187.84372 
L 326.526404 191.232935 
L 326.945277 201.051822 
L 327.36415 200.255937 
L 327.783023 201.495967 
L 328.201897 200.276803 
L 329.877389 196.201995 
L 330.296263 204.725707 
L 330.715136 207.356298 
L 331.134009 208.907825 
L 332.390628 210.723157 
L 332.809502 210.027131 
L 333.228375 215.473125 
L 333.647248 210.499594 
L 334.066121 209.551687 
L 335.322741 208.028478 
L 335.741614 211.405769 
L 336.160487 209.681353 
L 336.57936 198.02925 
L 336.998234 195.559624 
L 338.673726 202.230744 
L 339.092599 203.430532 
L 339.511473 208.088094 
L 339.930346 210.761908 
L 341.186965 217.178166 
L 341.605839 216.218335 
L 342.024712 218.509111 
L 342.443585 215.745872 
L 342.862458 217.459855 
L 344.119078 217.944242 
L 344.537951 214.969363 
L 344.956824 225.670579 
L 345.375697 218.866812 
L 345.794571 219.60457 
L 347.05119 227.187827 
L 347.470063 225.245809 
L 347.888936 218.512092 
L 348.30781 208.703638 
L 348.726683 210.05992 
L 349.983302 214.510314 
L 350.402176 223.291869 
L 350.821049 227.716926 
L 351.239922 227.365187 
L 351.658795 233.040706 
L 352.915415 229.942123 
L 353.334288 213.358219 
L 353.753161 208.597818 
L 354.172034 205.423223 
L 358.779639 199.628471 
L 359.198513 198.579215 
L 359.617386 191.720302 
L 360.036259 187.27885 
L 360.455132 186.821292 
L 361.711752 192.243439 
L 362.130625 186.068629 
L 362.549498 192.70547 
L 362.968371 182.895525 
L 363.387244 179.658333 
L 364.643864 179.200774 
L 365.062737 175.528379 
L 365.48161 177.683527 
L 365.900484 180.862592 
L 367.575976 171.988632 
L 367.99485 170.762016 
L 368.413723 174.507442 
L 368.832596 176.018727 
L 369.251469 174.860671 
L 370.508089 169.861802 
L 370.926962 173.72199 
L 371.345835 172.566915 
L 371.764708 173.206305 
L 372.183581 178.585231 
L 373.440201 181.452799 
L 373.859074 178.771533 
L 374.277947 184.876293 
L 376.372313 171.036253 
L 377.21006 175.187073 
L 379.304426 179.865501 
L 379.723299 180.300704 
L 380.142172 184.590133 
L 380.561045 184.660183 
L 380.979918 188.892975 
L 382.236538 177.977139 
L 382.655411 183.636264 
L 383.074284 175.544774 
L 383.493157 174.888989 
L 383.912031 179.083031 
L 385.16865 180.686723 
L 385.587523 184.365079 
L 386.006397 182.069833 
L 386.42527 180.779129 
L 386.844143 172.732351 
L 388.100763 166.824326 
L 388.519636 169.733626 
L 391.032875 161.76137 
L 391.451748 161.592952 
L 391.870621 165.883871 
L 392.289494 160.765769 
L 392.708368 160.509417 
L 393.964987 160.746394 
L 394.38386 161.885075 
L 394.802734 166.503886 
L 395.221607 164.372586 
L 395.64048 158.767116 
L 396.8971 156.83106 
L 397.315973 159.036882 
L 397.734846 157.801324 
L 398.572592 170.167339 
L 399.829212 165.065631 
L 400.248085 169.021206 
L 400.666958 168.372873 
L 401.504705 173.380684 
L 402.761324 172.064643 
L 403.180197 168.052433 
L 403.599071 171.16443 
L 404.017944 171.542996 
L 404.436817 174.246618 
L 406.11231 178.9012 
L 406.531183 178.716388 
L 406.950056 181.397653 
L 407.368929 179.102406 
L 408.625549 179.8968 
L 409.044422 178.497296 
L 409.463295 181.007163 
L 409.882168 184.803263 
L 410.301042 185.944925 
L 411.557661 188.748405 
L 411.976534 191.566789 
L 412.395407 188.23421 
L 412.814281 192.130168 
L 413.233154 191.006391 
L 414.489773 188.544217 
L 414.908647 189.496595 
L 415.32752 190.745567 
L 416.165266 195.567076 
L 417.421886 199.934007 
L 417.840759 194.262959 
L 418.259632 195.878574 
L 418.678505 190.036127 
L 419.097378 189.40568 
L 420.353998 188.831868 
L 420.772871 185.548473 
L 421.191744 185.056634 
L 422.029491 179.476502 
L 423.28611 183.068414 
L 423.704984 194.252526 
L 424.54273 200.305121 
L 424.961603 198.81172 
L 426.218223 201.576449 
L 426.637096 204.759987 
L 427.055969 193.924633 
L 427.474842 197.324281 
L 427.893715 202.522866 
L 429.150335 208.644021 
L 429.569208 208.694695 
L 429.988081 208.916768 
L 430.406955 208.700657 
L 430.825828 210.386322 
L 432.082447 211.246294 
L 432.501321 209.974966 
L 432.920194 213.723372 
L 433.339067 208.848209 
L 435.01456 206.609598 
L 435.433433 210.226847 
L 436.271179 213.142109 
L 436.690052 211.048068 
L 437.946672 211.490723 
L 438.784418 217.112587 
L 439.203292 218.427138 
L 439.622165 211.90655 
L 440.878784 220.3155 
L 441.297657 219.060566 
L 441.716531 222.23069 
L 442.135404 221.396054 
L 442.554277 225.332254 
L 443.810897 231.055466 
L 444.22977 230.636658 
L 444.648643 232.071933 
L 445.486389 236.078182 
L 447.580755 234.325448 
L 447.999628 230.594927 
L 448.418502 229.848226 
L 449.675121 228.102944 
L 450.093994 207.36375 
L 450.512868 199.968286 
L 451.350614 154.935246 
L 452.607234 108.110721 
L 455.958219 72.601465 
L 456.377092 117.33195 
L 456.795965 111.100504 
L 457.214839 127.58753 
L 458.471458 116.533085 
L 458.890331 132.234659 
L 459.309205 135.871284 
L 459.728078 142.335236 
L 460.146951 121.914991 
L 461.403571 120.429043 
L 461.822444 117.063674 
L 462.241317 114.763956 
L 462.66019 121.37844 
L 463.079063 117.266371 
L 464.335683 116.112786 
L 465.173429 127.247714 
L 465.592302 127.010737 
L 466.011176 127.16276 
L 467.267795 119.004201 
L 467.686668 104.128319 
L 468.105542 107.152381 
L 468.524415 89.055702 
L 468.943288 95.263301 
L 470.199907 91.227244 
L 470.618781 97.99226 
L 471.037654 94.243854 
L 471.8754 115.41676 
L 473.13202 118.166585 
L 473.550893 114.215482 
L 473.969766 112.891989 
L 474.388639 112.36587 
L 474.807513 130.787462 
L 476.064132 133.412091 
L 476.483005 134.591013 
L 476.901879 124.626065 
L 477.320752 129.766524 
L 477.739625 123.204205 
L 478.996244 118.576451 
L 479.415118 117.941532 
L 479.833991 121.120597 
L 480.252864 122.457504 
L 480.671737 114.774389 
L 481.928357 115.753595 
L 482.34723 111.420944 
L 482.766103 112.43592 
L 483.184976 106.523424 
L 483.60385 120.730107 
L 484.860469 123.910664 
L 485.279342 122.391926 
L 485.698215 119.431952 
L 486.117089 118.899872 
L 486.535962 121.540896 
L 487.792581 120.671981 
L 488.211455 113.201996 
L 489.049201 112.637127 
L 489.468074 113.598448 
L 490.724694 110.912711 
L 491.981313 137.539064 
L 492.400186 144.281724 
L 493.656806 145.204294 
L 494.075679 141.159294 
L 494.494552 142.186194 
L 494.913426 143.578246 
L 495.332299 150.642837 
L 496.588918 152.128785 
L 497.007792 137.518198 
L 497.426665 141.171218 
L 497.845538 140.522885 
L 498.264411 138.740343 
L 499.521031 136.155954 
L 499.939904 135.719261 
L 500.358777 141.023666 
L 500.77765 140.022104 
L 501.196523 135.682001 
L 502.453143 138.033884 
L 506.223002 141.312807 
L 507.060748 126.763328 
L 508.317368 125.517336 
L 508.736241 128.188169 
L 509.155114 122.715347 
L 509.573987 124.909245 
L 509.99286 119.861193 
L 511.24948 118.61073 
L 511.668353 123.770564 
L 512.087226 119.689794 
L 512.5061 121.368007 
L 512.924973 113.984467 
L 514.181592 115.284113 
L 514.600465 121.852394 
L 515.019339 116.741744 
L 515.438212 115.52258 
L 515.857085 127.158289 
L 517.113705 127.393775 
L 517.532578 127.878162 
L 517.951451 125.292283 
L 518.370324 117.293199 
L 518.789197 119.115983 
L 520.045817 121.382911 
L 520.46469 119.502001 
L 521.302436 123.949415 
L 521.72131 109.793406 
L 522.977929 111.249546 
L 523.396802 109.620517 
L 523.815676 109.255364 
L 524.234549 114.498661 
L 524.653422 123.484404 
L 525.910042 120.481207 
L 526.328915 120.861264 
L 526.747788 122.789868 
L 527.166661 120.84487 
L 527.585534 123.414354 
L 528.842154 127.566664 
L 529.261027 127.511518 
L 529.6799 128.001867 
L 530.098773 131.413438 
L 531.774266 171.961804 
L 532.193139 162.822549 
L 532.612013 157.452566 
L 533.030886 150.249366 
L 533.449759 147.954119 
L 535.125252 146.357879 
L 535.544125 144.630482 
L 535.962998 144.719908 
L 536.381871 144.675195 
L 537.638491 142.833036 
L 538.057364 142.971645 
L 538.476237 142.534952 
L 538.89511 142.910538 
L 539.313984 142.518557 
L 540.570603 143.318913 
L 540.989476 144.293647 
L 541.40835 144.965827 
L 541.40835 144.965827 
" clip-path="url(#p6654dff339)" style="fill: none; stroke: #0000ff; stroke-width: 1.5; stroke-linecap: square"/>
   </g>
   <g id="line2d_19">
    <path d="M 80.228969 118.075271 
L 80.647842 131.694638 
L 81.066715 138.554718 
L 81.485589 135.281616 
L 81.904462 133.369178 
L 84.417701 127.254489 
L 84.836574 125.341869 
L 86.093194 130.38408 
L 86.512067 133.815758 
L 86.93094 133.34931 
L 87.349813 130.884805 
L 87.768686 131.011141 
L 89.025306 129.598117 
L 89.444179 131.022894 
L 89.863052 129.126247 
L 90.281926 129.131487 
L 90.700799 129.282858 
L 91.957418 123.910068 
L 92.376291 122.906546 
L 92.795165 127.00702 
L 93.214038 127.451199 
L 93.632911 127.174619 
L 94.889531 126.945307 
L 95.308404 125.572636 
L 95.727277 122.081538 
L 96.14615 120.875448 
L 97.821643 119.84045 
L 98.240516 114.532248 
L 99.078263 107.751383 
L 99.497136 107.578617 
L 100.753755 101.24022 
L 101.172628 102.308148 
L 101.591502 101.599544 
L 102.010375 97.969447 
L 102.429248 99.129216 
L 103.685868 97.632901 
L 104.104741 95.897341 
L 104.523614 95.216172 
L 104.942487 96.824305 
L 105.36136 93.080607 
L 106.61798 88.693984 
L 107.455726 79.268824 
L 107.874599 80.581456 
L 108.293473 76.341255 
L 109.550092 75.426772 
L 109.968965 73.879951 
L 110.387839 73.817948 
L 110.806712 77.284047 
L 111.225585 77.643626 
L 112.482205 78.501709 
L 113.319951 86.333473 
L 113.738824 87.297516 
L 114.157697 87.456746 
L 115.414317 90.722934 
L 115.83319 89.911573 
L 116.252063 91.046489 
L 116.670936 89.844402 
L 117.08981 91.515884 
L 118.346429 91.6102 
L 118.765302 92.694029 
L 119.184176 91.480516 
L 119.603049 92.374623 
L 120.021922 92.536764 
L 121.278541 96.443149 
L 121.697415 96.563809 
L 122.116288 100.313838 
L 122.535161 102.542191 
L 122.954034 100.895306 
L 124.629527 95.929434 
L 125.0484 94.119316 
L 125.467273 96.478954 
L 125.886147 92.110233 
L 127.142766 90.537214 
L 127.561639 89.825189 
L 127.980513 90.092417 
L 128.399386 88.349906 
L 128.818259 90.268313 
L 130.074878 93.013509 
L 130.493752 93.008779 
L 130.912625 94.764534 
L 131.331498 100.459678 
L 131.750371 100.949923 
L 133.006991 101.767107 
L 133.844737 103.356464 
L 134.26361 102.987534 
L 134.682484 104.012416 
L 135.939103 105.021942 
L 136.357976 106.207438 
L 136.776849 105.099884 
L 137.195723 104.63813 
L 137.614596 106.176436 
L 139.290089 100.256892 
L 139.708962 97.809161 
L 140.127835 100.655077 
L 140.546708 105.188596 
L 141.803328 113.496523 
L 142.222201 117.696443 
L 142.641074 119.55401 
L 143.47882 126.921401 
L 144.73544 130.420031 
L 145.154313 134.010793 
L 145.573186 132.786764 
L 145.99206 137.242887 
L 146.410933 139.914909 
L 150.599665 142.759915 
L 151.018538 150.424444 
L 151.437411 153.861288 
L 151.856284 151.773681 
L 152.275157 152.850633 
L 153.531777 147.142645 
L 153.95065 144.61952 
L 154.369523 144.725479 
L 155.20727 151.867378 
L 156.463889 154.105373 
L 156.882763 161.186651 
L 157.301636 163.912817 
L 157.720509 162.529412 
L 158.139382 163.19075 
L 159.814875 171.556714 
L 160.233748 164.288515 
L 160.652621 159.485913 
L 161.071494 160.241348 
L 162.746987 151.62282 
L 163.16586 152.824871 
L 163.584734 153.161198 
L 164.003607 155.238689 
L 165.260226 148.788256 
L 165.679099 145.889215 
L 166.097973 139.736211 
L 166.516846 138.820345 
L 166.935719 140.474471 
L 168.192339 141.610734 
L 168.611212 144.256958 
L 169.030085 144.994563 
L 169.448958 145.26179 
L 169.867831 146.733034 
L 171.124451 146.569437 
L 171.543324 149.758012 
L 171.962197 143.662172 
L 172.38107 140.541787 
L 172.799944 134.458938 
L 174.056563 133.79458 
L 174.475436 127.937877 
L 174.89431 124.994225 
L 175.313183 124.9415 
L 175.732056 125.418245 
L 176.988676 123.107221 
L 177.407549 125.309884 
L 177.826422 126.588822 
L 178.245295 126.723818 
L 178.664168 127.14984 
L 179.920788 126.414418 
L 180.339661 129.957659 
L 180.758534 134.821573 
L 181.177407 135.50678 
L 181.596281 134.824047 
L 182.8529 134.50777 
L 183.271773 132.515752 
L 183.690647 128.764668 
L 184.10952 128.123125 
L 184.528393 129.318153 
L 186.203886 128.966071 
L 186.622759 127.120912 
L 187.041632 125.916459 
L 187.460505 120.428358 
L 188.717125 116.95651 
L 189.135998 113.227403 
L 189.554871 111.621199 
L 189.973744 110.826138 
L 191.649237 103.045316 
L 192.06811 95.725011 
L 192.486984 92.334597 
L 193.32473 89.565457 
L 197.513462 86.449766 
L 197.932335 82.82007 
L 198.351208 85.722168 
L 198.770081 85.136043 
L 199.188955 87.24752 
L 200.445574 92.303449 
L 200.864447 98.576967 
L 201.702194 103.278668 
L 202.121067 101.380238 
L 203.377686 104.851286 
L 203.79656 104.720729 
L 204.215433 105.390254 
L 205.053179 109.217205 
L 206.309799 114.82069 
L 206.728672 111.971426 
L 207.147545 110.886578 
L 207.566418 112.976004 
L 207.985292 114.008091 
L 209.241911 117.597652 
L 209.660784 120.005503 
L 210.079657 119.12224 
L 210.498531 117.294328 
L 210.917404 118.016542 
L 212.174023 117.852836 
L 212.592897 119.030835 
L 213.430643 125.082246 
L 213.849516 122.727666 
L 215.106136 125.170448 
L 215.525009 123.995033 
L 215.943882 125.272988 
L 216.362755 125.661494 
L 216.781628 128.655979 
L 218.038248 129.050635 
L 218.457121 130.433276 
L 218.875994 129.618493 
L 219.294868 129.393802 
L 219.713741 128.388788 
L 220.97036 129.588074 
L 221.808107 134.554927 
L 222.22698 135.484184 
L 222.645853 134.400682 
L 223.902473 133.630219 
L 224.321346 130.064018 
L 225.159092 127.297826 
L 225.577965 126.416419 
L 226.834585 124.242829 
L 227.253458 124.156337 
L 227.672331 123.385911 
L 228.091205 122.060034 
L 228.510078 122.646886 
L 229.766697 120.663856 
L 230.18557 116.147367 
L 230.604444 113.215941 
L 231.023317 113.883974 
L 232.69881 120.77975 
L 233.117683 125.815921 
L 233.536556 129.459008 
L 233.955429 131.477479 
L 236.887542 129.248435 
L 237.306415 127.389304 
L 238.563034 127.692955 
L 238.981907 125.104115 
L 239.400781 126.276438 
L 239.819654 129.312259 
L 240.238527 131.025004 
L 241.495147 134.479206 
L 241.91402 131.91358 
L 242.332893 132.058801 
L 243.170639 133.745603 
L 244.427259 135.2568 
L 244.846132 135.29679 
L 245.265005 139.137168 
L 245.683878 144.142738 
L 246.102752 147.334733 
L 247.359371 149.253612 
L 247.778244 151.200037 
L 248.197118 152.134388 
L 248.615991 152.693695 
L 249.034864 150.658995 
L 250.291484 145.942886 
L 250.710357 144.892642 
L 251.548103 147.939197 
L 251.966976 147.187656 
L 253.223596 145.284969 
L 253.642469 144.21453 
L 254.061342 142.666909 
L 254.480215 141.726955 
L 254.899089 137.866964 
L 256.155708 134.366187 
L 256.993455 136.665022 
L 259.087821 140.833977 
L 259.506694 145.662159 
L 259.925567 145.389509 
L 260.34444 145.545938 
L 260.763313 146.529047 
L 262.019933 146.111432 
L 262.438806 142.893711 
L 262.857679 141.482178 
L 263.276552 142.839421 
L 263.695426 144.580585 
L 264.952045 146.315928 
L 265.370918 144.610277 
L 265.789792 141.851472 
L 266.208665 141.83226 
L 266.627538 137.980419 
L 267.884157 135.987346 
L 268.721904 138.108975 
L 269.140777 138.819035 
L 269.55965 140.062131 
L 270.81627 140.137598 
L 271.235143 140.977415 
L 271.654016 133.268458 
L 272.072889 130.929379 
L 272.491763 130.041931 
L 273.748382 123.283699 
L 274.167255 117.624324 
L 274.586128 116.146821 
L 275.005002 117.49595 
L 275.423875 116.796078 
L 276.680494 116.412266 
L 277.518241 120.020203 
L 277.937114 123.886235 
L 279.612607 132.701909 
L 280.03148 138.295714 
L 280.869226 146.114524 
L 281.288099 147.209343 
L 282.544719 149.652962 
L 282.963592 153.055093 
L 283.382465 152.124927 
L 283.801339 155.466109 
L 284.220212 155.16737 
L 285.476831 157.095383 
L 286.314578 151.185227 
L 286.733451 151.028071 
L 287.152324 153.67746 
L 288.408944 153.420784 
L 288.827817 149.661804 
L 289.24669 149.487582 
L 289.665563 149.979101 
L 290.084436 153.188925 
L 291.341056 155.324236 
L 291.759929 153.913576 
L 292.178802 153.159888 
L 292.597676 153.823846 
L 293.016549 153.885485 
L 294.273168 154.417903 
L 294.692042 153.29372 
L 295.110915 154.159845 
L 295.529788 156.123044 
L 295.948661 159.739423 
L 297.205281 158.258027 
L 297.624154 159.819766 
L 298.043027 162.126824 
L 298.4619 162.633916 
L 303.069505 164.003749 
L 303.488378 164.700054 
L 303.907252 166.332239 
L 304.326125 166.097614 
L 304.744998 163.732009 
L 306.001618 167.703855 
L 306.420491 172.545646 
L 306.839364 174.333349 
L 307.258237 177.547431 
L 307.67711 184.232198 
L 308.93373 189.048336 
L 309.352603 193.678935 
L 309.771476 194.513694 
L 310.190349 193.132436 
L 310.609223 192.275844 
L 311.865842 189.277611 
L 312.284715 186.695903 
L 313.122462 187.949624 
L 313.541335 189.554336 
L 314.797955 188.674202 
L 315.216828 185.52398 
L 315.635701 185.350522 
L 316.054574 185.46878 
L 316.473447 184.275753 
L 317.730067 185.888762 
L 318.14894 186.735783 
L 318.567813 187.037615 
L 318.986686 185.585583 
L 319.40556 186.729306 
L 320.662179 187.237963 
L 321.081052 186.593764 
L 321.499926 185.626446 
L 321.918799 187.23487 
L 322.337672 187.084045 
L 323.594292 188.675731 
L 324.013165 191.086601 
L 324.432038 191.497595 
L 324.850911 193.278639 
L 325.269784 193.149319 
L 326.526404 193.557802 
L 326.945277 195.403107 
L 327.36415 200.063362 
L 327.783023 201.04316 
L 328.201897 201.640783 
L 329.458516 201.419731 
L 329.877389 200.081301 
L 330.296263 199.346861 
L 330.715136 202.638048 
L 331.134009 204.86822 
L 332.390628 206.20665 
L 332.809502 207.013391 
L 333.228375 206.830509 
L 333.647248 209.198807 
L 334.066121 208.226904 
L 335.322741 208.034634 
L 335.741614 207.791641 
L 336.160487 209.486811 
L 336.57936 210.15488 
L 336.998234 205.577079 
L 338.673726 202.970045 
L 339.511473 205.070896 
L 339.930346 207.401715 
L 341.186965 209.220202 
L 341.605839 212.948872 
L 342.443585 215.581705 
L 342.862458 215.232097 
L 344.119078 216.458127 
L 344.537951 217.390258 
L 344.956824 217.13311 
L 345.375697 221.933747 
L 345.794571 220.272307 
L 347.05119 219.845922 
L 347.470063 222.185947 
L 347.888936 222.491708 
L 348.30781 219.598088 
L 348.726683 214.595975 
L 349.983302 213.106028 
L 350.402176 214.74771 
L 351.239922 224.522878 
L 351.658795 226.411011 
L 352.915415 229.64718 
L 353.334288 229.21479 
L 354.172034 215.349009 
L 358.779639 212.023582 
L 359.198513 208.789705 
L 359.617386 207.72396 
L 360.455132 202.359831 
L 361.711752 201.126414 
L 362.130625 203.054499 
L 362.549498 202.081833 
L 362.968371 204.434884 
L 363.387244 201.53366 
L 364.643864 197.854294 
L 365.062737 195.382184 
L 365.48161 191.853207 
L 365.900484 190.399611 
L 366.319357 190.250787 
L 367.575976 188.744139 
L 367.99485 185.495525 
L 368.413723 183.303123 
L 368.832596 183.673327 
L 369.251469 184.58821 
L 370.508089 184.752426 
L 370.926962 182.692728 
L 371.345835 183.858719 
L 372.183581 185.382688 
L 373.440201 188.29694 
L 373.859074 190.501022 
L 374.277947 190.043016 
L 374.696821 192.017495 
L 375.115694 190.985081 
L 376.372313 189.027231 
L 376.791186 182.913052 
L 377.21006 180.099994 
L 379.304426 178.870179 
L 379.723299 179.399285 
L 380.142172 179.393463 
L 380.561045 180.252165 
L 380.979918 178.523336 
L 382.236538 181.473865 
L 382.655411 179.087556 
L 383.074284 181.362775 
L 383.493157 179.712397 
L 383.912031 179.243184 
L 385.16865 181.686803 
L 385.587523 183.814327 
L 386.006397 186.820092 
L 386.42527 187.682651 
L 386.844143 187.853452 
L 388.100763 184.234563 
L 388.519636 180.28404 
L 391.032875 179.65738 
L 391.451748 176.133752 
L 391.870621 175.632081 
L 392.289494 178.335105 
L 392.708368 178.534289 
L 393.964987 179.853252 
L 394.802734 183.085564 
L 395.221607 185.871732 
L 395.64048 186.069351 
L 396.8971 184.165755 
L 397.315973 182.334823 
L 397.734846 182.99536 
L 398.153719 182.444349 
L 398.572592 185.961354 
L 399.829212 189.63155 
L 400.248085 188.314478 
L 400.666958 188.88019 
L 401.085831 187.921533 
L 401.504705 188.012319 
L 402.761324 187.524039 
L 403.180197 185.698893 
L 403.599071 183.071446 
L 404.017944 182.92073 
L 404.436817 182.549908 
L 406.11231 183.291079 
L 406.531183 185.393313 
L 407.368929 193.521451 
L 408.625549 194.041243 
L 409.044422 195.383967 
L 409.463295 195.582677 
L 409.882168 197.236076 
L 410.301042 197.793673 
L 411.976534 197.335813 
L 412.395407 197.95636 
L 412.814281 196.870821 
L 413.233154 197.974518 
L 414.489773 198.949404 
L 414.908647 199.896708 
L 415.746393 203.909999 
L 416.165266 206.268981 
L 417.421886 208.314889 
L 417.840759 211.023698 
L 418.259632 209.608818 
L 418.678505 209.883941 
L 419.097378 207.240775 
L 420.353998 206.359003 
L 420.772871 206.568812 
L 421.191744 205.888553 
L 421.610618 205.754175 
L 422.029491 205.123731 
L 423.28611 204.256551 
L 423.704984 205.534942 
L 424.123857 210.334597 
L 424.54273 213.272282 
L 424.961603 215.346935 
L 426.218223 215.007369 
L 426.637096 215.408174 
L 427.055969 204.084366 
L 427.893715 169.239504 
L 429.150335 159.367582 
L 429.988081 148.209882 
L 430.406955 143.948867 
L 430.825828 140.874294 
L 432.082447 140.381029 
L 432.920194 138.517822 
L 433.339067 140.21543 
L 433.75794 139.513994 
L 435.01456 140.205497 
L 435.433433 140.821241 
L 436.690052 150.362331 
L 437.946672 151.602734 
L 438.365545 152.878506 
L 438.784418 155.164423 
L 439.203292 158.411181 
L 439.622165 160.648812 
L 440.878784 157.433966 
L 441.297657 158.960227 
L 441.716531 158.137112 
L 442.554277 161.059405 
L 443.810897 164.251728 
L 444.22977 169.118007 
L 445.486389 178.542003 
L 447.999628 182.111478 
L 448.418502 180.315733 
L 449.675121 178.858826 
L 450.093994 177.503548 
L 451.350614 138.046244 
L 452.607234 119.95416 
L 455.958219 85.548601 
L 456.377092 53.851196 
L 456.795965 59.812148 
L 457.214839 62.391637 
L 458.890331 78.486863 
L 459.309205 86.950091 
L 459.728078 91.217437 
L 460.146951 93.93738 
L 461.403571 86.977672 
L 462.66019 75.740429 
L 463.079063 74.86226 
L 464.335683 73.571024 
L 464.754556 72.799834 
L 465.173429 75.27773 
L 465.592302 78.844622 
L 466.011176 79.313289 
L 467.267795 80.939433 
L 467.686668 80.619954 
L 468.105542 76.938369 
L 468.524415 78.821407 
L 468.943288 72.108258 
L 470.199907 73.265444 
L 470.618781 74.712855 
L 471.037654 79.990237 
L 471.456527 81.890304 
L 471.8754 87.10721 
L 473.13202 93.053026 
L 473.550893 96.601142 
L 473.969766 97.043465 
L 474.388639 96.189967 
L 474.807513 94.514918 
L 476.483005 101.159659 
L 476.901879 101.388789 
L 477.320752 97.062787 
L 477.739625 96.78235 
L 478.996244 93.328841 
L 479.415118 89.802775 
L 479.833991 87.626601 
L 480.252864 87.650908 
L 480.671737 88.188711 
L 481.928357 85.274241 
L 482.766103 79.859024 
L 483.184976 81.445216 
L 483.60385 80.231775 
L 484.860469 85.269657 
L 485.279342 88.657815 
L 485.698215 88.717999 
L 486.535962 86.312223 
L 487.792581 86.345917 
L 488.211455 85.68498 
L 488.630328 83.146099 
L 489.468074 81.610195 
L 490.724694 81.183009 
L 491.143567 79.615521 
L 491.981313 82.485817 
L 492.400186 89.400623 
L 493.656806 94.41529 
L 494.075679 96.858654 
L 494.494552 96.413093 
L 494.913426 97.366729 
L 495.332299 100.217557 
L 496.588918 104.176558 
L 497.007792 107.027132 
L 497.426665 102.440961 
L 497.845538 101.682179 
L 498.264411 100.512621 
L 499.521031 99.110804 
L 500.358777 94.951492 
L 500.77765 96.269727 
L 501.196523 95.306849 
L 502.453143 92.799625 
L 506.223002 91.636035 
L 506.641875 92.101209 
L 507.060748 89.333889 
L 508.317368 85.308518 
L 508.736241 83.226297 
L 509.155114 82.632821 
L 509.573987 79.432494 
L 509.99286 78.521867 
L 511.24948 74.90447 
L 511.668353 72.222005 
L 512.087226 73.092023 
L 512.5061 72.048438 
L 512.924973 72.91227 
L 514.181592 70.58458 
L 514.600465 71.031997 
L 515.019339 74.358734 
L 515.438212 73.519936 
L 515.857085 72.277604 
L 517.113705 75.833289 
L 517.532578 76.3406 
L 517.951451 76.493135 
L 518.370324 75.185961 
L 518.789197 71.258326 
L 520.045817 69.772855 
L 520.46469 69.827945 
L 520.883563 69.098163 
L 521.302436 70.145314 
L 521.72131 71.98949 
L 522.977929 67.496908 
L 523.396802 66.755409 
L 523.815676 66.300496 
L 524.234549 67.043086 
L 524.653422 69.688655 
L 525.910042 74.353713 
L 526.747788 75.000532 
L 527.166661 76.011223 
L 527.585534 75.967267 
L 528.842154 76.557104 
L 529.6799 80.613622 
L 530.098773 82.518638 
L 531.774266 85.798435 
L 532.193139 104.418206 
L 532.612013 108.752395 
L 533.030886 109.966272 
L 533.449759 106.324532 
L 534.706379 104.577909 
L 535.125252 103.577807 
L 535.544125 102.929969 
L 536.381871 100.841744 
L 537.638491 99.353252 
L 538.057364 97.359743 
L 538.89511 95.002507 
L 539.313984 94.35627 
L 540.570603 93.656398 
L 540.989476 94.137001 
L 541.40835 94.326068 
L 541.40835 94.326068 
" clip-path="url(#p6654dff339)" style="fill: none; stroke-dasharray: 5.55,2.4; stroke-dashoffset: 0; stroke: #ff0000; stroke-width: 1.5"/>
   </g>
   <g id="patch_3">
    <path d="M 57.17 246.04 
L 57.17 26.88 
" style="fill: none; stroke: #000000; stroke-width: 0.8; stroke-linejoin: miter; stroke-linecap: square"/>
   </g>
   <g id="patch_4">
    <path d="M 564.467319 246.04 
L 564.467319 26.88 
" style="fill: none; stroke: #000000; stroke-width: 0.8; stroke-linejoin: miter; stroke-linecap: square"/>
   </g>
   <g id="patch_5">
    <path d="M 57.17 246.04 
L 564.467319 246.04 
" style="fill: none; stroke: #000000; stroke-width: 0.8; stroke-linejoin: miter; stroke-linecap: square"/>
   </g>
   <g id="patch_6">
    <path d="M 57.17 26.88 
L 564.467319 26.88 
" style="fill: none; stroke: #000000; stroke-width: 0.8; stroke-linejoin: miter; stroke-linecap: square"/>
   </g>
   <g id="text_20">
    <!-- Real vs Predicted Stock Prices -->
    <g transform="translate(221.046472 20.88) scale(0.12 -0.12)">
     <defs>
      <path id="DejaVuSans-52" d="M 2841 2188 
Q 3044 2119 3236 1894 
Q 3428 1669 3622 1275 
L 4263 0 
L 3584 0 
L 2988 1197 
Q 2756 1666 2539 1819 
Q 2322 1972 1947 1972 
L 1259 1972 
L 1259 0 
L 628 0 
L 628 4666 
L 2053 4666 
Q 2853 4666 3247 4331 
Q 3641 3997 3641 3322 
Q 3641 2881 3436 2590 
Q 3231 2300 2841 2188 
z
M 1259 4147 
L 1259 2491 
L 2053 2491 
Q 2509 2491 2742 2702 
Q 2975 2913 2975 3322 
Q 2975 3731 2742 3939 
Q 2509 4147 2053 4147 
L 1259 4147 
z
" transform="scale(0.015625)"/>
      <path id="DejaVuSans-6c" d="M 603 4863 
L 1178 4863 
L 1178 0 
L 603 0 
L 603 4863 
z
" transform="scale(0.015625)"/>
      <path id="DejaVuSans-76" d="M 191 3500 
L 800 3500 
L 1894 563 
L 2988 3500 
L 3597 3500 
L 2284 0 
L 1503 0 
L 191 3500 
z
" transform="scale(0.015625)"/>
      <path id="DejaVuSans-73" d="M 2834 3397 
L 2834 2853 
Q 2591 2978 2328 3040 
Q 2066 3103 1784 3103 
Q 1356 3103 1142 2972 
Q 928 2841 928 2578 
Q 928 2378 1081 2264 
Q 1234 2150 1697 2047 
L 1894 2003 
Q 2506 1872 2764 1633 
Q 3022 1394 3022 966 
Q 3022 478 2636 193 
Q 2250 -91 1575 -91 
Q 1294 -91 989 -36 
Q 684 19 347 128 
L 347 722 
Q 666 556 975 473 
Q 1284 391 1588 391 
Q 1994 391 2212 530 
Q 2431 669 2431 922 
Q 2431 1156 2273 1281 
Q 2116 1406 1581 1522 
L 1381 1569 
Q 847 1681 609 1914 
Q 372 2147 372 2553 
Q 372 3047 722 3315 
Q 1072 3584 1716 3584 
Q 2034 3584 2315 3537 
Q 2597 3491 2834 3397 
z
" transform="scale(0.015625)"/>
      <path id="DejaVuSans-64" d="M 2906 2969 
L 2906 4863 
L 3481 4863 
L 3481 0 
L 2906 0 
L 2906 525 
Q 2725 213 2448 61 
Q 2172 -91 1784 -91 
Q 1150 -91 751 415 
Q 353 922 353 1747 
Q 353 2572 751 3078 
Q 1150 3584 1784 3584 
Q 2172 3584 2448 3432 
Q 2725 3281 2906 2969 
z
M 947 1747 
Q 947 1113 1208 752 
Q 1469 391 1925 391 
Q 2381 391 2643 752 
Q 2906 1113 2906 1747 
Q 2906 2381 2643 2742 
Q 2381 3103 1925 3103 
Q 1469 3103 1208 2742 
Q 947 2381 947 1747 
z
" transform="scale(0.015625)"/>
     </defs>
     <use xlink:href="#DejaVuSans-52"/>
     <use xlink:href="#DejaVuSans-65" transform="translate(64.982422 0)"/>
     <use xlink:href="#DejaVuSans-61" transform="translate(126.505859 0)"/>
     <use xlink:href="#DejaVuSans-6c" transform="translate(187.785156 0)"/>
     <use xlink:href="#DejaVuSans-20" transform="translate(215.568359 0)"/>
     <use xlink:href="#DejaVuSans-76" transform="translate(247.355469 0)"/>
     <use xlink:href="#DejaVuSans-73" transform="translate(306.535156 0)"/>
     <use xlink:href="#DejaVuSans-20" transform="translate(358.634766 0)"/>
     <use xlink:href="#DejaVuSans-50" transform="translate(390.421875 0)"/>
     <use xlink:href="#DejaVuSans-72" transform="translate(448.974609 0)"/>
     <use xlink:href="#DejaVuSans-65" transform="translate(487.837891 0)"/>
     <use xlink:href="#DejaVuSans-64" transform="translate(549.361328 0)"/>
     <use xlink:href="#DejaVuSans-69" transform="translate(612.837891 0)"/>
     <use xlink:href="#DejaVuSans-63" transform="translate(640.621094 0)"/>
     <use xlink:href="#DejaVuSans-74" transform="translate(695.601562 0)"/>
     <use xlink:href="#DejaVuSans-65" transform="translate(734.810547 0)"/>
     <use xlink:href="#DejaVuSans-64" transform="translate(796.333984 0)"/>
     <use xlink:href="#DejaVuSans-20" transform="translate(859.810547 0)"/>
     <use xlink:href="#DejaVuSans-53" transform="translate(891.597656 0)"/>
     <use xlink:href="#DejaVuSans-74" transform="translate(955.074219 0)"/>
     <use xlink:href="#DejaVuSans-6f" transform="translate(994.283203 0)"/>
     <use xlink:href="#DejaVuSans-63" transform="translate(1055.464844 0)"/>
     <use xlink:href="#DejaVuSans-6b" transform="translate(1110.445312 0)"/>
     <use xlink:href="#DejaVuSans-20" transform="translate(1168.355469 0)"/>
     <use xlink:href="#DejaVuSans-50" transform="translate(1200.142578 0)"/>
     <use xlink:href="#DejaVuSans-72" transform="translate(1258.695312 0)"/>
     <use xlink:href="#DejaVuSans-69" transform="translate(1299.808594 0)"/>
     <use xlink:href="#DejaVuSans-63" transform="translate(1327.591797 0)"/>
     <use xlink:href="#DejaVuSans-65" transform="translate(1382.572266 0)"/>
     <use xlink:href="#DejaVuSans-73" transform="translate(1444.095703 0)"/>
    </g>
   </g>
   <g id="legend_1">
    <g id="patch_7">
     <path d="M 64.17 241.04 
L 175.893438 241.04 
Q 177.893438 241.04 177.893438 239.04 
L 177.893438 210.68375 
Q 177.893438 208.68375 175.893438 208.68375 
L 64.17 208.68375 
Q 62.17 208.68375 62.17 210.68375 
L 62.17 239.04 
Q 62.17 241.04 64.17 241.04 
z
" style="fill: #ffffff; opacity: 0.8; stroke: #cccccc; stroke-linejoin: miter"/>
    </g>
    <g id="line2d_20">
     <path d="M 66.17 216.782187 
L 76.17 216.782187 
L 86.17 216.782187 
" style="fill: none; stroke: #0000ff; stroke-width: 1.5; stroke-linecap: square"/>
    </g>
    <g id="text_21">
     <!-- Real Prices -->
     <g transform="translate(94.17 220.282187) scale(0.1 -0.1)">
      <use xlink:href="#DejaVuSans-52"/>
      <use xlink:href="#DejaVuSans-65" transform="translate(64.982422 0)"/>
      <use xlink:href="#DejaVuSans-61" transform="translate(126.505859 0)"/>
      <use xlink:href="#DejaVuSans-6c" transform="translate(187.785156 0)"/>
      <use xlink:href="#DejaVuSans-20" transform="translate(215.568359 0)"/>
      <use xlink:href="#DejaVuSans-50" transform="translate(247.355469 0)"/>
      <use xlink:href="#DejaVuSans-72" transform="translate(305.908203 0)"/>
      <use xlink:href="#DejaVuSans-69" transform="translate(347.021484 0)"/>
      <use xlink:href="#DejaVuSans-63" transform="translate(374.804688 0)"/>
      <use xlink:href="#DejaVuSans-65" transform="translate(429.785156 0)"/>
      <use xlink:href="#DejaVuSans-73" transform="translate(491.308594 0)"/>
     </g>
    </g>
    <g id="line2d_21">
     <path d="M 66.17 231.460312 
L 76.17 231.460312 
L 86.17 231.460312 
" style="fill: none; stroke-dasharray: 5.55,2.4; stroke-dashoffset: 0; stroke: #ff0000; stroke-width: 1.5"/>
    </g>
    <g id="text_22">
     <!-- Predicted Prices -->
     <g transform="translate(94.17 234.960312) scale(0.1 -0.1)">
      <use xlink:href="#DejaVuSans-50"/>
      <use xlink:href="#DejaVuSans-72" transform="translate(58.552734 0)"/>
      <use xlink:href="#DejaVuSans-65" transform="translate(97.416016 0)"/>
      <use xlink:href="#DejaVuSans-64" transform="translate(158.939453 0)"/>
      <use xlink:href="#DejaVuSans-69" transform="translate(222.416016 0)"/>
      <use xlink:href="#DejaVuSans-63" transform="translate(250.199219 0)"/>
      <use xlink:href="#DejaVuSans-74" transform="translate(305.179688 0)"/>
      <use xlink:href="#DejaVuSans-65" transform="translate(344.388672 0)"/>
      <use xlink:href="#DejaVuSans-64" transform="translate(405.912109 0)"/>
      <use xlink:href="#DejaVuSans-20" transform="translate(469.388672 0)"/>
      <use xlink:href="#DejaVuSans-50" transform="translate(501.175781 0)"/>
      <use xlink:href="#DejaVuSans-72" transform="translate(559.728516 0)"/>
      <use xlink:href="#DejaVuSans-69" transform="translate(600.841797 0)"/>
      <use xlink:href="#DejaVuSans-63" transform="translate(628.625 0)"/>
      <use xlink:href="#DejaVuSans-65" transform="translate(683.605469 0)"/>
      <use xlink:href="#DejaVuSans-73" transform="translate(745.128906 0)"/>
     </g>
    </g>
   </g>
  </g>
 </g>
 <defs>
  <clipPath id="p6654dff339">
   <rect x="57.17" y="26.88" width="507.297319" height="219.16"/>
  </clipPath>
 </defs>
</svg>
