<?xml version="1.0" encoding="utf-8" standalone="no"?>
<!DOCTYPE svg PUBLIC "-//W3C//DTD SVG 1.1//EN"
  "http://www.w3.org/Graphics/SVG/1.1/DTD/svg11.dtd">
<svg xmlns:xlink="http://www.w3.org/1999/xlink" width="576pt" height="288pt" viewBox="0 0 576 288" xmlns="http://www.w3.org/2000/svg" version="1.1">
 <metadata>
  <rdf:RDF xmlns:dc="http://purl.org/dc/elements/1.1/" xmlns:cc="http://creativecommons.org/ns#" xmlns:rdf="http://www.w3.org/1999/02/22-rdf-syntax-ns#">
   <cc:Work>
    <dc:type rdf:resource="http://purl.org/dc/dcmitype/StillImage"/>
    <dc:date>2025-05-01T20:48:44.384640</dc:date>
    <dc:format>image/svg+xml</dc:format>
    <dc:creator>
     <cc:Agent>
      <dc:title>Matplotlib v3.10.1, https://matplotlib.org/</dc:title>
     </cc:Agent>
    </dc:creator>
   </cc:Work>
  </rdf:RDF>
 </metadata>
 <defs>
  <style type="text/css">*{stroke-linejoin: round; stroke-linecap: butt}</style>
 </defs>
 <g id="figure_1">
  <g id="patch_1">
   <path d="M 0 288 
L 576 288 
L 576 0 
L 0 0 
z
" style="fill: #ffffff"/>
  </g>
  <g id="axes_1">
   <g id="patch_2">
    <path d="M 57.17 246.04 
L 564.467319 246.04 
L 564.467319 26.88 
L 57.17 26.88 
z
" style="fill: #ffffff"/>
   </g>
   <g id="matplotlib.axis_1">
    <g id="xtick_1">
     <g id="line2d_1">
      <defs>
       <path id="m1d0555984c" d="M 0 0 
L 0 3.5 
" style="stroke: #000000; stroke-width: 0.8"/>
      </defs>
      <g>
       <use xlink:href="#m1d0555984c" x="82.742208" y="246.04" style="stroke: #000000; stroke-width: 0.8"/>
      </g>
     </g>
     <g id="text_1">
      <!-- 2022-05 -->
      <g transform="translate(61.850802 260.638438) scale(0.1 -0.1)">
       <defs>
        <path id="DejaVuSans-32" d="M 1228 531 
L 3431 531 
L 3431 0 
L 469 0 
L 469 531 
Q 828 903 1448 1529 
Q 2069 2156 2228 2338 
Q 2531 2678 2651 2914 
Q 2772 3150 2772 3378 
Q 2772 3750 2511 3984 
Q 2250 4219 1831 4219 
Q 1534 4219 1204 4116 
Q 875 4013 500 3803 
L 500 4441 
Q 881 4594 1212 4672 
Q 1544 4750 1819 4750 
Q 2544 4750 2975 4387 
Q 3406 4025 3406 3419 
Q 3406 3131 3298 2873 
Q 3191 2616 2906 2266 
Q 2828 2175 2409 1742 
Q 1991 1309 1228 531 
z
" transform="scale(0.015625)"/>
        <path id="DejaVuSans-30" d="M 2034 4250 
Q 1547 4250 1301 3770 
Q 1056 3291 1056 2328 
Q 1056 1369 1301 889 
Q 1547 409 2034 409 
Q 2525 409 2770 889 
Q 3016 1369 3016 2328 
Q 3016 3291 2770 3770 
Q 2525 4250 2034 4250 
z
M 2034 4750 
Q 2819 4750 3233 4129 
Q 3647 3509 3647 2328 
Q 3647 1150 3233 529 
Q 2819 -91 2034 -91 
Q 1250 -91 836 529 
Q 422 1150 422 2328 
Q 422 3509 836 4129 
Q 1250 4750 2034 4750 
z
" transform="scale(0.015625)"/>
        <path id="DejaVuSans-2d" d="M 313 2009 
L 1997 2009 
L 1997 1497 
L 313 1497 
L 313 2009 
z
" transform="scale(0.015625)"/>
        <path id="DejaVuSans-35" d="M 691 4666 
L 3169 4666 
L 3169 4134 
L 1269 4134 
L 1269 2991 
Q 1406 3038 1543 3061 
Q 1681 3084 1819 3084 
Q 2600 3084 3056 2656 
Q 3513 2228 3513 1497 
Q 3513 744 3044 326 
Q 2575 -91 1722 -91 
Q 1428 -91 1123 -41 
Q 819 9 494 109 
L 494 744 
Q 775 591 1075 516 
Q 1375 441 1709 441 
Q 2250 441 2565 725 
Q 2881 1009 2881 1497 
Q 2881 1984 2565 2268 
Q 2250 2553 1709 2553 
Q 1456 2553 1204 2497 
Q 953 2441 691 2322 
L 691 4666 
z
" transform="scale(0.015625)"/>
       </defs>
       <use xlink:href="#DejaVuSans-32"/>
       <use xlink:href="#DejaVuSans-30" transform="translate(63.623047 0)"/>
       <use xlink:href="#DejaVuSans-32" transform="translate(127.246094 0)"/>
       <use xlink:href="#DejaVuSans-32" transform="translate(190.869141 0)"/>
       <use xlink:href="#DejaVuSans-2d" transform="translate(254.492188 0)"/>
       <use xlink:href="#DejaVuSans-30" transform="translate(290.576172 0)"/>
       <use xlink:href="#DejaVuSans-35" transform="translate(354.199219 0)"/>
      </g>
     </g>
    </g>
    <g id="xtick_2">
     <g id="line2d_2">
      <g>
       <use xlink:href="#m1d0555984c" x="134.26361" y="246.04" style="stroke: #000000; stroke-width: 0.8"/>
      </g>
     </g>
     <g id="text_2">
      <!-- 2022-09 -->
      <g transform="translate(113.372204 260.638438) scale(0.1 -0.1)">
       <defs>
        <path id="DejaVuSans-39" d="M 703 97 
L 703 672 
Q 941 559 1184 500 
Q 1428 441 1663 441 
Q 2288 441 2617 861 
Q 2947 1281 2994 2138 
Q 2813 1869 2534 1725 
Q 2256 1581 1919 1581 
Q 1219 1581 811 2004 
Q 403 2428 403 3163 
Q 403 3881 828 4315 
Q 1253 4750 1959 4750 
Q 2769 4750 3195 4129 
Q 3622 3509 3622 2328 
Q 3622 1225 3098 567 
Q 2575 -91 1691 -91 
Q 1453 -91 1209 -44 
Q 966 3 703 97 
z
M 1959 2075 
Q 2384 2075 2632 2365 
Q 2881 2656 2881 3163 
Q 2881 3666 2632 3958 
Q 2384 4250 1959 4250 
Q 1534 4250 1286 3958 
Q 1038 3666 1038 3163 
Q 1038 2656 1286 2365 
Q 1534 2075 1959 2075 
z
" transform="scale(0.015625)"/>
       </defs>
       <use xlink:href="#DejaVuSans-32"/>
       <use xlink:href="#DejaVuSans-30" transform="translate(63.623047 0)"/>
       <use xlink:href="#DejaVuSans-32" transform="translate(127.246094 0)"/>
       <use xlink:href="#DejaVuSans-32" transform="translate(190.869141 0)"/>
       <use xlink:href="#DejaVuSans-2d" transform="translate(254.492188 0)"/>
       <use xlink:href="#DejaVuSans-30" transform="translate(290.576172 0)"/>
       <use xlink:href="#DejaVuSans-39" transform="translate(354.199219 0)"/>
      </g>
     </g>
    </g>
    <g id="xtick_3">
     <g id="line2d_3">
      <g>
       <use xlink:href="#m1d0555984c" x="185.366139" y="246.04" style="stroke: #000000; stroke-width: 0.8"/>
      </g>
     </g>
     <g id="text_3">
      <!-- 2023-01 -->
      <g transform="translate(164.474733 260.638438) scale(0.1 -0.1)">
       <defs>
        <path id="DejaVuSans-33" d="M 2597 2516 
Q 3050 2419 3304 2112 
Q 3559 1806 3559 1356 
Q 3559 666 3084 287 
Q 2609 -91 1734 -91 
Q 1441 -91 1130 -33 
Q 819 25 488 141 
L 488 750 
Q 750 597 1062 519 
Q 1375 441 1716 441 
Q 2309 441 2620 675 
Q 2931 909 2931 1356 
Q 2931 1769 2642 2001 
Q 2353 2234 1838 2234 
L 1294 2234 
L 1294 2753 
L 1863 2753 
Q 2328 2753 2575 2939 
Q 2822 3125 2822 3475 
Q 2822 3834 2567 4026 
Q 2313 4219 1838 4219 
Q 1578 4219 1281 4162 
Q 984 4106 628 3988 
L 628 4550 
Q 988 4650 1302 4700 
Q 1616 4750 1894 4750 
Q 2613 4750 3031 4423 
Q 3450 4097 3450 3541 
Q 3450 3153 3228 2886 
Q 3006 2619 2597 2516 
z
" transform="scale(0.015625)"/>
        <path id="DejaVuSans-31" d="M 794 531 
L 1825 531 
L 1825 4091 
L 703 3866 
L 703 4441 
L 1819 4666 
L 2450 4666 
L 2450 531 
L 3481 531 
L 3481 0 
L 794 0 
L 794 531 
z
" transform="scale(0.015625)"/>
       </defs>
       <use xlink:href="#DejaVuSans-32"/>
       <use xlink:href="#DejaVuSans-30" transform="translate(63.623047 0)"/>
       <use xlink:href="#DejaVuSans-32" transform="translate(127.246094 0)"/>
       <use xlink:href="#DejaVuSans-33" transform="translate(190.869141 0)"/>
       <use xlink:href="#DejaVuSans-2d" transform="translate(254.492188 0)"/>
       <use xlink:href="#DejaVuSans-30" transform="translate(290.576172 0)"/>
       <use xlink:href="#DejaVuSans-31" transform="translate(354.199219 0)"/>
      </g>
     </g>
    </g>
    <g id="xtick_4">
     <g id="line2d_4">
      <g>
       <use xlink:href="#m1d0555984c" x="235.630922" y="246.04" style="stroke: #000000; stroke-width: 0.8"/>
      </g>
     </g>
     <g id="text_4">
      <!-- 2023-05 -->
      <g transform="translate(214.739516 260.638438) scale(0.1 -0.1)">
       <use xlink:href="#DejaVuSans-32"/>
       <use xlink:href="#DejaVuSans-30" transform="translate(63.623047 0)"/>
       <use xlink:href="#DejaVuSans-32" transform="translate(127.246094 0)"/>
       <use xlink:href="#DejaVuSans-33" transform="translate(190.869141 0)"/>
       <use xlink:href="#DejaVuSans-2d" transform="translate(254.492188 0)"/>
       <use xlink:href="#DejaVuSans-30" transform="translate(290.576172 0)"/>
       <use xlink:href="#DejaVuSans-35" transform="translate(354.199219 0)"/>
      </g>
     </g>
    </g>
    <g id="xtick_5">
     <g id="line2d_5">
      <g>
       <use xlink:href="#m1d0555984c" x="287.152324" y="246.04" style="stroke: #000000; stroke-width: 0.8"/>
      </g>
     </g>
     <g id="text_5">
      <!-- 2023-09 -->
      <g transform="translate(266.260918 260.638438) scale(0.1 -0.1)">
       <use xlink:href="#DejaVuSans-32"/>
       <use xlink:href="#DejaVuSans-30" transform="translate(63.623047 0)"/>
       <use xlink:href="#DejaVuSans-32" transform="translate(127.246094 0)"/>
       <use xlink:href="#DejaVuSans-33" transform="translate(190.869141 0)"/>
       <use xlink:href="#DejaVuSans-2d" transform="translate(254.492188 0)"/>
       <use xlink:href="#DejaVuSans-30" transform="translate(290.576172 0)"/>
       <use xlink:href="#DejaVuSans-39" transform="translate(354.199219 0)"/>
      </g>
     </g>
    </g>
    <g id="xtick_6">
     <g id="line2d_6">
      <g>
       <use xlink:href="#m1d0555984c" x="338.254853" y="246.04" style="stroke: #000000; stroke-width: 0.8"/>
      </g>
     </g>
     <g id="text_6">
      <!-- 2024-01 -->
      <g transform="translate(317.363447 260.638438) scale(0.1 -0.1)">
       <defs>
        <path id="DejaVuSans-34" d="M 2419 4116 
L 825 1625 
L 2419 1625 
L 2419 4116 
z
M 2253 4666 
L 3047 4666 
L 3047 1625 
L 3713 1625 
L 3713 1100 
L 3047 1100 
L 3047 0 
L 2419 0 
L 2419 1100 
L 313 1100 
L 313 1709 
L 2253 4666 
z
" transform="scale(0.015625)"/>
       </defs>
       <use xlink:href="#DejaVuSans-32"/>
       <use xlink:href="#DejaVuSans-30" transform="translate(63.623047 0)"/>
       <use xlink:href="#DejaVuSans-32" transform="translate(127.246094 0)"/>
       <use xlink:href="#DejaVuSans-34" transform="translate(190.869141 0)"/>
       <use xlink:href="#DejaVuSans-2d" transform="translate(254.492188 0)"/>
       <use xlink:href="#DejaVuSans-30" transform="translate(290.576172 0)"/>
       <use xlink:href="#DejaVuSans-31" transform="translate(354.199219 0)"/>
      </g>
     </g>
    </g>
    <g id="xtick_7">
     <g id="line2d_7">
      <g>
       <use xlink:href="#m1d0555984c" x="388.938509" y="246.04" style="stroke: #000000; stroke-width: 0.8"/>
      </g>
     </g>
     <g id="text_7">
      <!-- 2024-05 -->
      <g transform="translate(368.047103 260.638438) scale(0.1 -0.1)">
       <use xlink:href="#DejaVuSans-32"/>
       <use xlink:href="#DejaVuSans-30" transform="translate(63.623047 0)"/>
       <use xlink:href="#DejaVuSans-32" transform="translate(127.246094 0)"/>
       <use xlink:href="#DejaVuSans-34" transform="translate(190.869141 0)"/>
       <use xlink:href="#DejaVuSans-2d" transform="translate(254.492188 0)"/>
       <use xlink:href="#DejaVuSans-30" transform="translate(290.576172 0)"/>
       <use xlink:href="#DejaVuSans-35" transform="translate(354.199219 0)"/>
      </g>
     </g>
    </g>
    <g id="xtick_8">
     <g id="line2d_8">
      <g>
       <use xlink:href="#m1d0555984c" x="440.459911" y="246.04" style="stroke: #000000; stroke-width: 0.8"/>
      </g>
     </g>
     <g id="text_8">
      <!-- 2024-09 -->
      <g transform="translate(419.568505 260.638438) scale(0.1 -0.1)">
       <use xlink:href="#DejaVuSans-32"/>
       <use xlink:href="#DejaVuSans-30" transform="translate(63.623047 0)"/>
       <use xlink:href="#DejaVuSans-32" transform="translate(127.246094 0)"/>
       <use xlink:href="#DejaVuSans-34" transform="translate(190.869141 0)"/>
       <use xlink:href="#DejaVuSans-2d" transform="translate(254.492188 0)"/>
       <use xlink:href="#DejaVuSans-30" transform="translate(290.576172 0)"/>
       <use xlink:href="#DejaVuSans-39" transform="translate(354.199219 0)"/>
      </g>
     </g>
    </g>
    <g id="xtick_9">
     <g id="line2d_9">
      <g>
       <use xlink:href="#m1d0555984c" x="491.56244" y="246.04" style="stroke: #000000; stroke-width: 0.8"/>
      </g>
     </g>
     <g id="text_9">
      <!-- 2025-01 -->
      <g transform="translate(470.671034 260.638438) scale(0.1 -0.1)">
       <use xlink:href="#DejaVuSans-32"/>
       <use xlink:href="#DejaVuSans-30" transform="translate(63.623047 0)"/>
       <use xlink:href="#DejaVuSans-32" transform="translate(127.246094 0)"/>
       <use xlink:href="#DejaVuSans-35" transform="translate(190.869141 0)"/>
       <use xlink:href="#DejaVuSans-2d" transform="translate(254.492188 0)"/>
       <use xlink:href="#DejaVuSans-30" transform="translate(290.576172 0)"/>
       <use xlink:href="#DejaVuSans-31" transform="translate(354.199219 0)"/>
      </g>
     </g>
    </g>
    <g id="xtick_10">
     <g id="line2d_10">
      <g>
       <use xlink:href="#m1d0555984c" x="541.827223" y="246.04" style="stroke: #000000; stroke-width: 0.8"/>
      </g>
     </g>
     <g id="text_10">
      <!-- 2025-05 -->
      <g transform="translate(520.935816 260.638438) scale(0.1 -0.1)">
       <use xlink:href="#DejaVuSans-32"/>
       <use xlink:href="#DejaVuSans-30" transform="translate(63.623047 0)"/>
       <use xlink:href="#DejaVuSans-32" transform="translate(127.246094 0)"/>
       <use xlink:href="#DejaVuSans-35" transform="translate(190.869141 0)"/>
       <use xlink:href="#DejaVuSans-2d" transform="translate(254.492188 0)"/>
       <use xlink:href="#DejaVuSans-30" transform="translate(290.576172 0)"/>
       <use xlink:href="#DejaVuSans-35" transform="translate(354.199219 0)"/>
      </g>
     </g>
    </g>
    <g id="text_11">
     <!-- Date -->
     <g transform="translate(298.867878 274.316562) scale(0.1 -0.1)">
      <defs>
       <path id="DejaVuSans-44" d="M 1259 4147 
L 1259 519 
L 2022 519 
Q 2988 519 3436 956 
Q 3884 1394 3884 2338 
Q 3884 3275 3436 3711 
Q 2988 4147 2022 4147 
L 1259 4147 
z
M 628 4666 
L 1925 4666 
Q 3281 4666 3915 4102 
Q 4550 3538 4550 2338 
Q 4550 1131 3912 565 
Q 3275 0 1925 0 
L 628 0 
L 628 4666 
z
" transform="scale(0.015625)"/>
       <path id="DejaVuSans-61" d="M 2194 1759 
Q 1497 1759 1228 1600 
Q 959 1441 959 1056 
Q 959 750 1161 570 
Q 1363 391 1709 391 
Q 2188 391 2477 730 
Q 2766 1069 2766 1631 
L 2766 1759 
L 2194 1759 
z
M 3341 1997 
L 3341 0 
L 2766 0 
L 2766 531 
Q 2569 213 2275 61 
Q 1981 -91 1556 -91 
Q 1019 -91 701 211 
Q 384 513 384 1019 
Q 384 1609 779 1909 
Q 1175 2209 1959 2209 
L 2766 2209 
L 2766 2266 
Q 2766 2663 2505 2880 
Q 2244 3097 1772 3097 
Q 1472 3097 1187 3025 
Q 903 2953 641 2809 
L 641 3341 
Q 956 3463 1253 3523 
Q 1550 3584 1831 3584 
Q 2591 3584 2966 3190 
Q 3341 2797 3341 1997 
z
" transform="scale(0.015625)"/>
       <path id="DejaVuSans-74" d="M 1172 4494 
L 1172 3500 
L 2356 3500 
L 2356 3053 
L 1172 3053 
L 1172 1153 
Q 1172 725 1289 603 
Q 1406 481 1766 481 
L 2356 481 
L 2356 0 
L 1766 0 
Q 1100 0 847 248 
Q 594 497 594 1153 
L 594 3053 
L 172 3053 
L 172 3500 
L 594 3500 
L 594 4494 
L 1172 4494 
z
" transform="scale(0.015625)"/>
       <path id="DejaVuSans-65" d="M 3597 1894 
L 3597 1613 
L 953 1613 
Q 991 1019 1311 708 
Q 1631 397 2203 397 
Q 2534 397 2845 478 
Q 3156 559 3463 722 
L 3463 178 
Q 3153 47 2828 -22 
Q 2503 -91 2169 -91 
Q 1331 -91 842 396 
Q 353 884 353 1716 
Q 353 2575 817 3079 
Q 1281 3584 2069 3584 
Q 2775 3584 3186 3129 
Q 3597 2675 3597 1894 
z
M 3022 2063 
Q 3016 2534 2758 2815 
Q 2500 3097 2075 3097 
Q 1594 3097 1305 2825 
Q 1016 2553 972 2059 
L 3022 2063 
z
" transform="scale(0.015625)"/>
      </defs>
      <use xlink:href="#DejaVuSans-44"/>
      <use xlink:href="#DejaVuSans-61" transform="translate(77.001953 0)"/>
      <use xlink:href="#DejaVuSans-74" transform="translate(138.28125 0)"/>
      <use xlink:href="#DejaVuSans-65" transform="translate(177.490234 0)"/>
     </g>
    </g>
   </g>
   <g id="matplotlib.axis_2">
    <g id="ytick_1">
     <g id="line2d_11">
      <defs>
       <path id="ma45896a571" d="M 0 0 
L -3.5 0 
" style="stroke: #000000; stroke-width: 0.8"/>
      </defs>
      <g>
       <use xlink:href="#ma45896a571" x="57.17" y="230.00472" style="stroke: #000000; stroke-width: 0.8"/>
      </g>
     </g>
     <g id="text_12">
      <!-- 3200 -->
      <g transform="translate(24.72 233.803939) scale(0.1 -0.1)">
       <use xlink:href="#DejaVuSans-33"/>
       <use xlink:href="#DejaVuSans-32" transform="translate(63.623047 0)"/>
       <use xlink:href="#DejaVuSans-30" transform="translate(127.246094 0)"/>
       <use xlink:href="#DejaVuSans-30" transform="translate(190.869141 0)"/>
      </g>
     </g>
    </g>
    <g id="ytick_2">
     <g id="line2d_12">
      <g>
       <use xlink:href="#ma45896a571" x="57.17" y="200.196321" style="stroke: #000000; stroke-width: 0.8"/>
      </g>
     </g>
     <g id="text_13">
      <!-- 3400 -->
      <g transform="translate(24.72 203.995539) scale(0.1 -0.1)">
       <use xlink:href="#DejaVuSans-33"/>
       <use xlink:href="#DejaVuSans-34" transform="translate(63.623047 0)"/>
       <use xlink:href="#DejaVuSans-30" transform="translate(127.246094 0)"/>
       <use xlink:href="#DejaVuSans-30" transform="translate(190.869141 0)"/>
      </g>
     </g>
    </g>
    <g id="ytick_3">
     <g id="line2d_13">
      <g>
       <use xlink:href="#ma45896a571" x="57.17" y="170.387921" style="stroke: #000000; stroke-width: 0.8"/>
      </g>
     </g>
     <g id="text_14">
      <!-- 3600 -->
      <g transform="translate(24.72 174.187139) scale(0.1 -0.1)">
       <defs>
        <path id="DejaVuSans-36" d="M 2113 2584 
Q 1688 2584 1439 2293 
Q 1191 2003 1191 1497 
Q 1191 994 1439 701 
Q 1688 409 2113 409 
Q 2538 409 2786 701 
Q 3034 994 3034 1497 
Q 3034 2003 2786 2293 
Q 2538 2584 2113 2584 
z
M 3366 4563 
L 3366 3988 
Q 3128 4100 2886 4159 
Q 2644 4219 2406 4219 
Q 1781 4219 1451 3797 
Q 1122 3375 1075 2522 
Q 1259 2794 1537 2939 
Q 1816 3084 2150 3084 
Q 2853 3084 3261 2657 
Q 3669 2231 3669 1497 
Q 3669 778 3244 343 
Q 2819 -91 2113 -91 
Q 1303 -91 875 529 
Q 447 1150 447 2328 
Q 447 3434 972 4092 
Q 1497 4750 2381 4750 
Q 2619 4750 2861 4703 
Q 3103 4656 3366 4563 
z
" transform="scale(0.015625)"/>
       </defs>
       <use xlink:href="#DejaVuSans-33"/>
       <use xlink:href="#DejaVuSans-36" transform="translate(63.623047 0)"/>
       <use xlink:href="#DejaVuSans-30" transform="translate(127.246094 0)"/>
       <use xlink:href="#DejaVuSans-30" transform="translate(190.869141 0)"/>
      </g>
     </g>
    </g>
    <g id="ytick_4">
     <g id="line2d_14">
      <g>
       <use xlink:href="#ma45896a571" x="57.17" y="140.579521" style="stroke: #000000; stroke-width: 0.8"/>
      </g>
     </g>
     <g id="text_15">
      <!-- 3800 -->
      <g transform="translate(24.72 144.37874) scale(0.1 -0.1)">
       <defs>
        <path id="DejaVuSans-38" d="M 2034 2216 
Q 1584 2216 1326 1975 
Q 1069 1734 1069 1313 
Q 1069 891 1326 650 
Q 1584 409 2034 409 
Q 2484 409 2743 651 
Q 3003 894 3003 1313 
Q 3003 1734 2745 1975 
Q 2488 2216 2034 2216 
z
M 1403 2484 
Q 997 2584 770 2862 
Q 544 3141 544 3541 
Q 544 4100 942 4425 
Q 1341 4750 2034 4750 
Q 2731 4750 3128 4425 
Q 3525 4100 3525 3541 
Q 3525 3141 3298 2862 
Q 3072 2584 2669 2484 
Q 3125 2378 3379 2068 
Q 3634 1759 3634 1313 
Q 3634 634 3220 271 
Q 2806 -91 2034 -91 
Q 1263 -91 848 271 
Q 434 634 434 1313 
Q 434 1759 690 2068 
Q 947 2378 1403 2484 
z
M 1172 3481 
Q 1172 3119 1398 2916 
Q 1625 2713 2034 2713 
Q 2441 2713 2670 2916 
Q 2900 3119 2900 3481 
Q 2900 3844 2670 4047 
Q 2441 4250 2034 4250 
Q 1625 4250 1398 4047 
Q 1172 3844 1172 3481 
z
" transform="scale(0.015625)"/>
       </defs>
       <use xlink:href="#DejaVuSans-33"/>
       <use xlink:href="#DejaVuSans-38" transform="translate(63.623047 0)"/>
       <use xlink:href="#DejaVuSans-30" transform="translate(127.246094 0)"/>
       <use xlink:href="#DejaVuSans-30" transform="translate(190.869141 0)"/>
      </g>
     </g>
    </g>
    <g id="ytick_5">
     <g id="line2d_15">
      <g>
       <use xlink:href="#ma45896a571" x="57.17" y="110.771121" style="stroke: #000000; stroke-width: 0.8"/>
      </g>
     </g>
     <g id="text_16">
      <!-- 4000 -->
      <g transform="translate(24.72 114.57034) scale(0.1 -0.1)">
       <use xlink:href="#DejaVuSans-34"/>
       <use xlink:href="#DejaVuSans-30" transform="translate(63.623047 0)"/>
       <use xlink:href="#DejaVuSans-30" transform="translate(127.246094 0)"/>
       <use xlink:href="#DejaVuSans-30" transform="translate(190.869141 0)"/>
      </g>
     </g>
    </g>
    <g id="ytick_6">
     <g id="line2d_16">
      <g>
       <use xlink:href="#ma45896a571" x="57.17" y="80.962721" style="stroke: #000000; stroke-width: 0.8"/>
      </g>
     </g>
     <g id="text_17">
      <!-- 4200 -->
      <g transform="translate(24.72 84.76194) scale(0.1 -0.1)">
       <use xlink:href="#DejaVuSans-34"/>
       <use xlink:href="#DejaVuSans-32" transform="translate(63.623047 0)"/>
       <use xlink:href="#DejaVuSans-30" transform="translate(127.246094 0)"/>
       <use xlink:href="#DejaVuSans-30" transform="translate(190.869141 0)"/>
      </g>
     </g>
    </g>
    <g id="ytick_7">
     <g id="line2d_17">
      <g>
       <use xlink:href="#ma45896a571" x="57.17" y="51.154321" style="stroke: #000000; stroke-width: 0.8"/>
      </g>
     </g>
     <g id="text_18">
      <!-- 4400 -->
      <g transform="translate(24.72 54.95354) scale(0.1 -0.1)">
       <use xlink:href="#DejaVuSans-34"/>
       <use xlink:href="#DejaVuSans-34" transform="translate(63.623047 0)"/>
       <use xlink:href="#DejaVuSans-30" transform="translate(127.246094 0)"/>
       <use xlink:href="#DejaVuSans-30" transform="translate(190.869141 0)"/>
      </g>
     </g>
    </g>
    <g id="text_19">
     <!-- Stock Price -->
     <g transform="translate(18.640313 164.085) rotate(-90) scale(0.1 -0.1)">
      <defs>
       <path id="DejaVuSans-53" d="M 3425 4513 
L 3425 3897 
Q 3066 4069 2747 4153 
Q 2428 4238 2131 4238 
Q 1616 4238 1336 4038 
Q 1056 3838 1056 3469 
Q 1056 3159 1242 3001 
Q 1428 2844 1947 2747 
L 2328 2669 
Q 3034 2534 3370 2195 
Q 3706 1856 3706 1288 
Q 3706 609 3251 259 
Q 2797 -91 1919 -91 
Q 1588 -91 1214 -16 
Q 841 59 441 206 
L 441 856 
Q 825 641 1194 531 
Q 1563 422 1919 422 
Q 2459 422 2753 634 
Q 3047 847 3047 1241 
Q 3047 1584 2836 1778 
Q 2625 1972 2144 2069 
L 1759 2144 
Q 1053 2284 737 2584 
Q 422 2884 422 3419 
Q 422 4038 858 4394 
Q 1294 4750 2059 4750 
Q 2388 4750 2728 4690 
Q 3069 4631 3425 4513 
z
" transform="scale(0.015625)"/>
       <path id="DejaVuSans-6f" d="M 1959 3097 
Q 1497 3097 1228 2736 
Q 959 2375 959 1747 
Q 959 1119 1226 758 
Q 1494 397 1959 397 
Q 2419 397 2687 759 
Q 2956 1122 2956 1747 
Q 2956 2369 2687 2733 
Q 2419 3097 1959 3097 
z
M 1959 3584 
Q 2709 3584 3137 3096 
Q 3566 2609 3566 1747 
Q 3566 888 3137 398 
Q 2709 -91 1959 -91 
Q 1206 -91 779 398 
Q 353 888 353 1747 
Q 353 2609 779 3096 
Q 1206 3584 1959 3584 
z
" transform="scale(0.015625)"/>
       <path id="DejaVuSans-63" d="M 3122 3366 
L 3122 2828 
Q 2878 2963 2633 3030 
Q 2388 3097 2138 3097 
Q 1578 3097 1268 2742 
Q 959 2388 959 1747 
Q 959 1106 1268 751 
Q 1578 397 2138 397 
Q 2388 397 2633 464 
Q 2878 531 3122 666 
L 3122 134 
Q 2881 22 2623 -34 
Q 2366 -91 2075 -91 
Q 1284 -91 818 406 
Q 353 903 353 1747 
Q 353 2603 823 3093 
Q 1294 3584 2113 3584 
Q 2378 3584 2631 3529 
Q 2884 3475 3122 3366 
z
" transform="scale(0.015625)"/>
       <path id="DejaVuSans-6b" d="M 581 4863 
L 1159 4863 
L 1159 1991 
L 2875 3500 
L 3609 3500 
L 1753 1863 
L 3688 0 
L 2938 0 
L 1159 1709 
L 1159 0 
L 581 0 
L 581 4863 
z
" transform="scale(0.015625)"/>
       <path id="DejaVuSans-20" transform="scale(0.015625)"/>
       <path id="DejaVuSans-50" d="M 1259 4147 
L 1259 2394 
L 2053 2394 
Q 2494 2394 2734 2622 
Q 2975 2850 2975 3272 
Q 2975 3691 2734 3919 
Q 2494 4147 2053 4147 
L 1259 4147 
z
M 628 4666 
L 2053 4666 
Q 2838 4666 3239 4311 
Q 3641 3956 3641 3272 
Q 3641 2581 3239 2228 
Q 2838 1875 2053 1875 
L 1259 1875 
L 1259 0 
L 628 0 
L 628 4666 
z
" transform="scale(0.015625)"/>
       <path id="DejaVuSans-72" d="M 2631 2963 
Q 2534 3019 2420 3045 
Q 2306 3072 2169 3072 
Q 1681 3072 1420 2755 
Q 1159 2438 1159 1844 
L 1159 0 
L 581 0 
L 581 3500 
L 1159 3500 
L 1159 2956 
Q 1341 3275 1631 3429 
Q 1922 3584 2338 3584 
Q 2397 3584 2469 3576 
Q 2541 3569 2628 3553 
L 2631 2963 
z
" transform="scale(0.015625)"/>
       <path id="DejaVuSans-69" d="M 603 3500 
L 1178 3500 
L 1178 0 
L 603 0 
L 603 3500 
z
M 603 4863 
L 1178 4863 
L 1178 4134 
L 603 4134 
L 603 4863 
z
" transform="scale(0.015625)"/>
      </defs>
      <use xlink:href="#DejaVuSans-53"/>
      <use xlink:href="#DejaVuSans-74" transform="translate(63.476562 0)"/>
      <use xlink:href="#DejaVuSans-6f" transform="translate(102.685547 0)"/>
      <use xlink:href="#DejaVuSans-63" transform="translate(163.867188 0)"/>
      <use xlink:href="#DejaVuSans-6b" transform="translate(218.847656 0)"/>
      <use xlink:href="#DejaVuSans-20" transform="translate(276.757812 0)"/>
      <use xlink:href="#DejaVuSans-50" transform="translate(308.544922 0)"/>
      <use xlink:href="#DejaVuSans-72" transform="translate(367.097656 0)"/>
      <use xlink:href="#DejaVuSans-69" transform="translate(408.210938 0)"/>
      <use xlink:href="#DejaVuSans-63" transform="translate(435.994141 0)"/>
      <use xlink:href="#DejaVuSans-65" transform="translate(490.974609 0)"/>
     </g>
    </g>
   </g>
   <g id="line2d_18">
    <path d="M 80.228969 138.357305 
L 80.647842 142.946308 
L 81.066715 126.340048 
L 81.485589 122.529044 
L 81.904462 108.350679 
L 84.417701 109.249402 
L 84.836574 124.360771 
L 86.093194 129.037708 
L 86.512067 122.713856 
L 86.93094 114.285531 
L 87.349813 116.920594 
L 87.768686 112.4702 
L 89.025306 117.248486 
L 89.444179 109.893264 
L 89.863052 111.976871 
L 90.281926 110.830738 
L 90.700799 99.205462 
L 91.957418 102.725834 
L 92.376291 116.859487 
L 92.795165 113.278007 
L 93.632911 110.577366 
L 94.889531 106.445922 
L 95.308404 97.130797 
L 95.727277 98.373808 
L 96.14615 97.421429 
L 97.821643 86.016735 
L 98.240516 84.073228 
L 98.659389 78.010199 
L 99.078263 84.588913 
L 99.497136 75.151574 
L 100.753755 82.550018 
L 101.172628 77.637594 
L 101.591502 69.304656 
L 102.010375 73.501679 
L 102.429248 64.711182 
L 103.685868 61.523173 
L 104.104741 62.247517 
L 104.523614 70.437375 
L 104.942487 59.518558 
L 105.36136 51.933811 
L 106.61798 44.557722 
L 107.036853 37.66304 
L 107.455726 47.970784 
L 107.874599 38.484261 
L 108.293473 41.210239 
L 109.550092 36.841818 
L 109.968965 37.809101 
L 110.387839 47.581785 
L 110.806712 44.675466 
L 111.225585 46.864893 
L 112.482205 57.917847 
L 112.901078 64.028569 
L 113.319951 62.86008 
L 113.738824 62.769164 
L 114.157697 73.729713 
L 115.414317 67.162922 
L 115.83319 70.628149 
L 116.252063 68.473002 
L 116.670936 75.588267 
L 117.08981 75.264846 
L 118.346429 79.07883 
L 118.765302 74.10977 
L 119.184176 77.23071 
L 119.603049 77.136813 
L 120.021922 85.419077 
L 121.278541 82.649877 
L 121.697415 94.820646 
L 122.116288 100.788288 
L 122.535161 95.637396 
L 122.954034 87.384941 
L 124.210654 88.702472 
L 124.629527 87.477347 
L 125.0484 94.415252 
L 125.467273 81.925533 
L 125.886147 82.281743 
L 127.142766 83.097003 
L 127.561639 84.265492 
L 127.980513 78.434969 
L 128.818259 88.255346 
L 130.074878 83.734902 
L 130.493752 86.763436 
L 130.912625 98.487079 
L 131.331498 93.446479 
L 131.750371 94.741654 
L 133.006991 97.428881 
L 133.425864 99.475228 
L 133.844737 99.02065 
L 134.26361 104.252024 
L 134.682484 107.252239 
L 135.939103 108.471403 
L 136.357976 102.979205 
L 136.776849 102.576792 
L 137.195723 105.155218 
L 137.614596 96.792472 
L 139.290089 94.211064 
L 140.127835 106.729102 
L 140.546708 120.804628 
L 141.803328 121.502145 
L 142.222201 120.780782 
L 143.059947 130.244949 
L 143.47882 132.230188 
L 144.73544 135.11266 
L 145.154313 126.822944 
L 145.573186 136.300525 
L 145.99206 136.534521 
L 146.410933 139.850705 
L 150.599665 152.362781 
L 151.018538 151.356748 
L 151.437411 142.91799 
L 151.856284 147.633679 
L 152.275157 134.249707 
L 153.531777 133.662482 
L 153.95065 134.875684 
L 154.369523 144.077537 
L 154.788397 147.296844 
L 155.20727 149.091309 
L 156.463889 165.414389 
L 156.882763 166.296718 
L 157.301636 161.907431 
L 157.720509 165.746753 
L 158.139382 179.132215 
L 159.396002 183.995455 
L 159.814875 165.295156 
L 160.233748 158.790963 
L 160.652621 163.248809 
L 161.071494 145.47257 
L 162.328114 144.260858 
L 162.746987 148.131479 
L 163.584734 157.616512 
L 164.003607 142.302446 
L 165.260226 141.470792 
L 165.679099 130.74722 
L 166.097973 135.453967 
L 166.935719 140.345525 
L 168.192339 145.180447 
L 168.611212 145.114869 
L 169.030085 144.524663 
L 169.448958 147.016645 
L 169.867831 144.189318 
L 171.124451 150.529565 
L 171.543324 133.362907 
L 171.962197 132.674333 
L 172.38107 126.454811 
L 172.799944 130.004991 
L 174.475436 115.510657 
L 174.89431 116.965307 
L 175.313183 116.855015 
L 175.732056 111.033435 
L 176.988676 117.710517 
L 177.407549 118.867082 
L 177.826422 117.494406 
L 178.245295 117.926627 
L 178.664168 117.592773 
L 179.920788 126.685826 
L 180.339661 136.254322 
L 180.758534 136.027778 
L 181.177407 135.209538 
L 181.596281 136.373556 
L 182.8529 134.097684 
L 183.271773 127.486181 
L 184.10952 132.12884 
L 184.528393 129.903642 
L 186.622759 126.726067 
L 187.041632 115.454021 
L 187.460505 113.619314 
L 188.717125 108.81569 
L 189.135998 108.167357 
L 189.554871 109.27623 
L 189.973744 108.10774 
L 190.392618 99.685377 
L 191.649237 90.209287 
L 192.06811 90.316597 
L 192.486984 91.349458 
L 193.32473 83.715527 
L 197.513462 80.761514 
L 197.932335 87.392393 
L 198.351208 81.569322 
L 198.770081 83.772163 
L 199.188955 89.662303 
L 200.445574 97.822352 
L 200.864447 96.726893 
L 201.28332 99.423063 
L 201.702194 91.267485 
L 202.121067 94.926466 
L 203.377686 89.373161 
L 203.79656 89.116809 
L 204.215433 92.336116 
L 204.634306 96.837185 
L 205.053179 105.627682 
L 206.309799 90.875505 
L 206.728672 89.256908 
L 207.147545 94.831079 
L 207.566418 95.322918 
L 207.985292 101.672107 
L 209.241911 104.23712 
L 209.660784 100.418664 
L 210.079657 91.85173 
L 210.498531 93.222916 
L 210.917404 91.313688 
L 212.174023 94.524053 
L 212.592897 103.490419 
L 213.430643 107.812637 
L 213.849516 115.668641 
L 215.106136 109.475946 
L 215.525009 113.051464 
L 215.943882 112.723571 
L 216.362755 119.840327 
L 216.781628 116.908671 
L 218.038248 119.85076 
L 218.457121 113.397241 
L 218.875994 110.854585 
L 219.294868 104.945069 
L 219.713741 106.739535 
L 220.97036 108.911077 
L 221.389234 110.844152 
L 221.808107 109.856003 
L 222.22698 105.028533 
L 224.321346 95.4034 
L 225.159092 96.367702 
L 225.577965 92.397223 
L 227.253458 95.844565 
L 227.672331 96.270825 
L 228.091205 100.490204 
L 228.510078 97.059257 
L 229.766697 88.507227 
L 230.18557 86.621846 
L 230.604444 92.20645 
L 231.023317 93.926394 
L 231.44219 105.916823 
L 233.117683 116.334859 
L 233.536556 116.847563 
L 233.955429 112.497027 
L 234.374302 106.435489 
L 236.887542 106.262601 
L 237.306415 108.255292 
L 238.563034 101.432149 
L 239.400781 111.237622 
L 239.819654 112.163173 
L 240.238527 120.047495 
L 241.495147 110.936558 
L 242.332893 116.707464 
L 242.751766 117.318536 
L 243.170639 119.03699 
L 244.427259 115.342239 
L 245.265005 131.772629 
L 245.683878 133.0529 
L 246.102752 132.985831 
L 247.359371 135.521035 
L 247.778244 134.953185 
L 248.197118 140.797122 
L 248.615991 139.555602 
L 249.034864 131.364254 
L 250.291484 133.984412 
L 250.710357 139.363338 
L 251.12923 142.168309 
L 251.548103 137.570363 
L 251.966976 135.109679 
L 253.223596 133.957585 
L 253.642469 130.905205 
L 254.061342 131.037852 
L 254.480215 121.87475 
L 254.899089 116.23351 
L 256.155708 121.068433 
L 256.574581 122.062543 
L 256.993455 131.036362 
L 259.087821 139.133813 
L 259.506694 133.808543 
L 259.925567 134.498607 
L 260.34444 137.324444 
L 260.763313 134.252688 
L 262.019933 126.7365 
L 262.438806 125.822873 
L 263.276552 134.207975 
L 263.695426 136.749141 
L 264.952045 133.972489 
L 265.370918 130.222592 
L 265.789792 134.105136 
L 266.208665 125.910807 
L 266.627538 125.809459 
L 268.303031 132.391153 
L 268.721904 132.997754 
L 269.140777 137.048716 
L 269.55965 137.314011 
L 270.81627 139.801522 
L 271.235143 123.421806 
L 271.654016 124.630537 
L 272.072889 125.325072 
L 272.491763 111.853166 
L 273.748382 108.590637 
L 274.167255 111.069205 
L 274.586128 115.257285 
L 275.005002 110.028892 
L 275.423875 107.703837 
L 277.518241 115.604553 
L 277.937114 114.389861 
L 278.355987 128.022732 
L 280.03148 133.643106 
L 280.450353 137.847581 
L 280.869226 135.944315 
L 281.288099 142.964193 
L 282.544719 151.078039 
L 282.963592 146.805005 
L 283.382465 155.985992 
L 283.801339 151.991667 
L 284.220212 154.119986 
L 285.476831 147.641131 
L 285.895705 142.053546 
L 286.314578 142.292013 
L 286.733451 145.755749 
L 287.152324 141.847868 
L 288.408944 133.283915 
L 288.827817 137.550987 
L 289.24669 138.786546 
L 289.665563 146.769235 
L 290.084436 149.523531 
L 291.341056 145.417424 
L 291.759929 146.451776 
L 292.178802 150.021332 
L 292.597676 150.489323 
L 293.016549 154.175132 
L 294.273168 151.353767 
L 294.692042 152.42836 
L 295.110915 154.635672 
L 295.529788 159.591318 
L 295.948661 149.681516 
L 297.205281 153.307708 
L 297.624154 156.543409 
L 298.043027 155.4092 
L 298.4619 157.045681 
L 303.069505 157.759592 
L 303.488378 161.873151 
L 303.907252 160.320134 
L 304.326125 155.129001 
L 304.744998 160.937168 
L 306.001618 166.423404 
L 306.420491 164.515666 
L 306.839364 168.811056 
L 307.258237 180.293252 
L 307.67711 183.713766 
L 308.93373 189.131443 
L 309.352603 187.210291 
L 309.771476 184.627393 
L 310.190349 183.184667 
L 310.609223 175.99339 
L 311.865842 172.806872 
L 312.284715 174.485085 
L 312.703589 174.705667 
L 313.122462 177.215535 
L 313.541335 172.751727 
L 314.797955 165.527661 
L 315.216828 167.442851 
L 315.635701 168.738026 
L 316.054574 168.475712 
L 316.473447 172.401478 
L 317.730067 173.456695 
L 318.14894 173.061734 
L 318.567813 169.307366 
L 318.986686 174.507442 
L 319.40556 175.146832 
L 320.662179 173.917235 
L 321.081052 173.209286 
L 321.499926 178.671675 
L 321.918799 176.123057 
L 322.337672 179.627034 
L 323.594292 183.512559 
L 324.013165 182.531863 
L 324.432038 187.034422 
L 324.850911 185.85848 
L 325.269784 187.84372 
L 326.526404 191.232935 
L 326.945277 201.051822 
L 327.36415 200.255937 
L 327.783023 201.495967 
L 328.201897 200.276803 
L 329.877389 196.201995 
L 330.296263 204.725707 
L 330.715136 207.356298 
L 331.134009 208.907825 
L 332.390628 210.723157 
L 332.809502 210.027131 
L 333.228375 215.473125 
L 333.647248 210.499594 
L 334.066121 209.551687 
L 335.322741 208.028478 
L 335.741614 211.405769 
L 336.160487 209.681353 
L 336.57936 198.02925 
L 336.998234 195.559624 
L 338.673726 202.230744 
L 339.092599 203.430532 
L 339.511473 208.088094 
L 339.930346 210.761908 
L 341.186965 217.178166 
L 341.605839 216.218335 
L 342.024712 218.509111 
L 342.443585 215.745872 
L 342.862458 217.459855 
L 344.119078 217.944242 
L 344.537951 214.969363 
L 344.956824 225.670579 
L 345.375697 218.866812 
L 345.794571 219.60457 
L 347.05119 227.187827 
L 347.470063 225.245809 
L 347.888936 218.512092 
L 348.30781 208.703638 
L 348.726683 210.05992 
L 349.983302 214.510314 
L 350.402176 223.291869 
L 350.821049 227.716926 
L 351.239922 227.365187 
L 351.658795 233.040706 
L 352.915415 229.942123 
L 353.334288 213.358219 
L 353.753161 208.597818 
L 354.172034 205.423223 
L 358.779639 199.628471 
L 359.198513 198.579215 
L 359.617386 191.720302 
L 360.036259 187.27885 
L 360.455132 186.821292 
L 361.711752 192.243439 
L 362.130625 186.068629 
L 362.549498 192.70547 
L 362.968371 182.895525 
L 363.387244 179.658333 
L 364.643864 179.200774 
L 365.062737 175.528379 
L 365.48161 177.683527 
L 365.900484 180.862592 
L 367.575976 171.988632 
L 367.99485 170.762016 
L 368.413723 174.507442 
L 368.832596 176.018727 
L 369.251469 174.860671 
L 370.508089 169.861802 
L 370.926962 173.72199 
L 371.345835 172.566915 
L 371.764708 173.206305 
L 372.183581 178.585231 
L 373.440201 181.452799 
L 373.859074 178.771533 
L 374.277947 184.876293 
L 376.372313 171.036253 
L 377.21006 175.187073 
L 379.304426 179.865501 
L 379.723299 180.300704 
L 380.142172 184.590133 
L 380.561045 184.660183 
L 380.979918 188.892975 
L 382.236538 177.977139 
L 382.655411 183.636264 
L 383.074284 175.544774 
L 383.493157 174.888989 
L 383.912031 179.083031 
L 385.16865 180.686723 
L 385.587523 184.365079 
L 386.006397 182.069833 
L 386.42527 180.779129 
L 386.844143 172.732351 
L 388.100763 166.824326 
L 388.519636 169.733626 
L 391.032875 161.76137 
L 391.451748 161.592952 
L 391.870621 165.883871 
L 392.289494 160.765769 
L 392.708368 160.509417 
L 393.964987 160.746394 
L 394.38386 161.885075 
L 394.802734 166.503886 
L 395.221607 164.372586 
L 395.64048 158.767116 
L 396.8971 156.83106 
L 397.315973 159.036882 
L 397.734846 157.801324 
L 398.572592 170.167339 
L 399.829212 165.065631 
L 400.248085 169.021206 
L 400.666958 168.372873 
L 401.504705 173.380684 
L 402.761324 172.064643 
L 403.180197 168.052433 
L 403.599071 171.16443 
L 404.017944 171.542996 
L 404.436817 174.246618 
L 406.11231 178.9012 
L 406.531183 178.716388 
L 406.950056 181.397653 
L 407.368929 179.102406 
L 408.625549 179.8968 
L 409.044422 178.497296 
L 409.463295 181.007163 
L 409.882168 184.803263 
L 410.301042 185.944925 
L 411.557661 188.748405 
L 411.976534 191.566789 
L 412.395407 188.23421 
L 412.814281 192.130168 
L 413.233154 191.006391 
L 414.489773 188.544217 
L 414.908647 189.496595 
L 415.32752 190.745567 
L 416.165266 195.567076 
L 417.421886 199.934007 
L 417.840759 194.262959 
L 418.259632 195.878574 
L 418.678505 190.036127 
L 419.097378 189.40568 
L 420.353998 188.831868 
L 420.772871 185.548473 
L 421.191744 185.056634 
L 422.029491 179.476502 
L 423.28611 183.068414 
L 423.704984 194.252526 
L 424.54273 200.305121 
L 424.961603 198.81172 
L 426.218223 201.576449 
L 426.637096 204.759987 
L 427.055969 193.924633 
L 427.474842 197.324281 
L 427.893715 202.522866 
L 429.150335 208.644021 
L 429.569208 208.694695 
L 429.988081 208.916768 
L 430.406955 208.700657 
L 430.825828 210.386322 
L 432.082447 211.246294 
L 432.501321 209.974966 
L 432.920194 213.723372 
L 433.339067 208.848209 
L 435.01456 206.609598 
L 435.433433 210.226847 
L 436.271179 213.142109 
L 436.690052 211.048068 
L 437.946672 211.490723 
L 438.784418 217.112587 
L 439.203292 218.427138 
L 439.622165 211.90655 
L 440.878784 220.3155 
L 441.297657 219.060566 
L 441.716531 222.23069 
L 442.135404 221.396054 
L 442.554277 225.332254 
L 443.810897 231.055466 
L 444.22977 230.636658 
L 444.648643 232.071933 
L 445.486389 236.078182 
L 447.580755 234.325448 
L 447.999628 230.594927 
L 448.418502 229.848226 
L 449.675121 228.102944 
L 450.093994 207.36375 
L 450.512868 199.968286 
L 451.350614 154.935246 
L 452.607234 108.110721 
L 455.958219 72.601465 
L 456.377092 117.33195 
L 456.795965 111.100504 
L 457.214839 127.58753 
L 458.471458 116.533085 
L 458.890331 132.234659 
L 459.309205 135.871284 
L 459.728078 142.335236 
L 460.146951 121.914991 
L 461.403571 120.429043 
L 461.822444 117.063674 
L 462.241317 114.763956 
L 462.66019 121.37844 
L 463.079063 117.266371 
L 464.335683 116.112786 
L 465.173429 127.247714 
L 465.592302 127.010737 
L 466.011176 127.16276 
L 467.267795 119.004201 
L 467.686668 104.128319 
L 468.105542 107.152381 
L 468.524415 89.055702 
L 468.943288 95.263301 
L 470.199907 91.227244 
L 470.618781 97.99226 
L 471.037654 94.243854 
L 471.8754 115.41676 
L 473.13202 118.166585 
L 473.550893 114.215482 
L 473.969766 112.891989 
L 474.388639 112.36587 
L 474.807513 130.787462 
L 476.064132 133.412091 
L 476.483005 134.591013 
L 476.901879 124.626065 
L 477.320752 129.766524 
L 477.739625 123.204205 
L 478.996244 118.576451 
L 479.415118 117.941532 
L 479.833991 121.120597 
L 480.252864 122.457504 
L 480.671737 114.774389 
L 481.928357 115.753595 
L 482.34723 111.420944 
L 482.766103 112.43592 
L 483.184976 106.523424 
L 483.60385 120.730107 
L 484.860469 123.910664 
L 485.279342 122.391926 
L 485.698215 119.431952 
L 486.117089 118.899872 
L 486.535962 121.540896 
L 487.792581 120.671981 
L 488.211455 113.201996 
L 489.049201 112.637127 
L 489.468074 113.598448 
L 490.724694 110.912711 
L 491.981313 137.539064 
L 492.400186 144.281724 
L 493.656806 145.204294 
L 494.075679 141.159294 
L 494.494552 142.186194 
L 494.913426 143.578246 
L 495.332299 150.642837 
L 496.588918 152.128785 
L 497.007792 137.518198 
L 497.426665 141.171218 
L 497.845538 140.522885 
L 498.264411 138.740343 
L 499.521031 136.155954 
L 499.939904 135.719261 
L 500.358777 141.023666 
L 500.77765 140.022104 
L 501.196523 135.682001 
L 502.453143 138.033884 
L 506.223002 141.312807 
L 507.060748 126.763328 
L 508.317368 125.517336 
L 508.736241 128.188169 
L 509.155114 122.715347 
L 509.573987 124.909245 
L 509.99286 119.861193 
L 511.24948 118.61073 
L 511.668353 123.770564 
L 512.087226 119.689794 
L 512.5061 121.368007 
L 512.924973 113.984467 
L 514.181592 115.284113 
L 514.600465 121.852394 
L 515.019339 116.741744 
L 515.438212 115.52258 
L 515.857085 127.158289 
L 517.113705 127.393775 
L 517.532578 127.878162 
L 517.951451 125.292283 
L 518.370324 117.293199 
L 518.789197 119.115983 
L 520.045817 121.382911 
L 520.46469 119.502001 
L 521.302436 123.949415 
L 521.72131 109.793406 
L 522.977929 111.249546 
L 523.396802 109.620517 
L 523.815676 109.255364 
L 524.234549 114.498661 
L 524.653422 123.484404 
L 525.910042 120.481207 
L 526.328915 120.861264 
L 526.747788 122.789868 
L 527.166661 120.84487 
L 527.585534 123.414354 
L 528.842154 127.566664 
L 529.261027 127.511518 
L 529.6799 128.001867 
L 530.098773 131.413438 
L 531.774266 171.961804 
L 532.193139 162.822549 
L 532.612013 157.452566 
L 533.030886 150.249366 
L 533.449759 147.954119 
L 535.125252 146.357879 
L 535.544125 144.630482 
L 535.962998 144.719908 
L 536.381871 144.675195 
L 537.638491 142.833036 
L 538.057364 142.971645 
L 538.476237 142.534952 
L 538.89511 142.910538 
L 539.313984 142.518557 
L 540.570603 143.318913 
L 540.989476 144.293647 
L 541.40835 144.965827 
L 541.40835 144.965827 
" clip-path="url(#p187753ea8f)" style="fill: none; stroke: #0000ff; stroke-width: 1.5; stroke-linecap: square"/>
   </g>
   <g id="line2d_19">
    <path d="M 80.228969 97.088767 
L 80.647842 110.986315 
L 81.066715 117.788103 
L 81.485589 113.254257 
L 81.904462 111.686259 
L 84.417701 104.298892 
L 84.836574 102.718705 
L 86.093194 109.027555 
L 86.512067 113.176788 
L 86.93094 111.147983 
L 87.349813 106.977609 
L 87.768686 107.449624 
L 89.025306 106.016077 
L 89.444179 107.388421 
L 89.863052 105.024926 
L 90.281926 104.9984 
L 90.700799 105.162033 
L 91.957418 97.972358 
L 92.376291 97.572135 
L 92.795165 101.898792 
L 93.214038 103.279359 
L 93.632911 102.965447 
L 94.889531 103.486475 
L 95.308404 103.180786 
L 95.727277 99.936357 
L 96.14615 99.381525 
L 97.821643 98.081192 
L 98.240516 89.782616 
L 99.078263 81.383503 
L 99.497136 80.969926 
L 100.753755 73.238736 
L 101.172628 76.262804 
L 101.591502 76.149203 
L 102.010375 69.195826 
L 102.429248 71.408896 
L 103.685868 70.346899 
L 104.104741 68.762164 
L 104.523614 68.269044 
L 104.942487 70.224711 
L 105.36136 66.054737 
L 106.61798 61.568558 
L 107.455726 51.080455 
L 107.874599 52.296589 
L 108.293473 49.216411 
L 109.550092 49.179806 
L 109.968965 46.849133 
L 110.387839 45.774546 
L 110.806712 48.953332 
L 111.225585 48.754076 
L 112.482205 49.691337 
L 113.319951 57.811797 
L 113.738824 58.535685 
L 114.157697 58.211911 
L 115.414317 61.847284 
L 115.83319 61.588426 
L 116.252063 64.135385 
L 116.670936 63.902143 
L 117.08981 65.955036 
L 118.346429 66.32735 
L 118.765302 68.533579 
L 119.184176 67.519977 
L 119.603049 69.140736 
L 120.021922 68.389631 
L 121.278541 70.917378 
L 121.697415 70.616456 
L 122.535161 77.559207 
L 122.954034 77.944402 
L 124.210654 75.213615 
L 124.629527 75.482007 
L 125.0484 74.659656 
L 125.467273 78.201005 
L 125.886147 73.116984 
L 127.142766 73.138526 
L 127.561639 73.90877 
L 127.980513 76.014862 
L 128.399386 74.101331 
L 128.818259 76.878621 
L 130.074878 79.521569 
L 130.493752 79.396325 
L 130.912625 81.522356 
L 131.331498 86.834525 
L 131.750371 86.754764 
L 133.006991 88.095705 
L 133.844737 91.284826 
L 134.26361 89.665959 
L 134.682484 90.906326 
L 135.939103 92.030181 
L 136.357976 92.850931 
L 136.776849 90.137901 
L 137.195723 89.483295 
L 137.614596 91.441072 
L 139.290089 84.643724 
L 139.708962 84.010878 
L 140.546708 93.889931 
L 141.803328 101.615772 
L 142.222201 106.246372 
L 142.641074 108.76484 
L 143.47882 116.678802 
L 144.73544 118.972179 
L 145.154313 121.194891 
L 145.573186 119.217028 
L 145.99206 122.98536 
L 146.410933 124.45242 
L 150.599665 128.017092 
L 151.018538 133.643282 
L 151.437411 135.589343 
L 151.856284 131.682048 
L 152.275157 132.400768 
L 153.95065 123.435215 
L 154.369523 124.975741 
L 154.788397 129.961552 
L 155.20727 133.605913 
L 156.463889 135.889392 
L 156.882763 142.014305 
L 157.301636 144.525568 
L 157.720509 142.301764 
L 158.139382 142.893856 
L 159.814875 150.493143 
L 160.233748 142.790371 
L 160.652621 138.110467 
L 161.071494 139.692546 
L 162.328114 132.143511 
L 162.746987 130.373637 
L 163.16586 132.046794 
L 163.584734 133.089069 
L 164.003607 136.264508 
L 165.679099 125.719677 
L 166.097973 119.398419 
L 166.516846 119.496409 
L 166.935719 121.420165 
L 168.192339 122.418811 
L 168.611212 125.540361 
L 169.448958 125.237656 
L 169.867831 127.406879 
L 171.124451 125.912529 
L 171.543324 128.905959 
L 171.962197 121.206572 
L 172.38107 118.15212 
L 172.799944 112.263178 
L 174.056563 113.095026 
L 174.475436 105.610433 
L 174.89431 103.030507 
L 175.313183 103.41421 
L 175.732056 104.330986 
L 176.988676 100.928673 
L 177.407549 103.217537 
L 177.826422 104.701189 
L 178.245295 104.871736 
L 178.664168 105.562802 
L 179.920788 104.777238 
L 180.339661 107.575633 
L 180.758534 112.981462 
L 181.177407 114.671793 
L 181.596281 114.340015 
L 182.8529 114.940586 
L 183.271773 113.327795 
L 183.690647 109.747403 
L 184.10952 108.912099 
L 184.528393 110.155304 
L 186.203886 109.52384 
L 186.622759 106.357498 
L 187.041632 104.364498 
L 187.460505 98.000667 
L 188.717125 94.515136 
L 189.135998 90.446173 
L 189.554871 89.418235 
L 189.973744 88.738813 
L 190.392618 87.405222 
L 191.649237 81.551321 
L 192.06811 72.140716 
L 192.486984 69.490999 
L 192.905857 68.843889 
L 193.32473 66.907144 
L 197.513462 62.765697 
L 197.932335 58.089869 
L 198.351208 62.572336 
L 198.770081 61.43247 
L 200.445574 68.758889 
L 200.864447 75.272344 
L 201.702194 80.753713 
L 202.121067 77.993671 
L 203.377686 81.757709 
L 203.79656 79.827004 
L 204.215433 80.37303 
L 205.053179 82.308684 
L 206.309799 87.972134 
L 206.728672 82.991745 
L 207.147545 81.30789 
L 207.566418 84.479108 
L 207.985292 85.72537 
L 209.241911 89.883554 
L 209.660784 92.313346 
L 210.079657 91.445293 
L 210.498531 88.508846 
L 210.917404 88.889456 
L 212.174023 87.765746 
L 212.592897 88.134931 
L 213.01177 90.417937 
L 213.430643 94.322139 
L 213.849516 93.614407 
L 215.106136 98.03367 
L 215.525009 97.486152 
L 215.943882 99.269962 
L 216.362755 100.137105 
L 216.781628 103.401984 
L 218.038248 102.332346 
L 218.457121 102.652771 
L 219.294868 101.888567 
L 219.713741 100.152643 
L 220.97036 100.863139 
L 221.389234 101.527024 
L 221.808107 103.739439 
L 222.22698 103.939168 
L 222.645853 101.885729 
L 223.902473 99.966559 
L 224.321346 96.219222 
L 225.159092 93.120342 
L 225.577965 93.61237 
L 226.834585 92.887391 
L 227.253458 93.66535 
L 227.672331 93.538285 
L 228.091205 92.938551 
L 228.510078 94.767154 
L 229.766697 93.697516 
L 230.18557 89.159886 
L 230.604444 87.13552 
L 231.023317 88.884289 
L 231.44219 90.019788 
L 232.69881 94.655809 
L 233.117683 99.479952 
L 233.536556 102.827867 
L 233.955429 104.756789 
L 234.374302 104.243438 
L 236.887542 101.564685 
L 237.306415 99.499056 
L 238.563034 100.070553 
L 238.981907 94.286989 
L 239.400781 93.186057 
L 240.238527 101.50843 
L 241.495147 106.758558 
L 241.91402 104.585733 
L 242.332893 106.361537 
L 243.170639 110.615493 
L 244.427259 113.330488 
L 244.846132 112.92226 
L 246.102752 124.030292 
L 247.359371 125.950445 
L 247.778244 126.85907 
L 248.197118 126.960553 
L 248.615991 127.52914 
L 249.034864 125.733031 
L 250.291484 121.06659 
L 250.710357 120.586716 
L 251.548103 124.462171 
L 251.966976 123.320596 
L 253.642469 119.936222 
L 254.480215 118.126067 
L 254.899089 114.229106 
L 256.155708 110.450513 
L 259.087821 117.221263 
L 259.506694 122.062326 
L 259.925567 121.866454 
L 260.34444 122.448067 
L 260.763313 123.83562 
L 262.019933 123.398355 
L 262.438806 119.684713 
L 262.857679 118.405375 
L 263.276552 119.983088 
L 263.695426 122.002797 
L 264.952045 123.998926 
L 265.370918 122.383916 
L 265.789792 120.166043 
L 266.208665 120.17172 
L 266.627538 115.740012 
L 267.884157 113.713063 
L 268.721904 117.749678 
L 269.140777 119.174674 
L 269.55965 121.112292 
L 270.81627 122.11909 
L 271.235143 123.941361 
L 271.654016 112.883689 
L 272.072889 110.633068 
L 272.491763 109.862023 
L 273.748382 99.843824 
L 274.167255 91.667837 
L 274.586128 92.269682 
L 275.005002 95.453999 
L 275.423875 95.597874 
L 276.680494 94.793862 
L 277.518241 100.194997 
L 277.937114 105.092315 
L 279.612607 113.705313 
L 280.450353 124.139235 
L 280.869226 129.299814 
L 281.288099 130.075444 
L 282.544719 132.747648 
L 282.963592 136.460453 
L 283.382465 134.607907 
L 283.801339 138.993475 
L 284.220212 137.835452 
L 285.476831 140.021123 
L 285.895705 132.794369 
L 286.314578 129.774085 
L 286.733451 129.950454 
L 287.152324 133.724026 
L 288.408944 134.354288 
L 288.827817 129.418073 
L 289.24669 130.203927 
L 289.665563 131.76734 
L 290.084436 136.45685 
L 291.341056 140.443724 
L 291.759929 138.929943 
L 292.178802 139.675735 
L 292.597676 141.619831 
L 293.016549 142.064119 
L 294.273168 142.490213 
L 294.692042 142.278512 
L 295.110915 144.351746 
L 295.529788 147.279643 
L 295.948661 150.998998 
L 297.205281 148.154428 
L 297.624154 149.529064 
L 298.043027 151.95649 
L 298.4619 151.761928 
L 303.488378 153.084458 
L 303.907252 154.588959 
L 304.326125 153.557782 
L 304.744998 150.074471 
L 306.001618 153.981875 
L 306.420491 158.371628 
L 306.839364 159.754742 
L 307.258237 162.827714 
L 307.67711 168.991816 
L 308.93373 173.739619 
L 309.352603 178.368545 
L 309.771476 178.592217 
L 310.190349 176.538669 
L 310.609223 176.277263 
L 311.865842 172.996556 
L 312.284715 169.58984 
L 313.122462 171.569159 
L 313.541335 173.533558 
L 314.797955 172.498306 
L 315.216828 167.914937 
L 315.635701 168.078643 
L 316.054574 168.466785 
L 316.473447 167.745518 
L 317.730067 170.299318 
L 318.14894 171.594157 
L 318.567813 172.438631 
L 318.986686 171.402505 
L 319.40556 173.495716 
L 320.662179 174.685723 
L 321.081052 174.665928 
L 321.499926 173.836191 
L 321.918799 176.245788 
L 322.337672 176.606349 
L 323.594292 178.545641 
L 324.013165 180.36049 
L 324.432038 180.531983 
L 324.850911 181.928305 
L 325.269784 181.396834 
L 326.526404 181.450578 
L 326.945277 183.584906 
L 327.36415 188.289844 
L 328.201897 190.864603 
L 329.458516 190.377961 
L 329.877389 188.50129 
L 330.296263 188.540407 
L 330.715136 192.705505 
L 331.134009 195.747511 
L 332.390628 197.122402 
L 332.809502 198.208924 
L 333.228375 198.469093 
L 333.647248 200.995092 
L 334.066121 199.552522 
L 335.322741 199.025307 
L 335.741614 199.144294 
L 336.160487 200.97799 
L 336.57936 200.979446 
L 336.998234 194.090838 
L 338.673726 191.125063 
L 339.092599 191.91179 
L 339.511473 192.945951 
L 339.930346 195.69697 
L 341.186965 197.53758 
L 341.605839 201.906374 
L 342.443585 206.309881 
L 342.862458 206.220405 
L 344.119078 207.811253 
L 344.537951 208.975935 
L 344.956824 208.177199 
L 345.375697 212.420603 
L 345.794571 208.341888 
L 347.05119 208.029067 
L 347.470063 209.500275 
L 347.888936 210.244902 
L 348.30781 206.673607 
L 348.726683 200.565323 
L 349.983302 198.468328 
L 350.402176 199.834996 
L 351.239922 210.877021 
L 351.658795 213.40666 
L 352.915415 216.676632 
L 353.334288 215.407083 
L 354.172034 199.896017 
L 358.779639 196.450585 
L 359.198513 193.13058 
L 359.617386 192.424777 
L 360.036259 188.761895 
L 360.455132 186.32781 
L 361.711752 185.180594 
L 362.130625 187.22752 
L 362.549498 186.205221 
L 362.968371 187.615044 
L 363.387244 184.393284 
L 364.643864 180.391637 
L 365.062737 177.763862 
L 365.48161 174.099925 
L 365.900484 173.484836 
L 366.319357 174.170407 
L 367.575976 173.862899 
L 367.99485 171.073055 
L 368.413723 169.060115 
L 369.251469 172.199094 
L 370.508089 172.814001 
L 370.926962 170.516841 
L 371.764708 173.011293 
L 372.183581 174.162111 
L 373.440201 176.940602 
L 373.859074 178.948812 
L 374.277947 178.632388 
L 374.696821 180.761113 
L 375.115694 179.491127 
L 376.372313 177.909629 
L 376.791186 171.29076 
L 377.21006 169.049053 
L 379.304426 168.580095 
L 380.142172 170.552718 
L 380.561045 172.306218 
L 380.979918 170.66399 
L 382.236538 174.077511 
L 382.655411 170.15497 
L 383.074284 171.083571 
L 383.493157 168.045494 
L 383.912031 166.336897 
L 385.16865 168.92843 
L 385.587523 171.051114 
L 386.006397 174.179686 
L 386.42527 175.275887 
L 386.844143 175.583031 
L 388.100763 170.191393 
L 388.519636 164.262134 
L 391.032875 164.899966 
L 391.451748 160.817649 
L 391.870621 160.448391 
L 392.289494 163.548872 
L 392.708368 162.962711 
L 393.964987 163.535846 
L 394.38386 164.213994 
L 394.802734 165.685857 
L 395.221607 168.69788 
L 395.64048 168.171867 
L 396.8971 165.448103 
L 397.315973 162.652037 
L 397.734846 163.956591 
L 398.153719 162.748681 
L 398.572592 164.539441 
L 399.829212 167.322881 
L 400.248085 165.371981 
L 400.666958 166.432195 
L 401.085831 166.117591 
L 401.504705 166.852576 
L 402.761324 167.249524 
L 403.599071 164.45546 
L 404.017944 165.596963 
L 404.436817 165.531211 
L 406.11231 166.813314 
L 406.531183 169.430209 
L 406.950056 174.696675 
L 407.368929 178.092803 
L 408.625549 177.516538 
L 409.044422 179.075621 
L 409.463295 179.831238 
L 409.882168 182.285919 
L 410.301042 183.712406 
L 411.557661 183.426803 
L 411.976534 183.484695 
L 412.395407 184.316871 
L 412.814281 183.518863 
L 413.233154 184.707524 
L 414.489773 185.046543 
L 414.908647 186.011823 
L 415.32752 188.04172 
L 416.165266 193.212742 
L 417.421886 195.064051 
L 417.840759 197.802734 
L 418.259632 196.073686 
L 418.678505 196.399861 
L 419.097378 193.073561 
L 420.353998 192.310594 
L 420.772871 192.756556 
L 421.191744 191.961495 
L 421.610618 191.637285 
L 422.029491 190.563317 
L 423.28611 189.062199 
L 423.704984 189.724737 
L 424.123857 194.139015 
L 424.961603 199.10052 
L 426.218223 199.057219 
L 426.637096 200.026283 
L 427.055969 197.9755 
L 427.474842 187.367647 
L 427.893715 183.255747 
L 429.569208 182.361459 
L 430.406955 180.691904 
L 430.825828 179.686417 
L 432.082447 180.407174 
L 432.501321 179.716436 
L 432.920194 178.139742 
L 433.339067 179.306425 
L 433.75794 176.938928 
L 435.01456 176.888495 
L 435.433433 175.954763 
L 435.852306 177.765172 
L 436.690052 182.558459 
L 437.946672 183.332306 
L 438.365545 184.116159 
L 438.784418 186.66068 
L 439.203292 190.100472 
L 439.622165 191.14966 
L 440.878784 185.591369 
L 441.297657 186.637246 
L 441.716531 186.339344 
L 442.135404 188.020324 
L 442.554277 188.758293 
L 443.810897 191.242666 
L 445.486389 208.954503 
L 447.580755 213.239133 
L 447.999628 215.123444 
L 448.418502 213.182587 
L 449.675121 212.693579 
L 450.093994 212.927622 
L 451.350614 168.554952 
L 452.607234 148.657153 
L 455.958219 106.023246 
L 456.377092 68.145619 
L 456.795965 78.332363 
L 457.214839 80.142845 
L 458.471458 90.479358 
L 458.890331 89.630809 
L 459.309205 97.598952 
L 460.146951 106.495188 
L 461.822444 92.051068 
L 462.66019 88.183253 
L 463.079063 91.398208 
L 464.335683 92.497539 
L 464.754556 95.200599 
L 465.592302 107.00872 
L 466.011176 107.437034 
L 467.267795 107.429211 
L 467.686668 106.533394 
L 468.105542 98.160225 
L 468.524415 95.328827 
L 468.943288 86.071339 
L 470.199907 83.128488 
L 470.618781 80.02415 
L 471.037654 82.111174 
L 471.456527 83.00841 
L 471.8754 88.924897 
L 473.550893 97.188359 
L 473.969766 98.275099 
L 474.388639 99.956261 
L 474.807513 101.069819 
L 476.064132 108.035786 
L 476.901879 114.697373 
L 477.320752 112.132621 
L 477.739625 114.458091 
L 478.996244 111.674397 
L 479.415118 108.469849 
L 479.833991 106.792689 
L 480.252864 107.711175 
L 480.671737 109.780225 
L 481.928357 106.441262 
L 482.34723 103.508344 
L 482.766103 98.018824 
L 483.184976 99.882868 
L 483.60385 98.836263 
L 484.860469 103.899106 
L 485.279342 108.35079 
L 485.698215 109.716583 
L 486.535962 110.912594 
L 487.792581 112.342139 
L 488.211455 112.131893 
L 488.630328 110.370061 
L 489.468074 108.913445 
L 490.724694 108.068207 
L 491.143567 106.369906 
L 491.981313 108.922687 
L 492.400186 115.119865 
L 493.656806 120.602107 
L 494.075679 124.459879 
L 494.494552 125.210875 
L 494.913426 126.331746 
L 495.332299 128.834094 
L 496.588918 131.964595 
L 497.007792 133.963126 
L 497.426665 127.688843 
L 497.845538 127.243682 
L 498.264411 126.337968 
L 499.521031 126.052147 
L 500.358777 122.319947 
L 500.77765 123.980769 
L 501.196523 121.984821 
L 502.453143 119.964858 
L 506.223002 120.143046 
L 506.641875 121.521357 
L 507.060748 119.175438 
L 508.736241 112.169409 
L 509.155114 112.088156 
L 509.573987 109.427487 
L 509.99286 109.09509 
L 511.24948 105.78742 
L 511.668353 102.538989 
L 512.087226 102.713247 
L 512.5061 101.563921 
L 512.924973 102.886668 
L 514.181592 98.523187 
L 514.600465 98.356534 
L 515.019339 101.9398 
L 515.857085 99.739612 
L 517.532578 105.833886 
L 517.951451 108.221106 
L 518.370324 108.467665 
L 518.789197 105.001238 
L 520.045817 104.964232 
L 520.46469 106.244152 
L 520.883563 107.020073 
L 521.72131 110.751181 
L 522.977929 104.404524 
L 523.396802 104.43236 
L 523.815676 104.840807 
L 524.234549 105.564366 
L 524.653422 108.327356 
L 525.910042 111.81507 
L 526.328915 112.255137 
L 526.747788 113.482841 
L 527.166661 115.361367 
L 527.585534 115.931809 
L 528.842154 116.83323 
L 529.261027 120.472023 
L 530.098773 125.275862 
L 531.774266 127.226835 
L 532.193139 137.698746 
L 532.612013 136.718875 
L 533.030886 134.266231 
L 533.449759 129.674239 
L 534.706379 130.375638 
L 535.125252 130.802861 
L 535.544125 131.717198 
L 535.962998 130.849727 
L 537.638491 132.465938 
L 538.057364 132.366091 
L 538.476237 132.930311 
L 538.89511 132.86012 
L 539.313984 133.73254 
L 540.570603 133.764634 
L 541.40835 135.384992 
L 541.40835 135.384992 
" clip-path="url(#p187753ea8f)" style="fill: none; stroke-dasharray: 5.55,2.4; stroke-dashoffset: 0; stroke: #ff0000; stroke-width: 1.5"/>
   </g>
   <g id="patch_3">
    <path d="M 57.17 246.04 
L 57.17 26.88 
" style="fill: none; stroke: #000000; stroke-width: 0.8; stroke-linejoin: miter; stroke-linecap: square"/>
   </g>
   <g id="patch_4">
    <path d="M 564.467319 246.04 
L 564.467319 26.88 
" style="fill: none; stroke: #000000; stroke-width: 0.8; stroke-linejoin: miter; stroke-linecap: square"/>
   </g>
   <g id="patch_5">
    <path d="M 57.17 246.04 
L 564.467319 246.04 
" style="fill: none; stroke: #000000; stroke-width: 0.8; stroke-linejoin: miter; stroke-linecap: square"/>
   </g>
   <g id="patch_6">
    <path d="M 57.17 26.88 
L 564.467319 26.88 
" style="fill: none; stroke: #000000; stroke-width: 0.8; stroke-linejoin: miter; stroke-linecap: square"/>
   </g>
   <g id="text_20">
    <!-- Real vs Predicted Stock Prices -->
    <g transform="translate(221.046472 20.88) scale(0.12 -0.12)">
     <defs>
      <path id="DejaVuSans-52" d="M 2841 2188 
Q 3044 2119 3236 1894 
Q 3428 1669 3622 1275 
L 4263 0 
L 3584 0 
L 2988 1197 
Q 2756 1666 2539 1819 
Q 2322 1972 1947 1972 
L 1259 1972 
L 1259 0 
L 628 0 
L 628 4666 
L 2053 4666 
Q 2853 4666 3247 4331 
Q 3641 3997 3641 3322 
Q 3641 2881 3436 2590 
Q 3231 2300 2841 2188 
z
M 1259 4147 
L 1259 2491 
L 2053 2491 
Q 2509 2491 2742 2702 
Q 2975 2913 2975 3322 
Q 2975 3731 2742 3939 
Q 2509 4147 2053 4147 
L 1259 4147 
z
" transform="scale(0.015625)"/>
      <path id="DejaVuSans-6c" d="M 603 4863 
L 1178 4863 
L 1178 0 
L 603 0 
L 603 4863 
z
" transform="scale(0.015625)"/>
      <path id="DejaVuSans-76" d="M 191 3500 
L 800 3500 
L 1894 563 
L 2988 3500 
L 3597 3500 
L 2284 0 
L 1503 0 
L 191 3500 
z
" transform="scale(0.015625)"/>
      <path id="DejaVuSans-73" d="M 2834 3397 
L 2834 2853 
Q 2591 2978 2328 3040 
Q 2066 3103 1784 3103 
Q 1356 3103 1142 2972 
Q 928 2841 928 2578 
Q 928 2378 1081 2264 
Q 1234 2150 1697 2047 
L 1894 2003 
Q 2506 1872 2764 1633 
Q 3022 1394 3022 966 
Q 3022 478 2636 193 
Q 2250 -91 1575 -91 
Q 1294 -91 989 -36 
Q 684 19 347 128 
L 347 722 
Q 666 556 975 473 
Q 1284 391 1588 391 
Q 1994 391 2212 530 
Q 2431 669 2431 922 
Q 2431 1156 2273 1281 
Q 2116 1406 1581 1522 
L 1381 1569 
Q 847 1681 609 1914 
Q 372 2147 372 2553 
Q 372 3047 722 3315 
Q 1072 3584 1716 3584 
Q 2034 3584 2315 3537 
Q 2597 3491 2834 3397 
z
" transform="scale(0.015625)"/>
      <path id="DejaVuSans-64" d="M 2906 2969 
L 2906 4863 
L 3481 4863 
L 3481 0 
L 2906 0 
L 2906 525 
Q 2725 213 2448 61 
Q 2172 -91 1784 -91 
Q 1150 -91 751 415 
Q 353 922 353 1747 
Q 353 2572 751 3078 
Q 1150 3584 1784 3584 
Q 2172 3584 2448 3432 
Q 2725 3281 2906 2969 
z
M 947 1747 
Q 947 1113 1208 752 
Q 1469 391 1925 391 
Q 2381 391 2643 752 
Q 2906 1113 2906 1747 
Q 2906 2381 2643 2742 
Q 2381 3103 1925 3103 
Q 1469 3103 1208 2742 
Q 947 2381 947 1747 
z
" transform="scale(0.015625)"/>
     </defs>
     <use xlink:href="#DejaVuSans-52"/>
     <use xlink:href="#DejaVuSans-65" transform="translate(64.982422 0)"/>
     <use xlink:href="#DejaVuSans-61" transform="translate(126.505859 0)"/>
     <use xlink:href="#DejaVuSans-6c" transform="translate(187.785156 0)"/>
     <use xlink:href="#DejaVuSans-20" transform="translate(215.568359 0)"/>
     <use xlink:href="#DejaVuSans-76" transform="translate(247.355469 0)"/>
     <use xlink:href="#DejaVuSans-73" transform="translate(306.535156 0)"/>
     <use xlink:href="#DejaVuSans-20" transform="translate(358.634766 0)"/>
     <use xlink:href="#DejaVuSans-50" transform="translate(390.421875 0)"/>
     <use xlink:href="#DejaVuSans-72" transform="translate(448.974609 0)"/>
     <use xlink:href="#DejaVuSans-65" transform="translate(487.837891 0)"/>
     <use xlink:href="#DejaVuSans-64" transform="translate(549.361328 0)"/>
     <use xlink:href="#DejaVuSans-69" transform="translate(612.837891 0)"/>
     <use xlink:href="#DejaVuSans-63" transform="translate(640.621094 0)"/>
     <use xlink:href="#DejaVuSans-74" transform="translate(695.601562 0)"/>
     <use xlink:href="#DejaVuSans-65" transform="translate(734.810547 0)"/>
     <use xlink:href="#DejaVuSans-64" transform="translate(796.333984 0)"/>
     <use xlink:href="#DejaVuSans-20" transform="translate(859.810547 0)"/>
     <use xlink:href="#DejaVuSans-53" transform="translate(891.597656 0)"/>
     <use xlink:href="#DejaVuSans-74" transform="translate(955.074219 0)"/>
     <use xlink:href="#DejaVuSans-6f" transform="translate(994.283203 0)"/>
     <use xlink:href="#DejaVuSans-63" transform="translate(1055.464844 0)"/>
     <use xlink:href="#DejaVuSans-6b" transform="translate(1110.445312 0)"/>
     <use xlink:href="#DejaVuSans-20" transform="translate(1168.355469 0)"/>
     <use xlink:href="#DejaVuSans-50" transform="translate(1200.142578 0)"/>
     <use xlink:href="#DejaVuSans-72" transform="translate(1258.695312 0)"/>
     <use xlink:href="#DejaVuSans-69" transform="translate(1299.808594 0)"/>
     <use xlink:href="#DejaVuSans-63" transform="translate(1327.591797 0)"/>
     <use xlink:href="#DejaVuSans-65" transform="translate(1382.572266 0)"/>
     <use xlink:href="#DejaVuSans-73" transform="translate(1444.095703 0)"/>
    </g>
   </g>
   <g id="legend_1">
    <g id="patch_7">
     <path d="M 445.743881 64.23625 
L 557.467319 64.23625 
Q 559.467319 64.23625 559.467319 62.23625 
L 559.467319 33.88 
Q 559.467319 31.88 557.467319 31.88 
L 445.743881 31.88 
Q 443.743881 31.88 443.743881 33.88 
L 443.743881 62.23625 
Q 443.743881 64.23625 445.743881 64.23625 
z
" style="fill: #ffffff; opacity: 0.8; stroke: #cccccc; stroke-linejoin: miter"/>
    </g>
    <g id="line2d_20">
     <path d="M 447.743881 39.978438 
L 457.743881 39.978438 
L 467.743881 39.978438 
" style="fill: none; stroke: #0000ff; stroke-width: 1.5; stroke-linecap: square"/>
    </g>
    <g id="text_21">
     <!-- Real Prices -->
     <g transform="translate(475.743881 43.478438) scale(0.1 -0.1)">
      <use xlink:href="#DejaVuSans-52"/>
      <use xlink:href="#DejaVuSans-65" transform="translate(64.982422 0)"/>
      <use xlink:href="#DejaVuSans-61" transform="translate(126.505859 0)"/>
      <use xlink:href="#DejaVuSans-6c" transform="translate(187.785156 0)"/>
      <use xlink:href="#DejaVuSans-20" transform="translate(215.568359 0)"/>
      <use xlink:href="#DejaVuSans-50" transform="translate(247.355469 0)"/>
      <use xlink:href="#DejaVuSans-72" transform="translate(305.908203 0)"/>
      <use xlink:href="#DejaVuSans-69" transform="translate(347.021484 0)"/>
      <use xlink:href="#DejaVuSans-63" transform="translate(374.804688 0)"/>
      <use xlink:href="#DejaVuSans-65" transform="translate(429.785156 0)"/>
      <use xlink:href="#DejaVuSans-73" transform="translate(491.308594 0)"/>
     </g>
    </g>
    <g id="line2d_21">
     <path d="M 447.743881 54.656563 
L 457.743881 54.656563 
L 467.743881 54.656563 
" style="fill: none; stroke-dasharray: 5.55,2.4; stroke-dashoffset: 0; stroke: #ff0000; stroke-width: 1.5"/>
    </g>
    <g id="text_22">
     <!-- Predicted Prices -->
     <g transform="translate(475.743881 58.156563) scale(0.1 -0.1)">
      <use xlink:href="#DejaVuSans-50"/>
      <use xlink:href="#DejaVuSans-72" transform="translate(58.552734 0)"/>
      <use xlink:href="#DejaVuSans-65" transform="translate(97.416016 0)"/>
      <use xlink:href="#DejaVuSans-64" transform="translate(158.939453 0)"/>
      <use xlink:href="#DejaVuSans-69" transform="translate(222.416016 0)"/>
      <use xlink:href="#DejaVuSans-63" transform="translate(250.199219 0)"/>
      <use xlink:href="#DejaVuSans-74" transform="translate(305.179688 0)"/>
      <use xlink:href="#DejaVuSans-65" transform="translate(344.388672 0)"/>
      <use xlink:href="#DejaVuSans-64" transform="translate(405.912109 0)"/>
      <use xlink:href="#DejaVuSans-20" transform="translate(469.388672 0)"/>
      <use xlink:href="#DejaVuSans-50" transform="translate(501.175781 0)"/>
      <use xlink:href="#DejaVuSans-72" transform="translate(559.728516 0)"/>
      <use xlink:href="#DejaVuSans-69" transform="translate(600.841797 0)"/>
      <use xlink:href="#DejaVuSans-63" transform="translate(628.625 0)"/>
      <use xlink:href="#DejaVuSans-65" transform="translate(683.605469 0)"/>
      <use xlink:href="#DejaVuSans-73" transform="translate(745.128906 0)"/>
     </g>
    </g>
   </g>
  </g>
 </g>
 <defs>
  <clipPath id="p187753ea8f">
   <rect x="57.17" y="26.88" width="507.297319" height="219.16"/>
  </clipPath>
 </defs>
</svg>
