<?xml version="1.0" encoding="utf-8" standalone="no"?>
<!DOCTYPE svg PUBLIC "-//W3C//DTD SVG 1.1//EN"
  "http://www.w3.org/Graphics/SVG/1.1/DTD/svg11.dtd">
<svg xmlns:xlink="http://www.w3.org/1999/xlink" width="576pt" height="288pt" viewBox="0 0 576 288" xmlns="http://www.w3.org/2000/svg" version="1.1">
 <metadata>
  <rdf:RDF xmlns:dc="http://purl.org/dc/elements/1.1/" xmlns:cc="http://creativecommons.org/ns#" xmlns:rdf="http://www.w3.org/1999/02/22-rdf-syntax-ns#">
   <cc:Work>
    <dc:type rdf:resource="http://purl.org/dc/dcmitype/StillImage"/>
    <dc:date>2025-05-11T03:16:13.210590</dc:date>
    <dc:format>image/svg+xml</dc:format>
    <dc:creator>
     <cc:Agent>
      <dc:title>Matplotlib v3.10.1, https://matplotlib.org/</dc:title>
     </cc:Agent>
    </dc:creator>
   </cc:Work>
  </rdf:RDF>
 </metadata>
 <defs>
  <style type="text/css">*{stroke-linejoin: round; stroke-linecap: butt}</style>
 </defs>
 <g id="figure_1">
  <g id="patch_1">
   <path d="M 0 288 
L 576 288 
L 576 0 
L 0 0 
z
" style="fill: #ffffff"/>
  </g>
  <g id="axes_1">
   <g id="patch_2">
    <path d="M 57.17 246.04 
L 564.467319 246.04 
L 564.467319 26.88 
L 57.17 26.88 
z
" style="fill: #ffffff"/>
   </g>
   <g id="matplotlib.axis_1">
    <g id="xtick_1">
     <g id="line2d_1">
      <defs>
       <path id="m2a55720a16" d="M 0 0 
L 0 3.5 
" style="stroke: #000000; stroke-width: 0.8"/>
      </defs>
      <g>
       <use xlink:href="#m2a55720a16" x="82.742208" y="246.04" style="stroke: #000000; stroke-width: 0.8"/>
      </g>
     </g>
     <g id="text_1">
      <!-- 2022-05 -->
      <g transform="translate(61.850802 260.638438) scale(0.1 -0.1)">
       <defs>
        <path id="DejaVuSans-32" d="M 1228 531 
L 3431 531 
L 3431 0 
L 469 0 
L 469 531 
Q 828 903 1448 1529 
Q 2069 2156 2228 2338 
Q 2531 2678 2651 2914 
Q 2772 3150 2772 3378 
Q 2772 3750 2511 3984 
Q 2250 4219 1831 4219 
Q 1534 4219 1204 4116 
Q 875 4013 500 3803 
L 500 4441 
Q 881 4594 1212 4672 
Q 1544 4750 1819 4750 
Q 2544 4750 2975 4387 
Q 3406 4025 3406 3419 
Q 3406 3131 3298 2873 
Q 3191 2616 2906 2266 
Q 2828 2175 2409 1742 
Q 1991 1309 1228 531 
z
" transform="scale(0.015625)"/>
        <path id="DejaVuSans-30" d="M 2034 4250 
Q 1547 4250 1301 3770 
Q 1056 3291 1056 2328 
Q 1056 1369 1301 889 
Q 1547 409 2034 409 
Q 2525 409 2770 889 
Q 3016 1369 3016 2328 
Q 3016 3291 2770 3770 
Q 2525 4250 2034 4250 
z
M 2034 4750 
Q 2819 4750 3233 4129 
Q 3647 3509 3647 2328 
Q 3647 1150 3233 529 
Q 2819 -91 2034 -91 
Q 1250 -91 836 529 
Q 422 1150 422 2328 
Q 422 3509 836 4129 
Q 1250 4750 2034 4750 
z
" transform="scale(0.015625)"/>
        <path id="DejaVuSans-2d" d="M 313 2009 
L 1997 2009 
L 1997 1497 
L 313 1497 
L 313 2009 
z
" transform="scale(0.015625)"/>
        <path id="DejaVuSans-35" d="M 691 4666 
L 3169 4666 
L 3169 4134 
L 1269 4134 
L 1269 2991 
Q 1406 3038 1543 3061 
Q 1681 3084 1819 3084 
Q 2600 3084 3056 2656 
Q 3513 2228 3513 1497 
Q 3513 744 3044 326 
Q 2575 -91 1722 -91 
Q 1428 -91 1123 -41 
Q 819 9 494 109 
L 494 744 
Q 775 591 1075 516 
Q 1375 441 1709 441 
Q 2250 441 2565 725 
Q 2881 1009 2881 1497 
Q 2881 1984 2565 2268 
Q 2250 2553 1709 2553 
Q 1456 2553 1204 2497 
Q 953 2441 691 2322 
L 691 4666 
z
" transform="scale(0.015625)"/>
       </defs>
       <use xlink:href="#DejaVuSans-32"/>
       <use xlink:href="#DejaVuSans-30" transform="translate(63.623047 0)"/>
       <use xlink:href="#DejaVuSans-32" transform="translate(127.246094 0)"/>
       <use xlink:href="#DejaVuSans-32" transform="translate(190.869141 0)"/>
       <use xlink:href="#DejaVuSans-2d" transform="translate(254.492188 0)"/>
       <use xlink:href="#DejaVuSans-30" transform="translate(290.576172 0)"/>
       <use xlink:href="#DejaVuSans-35" transform="translate(354.199219 0)"/>
      </g>
     </g>
    </g>
    <g id="xtick_2">
     <g id="line2d_2">
      <g>
       <use xlink:href="#m2a55720a16" x="134.26361" y="246.04" style="stroke: #000000; stroke-width: 0.8"/>
      </g>
     </g>
     <g id="text_2">
      <!-- 2022-09 -->
      <g transform="translate(113.372204 260.638438) scale(0.1 -0.1)">
       <defs>
        <path id="DejaVuSans-39" d="M 703 97 
L 703 672 
Q 941 559 1184 500 
Q 1428 441 1663 441 
Q 2288 441 2617 861 
Q 2947 1281 2994 2138 
Q 2813 1869 2534 1725 
Q 2256 1581 1919 1581 
Q 1219 1581 811 2004 
Q 403 2428 403 3163 
Q 403 3881 828 4315 
Q 1253 4750 1959 4750 
Q 2769 4750 3195 4129 
Q 3622 3509 3622 2328 
Q 3622 1225 3098 567 
Q 2575 -91 1691 -91 
Q 1453 -91 1209 -44 
Q 966 3 703 97 
z
M 1959 2075 
Q 2384 2075 2632 2365 
Q 2881 2656 2881 3163 
Q 2881 3666 2632 3958 
Q 2384 4250 1959 4250 
Q 1534 4250 1286 3958 
Q 1038 3666 1038 3163 
Q 1038 2656 1286 2365 
Q 1534 2075 1959 2075 
z
" transform="scale(0.015625)"/>
       </defs>
       <use xlink:href="#DejaVuSans-32"/>
       <use xlink:href="#DejaVuSans-30" transform="translate(63.623047 0)"/>
       <use xlink:href="#DejaVuSans-32" transform="translate(127.246094 0)"/>
       <use xlink:href="#DejaVuSans-32" transform="translate(190.869141 0)"/>
       <use xlink:href="#DejaVuSans-2d" transform="translate(254.492188 0)"/>
       <use xlink:href="#DejaVuSans-30" transform="translate(290.576172 0)"/>
       <use xlink:href="#DejaVuSans-39" transform="translate(354.199219 0)"/>
      </g>
     </g>
    </g>
    <g id="xtick_3">
     <g id="line2d_3">
      <g>
       <use xlink:href="#m2a55720a16" x="185.366139" y="246.04" style="stroke: #000000; stroke-width: 0.8"/>
      </g>
     </g>
     <g id="text_3">
      <!-- 2023-01 -->
      <g transform="translate(164.474733 260.638438) scale(0.1 -0.1)">
       <defs>
        <path id="DejaVuSans-33" d="M 2597 2516 
Q 3050 2419 3304 2112 
Q 3559 1806 3559 1356 
Q 3559 666 3084 287 
Q 2609 -91 1734 -91 
Q 1441 -91 1130 -33 
Q 819 25 488 141 
L 488 750 
Q 750 597 1062 519 
Q 1375 441 1716 441 
Q 2309 441 2620 675 
Q 2931 909 2931 1356 
Q 2931 1769 2642 2001 
Q 2353 2234 1838 2234 
L 1294 2234 
L 1294 2753 
L 1863 2753 
Q 2328 2753 2575 2939 
Q 2822 3125 2822 3475 
Q 2822 3834 2567 4026 
Q 2313 4219 1838 4219 
Q 1578 4219 1281 4162 
Q 984 4106 628 3988 
L 628 4550 
Q 988 4650 1302 4700 
Q 1616 4750 1894 4750 
Q 2613 4750 3031 4423 
Q 3450 4097 3450 3541 
Q 3450 3153 3228 2886 
Q 3006 2619 2597 2516 
z
" transform="scale(0.015625)"/>
        <path id="DejaVuSans-31" d="M 794 531 
L 1825 531 
L 1825 4091 
L 703 3866 
L 703 4441 
L 1819 4666 
L 2450 4666 
L 2450 531 
L 3481 531 
L 3481 0 
L 794 0 
L 794 531 
z
" transform="scale(0.015625)"/>
       </defs>
       <use xlink:href="#DejaVuSans-32"/>
       <use xlink:href="#DejaVuSans-30" transform="translate(63.623047 0)"/>
       <use xlink:href="#DejaVuSans-32" transform="translate(127.246094 0)"/>
       <use xlink:href="#DejaVuSans-33" transform="translate(190.869141 0)"/>
       <use xlink:href="#DejaVuSans-2d" transform="translate(254.492188 0)"/>
       <use xlink:href="#DejaVuSans-30" transform="translate(290.576172 0)"/>
       <use xlink:href="#DejaVuSans-31" transform="translate(354.199219 0)"/>
      </g>
     </g>
    </g>
    <g id="xtick_4">
     <g id="line2d_4">
      <g>
       <use xlink:href="#m2a55720a16" x="235.630922" y="246.04" style="stroke: #000000; stroke-width: 0.8"/>
      </g>
     </g>
     <g id="text_4">
      <!-- 2023-05 -->
      <g transform="translate(214.739516 260.638438) scale(0.1 -0.1)">
       <use xlink:href="#DejaVuSans-32"/>
       <use xlink:href="#DejaVuSans-30" transform="translate(63.623047 0)"/>
       <use xlink:href="#DejaVuSans-32" transform="translate(127.246094 0)"/>
       <use xlink:href="#DejaVuSans-33" transform="translate(190.869141 0)"/>
       <use xlink:href="#DejaVuSans-2d" transform="translate(254.492188 0)"/>
       <use xlink:href="#DejaVuSans-30" transform="translate(290.576172 0)"/>
       <use xlink:href="#DejaVuSans-35" transform="translate(354.199219 0)"/>
      </g>
     </g>
    </g>
    <g id="xtick_5">
     <g id="line2d_5">
      <g>
       <use xlink:href="#m2a55720a16" x="287.152324" y="246.04" style="stroke: #000000; stroke-width: 0.8"/>
      </g>
     </g>
     <g id="text_5">
      <!-- 2023-09 -->
      <g transform="translate(266.260918 260.638438) scale(0.1 -0.1)">
       <use xlink:href="#DejaVuSans-32"/>
       <use xlink:href="#DejaVuSans-30" transform="translate(63.623047 0)"/>
       <use xlink:href="#DejaVuSans-32" transform="translate(127.246094 0)"/>
       <use xlink:href="#DejaVuSans-33" transform="translate(190.869141 0)"/>
       <use xlink:href="#DejaVuSans-2d" transform="translate(254.492188 0)"/>
       <use xlink:href="#DejaVuSans-30" transform="translate(290.576172 0)"/>
       <use xlink:href="#DejaVuSans-39" transform="translate(354.199219 0)"/>
      </g>
     </g>
    </g>
    <g id="xtick_6">
     <g id="line2d_6">
      <g>
       <use xlink:href="#m2a55720a16" x="338.254853" y="246.04" style="stroke: #000000; stroke-width: 0.8"/>
      </g>
     </g>
     <g id="text_6">
      <!-- 2024-01 -->
      <g transform="translate(317.363447 260.638438) scale(0.1 -0.1)">
       <defs>
        <path id="DejaVuSans-34" d="M 2419 4116 
L 825 1625 
L 2419 1625 
L 2419 4116 
z
M 2253 4666 
L 3047 4666 
L 3047 1625 
L 3713 1625 
L 3713 1100 
L 3047 1100 
L 3047 0 
L 2419 0 
L 2419 1100 
L 313 1100 
L 313 1709 
L 2253 4666 
z
" transform="scale(0.015625)"/>
       </defs>
       <use xlink:href="#DejaVuSans-32"/>
       <use xlink:href="#DejaVuSans-30" transform="translate(63.623047 0)"/>
       <use xlink:href="#DejaVuSans-32" transform="translate(127.246094 0)"/>
       <use xlink:href="#DejaVuSans-34" transform="translate(190.869141 0)"/>
       <use xlink:href="#DejaVuSans-2d" transform="translate(254.492188 0)"/>
       <use xlink:href="#DejaVuSans-30" transform="translate(290.576172 0)"/>
       <use xlink:href="#DejaVuSans-31" transform="translate(354.199219 0)"/>
      </g>
     </g>
    </g>
    <g id="xtick_7">
     <g id="line2d_7">
      <g>
       <use xlink:href="#m2a55720a16" x="388.938509" y="246.04" style="stroke: #000000; stroke-width: 0.8"/>
      </g>
     </g>
     <g id="text_7">
      <!-- 2024-05 -->
      <g transform="translate(368.047103 260.638438) scale(0.1 -0.1)">
       <use xlink:href="#DejaVuSans-32"/>
       <use xlink:href="#DejaVuSans-30" transform="translate(63.623047 0)"/>
       <use xlink:href="#DejaVuSans-32" transform="translate(127.246094 0)"/>
       <use xlink:href="#DejaVuSans-34" transform="translate(190.869141 0)"/>
       <use xlink:href="#DejaVuSans-2d" transform="translate(254.492188 0)"/>
       <use xlink:href="#DejaVuSans-30" transform="translate(290.576172 0)"/>
       <use xlink:href="#DejaVuSans-35" transform="translate(354.199219 0)"/>
      </g>
     </g>
    </g>
    <g id="xtick_8">
     <g id="line2d_8">
      <g>
       <use xlink:href="#m2a55720a16" x="440.459911" y="246.04" style="stroke: #000000; stroke-width: 0.8"/>
      </g>
     </g>
     <g id="text_8">
      <!-- 2024-09 -->
      <g transform="translate(419.568505 260.638438) scale(0.1 -0.1)">
       <use xlink:href="#DejaVuSans-32"/>
       <use xlink:href="#DejaVuSans-30" transform="translate(63.623047 0)"/>
       <use xlink:href="#DejaVuSans-32" transform="translate(127.246094 0)"/>
       <use xlink:href="#DejaVuSans-34" transform="translate(190.869141 0)"/>
       <use xlink:href="#DejaVuSans-2d" transform="translate(254.492188 0)"/>
       <use xlink:href="#DejaVuSans-30" transform="translate(290.576172 0)"/>
       <use xlink:href="#DejaVuSans-39" transform="translate(354.199219 0)"/>
      </g>
     </g>
    </g>
    <g id="xtick_9">
     <g id="line2d_9">
      <g>
       <use xlink:href="#m2a55720a16" x="491.56244" y="246.04" style="stroke: #000000; stroke-width: 0.8"/>
      </g>
     </g>
     <g id="text_9">
      <!-- 2025-01 -->
      <g transform="translate(470.671034 260.638438) scale(0.1 -0.1)">
       <use xlink:href="#DejaVuSans-32"/>
       <use xlink:href="#DejaVuSans-30" transform="translate(63.623047 0)"/>
       <use xlink:href="#DejaVuSans-32" transform="translate(127.246094 0)"/>
       <use xlink:href="#DejaVuSans-35" transform="translate(190.869141 0)"/>
       <use xlink:href="#DejaVuSans-2d" transform="translate(254.492188 0)"/>
       <use xlink:href="#DejaVuSans-30" transform="translate(290.576172 0)"/>
       <use xlink:href="#DejaVuSans-31" transform="translate(354.199219 0)"/>
      </g>
     </g>
    </g>
    <g id="xtick_10">
     <g id="line2d_10">
      <g>
       <use xlink:href="#m2a55720a16" x="541.827223" y="246.04" style="stroke: #000000; stroke-width: 0.8"/>
      </g>
     </g>
     <g id="text_10">
      <!-- 2025-05 -->
      <g transform="translate(520.935816 260.638438) scale(0.1 -0.1)">
       <use xlink:href="#DejaVuSans-32"/>
       <use xlink:href="#DejaVuSans-30" transform="translate(63.623047 0)"/>
       <use xlink:href="#DejaVuSans-32" transform="translate(127.246094 0)"/>
       <use xlink:href="#DejaVuSans-35" transform="translate(190.869141 0)"/>
       <use xlink:href="#DejaVuSans-2d" transform="translate(254.492188 0)"/>
       <use xlink:href="#DejaVuSans-30" transform="translate(290.576172 0)"/>
       <use xlink:href="#DejaVuSans-35" transform="translate(354.199219 0)"/>
      </g>
     </g>
    </g>
    <g id="text_11">
     <!-- Date -->
     <g transform="translate(298.867878 274.316562) scale(0.1 -0.1)">
      <defs>
       <path id="DejaVuSans-44" d="M 1259 4147 
L 1259 519 
L 2022 519 
Q 2988 519 3436 956 
Q 3884 1394 3884 2338 
Q 3884 3275 3436 3711 
Q 2988 4147 2022 4147 
L 1259 4147 
z
M 628 4666 
L 1925 4666 
Q 3281 4666 3915 4102 
Q 4550 3538 4550 2338 
Q 4550 1131 3912 565 
Q 3275 0 1925 0 
L 628 0 
L 628 4666 
z
" transform="scale(0.015625)"/>
       <path id="DejaVuSans-61" d="M 2194 1759 
Q 1497 1759 1228 1600 
Q 959 1441 959 1056 
Q 959 750 1161 570 
Q 1363 391 1709 391 
Q 2188 391 2477 730 
Q 2766 1069 2766 1631 
L 2766 1759 
L 2194 1759 
z
M 3341 1997 
L 3341 0 
L 2766 0 
L 2766 531 
Q 2569 213 2275 61 
Q 1981 -91 1556 -91 
Q 1019 -91 701 211 
Q 384 513 384 1019 
Q 384 1609 779 1909 
Q 1175 2209 1959 2209 
L 2766 2209 
L 2766 2266 
Q 2766 2663 2505 2880 
Q 2244 3097 1772 3097 
Q 1472 3097 1187 3025 
Q 903 2953 641 2809 
L 641 3341 
Q 956 3463 1253 3523 
Q 1550 3584 1831 3584 
Q 2591 3584 2966 3190 
Q 3341 2797 3341 1997 
z
" transform="scale(0.015625)"/>
       <path id="DejaVuSans-74" d="M 1172 4494 
L 1172 3500 
L 2356 3500 
L 2356 3053 
L 1172 3053 
L 1172 1153 
Q 1172 725 1289 603 
Q 1406 481 1766 481 
L 2356 481 
L 2356 0 
L 1766 0 
Q 1100 0 847 248 
Q 594 497 594 1153 
L 594 3053 
L 172 3053 
L 172 3500 
L 594 3500 
L 594 4494 
L 1172 4494 
z
" transform="scale(0.015625)"/>
       <path id="DejaVuSans-65" d="M 3597 1894 
L 3597 1613 
L 953 1613 
Q 991 1019 1311 708 
Q 1631 397 2203 397 
Q 2534 397 2845 478 
Q 3156 559 3463 722 
L 3463 178 
Q 3153 47 2828 -22 
Q 2503 -91 2169 -91 
Q 1331 -91 842 396 
Q 353 884 353 1716 
Q 353 2575 817 3079 
Q 1281 3584 2069 3584 
Q 2775 3584 3186 3129 
Q 3597 2675 3597 1894 
z
M 3022 2063 
Q 3016 2534 2758 2815 
Q 2500 3097 2075 3097 
Q 1594 3097 1305 2825 
Q 1016 2553 972 2059 
L 3022 2063 
z
" transform="scale(0.015625)"/>
      </defs>
      <use xlink:href="#DejaVuSans-44"/>
      <use xlink:href="#DejaVuSans-61" transform="translate(77.001953 0)"/>
      <use xlink:href="#DejaVuSans-74" transform="translate(138.28125 0)"/>
      <use xlink:href="#DejaVuSans-65" transform="translate(177.490234 0)"/>
     </g>
    </g>
   </g>
   <g id="matplotlib.axis_2">
    <g id="ytick_1">
     <g id="line2d_11">
      <defs>
       <path id="m6e6bf26edb" d="M 0 0 
L -3.5 0 
" style="stroke: #000000; stroke-width: 0.8"/>
      </defs>
      <g>
       <use xlink:href="#m6e6bf26edb" x="57.17" y="219.861264" style="stroke: #000000; stroke-width: 0.8"/>
      </g>
     </g>
     <g id="text_12">
      <!-- 3200 -->
      <g transform="translate(24.72 223.660483) scale(0.1 -0.1)">
       <use xlink:href="#DejaVuSans-33"/>
       <use xlink:href="#DejaVuSans-32" transform="translate(63.623047 0)"/>
       <use xlink:href="#DejaVuSans-30" transform="translate(127.246094 0)"/>
       <use xlink:href="#DejaVuSans-30" transform="translate(190.869141 0)"/>
      </g>
     </g>
    </g>
    <g id="ytick_2">
     <g id="line2d_12">
      <g>
       <use xlink:href="#m6e6bf26edb" x="57.17" y="191.618176" style="stroke: #000000; stroke-width: 0.8"/>
      </g>
     </g>
     <g id="text_13">
      <!-- 3400 -->
      <g transform="translate(24.72 195.417395) scale(0.1 -0.1)">
       <use xlink:href="#DejaVuSans-33"/>
       <use xlink:href="#DejaVuSans-34" transform="translate(63.623047 0)"/>
       <use xlink:href="#DejaVuSans-30" transform="translate(127.246094 0)"/>
       <use xlink:href="#DejaVuSans-30" transform="translate(190.869141 0)"/>
      </g>
     </g>
    </g>
    <g id="ytick_3">
     <g id="line2d_13">
      <g>
       <use xlink:href="#m6e6bf26edb" x="57.17" y="163.375088" style="stroke: #000000; stroke-width: 0.8"/>
      </g>
     </g>
     <g id="text_14">
      <!-- 3600 -->
      <g transform="translate(24.72 167.174307) scale(0.1 -0.1)">
       <defs>
        <path id="DejaVuSans-36" d="M 2113 2584 
Q 1688 2584 1439 2293 
Q 1191 2003 1191 1497 
Q 1191 994 1439 701 
Q 1688 409 2113 409 
Q 2538 409 2786 701 
Q 3034 994 3034 1497 
Q 3034 2003 2786 2293 
Q 2538 2584 2113 2584 
z
M 3366 4563 
L 3366 3988 
Q 3128 4100 2886 4159 
Q 2644 4219 2406 4219 
Q 1781 4219 1451 3797 
Q 1122 3375 1075 2522 
Q 1259 2794 1537 2939 
Q 1816 3084 2150 3084 
Q 2853 3084 3261 2657 
Q 3669 2231 3669 1497 
Q 3669 778 3244 343 
Q 2819 -91 2113 -91 
Q 1303 -91 875 529 
Q 447 1150 447 2328 
Q 447 3434 972 4092 
Q 1497 4750 2381 4750 
Q 2619 4750 2861 4703 
Q 3103 4656 3366 4563 
z
" transform="scale(0.015625)"/>
       </defs>
       <use xlink:href="#DejaVuSans-33"/>
       <use xlink:href="#DejaVuSans-36" transform="translate(63.623047 0)"/>
       <use xlink:href="#DejaVuSans-30" transform="translate(127.246094 0)"/>
       <use xlink:href="#DejaVuSans-30" transform="translate(190.869141 0)"/>
      </g>
     </g>
    </g>
    <g id="ytick_4">
     <g id="line2d_14">
      <g>
       <use xlink:href="#m6e6bf26edb" x="57.17" y="135.132" style="stroke: #000000; stroke-width: 0.8"/>
      </g>
     </g>
     <g id="text_15">
      <!-- 3800 -->
      <g transform="translate(24.72 138.931219) scale(0.1 -0.1)">
       <defs>
        <path id="DejaVuSans-38" d="M 2034 2216 
Q 1584 2216 1326 1975 
Q 1069 1734 1069 1313 
Q 1069 891 1326 650 
Q 1584 409 2034 409 
Q 2484 409 2743 651 
Q 3003 894 3003 1313 
Q 3003 1734 2745 1975 
Q 2488 2216 2034 2216 
z
M 1403 2484 
Q 997 2584 770 2862 
Q 544 3141 544 3541 
Q 544 4100 942 4425 
Q 1341 4750 2034 4750 
Q 2731 4750 3128 4425 
Q 3525 4100 3525 3541 
Q 3525 3141 3298 2862 
Q 3072 2584 2669 2484 
Q 3125 2378 3379 2068 
Q 3634 1759 3634 1313 
Q 3634 634 3220 271 
Q 2806 -91 2034 -91 
Q 1263 -91 848 271 
Q 434 634 434 1313 
Q 434 1759 690 2068 
Q 947 2378 1403 2484 
z
M 1172 3481 
Q 1172 3119 1398 2916 
Q 1625 2713 2034 2713 
Q 2441 2713 2670 2916 
Q 2900 3119 2900 3481 
Q 2900 3844 2670 4047 
Q 2441 4250 2034 4250 
Q 1625 4250 1398 4047 
Q 1172 3844 1172 3481 
z
" transform="scale(0.015625)"/>
       </defs>
       <use xlink:href="#DejaVuSans-33"/>
       <use xlink:href="#DejaVuSans-38" transform="translate(63.623047 0)"/>
       <use xlink:href="#DejaVuSans-30" transform="translate(127.246094 0)"/>
       <use xlink:href="#DejaVuSans-30" transform="translate(190.869141 0)"/>
      </g>
     </g>
    </g>
    <g id="ytick_5">
     <g id="line2d_15">
      <g>
       <use xlink:href="#m6e6bf26edb" x="57.17" y="106.888913" style="stroke: #000000; stroke-width: 0.8"/>
      </g>
     </g>
     <g id="text_16">
      <!-- 4000 -->
      <g transform="translate(24.72 110.688131) scale(0.1 -0.1)">
       <use xlink:href="#DejaVuSans-34"/>
       <use xlink:href="#DejaVuSans-30" transform="translate(63.623047 0)"/>
       <use xlink:href="#DejaVuSans-30" transform="translate(127.246094 0)"/>
       <use xlink:href="#DejaVuSans-30" transform="translate(190.869141 0)"/>
      </g>
     </g>
    </g>
    <g id="ytick_6">
     <g id="line2d_16">
      <g>
       <use xlink:href="#m6e6bf26edb" x="57.17" y="78.645825" style="stroke: #000000; stroke-width: 0.8"/>
      </g>
     </g>
     <g id="text_17">
      <!-- 4200 -->
      <g transform="translate(24.72 82.445043) scale(0.1 -0.1)">
       <use xlink:href="#DejaVuSans-34"/>
       <use xlink:href="#DejaVuSans-32" transform="translate(63.623047 0)"/>
       <use xlink:href="#DejaVuSans-30" transform="translate(127.246094 0)"/>
       <use xlink:href="#DejaVuSans-30" transform="translate(190.869141 0)"/>
      </g>
     </g>
    </g>
    <g id="ytick_7">
     <g id="line2d_17">
      <g>
       <use xlink:href="#m6e6bf26edb" x="57.17" y="50.402737" style="stroke: #000000; stroke-width: 0.8"/>
      </g>
     </g>
     <g id="text_18">
      <!-- 4400 -->
      <g transform="translate(24.72 54.201956) scale(0.1 -0.1)">
       <use xlink:href="#DejaVuSans-34"/>
       <use xlink:href="#DejaVuSans-34" transform="translate(63.623047 0)"/>
       <use xlink:href="#DejaVuSans-30" transform="translate(127.246094 0)"/>
       <use xlink:href="#DejaVuSans-30" transform="translate(190.869141 0)"/>
      </g>
     </g>
    </g>
    <g id="text_19">
     <!-- Stock Price -->
     <g transform="translate(18.640313 164.085) rotate(-90) scale(0.1 -0.1)">
      <defs>
       <path id="DejaVuSans-53" d="M 3425 4513 
L 3425 3897 
Q 3066 4069 2747 4153 
Q 2428 4238 2131 4238 
Q 1616 4238 1336 4038 
Q 1056 3838 1056 3469 
Q 1056 3159 1242 3001 
Q 1428 2844 1947 2747 
L 2328 2669 
Q 3034 2534 3370 2195 
Q 3706 1856 3706 1288 
Q 3706 609 3251 259 
Q 2797 -91 1919 -91 
Q 1588 -91 1214 -16 
Q 841 59 441 206 
L 441 856 
Q 825 641 1194 531 
Q 1563 422 1919 422 
Q 2459 422 2753 634 
Q 3047 847 3047 1241 
Q 3047 1584 2836 1778 
Q 2625 1972 2144 2069 
L 1759 2144 
Q 1053 2284 737 2584 
Q 422 2884 422 3419 
Q 422 4038 858 4394 
Q 1294 4750 2059 4750 
Q 2388 4750 2728 4690 
Q 3069 4631 3425 4513 
z
" transform="scale(0.015625)"/>
       <path id="DejaVuSans-6f" d="M 1959 3097 
Q 1497 3097 1228 2736 
Q 959 2375 959 1747 
Q 959 1119 1226 758 
Q 1494 397 1959 397 
Q 2419 397 2687 759 
Q 2956 1122 2956 1747 
Q 2956 2369 2687 2733 
Q 2419 3097 1959 3097 
z
M 1959 3584 
Q 2709 3584 3137 3096 
Q 3566 2609 3566 1747 
Q 3566 888 3137 398 
Q 2709 -91 1959 -91 
Q 1206 -91 779 398 
Q 353 888 353 1747 
Q 353 2609 779 3096 
Q 1206 3584 1959 3584 
z
" transform="scale(0.015625)"/>
       <path id="DejaVuSans-63" d="M 3122 3366 
L 3122 2828 
Q 2878 2963 2633 3030 
Q 2388 3097 2138 3097 
Q 1578 3097 1268 2742 
Q 959 2388 959 1747 
Q 959 1106 1268 751 
Q 1578 397 2138 397 
Q 2388 397 2633 464 
Q 2878 531 3122 666 
L 3122 134 
Q 2881 22 2623 -34 
Q 2366 -91 2075 -91 
Q 1284 -91 818 406 
Q 353 903 353 1747 
Q 353 2603 823 3093 
Q 1294 3584 2113 3584 
Q 2378 3584 2631 3529 
Q 2884 3475 3122 3366 
z
" transform="scale(0.015625)"/>
       <path id="DejaVuSans-6b" d="M 581 4863 
L 1159 4863 
L 1159 1991 
L 2875 3500 
L 3609 3500 
L 1753 1863 
L 3688 0 
L 2938 0 
L 1159 1709 
L 1159 0 
L 581 0 
L 581 4863 
z
" transform="scale(0.015625)"/>
       <path id="DejaVuSans-20" transform="scale(0.015625)"/>
       <path id="DejaVuSans-50" d="M 1259 4147 
L 1259 2394 
L 2053 2394 
Q 2494 2394 2734 2622 
Q 2975 2850 2975 3272 
Q 2975 3691 2734 3919 
Q 2494 4147 2053 4147 
L 1259 4147 
z
M 628 4666 
L 2053 4666 
Q 2838 4666 3239 4311 
Q 3641 3956 3641 3272 
Q 3641 2581 3239 2228 
Q 2838 1875 2053 1875 
L 1259 1875 
L 1259 0 
L 628 0 
L 628 4666 
z
" transform="scale(0.015625)"/>
       <path id="DejaVuSans-72" d="M 2631 2963 
Q 2534 3019 2420 3045 
Q 2306 3072 2169 3072 
Q 1681 3072 1420 2755 
Q 1159 2438 1159 1844 
L 1159 0 
L 581 0 
L 581 3500 
L 1159 3500 
L 1159 2956 
Q 1341 3275 1631 3429 
Q 1922 3584 2338 3584 
Q 2397 3584 2469 3576 
Q 2541 3569 2628 3553 
L 2631 2963 
z
" transform="scale(0.015625)"/>
       <path id="DejaVuSans-69" d="M 603 3500 
L 1178 3500 
L 1178 0 
L 603 0 
L 603 3500 
z
M 603 4863 
L 1178 4863 
L 1178 4134 
L 603 4134 
L 603 4863 
z
" transform="scale(0.015625)"/>
      </defs>
      <use xlink:href="#DejaVuSans-53"/>
      <use xlink:href="#DejaVuSans-74" transform="translate(63.476562 0)"/>
      <use xlink:href="#DejaVuSans-6f" transform="translate(102.685547 0)"/>
      <use xlink:href="#DejaVuSans-63" transform="translate(163.867188 0)"/>
      <use xlink:href="#DejaVuSans-6b" transform="translate(218.847656 0)"/>
      <use xlink:href="#DejaVuSans-20" transform="translate(276.757812 0)"/>
      <use xlink:href="#DejaVuSans-50" transform="translate(308.544922 0)"/>
      <use xlink:href="#DejaVuSans-72" transform="translate(367.097656 0)"/>
      <use xlink:href="#DejaVuSans-69" transform="translate(408.210938 0)"/>
      <use xlink:href="#DejaVuSans-63" transform="translate(435.994141 0)"/>
      <use xlink:href="#DejaVuSans-65" transform="translate(490.974609 0)"/>
     </g>
    </g>
   </g>
   <g id="line2d_18">
    <path d="M 80.228969 133.026478 
L 80.647842 137.374502 
L 81.066715 121.640277 
L 81.485589 118.029399 
L 81.904462 104.595574 
L 84.417701 105.447103 
L 84.836574 119.764936 
L 86.093194 124.196277 
L 86.512067 118.204506 
L 86.93094 110.218773 
L 87.349813 112.715462 
L 87.768686 108.498769 
L 89.025306 113.026136 
L 89.444179 106.057154 
L 89.863052 108.031346 
L 90.281926 106.945399 
L 90.700799 95.930595 
L 91.957418 99.266103 
L 92.376291 112.657563 
L 92.795165 109.264156 
L 93.632911 106.705333 
L 94.889531 102.790841 
L 95.308404 93.964876 
L 95.727277 95.142612 
L 96.14615 94.240246 
L 97.821643 83.43444 
L 98.240516 81.592991 
L 98.659389 75.848347 
L 99.078263 82.081596 
L 99.497136 73.139835 
L 100.753755 80.149769 
L 101.172628 75.495308 
L 101.591502 67.599953 
L 102.010375 71.57658 
L 102.429248 63.247693 
L 103.685868 60.227095 
L 104.104741 60.913402 
L 104.523614 68.67319 
L 104.942487 58.327747 
L 105.36136 51.141294 
L 106.61798 44.152541 
L 107.036853 37.619915 
L 107.455726 47.386375 
L 107.874599 38.398012 
L 108.293473 40.980843 
L 109.550092 36.841818 
L 109.968965 37.758306 
L 110.387839 47.017803 
L 110.806712 44.264102 
L 111.225585 46.338556 
L 112.482205 56.811093 
L 112.901078 62.600926 
L 113.319951 61.493797 
L 113.738824 61.407656 
L 114.157697 71.792639 
L 115.414317 65.570687 
L 115.83319 68.853946 
L 116.252063 66.811971 
L 116.670936 73.553596 
L 117.08981 73.247158 
L 118.346429 76.860862 
L 118.765302 72.152739 
L 119.184176 75.10979 
L 119.603049 75.020824 
L 120.021922 82.868166 
L 121.278541 80.244383 
L 121.697415 91.776036 
L 122.116288 97.430302 
L 122.535161 92.549897 
L 122.954034 84.730798 
L 124.210654 85.979142 
L 124.629527 84.818352 
L 125.0484 91.39193 
L 125.467273 79.558076 
L 125.886147 79.895581 
L 127.142766 80.66803 
L 127.561639 81.775159 
L 127.980513 76.250811 
L 128.818259 85.555496 
L 130.074878 81.272432 
L 130.493752 84.14193 
L 130.912625 95.249936 
L 131.331498 90.47403 
L 131.750371 91.701192 
L 133.006991 94.247306 
L 133.425864 96.186194 
L 133.844737 95.755487 
L 134.26361 100.712149 
L 134.682484 103.554816 
L 135.939103 104.709958 
L 136.357976 99.506169 
L 136.776849 99.124888 
L 137.195723 101.567915 
L 137.614596 93.644317 
L 139.290089 91.198465 
L 140.127835 103.05915 
L 140.546708 116.395536 
L 141.803328 117.056424 
L 142.222201 116.372942 
L 143.059947 125.340122 
L 143.47882 127.221112 
L 144.73544 129.952218 
L 145.154313 122.097815 
L 145.573186 131.077705 
L 145.99206 131.299413 
L 146.410933 134.441457 
L 150.599665 146.296493 
L 151.018538 145.343289 
L 151.437411 137.347671 
L 151.856284 141.815727 
L 152.275157 129.134581 
L 153.531777 128.578192 
L 153.95065 129.727686 
L 154.369523 138.446327 
L 154.788397 141.49658 
L 155.20727 143.196814 
L 156.463889 158.662729 
L 156.882763 159.498725 
L 157.301636 155.33993 
L 157.720509 158.97764 
L 158.139382 171.660198 
L 159.396002 176.268058 
L 159.814875 158.549757 
L 160.233748 152.387115 
L 160.652621 156.610869 
L 161.071494 139.768103 
L 162.328114 138.620022 
L 162.746987 142.287387 
L 163.584734 151.274337 
L 164.003607 136.764451 
L 165.260226 135.976469 
L 165.679099 125.816018 
L 166.097973 130.275602 
L 166.935719 134.910292 
L 168.192339 139.491321 
L 168.611212 139.429186 
L 169.030085 138.869973 
L 169.448958 141.231095 
L 169.867831 138.552238 
L 171.124451 144.559543 
L 171.543324 128.294349 
L 171.962197 127.641934 
L 172.38107 121.749013 
L 172.799944 125.112765 
L 174.475436 111.379564 
L 174.89431 112.757826 
L 175.313183 112.653327 
L 175.732056 107.137452 
L 176.988676 113.463903 
L 177.407549 114.559735 
L 177.826422 113.259141 
L 178.245295 113.668666 
L 178.664168 113.352343 
L 179.920788 121.967897 
L 180.339661 131.033928 
L 180.758534 130.819281 
L 181.177407 130.044008 
L 181.596281 131.146901 
L 182.8529 128.990541 
L 183.271773 122.726224 
L 184.10952 127.125085 
L 184.528393 125.016739 
L 186.622759 122.006025 
L 187.041632 111.325902 
L 187.460505 109.58754 
L 188.717125 105.036166 
L 189.135998 104.421879 
L 189.554871 105.472522 
L 189.973744 104.365393 
L 190.392618 96.385308 
L 191.649237 87.406831 
L 192.06811 87.508506 
L 192.486984 88.487129 
L 193.32473 81.254074 
L 197.513462 78.455184 
L 197.932335 84.737859 
L 198.351208 79.220572 
L 198.770081 81.307736 
L 199.188955 86.88857 
L 200.445574 94.620115 
L 200.864447 93.582182 
L 201.28332 96.136769 
L 201.702194 88.40946 
L 202.121067 91.876299 
L 203.377686 86.614612 
L 203.79656 86.371721 
L 204.215433 89.421975 
L 204.634306 93.686681 
L 205.053179 102.015568 
L 206.309799 88.038064 
L 206.728672 86.504464 
L 207.147545 91.785921 
L 207.566418 92.251932 
L 207.985292 98.26771 
L 209.241911 100.698028 
L 209.660784 97.080088 
L 210.079657 88.963025 
L 210.498531 90.262207 
L 210.917404 88.453237 
L 212.174023 91.495018 
L 212.592897 99.990538 
L 213.430643 104.085786 
L 213.849516 111.529252 
L 215.106136 105.66175 
L 215.525009 109.049509 
L 215.943882 108.738835 
L 216.362755 115.481872 
L 216.781628 112.704164 
L 218.038248 115.491757 
L 218.457121 109.377129 
L 218.875994 106.967993 
L 219.294868 101.368801 
L 219.713741 103.069035 
L 220.97036 105.126544 
L 221.389234 106.958108 
L 221.808107 106.02185 
L 222.22698 101.447882 
L 224.321346 92.328189 
L 225.159092 93.241853 
L 225.577965 89.479873 
L 227.253458 92.746186 
L 227.672331 93.150063 
L 228.091205 97.147872 
L 228.510078 93.897092 
L 229.766697 85.79415 
L 230.18557 84.007775 
L 230.604444 89.299117 
L 231.023317 90.928744 
L 231.44219 102.289526 
L 233.117683 112.160485 
L 233.536556 112.646266 
L 233.955429 108.524187 
L 234.374302 102.780955 
L 236.887542 102.617146 
L 237.306415 104.505196 
L 238.563034 98.040353 
L 239.400781 107.330917 
L 239.819654 108.207865 
L 240.238527 115.678162 
L 241.495147 107.045662 
L 242.332893 112.513524 
L 242.751766 113.092507 
L 243.170639 114.720721 
L 244.427259 111.21999 
L 245.265005 126.78758 
L 245.683878 128.000621 
L 246.102752 127.937074 
L 247.359371 130.339148 
L 247.778244 129.801118 
L 248.197118 135.338175 
L 248.615991 134.16185 
L 249.034864 126.40065 
L 250.291484 128.883217 
L 250.710357 133.979683 
L 251.12923 136.637357 
L 251.548103 132.280861 
L 251.966976 129.949394 
L 253.223596 128.857799 
L 253.642469 125.965706 
L 254.061342 126.091388 
L 254.480215 117.409463 
L 254.899089 112.064458 
L 256.155708 116.645487 
L 256.574581 117.587394 
L 256.993455 126.089976 
L 259.087821 133.762211 
L 259.506694 128.716583 
L 259.925567 129.370411 
L 260.34444 132.047855 
L 260.763313 129.137405 
L 262.019933 122.01591 
L 262.438806 121.15026 
L 263.276552 129.09504 
L 263.695426 131.502764 
L 264.952045 128.87192 
L 265.370918 125.31894 
L 265.789792 128.997602 
L 266.208665 121.233577 
L 266.627538 121.13755 
L 268.303031 127.373624 
L 268.721904 127.948371 
L 269.140777 131.786607 
L 269.55965 132.03797 
L 270.81627 134.394856 
L 271.235143 118.875279 
L 271.654016 120.020536 
L 272.072889 120.6786 
L 272.491763 107.914137 
L 273.748382 104.822931 
L 274.167255 107.171343 
L 274.586128 111.139497 
L 275.005002 106.18566 
L 275.423875 103.982699 
L 277.518241 111.468529 
L 277.937114 110.317623 
L 278.355987 123.2346 
L 280.03148 128.559834 
L 280.450353 132.543521 
L 280.869226 130.7402 
L 281.288099 137.391448 
L 282.544719 145.079216 
L 282.963592 141.030569 
L 283.382465 149.72944 
L 283.801339 145.944867 
L 284.220212 147.961423 
L 285.476831 141.822788 
L 285.895705 136.528621 
L 286.314578 136.754566 
L 286.733451 140.036413 
L 287.152324 136.333744 
L 288.408944 128.219505 
L 288.827817 132.262503 
L 289.24669 133.433179 
L 289.665563 140.996678 
L 290.084436 143.606339 
L 291.341056 139.715854 
L 291.759929 140.695889 
L 292.178802 144.077999 
L 292.597676 144.521415 
L 293.016549 148.013673 
L 294.273168 145.340465 
L 294.692042 146.358628 
L 295.110915 148.450029 
L 295.529788 153.145442 
L 295.948661 143.756027 
L 297.205281 147.191799 
L 297.624154 150.257586 
L 298.043027 149.182937 
L 298.4619 150.733482 
L 303.069505 151.409904 
L 303.488378 155.30745 
L 303.907252 153.835985 
L 304.326125 148.917452 
L 304.744998 154.420617 
L 306.001618 159.618758 
L 306.420491 157.8112 
L 306.839364 161.881029 
L 307.258237 172.760266 
L 307.67711 176.001161 
L 308.93373 181.134342 
L 309.352603 179.314075 
L 309.771476 176.866811 
L 310.190349 175.499846 
L 310.609223 168.686201 
L 311.865842 165.667015 
L 312.284715 167.257101 
L 312.703589 167.4661 
L 313.122462 169.844168 
L 313.541335 165.614765 
L 314.797955 158.770053 
L 315.216828 160.584671 
L 315.635701 161.811833 
L 316.054574 161.563294 
L 316.473447 165.282909 
L 317.730067 166.282714 
L 318.14894 165.908493 
L 318.567813 162.351276 
L 318.986686 167.278283 
L 319.40556 167.884097 
L 320.662179 166.71907 
L 321.081052 166.048297 
L 321.499926 171.223843 
L 321.918799 168.809058 
L 322.337672 172.129033 
L 323.594292 175.81052 
L 324.013165 174.881322 
L 324.432038 179.147441 
L 324.850911 178.033251 
L 325.269784 179.914241 
L 326.526404 183.12548 
L 326.945277 192.428753 
L 327.36415 191.674662 
L 327.783023 192.849575 
L 328.201897 191.694433 
L 329.877389 187.833602 
L 330.296263 195.909713 
L 330.715136 198.402166 
L 331.134009 199.872219 
L 332.390628 201.592223 
L 332.809502 200.932747 
L 333.228375 206.092759 
L 333.647248 201.3804 
L 334.066121 200.482269 
L 335.322741 199.039048 
L 335.741614 202.238989 
L 336.160487 200.605127 
L 336.57936 189.564904 
L 336.998234 187.224964 
L 338.673726 193.545767 
L 339.092599 194.682551 
L 339.511473 199.095534 
L 339.930346 201.628939 
L 341.186965 207.708263 
L 341.605839 206.798836 
L 342.024712 208.969317 
L 342.443585 206.351183 
L 342.862458 207.975161 
L 344.119078 208.434111 
L 344.537951 205.615451 
L 344.956824 215.754719 
L 345.375697 209.308234 
L 345.794571 210.007251 
L 347.05119 217.192292 
L 347.470063 215.352255 
L 347.888936 208.972142 
L 348.30781 199.678754 
L 348.726683 200.963814 
L 349.983302 205.180507 
L 350.402176 213.500921 
L 350.821049 217.693607 
L 351.239922 217.360339 
L 351.658795 222.737823 
L 352.915415 219.801954 
L 353.334288 204.088912 
L 353.753161 199.578491 
L 354.172034 196.570602 
L 358.779639 191.080145 
L 359.198513 190.085989 
L 359.617386 183.587254 
L 360.036259 179.379034 
L 360.455132 178.945503 
L 361.711752 184.08292 
L 362.130625 178.232365 
L 362.549498 184.520688 
L 362.968371 175.225888 
L 363.387244 172.158689 
L 364.643864 171.725157 
L 365.062737 168.245609 
L 365.48161 170.287584 
L 365.900484 173.299709 
L 367.575976 164.891742 
L 367.99485 163.729539 
L 368.413723 167.278283 
L 368.832596 168.710208 
L 369.251469 167.612964 
L 370.508089 162.876598 
L 370.926962 166.534078 
L 371.345835 165.439658 
L 371.764708 166.045472 
L 372.183581 171.141938 
L 373.440201 173.858923 
L 373.859074 171.318457 
L 374.277947 177.102641 
L 376.372313 163.989376 
L 377.21006 167.922226 
L 379.304426 172.354978 
L 379.723299 172.767327 
L 380.142172 176.831508 
L 380.561045 176.897879 
L 380.979918 180.908397 
L 382.236538 170.565779 
L 382.655411 175.927729 
L 383.074284 168.261143 
L 383.493157 167.639795 
L 383.912031 171.613597 
L 385.16865 173.133075 
L 385.587523 176.618272 
L 386.006397 174.443555 
L 386.42527 173.220629 
L 386.844143 165.596407 
L 388.100763 159.998627 
L 388.519636 162.755153 
L 391.032875 155.201539 
L 391.451748 155.041965 
L 391.870621 159.107558 
L 392.289494 154.25822 
L 392.708368 154.015329 
L 393.964987 154.239862 
L 394.38386 155.318748 
L 394.802734 159.695014 
L 395.221607 157.675633 
L 395.64048 152.364521 
L 396.8971 150.530132 
L 397.315973 152.620121 
L 397.734846 151.449445 
L 398.572592 163.16609 
L 399.829212 158.332285 
L 400.248085 162.080143 
L 400.666958 161.465856 
L 401.504705 166.210694 
L 402.761324 164.963762 
L 403.180197 161.162242 
L 403.599071 164.110821 
L 404.017944 164.469508 
L 404.436817 167.031156 
L 406.11231 171.441314 
L 406.531183 171.266207 
L 406.950056 173.806673 
L 407.368929 171.631955 
L 408.625549 172.384633 
L 409.044422 171.05862 
L 409.463295 173.436688 
L 409.882168 177.033446 
L 410.301042 178.115156 
L 411.557661 180.771418 
L 411.976534 183.441802 
L 412.395407 180.284225 
L 412.814281 183.975597 
L 413.233154 182.910832 
L 414.489773 180.577953 
L 414.908647 181.48032 
L 415.32752 182.663705 
L 416.165266 187.232025 
L 417.421886 191.369637 
L 417.840759 185.99639 
L 418.259632 187.527165 
L 418.678505 181.99152 
L 419.097378 181.394178 
L 420.353998 180.850499 
L 420.772871 177.739523 
L 421.191744 177.273512 
L 422.029491 171.986406 
L 423.28611 175.389698 
L 423.704984 185.986505 
L 424.54273 191.721264 
L 424.961603 190.306285 
L 426.218223 192.925831 
L 426.637096 195.942193 
L 427.055969 185.675831 
L 427.474842 188.896955 
L 427.893715 193.822549 
L 429.150335 199.622267 
L 429.569208 199.670281 
L 429.988081 199.880692 
L 430.406955 199.675929 
L 430.825828 201.273076 
L 432.082447 202.087889 
L 432.501321 200.883321 
L 432.920194 204.43489 
L 433.339067 199.815733 
L 435.01456 197.694677 
L 435.433433 201.121975 
L 436.271179 203.884149 
L 436.690052 201.900072 
L 437.946672 202.319482 
L 438.784418 207.646129 
L 439.203292 208.891649 
L 439.622165 202.713473 
L 440.878784 210.680848 
L 441.297657 209.491814 
L 441.716531 212.495467 
L 442.135404 211.70466 
L 442.554277 215.43416 
L 443.810897 220.856833 
L 444.22977 220.460018 
L 444.648643 221.819922 
L 445.486389 225.615793 
L 447.580755 223.9551 
L 447.999628 220.420477 
L 448.418502 219.712988 
L 449.675121 218.059355 
L 450.093994 198.409227 
L 450.512868 191.402117 
L 451.350614 148.733872 
L 452.607234 104.368217 
L 455.958219 70.723639 
L 456.377092 113.105216 
L 456.795965 107.200999 
L 457.214839 122.822251 
L 458.471458 112.348301 
L 458.890331 127.225348 
L 459.309205 130.671005 
L 459.728078 136.795518 
L 460.146951 117.447591 
L 461.403571 116.039673 
L 461.822444 112.851028 
L 462.241317 110.672074 
L 462.66019 116.939215 
L 463.079063 113.043081 
L 464.335683 111.950074 
L 465.173429 122.500279 
L 465.592302 122.275747 
L 466.011176 122.419787 
L 467.267795 114.689653 
L 467.686668 100.59494 
L 468.105542 103.460202 
L 468.524415 86.313823 
L 468.943288 92.195446 
L 470.199907 88.371332 
L 470.618781 94.781101 
L 471.037654 91.229533 
L 471.8754 111.290598 
L 473.13202 113.896023 
L 473.550893 110.152401 
L 473.969766 108.898408 
L 474.388639 108.399918 
L 474.807513 125.854146 
L 476.064132 128.34095 
L 476.483005 129.457964 
L 476.901879 120.0163 
L 477.320752 124.88682 
L 477.739625 118.669105 
L 478.996244 114.284365 
L 479.415118 113.682787 
L 479.833991 116.694913 
L 480.252864 117.961615 
L 480.671737 110.681959 
L 481.928357 111.609745 
L 482.34723 107.504612 
L 482.766103 108.466289 
L 483.184976 102.864273 
L 483.60385 116.324928 
L 484.860469 119.338466 
L 485.279342 117.89948 
L 485.698215 115.094942 
L 486.117089 114.590803 
L 486.535962 117.09314 
L 487.792581 116.269854 
L 488.211455 109.192136 
L 489.049201 108.65693 
L 489.468074 109.567769 
L 490.724694 107.023067 
L 491.981313 132.251206 
L 492.400186 138.639792 
L 493.656806 139.513916 
L 494.075679 135.681329 
L 494.494552 136.654303 
L 494.913426 137.973255 
L 495.332299 144.666867 
L 496.588918 146.074785 
L 497.007792 132.231435 
L 497.426665 135.692626 
L 497.845538 135.078339 
L 498.264411 133.389402 
L 499.521031 130.940726 
L 499.939904 130.526965 
L 500.358777 135.552823 
L 500.77765 134.603855 
L 501.196523 130.491661 
L 502.453143 132.720041 
L 506.223002 135.82678 
L 507.060748 122.041329 
L 508.317368 120.860768 
L 508.736241 123.391349 
L 509.155114 118.205918 
L 509.573987 120.284609 
L 509.99286 115.501642 
L 511.24948 114.316845 
L 511.668353 119.205723 
L 512.087226 115.339245 
L 512.5061 116.92933 
L 512.924973 109.933517 
L 514.181592 111.164916 
L 514.600465 117.388281 
L 515.019339 112.546003 
L 515.438212 111.390861 
L 515.857085 122.41555 
L 517.113705 122.638671 
L 517.532578 123.097621 
L 517.951451 120.647533 
L 518.370324 113.0685 
L 518.789197 114.795565 
L 520.045817 116.943452 
L 520.46469 115.161313 
L 521.302436 119.375182 
L 521.72131 105.962539 
L 522.977929 107.342214 
L 523.396802 105.798729 
L 523.815676 105.452752 
L 524.234549 110.420711 
L 524.653422 118.93459 
L 525.910042 116.089098 
L 526.328915 116.449198 
L 526.747788 118.276526 
L 527.166661 116.433664 
L 527.585534 118.868218 
L 528.842154 122.80248 
L 529.261027 122.750231 
L 529.6799 123.21483 
L 530.098773 126.447251 
L 531.774266 164.866323 
L 532.193139 156.206993 
L 532.612013 151.119 
L 533.030886 144.294058 
L 533.449759 142.11934 
L 535.125252 140.606923 
L 535.544125 138.970236 
L 535.962998 139.054965 
L 536.381871 139.012601 
L 537.638491 137.267178 
L 538.057364 137.398508 
L 538.476237 136.984747 
L 538.89511 137.34061 
L 539.313984 136.969213 
L 540.570603 137.72754 
L 540.989476 138.651089 
L 541.40835 139.287971 
L 541.40835 139.287971 
" clip-path="url(#p28cadde762)" style="fill: none; stroke: #0000ff; stroke-width: 1.5; stroke-linecap: square"/>
   </g>
   <g id="line2d_19">
    <path d="M 80.228969 124.8824 
L 80.647842 131.846707 
L 81.066715 136.847651 
L 81.485589 136.596594 
L 81.904462 136.874542 
L 84.417701 133.461893 
L 84.836574 132.355097 
L 86.093194 136.418281 
L 86.512067 141.2717 
L 86.93094 141.908032 
L 87.349813 138.044845 
L 87.768686 137.916523 
L 89.025306 137.13939 
L 89.444179 137.612683 
L 89.863052 136.258449 
L 90.281926 135.899928 
L 90.700799 135.19754 
L 91.957418 130.601247 
L 92.376291 128.564586 
L 93.214038 130.571528 
L 93.632911 131.023031 
L 94.889531 131.239405 
L 95.308404 130.935737 
L 95.727277 128.369415 
L 96.14615 127.631137 
L 97.821643 127.128367 
L 98.240516 122.374896 
L 99.078263 115.029279 
L 99.497136 113.391994 
L 101.591502 107.590473 
L 102.010375 100.408103 
L 102.429248 99.906919 
L 103.685868 99.685477 
L 104.104741 99.308029 
L 104.523614 99.456312 
L 104.942487 101.080566 
L 105.36136 99.417388 
L 106.61798 96.780183 
L 107.455726 89.125831 
L 107.874599 87.901918 
L 108.293473 85.370107 
L 109.550092 84.679682 
L 110.387839 81.973696 
L 110.806712 82.958274 
L 111.225585 83.268769 
L 112.482205 84.019251 
L 113.319951 89.150792 
L 113.738824 90.441175 
L 114.157697 90.82145 
L 115.83319 93.705369 
L 116.252063 96.322612 
L 117.08981 99.65169 
L 118.346429 100.628787 
L 118.765302 103.210933 
L 119.184176 103.754178 
L 119.603049 105.230803 
L 120.021922 104.574338 
L 121.697415 105.337853 
L 122.116288 107.417333 
L 122.954034 112.965658 
L 124.210654 112.943559 
L 124.629527 113.882145 
L 125.0484 114.493654 
L 125.467273 114.729403 
L 125.886147 110.348622 
L 127.142766 108.010051 
L 127.561639 106.888395 
L 127.980513 106.979655 
L 128.399386 105.559812 
L 128.818259 106.332946 
L 130.493752 107.524865 
L 130.912625 108.95443 
L 131.331498 111.853208 
L 131.750371 113.158416 
L 133.006991 114.993941 
L 133.844737 120.099762 
L 134.26361 119.782096 
L 134.682484 121.564217 
L 135.939103 124.213179 
L 136.357976 126.54906 
L 136.776849 126.196469 
L 137.195723 126.348821 
L 137.614596 127.153638 
L 139.290089 125.508906 
L 139.708962 123.102176 
L 140.127835 123.911924 
L 140.546708 124.161809 
L 141.803328 126.528512 
L 143.059947 136.315025 
L 143.47882 140.251439 
L 144.73544 142.91726 
L 145.154313 145.083621 
L 145.573186 145.432591 
L 145.99206 148.133923 
L 146.410933 149.657781 
L 150.599665 152.010659 
L 151.437411 158.172423 
L 151.856284 157.801664 
L 152.275157 158.953245 
L 153.531777 154.63166 
L 153.95065 152.092747 
L 154.369523 151.03177 
L 155.20727 154.23525 
L 156.463889 155.253029 
L 157.301636 161.123261 
L 157.720509 161.751352 
L 159.396002 167.906222 
L 159.814875 171.227439 
L 160.652621 166.245458 
L 161.071494 167.231966 
L 162.328114 162.742032 
L 162.746987 160.41546 
L 163.16586 161.225138 
L 163.584734 163.233321 
L 164.003607 164.659473 
L 165.260226 157.658621 
L 166.097973 148.6118 
L 166.516846 148.602457 
L 166.935719 150.649805 
L 168.192339 152.624477 
L 168.611212 156.268842 
L 169.030085 156.868525 
L 169.448958 156.897933 
L 169.867831 159.036885 
L 171.124451 158.574487 
L 171.543324 160.601977 
L 171.962197 155.988652 
L 172.38107 152.638854 
L 172.799944 147.647874 
L 174.056563 146.824335 
L 174.475436 141.040984 
L 174.89431 137.670155 
L 175.313183 136.418626 
L 175.732056 136.886127 
L 176.988676 135.338721 
L 177.407549 136.630518 
L 177.826422 138.642287 
L 178.664168 141.26746 
L 179.920788 141.858006 
L 180.339661 143.054683 
L 181.177407 148.96577 
L 182.8529 150.084633 
L 183.271773 149.416066 
L 183.690647 146.783033 
L 184.10952 145.016323 
L 184.528393 144.10318 
L 186.203886 142.549707 
L 187.041632 136.843617 
L 187.460505 132.218846 
L 188.717125 128.857601 
L 189.135998 125.128045 
L 189.554871 123.128654 
L 189.973744 122.04699 
L 191.649237 119.542864 
L 192.06811 114.126238 
L 192.486984 112.120814 
L 192.905857 111.91199 
L 193.32473 111.103173 
L 197.513462 108.553676 
L 197.932335 103.617651 
L 198.351208 103.58283 
L 198.770081 102.601907 
L 199.188955 102.822763 
L 200.445574 105.242939 
L 201.28332 112.42162 
L 201.702194 115.26396 
L 202.121067 114.495446 
L 203.377686 113.729104 
L 203.79656 110.875629 
L 204.215433 109.708119 
L 204.634306 108.946017 
L 205.053179 107.60947 
L 206.309799 109.714463 
L 206.728672 106.877708 
L 207.147545 105.360676 
L 207.985292 108.746502 
L 209.241911 111.277762 
L 209.660784 113.780474 
L 210.079657 114.016638 
L 210.498531 111.677068 
L 210.917404 111.152888 
L 212.174023 110.328867 
L 212.592897 110.527417 
L 213.01177 111.441111 
L 213.430643 114.917197 
L 213.849516 119.517662 
L 215.106136 123.322239 
L 215.525009 123.191952 
L 215.943882 123.616909 
L 216.362755 123.407396 
L 216.781628 124.587903 
L 218.038248 123.195641 
L 218.457121 121.854508 
L 218.875994 121.38818 
L 219.294868 121.093407 
L 219.713741 119.657498 
L 221.389234 119.114943 
L 222.22698 121.87709 
L 222.645853 121.148086 
L 223.902473 120.612392 
L 224.321346 117.656245 
L 225.159092 114.845934 
L 225.577965 114.817801 
L 226.834585 115.443169 
L 227.253458 116.126733 
L 227.672331 115.849611 
L 228.091205 115.058653 
L 228.510078 115.52112 
L 229.766697 115.21228 
L 230.18557 112.237172 
L 230.604444 110.270395 
L 231.023317 110.250812 
L 231.44219 110.455051 
L 232.69881 112.53491 
L 233.955429 122.051024 
L 234.374302 123.89472 
L 236.887542 123.33958 
L 237.306415 121.573939 
L 238.563034 120.93647 
L 238.981907 117.238942 
L 239.400781 116.124009 
L 240.238527 123.846901 
L 241.495147 128.868392 
L 241.91402 129.265595 
L 242.332893 130.957526 
L 242.751766 133.13878 
L 243.170639 133.80159 
L 244.427259 134.665983 
L 244.846132 134.564277 
L 245.265005 135.705447 
L 246.102752 139.135403 
L 247.359371 141.608121 
L 247.778244 143.040444 
L 248.615991 144.629153 
L 249.034864 143.940727 
L 250.710357 140.938865 
L 251.12923 141.327449 
L 251.548103 143.115672 
L 251.966976 142.857443 
L 253.223596 141.286698 
L 253.642469 139.863476 
L 254.480215 137.722387 
L 254.899089 134.767205 
L 256.574581 130.106062 
L 256.993455 129.982981 
L 259.087821 132.247565 
L 259.506694 135.28218 
L 259.925567 136.711124 
L 260.763313 141.214021 
L 262.019933 142.287238 
L 262.438806 140.152733 
L 262.857679 138.93575 
L 263.276552 139.538329 
L 263.695426 140.64223 
L 264.952045 141.789088 
L 265.370918 141.681349 
L 266.208665 139.937566 
L 266.627538 136.586492 
L 267.884157 134.069989 
L 268.303031 134.403996 
L 268.721904 135.564404 
L 269.55965 138.776021 
L 270.81627 140.352248 
L 271.235143 142.441382 
L 271.654016 136.275377 
L 272.072889 133.971524 
L 272.491763 133.051969 
L 273.748382 127.624035 
L 274.167255 122.500562 
L 274.586128 121.69078 
L 275.005002 123.59774 
L 275.423875 124.307851 
L 276.680494 122.663394 
L 277.099368 124.450273 
L 277.937114 130.231832 
L 278.355987 132.888723 
L 279.612607 136.282031 
L 280.869226 145.405217 
L 281.288099 147.057396 
L 282.544719 149.519185 
L 282.963592 152.746179 
L 283.382465 152.9519 
L 283.801339 155.799825 
L 284.220212 155.804065 
L 285.476831 157.04663 
L 285.895705 151.698509 
L 286.314578 147.941716 
L 286.733451 146.79572 
L 287.152324 148.040526 
L 288.408944 148.972596 
L 288.827817 146.711494 
L 289.24669 147.327174 
L 289.665563 148.730537 
L 290.084436 151.43904 
L 291.341056 154.693718 
L 291.759929 154.4147 
L 292.178802 154.968012 
L 292.597676 156.038574 
L 293.016549 155.862537 
L 294.692042 155.79355 
L 295.110915 156.544274 
L 295.948661 160.114756 
L 297.205281 158.170079 
L 297.624154 158.24148 
L 298.043027 159.747755 
L 298.4619 159.982022 
L 303.069505 160.673274 
L 303.488378 160.929882 
L 303.907252 161.836681 
L 304.326125 161.709532 
L 304.744998 159.743928 
L 306.001618 161.41438 
L 306.420491 164.740286 
L 307.258237 169.342682 
L 307.67711 172.997148 
L 308.93373 176.72112 
L 309.352603 181.073941 
L 309.771476 182.934392 
L 310.190349 182.810449 
L 310.609223 183.32794 
L 311.865842 181.683518 
L 312.284715 179.003528 
L 312.703589 178.551439 
L 313.122462 178.979912 
L 313.541335 180.386274 
L 314.797955 180.126287 
L 315.216828 175.981393 
L 315.635701 174.725762 
L 316.054574 174.310218 
L 316.473447 174.119046 
L 317.730067 175.206846 
L 318.14894 176.332226 
L 318.567813 176.884814 
L 318.986686 176.038348 
L 319.40556 177.354865 
L 321.081052 178.7453 
L 321.499926 177.609163 
L 321.918799 178.856314 
L 323.594292 180.603131 
L 324.013165 181.821045 
L 324.432038 182.642687 
L 324.850911 183.837088 
L 325.269784 183.993715 
L 326.526404 184.303589 
L 326.945277 185.601523 
L 327.36415 188.947012 
L 328.201897 192.906767 
L 329.458516 192.917351 
L 329.877389 192.012414 
L 330.296263 192.453023 
L 331.134009 198.628509 
L 332.390628 200.434178 
L 333.647248 206.035459 
L 334.066121 205.660597 
L 335.322741 205.074567 
L 335.741614 205.769267 
L 336.160487 207.476608 
L 336.57936 207.341495 
L 336.998234 202.009061 
L 339.092599 198.085437 
L 339.511473 198.448784 
L 339.930346 200.104135 
L 341.186965 201.07899 
L 342.443585 207.945246 
L 342.862458 208.595471 
L 344.119078 209.736055 
L 344.537951 211.402646 
L 344.956824 211.175756 
L 345.375697 213.805273 
L 345.794571 211.432157 
L 347.05119 211.439294 
L 347.888936 213.775175 
L 348.30781 212.219013 
L 348.726683 207.299882 
L 350.402176 203.878579 
L 351.658795 213.121192 
L 352.915415 215.874962 
L 353.334288 215.829729 
L 354.172034 207.465024 
L 358.779639 204.494294 
L 359.198513 201.717045 
L 359.617386 201.528735 
L 360.036259 198.798961 
L 360.455132 197.48434 
L 361.711752 196.744752 
L 362.130625 197.23873 
L 362.549498 196.447013 
L 362.968371 195.353835 
L 363.387244 193.027435 
L 364.643864 190.661352 
L 365.48161 186.634574 
L 365.900484 186.198655 
L 367.575976 186.272262 
L 367.99485 183.864428 
L 368.413723 180.440126 
L 368.832596 179.764733 
L 370.508089 179.642514 
L 370.926962 177.512112 
L 371.345835 177.065125 
L 372.183581 176.682954 
L 373.440201 177.236887 
L 373.859074 177.718695 
L 374.277947 177.545623 
L 374.696821 178.595465 
L 375.115694 177.762377 
L 376.372313 176.990346 
L 376.791186 173.175805 
L 377.21006 171.607921 
L 379.304426 171.283084 
L 379.723299 171.566032 
L 380.142172 172.7001 
L 380.561045 174.939516 
L 380.979918 178.066183 
L 382.236538 180.727797 
L 382.655411 178.137963 
L 383.074284 177.689907 
L 383.912031 174.493287 
L 385.16865 175.774397 
L 385.587523 177.301978 
L 386.844143 184.091317 
L 388.100763 180.78258 
L 388.519636 175.659418 
L 391.032875 173.610725 
L 391.451748 169.860587 
L 391.870621 169.078075 
L 392.289494 171.352209 
L 392.708368 171.631089 
L 394.38386 171.757031 
L 394.802734 172.698203 
L 395.221607 174.888422 
L 395.64048 174.184861 
L 396.8971 171.589373 
L 397.315973 168.196513 
L 397.734846 168.019787 
L 398.153719 167.167081 
L 398.572592 168.785129 
L 400.248085 173.153465 
L 401.085831 176.76294 
L 401.504705 178.361198 
L 402.761324 179.611451 
L 403.180197 178.762676 
L 403.599071 177.591132 
L 404.017944 178.031913 
L 404.436817 177.262882 
L 406.11231 177.496115 
L 406.950056 180.02272 
L 407.368929 182.504126 
L 408.625549 182.417108 
L 409.463295 185.211077 
L 410.301042 190.270355 
L 411.557661 192.499463 
L 412.395407 196.071944 
L 413.233154 198.160492 
L 414.489773 197.682648 
L 414.908647 197.09517 
L 415.32752 196.885622 
L 415.746393 197.521816 
L 416.165266 198.432063 
L 417.421886 199.03571 
L 417.840759 200.266415 
L 418.259632 199.146414 
L 418.678505 199.035917 
L 419.097378 196.92165 
L 420.353998 195.966412 
L 420.772871 195.932901 
L 421.191744 195.505048 
L 422.029491 194.236454 
L 423.28611 193.150688 
L 423.704984 193.115936 
L 424.961603 199.696589 
L 426.218223 201.01745 
L 427.055969 205.925996 
L 427.474842 202.510348 
L 427.893715 201.609617 
L 429.150335 203.224941 
L 429.988081 207.064615 
L 430.825828 212.718749 
L 432.082447 214.603816 
L 432.501321 217.018166 
L 432.920194 218.375158 
L 433.339067 220.296943 
L 433.75794 219.054206 
L 435.01456 217.865183 
L 435.433433 216.028554 
L 435.852306 215.708441 
L 436.690052 217.179481 
L 437.946672 217.753548 
L 438.365545 218.187951 
L 438.784418 219.038071 
L 439.203292 220.341245 
L 439.622165 219.923977 
L 440.878784 215.525992 
L 441.297657 215.487895 
L 441.716531 216.456821 
L 442.554277 221.820939 
L 443.810897 225.20087 
L 444.22977 228.062999 
L 445.067516 231.568562 
L 445.486389 233.292383 
L 447.580755 235.101292 
L 447.999628 236.078182 
L 448.418502 233.977361 
L 449.675121 232.275191 
L 450.093994 231.510228 
L 451.350614 200.081622 
L 452.607234 186.223271 
L 455.958219 164.665644 
L 456.377092 140.458574 
L 456.795965 137.443197 
L 457.214839 136.354466 
L 458.471458 141.125831 
L 458.890331 143.976514 
L 460.146951 168.959994 
L 461.403571 166.671242 
L 461.822444 164.836165 
L 462.241317 164.601036 
L 462.66019 162.807882 
L 464.335683 169.209258 
L 465.173429 183.879839 
L 465.592302 191.71309 
L 466.011176 196.374268 
L 467.267795 200.326921 
L 467.686668 202.982296 
L 468.105542 201.47702 
L 468.524415 201.097504 
L 468.943288 198.644748 
L 470.618781 196.041605 
L 471.037654 197.298236 
L 471.456527 198.102744 
L 471.8754 200.519955 
L 473.13202 202.868144 
L 473.550893 204.10502 
L 473.969766 204.691016 
L 474.807513 207.642819 
L 476.064132 209.602149 
L 476.483005 210.94273 
L 476.901879 213.000766 
L 477.320752 211.773405 
L 477.739625 212.564811 
L 478.996244 210.232171 
L 479.415118 207.257924 
L 479.833991 205.438741 
L 480.252864 204.9278 
L 480.671737 205.787642 
L 481.928357 202.991363 
L 482.34723 202.552995 
L 482.766103 198.7167 
L 483.184976 199.091424 
L 483.60385 199.3159 
L 484.860469 201.083024 
L 485.698215 206.695889 
L 486.535962 209.720472 
L 487.792581 211.145141 
L 488.211455 210.525703 
L 488.630328 209.534127 
L 489.049201 209.162781 
L 489.468074 209.460968 
L 490.724694 208.798227 
L 491.143567 207.713427 
L 491.981313 207.890566 
L 492.400186 209.669171 
L 493.656806 213.005868 
L 494.494552 219.693605 
L 495.332299 224.067457 
L 496.588918 227.236289 
L 497.007792 229.923692 
L 497.426665 227.821629 
L 497.845538 227.92168 
L 498.264411 227.647213 
L 499.521031 227.76464 
L 500.358777 225.629411 
L 500.77765 225.952214 
L 501.196523 223.927793 
L 502.453143 222.419243 
L 506.223002 221.426494 
L 506.641875 220.740723 
L 507.060748 218.78691 
L 508.317368 214.714658 
L 508.736241 212.798975 
L 509.155114 213.061548 
L 509.573987 212.756742 
L 509.99286 212.749881 
L 511.24948 211.765027 
L 511.668353 209.444074 
L 512.087226 208.444327 
L 512.5061 207.83006 
L 512.924973 208.641635 
L 514.181592 206.092759 
L 514.600465 204.574038 
L 515.019339 206.055904 
L 515.438212 205.888969 
L 515.857085 205.014474 
L 517.113705 206.250316 
L 517.532578 207.343115 
L 517.951451 209.27445 
L 518.370324 209.959566 
L 518.789197 207.65392 
L 520.045817 206.998696 
L 520.883563 207.957933 
L 521.302436 208.052089 
L 521.72131 208.324004 
L 523.396802 202.35379 
L 523.815676 201.853882 
L 524.234549 201.67264 
L 524.653422 202.890795 
L 526.747788 204.955692 
L 527.166661 205.938753 
L 527.585534 206.625626 
L 529.261027 208.044159 
L 529.6799 209.007879 
L 530.098773 210.916424 
L 531.774266 212.083589 
L 532.193139 218.620354 
L 533.030886 223.182654 
L 534.706379 225.543427 
L 535.125252 226.582926 
L 535.544125 228.053415 
L 535.962998 227.470177 
L 536.381871 227.567849 
L 537.638491 227.997942 
L 538.057364 226.776511 
L 538.476237 225.116437 
L 538.89511 222.994861 
L 539.313984 221.741022 
L 540.570603 220.238815 
L 540.989476 219.165013 
L 541.40835 219.111092 
L 541.40835 219.111092 
" clip-path="url(#p28cadde762)" style="fill: none; stroke-dasharray: 5.55,2.4; stroke-dashoffset: 0; stroke: #ff0000; stroke-width: 1.5"/>
   </g>
   <g id="patch_3">
    <path d="M 57.17 246.04 
L 57.17 26.88 
" style="fill: none; stroke: #000000; stroke-width: 0.8; stroke-linejoin: miter; stroke-linecap: square"/>
   </g>
   <g id="patch_4">
    <path d="M 564.467319 246.04 
L 564.467319 26.88 
" style="fill: none; stroke: #000000; stroke-width: 0.8; stroke-linejoin: miter; stroke-linecap: square"/>
   </g>
   <g id="patch_5">
    <path d="M 57.17 246.04 
L 564.467319 246.04 
" style="fill: none; stroke: #000000; stroke-width: 0.8; stroke-linejoin: miter; stroke-linecap: square"/>
   </g>
   <g id="patch_6">
    <path d="M 57.17 26.88 
L 564.467319 26.88 
" style="fill: none; stroke: #000000; stroke-width: 0.8; stroke-linejoin: miter; stroke-linecap: square"/>
   </g>
   <g id="text_20">
    <!-- Real vs Predicted Stock Prices -->
    <g transform="translate(221.046472 20.88) scale(0.12 -0.12)">
     <defs>
      <path id="DejaVuSans-52" d="M 2841 2188 
Q 3044 2119 3236 1894 
Q 3428 1669 3622 1275 
L 4263 0 
L 3584 0 
L 2988 1197 
Q 2756 1666 2539 1819 
Q 2322 1972 1947 1972 
L 1259 1972 
L 1259 0 
L 628 0 
L 628 4666 
L 2053 4666 
Q 2853 4666 3247 4331 
Q 3641 3997 3641 3322 
Q 3641 2881 3436 2590 
Q 3231 2300 2841 2188 
z
M 1259 4147 
L 1259 2491 
L 2053 2491 
Q 2509 2491 2742 2702 
Q 2975 2913 2975 3322 
Q 2975 3731 2742 3939 
Q 2509 4147 2053 4147 
L 1259 4147 
z
" transform="scale(0.015625)"/>
      <path id="DejaVuSans-6c" d="M 603 4863 
L 1178 4863 
L 1178 0 
L 603 0 
L 603 4863 
z
" transform="scale(0.015625)"/>
      <path id="DejaVuSans-76" d="M 191 3500 
L 800 3500 
L 1894 563 
L 2988 3500 
L 3597 3500 
L 2284 0 
L 1503 0 
L 191 3500 
z
" transform="scale(0.015625)"/>
      <path id="DejaVuSans-73" d="M 2834 3397 
L 2834 2853 
Q 2591 2978 2328 3040 
Q 2066 3103 1784 3103 
Q 1356 3103 1142 2972 
Q 928 2841 928 2578 
Q 928 2378 1081 2264 
Q 1234 2150 1697 2047 
L 1894 2003 
Q 2506 1872 2764 1633 
Q 3022 1394 3022 966 
Q 3022 478 2636 193 
Q 2250 -91 1575 -91 
Q 1294 -91 989 -36 
Q 684 19 347 128 
L 347 722 
Q 666 556 975 473 
Q 1284 391 1588 391 
Q 1994 391 2212 530 
Q 2431 669 2431 922 
Q 2431 1156 2273 1281 
Q 2116 1406 1581 1522 
L 1381 1569 
Q 847 1681 609 1914 
Q 372 2147 372 2553 
Q 372 3047 722 3315 
Q 1072 3584 1716 3584 
Q 2034 3584 2315 3537 
Q 2597 3491 2834 3397 
z
" transform="scale(0.015625)"/>
      <path id="DejaVuSans-64" d="M 2906 2969 
L 2906 4863 
L 3481 4863 
L 3481 0 
L 2906 0 
L 2906 525 
Q 2725 213 2448 61 
Q 2172 -91 1784 -91 
Q 1150 -91 751 415 
Q 353 922 353 1747 
Q 353 2572 751 3078 
Q 1150 3584 1784 3584 
Q 2172 3584 2448 3432 
Q 2725 3281 2906 2969 
z
M 947 1747 
Q 947 1113 1208 752 
Q 1469 391 1925 391 
Q 2381 391 2643 752 
Q 2906 1113 2906 1747 
Q 2906 2381 2643 2742 
Q 2381 3103 1925 3103 
Q 1469 3103 1208 2742 
Q 947 2381 947 1747 
z
" transform="scale(0.015625)"/>
     </defs>
     <use xlink:href="#DejaVuSans-52"/>
     <use xlink:href="#DejaVuSans-65" transform="translate(64.982422 0)"/>
     <use xlink:href="#DejaVuSans-61" transform="translate(126.505859 0)"/>
     <use xlink:href="#DejaVuSans-6c" transform="translate(187.785156 0)"/>
     <use xlink:href="#DejaVuSans-20" transform="translate(215.568359 0)"/>
     <use xlink:href="#DejaVuSans-76" transform="translate(247.355469 0)"/>
     <use xlink:href="#DejaVuSans-73" transform="translate(306.535156 0)"/>
     <use xlink:href="#DejaVuSans-20" transform="translate(358.634766 0)"/>
     <use xlink:href="#DejaVuSans-50" transform="translate(390.421875 0)"/>
     <use xlink:href="#DejaVuSans-72" transform="translate(448.974609 0)"/>
     <use xlink:href="#DejaVuSans-65" transform="translate(487.837891 0)"/>
     <use xlink:href="#DejaVuSans-64" transform="translate(549.361328 0)"/>
     <use xlink:href="#DejaVuSans-69" transform="translate(612.837891 0)"/>
     <use xlink:href="#DejaVuSans-63" transform="translate(640.621094 0)"/>
     <use xlink:href="#DejaVuSans-74" transform="translate(695.601562 0)"/>
     <use xlink:href="#DejaVuSans-65" transform="translate(734.810547 0)"/>
     <use xlink:href="#DejaVuSans-64" transform="translate(796.333984 0)"/>
     <use xlink:href="#DejaVuSans-20" transform="translate(859.810547 0)"/>
     <use xlink:href="#DejaVuSans-53" transform="translate(891.597656 0)"/>
     <use xlink:href="#DejaVuSans-74" transform="translate(955.074219 0)"/>
     <use xlink:href="#DejaVuSans-6f" transform="translate(994.283203 0)"/>
     <use xlink:href="#DejaVuSans-63" transform="translate(1055.464844 0)"/>
     <use xlink:href="#DejaVuSans-6b" transform="translate(1110.445312 0)"/>
     <use xlink:href="#DejaVuSans-20" transform="translate(1168.355469 0)"/>
     <use xlink:href="#DejaVuSans-50" transform="translate(1200.142578 0)"/>
     <use xlink:href="#DejaVuSans-72" transform="translate(1258.695312 0)"/>
     <use xlink:href="#DejaVuSans-69" transform="translate(1299.808594 0)"/>
     <use xlink:href="#DejaVuSans-63" transform="translate(1327.591797 0)"/>
     <use xlink:href="#DejaVuSans-65" transform="translate(1382.572266 0)"/>
     <use xlink:href="#DejaVuSans-73" transform="translate(1444.095703 0)"/>
    </g>
   </g>
   <g id="legend_1">
    <g id="patch_7">
     <path d="M 445.743881 64.23625 
L 557.467319 64.23625 
Q 559.467319 64.23625 559.467319 62.23625 
L 559.467319 33.88 
Q 559.467319 31.88 557.467319 31.88 
L 445.743881 31.88 
Q 443.743881 31.88 443.743881 33.88 
L 443.743881 62.23625 
Q 443.743881 64.23625 445.743881 64.23625 
z
" style="fill: #ffffff; opacity: 0.8; stroke: #cccccc; stroke-linejoin: miter"/>
    </g>
    <g id="line2d_20">
     <path d="M 447.743881 39.978438 
L 457.743881 39.978438 
L 467.743881 39.978438 
" style="fill: none; stroke: #0000ff; stroke-width: 1.5; stroke-linecap: square"/>
    </g>
    <g id="text_21">
     <!-- Real Prices -->
     <g transform="translate(475.743881 43.478438) scale(0.1 -0.1)">
      <use xlink:href="#DejaVuSans-52"/>
      <use xlink:href="#DejaVuSans-65" transform="translate(64.982422 0)"/>
      <use xlink:href="#DejaVuSans-61" transform="translate(126.505859 0)"/>
      <use xlink:href="#DejaVuSans-6c" transform="translate(187.785156 0)"/>
      <use xlink:href="#DejaVuSans-20" transform="translate(215.568359 0)"/>
      <use xlink:href="#DejaVuSans-50" transform="translate(247.355469 0)"/>
      <use xlink:href="#DejaVuSans-72" transform="translate(305.908203 0)"/>
      <use xlink:href="#DejaVuSans-69" transform="translate(347.021484 0)"/>
      <use xlink:href="#DejaVuSans-63" transform="translate(374.804688 0)"/>
      <use xlink:href="#DejaVuSans-65" transform="translate(429.785156 0)"/>
      <use xlink:href="#DejaVuSans-73" transform="translate(491.308594 0)"/>
     </g>
    </g>
    <g id="line2d_21">
     <path d="M 447.743881 54.656563 
L 457.743881 54.656563 
L 467.743881 54.656563 
" style="fill: none; stroke-dasharray: 5.55,2.4; stroke-dashoffset: 0; stroke: #ff0000; stroke-width: 1.5"/>
    </g>
    <g id="text_22">
     <!-- Predicted Prices -->
     <g transform="translate(475.743881 58.156563) scale(0.1 -0.1)">
      <use xlink:href="#DejaVuSans-50"/>
      <use xlink:href="#DejaVuSans-72" transform="translate(58.552734 0)"/>
      <use xlink:href="#DejaVuSans-65" transform="translate(97.416016 0)"/>
      <use xlink:href="#DejaVuSans-64" transform="translate(158.939453 0)"/>
      <use xlink:href="#DejaVuSans-69" transform="translate(222.416016 0)"/>
      <use xlink:href="#DejaVuSans-63" transform="translate(250.199219 0)"/>
      <use xlink:href="#DejaVuSans-74" transform="translate(305.179688 0)"/>
      <use xlink:href="#DejaVuSans-65" transform="translate(344.388672 0)"/>
      <use xlink:href="#DejaVuSans-64" transform="translate(405.912109 0)"/>
      <use xlink:href="#DejaVuSans-20" transform="translate(469.388672 0)"/>
      <use xlink:href="#DejaVuSans-50" transform="translate(501.175781 0)"/>
      <use xlink:href="#DejaVuSans-72" transform="translate(559.728516 0)"/>
      <use xlink:href="#DejaVuSans-69" transform="translate(600.841797 0)"/>
      <use xlink:href="#DejaVuSans-63" transform="translate(628.625 0)"/>
      <use xlink:href="#DejaVuSans-65" transform="translate(683.605469 0)"/>
      <use xlink:href="#DejaVuSans-73" transform="translate(745.128906 0)"/>
     </g>
    </g>
   </g>
  </g>
 </g>
 <defs>
  <clipPath id="p28cadde762">
   <rect x="57.17" y="26.88" width="507.297319" height="219.16"/>
  </clipPath>
 </defs>
</svg>
